M48
; DRILL file KiCad 10.0.0 date 2026-04-07T21:47:43
; FORMAT={-:-/ absolute / metric / decimal}
; #@! TF.CreationDate,2026-04-07T21:47:43-07:00
; #@! TF.GenerationSoftware,Kicad,Pcbnew,10.0.0
; #@! TF.FileFunction,NonPlated,1,2,NPTH
FMAT,2
METRIC
; #@! TA.AperFunction,NonPlated,NPTH,ComponentDrill
T1C0.900
; #@! TA.AperFunction,NonPlated,NPTH,ComponentDrill
T2C1.100
; #@! TA.AperFunction,NonPlated,NPTH,ComponentDrill
T3C1.900
; #@! TA.AperFunction,NonPlated,NPTH,ComponentDrill
T4C3.000
; #@! TA.AperFunction,NonPlated,NPTH,ComponentDrill
T5C5.000
%
G90
G05
T1
X170.37Y-38.22
X173.37Y-38.22
T2
X148.07Y-117.215
T3
X44.584Y-99.045
X47.883Y-80.334
X54.96Y-59.032
X55.416Y-100.955
X58.716Y-82.244
X65.585Y-61.879
X66.534Y-89.567
X71.451Y-71.214
X76.369Y-52.861
X77.159Y-92.414
X82.077Y-74.061
X86.994Y-55.708
X88.224Y-85.047
X94.722Y-67.193
X98.56Y-88.809
X101.22Y-49.339
X102.916Y-100.249
X105.059Y-70.955
X110.187Y-82.695
X111.557Y-53.101
X113.078Y-104.458
X115.192Y-120.75
X117.458Y-65.141
X120.349Y-86.905
X122.893Y-101.668
X123.919Y-127.447
X127.62Y-69.351
X130.164Y-84.115
X130.266Y-132.317
X133.056Y-105.878
X138.992Y-139.013
X140.327Y-88.324
X163.414Y-88.324
X164.748Y-139.013
X170.685Y-105.878
X173.475Y-132.317
X173.577Y-84.115
X176.12Y-69.351
X179.822Y-127.447
X180.848Y-101.668
X183.391Y-86.905
X186.283Y-65.141
X188.549Y-120.75
X190.662Y-104.458
X192.184Y-53.101
X193.554Y-82.695
X198.682Y-70.955
X200.825Y-100.249
X202.52Y-49.339
X205.18Y-88.809
X209.019Y-67.193
X215.517Y-85.047
X216.746Y-55.708
X221.664Y-74.061
X226.581Y-92.414
X227.372Y-52.861
X232.289Y-71.214
X237.207Y-89.567
X238.155Y-61.879
X245.025Y-82.244
X248.324Y-100.955
X248.78Y-59.032
X255.858Y-80.334
X259.157Y-99.045
T4
X51.033Y-94.14
X54.333Y-75.429
X55.575Y-97.175
X58.875Y-78.464
X61.813Y-54.709
X66.073Y-58.128
X73.386Y-85.243
X77.647Y-88.662
X78.304Y-66.89
X82.564Y-70.309
X83.222Y-48.538
X87.482Y-51.957
X95.427Y-81.337
X99.373Y-85.114
X101.925Y-63.483
X105.871Y-67.26
X108.424Y-45.629
X110.274Y-96.856
X112.37Y-49.406
X114.051Y-100.802
X117.545Y-79.303
X121.322Y-83.249
X123.177Y-119.378
X124.816Y-61.749
X125.805Y-124.167
X128.593Y-65.695
X130.251Y-98.276
X134.029Y-102.222
X137.522Y-80.722
X138.251Y-130.945
X140.879Y-135.734
X141.3Y-84.668
X165.489Y-130.945
X166.218Y-80.722
X170.795Y-129.646
X171.68Y-80.842
X173.489Y-98.276
X178.925Y-61.749
X178.951Y-98.395
X180.563Y-119.378
X184.386Y-61.868
X185.869Y-118.08
X186.196Y-79.303
X191.657Y-79.422
X193.467Y-96.856
X195.317Y-45.629
X198.928Y-96.976
X200.768Y-45.986
X201.815Y-63.483
X207.266Y-63.84
X208.314Y-81.337
X213.764Y-81.694
X220.519Y-48.538
X225.437Y-66.89
X225.918Y-49.369
X230.354Y-85.243
X230.836Y-67.721
X235.753Y-86.074
X241.928Y-54.709
X247.327Y-55.54
X249.408Y-75.429
X252.707Y-94.14
X254.714Y-76.727
X258.013Y-95.439
T5
X50.0Y-100.0
X53.299Y-81.289
X60.273Y-60.456
X71.846Y-90.99
X76.764Y-72.637
X81.682Y-54.285
X93.392Y-86.928
X99.89Y-69.074
X106.389Y-51.22
X107.997Y-102.353
X115.268Y-84.8
X119.555Y-124.099
X122.539Y-67.246
X127.974Y-103.773
X134.629Y-135.665
X135.245Y-86.22
X168.495Y-86.22
X169.112Y-135.665
X175.766Y-103.773
X181.202Y-67.246
X184.185Y-124.099
X188.473Y-84.8
X195.744Y-102.353
X197.352Y-51.22
X203.85Y-69.074
X210.349Y-86.928
X222.059Y-54.285
X226.976Y-72.637
X231.894Y-90.99
X243.468Y-60.456
X250.441Y-81.289
X253.741Y-100.0
M30
