%TF.GenerationSoftware,KiCad,Pcbnew,10.0.0*%
%TF.CreationDate,2026-04-07T21:47:28-07:00*%
%TF.ProjectId,chuckplus,63687563-6b70-46c7-9573-2e6b69636164,v1.4*%
%TF.SameCoordinates,Original*%
%TF.FileFunction,Paste,Bot*%
%TF.FilePolarity,Positive*%
%FSLAX46Y46*%
G04 Gerber Fmt 4.6, Leading zero omitted, Abs format (unit mm)*
G04 Created by KiCad (PCBNEW 10.0.0) date 2026-04-07 21:47:28*
%MOMM*%
%LPD*%
G01*
G04 APERTURE LIST*
G04 Aperture macros list*
%AMRotRect*
0 Rectangle, with rotation*
0 The origin of the aperture is its center*
0 $1 length*
0 $2 width*
0 $3 Rotation angle, in degrees counterclockwise*
0 Add horizontal line*
21,1,$1,$2,0,0,$3*%
G04 Aperture macros list end*
%ADD10R,0.900000X0.900000*%
%ADD11R,0.900000X1.250000*%
%ADD12RotRect,2.600000X2.600000X15.000000*%
%ADD13RotRect,1.200000X1.200000X340.000000*%
%ADD14RotRect,2.600000X2.600000X345.000000*%
%ADD15RotRect,1.200000X1.200000X20.000000*%
%ADD16O,1.524000X0.813000*%
%ADD17RotRect,2.600000X2.600000X340.000000*%
%ADD18R,1.200000X1.200000*%
%ADD19RotRect,1.200000X1.200000X37.500000*%
%ADD20RotRect,1.200000X1.200000X350.000000*%
%ADD21R,1.400000X1.500000*%
%ADD22RotRect,1.200000X1.200000X15.000000*%
%ADD23RotRect,2.600000X2.600000X337.500000*%
%ADD24RotRect,2.600000X2.600000X322.500000*%
%ADD25RotRect,2.600000X2.600000X22.500000*%
%ADD26RotRect,1.200000X1.200000X10.000000*%
%ADD27RotRect,1.200000X1.200000X22.500000*%
%ADD28RotRect,1.200000X1.200000X322.500000*%
%ADD29RotRect,2.600000X2.600000X10.000000*%
%ADD30RotRect,2.600000X2.600000X20.000000*%
%ADD31RotRect,1.200000X1.200000X337.500000*%
%ADD32RotRect,1.200000X1.200000X345.000000*%
%ADD33RotRect,2.600000X2.600000X350.000000*%
%ADD34RotRect,2.600000X2.600000X37.500000*%
%ADD35R,2.000000X1.000000*%
G04 APERTURE END LIST*
D10*
%TO.C,T1*%
X168170260Y-37119699D03*
X168170260Y-39319699D03*
X175570260Y-37119699D03*
X175570260Y-39319699D03*
D11*
X169620260Y-40294699D03*
X172620260Y-40294699D03*
X174120260Y-40294699D03*
%TD*%
D12*
%TO.C,S18*%
X227190682Y-86090424D03*
X238916527Y-85226101D03*
%TD*%
D13*
%TO.C,SW9*%
X108168588Y-56124237D03*
X111269574Y-57252903D03*
%TD*%
D14*
%TO.C,S3*%
X58649431Y-53861094D03*
X69236473Y-58975491D03*
%TD*%
D12*
%TO.C,S17*%
X238764275Y-55556359D03*
X250490120Y-54692036D03*
%TD*%
D15*
%TO.C,SW21*%
X214864637Y-89541021D03*
X217965623Y-88412355D03*
%TD*%
D16*
%TO.C,*%
X136980260Y-40949699D03*
X136980260Y-43489699D03*
X136980260Y-46029699D03*
X136980260Y-48569699D03*
X136980260Y-51109699D03*
X136980260Y-53649699D03*
X136980260Y-56189699D03*
X154760260Y-56189699D03*
X154760260Y-53649699D03*
X154760260Y-51109699D03*
X154760260Y-48569699D03*
X136980260Y-42219699D03*
X136980260Y-44759699D03*
X136980260Y-47299699D03*
X136980260Y-49839699D03*
X136980260Y-52379699D03*
X136980260Y-54919699D03*
X154760260Y-54919699D03*
X154760260Y-52379699D03*
X154760260Y-49839699D03*
X154760260Y-43489699D03*
X154760260Y-46029699D03*
X154760260Y-40949699D03*
%TD*%
D17*
%TO.C,S8*%
X98847843Y-62362572D03*
X108948848Y-68380228D03*
%TD*%
D18*
%TO.C,DB8*%
X163220260Y-70719699D03*
X166520260Y-70719699D03*
%TD*%
D15*
%TO.C,SW23*%
X201867872Y-53832702D03*
X204968858Y-52704036D03*
%TD*%
D19*
%TO.C,SW31*%
X189278060Y-125232641D03*
X191896126Y-123223729D03*
%TD*%
D18*
%TO.C,SW36*%
X150220260Y-94715046D03*
X153520260Y-94715046D03*
%TD*%
D20*
%TO.C,SW1*%
X52604513Y-104520953D03*
X55854379Y-105093991D03*
%TD*%
D21*
%TO.C,DB4*%
X163820260Y-64719699D03*
X165920260Y-64719699D03*
%TD*%
D22*
%TO.C,SW19*%
X231247627Y-75634117D03*
X234435183Y-74780017D03*
%TD*%
D23*
%TO.C,S12*%
X121790133Y-60495688D03*
X131619038Y-66948216D03*
%TD*%
D24*
%TO.C,S29*%
X120579137Y-117384433D03*
X128403093Y-126161005D03*
%TD*%
D25*
%TO.C,S24*%
X190440946Y-98109686D03*
X201953658Y-95722227D03*
%TD*%
D23*
%TO.C,S11*%
X114519148Y-78049399D03*
X124348053Y-84501927D03*
%TD*%
D22*
%TO.C,SW20*%
X226330065Y-57281526D03*
X229517621Y-56427426D03*
%TD*%
D26*
%TO.C,SW15*%
X257734219Y-103357509D03*
X260984085Y-102784471D03*
%TD*%
D27*
%TO.C,SW25*%
X193098363Y-87213299D03*
X196147165Y-85950443D03*
%TD*%
D28*
%TO.C,SW29*%
X119777927Y-129311344D03*
X122395993Y-131320256D03*
%TD*%
D14*
%TO.C,S4*%
X70223024Y-84395159D03*
X80810066Y-89509556D03*
%TD*%
D29*
%TO.C,S15*%
X249482068Y-94709092D03*
X261238623Y-94870032D03*
%TD*%
D28*
%TO.C,SW30*%
X134851641Y-140877811D03*
X137469707Y-142886723D03*
%TD*%
D30*
%TO.C,S22*%
X198737691Y-64602804D03*
X210343585Y-62719795D03*
%TD*%
D15*
%TO.C,SW22*%
X208366255Y-71686862D03*
X211467241Y-70558196D03*
%TD*%
D27*
%TO.C,SW24*%
X200369348Y-104767010D03*
X203418150Y-103504154D03*
%TD*%
%TO.C,SW27*%
X180391976Y-106186758D03*
X183440778Y-104923902D03*
%TD*%
D31*
%TO.C,SW14*%
X136809523Y-91197026D03*
X139858325Y-92459882D03*
%TD*%
D22*
%TO.C,SW17*%
X247738782Y-63452643D03*
X250926338Y-62598543D03*
%TD*%
D13*
%TO.C,SW8*%
X101670206Y-73978397D03*
X104771192Y-75107063D03*
%TD*%
D20*
%TO.C,SW2*%
X55903828Y-85809606D03*
X59153694Y-86382644D03*
%TD*%
D14*
%TO.C,S5*%
X75140586Y-66042568D03*
X85727628Y-71156965D03*
%TD*%
D23*
%TO.C,S13*%
X127225536Y-97022858D03*
X137054441Y-103475386D03*
%TD*%
D25*
%TO.C,S28*%
X163192588Y-81975723D03*
X174705300Y-79588264D03*
%TD*%
D13*
%TO.C,SW7*%
X95171823Y-91832557D03*
X98272809Y-92961223D03*
%TD*%
D18*
%TO.C,SW37*%
X150220260Y-91715046D03*
X153520260Y-91715046D03*
%TD*%
D31*
%TO.C,SW13*%
X129538538Y-108750737D03*
X132587340Y-110013593D03*
%TD*%
D27*
%TO.C,SW28*%
X173120990Y-88633047D03*
X176169792Y-87370191D03*
%TD*%
D21*
%TO.C,DB3*%
X163820260Y-61719699D03*
X165920260Y-61719699D03*
%TD*%
D29*
%TO.C,S16*%
X246182753Y-75997745D03*
X257939308Y-76158685D03*
%TD*%
D32*
%TO.C,SW4*%
X74047033Y-95720798D03*
X77234589Y-96574898D03*
%TD*%
D26*
%TO.C,SW16*%
X254434903Y-84646162D03*
X257684769Y-84073124D03*
%TD*%
D14*
%TO.C,S6*%
X80058148Y-47689977D03*
X90645190Y-52804374D03*
%TD*%
D30*
%TO.C,S21*%
X205236074Y-82456964D03*
X216841968Y-80573955D03*
%TD*%
D12*
%TO.C,S19*%
X222273120Y-67737833D03*
X233998965Y-66873510D03*
%TD*%
D33*
%TO.C,S1*%
X47807961Y-93571696D03*
X58800465Y-97743910D03*
%TD*%
D18*
%TO.C,DB7*%
X163220260Y-58719699D03*
X166520260Y-58719699D03*
%TD*%
D22*
%TO.C,SW18*%
X236165189Y-93986708D03*
X239352745Y-93132608D03*
%TD*%
D25*
%TO.C,S25*%
X183169961Y-80555975D03*
X194682673Y-78168516D03*
%TD*%
D30*
%TO.C,S23*%
X192239308Y-46748644D03*
X203845202Y-44865635D03*
%TD*%
D23*
%TO.C,S14*%
X134496521Y-79469147D03*
X144325426Y-85921675D03*
%TD*%
D25*
%TO.C,S26*%
X175898976Y-63002264D03*
X187411688Y-60614805D03*
%TD*%
D12*
%TO.C,S20*%
X217355558Y-49385242D03*
X229081403Y-48520919D03*
%TD*%
D23*
%TO.C,S10*%
X107248163Y-95603110D03*
X117077068Y-102055638D03*
%TD*%
D25*
%TO.C,S27*%
X170463573Y-99529434D03*
X181976285Y-97141975D03*
%TD*%
D31*
%TO.C,SW11*%
X116832150Y-89777277D03*
X119880952Y-91040133D03*
%TD*%
D32*
%TO.C,SW6*%
X83882157Y-59015617D03*
X87069713Y-59869717D03*
%TD*%
D31*
%TO.C,SW10*%
X109561165Y-107330988D03*
X112609967Y-108593844D03*
%TD*%
D24*
%TO.C,S30*%
X135652851Y-128950900D03*
X143476807Y-137727472D03*
%TD*%
D32*
%TO.C,SW3*%
X62473440Y-65186734D03*
X65660996Y-66040834D03*
%TD*%
D19*
%TO.C,SW32*%
X174204347Y-136799108D03*
X176822413Y-134790196D03*
%TD*%
D21*
%TO.C,DB1*%
X163820260Y-52719699D03*
X165920260Y-52719699D03*
%TD*%
D34*
%TO.C,S31*%
X177964918Y-121371820D03*
X188467425Y-116086003D03*
%TD*%
%TO.C,S32*%
X162891204Y-132938287D03*
X173393711Y-127652470D03*
%TD*%
D35*
%TO.C,SW38*%
X168870260Y-49569699D03*
X174870260Y-49569699D03*
X168870260Y-45869699D03*
X174870260Y-45869699D03*
%TD*%
D21*
%TO.C,DB6*%
X163820260Y-73719699D03*
X165920260Y-73719699D03*
%TD*%
D32*
%TO.C,SW5*%
X78964595Y-77368207D03*
X82152151Y-78222307D03*
%TD*%
D18*
%TO.C,SW35*%
X150220260Y-97715046D03*
X153520260Y-97715046D03*
%TD*%
D31*
%TO.C,SW12*%
X124103135Y-72223566D03*
X127151937Y-73486422D03*
%TD*%
D33*
%TO.C,S2*%
X51107276Y-74860349D03*
X62099780Y-79032563D03*
%TD*%
D17*
%TO.C,S9*%
X105346226Y-44508412D03*
X115447231Y-50526068D03*
%TD*%
D18*
%TO.C,SW33*%
X150220260Y-103715046D03*
X153520260Y-103715046D03*
%TD*%
D21*
%TO.C,DB5*%
X163820260Y-67719699D03*
X165920260Y-67719699D03*
%TD*%
%TO.C,DB2*%
X163820260Y-55719699D03*
X165920260Y-55719699D03*
%TD*%
D17*
%TO.C,S7*%
X92349461Y-80216732D03*
X102450466Y-86234388D03*
%TD*%
D27*
%TO.C,SW26*%
X185827378Y-69659588D03*
X188876180Y-68396732D03*
%TD*%
D18*
%TO.C,SW34*%
X150220260Y-100715046D03*
X153520260Y-100715046D03*
%TD*%
M02*
