M48
; DRILL file KiCad 10.0.0 date 2026-04-07T21:47:43
; FORMAT={-:-/ absolute / metric / decimal}
; #@! TF.CreationDate,2026-04-07T21:47:43-07:00
; #@! TF.GenerationSoftware,Kicad,Pcbnew,10.0.0
; #@! TF.FileFunction,Plated,1,2,PTH
FMAT,2
METRIC
; #@! TA.AperFunction,Plated,PTH,ViaDrill
T1C0.300
; #@! TA.AperFunction,Plated,PTH,ComponentDrill
T2C0.300
; #@! TA.AperFunction,Plated,PTH,ComponentDrill
T3C0.400
; #@! TA.AperFunction,Plated,PTH,ComponentDrill
T4C0.750
; #@! TA.AperFunction,Plated,PTH,ComponentDrill
T5C1.000
; #@! TA.AperFunction,Plated,PTH,ComponentDrill
T6C1.600
; #@! TA.AperFunction,Plated,PTH,ComponentDrill
T7C2.200
%
G90
G05
T1
X110.75Y-112.75
X114.327Y-60.173
X133.5Y-47.5
X134.0Y-75.5
X136.98Y-76.98
X151.5Y-89.0
X156.0Y-48.5
X156.0Y-60.0
X156.0Y-89.0
X157.0Y-71.0
X157.0Y-93.0
X157.1Y-112.5
X161.0Y-82.0
X162.0Y-62.5
X165.0Y-50.0
X166.5Y-54.0
X166.5Y-72.0
X168.02Y-72.0
X168.5Y-47.5
X169.0Y-52.0
X170.5Y-63.5
X171.1Y-41.774
X171.1Y-64.9
X175.0Y-51.5
X192.5Y-112.5
X205.0Y-107.0
T2
X52.605Y-104.521
X55.904Y-85.81
X62.473Y-65.187
X74.047Y-95.721
X78.965Y-77.368
X83.882Y-59.016
X95.172Y-91.833
X101.67Y-73.978
X108.169Y-56.124
X109.561Y-107.331
X116.832Y-89.777
X119.778Y-129.311
X124.103Y-72.224
X129.539Y-108.751
X134.852Y-140.878
X136.81Y-91.197
X141.87Y-63.57
X149.87Y-63.57
X150.22Y-91.715
X150.22Y-94.715
X150.22Y-97.715
X150.22Y-100.715
X150.22Y-103.715
X153.52Y-91.715
X153.52Y-94.715
X153.52Y-97.715
X153.52Y-100.715
X153.52Y-103.715
X169.62Y-40.295
X172.62Y-40.295
X173.121Y-88.633
X174.12Y-40.295
X174.204Y-136.799
X180.392Y-106.187
X185.827Y-69.66
X189.278Y-125.233
X193.098Y-87.213
X200.369Y-104.767
X201.868Y-53.833
X208.366Y-71.687
X214.865Y-89.541
X226.33Y-57.282
X231.248Y-75.634
X236.165Y-93.987
X247.739Y-63.453
X254.435Y-84.646
X257.734Y-103.358
T3
X48.924Y-69.246
X49.197Y-70.479
X49.603Y-68.181
X50.262Y-71.157
X50.835Y-67.908
X51.495Y-70.884
X51.901Y-68.586
X52.174Y-69.819
X58.398Y-109.096
X58.671Y-110.329
X59.077Y-108.031
X59.736Y-111.008
X60.309Y-107.758
X60.969Y-110.735
X61.375Y-108.437
X61.648Y-109.67
X69.463Y-51.011
X69.627Y-52.263
X70.231Y-50.009
X70.629Y-53.032
X71.483Y-49.844
X71.881Y-52.867
X72.485Y-50.613
X72.65Y-51.865
X104.839Y-122.47
X105.166Y-121.25
X105.47Y-123.564
X106.259Y-120.619
X106.69Y-123.891
X107.479Y-120.946
X107.784Y-123.259
X108.111Y-122.039
X113.214Y-39.338
X113.269Y-40.599
X114.067Y-38.407
X114.2Y-41.452
X115.329Y-38.351
X115.462Y-41.397
X116.26Y-39.205
X116.315Y-40.466
X150.22Y-77.715
X150.22Y-139.465
X150.704Y-76.548
X150.704Y-78.882
X150.704Y-138.298
X150.704Y-140.632
X151.87Y-76.065
X151.87Y-79.365
X151.87Y-137.815
X151.87Y-141.115
X153.037Y-76.548
X153.037Y-78.882
X153.037Y-138.298
X153.037Y-140.632
X153.52Y-77.715
X153.52Y-139.465
X187.425Y-40.466
X187.48Y-39.205
X188.278Y-41.397
X188.411Y-38.351
X189.54Y-41.452
X189.673Y-38.407
X190.471Y-40.599
X190.526Y-39.338
X195.63Y-122.039
X195.957Y-123.259
X196.261Y-120.946
X197.05Y-123.891
X197.481Y-120.619
X198.27Y-123.564
X198.575Y-121.25
X198.902Y-122.47
X231.09Y-51.865
X231.255Y-50.613
X231.859Y-52.867
X232.257Y-49.844
X233.111Y-53.032
X233.509Y-50.009
X234.113Y-52.263
X234.278Y-51.011
X242.093Y-109.67
X242.366Y-108.437
X242.771Y-110.735
X243.431Y-107.758
X244.004Y-111.008
X244.664Y-108.031
X245.069Y-110.329
X245.343Y-109.096
X251.567Y-69.819
X251.84Y-68.586
X252.245Y-70.884
X252.905Y-67.908
X253.478Y-71.157
X254.138Y-68.181
X254.543Y-70.479
X254.816Y-69.246
T4
X180.131Y-46.042
X180.896Y-47.89
T5
X141.87Y-63.57
X141.87Y-63.57
X144.07Y-114.215
X144.07Y-117.215
X149.87Y-63.57
X149.87Y-63.57
X150.37Y-107.915
X150.37Y-123.515
X150.87Y-109.935
X152.87Y-122.695
X153.37Y-107.915
X158.73Y-119.465
X159.67Y-114.215
X159.67Y-117.215
T6
X44.182Y-104.204
X47.481Y-85.492
X54.11Y-64.136
X65.684Y-94.67
X70.601Y-76.318
X75.519Y-57.965
X86.932Y-90.057
X93.43Y-72.203
X99.929Y-54.349
X101.407Y-105.198
X108.678Y-87.644
X112.453Y-125.141
X115.949Y-70.091
X121.384Y-106.618
X127.527Y-136.707
X128.655Y-89.064
X165.847Y-92.891
X168.28Y-142.795
X173.118Y-110.445
X178.553Y-73.917
X183.354Y-131.228
X185.824Y-91.471
X193.095Y-109.025
X194.415Y-57.769
X200.913Y-75.623
X207.412Y-93.478
X218.562Y-60.553
X223.48Y-78.906
X228.397Y-97.259
X239.971Y-66.725
X246.411Y-87.229
X249.711Y-105.94
T7
X50.549Y-69.532
X60.023Y-109.383
X71.056Y-51.438
X106.475Y-122.255
X114.765Y-39.902
X151.87Y-77.715
X151.87Y-139.465
X188.976Y-39.902
X197.266Y-122.255
X232.684Y-51.438
X243.718Y-109.383
X253.192Y-69.532
M30
