M48
; DRILL file {KiCad 8.0.7} date 2026-03-02T08:42:32-0700
; FORMAT={-:-/ absolute / inch / decimal}
; #@! TF.CreationDate,2026-03-02T08:42:32-07:00
; #@! TF.GenerationSoftware,Kicad,Pcbnew,8.0.7
; #@! TF.FileFunction,NonPlated,1,2,NPTH
FMAT,2
INCH
; #@! TA.AperFunction,NonPlated,NPTH,ComponentDrill
T1C0.0354
; #@! TA.AperFunction,NonPlated,NPTH,ComponentDrill
T2C0.0748
; #@! TA.AperFunction,NonPlated,NPTH,ComponentDrill
T3C0.1181
; #@! TA.AperFunction,NonPlated,NPTH,ComponentDrill
T4C0.1969
%
G90
G05
T1
X6.7075Y-1.5047
X6.8256Y-1.5047
T2
X1.7553Y-3.8994
X1.8852Y-3.1627
X2.1638Y-2.3241
X2.1817Y-3.9746
X2.3116Y-3.2379
X2.5821Y-2.4362
X2.6194Y-3.5262
X2.813Y-2.8037
X3.0067Y-2.0812
X3.0378Y-3.6383
X3.2314Y-2.9158
X3.425Y-2.1932
X3.4734Y-3.3483
X3.7292Y-2.6454
X3.8803Y-3.4964
X3.9851Y-1.9425
X4.0518Y-3.9468
X4.1362Y-2.7935
X4.3381Y-3.2557
X4.392Y-2.0906
X4.4519Y-4.1125
X4.5351Y-4.754
X4.6243Y-2.5646
X4.7382Y-3.4214
X4.8383Y-4.0027
X4.8787Y-5.0176
X5.0244Y-2.7303
X5.1246Y-3.3116
X5.1286Y-5.2093
X5.2384Y-4.1684
X5.4721Y-5.473
X5.5247Y-3.4773
X6.4336Y-3.4773
X6.4861Y-5.473
X6.7199Y-4.1684
X6.8297Y-5.2093
X6.8337Y-3.3116
X6.9339Y-2.7303
X7.0796Y-5.0176
X7.12Y-4.0027
X7.2201Y-3.4214
X7.334Y-2.5646
X7.4232Y-4.754
X7.5064Y-4.1125
X7.5663Y-2.0906
X7.6202Y-3.2557
X7.8221Y-2.7935
X7.9065Y-3.9468
X7.9732Y-1.9425
X8.078Y-3.4964
X8.2291Y-2.6454
X8.4849Y-3.3483
X8.5333Y-2.1932
X8.7269Y-2.9158
X8.9205Y-3.6383
X8.9516Y-2.0812
X9.1452Y-2.8037
X9.3388Y-3.5262
X9.3762Y-2.4362
X9.6466Y-3.2379
X9.7765Y-3.9746
X9.7945Y-2.3241
X10.0731Y-3.1627
X10.203Y-3.8994
T3
X2.0092Y-3.7063
X2.1391Y-2.9696
X2.188Y-3.8258
X2.3179Y-3.0891
X2.4336Y-2.1539
X2.6013Y-2.2885
X2.8892Y-3.356
X3.057Y-3.4906
X3.0828Y-2.6335
X3.2506Y-2.7681
X3.2764Y-1.9109
X3.4442Y-2.0455
X3.757Y-3.2022
X3.9123Y-3.351
X4.0128Y-2.4993
X4.1682Y-2.648
X4.2687Y-1.7964
X4.3415Y-3.8132
X4.424Y-1.9451
X4.4902Y-3.9686
X4.6278Y-3.1222
X4.7765Y-3.2775
X4.8495Y-4.6999
X4.914Y-2.4311
X4.9529Y-4.8885
X5.0627Y-2.5864
X5.128Y-3.8691
X5.2767Y-4.0245
X5.4143Y-3.178
X5.443Y-5.1553
X5.5464Y-5.3438
X5.563Y-3.3334
X6.5153Y-5.1553
X6.544Y-3.178
X6.7242Y-5.1042
X6.759Y-3.1827
X6.8303Y-3.8691
X7.0443Y-2.4311
X7.0453Y-3.8738
X7.1088Y-4.6999
X7.2593Y-2.4358
X7.3177Y-4.6488
X7.3305Y-3.1222
X7.5455Y-3.1268
X7.6168Y-3.8132
X7.6896Y-1.7964
X7.8318Y-3.8179
X7.9042Y-1.8105
X7.9455Y-2.4993
X8.1601Y-2.5134
X8.2013Y-3.2022
X8.4159Y-3.2163
X8.6818Y-1.9109
X8.8755Y-2.6335
X8.8944Y-1.9436
X9.0691Y-3.356
X9.088Y-2.6662
X9.2816Y-3.3887
X9.5247Y-2.1539
X9.7373Y-2.1866
X9.8192Y-2.9696
X9.9491Y-3.7063
X10.0281Y-3.0208
X10.158Y-3.7574
T4
X1.9685Y-3.937
X2.0984Y-3.2003
X2.3729Y-2.3802
X2.8286Y-3.5823
X3.0222Y-2.8597
X3.2158Y-2.1372
X3.6768Y-3.4224
X3.9327Y-2.7194
X4.1885Y-2.0165
X4.2518Y-4.0297
X4.5381Y-3.3386
X4.7069Y-4.8858
X4.8244Y-2.6475
X5.0384Y-4.0856
X5.3004Y-5.3411
X5.3246Y-3.3945
X6.6337Y-3.3945
X6.6579Y-5.3411
X6.9199Y-4.0856
X7.1339Y-2.6475
X7.2514Y-4.8858
X7.4202Y-3.3386
X7.7064Y-4.0297
X7.7698Y-2.0165
X8.0256Y-2.7194
X8.2814Y-3.4224
X8.7425Y-2.1372
X8.9361Y-2.8597
X9.1297Y-3.5823
X9.5853Y-2.3802
X9.8599Y-3.2003
X9.9898Y-3.937
M30
