M48
; DRILL file {KiCad 8.0.7} date 2026-03-02T08:42:32-0700
; FORMAT={-:-/ absolute / inch / decimal}
; #@! TF.CreationDate,2026-03-02T08:42:32-07:00
; #@! TF.GenerationSoftware,Kicad,Pcbnew,8.0.7
; #@! TF.FileFunction,Plated,1,2,PTH
FMAT,2
INCH
; #@! TA.AperFunction,Plated,PTH,ViaDrill
T1C0.0118
; #@! TA.AperFunction,Plated,PTH,ComponentDrill
T2C0.0118
; #@! TA.AperFunction,Plated,PTH,ComponentDrill
T3C0.0157
; #@! TA.AperFunction,Plated,PTH,ComponentDrill
T4C0.0197
; #@! TA.AperFunction,Plated,PTH,ComponentDrill
T5C0.0295
; #@! TA.AperFunction,Plated,PTH,ComponentDrill
T6C0.0394
; #@! TA.AperFunction,Plated,PTH,ComponentDrill
T7C0.0591
; #@! TA.AperFunction,Plated,PTH,ComponentDrill
T8C0.0630
; #@! TA.AperFunction,Plated,PTH,ComponentDrill
T9C0.0866
%
G90
G05
T1
X4.8673Y-1.8091
X5.1283Y-2.0598
X5.3173Y-1.8091
X5.3173Y-1.9094
X5.3929Y-3.0309
X6.0508Y-2.678
X6.1614Y-2.1098
X6.2114Y-4.261
X6.2378Y-2.0366
X6.2394Y-3.5102
X6.2984Y-3.0307
X6.5878Y-1.8091
X7.9437Y-3.5366
T2
X2.071Y-4.115
X2.199Y-4.1376
X2.2009Y-3.3783
X2.3289Y-3.4009
X2.4596Y-2.5664
X2.5851Y-2.6
X2.9152Y-3.7685
X3.0407Y-3.8022
X3.1088Y-3.046
X3.2343Y-3.0796
X3.3024Y-2.3234
X3.4279Y-2.3571
X3.7469Y-3.6155
X3.869Y-3.6599
X4.0028Y-2.9125
X4.1249Y-2.957
X4.2586Y-2.2096
X4.3134Y-4.2256
X4.3807Y-2.2541
X4.4335Y-4.2753
X4.5997Y-3.5345
X4.7157Y-5.091
X4.7197Y-3.5843
X4.8187Y-5.1701
X4.886Y-2.8434
X5.006Y-2.8932
X5.0999Y-4.2815
X5.22Y-4.3312
X5.3091Y-5.5464
X5.3862Y-3.5904
X5.4122Y-5.6255
X5.5062Y-3.6402
X5.5854Y-2.5027
X5.9004Y-2.5027
X5.9142Y-4.0045
X6.0441Y-4.0045
X6.678Y-1.5864
X6.7961Y-1.5864
X6.8158Y-3.4895
X6.8551Y-1.5864
X6.8584Y-5.3858
X6.9358Y-3.4398
X6.9615Y-5.3067
X7.102Y-4.1806
X7.2221Y-4.1309
X7.316Y-2.7425
X7.4361Y-2.6928
X7.4519Y-4.9304
X7.555Y-4.8513
X7.6023Y-3.4336
X7.7223Y-3.3839
X7.8886Y-4.1247
X7.9476Y-2.1194
X8.0086Y-4.075
X8.0696Y-2.075
X8.2034Y-2.8223
X8.3255Y-2.7779
X8.4592Y-3.5252
X8.5813Y-3.4808
X8.9106Y-2.2552
X9.0361Y-2.2216
X9.1042Y-2.9777
X9.2297Y-2.9441
X9.2978Y-3.7003
X9.4233Y-3.6666
X9.7535Y-2.4981
X9.879Y-2.4645
X10.0171Y-3.3325
X10.1451Y-3.31
X10.147Y-4.0692
X10.275Y-4.0466
T3
X1.9261Y-2.7262
X1.9369Y-2.7748
X1.9529Y-2.6843
X1.9788Y-2.8015
X2.0014Y-2.6735
X2.0274Y-2.7907
X2.0433Y-2.7002
X2.0541Y-2.7488
X2.2991Y-4.2951
X2.3099Y-4.3437
X2.3258Y-4.2532
X2.3518Y-4.3704
X2.3744Y-4.2424
X2.4004Y-4.3596
X2.4163Y-4.2692
X2.4271Y-4.3177
X2.7347Y-2.0083
X2.7412Y-2.0576
X2.765Y-1.9689
X2.7807Y-2.0879
X2.8143Y-1.9624
X2.83Y-2.0814
X2.8538Y-1.9926
X2.8602Y-2.0419
X4.1275Y-4.8217
X4.1404Y-4.7736
X4.1524Y-4.8647
X4.1834Y-4.7488
X4.2004Y-4.8776
X4.2315Y-4.7616
X4.2435Y-4.8527
X4.2563Y-4.8047
X5.9142Y-5.4907
X5.9332Y-5.4448
X5.9332Y-5.5367
X5.9791Y-5.4258
X5.9791Y-5.5557
X6.0251Y-5.4448
X6.0251Y-5.5367
X6.0441Y-5.4907
X7.702Y-4.8047
X7.7148Y-4.8527
X7.7268Y-4.7616
X7.7579Y-4.8776
X7.7748Y-4.7488
X7.8059Y-4.8647
X7.8179Y-4.7736
X7.8308Y-4.8217
X9.098Y-2.0419
X9.1045Y-1.9926
X9.1283Y-2.0814
X9.144Y-1.9624
X9.1776Y-2.0879
X9.1933Y-1.9689
X9.217Y-2.0576
X9.2235Y-2.0083
X9.5312Y-4.3177
X9.542Y-4.2692
X9.5579Y-4.3596
X9.5839Y-4.2424
X9.6065Y-4.3704
X9.6324Y-4.2532
X9.6484Y-4.3437
X9.6592Y-4.2951
X9.9042Y-2.7488
X9.915Y-2.7002
X9.9309Y-2.7907
X9.9569Y-2.6735
X9.9795Y-2.8015
X10.0054Y-2.6843
X10.0214Y-2.7748
X10.0321Y-2.7262
T5
X7.0918Y-1.8127
X7.1219Y-1.8854
T6
X5.5854Y-2.5027
X5.5854Y-2.5027
X5.9004Y-2.5027
X5.9004Y-2.5027
T8
X1.7394Y-4.1025
X1.8693Y-3.3658
X2.1303Y-2.5251
X2.586Y-3.7272
X2.7796Y-3.0046
X2.9732Y-2.2821
X3.4225Y-3.5456
X3.6784Y-2.8426
X3.9342Y-2.1397
X3.9924Y-4.1417
X4.2786Y-3.4506
X4.4273Y-4.9268
X4.5649Y-2.7595
X4.7789Y-4.1976
X5.0208Y-5.3822
X5.0652Y-3.5065
X6.5294Y-3.6571
X6.6252Y-5.6218
X6.8157Y-4.3482
X7.0296Y-2.9101
X7.2186Y-5.1665
X7.3159Y-3.6012
X7.6022Y-4.2923
X7.6541Y-2.2744
X7.91Y-2.9773
X8.1658Y-3.6802
X8.6048Y-2.384
X8.7984Y-3.1065
X8.992Y-3.8291
X9.4477Y-2.627
X9.7012Y-3.4342
X9.8311Y-4.1709
T9
X1.9901Y-2.7375
X2.3631Y-4.3064
X2.7975Y-2.0251
X4.1919Y-4.8132
X5.9791Y-5.4907
X7.7664Y-4.8132
X9.1608Y-2.0251
X9.5952Y-4.3064
X9.9682Y-2.7375
T4
G00X5.8709Y-4.2801
M15
G01X5.8906Y-4.2801
M16
G05
G00X5.8709Y-4.851
M15
G01X5.8906Y-4.851
M16
G05
G00X5.9693Y-4.851
M15
G01X5.989Y-4.851
M16
G05
G00X6.0677Y-4.2801
M15
G01X6.0874Y-4.2801
M16
G05
G00X6.0677Y-4.851
M15
G01X6.0874Y-4.851
M16
G05
T7
G00X5.7587Y-4.54
M15
G01X5.7587Y-4.5715
M16
G05
G00X6.1996Y-4.54
M15
G01X6.1996Y-4.5715
M16
G05
M30
