<svg width="711" height="2027" viewBox="0 0 711 2027" class="keymap" xmlns="http://www.w3.org/2000/svg" xmlns:xlink="http://www.w3.org/1999/xlink">
<style>/* inherit to force styles through use tags */
svg path {
    fill: inherit;
}

/* font and background color specifications */
svg.keymap {
    font-family: SFMono-Regular,Consolas,Liberation Mono,Menlo,monospace;
    font-size: 14px;
    font-kerning: normal;
    text-rendering: optimizeLegibility;
    fill: #24292e;
}

/* default key styling */
rect.key {
    fill: #f6f8fa;
}

rect.key, rect.combo {
    stroke: #c9cccf;
    stroke-width: 1;
}

/* default key side styling, only used is draw_key_sides is set */
rect.side {
    filter: brightness(90%);
}

/* color accent for combo boxes */
rect.combo, rect.combo-separate {
    fill: #cdf;
}

/* color accent for held keys */
rect.held, rect.combo.held {
    fill: #fdd;
}

/* color accent for ghost (optional) keys */
rect.ghost, rect.combo.ghost {
    stroke-dasharray: 4, 4;
    stroke-width: 2;
}

text {
    text-anchor: middle;
    dominant-baseline: middle;
}

/* styling for layer labels */
text.label {
    font-weight: bold;
    text-anchor: start;
    stroke: white;
    stroke-width: 4;
    paint-order: stroke;
}

/* styling for optional footer */
text.footer {
    text-anchor: end;
    dominant-baseline: auto;
    stroke: white;
    stroke-width: 4;
    paint-order: stroke;
}

/* styling for combo tap, and key non-tap label text */
text.combo, text.hold, text.shifted, text.left, text.right {
    font-size: 11px;
}

text.hold {
    text-anchor: middle;
    dominant-baseline: auto;
}

text.shifted {
    text-anchor: middle;
    dominant-baseline: hanging;
}

text.left {
    text-anchor: start;
}

text.right {
    text-anchor: end;
}

text.layer-activator {
    text-decoration: underline;
}

/* styling for hold/shifted label text in combo box */
text.combo.hold, text.combo.shifted, text.combo.left, text.combo.right {
    font-size: 8px;
}

/* lighter symbol for transparent keys */
text.trans {
    fill: #7b7e81;
}

/* styling for combo dendrons */
path.combo {
    stroke-width: 1;
    stroke: gray;
    fill: none;
}

/* Start Tabler Icons Cleanup */
/* cannot use height/width with glyphs */
.icon-tabler > path {
    fill: inherit;
    stroke: inherit;
    stroke-width: 2;
}
/* hide tabler's default box */
.icon-tabler > path[stroke="none"][fill="none"] {
    visibility: hidden;
}
/* End Tabler Icons Cleanup */
</style>
<g transform="translate(30, 0)" class="layer-Colemak">
<text x="0" y="28" class="label" id="Colemak">Colemak:</text>
<g transform="translate(0, 62)">
<g transform="translate(63, 63) rotate(15.0)" class="key keypos-0">
<rect rx="6" ry="6" x="-26" y="-26" width="52" height="52" class="key"/>
<text x="0" y="0" class="key tap">Q</text>
</g>
<g transform="translate(126, 45) rotate(15.0)" class="key keypos-1">
<rect rx="6" ry="6" x="-26" y="-26" width="52" height="52" class="key"/>
<text x="0" y="0" class="key tap">W</text>
</g>
<g transform="translate(199, 36) rotate(20.0)" class="key keypos-2">
<rect rx="6" ry="6" x="-26" y="-26" width="52" height="52" class="key"/>
<text x="0" y="0" class="key tap">F</text>
</g>
<g transform="translate(246, 83) rotate(22.5)" class="key keypos-3">
<rect rx="6" ry="6" x="-26" y="-26" width="52" height="52" class="key"/>
<text x="0" y="0" class="key tap">P</text>
</g>
<g transform="translate(405, 83) rotate(-22.5)" class="key keypos-4">
<rect rx="6" ry="6" x="-26" y="-26" width="52" height="52" class="key"/>
<text x="0" y="0" class="key tap">L</text>
</g>
<g transform="translate(453, 36) rotate(-20.0)" class="key keypos-5">
<rect rx="6" ry="6" x="-26" y="-26" width="52" height="52" class="key"/>
<text x="0" y="0" class="key tap">U</text>
</g>
<g transform="translate(526, 45) rotate(-15.0)" class="key keypos-6">
<rect rx="6" ry="6" x="-26" y="-26" width="52" height="52" class="key"/>
<text x="0" y="0" class="key tap">Y</text>
</g>
<g transform="translate(589, 63) rotate(-15.0)" class="key keypos-7">
<rect rx="6" ry="6" x="-26" y="-26" width="52" height="52" class="key"/>
<text x="0" y="0" class="key tap">&#x27;</text>
</g>
<g transform="translate(42, 124) rotate(10.0)" class="key keypos-8">
<rect rx="6" ry="6" x="-26" y="-26" width="52" height="52" class="key"/>
<text x="0" y="0" class="key tap">A</text>
<text x="0" y="24" class="key hold">⇧</text>
</g>
<g transform="translate(111, 99) rotate(15.0)" class="key keypos-9">
<rect rx="6" ry="6" x="-26" y="-26" width="52" height="52" class="key"/>
<text x="0" y="0" class="key tap">R</text>
<text x="0" y="24" class="key hold">^</text>
</g>
<g transform="translate(180, 89) rotate(20.0)" class="key keypos-10">
<rect rx="6" ry="6" x="-26" y="-26" width="52" height="52" class="key"/>
<text x="0" y="0" class="key tap">S</text>
<text x="0" y="24" class="key hold">⌥</text>
</g>
<g transform="translate(225, 135) rotate(22.5)" class="key keypos-11">
<rect rx="6" ry="6" x="-26" y="-26" width="52" height="52" class="key"/>
<text x="0" y="0" class="key tap">T</text>
<text x="0" y="24" class="key hold">⌘</text>
</g>
<g transform="translate(284, 139) rotate(22.5)" class="key keypos-12">
<rect rx="6" ry="6" x="-26" y="-26" width="52" height="52" class="key"/>
<text x="0" y="0" class="key tap">G</text>
<text x="0" y="24" class="key hold">Alt</text>
</g>
<g transform="translate(368, 139) rotate(-22.5)" class="key keypos-13">
<rect rx="6" ry="6" x="-26" y="-26" width="52" height="52" class="key"/>
<text x="0" y="0" class="key tap">M</text>
<text x="0" y="24" class="key hold">Alt</text>
</g>
<g transform="translate(427, 135) rotate(-22.5)" class="key keypos-14">
<rect rx="6" ry="6" x="-26" y="-26" width="52" height="52" class="key"/>
<text x="0" y="0" class="key tap">N</text>
<text x="0" y="24" class="key hold">⌘</text>
</g>
<g transform="translate(472, 89) rotate(-20.0)" class="key keypos-15">
<rect rx="6" ry="6" x="-26" y="-26" width="52" height="52" class="key"/>
<text x="0" y="0" class="key tap">E</text>
<text x="0" y="24" class="key hold">⌥</text>
</g>
<g transform="translate(540, 99) rotate(-15.0)" class="key keypos-16">
<rect rx="6" ry="6" x="-26" y="-26" width="52" height="52" class="key"/>
<text x="0" y="0" class="key tap">I</text>
<text x="0" y="24" class="key hold">^</text>
</g>
<g transform="translate(609, 124) rotate(-10.0)" class="key keypos-17">
<rect rx="6" ry="6" x="-26" y="-26" width="52" height="52" class="key"/>
<text x="0" y="0" class="key tap">O</text>
<text x="0" y="24" class="key hold">⇧</text>
</g>
<g transform="translate(32, 180) rotate(10.0)" class="key keypos-18">
<rect rx="6" ry="6" x="-26" y="-26" width="52" height="52" class="key"/>
<text x="0" y="0" class="key tap">Z</text>
</g>
<g transform="translate(97, 153) rotate(15.0)" class="key keypos-19">
<rect rx="6" ry="6" x="-26" y="-26" width="52" height="52" class="key"/>
<text x="0" y="0" class="key tap">X</text>
</g>
<g transform="translate(160, 141) rotate(20.0)" class="key keypos-20">
<rect rx="6" ry="6" x="-26" y="-26" width="52" height="52" class="key"/>
<text x="0" y="0" class="key tap">C</text>
</g>
<g transform="translate(203, 187) rotate(22.5)" class="key keypos-21">
<rect rx="6" ry="6" x="-26" y="-26" width="52" height="52" class="key"/>
<text x="0" y="0" class="key tap">D</text>
</g>
<g transform="translate(262, 191) rotate(22.5)" class="key keypos-22">
<rect rx="6" ry="6" x="-26" y="-26" width="52" height="52" class="key"/>
<text x="0" y="0" class="key tap">V</text>
</g>
<g transform="translate(389, 191) rotate(-22.5)" class="key keypos-23">
<rect rx="6" ry="6" x="-26" y="-26" width="52" height="52" class="key"/>
<text x="0" y="0" class="key tap">K</text>
</g>
<g transform="translate(448, 187) rotate(-22.5)" class="key keypos-24">
<rect rx="6" ry="6" x="-26" y="-26" width="52" height="52" class="key"/>
<text x="0" y="0" class="key tap">H</text>
</g>
<g transform="translate(491, 141) rotate(-20.0)" class="key keypos-25">
<rect rx="6" ry="6" x="-26" y="-26" width="52" height="52" class="key"/>
<text x="0" y="0" class="key tap">,</text>
<text x="0" y="-24" class="key shifted">;</text>
</g>
<g transform="translate(554, 153) rotate(-15.0)" class="key keypos-26">
<rect rx="6" ry="6" x="-26" y="-26" width="52" height="52" class="key"/>
<text x="0" y="0" class="key tap">.</text>
<text x="0" y="-24" class="key shifted">:</text>
</g>
<g transform="translate(619, 180) rotate(-10.0)" class="key keypos-27">
<rect rx="6" ry="6" x="-26" y="-26" width="52" height="52" class="key"/>
<text x="0" y="0" class="key tap">/</text>
<text x="0" y="-24" class="key shifted">\</text>
</g>
<g transform="translate(268, 288) rotate(42.5)" class="key keypos-28">
<rect rx="6" ry="6" x="-40" y="-26" width="80" height="52" class="key"/>
<text x="0" y="0" class="key tap">
<tspan x="0" dy="-0.6em">sticky</tspan><tspan x="0" dy="1.2em">⇧</tspan>
</text>
<a href="#numpad">
<text x="0" y="24" class="key hold layer-activator">numpad</text>
</a><text x="0" y="-24" class="key shifted"><tspan style="font-size: 78%">caps word</tspan></text>
</g>
<g transform="translate(383, 288) rotate(-42.5)" class="key keypos-29">
<rect rx="6" ry="6" x="-40" y="-26" width="80" height="52" class="key"/>
<text x="0" y="0" class="key tap">␣</text>
<a href="#sym--nav">
<text x="0" y="24" class="key hold layer-activator"><tspan style="font-size: 78%">sym / nav</tspan></text>
</a></g>
<g class="combo combopos-0">
<rect rx="6" ry="6" x="251" y="98" width="28" height="26" class="combo"/>
<text x="265" y="111" class="combo tap">B</text>
</g>
<g class="combo combopos-1">
<rect rx="6" ry="6" x="373" y="98" width="28" height="26" class="combo"/>
<text x="387" y="111" class="combo tap">J</text>
</g>
<g class="combo combopos-2">
<path d="M190,7 h-58 a6.0,6.0 0 0 0 -6.0,6.0 v13" class="combo"/>
<path d="M190,7 h2 a6.0,6.0 0 0 1 6.0,6.0 v12" class="combo"/>
<path d="M190,7 h50 a6.0,6.0 0 0 1 6.0,6.0 v51" class="combo"/>
<rect rx="6" ry="6" x="176" y="-6" width="28" height="26" class="combo"/>
<text x="190" y="7" class="combo tap">Esc</text>
</g>
<g class="combo combopos-3">
<path d="M172,60 h-55 a6.0,6.0 0 0 0 -6.0,6.0 v15" class="combo"/>
<path d="M172,60 h2 a6.0,6.0 0 0 1 6.0,6.0 v12" class="combo"/>
<path d="M172,60 h47 a6.0,6.0 0 0 1 6.0,6.0 v51" class="combo"/>
<rect rx="6" ry="6" x="158" y="47" width="28" height="26" class="combo"/>
<text x="172" y="60" class="combo tap">⇥</text>
</g>
<g class="combo combopos-4">
<path d="M461,7 h-50 a6.0,6.0 0 0 0 -6.0,6.0 v51" class="combo"/>
<path d="M461,7 h-2 a6.0,6.0 0 0 0 -6.0,6.0 v12" class="combo"/>
<path d="M461,7 h58 a6.0,6.0 0 0 1 6.0,6.0 v13" class="combo"/>
<rect rx="6" ry="6" x="447" y="-6" width="28" height="26" class="combo"/>
<text x="461" y="7" class="combo tap">⌫</text>
</g>
<g class="combo combopos-5">
<path d="M480,60 h-47 a6.0,6.0 0 0 0 -6.0,6.0 v51" class="combo"/>
<path d="M480,60 h-1 a6.0,6.0 0 0 0 -6.0,6.0 v12" class="combo"/>
<path d="M480,60 h54 a6.0,6.0 0 0 1 6.0,6.0 v15" class="combo"/>
<rect rx="6" ry="6" x="466" y="47" width="28" height="26" class="combo"/>
<text x="480" y="60" class="combo tap">↵</text>
</g>
<g class="combo combopos-6">
<rect rx="6" ry="6" x="209" y="46" width="28" height="26" class="combo"/>
<text x="223" y="59" class="combo tap">(</text>
</g>
<g class="combo combopos-7">
<rect rx="6" ry="6" x="415" y="46" width="28" height="26" class="combo"/>
<text x="429" y="59" class="combo tap">)</text>
</g>
<g class="combo combopos-8">
<rect rx="6" ry="6" x="188" y="99" width="28" height="26" class="combo"/>
<text x="202" y="112" class="combo tap">{</text>
</g>
<g class="combo combopos-9">
<rect rx="6" ry="6" x="435" y="99" width="28" height="26" class="combo"/>
<text x="449" y="112" class="combo tap">}</text>
</g>
<g class="combo combopos-10">
<rect rx="6" ry="6" x="168" y="151" width="28" height="26" class="combo"/>
<text x="182" y="164" class="combo tap">[</text>
</g>
<g class="combo combopos-11">
<rect rx="6" ry="6" x="456" y="151" width="28" height="26" class="combo"/>
<text x="470" y="164" class="combo tap">]</text>
</g>
<g class="combo combopos-12">
<rect rx="6" ry="6" x="230" y="150" width="28" height="26" class="combo"/>
<text x="244" y="163" class="combo tap">&lt;</text>
</g>
<g class="combo combopos-13">
<rect rx="6" ry="6" x="394" y="150" width="28" height="26" class="combo"/>
<text x="408" y="163" class="combo tap">&gt;</text>
</g>
</g>
</g>
<g transform="translate(30, 399)" class="layer-numpad">
<text x="0" y="28" class="label" id="numpad">numpad:</text>
<g transform="translate(0, 56)">
<g transform="translate(63, 63) rotate(15.0)" class="key keypos-0">
<rect rx="6" ry="6" x="-26" y="-26" width="52" height="52" class="key"/>
<text x="0" y="0" class="key tap">Esc</text>
</g>
<g transform="translate(126, 45) rotate(15.0)" class="key keypos-1">
<rect rx="6" ry="6" x="-26" y="-26" width="52" height="52" class="key"/>
</g>
<g transform="translate(199, 36) rotate(20.0)" class="key keypos-2">
<rect rx="6" ry="6" x="-26" y="-26" width="52" height="52" class="key"/>
<text x="0" y="0" class="key tap">
<tspan x="0" dy="-0.6em">screen</tspan><tspan x="0" dy="1.2em">shot</tspan>
</text>
</g>
<g transform="translate(246, 83) rotate(22.5)" class="key keypos-3">
<rect rx="6" ry="6" x="-26" y="-26" width="52" height="52" class="key"/>
<text x="0" y="0" class="key tap">
<tspan x="0" dy="-0.6em">screen</tspan><tspan x="0" dy="1.2em">copy</tspan>
</text>
</g>
<g transform="translate(405, 83) rotate(-22.5)" class="key keypos-4">
<rect rx="6" ry="6" x="-26" y="-26" width="52" height="52" class="key"/>
<text x="0" y="0" class="key tap">7</text>
</g>
<g transform="translate(453, 36) rotate(-20.0)" class="key keypos-5">
<rect rx="6" ry="6" x="-26" y="-26" width="52" height="52" class="key"/>
<text x="0" y="0" class="key tap">8</text>
</g>
<g transform="translate(526, 45) rotate(-15.0)" class="key keypos-6">
<rect rx="6" ry="6" x="-26" y="-26" width="52" height="52" class="key"/>
<text x="0" y="0" class="key tap">9</text>
</g>
<g transform="translate(589, 63) rotate(-15.0)" class="key keypos-7">
<rect rx="6" ry="6" x="-26" y="-26" width="52" height="52" class="key"/>
<text x="0" y="0" class="key tap">-</text>
</g>
<g transform="translate(42, 124) rotate(10.0)" class="key keypos-8">
<rect rx="6" ry="6" x="-26" y="-26" width="52" height="52" class="key"/>
<text x="0" y="0" class="key tap">⌘A</text>
</g>
<g transform="translate(111, 99) rotate(15.0)" class="key keypos-9">
<rect rx="6" ry="6" x="-26" y="-26" width="52" height="52" class="key"/>
<text x="0" y="0" class="key tap">^</text>
</g>
<g transform="translate(180, 89) rotate(20.0)" class="key keypos-10">
<rect rx="6" ry="6" x="-26" y="-26" width="52" height="52" class="key"/>
<text x="0" y="0" class="key tap">⌥</text>
</g>
<g transform="translate(225, 135) rotate(22.5)" class="key keypos-11">
<rect rx="6" ry="6" x="-26" y="-26" width="52" height="52" class="key"/>
<text x="0" y="0" class="key tap">⇥</text>
<text x="0" y="24" class="key hold">⌘</text>
</g>
<g transform="translate(284, 139) rotate(22.5)" class="key keypos-12">
<rect rx="6" ry="6" x="-26" y="-26" width="52" height="52" class="key"/>
<text x="0" y="0" class="key tap">↵</text>
<text x="0" y="24" class="key hold">Alt</text>
</g>
<g transform="translate(368, 139) rotate(-22.5)" class="key keypos-13">
<rect rx="6" ry="6" x="-26" y="-26" width="52" height="52" class="key"/>
<text x="0" y="0" class="key tap">/</text>
</g>
<g transform="translate(427, 135) rotate(-22.5)" class="key keypos-14">
<rect rx="6" ry="6" x="-26" y="-26" width="52" height="52" class="key"/>
<text x="0" y="0" class="key tap">4</text>
</g>
<g transform="translate(472, 89) rotate(-20.0)" class="key keypos-15">
<rect rx="6" ry="6" x="-26" y="-26" width="52" height="52" class="key"/>
<text x="0" y="0" class="key tap">5</text>
</g>
<g transform="translate(540, 99) rotate(-15.0)" class="key keypos-16">
<rect rx="6" ry="6" x="-26" y="-26" width="52" height="52" class="key"/>
<text x="0" y="0" class="key tap">6</text>
</g>
<g transform="translate(609, 124) rotate(-10.0)" class="key keypos-17">
<rect rx="6" ry="6" x="-26" y="-26" width="52" height="52" class="key"/>
<text x="0" y="0" class="key tap">+</text>
</g>
<g transform="translate(32, 180) rotate(10.0)" class="key keypos-18">
<rect rx="6" ry="6" x="-26" y="-26" width="52" height="52" class="key"/>
<text x="0" y="0" class="key tap">⌘Z</text>
</g>
<g transform="translate(97, 153) rotate(15.0)" class="key keypos-19">
<rect rx="6" ry="6" x="-26" y="-26" width="52" height="52" class="key"/>
<text x="0" y="0" class="key tap">⌘X</text>
</g>
<g transform="translate(160, 141) rotate(20.0)" class="key keypos-20">
<rect rx="6" ry="6" x="-26" y="-26" width="52" height="52" class="key"/>
<text x="0" y="0" class="key tap">⌘C</text>
</g>
<g transform="translate(203, 187) rotate(22.5)" class="key keypos-21">
<rect rx="6" ry="6" x="-26" y="-26" width="52" height="52" class="key"/>
<text x="0" y="0" class="key tap">^D</text>
</g>
<g transform="translate(262, 191) rotate(22.5)" class="key keypos-22">
<rect rx="6" ry="6" x="-26" y="-26" width="52" height="52" class="key"/>
<text x="0" y="0" class="key tap">⌘V</text>
</g>
<g transform="translate(389, 191) rotate(-22.5)" class="key keypos-23">
<rect rx="6" ry="6" x="-26" y="-26" width="52" height="52" class="key"/>
<text x="0" y="0" class="key tap">*</text>
</g>
<g transform="translate(448, 187) rotate(-22.5)" class="key keypos-24">
<rect rx="6" ry="6" x="-26" y="-26" width="52" height="52" class="key"/>
<text x="0" y="0" class="key tap">1</text>
</g>
<g transform="translate(491, 141) rotate(-20.0)" class="key keypos-25">
<rect rx="6" ry="6" x="-26" y="-26" width="52" height="52" class="key"/>
<text x="0" y="0" class="key tap">2</text>
</g>
<g transform="translate(554, 153) rotate(-15.0)" class="key keypos-26">
<rect rx="6" ry="6" x="-26" y="-26" width="52" height="52" class="key"/>
<text x="0" y="0" class="key tap">3</text>
</g>
<g transform="translate(619, 180) rotate(-10.0)" class="key keypos-27">
<rect rx="6" ry="6" x="-26" y="-26" width="52" height="52" class="key"/>
<text x="0" y="0" class="key tap">=</text>
</g>
<g transform="translate(268, 288) rotate(42.5)" class="key held keypos-28">
<rect rx="6" ry="6" x="-40" y="-26" width="80" height="52" class="key held"/>
</g>
<g transform="translate(383, 288) rotate(-42.5)" class="key keypos-29">
<rect rx="6" ry="6" x="-40" y="-26" width="80" height="52" class="key"/>
<text x="0" y="0" class="key tap">0</text>
<a href="#sym--nav">
<text x="0" y="24" class="key hold layer-activator"><tspan style="font-size: 78%">sym / nav</tspan></text>
</a></g>
</g>
</g>
<g transform="translate(30, 792)" class="layer-sym / nav">
<text x="0" y="28" class="label" id="sym--nav">sym / nav:</text>
<g transform="translate(0, 56)">
<g transform="translate(63, 63) rotate(15.0)" class="key keypos-0">
<rect rx="6" ry="6" x="-26" y="-26" width="52" height="52" class="key"/>
<text x="0" y="0" class="key tap">`</text>
</g>
<g transform="translate(126, 45) rotate(15.0)" class="key keypos-1">
<rect rx="6" ry="6" x="-26" y="-26" width="52" height="52" class="key"/>
<text x="0" y="0" class="key tap">#</text>
</g>
<g transform="translate(199, 36) rotate(20.0)" class="key keypos-2">
<rect rx="6" ry="6" x="-26" y="-26" width="52" height="52" class="key"/>
<text x="0" y="0" class="key tap">%</text>
</g>
<g transform="translate(246, 83) rotate(22.5)" class="key keypos-3">
<rect rx="6" ry="6" x="-26" y="-26" width="52" height="52" class="key"/>
<text x="0" y="0" class="key tap">*</text>
</g>
<g transform="translate(405, 83) rotate(-22.5)" class="key keypos-4">
<rect rx="6" ry="6" x="-26" y="-26" width="52" height="52" class="key"/>
<text x="0" y="0" class="key tap">^L</text>
</g>
<g transform="translate(453, 36) rotate(-20.0)" class="key keypos-5">
<rect rx="6" ry="6" x="-26" y="-26" width="52" height="52" class="key"/>
<text x="0" y="0" class="key tap">^U</text>
</g>
<g transform="translate(526, 45) rotate(-15.0)" class="key keypos-6">
<rect rx="6" ry="6" x="-26" y="-26" width="52" height="52" class="key"/>
<text x="0" y="0" class="key tap">⇥</text>
</g>
<g transform="translate(589, 63) rotate(-15.0)" class="key keypos-7">
<rect rx="6" ry="6" x="-26" y="-26" width="52" height="52" class="key"/>
<text x="0" y="0" class="key tap">⌫</text>
</g>
<g transform="translate(42, 124) rotate(10.0)" class="key keypos-8">
<rect rx="6" ry="6" x="-26" y="-26" width="52" height="52" class="key"/>
<text x="0" y="0" class="key tap">^</text>
<text x="0" y="24" class="key hold">⇧</text>
</g>
<g transform="translate(111, 99) rotate(15.0)" class="key keypos-9">
<rect rx="6" ry="6" x="-26" y="-26" width="52" height="52" class="key"/>
<text x="0" y="0" class="key tap">@</text>
<text x="0" y="24" class="key hold">^</text>
</g>
<g transform="translate(180, 89) rotate(20.0)" class="key keypos-10">
<rect rx="6" ry="6" x="-26" y="-26" width="52" height="52" class="key"/>
<text x="0" y="0" class="key tap">!</text>
<text x="0" y="24" class="key hold">⌥</text>
</g>
<g transform="translate(225, 135) rotate(22.5)" class="key keypos-11">
<rect rx="6" ry="6" x="-26" y="-26" width="52" height="52" class="key"/>
<text x="0" y="0" class="key tap">=</text>
<text x="0" y="24" class="key hold">⌘</text>
</g>
<g transform="translate(284, 139) rotate(22.5)" class="key keypos-12">
<rect rx="6" ry="6" x="-26" y="-26" width="52" height="52" class="key"/>
<text x="0" y="0" class="key tap">$</text>
<text x="0" y="24" class="key hold">Alt</text>
</g>
<g transform="translate(368, 139) rotate(-22.5)" class="key keypos-13">
<rect rx="6" ry="6" x="-26" y="-26" width="52" height="52" class="key"/>
<text x="0" y="0" class="key tap">PgUp</text>
<text x="0" y="24" class="key hold">Alt</text>
</g>
<g transform="translate(427, 135) rotate(-22.5)" class="key keypos-14">
<rect rx="6" ry="6" x="-26" y="-26" width="52" height="52" class="key"/>
<text x="0" y="0" class="key tap">←</text>
<text x="0" y="24" class="key hold">⌘</text>
</g>
<g transform="translate(472, 89) rotate(-20.0)" class="key keypos-15">
<rect rx="6" ry="6" x="-26" y="-26" width="52" height="52" class="key"/>
<text x="0" y="0" class="key tap">↑</text>
<text x="0" y="24" class="key hold">⌥</text>
</g>
<g transform="translate(540, 99) rotate(-15.0)" class="key keypos-16">
<rect rx="6" ry="6" x="-26" y="-26" width="52" height="52" class="key"/>
<text x="0" y="0" class="key tap">→</text>
<text x="0" y="24" class="key hold">^</text>
</g>
<g transform="translate(609, 124) rotate(-10.0)" class="key keypos-17">
<rect rx="6" ry="6" x="-26" y="-26" width="52" height="52" class="key"/>
<text x="0" y="0" class="key tap">⌦</text>
</g>
<g transform="translate(32, 180) rotate(10.0)" class="key keypos-18">
<rect rx="6" ry="6" x="-26" y="-26" width="52" height="52" class="key"/>
<text x="0" y="0" class="key tap">~</text>
</g>
<g transform="translate(97, 153) rotate(15.0)" class="key keypos-19">
<rect rx="6" ry="6" x="-26" y="-26" width="52" height="52" class="key"/>
<text x="0" y="0" class="key tap">|</text>
</g>
<g transform="translate(160, 141) rotate(20.0)" class="key keypos-20">
<rect rx="6" ry="6" x="-26" y="-26" width="52" height="52" class="key"/>
<text x="0" y="0" class="key tap">&amp;</text>
</g>
<g transform="translate(203, 187) rotate(22.5)" class="key keypos-21">
<rect rx="6" ry="6" x="-26" y="-26" width="52" height="52" class="key"/>
<text x="0" y="0" class="key tap">_</text>
</g>
<g transform="translate(262, 191) rotate(22.5)" class="key keypos-22">
<rect rx="6" ry="6" x="-26" y="-26" width="52" height="52" class="key"/>
<text x="0" y="0" class="key tap">?</text>
</g>
<g transform="translate(389, 191) rotate(-22.5)" class="key keypos-23">
<rect rx="6" ry="6" x="-26" y="-26" width="52" height="52" class="key"/>
<text x="0" y="0" class="key tap">PgDn</text>
</g>
<g transform="translate(448, 187) rotate(-22.5)" class="key keypos-24">
<rect rx="6" ry="6" x="-26" y="-26" width="52" height="52" class="key"/>
<text x="0" y="0" class="key tap">Home</text>
</g>
<g transform="translate(491, 141) rotate(-20.0)" class="key keypos-25">
<rect rx="6" ry="6" x="-26" y="-26" width="52" height="52" class="key"/>
<text x="0" y="0" class="key tap">↓</text>
</g>
<g transform="translate(554, 153) rotate(-15.0)" class="key keypos-26">
<rect rx="6" ry="6" x="-26" y="-26" width="52" height="52" class="key"/>
<text x="0" y="0" class="key tap">End</text>
</g>
<g transform="translate(619, 180) rotate(-10.0)" class="key keypos-27">
<rect rx="6" ry="6" x="-26" y="-26" width="52" height="52" class="key"/>
<text x="0" y="0" class="key tap">↵</text>
</g>
<g transform="translate(268, 288) rotate(42.5)" class="key keypos-28">
<rect rx="6" ry="6" x="-40" y="-26" width="80" height="52" class="key"/>
<text x="0" y="0" class="key tap">-</text>
<a href="#numpad">
<text x="0" y="24" class="key hold layer-activator">numpad</text>
</a></g>
<g transform="translate(383, 288) rotate(-42.5)" class="key held keypos-29">
<rect rx="6" ry="6" x="-40" y="-26" width="80" height="52" class="key held"/>
</g>
</g>
</g>
<g transform="translate(30, 1185)" class="layer-keybd / func">
<text x="0" y="28" class="label" id="keybd--func">keybd / func:</text>
<g transform="translate(0, 56)">
<g transform="translate(63, 63) rotate(15.0)" class="key keypos-0">
<rect rx="6" ry="6" x="-26" y="-26" width="52" height="52" class="key"/>
<text x="0" y="0" class="key tap">
<tspan x="0" dy="-1.2em">BT</tspan><tspan x="0" dy="1.2em">1</tspan>
</text>
<text x="0" y="24" class="key hold">clear 1</text>
</g>
<g transform="translate(126, 45) rotate(15.0)" class="key keypos-1">
<rect rx="6" ry="6" x="-26" y="-26" width="52" height="52" class="key"/>
<text x="0" y="0" class="key tap">
<tspan x="0" dy="-1.2em">BT</tspan><tspan x="0" dy="1.2em">2</tspan>
</text>
<text x="0" y="24" class="key hold">clear 2</text>
</g>
<g transform="translate(199, 36) rotate(20.0)" class="key keypos-2">
<rect rx="6" ry="6" x="-26" y="-26" width="52" height="52" class="key"/>
<text x="0" y="0" class="key tap">
<tspan x="0" dy="-1.2em">BT</tspan><tspan x="0" dy="1.2em">3</tspan>
</text>
<text x="0" y="24" class="key hold">clear 3</text>
</g>
<g transform="translate(246, 83) rotate(22.5)" class="key keypos-3">
<rect rx="6" ry="6" x="-26" y="-26" width="52" height="52" class="key"/>
<text x="0" y="0" class="key tap">
<tspan x="0" dy="-1.2em">BT</tspan><tspan x="0" dy="1.2em">4</tspan>
</text>
<text x="0" y="24" class="key hold">clear 4</text>
</g>
<g transform="translate(405, 83) rotate(-22.5)" class="key keypos-4">
<rect rx="6" ry="6" x="-26" y="-26" width="52" height="52" class="key"/>
<text x="0" y="0" class="key tap">F7</text>
</g>
<g transform="translate(453, 36) rotate(-20.0)" class="key keypos-5">
<rect rx="6" ry="6" x="-26" y="-26" width="52" height="52" class="key"/>
<text x="0" y="0" class="key tap">F8</text>
</g>
<g transform="translate(526, 45) rotate(-15.0)" class="key keypos-6">
<rect rx="6" ry="6" x="-26" y="-26" width="52" height="52" class="key"/>
<text x="0" y="0" class="key tap">F9</text>
</g>
<g transform="translate(589, 63) rotate(-15.0)" class="key keypos-7">
<rect rx="6" ry="6" x="-26" y="-26" width="52" height="52" class="key"/>
<text x="0" y="0" class="key tap">F12</text>
</g>
<g transform="translate(42, 124) rotate(10.0)" class="key keypos-8">
<rect rx="6" ry="6" x="-26" y="-26" width="52" height="52" class="key"/>
<text x="0" y="0" class="key tap">
<tspan x="0" dy="-1.2em">Caps</tspan><tspan x="0" dy="1.2em">🔒</tspan>
</text>
<text x="0" y="24" class="key hold">⇧</text>
</g>
<g transform="translate(111, 99) rotate(15.0)" class="key keypos-9">
<rect rx="6" ry="6" x="-26" y="-26" width="52" height="52" class="key"/>
<text x="0" y="0" class="key tap">⏮</text>
<text x="0" y="24" class="key hold">^</text>
</g>
<g transform="translate(180, 89) rotate(20.0)" class="key keypos-10">
<rect rx="6" ry="6" x="-26" y="-26" width="52" height="52" class="key"/>
<text x="0" y="0" class="key tap">⏯</text>
<text x="0" y="24" class="key hold">⌥</text>
</g>
<g transform="translate(225, 135) rotate(22.5)" class="key keypos-11">
<rect rx="6" ry="6" x="-26" y="-26" width="52" height="52" class="key"/>
<text x="0" y="0" class="key tap">⏭</text>
<text x="0" y="24" class="key hold">⌘</text>
</g>
<g transform="translate(284, 139) rotate(22.5)" class="key keypos-12">
<rect rx="6" ry="6" x="-26" y="-26" width="52" height="52" class="key"/>
<text x="0" y="0" class="key tap">
<tspan x="0" dy="-1.2em">BT</tspan><tspan x="0" dy="1.2em">5</tspan>
</text>
<text x="0" y="24" class="key hold">clear 5</text>
</g>
<g transform="translate(368, 139) rotate(-22.5)" class="key keypos-13">
<rect rx="6" ry="6" x="-26" y="-26" width="52" height="52" class="key"/>
<text x="0" y="0" class="key tap">USB</text>
</g>
<g transform="translate(427, 135) rotate(-22.5)" class="key keypos-14">
<rect rx="6" ry="6" x="-26" y="-26" width="52" height="52" class="key"/>
<text x="0" y="0" class="key tap">F4</text>
</g>
<g transform="translate(472, 89) rotate(-20.0)" class="key keypos-15">
<rect rx="6" ry="6" x="-26" y="-26" width="52" height="52" class="key"/>
<text x="0" y="0" class="key tap">F5</text>
</g>
<g transform="translate(540, 99) rotate(-15.0)" class="key keypos-16">
<rect rx="6" ry="6" x="-26" y="-26" width="52" height="52" class="key"/>
<text x="0" y="0" class="key tap">F6</text>
</g>
<g transform="translate(609, 124) rotate(-10.0)" class="key keypos-17">
<rect rx="6" ry="6" x="-26" y="-26" width="52" height="52" class="key"/>
<text x="0" y="0" class="key tap">F11</text>
</g>
<g transform="translate(32, 180) rotate(10.0)" class="key keypos-18">
<rect rx="6" ry="6" x="-26" y="-26" width="52" height="52" class="key"/>
<text x="0" y="0" class="key tap">
<tspan x="0" dy="-0.6em">lock</tspan><tspan x="0" dy="1.2em">screen</tspan>
</text>
</g>
<g transform="translate(97, 153) rotate(15.0)" class="key keypos-19">
<rect rx="6" ry="6" x="-26" y="-26" width="52" height="52" class="key"/>
<text x="0" y="0" class="key tap">MUTE</text>
</g>
<g transform="translate(160, 141) rotate(20.0)" class="key keypos-20">
<rect rx="6" ry="6" x="-26" y="-26" width="52" height="52" class="key"/>
<text x="0" y="0" class="key tap">
<tspan x="0" dy="-0.6em" style="font-size: 70%">connection</tspan><tspan x="0" dy="1.2em" style="font-size: 70%">status</tspan>
</text>
</g>
<g transform="translate(203, 187) rotate(22.5)" class="key keypos-21">
<rect rx="6" ry="6" x="-26" y="-26" width="52" height="52" class="key"/>
<text x="0" y="0" class="key tap">
<tspan x="0" dy="-0.6em">battery</tspan><tspan x="0" dy="1.2em">status</tspan>
</text>
</g>
<g transform="translate(262, 191) rotate(22.5)" class="key keypos-22">
<rect rx="6" ry="6" x="-26" y="-26" width="52" height="52" class="key"/>
<text x="0" y="0" class="key tap">
<tspan x="0" dy="-0.6em">Num</tspan><tspan x="0" dy="1.2em">🔒</tspan>
</text>
</g>
<g transform="translate(389, 191) rotate(-22.5)" class="key keypos-23">
<rect rx="6" ry="6" x="-26" y="-26" width="52" height="52" class="key"/>
<text x="0" y="0" class="key tap">
<tspan x="0" dy="-0.6em">ZMK</tspan><tspan x="0" dy="1.2em">Studio</tspan>
</text>
</g>
<g transform="translate(448, 187) rotate(-22.5)" class="key keypos-24">
<rect rx="6" ry="6" x="-26" y="-26" width="52" height="52" class="key"/>
<text x="0" y="0" class="key tap">F1</text>
</g>
<g transform="translate(491, 141) rotate(-20.0)" class="key keypos-25">
<rect rx="6" ry="6" x="-26" y="-26" width="52" height="52" class="key"/>
<text x="0" y="0" class="key tap">F2</text>
</g>
<g transform="translate(554, 153) rotate(-15.0)" class="key keypos-26">
<rect rx="6" ry="6" x="-26" y="-26" width="52" height="52" class="key"/>
<text x="0" y="0" class="key tap">F3</text>
</g>
<g transform="translate(619, 180) rotate(-10.0)" class="key keypos-27">
<rect rx="6" ry="6" x="-26" y="-26" width="52" height="52" class="key"/>
<text x="0" y="0" class="key tap">F10</text>
</g>
<g transform="translate(268, 288) rotate(42.5)" class="key held keypos-28">
<rect rx="6" ry="6" x="-40" y="-26" width="80" height="52" class="key held"/>
</g>
<g transform="translate(383, 288) rotate(-42.5)" class="key held keypos-29">
<rect rx="6" ry="6" x="-40" y="-26" width="80" height="52" class="key held"/>
</g>
<g class="combo combopos-0">
<rect rx="6" ry="6" x="312" y="126" width="28" height="26" class="combo"/>
<text x="326" y="139" class="combo tap">flash</text>
</g>
</g>
</g>
<g transform="translate(30, 1578)" class="layer-flash mode">
<text x="0" y="28" class="label" id="flash-mode">flash mode:</text>
<g transform="translate(0, 56)">
<g transform="translate(63, 63) rotate(15.0)" class="key keypos-0">
<rect rx="6" ry="6" x="-26" y="-26" width="52" height="52" class="key"/>
</g>
<g transform="translate(126, 45) rotate(15.0)" class="key keypos-1">
<rect rx="6" ry="6" x="-26" y="-26" width="52" height="52" class="key"/>
</g>
<g transform="translate(199, 36) rotate(20.0)" class="key keypos-2">
<rect rx="6" ry="6" x="-26" y="-26" width="52" height="52" class="key"/>
</g>
<g transform="translate(246, 83) rotate(22.5)" class="key keypos-3">
<rect rx="6" ry="6" x="-26" y="-26" width="52" height="52" class="key"/>
</g>
<g transform="translate(405, 83) rotate(-22.5)" class="key keypos-4">
<rect rx="6" ry="6" x="-26" y="-26" width="52" height="52" class="key"/>
</g>
<g transform="translate(453, 36) rotate(-20.0)" class="key keypos-5">
<rect rx="6" ry="6" x="-26" y="-26" width="52" height="52" class="key"/>
</g>
<g transform="translate(526, 45) rotate(-15.0)" class="key keypos-6">
<rect rx="6" ry="6" x="-26" y="-26" width="52" height="52" class="key"/>
</g>
<g transform="translate(589, 63) rotate(-15.0)" class="key keypos-7">
<rect rx="6" ry="6" x="-26" y="-26" width="52" height="52" class="key"/>
</g>
<g transform="translate(42, 124) rotate(10.0)" class="key keypos-8">
<rect rx="6" ry="6" x="-26" y="-26" width="52" height="52" class="key"/>
</g>
<g transform="translate(111, 99) rotate(15.0)" class="key keypos-9">
<rect rx="6" ry="6" x="-26" y="-26" width="52" height="52" class="key"/>
</g>
<g transform="translate(180, 89) rotate(20.0)" class="key keypos-10">
<rect rx="6" ry="6" x="-26" y="-26" width="52" height="52" class="key"/>
</g>
<g transform="translate(225, 135) rotate(22.5)" class="key keypos-11">
<rect rx="6" ry="6" x="-26" y="-26" width="52" height="52" class="key"/>
</g>
<g transform="translate(284, 139) rotate(22.5)" class="key keypos-12">
<rect rx="6" ry="6" x="-26" y="-26" width="52" height="52" class="key"/>
</g>
<g transform="translate(368, 139) rotate(-22.5)" class="key keypos-13">
<rect rx="6" ry="6" x="-26" y="-26" width="52" height="52" class="key"/>
</g>
<g transform="translate(427, 135) rotate(-22.5)" class="key keypos-14">
<rect rx="6" ry="6" x="-26" y="-26" width="52" height="52" class="key"/>
</g>
<g transform="translate(472, 89) rotate(-20.0)" class="key keypos-15">
<rect rx="6" ry="6" x="-26" y="-26" width="52" height="52" class="key"/>
</g>
<g transform="translate(540, 99) rotate(-15.0)" class="key keypos-16">
<rect rx="6" ry="6" x="-26" y="-26" width="52" height="52" class="key"/>
</g>
<g transform="translate(609, 124) rotate(-10.0)" class="key keypos-17">
<rect rx="6" ry="6" x="-26" y="-26" width="52" height="52" class="key"/>
</g>
<g transform="translate(32, 180) rotate(10.0)" class="key keypos-18">
<rect rx="6" ry="6" x="-26" y="-26" width="52" height="52" class="key"/>
</g>
<g transform="translate(97, 153) rotate(15.0)" class="key keypos-19">
<rect rx="6" ry="6" x="-26" y="-26" width="52" height="52" class="key"/>
</g>
<g transform="translate(160, 141) rotate(20.0)" class="key keypos-20">
<rect rx="6" ry="6" x="-26" y="-26" width="52" height="52" class="key"/>
</g>
<g transform="translate(203, 187) rotate(22.5)" class="key keypos-21">
<rect rx="6" ry="6" x="-26" y="-26" width="52" height="52" class="key"/>
</g>
<g transform="translate(262, 191) rotate(22.5)" class="key keypos-22">
<rect rx="6" ry="6" x="-26" y="-26" width="52" height="52" class="key"/>
</g>
<g transform="translate(389, 191) rotate(-22.5)" class="key keypos-23">
<rect rx="6" ry="6" x="-26" y="-26" width="52" height="52" class="key"/>
</g>
<g transform="translate(448, 187) rotate(-22.5)" class="key keypos-24">
<rect rx="6" ry="6" x="-26" y="-26" width="52" height="52" class="key"/>
</g>
<g transform="translate(491, 141) rotate(-20.0)" class="key keypos-25">
<rect rx="6" ry="6" x="-26" y="-26" width="52" height="52" class="key"/>
</g>
<g transform="translate(554, 153) rotate(-15.0)" class="key keypos-26">
<rect rx="6" ry="6" x="-26" y="-26" width="52" height="52" class="key"/>
</g>
<g transform="translate(619, 180) rotate(-10.0)" class="key keypos-27">
<rect rx="6" ry="6" x="-26" y="-26" width="52" height="52" class="key"/>
</g>
<g transform="translate(268, 288) rotate(42.5)" class="key keypos-28">
<rect rx="6" ry="6" x="-40" y="-26" width="80" height="52" class="key"/>
</g>
<g transform="translate(383, 288) rotate(-42.5)" class="key keypos-29">
<rect rx="6" ry="6" x="-40" y="-26" width="80" height="52" class="key"/>
</g>
</g>
</g>
</svg>
