solid csg.js
facet normal 0 0 -1
outer loop
vertex 2.725444620908296 -1.1289161254770155 0
vertex 2.452835356292508 -1.638932187407828 0
vertex 2.085965004500316 -2.0859650045003146 0
endloop
endfacet
facet normal 0 0 -1
outer loop
vertex 2.725444620908296 -1.1289161254770155 0
vertex 2.085965004500316 -2.0859650045003146 0
vertex 1.6389321874078253 -2.452835356292509 0
endloop
endfacet
facet normal 0 0 -1
outer loop
vertex 2.725444620908296 -1.1289161254770155 0
vertex 1.6389321874078253 -2.452835356292509 0
vertex 1.128916125477013 -2.725444620908297 0
endloop
endfacet
facet normal 0 0 -1
outer loop
vertex 2.725444620908296 -1.1289161254770155 0
vertex 1.128916125477013 -2.725444620908297 0
vertex 0.5755164499475808 -2.89331657718953 0
endloop
endfacet
facet normal 0 0 -1
outer loop
vertex 2.725444620908296 -1.1289161254770155 0
vertex 0.5755164499475808 -2.89331657718953 0
vertex 0 -2.95 0
endloop
endfacet
facet normal 0 0 -1
outer loop
vertex 2.725444620908296 -1.1289161254770155 0
vertex 0 -2.95 0
vertex -0.5755164499475807 -2.893316577189529 0
endloop
endfacet
facet normal 0 0 -1
outer loop
vertex 2.725444620908296 -1.1289161254770155 0
vertex -0.5755164499475807 -2.893316577189529 0
vertex -1.128916125477015 -2.725444620908296 0
endloop
endfacet
facet normal 0 0 -1
outer loop
vertex 2.725444620908296 -1.1289161254770155 0
vertex -1.128916125477015 -2.725444620908296 0
vertex -1.6389321874078275 -2.452835356292508 0
endloop
endfacet
facet normal 0 0 -1
outer loop
vertex 2.725444620908296 -1.1289161254770155 0
vertex -1.6389321874078275 -2.452835356292508 0
vertex -2.085965004500315 -2.085965004500316 0
endloop
endfacet
facet normal 0 0 -1
outer loop
vertex 2.725444620908296 -1.1289161254770155 0
vertex -2.085965004500315 -2.085965004500316 0
vertex -2.4528353562925087 -1.6389321874078262 0
endloop
endfacet
facet normal 0 0 -1
outer loop
vertex 2.725444620908296 -1.1289161254770155 0
vertex -2.4528353562925087 -1.6389321874078262 0
vertex -2.725444620908298 -1.1289161254770104 0
endloop
endfacet
facet normal 0 0 -1
outer loop
vertex 2.725444620908296 -1.1289161254770155 0
vertex -2.725444620908298 -1.1289161254770104 0
vertex -2.89331657718953 -0.5755164499475802 0
endloop
endfacet
facet normal 0 0 -1
outer loop
vertex 2.725444620908296 -1.1289161254770155 0
vertex -2.89331657718953 -0.5755164499475802 0
vertex -2.95 7.771561172376096e-16 0
endloop
endfacet
facet normal 0 0 -1
outer loop
vertex 2.725444620908296 -1.1289161254770155 0
vertex -2.95 7.771561172376096e-16 0
vertex -2.89331657718953 0.5755164499475798 0
endloop
endfacet
facet normal 0 0 -1
outer loop
vertex 2.725444620908296 -1.1289161254770155 0
vertex -2.89331657718953 0.5755164499475798 0
vertex -2.7254446209082963 1.1289161254770148 0
endloop
endfacet
facet normal 0 0 -1
outer loop
vertex 2.725444620908296 -1.1289161254770155 0
vertex -2.7254446209082963 1.1289161254770148 0
vertex -2.452835356292508 1.638932187407828 0
endloop
endfacet
facet normal 0 0 -1
outer loop
vertex 2.725444620908296 -1.1289161254770155 0
vertex -2.452835356292508 1.638932187407828 0
vertex -2.085965004500316 2.085965004500315 0
endloop
endfacet
facet normal 0 0 -1
outer loop
vertex 2.725444620908296 -1.1289161254770155 0
vertex -2.085965004500316 2.085965004500315 0
vertex -1.6389321874078253 2.452835356292509 0
endloop
endfacet
facet normal 0 0 -1
outer loop
vertex 2.725444620908296 -1.1289161254770155 0
vertex -1.6389321874078253 2.452835356292509 0
vertex -1.1289161254770146 2.7254446209082963 0
endloop
endfacet
facet normal 0 0 -1
outer loop
vertex 2.725444620908296 -1.1289161254770155 0
vertex -1.1289161254770146 2.7254446209082963 0
vertex -0.57551644994758 2.89331657718953 0
endloop
endfacet
facet normal 0 0 -1
outer loop
vertex 2.725444620908296 -1.1289161254770155 0
vertex -0.57551644994758 2.89331657718953 0
vertex -1.7763568394002505e-15 2.95 0
endloop
endfacet
facet normal 0 0 -1
outer loop
vertex 2.725444620908296 -1.1289161254770155 0
vertex -1.7763568394002505e-15 2.95 0
vertex 0.5755164499475808 2.8933165771895295 0
endloop
endfacet
facet normal 0 0 -1
outer loop
vertex 2.725444620908296 -1.1289161254770155 0
vertex 0.5755164499475808 2.8933165771895295 0
vertex 1.1289161254770148 2.7254446209082963 0
endloop
endfacet
facet normal 0 0 -1
outer loop
vertex 2.725444620908296 -1.1289161254770155 0
vertex 1.1289161254770148 2.7254446209082963 0
vertex 1.6389321874078273 2.4528353562925087 0
endloop
endfacet
facet normal 0 0 -1
outer loop
vertex 2.725444620908296 -1.1289161254770155 0
vertex 1.6389321874078273 2.4528353562925087 0
vertex 2.085965004500315 2.0859650045003155 0
endloop
endfacet
facet normal 0 0 -1
outer loop
vertex 2.725444620908296 -1.1289161254770155 0
vertex 2.085965004500315 2.0859650045003155 0
vertex 2.452835356292509 1.6389321874078258 0
endloop
endfacet
facet normal 0 0 -1
outer loop
vertex 2.725444620908296 -1.1289161254770155 0
vertex 2.452835356292509 1.6389321874078258 0
vertex 2.7254446209082963 1.1289161254770144 0
endloop
endfacet
facet normal 0 0 -1
outer loop
vertex 2.725444620908296 -1.1289161254770155 0
vertex 2.7254446209082963 1.1289161254770144 0
vertex 2.89331657718953 0.5755164499475792 0
endloop
endfacet
facet normal 0 0 -1
outer loop
vertex 2.725444620908296 -1.1289161254770155 0
vertex 2.89331657718953 0.5755164499475792 0
vertex 2.95 8.881784197001252e-16 0
endloop
endfacet
facet normal 0 0 -1
outer loop
vertex 2.725444620908296 -1.1289161254770155 0
vertex 2.95 8.881784197001252e-16 0
vertex 2.89331657718953 -0.5755164499475777 0
endloop
endfacet
facet normal 0 0 1
outer loop
vertex -1.7763568394002505e-15 2.95 1.4
vertex -0.5755164499475791 2.8933165771895304 1.4
vertex -1.128916125477014 2.7254446209082968 1.4
endloop
endfacet
facet normal 0 0 1
outer loop
vertex -1.7763568394002505e-15 2.95 1.4
vertex -1.128916125477014 2.7254446209082968 1.4
vertex -1.6389321874078249 2.4528353562925096 1.4
endloop
endfacet
facet normal 0 0 1
outer loop
vertex -1.7763568394002505e-15 2.95 1.4
vertex -1.6389321874078249 2.4528353562925096 1.4
vertex -2.0859650045003164 2.0859650045003146 1.4
endloop
endfacet
facet normal 0 0 1
outer loop
vertex -1.7763568394002505e-15 2.95 1.4
vertex -2.0859650045003164 2.0859650045003146 1.4
vertex -2.4528353562925083 1.6389321874078275 1.4
endloop
endfacet
facet normal 0 0 1
outer loop
vertex -1.7763568394002505e-15 2.95 1.4
vertex -2.4528353562925083 1.6389321874078275 1.4
vertex -2.7254446209082954 1.1289161254770161 1.4
endloop
endfacet
facet normal 0 0 1
outer loop
vertex -1.7763568394002505e-15 2.95 1.4
vertex -2.7254446209082954 1.1289161254770161 1.4
vertex -2.8933165771895295 0.5755164499475804 1.4
endloop
endfacet
facet normal 0 0 1
outer loop
vertex -1.7763568394002505e-15 2.95 1.4
vertex -2.8933165771895295 0.5755164499475804 1.4
vertex -2.95 -2.220446049250313e-15 1.4
endloop
endfacet
facet normal 0 0 1
outer loop
vertex -1.7763568394002505e-15 2.95 1.4
vertex -2.95 -2.220446049250313e-15 1.4
vertex -2.89331657718953 -0.57551644994758 1.4
endloop
endfacet
facet normal 0 0 1
outer loop
vertex -1.7763568394002505e-15 2.95 1.4
vertex -2.89331657718953 -0.57551644994758 1.4
vertex -2.7254446209082976 -1.1289161254770121 1.4
endloop
endfacet
facet normal 0 0 1
outer loop
vertex -1.7763568394002505e-15 2.95 1.4
vertex -2.7254446209082976 -1.1289161254770121 1.4
vertex -2.45283535629251 -1.6389321874078244 1.4
endloop
endfacet
facet normal 0 0 1
outer loop
vertex -1.7763568394002505e-15 2.95 1.4
vertex -2.45283535629251 -1.6389321874078244 1.4
vertex -2.085965004500315 -2.085965004500316 1.4
endloop
endfacet
facet normal 0 0 1
outer loop
vertex -1.7763568394002505e-15 2.95 1.4
vertex -2.085965004500315 -2.085965004500316 1.4
vertex -1.6389321874078264 -2.4528353562925087 1.4
endloop
endfacet
facet normal 0 0 1
outer loop
vertex -1.7763568394002505e-15 2.95 1.4
vertex -1.6389321874078264 -2.4528353562925087 1.4
vertex -1.1289161254770155 -2.725444620908296 1.4
endloop
endfacet
facet normal 0 0 1
outer loop
vertex -1.7763568394002505e-15 2.95 1.4
vertex -1.1289161254770155 -2.725444620908296 1.4
vertex -0.57551644994758 -2.8933165771895295 1.4
endloop
endfacet
facet normal 0 0 1
outer loop
vertex -1.7763568394002505e-15 2.95 1.4
vertex -0.57551644994758 -2.8933165771895295 1.4
vertex -2.220446049250313e-15 -2.95 1.4
endloop
endfacet
facet normal 0 0 1
outer loop
vertex -1.7763568394002505e-15 2.95 1.4
vertex -2.220446049250313e-15 -2.95 1.4
vertex 0.5755164499475813 -2.8933165771895295 1.4
endloop
endfacet
facet normal 0 0 1
outer loop
vertex -1.7763568394002505e-15 2.95 1.4
vertex 0.5755164499475813 -2.8933165771895295 1.4
vertex 1.1289161254770144 -2.7254446209082968 1.4
endloop
endfacet
facet normal 0 0 1
outer loop
vertex -1.7763568394002505e-15 2.95 1.4
vertex 1.1289161254770144 -2.7254446209082968 1.4
vertex 1.6389321874078238 -2.4528353562925105 1.4
endloop
endfacet
facet normal 0 0 1
outer loop
vertex -1.7763568394002505e-15 2.95 1.4
vertex 1.6389321874078238 -2.4528353562925105 1.4
vertex 2.0859650045003146 -2.0859650045003164 1.4
endloop
endfacet
facet normal 0 0 1
outer loop
vertex -1.7763568394002505e-15 2.95 1.4
vertex 2.0859650045003146 -2.0859650045003164 1.4
vertex 2.4528353562925083 -1.6389321874078278 1.4
endloop
endfacet
facet normal 0 0 1
outer loop
vertex -1.7763568394002505e-15 2.95 1.4
vertex 2.4528353562925083 -1.6389321874078278 1.4
vertex 2.725444620908295 -1.1289161254770184 1.4
endloop
endfacet
facet normal 0 0 1
outer loop
vertex -1.7763568394002505e-15 2.95 1.4
vertex 2.725444620908295 -1.1289161254770184 1.4
vertex 2.8933165771895295 -0.5755164499475796 1.4
endloop
endfacet
facet normal 0 0 1
outer loop
vertex -1.7763568394002505e-15 2.95 1.4
vertex 2.8933165771895295 -0.5755164499475796 1.4
vertex 2.95 1.7763568394002505e-15 1.4
endloop
endfacet
facet normal 0 0 1
outer loop
vertex -1.7763568394002505e-15 2.95 1.4
vertex 2.95 1.7763568394002505e-15 1.4
vertex 2.8933165771895304 0.5755164499475778 1.4
endloop
endfacet
facet normal 0 0 1
outer loop
vertex -1.7763568394002505e-15 2.95 1.4
vertex 2.8933165771895304 0.5755164499475778 1.4
vertex 2.725444620908296 1.1289161254770148 1.4
endloop
endfacet
facet normal 0 0 1
outer loop
vertex -1.7763568394002505e-15 2.95 1.4
vertex 2.725444620908296 1.1289161254770148 1.4
vertex 2.452835356292509 1.6389321874078258 1.4
endloop
endfacet
facet normal 0 0 1
outer loop
vertex -1.7763568394002505e-15 2.95 1.4
vertex 2.452835356292509 1.6389321874078258 1.4
vertex 2.085965004500314 2.0859650045003164 1.4
endloop
endfacet
facet normal 0 0 1
outer loop
vertex -1.7763568394002505e-15 2.95 1.4
vertex 2.085965004500314 2.0859650045003164 1.4
vertex 1.6389321874078278 2.452835356292508 1.4
endloop
endfacet
facet normal 0 0 1
outer loop
vertex -1.7763568394002505e-15 2.95 1.4
vertex 1.6389321874078278 2.452835356292508 1.4
vertex 1.1289161254770117 2.725444620908297 1.4
endloop
endfacet
facet normal 0 0 1
outer loop
vertex -1.7763568394002505e-15 2.95 1.4
vertex 1.1289161254770117 2.725444620908297 1.4
vertex 0.5755164499475827 2.893316577189529 1.4
endloop
endfacet
facet normal 0.9951847266721969 -0.09801714032956133 0
outer loop
vertex 2.95 1.7763568394002505e-15 1.4
vertex 2.8933165771895295 -0.5755164499475796 1.4
vertex 2.89331657718953 -0.5755164499475777 0
endloop
endfacet
facet normal 0.9951847266721969 -0.09801714032956133 0
outer loop
vertex 2.95 1.7763568394002505e-15 1.4
vertex 2.89331657718953 -0.5755164499475777 0
vertex 2.95 8.881784197001252e-16 0
endloop
endfacet
facet normal 0.9951847266721969 0.09801714032956088 0
outer loop
vertex 2.8933165771895304 0.5755164499475778 1.4
vertex 2.95 1.7763568394002505e-15 1.4
vertex 2.95 8.881784197001252e-16 0
endloop
endfacet
facet normal 0.9951847266721969 0.09801714032956088 0
outer loop
vertex 2.8933165771895304 0.5755164499475778 1.4
vertex 2.95 8.881784197001252e-16 0
vertex 2.89331657718953 0.5755164499475792 0
endloop
endfacet
facet normal 0.9569403357322088 0.2902846772544625 0
outer loop
vertex 2.725444620908296 1.1289161254770148 1.4
vertex 2.8933165771895304 0.5755164499475778 1.4
vertex 2.89331657718953 0.5755164499475792 0
endloop
endfacet
facet normal 0.9569403357322088 0.2902846772544625 0
outer loop
vertex 2.725444620908296 1.1289161254770148 1.4
vertex 2.89331657718953 0.5755164499475792 0
vertex 2.7254446209082963 1.1289161254770144 0
endloop
endfacet
facet normal 0.8819212643483552 0.4713967368259975 0
outer loop
vertex 2.452835356292509 1.6389321874078258 1.4
vertex 2.725444620908296 1.1289161254770148 1.4
vertex 2.7254446209082963 1.1289161254770144 0
endloop
endfacet
facet normal 0.8819212643483552 0.4713967368259975 0
outer loop
vertex 2.452835356292509 1.6389321874078258 1.4
vertex 2.7254446209082963 1.1289161254770144 0
vertex 2.452835356292509 1.6389321874078258 0
endloop
endfacet
facet normal 0.7730104533627375 0.6343932841636448 0
outer loop
vertex 2.085965004500314 2.0859650045003164 1.4
vertex 2.452835356292509 1.6389321874078258 1.4
vertex 2.452835356292509 1.6389321874078258 0
endloop
endfacet
facet normal 0.7730104533627375 0.6343932841636448 0
outer loop
vertex 2.085965004500314 2.0859650045003164 1.4
vertex 2.452835356292509 1.6389321874078258 0
vertex 2.085965004500315 2.0859650045003155 0
endloop
endfacet
facet normal 0.6343932841636459 0.7730104533627367 0
outer loop
vertex 1.6389321874078278 2.452835356292508 1.4
vertex 2.085965004500314 2.0859650045003164 1.4
vertex 2.085965004500315 2.0859650045003155 0
endloop
endfacet
facet normal 0.6343932841636459 0.7730104533627367 0
outer loop
vertex 1.6389321874078278 2.452835356292508 1.4
vertex 2.085965004500315 2.0859650045003155 0
vertex 1.6389321874078273 2.4528353562925087 0
endloop
endfacet
facet normal 0.47139673682599714 0.8819212643483554 0
outer loop
vertex 1.1289161254770117 2.725444620908297 1.4
vertex 1.6389321874078278 2.452835356292508 1.4
vertex 1.6389321874078273 2.4528353562925087 0
endloop
endfacet
facet normal 0.47139673682599714 0.8819212643483554 0
outer loop
vertex 1.1289161254770117 2.725444620908297 1.4
vertex 1.6389321874078273 2.4528353562925087 0
vertex 1.1289161254770148 2.7254446209082963 0
endloop
endfacet
facet normal 0.29028467725446255 0.9569403357322088 0
outer loop
vertex 0.5755164499475827 2.893316577189529 1.4
vertex 1.1289161254770117 2.725444620908297 1.4
vertex 1.1289161254770148 2.7254446209082963 0
endloop
endfacet
facet normal 0.29028467725446255 0.9569403357322088 0
outer loop
vertex 0.5755164499475827 2.893316577189529 1.4
vertex 1.1289161254770148 2.7254446209082963 0
vertex 0.5755164499475808 2.8933165771895295 0
endloop
endfacet
facet normal 0.09801714032956087 0.9951847266721968 0
outer loop
vertex -1.7763568394002505e-15 2.95 1.4
vertex 0.5755164499475827 2.893316577189529 1.4
vertex 0.5755164499475808 2.8933165771895295 0
endloop
endfacet
facet normal 0.09801714032956087 0.9951847266721968 0
outer loop
vertex -1.7763568394002505e-15 2.95 1.4
vertex 0.5755164499475808 2.8933165771895295 0
vertex -1.7763568394002505e-15 2.95 0
endloop
endfacet
facet normal -0.09801714032956088 0.9951847266721969 0
outer loop
vertex -0.5755164499475791 2.8933165771895304 1.4
vertex -1.7763568394002505e-15 2.95 1.4
vertex -1.7763568394002505e-15 2.95 0
endloop
endfacet
facet normal -0.09801714032956088 0.9951847266721969 0
outer loop
vertex -0.5755164499475791 2.8933165771895304 1.4
vertex -1.7763568394002505e-15 2.95 0
vertex -0.57551644994758 2.89331657718953 0
endloop
endfacet
facet normal -0.2902846772544625 0.9569403357322088 0
outer loop
vertex -1.128916125477014 2.7254446209082968 1.4
vertex -0.5755164499475791 2.8933165771895304 1.4
vertex -0.57551644994758 2.89331657718953 0
endloop
endfacet
facet normal -0.2902846772544625 0.9569403357322088 0
outer loop
vertex -1.128916125477014 2.7254446209082968 1.4
vertex -0.57551644994758 2.89331657718953 0
vertex -1.1289161254770146 2.7254446209082963 0
endloop
endfacet
facet normal -0.4713967368259979 0.8819212643483549 0
outer loop
vertex -1.6389321874078249 2.4528353562925096 1.4
vertex -1.128916125477014 2.7254446209082968 1.4
vertex -1.1289161254770146 2.7254446209082963 0
endloop
endfacet
facet normal -0.4713967368259979 0.8819212643483549 0
outer loop
vertex -1.6389321874078249 2.4528353562925096 1.4
vertex -1.1289161254770146 2.7254446209082963 0
vertex -1.6389321874078253 2.452835356292509 0
endloop
endfacet
facet normal -0.6343932841636448 0.7730104533627375 0
outer loop
vertex -2.0859650045003164 2.0859650045003146 1.4
vertex -1.6389321874078249 2.4528353562925096 1.4
vertex -1.6389321874078253 2.452835356292509 0
endloop
endfacet
facet normal -0.6343932841636448 0.7730104533627375 0
outer loop
vertex -2.0859650045003164 2.0859650045003146 1.4
vertex -1.6389321874078253 2.452835356292509 0
vertex -2.085965004500316 2.085965004500315 0
endloop
endfacet
facet normal -0.7730104533627369 0.6343932841636456 0
outer loop
vertex -2.4528353562925083 1.6389321874078275 1.4
vertex -2.0859650045003164 2.0859650045003146 1.4
vertex -2.085965004500316 2.085965004500315 0
endloop
endfacet
facet normal -0.7730104533627369 0.6343932841636456 0
outer loop
vertex -2.4528353562925083 1.6389321874078275 1.4
vertex -2.085965004500316 2.085965004500315 0
vertex -2.452835356292508 1.638932187407828 0
endloop
endfacet
facet normal -0.8819212643483552 0.4713967368259975 0
outer loop
vertex -2.7254446209082954 1.1289161254770161 1.4
vertex -2.4528353562925083 1.6389321874078275 1.4
vertex -2.452835356292508 1.638932187407828 0
endloop
endfacet
facet normal -0.8819212643483552 0.4713967368259975 0
outer loop
vertex -2.7254446209082954 1.1289161254770161 1.4
vertex -2.452835356292508 1.638932187407828 0
vertex -2.7254446209082963 1.1289161254770148 0
endloop
endfacet
facet normal -0.9569403357322088 0.29028467725446294 0
outer loop
vertex -2.8933165771895295 0.5755164499475804 1.4
vertex -2.7254446209082954 1.1289161254770161 1.4
vertex -2.7254446209082963 1.1289161254770148 0
endloop
endfacet
facet normal -0.9569403357322088 0.29028467725446294 0
outer loop
vertex -2.8933165771895295 0.5755164499475804 1.4
vertex -2.7254446209082963 1.1289161254770148 0
vertex -2.89331657718953 0.5755164499475798 0
endloop
endfacet
facet normal -0.9951847266721969 0.09801714032956044 0
outer loop
vertex -2.95 -2.220446049250313e-15 1.4
vertex -2.8933165771895295 0.5755164499475804 1.4
vertex -2.89331657718953 0.5755164499475798 0
endloop
endfacet
facet normal -0.9951847266721969 0.09801714032956044 0
outer loop
vertex -2.95 -2.220446049250313e-15 1.4
vertex -2.89331657718953 0.5755164499475798 0
vertex -2.95 7.771561172376096e-16 0
endloop
endfacet
facet normal -0.9951847266721969 -0.09801714032956044 0
outer loop
vertex -2.89331657718953 -0.57551644994758 1.4
vertex -2.95 -2.220446049250313e-15 1.4
vertex -2.95 7.771561172376096e-16 0
endloop
endfacet
facet normal -0.9951847266721969 -0.09801714032956044 0
outer loop
vertex -2.89331657718953 -0.57551644994758 1.4
vertex -2.95 7.771561172376096e-16 0
vertex -2.89331657718953 -0.5755164499475802 0
endloop
endfacet
facet normal -0.9569403357322089 -0.29028467725446205 0
outer loop
vertex -2.7254446209082976 -1.1289161254770121 1.4
vertex -2.89331657718953 -0.57551644994758 1.4
vertex -2.89331657718953 -0.5755164499475802 0
endloop
endfacet
facet normal -0.9569403357322089 -0.29028467725446205 0
outer loop
vertex -2.7254446209082976 -1.1289161254770121 1.4
vertex -2.89331657718953 -0.5755164499475802 0
vertex -2.725444620908298 -1.1289161254770104 0
endloop
endfacet
facet normal -0.8819212643483552 -0.4713967368259975 0
outer loop
vertex -2.45283535629251 -1.6389321874078244 1.4
vertex -2.7254446209082976 -1.1289161254770121 1.4
vertex -2.725444620908298 -1.1289161254770104 0
endloop
endfacet
facet normal -0.8819212643483552 -0.4713967368259975 0
outer loop
vertex -2.45283535629251 -1.6389321874078244 1.4
vertex -2.725444620908298 -1.1289161254770104 0
vertex -2.4528353562925087 -1.6389321874078262 0
endloop
endfacet
facet normal -0.7730104533627375 -0.6343932841636448 0
outer loop
vertex -2.085965004500315 -2.085965004500316 1.4
vertex -2.45283535629251 -1.6389321874078244 1.4
vertex -2.4528353562925087 -1.6389321874078262 0
endloop
endfacet
facet normal -0.7730104533627375 -0.6343932841636448 0
outer loop
vertex -2.085965004500315 -2.085965004500316 1.4
vertex -2.4528353562925087 -1.6389321874078262 0
vertex -2.085965004500315 -2.085965004500316 0
endloop
endfacet
facet normal -0.6343932841636453 -0.7730104533627372 0
outer loop
vertex -1.6389321874078264 -2.4528353562925087 1.4
vertex -2.085965004500315 -2.085965004500316 1.4
vertex -2.085965004500315 -2.085965004500316 0
endloop
endfacet
facet normal -0.6343932841636453 -0.7730104533627372 0
outer loop
vertex -1.6389321874078264 -2.4528353562925087 1.4
vertex -2.085965004500315 -2.085965004500316 0
vertex -1.6389321874078275 -2.452835356292508 0
endloop
endfacet
facet normal -0.4713967368259979 -0.8819212643483549 0
outer loop
vertex -1.1289161254770155 -2.725444620908296 1.4
vertex -1.6389321874078264 -2.4528353562925087 1.4
vertex -1.6389321874078275 -2.452835356292508 0
endloop
endfacet
facet normal -0.4713967368259979 -0.8819212643483549 0
outer loop
vertex -1.1289161254770155 -2.725444620908296 1.4
vertex -1.6389321874078275 -2.452835356292508 0
vertex -1.128916125477015 -2.725444620908296 0
endloop
endfacet
facet normal -0.2902846772544625 -0.9569403357322089 0
outer loop
vertex -0.57551644994758 -2.8933165771895295 1.4
vertex -1.1289161254770155 -2.725444620908296 1.4
vertex -1.128916125477015 -2.725444620908296 0
endloop
endfacet
facet normal -0.2902846772544625 -0.9569403357322089 0
outer loop
vertex -0.57551644994758 -2.8933165771895295 1.4
vertex -1.128916125477015 -2.725444620908296 0
vertex -0.5755164499475807 -2.893316577189529 0
endloop
endfacet
facet normal -0.09801714032956133 -0.9951847266721969 0
outer loop
vertex -2.220446049250313e-15 -2.95 1.4
vertex -0.57551644994758 -2.8933165771895295 1.4
vertex -0.5755164499475807 -2.893316577189529 0
endloop
endfacet
facet normal -0.09801714032956133 -0.9951847266721969 0
outer loop
vertex -2.220446049250313e-15 -2.95 1.4
vertex -0.5755164499475807 -2.893316577189529 0
vertex 0 -2.95 0
endloop
endfacet
facet normal 0.09801714032956044 -0.9951847266721969 0
outer loop
vertex 0.5755164499475813 -2.8933165771895295 1.4
vertex -2.220446049250313e-15 -2.95 1.4
vertex 0 -2.95 0
endloop
endfacet
facet normal 0.09801714032956044 -0.9951847266721969 0
outer loop
vertex 0.5755164499475813 -2.8933165771895295 1.4
vertex 0 -2.95 0
vertex 0.5755164499475808 -2.89331657718953 0
endloop
endfacet
facet normal 0.2902846772544625 -0.9569403357322088 0
outer loop
vertex 1.1289161254770144 -2.7254446209082968 1.4
vertex 0.5755164499475813 -2.8933165771895295 1.4
vertex 0.5755164499475808 -2.89331657718953 0
endloop
endfacet
facet normal 0.2902846772544625 -0.9569403357322088 0
outer loop
vertex 1.1289161254770144 -2.7254446209082968 1.4
vertex 0.5755164499475808 -2.89331657718953 0
vertex 1.128916125477013 -2.725444620908297 0
endloop
endfacet
facet normal 0.4713967368259979 -0.8819212643483549 0
outer loop
vertex 1.6389321874078238 -2.4528353562925105 1.4
vertex 1.1289161254770144 -2.7254446209082968 1.4
vertex 1.128916125477013 -2.725444620908297 0
endloop
endfacet
facet normal 0.4713967368259979 -0.8819212643483549 0
outer loop
vertex 1.6389321874078238 -2.4528353562925105 1.4
vertex 1.128916125477013 -2.725444620908297 0
vertex 1.6389321874078253 -2.452835356292509 0
endloop
endfacet
facet normal 0.634393284163645 -0.7730104533627374 0
outer loop
vertex 2.0859650045003146 -2.0859650045003164 1.4
vertex 1.6389321874078238 -2.4528353562925105 1.4
vertex 1.6389321874078253 -2.452835356292509 0
endloop
endfacet
facet normal 0.634393284163645 -0.7730104533627374 0
outer loop
vertex 2.0859650045003146 -2.0859650045003164 1.4
vertex 1.6389321874078253 -2.452835356292509 0
vertex 2.085965004500316 -2.0859650045003146 0
endloop
endfacet
facet normal 0.7730104533627369 -0.6343932841636456 0
outer loop
vertex 2.4528353562925083 -1.6389321874078278 1.4
vertex 2.0859650045003146 -2.0859650045003164 1.4
vertex 2.085965004500316 -2.0859650045003146 0
endloop
endfacet
facet normal 0.7730104533627369 -0.6343932841636456 0
outer loop
vertex 2.4528353562925083 -1.6389321874078278 1.4
vertex 2.085965004500316 -2.0859650045003146 0
vertex 2.452835356292508 -1.638932187407828 0
endloop
endfacet
facet normal 0.8819212643483547 -0.47139673682599836 0
outer loop
vertex 2.725444620908295 -1.1289161254770184 1.4
vertex 2.4528353562925083 -1.6389321874078278 1.4
vertex 2.452835356292508 -1.638932187407828 0
endloop
endfacet
facet normal 0.8819212643483547 -0.47139673682599836 0
outer loop
vertex 2.725444620908295 -1.1289161254770184 1.4
vertex 2.452835356292508 -1.638932187407828 0
vertex 2.725444620908296 -1.1289161254770155 0
endloop
endfacet
facet normal 0.9569403357322089 -0.2902846772544625 0
outer loop
vertex 2.8933165771895295 -0.5755164499475796 1.4
vertex 2.725444620908295 -1.1289161254770184 1.4
vertex 2.725444620908296 -1.1289161254770155 0
endloop
endfacet
facet normal 0.9569403357322089 -0.2902846772544625 0
outer loop
vertex 2.8933165771895295 -0.5755164499475796 1.4
vertex 2.725444620908296 -1.1289161254770155 0
vertex 2.89331657718953 -0.5755164499475777 0
endloop
endfacet
endsolid csg.js
