%TF.GenerationSoftware,KiCad,Pcbnew,8.0.7*%
%TF.CreationDate,2025-02-03T22:04:45-07:00*%
%TF.ProjectId,chuck,63687563-6b2e-46b6-9963-61645f706362,v1.2*%
%TF.SameCoordinates,Original*%
%TF.FileFunction,Legend,Top*%
%TF.FilePolarity,Positive*%
%FSLAX46Y46*%
G04 Gerber Fmt 4.6, Leading zero omitted, Abs format (unit mm)*
G04 Created by KiCad (PCBNEW 8.0.7) date 2025-02-03 22:04:45*
%MOMM*%
%LPD*%
G01*
G04 APERTURE LIST*
%ADD10C,0.153000*%
%ADD11C,0.120000*%
%ADD12C,0.000000*%
G04 APERTURE END LIST*
D10*
X150009742Y-148080509D02*
X150247837Y-148747176D01*
X150247837Y-148747176D02*
X150485932Y-148080509D01*
X151390694Y-148747176D02*
X150819266Y-148747176D01*
X151104980Y-148747176D02*
X151104980Y-147747176D01*
X151104980Y-147747176D02*
X151009742Y-147890033D01*
X151009742Y-147890033D02*
X150914504Y-147985271D01*
X150914504Y-147985271D02*
X150819266Y-148032890D01*
X151819266Y-148651937D02*
X151866885Y-148699557D01*
X151866885Y-148699557D02*
X151819266Y-148747176D01*
X151819266Y-148747176D02*
X151771647Y-148699557D01*
X151771647Y-148699557D02*
X151819266Y-148651937D01*
X151819266Y-148651937D02*
X151819266Y-148747176D01*
X152247837Y-147842414D02*
X152295456Y-147794795D01*
X152295456Y-147794795D02*
X152390694Y-147747176D01*
X152390694Y-147747176D02*
X152628789Y-147747176D01*
X152628789Y-147747176D02*
X152724027Y-147794795D01*
X152724027Y-147794795D02*
X152771646Y-147842414D01*
X152771646Y-147842414D02*
X152819265Y-147937652D01*
X152819265Y-147937652D02*
X152819265Y-148032890D01*
X152819265Y-148032890D02*
X152771646Y-148175747D01*
X152771646Y-148175747D02*
X152200218Y-148747176D01*
X152200218Y-148747176D02*
X152819265Y-148747176D01*
X137128792Y-151597181D02*
X137128792Y-150597181D01*
X137557363Y-151597181D02*
X137557363Y-151073371D01*
X137557363Y-151073371D02*
X137509744Y-150978133D01*
X137509744Y-150978133D02*
X137414506Y-150930514D01*
X137414506Y-150930514D02*
X137271649Y-150930514D01*
X137271649Y-150930514D02*
X137176411Y-150978133D01*
X137176411Y-150978133D02*
X137128792Y-151025752D01*
X137890697Y-150930514D02*
X138271649Y-150930514D01*
X138033554Y-150597181D02*
X138033554Y-151454323D01*
X138033554Y-151454323D02*
X138081173Y-151549562D01*
X138081173Y-151549562D02*
X138176411Y-151597181D01*
X138176411Y-151597181D02*
X138271649Y-151597181D01*
X138462126Y-150930514D02*
X138843078Y-150930514D01*
X138604983Y-150597181D02*
X138604983Y-151454323D01*
X138604983Y-151454323D02*
X138652602Y-151549562D01*
X138652602Y-151549562D02*
X138747840Y-151597181D01*
X138747840Y-151597181D02*
X138843078Y-151597181D01*
X139176412Y-150930514D02*
X139176412Y-151930514D01*
X139176412Y-150978133D02*
X139271650Y-150930514D01*
X139271650Y-150930514D02*
X139462126Y-150930514D01*
X139462126Y-150930514D02*
X139557364Y-150978133D01*
X139557364Y-150978133D02*
X139604983Y-151025752D01*
X139604983Y-151025752D02*
X139652602Y-151120990D01*
X139652602Y-151120990D02*
X139652602Y-151406704D01*
X139652602Y-151406704D02*
X139604983Y-151501942D01*
X139604983Y-151501942D02*
X139557364Y-151549562D01*
X139557364Y-151549562D02*
X139462126Y-151597181D01*
X139462126Y-151597181D02*
X139271650Y-151597181D01*
X139271650Y-151597181D02*
X139176412Y-151549562D01*
X140033555Y-151549562D02*
X140128793Y-151597181D01*
X140128793Y-151597181D02*
X140319269Y-151597181D01*
X140319269Y-151597181D02*
X140414507Y-151549562D01*
X140414507Y-151549562D02*
X140462126Y-151454323D01*
X140462126Y-151454323D02*
X140462126Y-151406704D01*
X140462126Y-151406704D02*
X140414507Y-151311466D01*
X140414507Y-151311466D02*
X140319269Y-151263847D01*
X140319269Y-151263847D02*
X140176412Y-151263847D01*
X140176412Y-151263847D02*
X140081174Y-151216228D01*
X140081174Y-151216228D02*
X140033555Y-151120990D01*
X140033555Y-151120990D02*
X140033555Y-151073371D01*
X140033555Y-151073371D02*
X140081174Y-150978133D01*
X140081174Y-150978133D02*
X140176412Y-150930514D01*
X140176412Y-150930514D02*
X140319269Y-150930514D01*
X140319269Y-150930514D02*
X140414507Y-150978133D01*
X140890698Y-151501942D02*
X140938317Y-151549562D01*
X140938317Y-151549562D02*
X140890698Y-151597181D01*
X140890698Y-151597181D02*
X140843079Y-151549562D01*
X140843079Y-151549562D02*
X140890698Y-151501942D01*
X140890698Y-151501942D02*
X140890698Y-151597181D01*
X140890698Y-150978133D02*
X140938317Y-151025752D01*
X140938317Y-151025752D02*
X140890698Y-151073371D01*
X140890698Y-151073371D02*
X140843079Y-151025752D01*
X140843079Y-151025752D02*
X140890698Y-150978133D01*
X140890698Y-150978133D02*
X140890698Y-151073371D01*
X142081173Y-150549562D02*
X141224031Y-151835276D01*
X143128792Y-150549562D02*
X142271650Y-151835276D01*
X143890697Y-150930514D02*
X143890697Y-151740038D01*
X143890697Y-151740038D02*
X143843078Y-151835276D01*
X143843078Y-151835276D02*
X143795459Y-151882895D01*
X143795459Y-151882895D02*
X143700221Y-151930514D01*
X143700221Y-151930514D02*
X143557364Y-151930514D01*
X143557364Y-151930514D02*
X143462126Y-151882895D01*
X143890697Y-151549562D02*
X143795459Y-151597181D01*
X143795459Y-151597181D02*
X143604983Y-151597181D01*
X143604983Y-151597181D02*
X143509745Y-151549562D01*
X143509745Y-151549562D02*
X143462126Y-151501942D01*
X143462126Y-151501942D02*
X143414507Y-151406704D01*
X143414507Y-151406704D02*
X143414507Y-151120990D01*
X143414507Y-151120990D02*
X143462126Y-151025752D01*
X143462126Y-151025752D02*
X143509745Y-150978133D01*
X143509745Y-150978133D02*
X143604983Y-150930514D01*
X143604983Y-150930514D02*
X143795459Y-150930514D01*
X143795459Y-150930514D02*
X143890697Y-150978133D01*
X144366888Y-151597181D02*
X144366888Y-150930514D01*
X144366888Y-150597181D02*
X144319269Y-150644800D01*
X144319269Y-150644800D02*
X144366888Y-150692419D01*
X144366888Y-150692419D02*
X144414507Y-150644800D01*
X144414507Y-150644800D02*
X144366888Y-150597181D01*
X144366888Y-150597181D02*
X144366888Y-150692419D01*
X144700221Y-150930514D02*
X145081173Y-150930514D01*
X144843078Y-150597181D02*
X144843078Y-151454323D01*
X144843078Y-151454323D02*
X144890697Y-151549562D01*
X144890697Y-151549562D02*
X144985935Y-151597181D01*
X144985935Y-151597181D02*
X145081173Y-151597181D01*
X145414507Y-151597181D02*
X145414507Y-150597181D01*
X145843078Y-151597181D02*
X145843078Y-151073371D01*
X145843078Y-151073371D02*
X145795459Y-150978133D01*
X145795459Y-150978133D02*
X145700221Y-150930514D01*
X145700221Y-150930514D02*
X145557364Y-150930514D01*
X145557364Y-150930514D02*
X145462126Y-150978133D01*
X145462126Y-150978133D02*
X145414507Y-151025752D01*
X146747840Y-150930514D02*
X146747840Y-151597181D01*
X146319269Y-150930514D02*
X146319269Y-151454323D01*
X146319269Y-151454323D02*
X146366888Y-151549562D01*
X146366888Y-151549562D02*
X146462126Y-151597181D01*
X146462126Y-151597181D02*
X146604983Y-151597181D01*
X146604983Y-151597181D02*
X146700221Y-151549562D01*
X146700221Y-151549562D02*
X146747840Y-151501942D01*
X147224031Y-151597181D02*
X147224031Y-150597181D01*
X147224031Y-150978133D02*
X147319269Y-150930514D01*
X147319269Y-150930514D02*
X147509745Y-150930514D01*
X147509745Y-150930514D02*
X147604983Y-150978133D01*
X147604983Y-150978133D02*
X147652602Y-151025752D01*
X147652602Y-151025752D02*
X147700221Y-151120990D01*
X147700221Y-151120990D02*
X147700221Y-151406704D01*
X147700221Y-151406704D02*
X147652602Y-151501942D01*
X147652602Y-151501942D02*
X147604983Y-151549562D01*
X147604983Y-151549562D02*
X147509745Y-151597181D01*
X147509745Y-151597181D02*
X147319269Y-151597181D01*
X147319269Y-151597181D02*
X147224031Y-151549562D01*
X148128793Y-151501942D02*
X148176412Y-151549562D01*
X148176412Y-151549562D02*
X148128793Y-151597181D01*
X148128793Y-151597181D02*
X148081174Y-151549562D01*
X148081174Y-151549562D02*
X148128793Y-151501942D01*
X148128793Y-151501942D02*
X148128793Y-151597181D01*
X149033554Y-151549562D02*
X148938316Y-151597181D01*
X148938316Y-151597181D02*
X148747840Y-151597181D01*
X148747840Y-151597181D02*
X148652602Y-151549562D01*
X148652602Y-151549562D02*
X148604983Y-151501942D01*
X148604983Y-151501942D02*
X148557364Y-151406704D01*
X148557364Y-151406704D02*
X148557364Y-151120990D01*
X148557364Y-151120990D02*
X148604983Y-151025752D01*
X148604983Y-151025752D02*
X148652602Y-150978133D01*
X148652602Y-150978133D02*
X148747840Y-150930514D01*
X148747840Y-150930514D02*
X148938316Y-150930514D01*
X148938316Y-150930514D02*
X149033554Y-150978133D01*
X149604983Y-151597181D02*
X149509745Y-151549562D01*
X149509745Y-151549562D02*
X149462126Y-151501942D01*
X149462126Y-151501942D02*
X149414507Y-151406704D01*
X149414507Y-151406704D02*
X149414507Y-151120990D01*
X149414507Y-151120990D02*
X149462126Y-151025752D01*
X149462126Y-151025752D02*
X149509745Y-150978133D01*
X149509745Y-150978133D02*
X149604983Y-150930514D01*
X149604983Y-150930514D02*
X149747840Y-150930514D01*
X149747840Y-150930514D02*
X149843078Y-150978133D01*
X149843078Y-150978133D02*
X149890697Y-151025752D01*
X149890697Y-151025752D02*
X149938316Y-151120990D01*
X149938316Y-151120990D02*
X149938316Y-151406704D01*
X149938316Y-151406704D02*
X149890697Y-151501942D01*
X149890697Y-151501942D02*
X149843078Y-151549562D01*
X149843078Y-151549562D02*
X149747840Y-151597181D01*
X149747840Y-151597181D02*
X149604983Y-151597181D01*
X150366888Y-151597181D02*
X150366888Y-150930514D01*
X150366888Y-151025752D02*
X150414507Y-150978133D01*
X150414507Y-150978133D02*
X150509745Y-150930514D01*
X150509745Y-150930514D02*
X150652602Y-150930514D01*
X150652602Y-150930514D02*
X150747840Y-150978133D01*
X150747840Y-150978133D02*
X150795459Y-151073371D01*
X150795459Y-151073371D02*
X150795459Y-151597181D01*
X150795459Y-151073371D02*
X150843078Y-150978133D01*
X150843078Y-150978133D02*
X150938316Y-150930514D01*
X150938316Y-150930514D02*
X151081173Y-150930514D01*
X151081173Y-150930514D02*
X151176412Y-150978133D01*
X151176412Y-150978133D02*
X151224031Y-151073371D01*
X151224031Y-151073371D02*
X151224031Y-151597181D01*
X152414506Y-150549562D02*
X151557364Y-151835276D01*
X153176411Y-151549562D02*
X153081173Y-151597181D01*
X153081173Y-151597181D02*
X152890697Y-151597181D01*
X152890697Y-151597181D02*
X152795459Y-151549562D01*
X152795459Y-151549562D02*
X152747840Y-151501942D01*
X152747840Y-151501942D02*
X152700221Y-151406704D01*
X152700221Y-151406704D02*
X152700221Y-151120990D01*
X152700221Y-151120990D02*
X152747840Y-151025752D01*
X152747840Y-151025752D02*
X152795459Y-150978133D01*
X152795459Y-150978133D02*
X152890697Y-150930514D01*
X152890697Y-150930514D02*
X153081173Y-150930514D01*
X153081173Y-150930514D02*
X153176411Y-150978133D01*
X153462126Y-150930514D02*
X153843078Y-150930514D01*
X153604983Y-150597181D02*
X153604983Y-151454323D01*
X153604983Y-151454323D02*
X153652602Y-151549562D01*
X153652602Y-151549562D02*
X153747840Y-151597181D01*
X153747840Y-151597181D02*
X153843078Y-151597181D01*
X154176412Y-151597181D02*
X154176412Y-150930514D01*
X154176412Y-151120990D02*
X154224031Y-151025752D01*
X154224031Y-151025752D02*
X154271650Y-150978133D01*
X154271650Y-150978133D02*
X154366888Y-150930514D01*
X154366888Y-150930514D02*
X154462126Y-150930514D01*
X155224031Y-151597181D02*
X155224031Y-151073371D01*
X155224031Y-151073371D02*
X155176412Y-150978133D01*
X155176412Y-150978133D02*
X155081174Y-150930514D01*
X155081174Y-150930514D02*
X154890698Y-150930514D01*
X154890698Y-150930514D02*
X154795460Y-150978133D01*
X155224031Y-151549562D02*
X155128793Y-151597181D01*
X155128793Y-151597181D02*
X154890698Y-151597181D01*
X154890698Y-151597181D02*
X154795460Y-151549562D01*
X154795460Y-151549562D02*
X154747841Y-151454323D01*
X154747841Y-151454323D02*
X154747841Y-151359085D01*
X154747841Y-151359085D02*
X154795460Y-151263847D01*
X154795460Y-151263847D02*
X154890698Y-151216228D01*
X154890698Y-151216228D02*
X155128793Y-151216228D01*
X155128793Y-151216228D02*
X155224031Y-151168609D01*
X155700222Y-150930514D02*
X155700222Y-151597181D01*
X155700222Y-151025752D02*
X155747841Y-150978133D01*
X155747841Y-150978133D02*
X155843079Y-150930514D01*
X155843079Y-150930514D02*
X155985936Y-150930514D01*
X155985936Y-150930514D02*
X156081174Y-150978133D01*
X156081174Y-150978133D02*
X156128793Y-151073371D01*
X156128793Y-151073371D02*
X156128793Y-151597181D01*
X156557365Y-151549562D02*
X156652603Y-151597181D01*
X156652603Y-151597181D02*
X156843079Y-151597181D01*
X156843079Y-151597181D02*
X156938317Y-151549562D01*
X156938317Y-151549562D02*
X156985936Y-151454323D01*
X156985936Y-151454323D02*
X156985936Y-151406704D01*
X156985936Y-151406704D02*
X156938317Y-151311466D01*
X156938317Y-151311466D02*
X156843079Y-151263847D01*
X156843079Y-151263847D02*
X156700222Y-151263847D01*
X156700222Y-151263847D02*
X156604984Y-151216228D01*
X156604984Y-151216228D02*
X156557365Y-151120990D01*
X156557365Y-151120990D02*
X156557365Y-151073371D01*
X156557365Y-151073371D02*
X156604984Y-150978133D01*
X156604984Y-150978133D02*
X156700222Y-150930514D01*
X156700222Y-150930514D02*
X156843079Y-150930514D01*
X156843079Y-150930514D02*
X156938317Y-150978133D01*
X157271651Y-150930514D02*
X157652603Y-150930514D01*
X157414508Y-150597181D02*
X157414508Y-151454323D01*
X157414508Y-151454323D02*
X157462127Y-151549562D01*
X157462127Y-151549562D02*
X157557365Y-151597181D01*
X157557365Y-151597181D02*
X157652603Y-151597181D01*
X157985937Y-151597181D02*
X157985937Y-150930514D01*
X157985937Y-151120990D02*
X158033556Y-151025752D01*
X158033556Y-151025752D02*
X158081175Y-150978133D01*
X158081175Y-150978133D02*
X158176413Y-150930514D01*
X158176413Y-150930514D02*
X158271651Y-150930514D01*
X159033556Y-150930514D02*
X159033556Y-151597181D01*
X158604985Y-150930514D02*
X158604985Y-151454323D01*
X158604985Y-151454323D02*
X158652604Y-151549562D01*
X158652604Y-151549562D02*
X158747842Y-151597181D01*
X158747842Y-151597181D02*
X158890699Y-151597181D01*
X158890699Y-151597181D02*
X158985937Y-151549562D01*
X158985937Y-151549562D02*
X159033556Y-151501942D01*
X159509747Y-151597181D02*
X159509747Y-150930514D01*
X159509747Y-151025752D02*
X159557366Y-150978133D01*
X159557366Y-150978133D02*
X159652604Y-150930514D01*
X159652604Y-150930514D02*
X159795461Y-150930514D01*
X159795461Y-150930514D02*
X159890699Y-150978133D01*
X159890699Y-150978133D02*
X159938318Y-151073371D01*
X159938318Y-151073371D02*
X159938318Y-151597181D01*
X159938318Y-151073371D02*
X159985937Y-150978133D01*
X159985937Y-150978133D02*
X160081175Y-150930514D01*
X160081175Y-150930514D02*
X160224032Y-150930514D01*
X160224032Y-150930514D02*
X160319271Y-150978133D01*
X160319271Y-150978133D02*
X160366890Y-151073371D01*
X160366890Y-151073371D02*
X160366890Y-151597181D01*
X161557365Y-150549562D02*
X160700223Y-151835276D01*
X162319270Y-151549562D02*
X162224032Y-151597181D01*
X162224032Y-151597181D02*
X162033556Y-151597181D01*
X162033556Y-151597181D02*
X161938318Y-151549562D01*
X161938318Y-151549562D02*
X161890699Y-151501942D01*
X161890699Y-151501942D02*
X161843080Y-151406704D01*
X161843080Y-151406704D02*
X161843080Y-151120990D01*
X161843080Y-151120990D02*
X161890699Y-151025752D01*
X161890699Y-151025752D02*
X161938318Y-150978133D01*
X161938318Y-150978133D02*
X162033556Y-150930514D01*
X162033556Y-150930514D02*
X162224032Y-150930514D01*
X162224032Y-150930514D02*
X162319270Y-150978133D01*
X162747842Y-151597181D02*
X162747842Y-150597181D01*
X163176413Y-151597181D02*
X163176413Y-151073371D01*
X163176413Y-151073371D02*
X163128794Y-150978133D01*
X163128794Y-150978133D02*
X163033556Y-150930514D01*
X163033556Y-150930514D02*
X162890699Y-150930514D01*
X162890699Y-150930514D02*
X162795461Y-150978133D01*
X162795461Y-150978133D02*
X162747842Y-151025752D01*
X164081175Y-150930514D02*
X164081175Y-151597181D01*
X163652604Y-150930514D02*
X163652604Y-151454323D01*
X163652604Y-151454323D02*
X163700223Y-151549562D01*
X163700223Y-151549562D02*
X163795461Y-151597181D01*
X163795461Y-151597181D02*
X163938318Y-151597181D01*
X163938318Y-151597181D02*
X164033556Y-151549562D01*
X164033556Y-151549562D02*
X164081175Y-151501942D01*
X164985937Y-151549562D02*
X164890699Y-151597181D01*
X164890699Y-151597181D02*
X164700223Y-151597181D01*
X164700223Y-151597181D02*
X164604985Y-151549562D01*
X164604985Y-151549562D02*
X164557366Y-151501942D01*
X164557366Y-151501942D02*
X164509747Y-151406704D01*
X164509747Y-151406704D02*
X164509747Y-151120990D01*
X164509747Y-151120990D02*
X164557366Y-151025752D01*
X164557366Y-151025752D02*
X164604985Y-150978133D01*
X164604985Y-150978133D02*
X164700223Y-150930514D01*
X164700223Y-150930514D02*
X164890699Y-150930514D01*
X164890699Y-150930514D02*
X164985937Y-150978133D01*
X165414509Y-151597181D02*
X165414509Y-150597181D01*
X165509747Y-151216228D02*
X165795461Y-151597181D01*
X165795461Y-150930514D02*
X165414509Y-151311466D01*
X214612781Y-114724368D02*
X214143825Y-114807058D01*
X214143825Y-114807058D02*
X213970177Y-113822250D01*
X214941051Y-114666486D02*
X214825285Y-114009947D01*
X214767403Y-113681678D02*
X214728776Y-113736843D01*
X214728776Y-113736843D02*
X214783941Y-113775469D01*
X214783941Y-113775469D02*
X214822567Y-113720305D01*
X214822567Y-113720305D02*
X214767403Y-113681678D01*
X214767403Y-113681678D02*
X214783941Y-113775469D01*
X215823798Y-114462480D02*
X215738276Y-114525913D01*
X215738276Y-114525913D02*
X215550693Y-114558989D01*
X215550693Y-114558989D02*
X215448633Y-114528632D01*
X215448633Y-114528632D02*
X215393469Y-114490005D01*
X215393469Y-114490005D02*
X215330035Y-114404483D01*
X215330035Y-114404483D02*
X215280421Y-114123109D01*
X215280421Y-114123109D02*
X215310779Y-114021049D01*
X215310779Y-114021049D02*
X215349406Y-113965884D01*
X215349406Y-113965884D02*
X215434928Y-113902451D01*
X215434928Y-113902451D02*
X215622510Y-113869375D01*
X215622510Y-113869375D02*
X215724570Y-113899733D01*
X216621023Y-114321908D02*
X216535501Y-114385341D01*
X216535501Y-114385341D02*
X216347919Y-114418417D01*
X216347919Y-114418417D02*
X216245859Y-114388059D01*
X216245859Y-114388059D02*
X216182425Y-114302537D01*
X216182425Y-114302537D02*
X216116273Y-113927372D01*
X216116273Y-113927372D02*
X216146631Y-113825312D01*
X216146631Y-113825312D02*
X216232153Y-113761878D01*
X216232153Y-113761878D02*
X216419736Y-113728803D01*
X216419736Y-113728803D02*
X216521796Y-113759160D01*
X216521796Y-113759160D02*
X216585229Y-113844683D01*
X216585229Y-113844683D02*
X216601767Y-113938474D01*
X216601767Y-113938474D02*
X216149349Y-114114955D01*
X216982483Y-113629575D02*
X217098249Y-114286114D01*
X216999021Y-113723366D02*
X217037648Y-113668202D01*
X217037648Y-113668202D02*
X217123170Y-113604768D01*
X217123170Y-113604768D02*
X217263857Y-113579961D01*
X217263857Y-113579961D02*
X217365917Y-113610319D01*
X217365917Y-113610319D02*
X217429351Y-113695841D01*
X217429351Y-113695841D02*
X217520309Y-114211693D01*
X217934101Y-114090377D02*
X218036161Y-114120734D01*
X218036161Y-114120734D02*
X218223743Y-114087658D01*
X218223743Y-114087658D02*
X218309266Y-114024225D01*
X218309266Y-114024225D02*
X218339623Y-113922165D01*
X218339623Y-113922165D02*
X218331354Y-113875269D01*
X218331354Y-113875269D02*
X218267921Y-113789747D01*
X218267921Y-113789747D02*
X218165861Y-113759389D01*
X218165861Y-113759389D02*
X218025174Y-113784196D01*
X218025174Y-113784196D02*
X217923114Y-113753838D01*
X217923114Y-113753838D02*
X217859680Y-113668316D01*
X217859680Y-113668316D02*
X217851411Y-113621421D01*
X217851411Y-113621421D02*
X217881769Y-113519360D01*
X217881769Y-113519360D02*
X217967291Y-113455927D01*
X217967291Y-113455927D02*
X218107978Y-113431120D01*
X218107978Y-113431120D02*
X218210038Y-113461478D01*
X219153387Y-113875384D02*
X219067864Y-113938817D01*
X219067864Y-113938817D02*
X218880282Y-113971893D01*
X218880282Y-113971893D02*
X218778222Y-113941535D01*
X218778222Y-113941535D02*
X218714788Y-113856013D01*
X218714788Y-113856013D02*
X218648637Y-113480848D01*
X218648637Y-113480848D02*
X218678994Y-113378788D01*
X218678994Y-113378788D02*
X218764517Y-113315354D01*
X218764517Y-113315354D02*
X218952099Y-113282279D01*
X218952099Y-113282279D02*
X219054159Y-113312636D01*
X219054159Y-113312636D02*
X219117593Y-113398159D01*
X219117593Y-113398159D02*
X219134131Y-113491950D01*
X219134131Y-113491950D02*
X218681712Y-113668431D01*
X220052672Y-113765169D02*
X219879024Y-112780361D01*
X220044403Y-113718273D02*
X219958881Y-113781707D01*
X219958881Y-113781707D02*
X219771299Y-113814783D01*
X219771299Y-113814783D02*
X219669238Y-113784425D01*
X219669238Y-113784425D02*
X219614074Y-113745798D01*
X219614074Y-113745798D02*
X219550640Y-113660276D01*
X219550640Y-113660276D02*
X219501027Y-113378902D01*
X219501027Y-113378902D02*
X219531384Y-113276842D01*
X219531384Y-113276842D02*
X219570011Y-113221678D01*
X219570011Y-113221678D02*
X219655533Y-113158244D01*
X219655533Y-113158244D02*
X219843116Y-113125168D01*
X219843116Y-113125168D02*
X219945176Y-113155526D01*
X221578253Y-112819217D02*
X221694019Y-113475755D01*
X221156193Y-112893637D02*
X221247152Y-113409489D01*
X221247152Y-113409489D02*
X221310585Y-113495011D01*
X221310585Y-113495011D02*
X221412645Y-113525369D01*
X221412645Y-113525369D02*
X221553332Y-113500562D01*
X221553332Y-113500562D02*
X221638854Y-113437129D01*
X221638854Y-113437129D02*
X221677481Y-113381964D01*
X222047210Y-112736527D02*
X222162975Y-113393066D01*
X222063748Y-112830318D02*
X222102374Y-112775154D01*
X222102374Y-112775154D02*
X222187896Y-112711720D01*
X222187896Y-112711720D02*
X222328583Y-112686913D01*
X222328583Y-112686913D02*
X222430643Y-112717271D01*
X222430643Y-112717271D02*
X222494077Y-112802793D01*
X222494077Y-112802793D02*
X222585036Y-113318645D01*
X223476052Y-113161535D02*
X223302404Y-112176727D01*
X223467783Y-113114639D02*
X223382261Y-113178073D01*
X223382261Y-113178073D02*
X223194679Y-113211148D01*
X223194679Y-113211148D02*
X223092618Y-113180791D01*
X223092618Y-113180791D02*
X223037454Y-113142164D01*
X223037454Y-113142164D02*
X222974020Y-113056642D01*
X222974020Y-113056642D02*
X222924406Y-112775268D01*
X222924406Y-112775268D02*
X222954764Y-112673208D01*
X222954764Y-112673208D02*
X222993391Y-112618044D01*
X222993391Y-112618044D02*
X223078913Y-112554610D01*
X223078913Y-112554610D02*
X223266495Y-112521534D01*
X223266495Y-112521534D02*
X223368556Y-112551892D01*
X224311904Y-112965798D02*
X224226382Y-113029231D01*
X224226382Y-113029231D02*
X224038800Y-113062307D01*
X224038800Y-113062307D02*
X223936739Y-113031949D01*
X223936739Y-113031949D02*
X223873306Y-112946427D01*
X223873306Y-112946427D02*
X223807154Y-112571262D01*
X223807154Y-112571262D02*
X223837512Y-112469202D01*
X223837512Y-112469202D02*
X223923034Y-112405769D01*
X223923034Y-112405769D02*
X224110617Y-112372693D01*
X224110617Y-112372693D02*
X224212677Y-112403051D01*
X224212677Y-112403051D02*
X224276110Y-112488573D01*
X224276110Y-112488573D02*
X224292648Y-112582364D01*
X224292648Y-112582364D02*
X223840230Y-112758845D01*
X224789129Y-112930004D02*
X224673364Y-112273465D01*
X224706440Y-112461048D02*
X224736797Y-112358988D01*
X224736797Y-112358988D02*
X224775424Y-112303823D01*
X224775424Y-112303823D02*
X224860946Y-112240389D01*
X224860946Y-112240389D02*
X224954738Y-112223851D01*
X226695312Y-112497185D02*
X226656685Y-112552350D01*
X226656685Y-112552350D02*
X226524267Y-112624052D01*
X226524267Y-112624052D02*
X226430476Y-112640590D01*
X226430476Y-112640590D02*
X226281520Y-112618501D01*
X226281520Y-112618501D02*
X226171191Y-112541248D01*
X226171191Y-112541248D02*
X226107758Y-112455726D01*
X226107758Y-112455726D02*
X226027786Y-112276412D01*
X226027786Y-112276412D02*
X226002979Y-112135725D01*
X226002979Y-112135725D02*
X226016799Y-111939874D01*
X226016799Y-111939874D02*
X226047157Y-111837814D01*
X226047157Y-111837814D02*
X226124410Y-111727485D01*
X226124410Y-111727485D02*
X226256828Y-111655782D01*
X226256828Y-111655782D02*
X226350619Y-111639244D01*
X226350619Y-111639244D02*
X226499575Y-111661333D01*
X226499575Y-111661333D02*
X226554740Y-111699960D01*
X227042952Y-112000704D02*
X227371221Y-111942821D01*
X227602866Y-112433866D02*
X227133910Y-112516556D01*
X227133910Y-112516556D02*
X226960262Y-111531748D01*
X226960262Y-111531748D02*
X227429218Y-111449058D01*
X228587674Y-112260218D02*
X228176715Y-111849144D01*
X228024927Y-112359445D02*
X227851279Y-111374638D01*
X227851279Y-111374638D02*
X228226444Y-111308486D01*
X228226444Y-111308486D02*
X228328504Y-111338844D01*
X228328504Y-111338844D02*
X228383668Y-111377470D01*
X228383668Y-111377470D02*
X228447102Y-111462992D01*
X228447102Y-111462992D02*
X228471909Y-111603679D01*
X228471909Y-111603679D02*
X228441551Y-111705739D01*
X228441551Y-111705739D02*
X228402924Y-111760904D01*
X228402924Y-111760904D02*
X228317402Y-111824338D01*
X228317402Y-111824338D02*
X227942237Y-111890489D01*
X229009735Y-112185797D02*
X228836087Y-111200989D01*
X228836087Y-111200989D02*
X229572482Y-112086570D01*
X229572482Y-112086570D02*
X229398834Y-111101762D01*
X229975286Y-111628715D02*
X230725616Y-111496412D01*
X231274658Y-110771003D02*
X231462240Y-110737928D01*
X231462240Y-110737928D02*
X231564300Y-110768285D01*
X231564300Y-110768285D02*
X231674630Y-110845539D01*
X231674630Y-110845539D02*
X231754601Y-111024852D01*
X231754601Y-111024852D02*
X231812484Y-111353121D01*
X231812484Y-111353121D02*
X231798664Y-111548973D01*
X231798664Y-111548973D02*
X231721411Y-111659302D01*
X231721411Y-111659302D02*
X231635888Y-111722735D01*
X231635888Y-111722735D02*
X231448306Y-111755811D01*
X231448306Y-111755811D02*
X231346246Y-111725454D01*
X231346246Y-111725454D02*
X231235917Y-111648200D01*
X231235917Y-111648200D02*
X231155945Y-111468887D01*
X231155945Y-111468887D02*
X231098063Y-111140618D01*
X231098063Y-111140618D02*
X231111882Y-110944766D01*
X231111882Y-110944766D02*
X231189136Y-110834437D01*
X231189136Y-110834437D02*
X231274658Y-110771003D01*
X232292427Y-111606970D02*
X232118779Y-110622162D01*
X232201468Y-111091118D02*
X232764216Y-110991891D01*
X232855174Y-111507742D02*
X232681526Y-110522935D01*
X233793086Y-111342363D02*
X233324130Y-111425053D01*
X233324130Y-111425053D02*
X233150482Y-110440245D01*
X234055204Y-110909316D02*
X234805534Y-110777012D01*
X235340641Y-111069488D02*
X235166993Y-110084680D01*
X235166993Y-110084680D02*
X235542158Y-110018528D01*
X235542158Y-110018528D02*
X235644218Y-110048886D01*
X235644218Y-110048886D02*
X235699383Y-110087512D01*
X235699383Y-110087512D02*
X235762816Y-110173035D01*
X235762816Y-110173035D02*
X235787623Y-110313721D01*
X235787623Y-110313721D02*
X235757265Y-110415782D01*
X235757265Y-110415782D02*
X235718639Y-110470946D01*
X235718639Y-110470946D02*
X235633117Y-110534380D01*
X235633117Y-110534380D02*
X235257952Y-110600531D01*
X236866222Y-110123535D02*
X237216466Y-110738729D01*
X237216466Y-110738729D02*
X237335178Y-110040846D01*
X237622103Y-109748485D02*
X237660730Y-109693320D01*
X237660730Y-109693320D02*
X237746252Y-109629887D01*
X237746252Y-109629887D02*
X237980730Y-109588542D01*
X237980730Y-109588542D02*
X238082790Y-109618900D01*
X238082790Y-109618900D02*
X238137955Y-109657526D01*
X238137955Y-109657526D02*
X238201388Y-109743049D01*
X238201388Y-109743049D02*
X238217926Y-109836840D01*
X238217926Y-109836840D02*
X238195838Y-109985796D01*
X238195838Y-109985796D02*
X237732318Y-110647770D01*
X237732318Y-110647770D02*
X238341961Y-110540274D01*
D11*
%TO.C,MCU1*%
X121548318Y-40436508D02*
X121548319Y-40966508D01*
X121548319Y-33381508D02*
X121548326Y-31481506D01*
X121548319Y-35356508D02*
X121548319Y-35886508D01*
X121548319Y-42976508D02*
X121548322Y-43506511D01*
X121548319Y-45516508D02*
X121548320Y-46046508D01*
X121548319Y-48056508D02*
X121548319Y-48586508D01*
X121548321Y-52481508D02*
X121548319Y-50581508D01*
X121548326Y-31481506D02*
X139328317Y-31481508D01*
X121548327Y-37896508D02*
X121548319Y-38426508D01*
X139328311Y-40446507D02*
X139328319Y-40976508D01*
X139328312Y-52481510D02*
X121548321Y-52481508D01*
X139328316Y-35371509D02*
X139328319Y-35901508D01*
X139328319Y-31491508D02*
X139328319Y-33331506D01*
X139328319Y-37906508D02*
X139328319Y-38436508D01*
X139328319Y-42976508D02*
X139328317Y-43506508D01*
X139328319Y-45526508D02*
X139328319Y-46056508D01*
X139328319Y-48066508D02*
X139328319Y-48596508D01*
X139328319Y-50591508D02*
X139328312Y-52481510D01*
D12*
%TO.C,G\u002A\u002A\u002A*%
G36*
X151782736Y-103717542D02*
G01*
X151995840Y-103812796D01*
X152247355Y-104015623D01*
X152425203Y-104273721D01*
X152526421Y-104568263D01*
X152548049Y-104880421D01*
X152487125Y-105191369D01*
X152340687Y-105482280D01*
X152272475Y-105571408D01*
X152057904Y-105753778D01*
X151785403Y-105880285D01*
X151485970Y-105943567D01*
X151190601Y-105936263D01*
X150984153Y-105877345D01*
X150698129Y-105703172D01*
X150484818Y-105473060D01*
X150345274Y-105203585D01*
X150280552Y-104911320D01*
X150291705Y-104612839D01*
X150379786Y-104324717D01*
X150545851Y-104063528D01*
X150790951Y-103845845D01*
X150852535Y-103807226D01*
X151146014Y-103691200D01*
X151465715Y-103661352D01*
X151782736Y-103717542D01*
G37*
G36*
X146117176Y-106397529D02*
G01*
X146463530Y-106541266D01*
X146770145Y-106768787D01*
X147004112Y-107048494D01*
X147171801Y-107388223D01*
X147248577Y-107748144D01*
X147239221Y-108111950D01*
X147148516Y-108463337D01*
X146981245Y-108785998D01*
X146742190Y-109063629D01*
X146436133Y-109279925D01*
X146335248Y-109328972D01*
X146135680Y-109393619D01*
X145890896Y-109439844D01*
X145637897Y-109463868D01*
X145413684Y-109461915D01*
X145274274Y-109437308D01*
X144900777Y-109263165D01*
X144580755Y-109011358D01*
X144330043Y-108695922D01*
X144234035Y-108515220D01*
X144152819Y-108243023D01*
X144123142Y-107927750D01*
X144144776Y-107610325D01*
X144217493Y-107331673D01*
X144240946Y-107278347D01*
X144437867Y-106951126D01*
X144681416Y-106701518D01*
X144989958Y-106509264D01*
X145365361Y-106377505D01*
X145746110Y-106341601D01*
X146117176Y-106397529D01*
G37*
G36*
X151669117Y-98024888D02*
G01*
X152118686Y-98041954D01*
X152538404Y-98071866D01*
X152898338Y-98113757D01*
X153020380Y-98133953D01*
X153851791Y-98331187D01*
X154636045Y-98604746D01*
X155364550Y-98950333D01*
X156028711Y-99363655D01*
X156619936Y-99840415D01*
X156819412Y-100032977D01*
X157021223Y-100244197D01*
X157202142Y-100450007D01*
X157371705Y-100664552D01*
X157539448Y-100901979D01*
X157714908Y-101176434D01*
X157907621Y-101502064D01*
X158127123Y-101893016D01*
X158353278Y-102308365D01*
X158652868Y-102839973D01*
X158940979Y-103295376D01*
X159235245Y-103696564D01*
X159553306Y-104065525D01*
X159912796Y-104424249D01*
X160331353Y-104794725D01*
X160381129Y-104836611D01*
X160791924Y-105185404D01*
X161193995Y-105535403D01*
X161576710Y-105876781D01*
X161929438Y-106199711D01*
X162241548Y-106494366D01*
X162502406Y-106750918D01*
X162701383Y-106959539D01*
X162795080Y-107067974D01*
X163143947Y-107567228D01*
X163390743Y-108074186D01*
X163535472Y-108588172D01*
X163578139Y-109108507D01*
X163518748Y-109634517D01*
X163357303Y-110165522D01*
X163093809Y-110700848D01*
X162767792Y-111187933D01*
X162287099Y-111743967D01*
X161718671Y-112254375D01*
X161067999Y-112715938D01*
X160340575Y-113125439D01*
X159541890Y-113479663D01*
X158677435Y-113775391D01*
X158076694Y-113936207D01*
X157864958Y-113989309D01*
X157691791Y-114036990D01*
X157580780Y-114072531D01*
X157553870Y-114085188D01*
X157548332Y-114146657D01*
X157566497Y-114280368D01*
X157604507Y-114459921D01*
X157614646Y-114500969D01*
X157684864Y-114792221D01*
X157767620Y-115157712D01*
X157857345Y-115570872D01*
X157948469Y-116005134D01*
X158035425Y-116433929D01*
X158112644Y-116830688D01*
X158174556Y-117168845D01*
X158178061Y-117188992D01*
X158285238Y-117891357D01*
X158364581Y-118592169D01*
X158415311Y-119273926D01*
X158436649Y-119919121D01*
X158427815Y-120510252D01*
X158388030Y-121029815D01*
X158358574Y-121243345D01*
X158197839Y-121968468D01*
X157961310Y-122626416D01*
X157648222Y-123217911D01*
X157257809Y-123743677D01*
X156789306Y-124204434D01*
X156241947Y-124600907D01*
X155614966Y-124933817D01*
X154907599Y-125203887D01*
X154119079Y-125411839D01*
X153894593Y-125456972D01*
X153346590Y-125541438D01*
X152727610Y-125604344D01*
X152066994Y-125644771D01*
X151394083Y-125661801D01*
X150738219Y-125654516D01*
X150128743Y-125621996D01*
X149765749Y-125586215D01*
X148886686Y-125447720D01*
X148092704Y-125254500D01*
X147381434Y-125005140D01*
X146750504Y-124698226D01*
X146197545Y-124332341D01*
X145720186Y-123906069D01*
X145316056Y-123417996D01*
X144982786Y-122866707D01*
X144889782Y-122674669D01*
X144714637Y-122243934D01*
X144581793Y-121801477D01*
X144487747Y-121327638D01*
X144428992Y-120802755D01*
X144402025Y-120207168D01*
X144401906Y-120194574D01*
X145019381Y-120194574D01*
X145060579Y-120830262D01*
X145148461Y-121409914D01*
X145282973Y-121937893D01*
X145464065Y-122418565D01*
X145691685Y-122856293D01*
X145931458Y-123210785D01*
X146288488Y-123600930D01*
X146734890Y-123949979D01*
X147265236Y-124255601D01*
X147874098Y-124515470D01*
X148556050Y-124727254D01*
X149305665Y-124888627D01*
X150087984Y-124994360D01*
X150393983Y-125015153D01*
X150776425Y-125026362D01*
X151209837Y-125028555D01*
X151668746Y-125022301D01*
X152127681Y-125008168D01*
X152561168Y-124986724D01*
X152943736Y-124958538D01*
X153249911Y-124924179D01*
X153253098Y-124923720D01*
X153988484Y-124794499D01*
X154637008Y-124629935D01*
X155209514Y-124425403D01*
X155716846Y-124176273D01*
X156169847Y-123877918D01*
X156579362Y-123525711D01*
X156617905Y-123487782D01*
X156955650Y-123101126D01*
X157236818Y-122667418D01*
X157461864Y-122182393D01*
X157631243Y-121641785D01*
X157745410Y-121041327D01*
X157804821Y-120376755D01*
X157809929Y-119643802D01*
X157761191Y-118838202D01*
X157659061Y-117955689D01*
X157503994Y-116991998D01*
X157379884Y-116344032D01*
X157283732Y-115891187D01*
X157164129Y-115364434D01*
X157027126Y-114787941D01*
X156878777Y-114185877D01*
X156725132Y-113582413D01*
X156572245Y-113001718D01*
X156426165Y-112467961D01*
X156296369Y-112016815D01*
X156090945Y-111325484D01*
X156770366Y-111325484D01*
X156774513Y-111370416D01*
X156802204Y-111488719D01*
X156847592Y-111655651D01*
X156852039Y-111671149D01*
X156911705Y-111879774D01*
X156967899Y-112078727D01*
X157004027Y-112208851D01*
X157044047Y-112331003D01*
X157078684Y-112397065D01*
X157085489Y-112400887D01*
X157146605Y-112388962D01*
X157277051Y-112357882D01*
X157428160Y-112319618D01*
X157638961Y-112256611D01*
X157888446Y-112170004D01*
X158119242Y-112079907D01*
X158496696Y-111921466D01*
X158260195Y-111801272D01*
X158153681Y-111756437D01*
X157979588Y-111693002D01*
X157760552Y-111618196D01*
X157519204Y-111539246D01*
X157278179Y-111463381D01*
X157060110Y-111397830D01*
X156887630Y-111349819D01*
X156783373Y-111326578D01*
X156770366Y-111325484D01*
X156090945Y-111325484D01*
X156052904Y-111197460D01*
X155446513Y-111110802D01*
X154803309Y-111032640D01*
X154081189Y-110968975D01*
X153302707Y-110920422D01*
X152490423Y-110887599D01*
X151666892Y-110871120D01*
X150854672Y-110871601D01*
X150076319Y-110889658D01*
X149354391Y-110925908D01*
X149166210Y-110939342D01*
X148754824Y-110972932D01*
X148350018Y-111009804D01*
X147965080Y-111048402D01*
X147613303Y-111087169D01*
X147307975Y-111124552D01*
X147062388Y-111158993D01*
X146889832Y-111188938D01*
X146803596Y-111212830D01*
X146798100Y-111216525D01*
X146768209Y-111280751D01*
X146715950Y-111431415D01*
X146645000Y-111655905D01*
X146559034Y-111941606D01*
X146461730Y-112275905D01*
X146356764Y-112646187D01*
X146247813Y-113039840D01*
X146138552Y-113444250D01*
X146042430Y-113809153D01*
X145755408Y-114959291D01*
X145515429Y-116022844D01*
X145322442Y-117004176D01*
X145176395Y-117907651D01*
X145077237Y-118737632D01*
X145024916Y-119498485D01*
X145019381Y-120194574D01*
X144401906Y-120194574D01*
X144399330Y-119923062D01*
X144408362Y-119415024D01*
X144437216Y-118898245D01*
X144487739Y-118359695D01*
X144561779Y-117786343D01*
X144661187Y-117165161D01*
X144787809Y-116483117D01*
X144943496Y-115727183D01*
X145087596Y-115072105D01*
X145173327Y-114677590D01*
X145231115Y-114380097D01*
X145260892Y-114180044D01*
X145262589Y-114077848D01*
X145253966Y-114063828D01*
X145181702Y-114044422D01*
X145035489Y-114007528D01*
X144840967Y-113959573D01*
X144736573Y-113934175D01*
X144218192Y-113793247D01*
X143678071Y-113618858D01*
X143142590Y-113421161D01*
X142638131Y-113210311D01*
X142191078Y-112996461D01*
X141936788Y-112856552D01*
X141625420Y-112652396D01*
X141279987Y-112391497D01*
X140929596Y-112097727D01*
X140603353Y-111794960D01*
X140442870Y-111631246D01*
X140010322Y-111114939D01*
X139899433Y-110941411D01*
X140642348Y-110941411D01*
X140948331Y-111251873D01*
X141461454Y-111719284D01*
X142029666Y-112133261D01*
X142661840Y-112498472D01*
X143366849Y-112819585D01*
X144153565Y-113101269D01*
X144838992Y-113299073D01*
X145099127Y-113365488D01*
X145278382Y-113403766D01*
X145394395Y-113413772D01*
X145464804Y-113395370D01*
X145507245Y-113348423D01*
X145531590Y-113293723D01*
X145569262Y-113172522D01*
X145581532Y-113098313D01*
X145535522Y-113055770D01*
X145410967Y-112995178D01*
X145228083Y-112925624D01*
X145113531Y-112887956D01*
X144642516Y-112722398D01*
X144257139Y-112547879D01*
X143961074Y-112366876D01*
X143757994Y-112181869D01*
X143651571Y-111995334D01*
X143636447Y-111896694D01*
X144326895Y-111896694D01*
X144531734Y-112004221D01*
X144669761Y-112066899D01*
X144863776Y-112142818D01*
X145086203Y-112222614D01*
X145309465Y-112296923D01*
X145505983Y-112356379D01*
X145648181Y-112391619D01*
X145688931Y-112397178D01*
X145735885Y-112370461D01*
X145788152Y-112278286D01*
X145850957Y-112108877D01*
X145925860Y-111863185D01*
X145985213Y-111646859D01*
X146027330Y-111472118D01*
X146047824Y-111358769D01*
X146044984Y-111325484D01*
X145956151Y-111341002D01*
X145793988Y-111382730D01*
X145581964Y-111443425D01*
X145343551Y-111515847D01*
X145102221Y-111592754D01*
X144881445Y-111666904D01*
X144704695Y-111731057D01*
X144626288Y-111763180D01*
X144326895Y-111896694D01*
X143636447Y-111896694D01*
X143635564Y-111890937D01*
X143685886Y-111710865D01*
X143833298Y-111532818D01*
X144072470Y-111358703D01*
X144398075Y-111190425D01*
X144804782Y-111029892D01*
X145287263Y-110879010D01*
X145840188Y-110739684D01*
X146458228Y-110613820D01*
X147136055Y-110503326D01*
X147732339Y-110425573D01*
X148474879Y-110338923D01*
X148479029Y-109897627D01*
X148532137Y-109386699D01*
X148675265Y-108908039D01*
X148898906Y-108469733D01*
X149193554Y-108079868D01*
X149549706Y-107746530D01*
X149957855Y-107477805D01*
X150408496Y-107281782D01*
X150892124Y-107166545D01*
X151399234Y-107140182D01*
X151688624Y-107167063D01*
X152203006Y-107291317D01*
X152674081Y-107502293D01*
X153093658Y-107790500D01*
X153453543Y-108146449D01*
X153745545Y-108560650D01*
X153961471Y-109023611D01*
X154093128Y-109525844D01*
X154132791Y-109998397D01*
X154133548Y-110335624D01*
X154786472Y-110398602D01*
X155399200Y-110468455D01*
X156006801Y-110558036D01*
X156594372Y-110663990D01*
X157147010Y-110782959D01*
X157649812Y-110911588D01*
X158087875Y-111046519D01*
X158446296Y-111184397D01*
X158598038Y-111257080D01*
X158897721Y-111442264D01*
X159095360Y-111628642D01*
X159191314Y-111815510D01*
X159185942Y-112002163D01*
X159079603Y-112187898D01*
X158872655Y-112372009D01*
X158565456Y-112553793D01*
X158158366Y-112732544D01*
X157778274Y-112867278D01*
X157249412Y-113039781D01*
X157279940Y-113192423D01*
X157310831Y-113310753D01*
X157358570Y-113381668D01*
X157441807Y-113409314D01*
X157579193Y-113397832D01*
X157789377Y-113351367D01*
X157885830Y-113327034D01*
X158723423Y-113084342D01*
X159493613Y-112799905D01*
X160099476Y-112526183D01*
X160408651Y-112373110D01*
X160635490Y-112255932D01*
X160790443Y-112167179D01*
X160883959Y-112099383D01*
X160926489Y-112045074D01*
X160928482Y-111996783D01*
X160903624Y-111951425D01*
X160849327Y-111862511D01*
X160767934Y-111713190D01*
X160676797Y-111535329D01*
X160674311Y-111530323D01*
X160600932Y-111375943D01*
X160553240Y-111247844D01*
X160525734Y-111116178D01*
X160512913Y-110951093D01*
X160509276Y-110722740D01*
X160509153Y-110634153D01*
X160510897Y-110381391D01*
X160520195Y-110199682D01*
X160543150Y-110057669D01*
X160585865Y-109923998D01*
X160654441Y-109767311D01*
X160694177Y-109683423D01*
X160947593Y-109263363D01*
X161268257Y-108919761D01*
X161651885Y-108655775D01*
X162094194Y-108474562D01*
X162437387Y-108398507D01*
X162829330Y-108338493D01*
X162772131Y-108206081D01*
X162616636Y-107910431D01*
X162394155Y-107593411D01*
X162097406Y-107245775D01*
X161719105Y-106858275D01*
X161683340Y-106823575D01*
X161043228Y-106204835D01*
X160668212Y-106584751D01*
X160176374Y-107019448D01*
X159654596Y-107356497D01*
X159100703Y-107596831D01*
X158512519Y-107741387D01*
X157887869Y-107791099D01*
X157861746Y-107791127D01*
X157222304Y-107745622D01*
X156630217Y-107610093D01*
X156080073Y-107382297D01*
X155566460Y-107059991D01*
X155083965Y-106640931D01*
X155081879Y-106638847D01*
X154670376Y-106170239D01*
X154353959Y-105678600D01*
X154128971Y-105154415D01*
X153991758Y-104588167D01*
X153938665Y-103970343D01*
X153941361Y-103669637D01*
X153983096Y-103169416D01*
X154076870Y-102726228D01*
X154233127Y-102303512D01*
X154451944Y-101882462D01*
X154634772Y-101613333D01*
X154874782Y-101324872D01*
X155148678Y-101040233D01*
X155433165Y-100782572D01*
X155704950Y-100575042D01*
X155866274Y-100476663D01*
X156190072Y-100305060D01*
X156075261Y-100182850D01*
X155944776Y-100066204D01*
X155749342Y-99918342D01*
X155514305Y-99756381D01*
X155265015Y-99597436D01*
X155026818Y-99458624D01*
X154916810Y-99400610D01*
X154292348Y-99127430D01*
X153625326Y-98909695D01*
X153513353Y-98880082D01*
X153259086Y-98816596D01*
X153087773Y-98783878D01*
X152983012Y-98787827D01*
X152928404Y-98834339D01*
X152907549Y-98929311D01*
X152904047Y-99078639D01*
X152904016Y-99099173D01*
X152856605Y-99460336D01*
X152724740Y-99784009D01*
X152522205Y-100061667D01*
X152262783Y-100284787D01*
X151960258Y-100444846D01*
X151628414Y-100533320D01*
X151281033Y-100541686D01*
X150931901Y-100461420D01*
X150795619Y-100402967D01*
X150463078Y-100188734D01*
X150211355Y-99915621D01*
X150045171Y-99590890D01*
X149969246Y-99221803D01*
X149964945Y-99125167D01*
X149959472Y-98941325D01*
X149944807Y-98837422D01*
X149913567Y-98790995D01*
X149858365Y-98779582D01*
X149851304Y-98779502D01*
X149701861Y-98796715D01*
X149481504Y-98844364D01*
X149214606Y-98915330D01*
X148925537Y-99002491D01*
X148638669Y-99098726D01*
X148378373Y-99196916D01*
X148277719Y-99239263D01*
X148035636Y-99351321D01*
X147796686Y-99472183D01*
X147578432Y-99591752D01*
X147398435Y-99699929D01*
X147274257Y-99786617D01*
X147223460Y-99841717D01*
X147223124Y-99845661D01*
X147267392Y-99882473D01*
X147382037Y-99948836D01*
X147544261Y-100031774D01*
X147582311Y-100050117D01*
X147979025Y-100294497D01*
X148258729Y-100540225D01*
X148598747Y-100947973D01*
X148850835Y-101395322D01*
X149014972Y-101870361D01*
X149091136Y-102361181D01*
X149079307Y-102855870D01*
X148979465Y-103342519D01*
X148791588Y-103809217D01*
X148515657Y-104244054D01*
X148265663Y-104527530D01*
X147850900Y-104873625D01*
X147399458Y-105130248D01*
X146922488Y-105297246D01*
X146431143Y-105374466D01*
X145936575Y-105361753D01*
X145449937Y-105258954D01*
X144982382Y-105065915D01*
X144545061Y-104782483D01*
X144315159Y-104581937D01*
X143980375Y-104258492D01*
X143667143Y-104578618D01*
X143521488Y-104720372D01*
X143317760Y-104908915D01*
X143076659Y-105125578D01*
X142818884Y-105351691D01*
X142636976Y-105507828D01*
X142342694Y-105757164D01*
X142118222Y-105947794D01*
X141956478Y-106088661D01*
X141850375Y-106188712D01*
X141792831Y-106256892D01*
X141776762Y-106302147D01*
X141795082Y-106333423D01*
X141840708Y-106359664D01*
X141906555Y-106389816D01*
X141929544Y-106401140D01*
X142335016Y-106661943D01*
X142671814Y-106988470D01*
X142935473Y-107367744D01*
X143121529Y-107786791D01*
X143225517Y-108232633D01*
X143242971Y-108692294D01*
X143169429Y-109152799D01*
X143018087Y-109564956D01*
X142775725Y-109963130D01*
X142459087Y-110312444D01*
X142087105Y-110595449D01*
X141687410Y-110791534D01*
X141521330Y-110837074D01*
X141299034Y-110878344D01*
X141066640Y-110906891D01*
X141050751Y-110908230D01*
X140642348Y-110941411D01*
X139899433Y-110941411D01*
X139675513Y-110591003D01*
X139439079Y-110062338D01*
X139301657Y-109531846D01*
X139263883Y-109002429D01*
X139326392Y-108476986D01*
X139489820Y-107958419D01*
X139589990Y-107740825D01*
X139701206Y-107538938D01*
X139833905Y-107335946D01*
X139995426Y-107124203D01*
X140193107Y-106896063D01*
X140434288Y-106643879D01*
X140726306Y-106360007D01*
X141076501Y-106036799D01*
X141492211Y-105666611D01*
X141980774Y-105241796D01*
X142025702Y-105203090D01*
X142319502Y-104947704D01*
X142603658Y-104696213D01*
X142863801Y-104461676D01*
X143085565Y-104257150D01*
X143254581Y-104095692D01*
X143339697Y-104008977D01*
X143625130Y-103666791D01*
X143926174Y-103239056D01*
X144246055Y-102720908D01*
X144532794Y-102210161D01*
X144744840Y-101820975D01*
X144920061Y-101506806D01*
X145068450Y-101251581D01*
X145200003Y-101039228D01*
X145324714Y-100853674D01*
X145452579Y-100678845D01*
X145593592Y-100498668D01*
X145608937Y-100479569D01*
X146133003Y-99909603D01*
X146729239Y-99410488D01*
X147394276Y-98983913D01*
X148124747Y-98631563D01*
X148917283Y-98355126D01*
X149768515Y-98156290D01*
X150440629Y-98059406D01*
X150800155Y-98032749D01*
X151219629Y-98021531D01*
X151669117Y-98024888D01*
G37*
%TD*%
M02*
