%TF.GenerationSoftware,KiCad,Pcbnew,8.0.7*%
%TF.CreationDate,2024-12-24T09:40:09-07:00*%
%TF.ProjectId,chuck,63687563-6b2e-46b6-9963-61645f706362,v1.0*%
%TF.SameCoordinates,Original*%
%TF.FileFunction,Soldermask,Top*%
%TF.FilePolarity,Negative*%
%FSLAX46Y46*%
G04 Gerber Fmt 4.6, Leading zero omitted, Abs format (unit mm)*
G04 Created by KiCad (PCBNEW 8.0.7) date 2024-12-24 09:40:09*
%MOMM*%
%LPD*%
G01*
G04 APERTURE LIST*
G04 Aperture macros list*
%AMFreePoly0*
4,1,15,0.975355,0.935355,1.335355,0.575355,1.350000,0.540000,1.350000,-0.900000,1.335355,-0.935355,1.300000,-0.950000,-1.300000,-0.950000,-1.335355,-0.935355,-1.350000,-0.900000,-1.350000,0.540000,-1.335355,0.575355,-0.975355,0.935355,-0.940000,0.950000,0.940000,0.950000,0.975355,0.935355,0.975355,0.935355,$1*%
%AMFreePoly1*
4,1,15,1.335355,0.935355,1.350000,0.900000,1.350000,-0.540000,1.335355,-0.575355,0.975355,-0.935355,0.940000,-0.950000,-0.940000,-0.950000,-0.975355,-0.935355,-1.335355,-0.575355,-1.350000,-0.540000,-1.350000,0.900000,-1.335355,0.935355,-1.300000,0.950000,1.300000,0.950000,1.335355,0.935355,1.335355,0.935355,$1*%
G04 Aperture macros list end*
%ADD10C,0.500000*%
%ADD11C,0.010000*%
%ADD12C,1.100000*%
%ADD13C,0.800000*%
%ADD14C,4.500000*%
%ADD15FreePoly0,270.000000*%
%ADD16FreePoly1,270.000000*%
%ADD17O,1.700000X1.200000*%
%ADD18C,0.850000*%
%ADD19C,5.700000*%
%ADD20C,3.600000*%
G04 APERTURE END LIST*
D10*
X69237059Y-107096841D02*
X69799806Y-107196068D01*
X69799806Y-107196068D02*
X70056373Y-107386369D01*
X70056373Y-107386369D02*
X70288133Y-107717356D01*
X70288133Y-107717356D02*
X70329592Y-108304910D01*
X70329592Y-108304910D02*
X70155944Y-109289718D01*
X70155944Y-109289718D02*
X69916030Y-109827659D01*
X69916030Y-109827659D02*
X69585042Y-110059418D01*
X69585042Y-110059418D02*
X69278862Y-110150491D01*
X69278862Y-110150491D02*
X68716114Y-110051264D01*
X68716114Y-110051264D02*
X68459548Y-109860963D01*
X68459548Y-109860963D02*
X68227788Y-109529976D01*
X68227788Y-109529976D02*
X68186329Y-108942422D01*
X68186329Y-108942422D02*
X68359977Y-107957614D01*
X68359977Y-107957614D02*
X68599891Y-107419674D01*
X68599891Y-107419674D02*
X68930878Y-107187914D01*
X68930878Y-107187914D02*
X69237059Y-107096841D01*
X71595773Y-108528172D02*
X71248477Y-110497788D01*
X71546160Y-108809546D02*
X71711653Y-108693666D01*
X71711653Y-108693666D02*
X72017834Y-108602593D01*
X72017834Y-108602593D02*
X72439894Y-108677014D01*
X72439894Y-108677014D02*
X72696461Y-108867314D01*
X72696461Y-108867314D02*
X72787534Y-109173495D01*
X72787534Y-109173495D02*
X72514658Y-110721050D01*
X75071828Y-111026887D02*
X74765648Y-111117960D01*
X74765648Y-111117960D02*
X74202901Y-111018732D01*
X74202901Y-111018732D02*
X73946334Y-110828432D01*
X73946334Y-110828432D02*
X73855261Y-110522251D01*
X73855261Y-110522251D02*
X74053716Y-109396757D01*
X74053716Y-109396757D02*
X74244016Y-109140190D01*
X74244016Y-109140190D02*
X74550197Y-109049117D01*
X74550197Y-109049117D02*
X75112944Y-109148344D01*
X75112944Y-109148344D02*
X75369511Y-109338645D01*
X75369511Y-109338645D02*
X75460584Y-109644826D01*
X75460584Y-109644826D02*
X75410970Y-109926199D01*
X75410970Y-109926199D02*
X73954488Y-109959504D01*
X79225824Y-108858129D02*
X78804107Y-111249805D01*
X78804107Y-111249805D02*
X78895180Y-111555986D01*
X78895180Y-111555986D02*
X79011060Y-111721480D01*
X79011060Y-111721480D02*
X79267626Y-111911780D01*
X79267626Y-111911780D02*
X79830374Y-112011008D01*
X79830374Y-112011008D02*
X80136554Y-111919935D01*
X80136554Y-111919935D02*
X80302048Y-111804055D01*
X80302048Y-111804055D02*
X80492348Y-111547488D01*
X80492348Y-111547488D02*
X80914065Y-109155812D01*
X82147285Y-110388689D02*
X81626341Y-113343112D01*
X82122478Y-110529375D02*
X82428659Y-110438302D01*
X82428659Y-110438302D02*
X82991406Y-110537530D01*
X82991406Y-110537530D02*
X83247973Y-110727830D01*
X83247973Y-110727830D02*
X83363853Y-110893324D01*
X83363853Y-110893324D02*
X83454926Y-111199505D01*
X83454926Y-111199505D02*
X83306085Y-112043626D01*
X83306085Y-112043626D02*
X83115784Y-112300192D01*
X83115784Y-112300192D02*
X82950290Y-112416072D01*
X82950290Y-112416072D02*
X82644110Y-112507145D01*
X82644110Y-112507145D02*
X82081363Y-112407918D01*
X82081363Y-112407918D02*
X81824796Y-112217617D01*
X88461883Y-113242854D02*
X88296390Y-113358734D01*
X88296390Y-113358734D02*
X87849522Y-113425000D01*
X87849522Y-113425000D02*
X87568149Y-113375386D01*
X87568149Y-113375386D02*
X87170895Y-113160279D01*
X87170895Y-113160279D02*
X86939135Y-112829291D01*
X86939135Y-112829291D02*
X86848062Y-112523111D01*
X86848062Y-112523111D02*
X86806603Y-111935557D01*
X86806603Y-111935557D02*
X86881024Y-111513496D01*
X86881024Y-111513496D02*
X87120938Y-110975556D01*
X87120938Y-110975556D02*
X87311238Y-110718989D01*
X87311238Y-110718989D02*
X87642226Y-110487229D01*
X87642226Y-110487229D02*
X88089093Y-110420963D01*
X88089093Y-110420963D02*
X88370467Y-110470577D01*
X88370467Y-110470577D02*
X88767720Y-110685684D01*
X88767720Y-110685684D02*
X88883600Y-110851178D01*
X89678451Y-113747489D02*
X90199396Y-110793066D01*
X90944632Y-113970751D02*
X91217508Y-112423196D01*
X91217508Y-112423196D02*
X91126435Y-112117016D01*
X91126435Y-112117016D02*
X90869868Y-111926715D01*
X90869868Y-111926715D02*
X90447808Y-111852295D01*
X90447808Y-111852295D02*
X90141627Y-111943368D01*
X90141627Y-111943368D02*
X89976134Y-112059248D01*
X93964979Y-112472467D02*
X93617682Y-114442082D01*
X92698797Y-112249205D02*
X92425922Y-113796760D01*
X92425922Y-113796760D02*
X92516995Y-114102940D01*
X92516995Y-114102940D02*
X92773561Y-114293241D01*
X92773561Y-114293241D02*
X93195622Y-114367662D01*
X93195622Y-114367662D02*
X93501802Y-114276589D01*
X93501802Y-114276589D02*
X93667296Y-114160709D01*
X96315539Y-114772726D02*
X96009359Y-114863799D01*
X96009359Y-114863799D02*
X95446611Y-114764572D01*
X95446611Y-114764572D02*
X95190045Y-114574271D01*
X95190045Y-114574271D02*
X95074165Y-114408777D01*
X95074165Y-114408777D02*
X94983092Y-114102597D01*
X94983092Y-114102597D02*
X95131933Y-113258476D01*
X95131933Y-113258476D02*
X95322233Y-113001909D01*
X95322233Y-113001909D02*
X95487727Y-112886029D01*
X95487727Y-112886029D02*
X95793908Y-112794956D01*
X95793908Y-112794956D02*
X96356655Y-112894184D01*
X96356655Y-112894184D02*
X96613222Y-113084484D01*
X97556914Y-115136675D02*
X98077859Y-112182252D01*
X98036743Y-114060794D02*
X98682409Y-115335130D01*
X99029705Y-113365515D02*
X97705755Y-114292554D01*
D11*
%TO.C,REF\u002A\u002A*%
X229111242Y-106923897D02*
X229171293Y-106946885D01*
X229193524Y-106969516D01*
X229194038Y-107000901D01*
X229170896Y-107054427D01*
X229150168Y-107093102D01*
X229105919Y-107164215D01*
X229069094Y-107197345D01*
X229033522Y-107201878D01*
X228924185Y-107193700D01*
X228847548Y-107208460D01*
X228790462Y-107249643D01*
X228772627Y-107270999D01*
X228716524Y-107344974D01*
X228859636Y-108156597D01*
X228589876Y-108204163D01*
X228382315Y-107027028D01*
X228517195Y-107003245D01*
X228598740Y-106992168D01*
X228642525Y-106996172D01*
X228658551Y-107016220D01*
X228658673Y-107016877D01*
X228668491Y-107039102D01*
X228693828Y-107031512D01*
X228726719Y-107008426D01*
X228795257Y-106964179D01*
X228852067Y-106934808D01*
X228928575Y-106916358D01*
X229022347Y-106912999D01*
X229111242Y-106923897D01*
G36*
X229111242Y-106923897D02*
G01*
X229171293Y-106946885D01*
X229193524Y-106969516D01*
X229194038Y-107000901D01*
X229170896Y-107054427D01*
X229150168Y-107093102D01*
X229105919Y-107164215D01*
X229069094Y-107197345D01*
X229033522Y-107201878D01*
X228924185Y-107193700D01*
X228847548Y-107208460D01*
X228790462Y-107249643D01*
X228772627Y-107270999D01*
X228716524Y-107344974D01*
X228859636Y-108156597D01*
X228589876Y-108204163D01*
X228382315Y-107027028D01*
X228517195Y-107003245D01*
X228598740Y-106992168D01*
X228642525Y-106996172D01*
X228658551Y-107016220D01*
X228658673Y-107016877D01*
X228668491Y-107039102D01*
X228693828Y-107031512D01*
X228726719Y-107008426D01*
X228795257Y-106964179D01*
X228852067Y-106934808D01*
X228928575Y-106916358D01*
X229022347Y-106912999D01*
X229111242Y-106923897D01*
G37*
X229124095Y-108811456D02*
X229182620Y-108829511D01*
X229247141Y-108865275D01*
X229184697Y-108980862D01*
X229146001Y-109051016D01*
X229117654Y-109086911D01*
X229085038Y-109097382D01*
X229033536Y-109091262D01*
X229009111Y-109086969D01*
X228913351Y-109091167D01*
X228832293Y-109132656D01*
X228779877Y-109203343D01*
X228773006Y-109224144D01*
X228770749Y-109276437D01*
X228778513Y-109370707D01*
X228795540Y-109500308D01*
X228821079Y-109658596D01*
X228825006Y-109681059D01*
X228893990Y-110072284D01*
X228624227Y-110119849D01*
X228412342Y-108918194D01*
X228547224Y-108894409D01*
X228625355Y-108882726D01*
X228667464Y-108884618D01*
X228686054Y-108902438D01*
X228691067Y-108921452D01*
X228700029Y-108972279D01*
X228755684Y-108910061D01*
X228823661Y-108862319D01*
X228920171Y-108827622D01*
X229026541Y-108809494D01*
X229124095Y-108811456D01*
G36*
X229124095Y-108811456D02*
G01*
X229182620Y-108829511D01*
X229247141Y-108865275D01*
X229184697Y-108980862D01*
X229146001Y-109051016D01*
X229117654Y-109086911D01*
X229085038Y-109097382D01*
X229033536Y-109091262D01*
X229009111Y-109086969D01*
X228913351Y-109091167D01*
X228832293Y-109132656D01*
X228779877Y-109203343D01*
X228773006Y-109224144D01*
X228770749Y-109276437D01*
X228778513Y-109370707D01*
X228795540Y-109500308D01*
X228821079Y-109658596D01*
X228825006Y-109681059D01*
X228893990Y-110072284D01*
X228624227Y-110119849D01*
X228412342Y-108918194D01*
X228547224Y-108894409D01*
X228625355Y-108882726D01*
X228667464Y-108884618D01*
X228686054Y-108902438D01*
X228691067Y-108921452D01*
X228700029Y-108972279D01*
X228755684Y-108910061D01*
X228823661Y-108862319D01*
X228920171Y-108827622D01*
X229026541Y-108809494D01*
X229124095Y-108811456D01*
G37*
X224447978Y-109653817D02*
X224498522Y-109677489D01*
X224514361Y-109715451D01*
X224511773Y-109726945D01*
X224486979Y-109777132D01*
X224446019Y-109840703D01*
X224438425Y-109851150D01*
X224397362Y-109900276D01*
X224358066Y-109920737D01*
X224298260Y-109921838D01*
X224273875Y-109919862D01*
X224198752Y-109918035D01*
X224148902Y-109933603D01*
X224109914Y-109964385D01*
X224075943Y-110002457D01*
X224053781Y-110046716D01*
X224043214Y-110104888D01*
X224044030Y-110184711D01*
X224056006Y-110293917D01*
X224078929Y-110440235D01*
X224094183Y-110528330D01*
X224160927Y-110906851D01*
X223915690Y-110950092D01*
X223703805Y-109748434D01*
X223826424Y-109726813D01*
X223900473Y-109716443D01*
X223939112Y-109720972D01*
X223955204Y-109743054D01*
X223957628Y-109753878D01*
X223965109Y-109783895D01*
X223980572Y-109786088D01*
X224016393Y-109758288D01*
X224037344Y-109739916D01*
X224105985Y-109696380D01*
X224191732Y-109665719D01*
X224284220Y-109648215D01*
X224373090Y-109644154D01*
X224447978Y-109653817D01*
G36*
X224447978Y-109653817D02*
G01*
X224498522Y-109677489D01*
X224514361Y-109715451D01*
X224511773Y-109726945D01*
X224486979Y-109777132D01*
X224446019Y-109840703D01*
X224438425Y-109851150D01*
X224397362Y-109900276D01*
X224358066Y-109920737D01*
X224298260Y-109921838D01*
X224273875Y-109919862D01*
X224198752Y-109918035D01*
X224148902Y-109933603D01*
X224109914Y-109964385D01*
X224075943Y-110002457D01*
X224053781Y-110046716D01*
X224043214Y-110104888D01*
X224044030Y-110184711D01*
X224056006Y-110293917D01*
X224078929Y-110440235D01*
X224094183Y-110528330D01*
X224160927Y-110906851D01*
X223915690Y-110950092D01*
X223703805Y-109748434D01*
X223826424Y-109726813D01*
X223900473Y-109716443D01*
X223939112Y-109720972D01*
X223955204Y-109743054D01*
X223957628Y-109753878D01*
X223965109Y-109783895D01*
X223980572Y-109786088D01*
X224016393Y-109758288D01*
X224037344Y-109739916D01*
X224105985Y-109696380D01*
X224191732Y-109665719D01*
X224284220Y-109648215D01*
X224373090Y-109644154D01*
X224447978Y-109653817D01*
G37*
X228369163Y-108243080D02*
X228234283Y-108266863D01*
X228152389Y-108277907D01*
X228108479Y-108273717D01*
X228092908Y-108253813D01*
X228082414Y-108235491D01*
X228055105Y-108244574D01*
X228003469Y-108282226D01*
X227881468Y-108347778D01*
X227743548Y-108368978D01*
X227603727Y-108345810D01*
X227534577Y-108320226D01*
X227479764Y-108288989D01*
X227436080Y-108245516D01*
X227400311Y-108183217D01*
X227369249Y-108095515D01*
X227339684Y-107975820D01*
X227308406Y-107817551D01*
X227286326Y-107694789D01*
X227205180Y-107234589D01*
X227450416Y-107191348D01*
X227517725Y-107573075D01*
X227551757Y-107752526D01*
X227584314Y-107887646D01*
X227618667Y-107983687D01*
X227658083Y-108045895D01*
X227705829Y-108079519D01*
X227765175Y-108089808D01*
X227835173Y-108082767D01*
X227906517Y-108064247D01*
X227957766Y-108033505D01*
X227990200Y-107984494D01*
X228005092Y-107911161D01*
X228003722Y-107807458D01*
X227987363Y-107667334D01*
X227959151Y-107495240D01*
X227891842Y-107113511D01*
X228161602Y-107065946D01*
X228369163Y-108243080D01*
G36*
X228369163Y-108243080D02*
G01*
X228234283Y-108266863D01*
X228152389Y-108277907D01*
X228108479Y-108273717D01*
X228092908Y-108253813D01*
X228082414Y-108235491D01*
X228055105Y-108244574D01*
X228003469Y-108282226D01*
X227881468Y-108347778D01*
X227743548Y-108368978D01*
X227603727Y-108345810D01*
X227534577Y-108320226D01*
X227479764Y-108288989D01*
X227436080Y-108245516D01*
X227400311Y-108183217D01*
X227369249Y-108095515D01*
X227339684Y-107975820D01*
X227308406Y-107817551D01*
X227286326Y-107694789D01*
X227205180Y-107234589D01*
X227450416Y-107191348D01*
X227517725Y-107573075D01*
X227551757Y-107752526D01*
X227584314Y-107887646D01*
X227618667Y-107983687D01*
X227658083Y-108045895D01*
X227705829Y-108079519D01*
X227765175Y-108089808D01*
X227835173Y-108082767D01*
X227906517Y-108064247D01*
X227957766Y-108033505D01*
X227990200Y-107984494D01*
X228005092Y-107911161D01*
X228003722Y-107807458D01*
X227987363Y-107667334D01*
X227959151Y-107495240D01*
X227891842Y-107113511D01*
X228161602Y-107065946D01*
X228369163Y-108243080D01*
G37*
X224046067Y-107812514D02*
X224112242Y-107830905D01*
X224178778Y-107862592D01*
X224232356Y-107903117D01*
X224276057Y-107959150D01*
X224312960Y-108037356D01*
X224346147Y-108144408D01*
X224378691Y-108286972D01*
X224413679Y-108471717D01*
X224417135Y-108491101D01*
X224494428Y-108926301D01*
X224224667Y-108973867D01*
X224153908Y-108572570D01*
X224127501Y-108423934D01*
X224107173Y-108316415D01*
X224090362Y-108242083D01*
X224074507Y-108193005D01*
X224057044Y-108161252D01*
X224035414Y-108138891D01*
X224007095Y-108118022D01*
X223913987Y-108078868D01*
X223820958Y-108084960D01*
X223740019Y-108134366D01*
X223714255Y-108165059D01*
X223696261Y-108192818D01*
X223684826Y-108221164D01*
X223680329Y-108258305D01*
X223683148Y-108312450D01*
X223693660Y-108391803D01*
X223712245Y-108504575D01*
X223736220Y-108641623D01*
X223807765Y-109047379D01*
X223538005Y-109094944D01*
X223330444Y-107917809D01*
X223465325Y-107894026D01*
X223546870Y-107882949D01*
X223590655Y-107886953D01*
X223606680Y-107907001D01*
X223606802Y-107907658D01*
X223616253Y-107928393D01*
X223640609Y-107921555D01*
X223685690Y-107888992D01*
X223791289Y-107834156D01*
X223918478Y-107807702D01*
X224046067Y-107812514D01*
G36*
X224046067Y-107812514D02*
G01*
X224112242Y-107830905D01*
X224178778Y-107862592D01*
X224232356Y-107903117D01*
X224276057Y-107959150D01*
X224312960Y-108037356D01*
X224346147Y-108144408D01*
X224378691Y-108286972D01*
X224413679Y-108471717D01*
X224417135Y-108491101D01*
X224494428Y-108926301D01*
X224224667Y-108973867D01*
X224153908Y-108572570D01*
X224127501Y-108423934D01*
X224107173Y-108316415D01*
X224090362Y-108242083D01*
X224074507Y-108193005D01*
X224057044Y-108161252D01*
X224035414Y-108138891D01*
X224007095Y-108118022D01*
X223913987Y-108078868D01*
X223820958Y-108084960D01*
X223740019Y-108134366D01*
X223714255Y-108165059D01*
X223696261Y-108192818D01*
X223684826Y-108221164D01*
X223680329Y-108258305D01*
X223683148Y-108312450D01*
X223693660Y-108391803D01*
X223712245Y-108504575D01*
X223736220Y-108641623D01*
X223807765Y-109047379D01*
X223538005Y-109094944D01*
X223330444Y-107917809D01*
X223465325Y-107894026D01*
X223546870Y-107882949D01*
X223590655Y-107886953D01*
X223606680Y-107907001D01*
X223606802Y-107907658D01*
X223616253Y-107928393D01*
X223640609Y-107921555D01*
X223685690Y-107888992D01*
X223791289Y-107834156D01*
X223918478Y-107807702D01*
X224046067Y-107812514D01*
G37*
X229991858Y-106816048D02*
X230041792Y-106837541D01*
X230106952Y-106872610D01*
X230149117Y-106901784D01*
X230157389Y-106912250D01*
X230144312Y-106941015D01*
X230106943Y-106992502D01*
X230076235Y-107029253D01*
X229991506Y-107125990D01*
X229901990Y-107074145D01*
X229834287Y-107042423D01*
X229772976Y-107038162D01*
X229706385Y-107053585D01*
X229604321Y-107098945D01*
X229540558Y-107166986D01*
X229511607Y-107263913D01*
X229513984Y-107395927D01*
X229513994Y-107396009D01*
X229541060Y-107539258D01*
X229586877Y-107639784D01*
X229653867Y-107701914D01*
X229695199Y-107719666D01*
X229798927Y-107732558D01*
X229904025Y-107714044D01*
X229990288Y-107668580D01*
X230009404Y-107650428D01*
X230057230Y-107604238D01*
X230098609Y-107590753D01*
X230149185Y-107609938D01*
X230208417Y-107649968D01*
X230303083Y-107718483D01*
X230227082Y-107807462D01*
X230104277Y-107914415D01*
X229956531Y-107982503D01*
X229794099Y-108008101D01*
X229683000Y-107999816D01*
X229546931Y-107954883D01*
X229428990Y-107867242D01*
X229370744Y-107800970D01*
X229315390Y-107700908D01*
X229273303Y-107569237D01*
X229247383Y-107423063D01*
X229240530Y-107279489D01*
X229255640Y-107155620D01*
X229259159Y-107142573D01*
X229321905Y-107009633D01*
X229419901Y-106903616D01*
X229544520Y-106827889D01*
X229687139Y-106785809D01*
X229839127Y-106780742D01*
X229991858Y-106816048D01*
G36*
X229991858Y-106816048D02*
G01*
X230041792Y-106837541D01*
X230106952Y-106872610D01*
X230149117Y-106901784D01*
X230157389Y-106912250D01*
X230144312Y-106941015D01*
X230106943Y-106992502D01*
X230076235Y-107029253D01*
X229991506Y-107125990D01*
X229901990Y-107074145D01*
X229834287Y-107042423D01*
X229772976Y-107038162D01*
X229706385Y-107053585D01*
X229604321Y-107098945D01*
X229540558Y-107166986D01*
X229511607Y-107263913D01*
X229513984Y-107395927D01*
X229513994Y-107396009D01*
X229541060Y-107539258D01*
X229586877Y-107639784D01*
X229653867Y-107701914D01*
X229695199Y-107719666D01*
X229798927Y-107732558D01*
X229904025Y-107714044D01*
X229990288Y-107668580D01*
X230009404Y-107650428D01*
X230057230Y-107604238D01*
X230098609Y-107590753D01*
X230149185Y-107609938D01*
X230208417Y-107649968D01*
X230303083Y-107718483D01*
X230227082Y-107807462D01*
X230104277Y-107914415D01*
X229956531Y-107982503D01*
X229794099Y-108008101D01*
X229683000Y-107999816D01*
X229546931Y-107954883D01*
X229428990Y-107867242D01*
X229370744Y-107800970D01*
X229315390Y-107700908D01*
X229273303Y-107569237D01*
X229247383Y-107423063D01*
X229240530Y-107279489D01*
X229255640Y-107155620D01*
X229259159Y-107142573D01*
X229321905Y-107009633D01*
X229419901Y-106903616D01*
X229544520Y-106827889D01*
X229687139Y-106785809D01*
X229839127Y-106780742D01*
X229991858Y-106816048D01*
G37*
X226706779Y-107337433D02*
X226842732Y-107383114D01*
X226958584Y-107472644D01*
X227019603Y-107551314D01*
X227052741Y-107624455D01*
X227084717Y-107731421D01*
X227112351Y-107856263D01*
X227132462Y-107983043D01*
X227141871Y-108095817D01*
X227140455Y-108157185D01*
X227114719Y-108245334D01*
X227060572Y-108343691D01*
X226990296Y-108433743D01*
X226916164Y-108496981D01*
X226914283Y-108498109D01*
X226815400Y-108537466D01*
X226693862Y-108559438D01*
X226574866Y-108560463D01*
X226527499Y-108552821D01*
X226401058Y-108507905D01*
X226303673Y-108437019D01*
X226229649Y-108333493D01*
X226173283Y-108190655D01*
X226152755Y-108114249D01*
X226136432Y-108016572D01*
X226118091Y-107906818D01*
X226119407Y-107845684D01*
X226380666Y-107845684D01*
X226392224Y-107929231D01*
X226399305Y-107970219D01*
X226433253Y-108110963D01*
X226477863Y-108214912D01*
X226530588Y-108277054D01*
X226562940Y-108291781D01*
X226639314Y-108292560D01*
X226726480Y-108272972D01*
X226798958Y-108239692D01*
X226816955Y-108225240D01*
X226858295Y-108152261D01*
X226875800Y-108048643D01*
X226869648Y-107927382D01*
X226840009Y-107801478D01*
X226810389Y-107727783D01*
X226748465Y-107647309D01*
X226665614Y-107604787D01*
X226574222Y-107601151D01*
X226486672Y-107637328D01*
X226425372Y-107698863D01*
X226395755Y-107745939D01*
X226381347Y-107789733D01*
X226380666Y-107845684D01*
X226119407Y-107845684D01*
X226121875Y-107731040D01*
X226164111Y-107586907D01*
X226244799Y-107474412D01*
X226363943Y-107393549D01*
X226390538Y-107381919D01*
X226554716Y-107336676D01*
X226706779Y-107337433D01*
G36*
X226706779Y-107337433D02*
G01*
X226842732Y-107383114D01*
X226958584Y-107472644D01*
X227019603Y-107551314D01*
X227052741Y-107624455D01*
X227084717Y-107731421D01*
X227112351Y-107856263D01*
X227132462Y-107983043D01*
X227141871Y-108095817D01*
X227140455Y-108157185D01*
X227114719Y-108245334D01*
X227060572Y-108343691D01*
X226990296Y-108433743D01*
X226916164Y-108496981D01*
X226914283Y-108498109D01*
X226815400Y-108537466D01*
X226693862Y-108559438D01*
X226574866Y-108560463D01*
X226527499Y-108552821D01*
X226401058Y-108507905D01*
X226303673Y-108437019D01*
X226229649Y-108333493D01*
X226173283Y-108190655D01*
X226152755Y-108114249D01*
X226136432Y-108016572D01*
X226118091Y-107906818D01*
X226119407Y-107845684D01*
X226380666Y-107845684D01*
X226392224Y-107929231D01*
X226399305Y-107970219D01*
X226433253Y-108110963D01*
X226477863Y-108214912D01*
X226530588Y-108277054D01*
X226562940Y-108291781D01*
X226639314Y-108292560D01*
X226726480Y-108272972D01*
X226798958Y-108239692D01*
X226816955Y-108225240D01*
X226858295Y-108152261D01*
X226875800Y-108048643D01*
X226869648Y-107927382D01*
X226840009Y-107801478D01*
X226810389Y-107727783D01*
X226748465Y-107647309D01*
X226665614Y-107604787D01*
X226574222Y-107601151D01*
X226486672Y-107637328D01*
X226425372Y-107698863D01*
X226395755Y-107745939D01*
X226381347Y-107789733D01*
X226380666Y-107845684D01*
X226119407Y-107845684D01*
X226121875Y-107731040D01*
X226164111Y-107586907D01*
X226244799Y-107474412D01*
X226363943Y-107393549D01*
X226390538Y-107381919D01*
X226554716Y-107336676D01*
X226706779Y-107337433D01*
G37*
X227193762Y-109404886D02*
X227175572Y-109541792D01*
X227153554Y-109706944D01*
X227130529Y-109879230D01*
X227109942Y-110032853D01*
X227063002Y-110382493D01*
X226838191Y-110437389D01*
X226740634Y-110244675D01*
X226680306Y-110124909D01*
X226614227Y-109992804D01*
X226556246Y-109876062D01*
X226553950Y-109871414D01*
X226512147Y-109792755D01*
X226478210Y-109740041D01*
X226457673Y-109721463D01*
X226454672Y-109724559D01*
X226448483Y-109760063D01*
X226438148Y-109835598D01*
X226424872Y-109941687D01*
X226409868Y-110068844D01*
X226401940Y-110138729D01*
X226359359Y-110519208D01*
X226133625Y-110559011D01*
X225852631Y-110020655D01*
X225773735Y-109869652D01*
X225701944Y-109732546D01*
X225640642Y-109615775D01*
X225593214Y-109525779D01*
X225563042Y-109468995D01*
X225553998Y-109452445D01*
X225555525Y-109433597D01*
X225591073Y-109419191D01*
X225668084Y-109406427D01*
X225680223Y-109404902D01*
X225824089Y-109387214D01*
X225977991Y-109714082D01*
X226034387Y-109833243D01*
X226084463Y-109937905D01*
X226123832Y-110018989D01*
X226148110Y-110067413D01*
X226152403Y-110075247D01*
X226162402Y-110063603D01*
X226177221Y-110009797D01*
X226195344Y-109921065D01*
X226215256Y-109804645D01*
X226230968Y-109699881D01*
X226289024Y-109290218D01*
X226387299Y-109280397D01*
X226485572Y-109270576D01*
X226679404Y-109628335D01*
X226873232Y-109986089D01*
X226889210Y-109844200D01*
X226898439Y-109756624D01*
X226910049Y-109638425D01*
X226922205Y-109508610D01*
X226928465Y-109439022D01*
X226951743Y-109175735D01*
X227230642Y-109126557D01*
X227193762Y-109404886D01*
G36*
X227193762Y-109404886D02*
G01*
X227175572Y-109541792D01*
X227153554Y-109706944D01*
X227130529Y-109879230D01*
X227109942Y-110032853D01*
X227063002Y-110382493D01*
X226838191Y-110437389D01*
X226740634Y-110244675D01*
X226680306Y-110124909D01*
X226614227Y-109992804D01*
X226556246Y-109876062D01*
X226553950Y-109871414D01*
X226512147Y-109792755D01*
X226478210Y-109740041D01*
X226457673Y-109721463D01*
X226454672Y-109724559D01*
X226448483Y-109760063D01*
X226438148Y-109835598D01*
X226424872Y-109941687D01*
X226409868Y-110068844D01*
X226401940Y-110138729D01*
X226359359Y-110519208D01*
X226133625Y-110559011D01*
X225852631Y-110020655D01*
X225773735Y-109869652D01*
X225701944Y-109732546D01*
X225640642Y-109615775D01*
X225593214Y-109525779D01*
X225563042Y-109468995D01*
X225553998Y-109452445D01*
X225555525Y-109433597D01*
X225591073Y-109419191D01*
X225668084Y-109406427D01*
X225680223Y-109404902D01*
X225824089Y-109387214D01*
X225977991Y-109714082D01*
X226034387Y-109833243D01*
X226084463Y-109937905D01*
X226123832Y-110018989D01*
X226148110Y-110067413D01*
X226152403Y-110075247D01*
X226162402Y-110063603D01*
X226177221Y-110009797D01*
X226195344Y-109921065D01*
X226215256Y-109804645D01*
X226230968Y-109699881D01*
X226289024Y-109290218D01*
X226387299Y-109280397D01*
X226485572Y-109270576D01*
X226679404Y-109628335D01*
X226873232Y-109986089D01*
X226889210Y-109844200D01*
X226898439Y-109756624D01*
X226910049Y-109638425D01*
X226922205Y-109508610D01*
X226928465Y-109439022D01*
X226951743Y-109175735D01*
X227230642Y-109126557D01*
X227193762Y-109404886D01*
G37*
X220703208Y-108452685D02*
X220817302Y-108530221D01*
X220907362Y-108651318D01*
X220973553Y-108816094D01*
X220980845Y-108842357D01*
X221016084Y-109030376D01*
X221018973Y-109200118D01*
X220989688Y-109343272D01*
X220968962Y-109391315D01*
X220886392Y-109499820D01*
X220771183Y-109580978D01*
X220634967Y-109630247D01*
X220489386Y-109643075D01*
X220373627Y-109623938D01*
X220268497Y-109575827D01*
X220176946Y-109504586D01*
X220175271Y-109502836D01*
X220134936Y-109456014D01*
X220105443Y-109406980D01*
X220081495Y-109342757D01*
X220057794Y-109250368D01*
X220041086Y-109174124D01*
X220027486Y-109104709D01*
X220011264Y-109021906D01*
X219997482Y-108917570D01*
X220260836Y-108917570D01*
X220272675Y-109061476D01*
X220287296Y-109130388D01*
X220312269Y-109221150D01*
X220338061Y-109277676D01*
X220373167Y-109314938D01*
X220403427Y-109334984D01*
X220504405Y-109370323D01*
X220601763Y-109360259D01*
X220684765Y-109307385D01*
X220722207Y-109257935D01*
X220747085Y-109210370D01*
X220758889Y-109166970D01*
X220757976Y-109113363D01*
X220744701Y-109035163D01*
X220729462Y-108963675D01*
X220705853Y-108861880D01*
X220685398Y-108796762D01*
X220662047Y-108756053D01*
X220629750Y-108727483D01*
X220605451Y-108712186D01*
X220509023Y-108677747D01*
X220414048Y-108691929D01*
X220339991Y-108735457D01*
X220283248Y-108809093D01*
X220260836Y-108917570D01*
X219997482Y-108917570D01*
X219996062Y-108906816D01*
X219995709Y-108818299D01*
X220010437Y-108745803D01*
X220040478Y-108678776D01*
X220052396Y-108658346D01*
X220130895Y-108553176D01*
X220222722Y-108483639D01*
X220342356Y-108440194D01*
X220402244Y-108427808D01*
X220564911Y-108418587D01*
X220703208Y-108452685D01*
G36*
X220703208Y-108452685D02*
G01*
X220817302Y-108530221D01*
X220907362Y-108651318D01*
X220973553Y-108816094D01*
X220980845Y-108842357D01*
X221016084Y-109030376D01*
X221018973Y-109200118D01*
X220989688Y-109343272D01*
X220968962Y-109391315D01*
X220886392Y-109499820D01*
X220771183Y-109580978D01*
X220634967Y-109630247D01*
X220489386Y-109643075D01*
X220373627Y-109623938D01*
X220268497Y-109575827D01*
X220176946Y-109504586D01*
X220175271Y-109502836D01*
X220134936Y-109456014D01*
X220105443Y-109406980D01*
X220081495Y-109342757D01*
X220057794Y-109250368D01*
X220041086Y-109174124D01*
X220027486Y-109104709D01*
X220011264Y-109021906D01*
X219997482Y-108917570D01*
X220260836Y-108917570D01*
X220272675Y-109061476D01*
X220287296Y-109130388D01*
X220312269Y-109221150D01*
X220338061Y-109277676D01*
X220373167Y-109314938D01*
X220403427Y-109334984D01*
X220504405Y-109370323D01*
X220601763Y-109360259D01*
X220684765Y-109307385D01*
X220722207Y-109257935D01*
X220747085Y-109210370D01*
X220758889Y-109166970D01*
X220757976Y-109113363D01*
X220744701Y-109035163D01*
X220729462Y-108963675D01*
X220705853Y-108861880D01*
X220685398Y-108796762D01*
X220662047Y-108756053D01*
X220629750Y-108727483D01*
X220605451Y-108712186D01*
X220509023Y-108677747D01*
X220414048Y-108691929D01*
X220339991Y-108735457D01*
X220283248Y-108809093D01*
X220260836Y-108917570D01*
X219997482Y-108917570D01*
X219996062Y-108906816D01*
X219995709Y-108818299D01*
X220010437Y-108745803D01*
X220040478Y-108678776D01*
X220052396Y-108658346D01*
X220130895Y-108553176D01*
X220222722Y-108483639D01*
X220342356Y-108440194D01*
X220402244Y-108427808D01*
X220564911Y-108418587D01*
X220703208Y-108452685D01*
G37*
X225656869Y-110643076D02*
X225521988Y-110666859D01*
X225443295Y-110678367D01*
X225400845Y-110676052D01*
X225382524Y-110657996D01*
X225378927Y-110644237D01*
X225371515Y-110616682D01*
X225354956Y-110614066D01*
X225316973Y-110638556D01*
X225287909Y-110660287D01*
X225172152Y-110720047D01*
X225039392Y-110745734D01*
X224926123Y-110736359D01*
X224813193Y-110685369D01*
X224718456Y-110597420D01*
X224655269Y-110485120D01*
X224653018Y-110478615D01*
X224633888Y-110406684D01*
X224612292Y-110302388D01*
X224598561Y-110223049D01*
X224591598Y-110182820D01*
X224582020Y-110118194D01*
X224567312Y-109970549D01*
X224842953Y-109970549D01*
X224849336Y-110067369D01*
X224866442Y-110175814D01*
X224891231Y-110280112D01*
X224920665Y-110364491D01*
X224948426Y-110410176D01*
X225032546Y-110464466D01*
X225122627Y-110473360D01*
X225207723Y-110438317D01*
X225273150Y-110367011D01*
X225294924Y-110322972D01*
X225303472Y-110273495D01*
X225299343Y-110204202D01*
X225283291Y-110101860D01*
X225262021Y-110001461D01*
X225237237Y-109914323D01*
X225213812Y-109857215D01*
X225210715Y-109852272D01*
X225147324Y-109798190D01*
X225064963Y-109776885D01*
X224978676Y-109786314D01*
X224903508Y-109824440D01*
X224854503Y-109889223D01*
X224850334Y-109901129D01*
X224842953Y-109970549D01*
X224567312Y-109970549D01*
X224565959Y-109956971D01*
X224569823Y-109833116D01*
X224595719Y-109737492D01*
X224645756Y-109660961D01*
X224698777Y-109611866D01*
X224777574Y-109570031D01*
X224879883Y-109542408D01*
X224987658Y-109531210D01*
X225082856Y-109538648D01*
X225135920Y-109558271D01*
X225193861Y-109594679D01*
X225093065Y-109023033D01*
X225362824Y-108975467D01*
X225656869Y-110643076D01*
G36*
X225656869Y-110643076D02*
G01*
X225521988Y-110666859D01*
X225443295Y-110678367D01*
X225400845Y-110676052D01*
X225382524Y-110657996D01*
X225378927Y-110644237D01*
X225371515Y-110616682D01*
X225354956Y-110614066D01*
X225316973Y-110638556D01*
X225287909Y-110660287D01*
X225172152Y-110720047D01*
X225039392Y-110745734D01*
X224926123Y-110736359D01*
X224813193Y-110685369D01*
X224718456Y-110597420D01*
X224655269Y-110485120D01*
X224653018Y-110478615D01*
X224633888Y-110406684D01*
X224612292Y-110302388D01*
X224598561Y-110223049D01*
X224591598Y-110182820D01*
X224582020Y-110118194D01*
X224567312Y-109970549D01*
X224842953Y-109970549D01*
X224849336Y-110067369D01*
X224866442Y-110175814D01*
X224891231Y-110280112D01*
X224920665Y-110364491D01*
X224948426Y-110410176D01*
X225032546Y-110464466D01*
X225122627Y-110473360D01*
X225207723Y-110438317D01*
X225273150Y-110367011D01*
X225294924Y-110322972D01*
X225303472Y-110273495D01*
X225299343Y-110204202D01*
X225283291Y-110101860D01*
X225262021Y-110001461D01*
X225237237Y-109914323D01*
X225213812Y-109857215D01*
X225210715Y-109852272D01*
X225147324Y-109798190D01*
X225064963Y-109776885D01*
X224978676Y-109786314D01*
X224903508Y-109824440D01*
X224854503Y-109889223D01*
X224850334Y-109901129D01*
X224842953Y-109970549D01*
X224567312Y-109970549D01*
X224565959Y-109956971D01*
X224569823Y-109833116D01*
X224595719Y-109737492D01*
X224645756Y-109660961D01*
X224698777Y-109611866D01*
X224777574Y-109570031D01*
X224879883Y-109542408D01*
X224987658Y-109531210D01*
X225082856Y-109538648D01*
X225135920Y-109558271D01*
X225193861Y-109594679D01*
X225093065Y-109023033D01*
X225362824Y-108975467D01*
X225656869Y-110643076D01*
G37*
X230800510Y-106612025D02*
X230930752Y-106646658D01*
X231048742Y-106713825D01*
X231138026Y-106803555D01*
X231151863Y-106824797D01*
X231175899Y-106882588D01*
X231200991Y-106969928D01*
X231220053Y-107059312D01*
X231250041Y-107229381D01*
X230894447Y-107292083D01*
X230747883Y-107318496D01*
X230645156Y-107340082D01*
X230581015Y-107360395D01*
X230550202Y-107382999D01*
X230547463Y-107411456D01*
X230567544Y-107449321D01*
X230599120Y-107492206D01*
X230677910Y-107559171D01*
X230775076Y-107582325D01*
X230885192Y-107561596D01*
X231002683Y-107497032D01*
X231101450Y-107425505D01*
X231203578Y-107480574D01*
X231305707Y-107535642D01*
X231235120Y-107628421D01*
X231135524Y-107721884D01*
X231004899Y-107790677D01*
X230858173Y-107829357D01*
X230710253Y-107832473D01*
X230685690Y-107829012D01*
X230547483Y-107785237D01*
X230435971Y-107703306D01*
X230348652Y-107580631D01*
X230283023Y-107414614D01*
X230281961Y-107410995D01*
X230245707Y-107223849D01*
X230246661Y-107154633D01*
X230247807Y-107071676D01*
X230494972Y-107071676D01*
X230495818Y-107110700D01*
X230520514Y-107116963D01*
X230584027Y-107113895D01*
X230676407Y-107102251D01*
X230734565Y-107092699D01*
X230842718Y-107073190D01*
X230909911Y-107058544D01*
X230944254Y-107045120D01*
X230953857Y-107029266D01*
X230946832Y-107007339D01*
X230942729Y-106999099D01*
X230884453Y-106925159D01*
X230803847Y-106871503D01*
X230737853Y-106853315D01*
X230657264Y-106869325D01*
X230581650Y-106919852D01*
X230523417Y-106991699D01*
X230494972Y-107071676D01*
X230247807Y-107071676D01*
X230248062Y-107053209D01*
X230286058Y-106903655D01*
X230356723Y-106779765D01*
X230457086Y-106686115D01*
X230584177Y-106627282D01*
X230735025Y-106607843D01*
X230800510Y-106612025D01*
G36*
X230800510Y-106612025D02*
G01*
X230930752Y-106646658D01*
X231048742Y-106713825D01*
X231138026Y-106803555D01*
X231151863Y-106824797D01*
X231175899Y-106882588D01*
X231200991Y-106969928D01*
X231220053Y-107059312D01*
X231250041Y-107229381D01*
X230894447Y-107292083D01*
X230747883Y-107318496D01*
X230645156Y-107340082D01*
X230581015Y-107360395D01*
X230550202Y-107382999D01*
X230547463Y-107411456D01*
X230567544Y-107449321D01*
X230599120Y-107492206D01*
X230677910Y-107559171D01*
X230775076Y-107582325D01*
X230885192Y-107561596D01*
X231002683Y-107497032D01*
X231101450Y-107425505D01*
X231203578Y-107480574D01*
X231305707Y-107535642D01*
X231235120Y-107628421D01*
X231135524Y-107721884D01*
X231004899Y-107790677D01*
X230858173Y-107829357D01*
X230710253Y-107832473D01*
X230685690Y-107829012D01*
X230547483Y-107785237D01*
X230435971Y-107703306D01*
X230348652Y-107580631D01*
X230283023Y-107414614D01*
X230281961Y-107410995D01*
X230245707Y-107223849D01*
X230246661Y-107154633D01*
X230247807Y-107071676D01*
X230494972Y-107071676D01*
X230495818Y-107110700D01*
X230520514Y-107116963D01*
X230584027Y-107113895D01*
X230676407Y-107102251D01*
X230734565Y-107092699D01*
X230842718Y-107073190D01*
X230909911Y-107058544D01*
X230944254Y-107045120D01*
X230953857Y-107029266D01*
X230946832Y-107007339D01*
X230942729Y-106999099D01*
X230884453Y-106925159D01*
X230803847Y-106871503D01*
X230737853Y-106853315D01*
X230657264Y-106869325D01*
X230581650Y-106919852D01*
X230523417Y-106991699D01*
X230494972Y-107071676D01*
X230247807Y-107071676D01*
X230248062Y-107053209D01*
X230286058Y-106903655D01*
X230356723Y-106779765D01*
X230457086Y-106686115D01*
X230584177Y-106627282D01*
X230735025Y-106607843D01*
X230800510Y-106612025D01*
G37*
X225635616Y-107525156D02*
X225738454Y-107545004D01*
X225749578Y-107547885D01*
X225829413Y-107573420D01*
X225886306Y-107600199D01*
X225906694Y-107620185D01*
X225897696Y-107660230D01*
X225869569Y-107721934D01*
X225856401Y-107745439D01*
X225801458Y-107838507D01*
X225702963Y-107801600D01*
X225611874Y-107781504D01*
X225510468Y-107780061D01*
X225416180Y-107795464D01*
X225346452Y-107825919D01*
X225330911Y-107839996D01*
X225306511Y-107896266D01*
X225312704Y-107955039D01*
X225345609Y-107996006D01*
X225361893Y-108002205D01*
X225407968Y-108005345D01*
X225487835Y-108004501D01*
X225585663Y-107999903D01*
X225603650Y-107998714D01*
X225761985Y-107998200D01*
X225881384Y-108023697D01*
X225967260Y-108078548D01*
X226025024Y-108166097D01*
X226058226Y-108279620D01*
X226063766Y-108414343D01*
X226024624Y-108527804D01*
X225940603Y-108620233D01*
X225811506Y-108691855D01*
X225662220Y-108737457D01*
X225537754Y-108759172D01*
X225433830Y-108759987D01*
X225360768Y-108748699D01*
X225266472Y-108723205D01*
X225177625Y-108689995D01*
X225145338Y-108674174D01*
X225061179Y-108627094D01*
X225134077Y-108521665D01*
X225206975Y-108416236D01*
X225319626Y-108465207D01*
X225429648Y-108497507D01*
X225542319Y-108504682D01*
X225646669Y-108489136D01*
X225731729Y-108453272D01*
X225786531Y-108399497D01*
X225800297Y-108359849D01*
X225787069Y-108302490D01*
X225729239Y-108267039D01*
X225626958Y-108253553D01*
X225518312Y-108258142D01*
X225350188Y-108259992D01*
X225219852Y-108230533D01*
X225125418Y-108168563D01*
X225065000Y-108072880D01*
X225037589Y-107951639D01*
X225043970Y-107818829D01*
X225092834Y-107710677D01*
X225184699Y-107626636D01*
X225320073Y-107566163D01*
X225423776Y-107540703D01*
X225539643Y-107523919D01*
X225635616Y-107525156D01*
G36*
X225635616Y-107525156D02*
G01*
X225738454Y-107545004D01*
X225749578Y-107547885D01*
X225829413Y-107573420D01*
X225886306Y-107600199D01*
X225906694Y-107620185D01*
X225897696Y-107660230D01*
X225869569Y-107721934D01*
X225856401Y-107745439D01*
X225801458Y-107838507D01*
X225702963Y-107801600D01*
X225611874Y-107781504D01*
X225510468Y-107780061D01*
X225416180Y-107795464D01*
X225346452Y-107825919D01*
X225330911Y-107839996D01*
X225306511Y-107896266D01*
X225312704Y-107955039D01*
X225345609Y-107996006D01*
X225361893Y-108002205D01*
X225407968Y-108005345D01*
X225487835Y-108004501D01*
X225585663Y-107999903D01*
X225603650Y-107998714D01*
X225761985Y-107998200D01*
X225881384Y-108023697D01*
X225967260Y-108078548D01*
X226025024Y-108166097D01*
X226058226Y-108279620D01*
X226063766Y-108414343D01*
X226024624Y-108527804D01*
X225940603Y-108620233D01*
X225811506Y-108691855D01*
X225662220Y-108737457D01*
X225537754Y-108759172D01*
X225433830Y-108759987D01*
X225360768Y-108748699D01*
X225266472Y-108723205D01*
X225177625Y-108689995D01*
X225145338Y-108674174D01*
X225061179Y-108627094D01*
X225134077Y-108521665D01*
X225206975Y-108416236D01*
X225319626Y-108465207D01*
X225429648Y-108497507D01*
X225542319Y-108504682D01*
X225646669Y-108489136D01*
X225731729Y-108453272D01*
X225786531Y-108399497D01*
X225800297Y-108359849D01*
X225787069Y-108302490D01*
X225729239Y-108267039D01*
X225626958Y-108253553D01*
X225518312Y-108258142D01*
X225350188Y-108259992D01*
X225219852Y-108230533D01*
X225125418Y-108168563D01*
X225065000Y-108072880D01*
X225037589Y-107951639D01*
X225043970Y-107818829D01*
X225092834Y-107710677D01*
X225184699Y-107626636D01*
X225320073Y-107566163D01*
X225423776Y-107540703D01*
X225539643Y-107523919D01*
X225635616Y-107525156D01*
G37*
X229925242Y-108689461D02*
X230034502Y-108735049D01*
X230090321Y-108773656D01*
X230187825Y-108870997D01*
X230255202Y-108991979D01*
X230298473Y-109147672D01*
X230300809Y-109160463D01*
X230323648Y-109289188D01*
X229582622Y-109419852D01*
X229610309Y-109484506D01*
X229649599Y-109540554D01*
X229710738Y-109595395D01*
X229722970Y-109603713D01*
X229822396Y-109642879D01*
X229926368Y-109634162D01*
X230037772Y-109577216D01*
X230056020Y-109563953D01*
X230112035Y-109523539D01*
X230150077Y-109499433D01*
X230156958Y-109496610D01*
X230184612Y-109507358D01*
X230238794Y-109536030D01*
X230266552Y-109552025D01*
X230324876Y-109589725D01*
X230346751Y-109617552D01*
X230340314Y-109647833D01*
X230335572Y-109656638D01*
X230300183Y-109697758D01*
X230239199Y-109750903D01*
X230195840Y-109783293D01*
X230068209Y-109849399D01*
X229921068Y-109889471D01*
X229776568Y-109898210D01*
X229734852Y-109893580D01*
X229600477Y-109849436D01*
X229491623Y-109764247D01*
X229407591Y-109637120D01*
X229347676Y-109467168D01*
X229328345Y-109376184D01*
X229314154Y-109241260D01*
X229309794Y-109199797D01*
X229549303Y-109199797D01*
X229573783Y-109205640D01*
X229636281Y-109202591D01*
X229725969Y-109191481D01*
X229786319Y-109181645D01*
X229894498Y-109161793D01*
X229962239Y-109146214D01*
X229998296Y-109131407D01*
X230011427Y-109113868D01*
X230010714Y-109091905D01*
X229978053Y-109029619D01*
X229913618Y-108973731D01*
X229835161Y-108935949D01*
X229761891Y-108927753D01*
X229670480Y-108962602D01*
X229597838Y-109029561D01*
X229554398Y-109115271D01*
X229549303Y-109199797D01*
X229309794Y-109199797D01*
X229307681Y-109179707D01*
X229322261Y-109017694D01*
X229372755Y-108888765D01*
X229459832Y-108791538D01*
X229584164Y-108724632D01*
X229654202Y-108703616D01*
X229802646Y-108679653D01*
X229925242Y-108689461D01*
G36*
X229925242Y-108689461D02*
G01*
X230034502Y-108735049D01*
X230090321Y-108773656D01*
X230187825Y-108870997D01*
X230255202Y-108991979D01*
X230298473Y-109147672D01*
X230300809Y-109160463D01*
X230323648Y-109289188D01*
X229582622Y-109419852D01*
X229610309Y-109484506D01*
X229649599Y-109540554D01*
X229710738Y-109595395D01*
X229722970Y-109603713D01*
X229822396Y-109642879D01*
X229926368Y-109634162D01*
X230037772Y-109577216D01*
X230056020Y-109563953D01*
X230112035Y-109523539D01*
X230150077Y-109499433D01*
X230156958Y-109496610D01*
X230184612Y-109507358D01*
X230238794Y-109536030D01*
X230266552Y-109552025D01*
X230324876Y-109589725D01*
X230346751Y-109617552D01*
X230340314Y-109647833D01*
X230335572Y-109656638D01*
X230300183Y-109697758D01*
X230239199Y-109750903D01*
X230195840Y-109783293D01*
X230068209Y-109849399D01*
X229921068Y-109889471D01*
X229776568Y-109898210D01*
X229734852Y-109893580D01*
X229600477Y-109849436D01*
X229491623Y-109764247D01*
X229407591Y-109637120D01*
X229347676Y-109467168D01*
X229328345Y-109376184D01*
X229314154Y-109241260D01*
X229309794Y-109199797D01*
X229549303Y-109199797D01*
X229573783Y-109205640D01*
X229636281Y-109202591D01*
X229725969Y-109191481D01*
X229786319Y-109181645D01*
X229894498Y-109161793D01*
X229962239Y-109146214D01*
X229998296Y-109131407D01*
X230011427Y-109113868D01*
X230010714Y-109091905D01*
X229978053Y-109029619D01*
X229913618Y-108973731D01*
X229835161Y-108935949D01*
X229761891Y-108927753D01*
X229670480Y-108962602D01*
X229597838Y-109029561D01*
X229554398Y-109115271D01*
X229549303Y-109199797D01*
X229309794Y-109199797D01*
X229307681Y-109179707D01*
X229322261Y-109017694D01*
X229372755Y-108888765D01*
X229459832Y-108791538D01*
X229584164Y-108724632D01*
X229654202Y-108703616D01*
X229802646Y-108679653D01*
X229925242Y-108689461D01*
G37*
X222860442Y-108038605D02*
X222886909Y-108045802D01*
X222982416Y-108092846D01*
X223078341Y-108169166D01*
X223155618Y-108258199D01*
X223180676Y-108300978D01*
X223210591Y-108380011D01*
X223237256Y-108477194D01*
X223245573Y-108517801D01*
X223268411Y-108646526D01*
X222527385Y-108777188D01*
X222555071Y-108841845D01*
X222607909Y-108914768D01*
X222687849Y-108971749D01*
X222776321Y-109001935D01*
X222829337Y-109002093D01*
X222897054Y-108978614D01*
X222975254Y-108935889D01*
X223001223Y-108917996D01*
X223096480Y-108847409D01*
X223197613Y-108899685D01*
X223257161Y-108936601D01*
X223291224Y-108969733D01*
X223294574Y-108980628D01*
X223274884Y-109011939D01*
X223228531Y-109062419D01*
X223185536Y-109103007D01*
X223064433Y-109183693D01*
X222921881Y-109235684D01*
X222774849Y-109254627D01*
X222652355Y-109239729D01*
X222519146Y-109185033D01*
X222416379Y-109100218D01*
X222340326Y-108980447D01*
X222287264Y-108820891D01*
X222271902Y-108746310D01*
X222250195Y-108573024D01*
X222250367Y-108567841D01*
X222251812Y-108524545D01*
X222495910Y-108524545D01*
X222505513Y-108539461D01*
X222534874Y-108543443D01*
X222592870Y-108537143D01*
X222688385Y-108521209D01*
X222725107Y-108514751D01*
X222836588Y-108493721D01*
X222906582Y-108476395D01*
X222942993Y-108460080D01*
X222953723Y-108442082D01*
X222953316Y-108436981D01*
X222930898Y-108399831D01*
X222882535Y-108350778D01*
X222862529Y-108334145D01*
X222791306Y-108289682D01*
X222723394Y-108279237D01*
X222688550Y-108283507D01*
X222599162Y-108322705D01*
X222531602Y-108397566D01*
X222497554Y-108495003D01*
X222497184Y-108498047D01*
X222495910Y-108524545D01*
X222251812Y-108524545D01*
X222254877Y-108432737D01*
X222287195Y-108315462D01*
X222336510Y-108227563D01*
X222438044Y-108123776D01*
X222566813Y-108055178D01*
X222711414Y-108025531D01*
X222860442Y-108038605D01*
G36*
X222860442Y-108038605D02*
G01*
X222886909Y-108045802D01*
X222982416Y-108092846D01*
X223078341Y-108169166D01*
X223155618Y-108258199D01*
X223180676Y-108300978D01*
X223210591Y-108380011D01*
X223237256Y-108477194D01*
X223245573Y-108517801D01*
X223268411Y-108646526D01*
X222527385Y-108777188D01*
X222555071Y-108841845D01*
X222607909Y-108914768D01*
X222687849Y-108971749D01*
X222776321Y-109001935D01*
X222829337Y-109002093D01*
X222897054Y-108978614D01*
X222975254Y-108935889D01*
X223001223Y-108917996D01*
X223096480Y-108847409D01*
X223197613Y-108899685D01*
X223257161Y-108936601D01*
X223291224Y-108969733D01*
X223294574Y-108980628D01*
X223274884Y-109011939D01*
X223228531Y-109062419D01*
X223185536Y-109103007D01*
X223064433Y-109183693D01*
X222921881Y-109235684D01*
X222774849Y-109254627D01*
X222652355Y-109239729D01*
X222519146Y-109185033D01*
X222416379Y-109100218D01*
X222340326Y-108980447D01*
X222287264Y-108820891D01*
X222271902Y-108746310D01*
X222250195Y-108573024D01*
X222250367Y-108567841D01*
X222251812Y-108524545D01*
X222495910Y-108524545D01*
X222505513Y-108539461D01*
X222534874Y-108543443D01*
X222592870Y-108537143D01*
X222688385Y-108521209D01*
X222725107Y-108514751D01*
X222836588Y-108493721D01*
X222906582Y-108476395D01*
X222942993Y-108460080D01*
X222953723Y-108442082D01*
X222953316Y-108436981D01*
X222930898Y-108399831D01*
X222882535Y-108350778D01*
X222862529Y-108334145D01*
X222791306Y-108289682D01*
X222723394Y-108279237D01*
X222688550Y-108283507D01*
X222599162Y-108322705D01*
X222531602Y-108397566D01*
X222497554Y-108495003D01*
X222497184Y-108498047D01*
X222495910Y-108524545D01*
X222251812Y-108524545D01*
X222254877Y-108432737D01*
X222287195Y-108315462D01*
X222336510Y-108227563D01*
X222438044Y-108123776D01*
X222566813Y-108055178D01*
X222711414Y-108025531D01*
X222860442Y-108038605D01*
G37*
X227971657Y-109029292D02*
X228003882Y-109037324D01*
X228067944Y-109061951D01*
X228119313Y-109093352D01*
X228161099Y-109138004D01*
X228196410Y-109202385D01*
X228228357Y-109292968D01*
X228260049Y-109416234D01*
X228294596Y-109578655D01*
X228316020Y-109687438D01*
X228407267Y-110158106D01*
X228270512Y-110182220D01*
X228186934Y-110193369D01*
X228142094Y-110189018D01*
X228127527Y-110171002D01*
X228117888Y-110150443D01*
X228092540Y-110159168D01*
X228060060Y-110182742D01*
X227975787Y-110224959D01*
X227862726Y-110252266D01*
X227740422Y-110261774D01*
X227628420Y-110250591D01*
X227618114Y-110248115D01*
X227508504Y-110196797D01*
X227427414Y-110112887D01*
X227378198Y-110006770D01*
X227373405Y-109966373D01*
X227368356Y-109923812D01*
X227614780Y-109923812D01*
X227645540Y-109973892D01*
X227715397Y-110001348D01*
X227820785Y-110004111D01*
X227875640Y-109997274D01*
X227965009Y-109974259D01*
X228020417Y-109936289D01*
X228032819Y-109920698D01*
X228060159Y-109842951D01*
X228058083Y-109777169D01*
X228042949Y-109691337D01*
X227923396Y-109712417D01*
X227785673Y-109744005D01*
X227692125Y-109783472D01*
X227637414Y-109833349D01*
X227626693Y-109853176D01*
X227614780Y-109923812D01*
X227368356Y-109923812D01*
X227364206Y-109888827D01*
X227388787Y-109769442D01*
X227435876Y-109683388D01*
X227466699Y-109644339D01*
X227498724Y-109616600D01*
X227543005Y-109595324D01*
X227610599Y-109575654D01*
X227712561Y-109552743D01*
X227753095Y-109544177D01*
X228007568Y-109490683D01*
X227993532Y-109413279D01*
X227969261Y-109333596D01*
X227924742Y-109290678D01*
X227846793Y-109271986D01*
X227844753Y-109271768D01*
X227739920Y-109277500D01*
X227642325Y-109311368D01*
X227574599Y-109363816D01*
X227548067Y-109388496D01*
X227515333Y-109391500D01*
X227460732Y-109372150D01*
X227428083Y-109357455D01*
X227363589Y-109325132D01*
X227322668Y-109299593D01*
X227315395Y-109291498D01*
X227330434Y-109240318D01*
X227389478Y-109171953D01*
X227416084Y-109147707D01*
X227496427Y-109099863D01*
X227609202Y-109060899D01*
X227737363Y-109034014D01*
X227863863Y-109022410D01*
X227971657Y-109029292D01*
G36*
X227971657Y-109029292D02*
G01*
X228003882Y-109037324D01*
X228067944Y-109061951D01*
X228119313Y-109093352D01*
X228161099Y-109138004D01*
X228196410Y-109202385D01*
X228228357Y-109292968D01*
X228260049Y-109416234D01*
X228294596Y-109578655D01*
X228316020Y-109687438D01*
X228407267Y-110158106D01*
X228270512Y-110182220D01*
X228186934Y-110193369D01*
X228142094Y-110189018D01*
X228127527Y-110171002D01*
X228117888Y-110150443D01*
X228092540Y-110159168D01*
X228060060Y-110182742D01*
X227975787Y-110224959D01*
X227862726Y-110252266D01*
X227740422Y-110261774D01*
X227628420Y-110250591D01*
X227618114Y-110248115D01*
X227508504Y-110196797D01*
X227427414Y-110112887D01*
X227378198Y-110006770D01*
X227373405Y-109966373D01*
X227368356Y-109923812D01*
X227614780Y-109923812D01*
X227645540Y-109973892D01*
X227715397Y-110001348D01*
X227820785Y-110004111D01*
X227875640Y-109997274D01*
X227965009Y-109974259D01*
X228020417Y-109936289D01*
X228032819Y-109920698D01*
X228060159Y-109842951D01*
X228058083Y-109777169D01*
X228042949Y-109691337D01*
X227923396Y-109712417D01*
X227785673Y-109744005D01*
X227692125Y-109783472D01*
X227637414Y-109833349D01*
X227626693Y-109853176D01*
X227614780Y-109923812D01*
X227368356Y-109923812D01*
X227364206Y-109888827D01*
X227388787Y-109769442D01*
X227435876Y-109683388D01*
X227466699Y-109644339D01*
X227498724Y-109616600D01*
X227543005Y-109595324D01*
X227610599Y-109575654D01*
X227712561Y-109552743D01*
X227753095Y-109544177D01*
X228007568Y-109490683D01*
X227993532Y-109413279D01*
X227969261Y-109333596D01*
X227924742Y-109290678D01*
X227846793Y-109271986D01*
X227844753Y-109271768D01*
X227739920Y-109277500D01*
X227642325Y-109311368D01*
X227574599Y-109363816D01*
X227548067Y-109388496D01*
X227515333Y-109391500D01*
X227460732Y-109372150D01*
X227428083Y-109357455D01*
X227363589Y-109325132D01*
X227322668Y-109299593D01*
X227315395Y-109291498D01*
X227330434Y-109240318D01*
X227389478Y-109171953D01*
X227416084Y-109147707D01*
X227496427Y-109099863D01*
X227609202Y-109060899D01*
X227737363Y-109034014D01*
X227863863Y-109022410D01*
X227971657Y-109029292D01*
G37*
X223260202Y-109868189D02*
X223357867Y-109908500D01*
X223432730Y-109970652D01*
X223457496Y-109998444D01*
X223477482Y-110028608D01*
X223494794Y-110068647D01*
X223511545Y-110126071D01*
X223529845Y-110208383D01*
X223551802Y-110323094D01*
X223579525Y-110477709D01*
X223586771Y-110518749D01*
X223670454Y-110993335D01*
X223552740Y-111014090D01*
X223476731Y-111022070D01*
X223418865Y-111018538D01*
X223403507Y-111012775D01*
X223362981Y-111005301D01*
X223326642Y-111026329D01*
X223265820Y-111055306D01*
X223174192Y-111078809D01*
X223070697Y-111093870D01*
X222974271Y-111097524D01*
X222916379Y-111090603D01*
X222797978Y-111041078D01*
X222714800Y-110958046D01*
X222662703Y-110837330D01*
X222661854Y-110834144D01*
X222654624Y-110777794D01*
X222649257Y-110735977D01*
X222891778Y-110735977D01*
X222923719Y-110795891D01*
X222963798Y-110825712D01*
X223036360Y-110840817D01*
X223127741Y-110835841D01*
X223218048Y-110814436D01*
X223287380Y-110780256D01*
X223305448Y-110762985D01*
X223330098Y-110693554D01*
X223326512Y-110620197D01*
X223309886Y-110525904D01*
X223174218Y-110549826D01*
X223047081Y-110582473D01*
X222954333Y-110627810D01*
X222901279Y-110682343D01*
X222891778Y-110735977D01*
X222649257Y-110735977D01*
X222644044Y-110695360D01*
X222670251Y-110578527D01*
X222741090Y-110481177D01*
X222751567Y-110471610D01*
X222797962Y-110438294D01*
X222858105Y-110412469D01*
X222944553Y-110389828D01*
X223048465Y-110369805D01*
X223275292Y-110329714D01*
X223258525Y-110234622D01*
X223235893Y-110162539D01*
X223202623Y-110117438D01*
X223199284Y-110115314D01*
X223140831Y-110103325D01*
X223056871Y-110109489D01*
X222966444Y-110129679D01*
X222888590Y-110159778D01*
X222844931Y-110192032D01*
X222822362Y-110215677D01*
X222795621Y-110224148D01*
X222755074Y-110215183D01*
X222691090Y-110186526D01*
X222594033Y-110135919D01*
X222585102Y-110131150D01*
X222585109Y-110107676D01*
X222611970Y-110063899D01*
X222655523Y-110012836D01*
X222705607Y-109967501D01*
X222721830Y-109956022D01*
X222783440Y-109927958D01*
X222875931Y-109899381D01*
X222980768Y-109875974D01*
X222985708Y-109875092D01*
X223139404Y-109857749D01*
X223260202Y-109868189D01*
G36*
X223260202Y-109868189D02*
G01*
X223357867Y-109908500D01*
X223432730Y-109970652D01*
X223457496Y-109998444D01*
X223477482Y-110028608D01*
X223494794Y-110068647D01*
X223511545Y-110126071D01*
X223529845Y-110208383D01*
X223551802Y-110323094D01*
X223579525Y-110477709D01*
X223586771Y-110518749D01*
X223670454Y-110993335D01*
X223552740Y-111014090D01*
X223476731Y-111022070D01*
X223418865Y-111018538D01*
X223403507Y-111012775D01*
X223362981Y-111005301D01*
X223326642Y-111026329D01*
X223265820Y-111055306D01*
X223174192Y-111078809D01*
X223070697Y-111093870D01*
X222974271Y-111097524D01*
X222916379Y-111090603D01*
X222797978Y-111041078D01*
X222714800Y-110958046D01*
X222662703Y-110837330D01*
X222661854Y-110834144D01*
X222654624Y-110777794D01*
X222649257Y-110735977D01*
X222891778Y-110735977D01*
X222923719Y-110795891D01*
X222963798Y-110825712D01*
X223036360Y-110840817D01*
X223127741Y-110835841D01*
X223218048Y-110814436D01*
X223287380Y-110780256D01*
X223305448Y-110762985D01*
X223330098Y-110693554D01*
X223326512Y-110620197D01*
X223309886Y-110525904D01*
X223174218Y-110549826D01*
X223047081Y-110582473D01*
X222954333Y-110627810D01*
X222901279Y-110682343D01*
X222891778Y-110735977D01*
X222649257Y-110735977D01*
X222644044Y-110695360D01*
X222670251Y-110578527D01*
X222741090Y-110481177D01*
X222751567Y-110471610D01*
X222797962Y-110438294D01*
X222858105Y-110412469D01*
X222944553Y-110389828D01*
X223048465Y-110369805D01*
X223275292Y-110329714D01*
X223258525Y-110234622D01*
X223235893Y-110162539D01*
X223202623Y-110117438D01*
X223199284Y-110115314D01*
X223140831Y-110103325D01*
X223056871Y-110109489D01*
X222966444Y-110129679D01*
X222888590Y-110159778D01*
X222844931Y-110192032D01*
X222822362Y-110215677D01*
X222795621Y-110224148D01*
X222755074Y-110215183D01*
X222691090Y-110186526D01*
X222594033Y-110135919D01*
X222585102Y-110131150D01*
X222585109Y-110107676D01*
X222611970Y-110063899D01*
X222655523Y-110012836D01*
X222705607Y-109967501D01*
X222721830Y-109956022D01*
X222783440Y-109927958D01*
X222875931Y-109899381D01*
X222980768Y-109875974D01*
X222985708Y-109875092D01*
X223139404Y-109857749D01*
X223260202Y-109868189D01*
G37*
X221782579Y-108221763D02*
X221838786Y-108238191D01*
X221910398Y-108271462D01*
X221965429Y-108311810D01*
X222008004Y-108367151D01*
X222042246Y-108445406D01*
X222072277Y-108554490D01*
X222102219Y-108702323D01*
X222113696Y-108766124D01*
X222137724Y-108906151D01*
X222152691Y-109006614D01*
X222159092Y-109076826D01*
X222157427Y-109126106D01*
X222148194Y-109163764D01*
X222136377Y-109190426D01*
X222052005Y-109309877D01*
X221942345Y-109392114D01*
X221815678Y-109433367D01*
X221680282Y-109429869D01*
X221635561Y-109418398D01*
X221527312Y-109384205D01*
X221670093Y-110193957D01*
X221735848Y-110143783D01*
X221826079Y-110098026D01*
X221941951Y-110069948D01*
X222061377Y-110063008D01*
X222155165Y-110078183D01*
X222238790Y-110123834D01*
X222316193Y-110196610D01*
X222322419Y-110204386D01*
X222349426Y-110241419D01*
X222371135Y-110279720D01*
X222389847Y-110327455D01*
X222407861Y-110392790D01*
X222427481Y-110483893D01*
X222451008Y-110608929D01*
X222476127Y-110749877D01*
X222555445Y-111199709D01*
X222285686Y-111247276D01*
X222139430Y-110417830D01*
X222052785Y-110367646D01*
X221965449Y-110330681D01*
X221889595Y-110334535D01*
X221819148Y-110371459D01*
X221783472Y-110401743D01*
X221759710Y-110440102D01*
X221747485Y-110493903D01*
X221746422Y-110570498D01*
X221756147Y-110677243D01*
X221776281Y-110821496D01*
X221791294Y-110917228D01*
X221854359Y-111310686D01*
X221726917Y-111340803D01*
X221599475Y-111370914D01*
X221170132Y-108935986D01*
X221124368Y-108676444D01*
X221422653Y-108676444D01*
X221428937Y-108815892D01*
X221439891Y-108888420D01*
X221470705Y-109022954D01*
X221510495Y-109113098D01*
X221564118Y-109164095D01*
X221636432Y-109181186D01*
X221705356Y-109174997D01*
X221781050Y-109154797D01*
X221827454Y-109119645D01*
X221853262Y-109079458D01*
X221871821Y-109037856D01*
X221879469Y-108993807D01*
X221875890Y-108934608D01*
X221860765Y-108847561D01*
X221845680Y-108775100D01*
X221821188Y-108666250D01*
X221800831Y-108595545D01*
X221779886Y-108552111D01*
X221753631Y-108525082D01*
X221730833Y-108510803D01*
X221641831Y-108486592D01*
X221543466Y-108497492D01*
X221489968Y-108520671D01*
X221443028Y-108577807D01*
X221422653Y-108676444D01*
X221124368Y-108676444D01*
X221062825Y-108327420D01*
X221197705Y-108303637D01*
X221279250Y-108292560D01*
X221323035Y-108296563D01*
X221339061Y-108316612D01*
X221339182Y-108317269D01*
X221348634Y-108338002D01*
X221372990Y-108331165D01*
X221418071Y-108298601D01*
X221526481Y-108241830D01*
X221655020Y-108215206D01*
X221782579Y-108221763D01*
G36*
X221782579Y-108221763D02*
G01*
X221838786Y-108238191D01*
X221910398Y-108271462D01*
X221965429Y-108311810D01*
X222008004Y-108367151D01*
X222042246Y-108445406D01*
X222072277Y-108554490D01*
X222102219Y-108702323D01*
X222113696Y-108766124D01*
X222137724Y-108906151D01*
X222152691Y-109006614D01*
X222159092Y-109076826D01*
X222157427Y-109126106D01*
X222148194Y-109163764D01*
X222136377Y-109190426D01*
X222052005Y-109309877D01*
X221942345Y-109392114D01*
X221815678Y-109433367D01*
X221680282Y-109429869D01*
X221635561Y-109418398D01*
X221527312Y-109384205D01*
X221670093Y-110193957D01*
X221735848Y-110143783D01*
X221826079Y-110098026D01*
X221941951Y-110069948D01*
X222061377Y-110063008D01*
X222155165Y-110078183D01*
X222238790Y-110123834D01*
X222316193Y-110196610D01*
X222322419Y-110204386D01*
X222349426Y-110241419D01*
X222371135Y-110279720D01*
X222389847Y-110327455D01*
X222407861Y-110392790D01*
X222427481Y-110483893D01*
X222451008Y-110608929D01*
X222476127Y-110749877D01*
X222555445Y-111199709D01*
X222285686Y-111247276D01*
X222139430Y-110417830D01*
X222052785Y-110367646D01*
X221965449Y-110330681D01*
X221889595Y-110334535D01*
X221819148Y-110371459D01*
X221783472Y-110401743D01*
X221759710Y-110440102D01*
X221747485Y-110493903D01*
X221746422Y-110570498D01*
X221756147Y-110677243D01*
X221776281Y-110821496D01*
X221791294Y-110917228D01*
X221854359Y-111310686D01*
X221726917Y-111340803D01*
X221599475Y-111370914D01*
X221170132Y-108935986D01*
X221124368Y-108676444D01*
X221422653Y-108676444D01*
X221428937Y-108815892D01*
X221439891Y-108888420D01*
X221470705Y-109022954D01*
X221510495Y-109113098D01*
X221564118Y-109164095D01*
X221636432Y-109181186D01*
X221705356Y-109174997D01*
X221781050Y-109154797D01*
X221827454Y-109119645D01*
X221853262Y-109079458D01*
X221871821Y-109037856D01*
X221879469Y-108993807D01*
X221875890Y-108934608D01*
X221860765Y-108847561D01*
X221845680Y-108775100D01*
X221821188Y-108666250D01*
X221800831Y-108595545D01*
X221779886Y-108552111D01*
X221753631Y-108525082D01*
X221730833Y-108510803D01*
X221641831Y-108486592D01*
X221543466Y-108497492D01*
X221489968Y-108520671D01*
X221443028Y-108577807D01*
X221422653Y-108676444D01*
X221124368Y-108676444D01*
X221062825Y-108327420D01*
X221197705Y-108303637D01*
X221279250Y-108292560D01*
X221323035Y-108296563D01*
X221339061Y-108316612D01*
X221339182Y-108317269D01*
X221348634Y-108338002D01*
X221372990Y-108331165D01*
X221418071Y-108298601D01*
X221526481Y-108241830D01*
X221655020Y-108215206D01*
X221782579Y-108221763D01*
G37*
X224831677Y-99249227D02*
X225046250Y-99817798D01*
X225485090Y-99914307D01*
X225923930Y-100010817D01*
X226355869Y-99590547D01*
X226476930Y-99473389D01*
X226586544Y-99368514D01*
X226679582Y-99280733D01*
X226750913Y-99214855D01*
X226795407Y-99175690D01*
X226807829Y-99166746D01*
X226835255Y-99179280D01*
X226895727Y-99216632D01*
X226982337Y-99273890D01*
X227088180Y-99346136D01*
X227206348Y-99428456D01*
X227329935Y-99515933D01*
X227452031Y-99603652D01*
X227565736Y-99686698D01*
X227664138Y-99760153D01*
X227740329Y-99819103D01*
X227787406Y-99858631D01*
X227799442Y-99872516D01*
X227791106Y-99903495D01*
X227764643Y-99972812D01*
X227722917Y-100073634D01*
X227668791Y-100199137D01*
X227605129Y-100342490D01*
X227568033Y-100424393D01*
X227500462Y-100573919D01*
X227440742Y-100708630D01*
X227391746Y-100821837D01*
X227356342Y-100906854D01*
X227337399Y-100956992D01*
X227335033Y-100967246D01*
X227348992Y-100992736D01*
X227385150Y-101051505D01*
X227438171Y-101135334D01*
X227502707Y-101236005D01*
X227573421Y-101345302D01*
X227644972Y-101455008D01*
X227712014Y-101556904D01*
X227769211Y-101642774D01*
X227811220Y-101704402D01*
X227832697Y-101733566D01*
X227833853Y-101734658D01*
X227859807Y-101736375D01*
X227928458Y-101738305D01*
X228032708Y-101740326D01*
X228165449Y-101742307D01*
X228319581Y-101744122D01*
X228409476Y-101744992D01*
X228574226Y-101747234D01*
X228723294Y-101750728D01*
X228849116Y-101755173D01*
X228944129Y-101760276D01*
X229000769Y-101765743D01*
X229012461Y-101768584D01*
X229028768Y-101798893D01*
X229050164Y-101870070D01*
X229075154Y-101973611D01*
X229102248Y-102101017D01*
X229129952Y-102243784D01*
X229156771Y-102393414D01*
X229181213Y-102541405D01*
X229201787Y-102679256D01*
X229216998Y-102798464D01*
X229225356Y-102890532D01*
X229225364Y-102946955D01*
X229221590Y-102959368D01*
X229189433Y-102979115D01*
X229119635Y-103011552D01*
X229021479Y-103052672D01*
X228904248Y-103098477D01*
X228863215Y-103113844D01*
X228665282Y-103187373D01*
X228509032Y-103246035D01*
X228389336Y-103291969D01*
X228301067Y-103327313D01*
X228239098Y-103354209D01*
X228198304Y-103374796D01*
X228173554Y-103391221D01*
X228159724Y-103405617D01*
X228157908Y-103408301D01*
X228142245Y-103449132D01*
X228121093Y-103526954D01*
X228096276Y-103632367D01*
X228069615Y-103755980D01*
X228042942Y-103888399D01*
X228018080Y-104020228D01*
X227996857Y-104142072D01*
X227981096Y-104244540D01*
X227972625Y-104318233D01*
X227973268Y-104353761D01*
X227973935Y-104354893D01*
X227997389Y-104379889D01*
X228050258Y-104434663D01*
X228126994Y-104513524D01*
X228222055Y-104610778D01*
X228329896Y-104720727D01*
X228360593Y-104751964D01*
X228470425Y-104865466D01*
X228567809Y-104969524D01*
X228647381Y-105058124D01*
X228703773Y-105125248D01*
X228731619Y-105164883D01*
X228733535Y-105170018D01*
X228721458Y-105200912D01*
X228684241Y-105264457D01*
X228626871Y-105353650D01*
X228554342Y-105461486D01*
X228471641Y-105580962D01*
X228383758Y-105705074D01*
X228295683Y-105826818D01*
X228212407Y-105939190D01*
X228138917Y-106035183D01*
X228080205Y-106107798D01*
X228041261Y-106150028D01*
X228029803Y-106157822D01*
X227998506Y-106149741D01*
X227932919Y-106124628D01*
X227843760Y-106086773D01*
X227774833Y-106055802D01*
X227649778Y-105998723D01*
X227501771Y-105931650D01*
X227353387Y-105864791D01*
X227273651Y-105829066D01*
X227003823Y-105708513D01*
X226820751Y-105853613D01*
X226737010Y-105917802D01*
X226665183Y-105968884D01*
X226615885Y-105999487D01*
X226602905Y-106004825D01*
X226582818Y-105985857D01*
X226539910Y-105929812D01*
X226477572Y-105841962D01*
X226399199Y-105727574D01*
X226308187Y-105591918D01*
X226207927Y-105440262D01*
X226101818Y-105277875D01*
X225993252Y-105110026D01*
X225885625Y-104941983D01*
X225782329Y-104779019D01*
X225686761Y-104626396D01*
X225602314Y-104489389D01*
X225532383Y-104373264D01*
X225480363Y-104283291D01*
X225449649Y-104224738D01*
X225442712Y-104203991D01*
X225463126Y-104172369D01*
X225510538Y-104118519D01*
X225575025Y-104053644D01*
X225580481Y-104048449D01*
X225743941Y-103862545D01*
X225866062Y-103657749D01*
X225946520Y-103439980D01*
X225984985Y-103215157D01*
X225981130Y-102989197D01*
X225934627Y-102768016D01*
X225845148Y-102557535D01*
X225712364Y-102363666D01*
X225676101Y-102322523D01*
X225496941Y-102162152D01*
X225297706Y-102043134D01*
X225084516Y-101965193D01*
X224863491Y-101928049D01*
X224640753Y-101931426D01*
X224422421Y-101975046D01*
X224214617Y-102058633D01*
X224023461Y-102181908D01*
X223855071Y-102344592D01*
X223805178Y-102407367D01*
X223683604Y-102597772D01*
X223604376Y-102789619D01*
X223563258Y-102996252D01*
X223555135Y-103195135D01*
X223582758Y-103412262D01*
X223655393Y-103622554D01*
X223768246Y-103819314D01*
X223916527Y-103995849D01*
X224095445Y-104145461D01*
X224300205Y-104261455D01*
X224326438Y-104272862D01*
X224409843Y-104310659D01*
X224474199Y-104344802D01*
X224506215Y-104368203D01*
X224506766Y-104369024D01*
X224506332Y-104400521D01*
X224495506Y-104473740D01*
X224475680Y-104582570D01*
X224448239Y-104720902D01*
X224414576Y-104882621D01*
X224376076Y-105061620D01*
X224334131Y-105251785D01*
X224290126Y-105447007D01*
X224245454Y-105641174D01*
X224201502Y-105828175D01*
X224159659Y-106001899D01*
X224121313Y-106156235D01*
X224087855Y-106285072D01*
X224060674Y-106382299D01*
X224041158Y-106441806D01*
X224031953Y-106458153D01*
X223994178Y-106453347D01*
X223921906Y-106435340D01*
X223827633Y-106407421D01*
X223775529Y-106390569D01*
X223553868Y-106316833D01*
X223341545Y-106522402D01*
X223233211Y-106627637D01*
X223114688Y-106743322D01*
X223003692Y-106852142D01*
X222948135Y-106906879D01*
X222869718Y-106982293D01*
X222802747Y-107042906D01*
X222755988Y-107080993D01*
X222740219Y-107090081D01*
X222712791Y-107077901D01*
X222650405Y-107041392D01*
X222559161Y-106984415D01*
X222445169Y-106910823D01*
X222314529Y-106824475D01*
X222231726Y-106768844D01*
X222086416Y-106668991D01*
X221960186Y-106579021D01*
X221858187Y-106502826D01*
X221785565Y-106444300D01*
X221747470Y-106407336D01*
X221743016Y-106399257D01*
X221750884Y-106364151D01*
X221776903Y-106291386D01*
X221818074Y-106188393D01*
X221871396Y-106062604D01*
X221933872Y-105921449D01*
X221951764Y-105882013D01*
X222017011Y-105738641D01*
X222075476Y-105609608D01*
X222123895Y-105502161D01*
X222159008Y-105423546D01*
X222177550Y-105381011D01*
X222179296Y-105376644D01*
X222170295Y-105346939D01*
X222139161Y-105283627D01*
X222090820Y-105194914D01*
X222030202Y-105089001D01*
X221962236Y-104974091D01*
X221891850Y-104858392D01*
X221823973Y-104750102D01*
X221763535Y-104657426D01*
X221715463Y-104588569D01*
X221684686Y-104551732D01*
X221682666Y-104550061D01*
X221666201Y-104540886D01*
X221639836Y-104533590D01*
X221598023Y-104527916D01*
X221535210Y-104523606D01*
X221445850Y-104520401D01*
X221324390Y-104518046D01*
X221165282Y-104516280D01*
X220962976Y-104514846D01*
X220919183Y-104514590D01*
X220789150Y-104512466D01*
X220675332Y-104508028D01*
X220587824Y-104501862D01*
X220536716Y-104494550D01*
X220529587Y-104492001D01*
X220513141Y-104461161D01*
X220491570Y-104389569D01*
X220466377Y-104285720D01*
X220439068Y-104158114D01*
X220411146Y-104015252D01*
X220384117Y-103865632D01*
X220359485Y-103717753D01*
X220338755Y-103580113D01*
X220323430Y-103461212D01*
X220315019Y-103369549D01*
X220315021Y-103313625D01*
X220318830Y-103301505D01*
X220348963Y-103284647D01*
X220418861Y-103253537D01*
X220521519Y-103211043D01*
X220649933Y-103160030D01*
X220797096Y-103103360D01*
X220877386Y-103073103D01*
X221029748Y-103015867D01*
X221165547Y-102964410D01*
X221278150Y-102921283D01*
X221360924Y-102889031D01*
X221407239Y-102870208D01*
X221414757Y-102866518D01*
X221423592Y-102838322D01*
X221440925Y-102771101D01*
X221464550Y-102674410D01*
X221492262Y-102557805D01*
X221521856Y-102430847D01*
X221551127Y-102303084D01*
X221577867Y-102184078D01*
X221599875Y-102083382D01*
X221614940Y-102010550D01*
X221620861Y-101975141D01*
X221620823Y-101973645D01*
X221602813Y-101949711D01*
X221554647Y-101895819D01*
X221481329Y-101817287D01*
X221387857Y-101719431D01*
X221279235Y-101607575D01*
X221216248Y-101543429D01*
X221101320Y-101425714D01*
X220998782Y-101318523D01*
X220913669Y-101227305D01*
X220851028Y-101157508D01*
X220815891Y-101114581D01*
X220810146Y-101104582D01*
X220822361Y-101076797D01*
X220858888Y-101015629D01*
X220914913Y-100928059D01*
X220985623Y-100821063D01*
X221066208Y-100701629D01*
X221151853Y-100576728D01*
X221237746Y-100453344D01*
X221319072Y-100338457D01*
X221391021Y-100239045D01*
X221448778Y-100162089D01*
X221487530Y-100114569D01*
X221501161Y-100102455D01*
X221528396Y-100111308D01*
X221594508Y-100138008D01*
X221693042Y-100179792D01*
X221817539Y-100233894D01*
X221961541Y-100297547D01*
X222070280Y-100346212D01*
X222619911Y-100593404D01*
X222999277Y-100352622D01*
X223378644Y-100111841D01*
X223385813Y-99504173D01*
X223392984Y-98896504D01*
X224617103Y-98680659D01*
X224831677Y-99249227D01*
G36*
X224831677Y-99249227D02*
G01*
X225046250Y-99817798D01*
X225485090Y-99914307D01*
X225923930Y-100010817D01*
X226355869Y-99590547D01*
X226476930Y-99473389D01*
X226586544Y-99368514D01*
X226679582Y-99280733D01*
X226750913Y-99214855D01*
X226795407Y-99175690D01*
X226807829Y-99166746D01*
X226835255Y-99179280D01*
X226895727Y-99216632D01*
X226982337Y-99273890D01*
X227088180Y-99346136D01*
X227206348Y-99428456D01*
X227329935Y-99515933D01*
X227452031Y-99603652D01*
X227565736Y-99686698D01*
X227664138Y-99760153D01*
X227740329Y-99819103D01*
X227787406Y-99858631D01*
X227799442Y-99872516D01*
X227791106Y-99903495D01*
X227764643Y-99972812D01*
X227722917Y-100073634D01*
X227668791Y-100199137D01*
X227605129Y-100342490D01*
X227568033Y-100424393D01*
X227500462Y-100573919D01*
X227440742Y-100708630D01*
X227391746Y-100821837D01*
X227356342Y-100906854D01*
X227337399Y-100956992D01*
X227335033Y-100967246D01*
X227348992Y-100992736D01*
X227385150Y-101051505D01*
X227438171Y-101135334D01*
X227502707Y-101236005D01*
X227573421Y-101345302D01*
X227644972Y-101455008D01*
X227712014Y-101556904D01*
X227769211Y-101642774D01*
X227811220Y-101704402D01*
X227832697Y-101733566D01*
X227833853Y-101734658D01*
X227859807Y-101736375D01*
X227928458Y-101738305D01*
X228032708Y-101740326D01*
X228165449Y-101742307D01*
X228319581Y-101744122D01*
X228409476Y-101744992D01*
X228574226Y-101747234D01*
X228723294Y-101750728D01*
X228849116Y-101755173D01*
X228944129Y-101760276D01*
X229000769Y-101765743D01*
X229012461Y-101768584D01*
X229028768Y-101798893D01*
X229050164Y-101870070D01*
X229075154Y-101973611D01*
X229102248Y-102101017D01*
X229129952Y-102243784D01*
X229156771Y-102393414D01*
X229181213Y-102541405D01*
X229201787Y-102679256D01*
X229216998Y-102798464D01*
X229225356Y-102890532D01*
X229225364Y-102946955D01*
X229221590Y-102959368D01*
X229189433Y-102979115D01*
X229119635Y-103011552D01*
X229021479Y-103052672D01*
X228904248Y-103098477D01*
X228863215Y-103113844D01*
X228665282Y-103187373D01*
X228509032Y-103246035D01*
X228389336Y-103291969D01*
X228301067Y-103327313D01*
X228239098Y-103354209D01*
X228198304Y-103374796D01*
X228173554Y-103391221D01*
X228159724Y-103405617D01*
X228157908Y-103408301D01*
X228142245Y-103449132D01*
X228121093Y-103526954D01*
X228096276Y-103632367D01*
X228069615Y-103755980D01*
X228042942Y-103888399D01*
X228018080Y-104020228D01*
X227996857Y-104142072D01*
X227981096Y-104244540D01*
X227972625Y-104318233D01*
X227973268Y-104353761D01*
X227973935Y-104354893D01*
X227997389Y-104379889D01*
X228050258Y-104434663D01*
X228126994Y-104513524D01*
X228222055Y-104610778D01*
X228329896Y-104720727D01*
X228360593Y-104751964D01*
X228470425Y-104865466D01*
X228567809Y-104969524D01*
X228647381Y-105058124D01*
X228703773Y-105125248D01*
X228731619Y-105164883D01*
X228733535Y-105170018D01*
X228721458Y-105200912D01*
X228684241Y-105264457D01*
X228626871Y-105353650D01*
X228554342Y-105461486D01*
X228471641Y-105580962D01*
X228383758Y-105705074D01*
X228295683Y-105826818D01*
X228212407Y-105939190D01*
X228138917Y-106035183D01*
X228080205Y-106107798D01*
X228041261Y-106150028D01*
X228029803Y-106157822D01*
X227998506Y-106149741D01*
X227932919Y-106124628D01*
X227843760Y-106086773D01*
X227774833Y-106055802D01*
X227649778Y-105998723D01*
X227501771Y-105931650D01*
X227353387Y-105864791D01*
X227273651Y-105829066D01*
X227003823Y-105708513D01*
X226820751Y-105853613D01*
X226737010Y-105917802D01*
X226665183Y-105968884D01*
X226615885Y-105999487D01*
X226602905Y-106004825D01*
X226582818Y-105985857D01*
X226539910Y-105929812D01*
X226477572Y-105841962D01*
X226399199Y-105727574D01*
X226308187Y-105591918D01*
X226207927Y-105440262D01*
X226101818Y-105277875D01*
X225993252Y-105110026D01*
X225885625Y-104941983D01*
X225782329Y-104779019D01*
X225686761Y-104626396D01*
X225602314Y-104489389D01*
X225532383Y-104373264D01*
X225480363Y-104283291D01*
X225449649Y-104224738D01*
X225442712Y-104203991D01*
X225463126Y-104172369D01*
X225510538Y-104118519D01*
X225575025Y-104053644D01*
X225580481Y-104048449D01*
X225743941Y-103862545D01*
X225866062Y-103657749D01*
X225946520Y-103439980D01*
X225984985Y-103215157D01*
X225981130Y-102989197D01*
X225934627Y-102768016D01*
X225845148Y-102557535D01*
X225712364Y-102363666D01*
X225676101Y-102322523D01*
X225496941Y-102162152D01*
X225297706Y-102043134D01*
X225084516Y-101965193D01*
X224863491Y-101928049D01*
X224640753Y-101931426D01*
X224422421Y-101975046D01*
X224214617Y-102058633D01*
X224023461Y-102181908D01*
X223855071Y-102344592D01*
X223805178Y-102407367D01*
X223683604Y-102597772D01*
X223604376Y-102789619D01*
X223563258Y-102996252D01*
X223555135Y-103195135D01*
X223582758Y-103412262D01*
X223655393Y-103622554D01*
X223768246Y-103819314D01*
X223916527Y-103995849D01*
X224095445Y-104145461D01*
X224300205Y-104261455D01*
X224326438Y-104272862D01*
X224409843Y-104310659D01*
X224474199Y-104344802D01*
X224506215Y-104368203D01*
X224506766Y-104369024D01*
X224506332Y-104400521D01*
X224495506Y-104473740D01*
X224475680Y-104582570D01*
X224448239Y-104720902D01*
X224414576Y-104882621D01*
X224376076Y-105061620D01*
X224334131Y-105251785D01*
X224290126Y-105447007D01*
X224245454Y-105641174D01*
X224201502Y-105828175D01*
X224159659Y-106001899D01*
X224121313Y-106156235D01*
X224087855Y-106285072D01*
X224060674Y-106382299D01*
X224041158Y-106441806D01*
X224031953Y-106458153D01*
X223994178Y-106453347D01*
X223921906Y-106435340D01*
X223827633Y-106407421D01*
X223775529Y-106390569D01*
X223553868Y-106316833D01*
X223341545Y-106522402D01*
X223233211Y-106627637D01*
X223114688Y-106743322D01*
X223003692Y-106852142D01*
X222948135Y-106906879D01*
X222869718Y-106982293D01*
X222802747Y-107042906D01*
X222755988Y-107080993D01*
X222740219Y-107090081D01*
X222712791Y-107077901D01*
X222650405Y-107041392D01*
X222559161Y-106984415D01*
X222445169Y-106910823D01*
X222314529Y-106824475D01*
X222231726Y-106768844D01*
X222086416Y-106668991D01*
X221960186Y-106579021D01*
X221858187Y-106502826D01*
X221785565Y-106444300D01*
X221747470Y-106407336D01*
X221743016Y-106399257D01*
X221750884Y-106364151D01*
X221776903Y-106291386D01*
X221818074Y-106188393D01*
X221871396Y-106062604D01*
X221933872Y-105921449D01*
X221951764Y-105882013D01*
X222017011Y-105738641D01*
X222075476Y-105609608D01*
X222123895Y-105502161D01*
X222159008Y-105423546D01*
X222177550Y-105381011D01*
X222179296Y-105376644D01*
X222170295Y-105346939D01*
X222139161Y-105283627D01*
X222090820Y-105194914D01*
X222030202Y-105089001D01*
X221962236Y-104974091D01*
X221891850Y-104858392D01*
X221823973Y-104750102D01*
X221763535Y-104657426D01*
X221715463Y-104588569D01*
X221684686Y-104551732D01*
X221682666Y-104550061D01*
X221666201Y-104540886D01*
X221639836Y-104533590D01*
X221598023Y-104527916D01*
X221535210Y-104523606D01*
X221445850Y-104520401D01*
X221324390Y-104518046D01*
X221165282Y-104516280D01*
X220962976Y-104514846D01*
X220919183Y-104514590D01*
X220789150Y-104512466D01*
X220675332Y-104508028D01*
X220587824Y-104501862D01*
X220536716Y-104494550D01*
X220529587Y-104492001D01*
X220513141Y-104461161D01*
X220491570Y-104389569D01*
X220466377Y-104285720D01*
X220439068Y-104158114D01*
X220411146Y-104015252D01*
X220384117Y-103865632D01*
X220359485Y-103717753D01*
X220338755Y-103580113D01*
X220323430Y-103461212D01*
X220315019Y-103369549D01*
X220315021Y-103313625D01*
X220318830Y-103301505D01*
X220348963Y-103284647D01*
X220418861Y-103253537D01*
X220521519Y-103211043D01*
X220649933Y-103160030D01*
X220797096Y-103103360D01*
X220877386Y-103073103D01*
X221029748Y-103015867D01*
X221165547Y-102964410D01*
X221278150Y-102921283D01*
X221360924Y-102889031D01*
X221407239Y-102870208D01*
X221414757Y-102866518D01*
X221423592Y-102838322D01*
X221440925Y-102771101D01*
X221464550Y-102674410D01*
X221492262Y-102557805D01*
X221521856Y-102430847D01*
X221551127Y-102303084D01*
X221577867Y-102184078D01*
X221599875Y-102083382D01*
X221614940Y-102010550D01*
X221620861Y-101975141D01*
X221620823Y-101973645D01*
X221602813Y-101949711D01*
X221554647Y-101895819D01*
X221481329Y-101817287D01*
X221387857Y-101719431D01*
X221279235Y-101607575D01*
X221216248Y-101543429D01*
X221101320Y-101425714D01*
X220998782Y-101318523D01*
X220913669Y-101227305D01*
X220851028Y-101157508D01*
X220815891Y-101114581D01*
X220810146Y-101104582D01*
X220822361Y-101076797D01*
X220858888Y-101015629D01*
X220914913Y-100928059D01*
X220985623Y-100821063D01*
X221066208Y-100701629D01*
X221151853Y-100576728D01*
X221237746Y-100453344D01*
X221319072Y-100338457D01*
X221391021Y-100239045D01*
X221448778Y-100162089D01*
X221487530Y-100114569D01*
X221501161Y-100102455D01*
X221528396Y-100111308D01*
X221594508Y-100138008D01*
X221693042Y-100179792D01*
X221817539Y-100233894D01*
X221961541Y-100297547D01*
X222070280Y-100346212D01*
X222619911Y-100593404D01*
X222999277Y-100352622D01*
X223378644Y-100111841D01*
X223385813Y-99504173D01*
X223392984Y-98896504D01*
X224617103Y-98680659D01*
X224831677Y-99249227D01*
G37*
%TD*%
D12*
%TO.C,T1*%
X180480220Y-33379193D03*
X183480210Y-33379189D03*
%TD*%
D13*
%TO.C,*%
X152330207Y-140440197D03*
X152813480Y-139273470D03*
X152813483Y-141606925D03*
X153980208Y-138790194D03*
D14*
X153980209Y-140440196D03*
D13*
X153980210Y-142090198D03*
X155146935Y-139273467D03*
X155146938Y-141606922D03*
X155630211Y-140440195D03*
%TD*%
%TO.C,*%
X185103340Y-132877932D03*
X184671422Y-131691236D03*
X186247879Y-133411635D03*
X187434575Y-132979717D03*
D14*
X186319850Y-131763207D03*
D13*
X185205125Y-130546697D03*
X186391821Y-130114779D03*
X187968278Y-131835178D03*
X187536360Y-130648482D03*
%TD*%
%TO.C,*%
X53409003Y-67205433D03*
X54087535Y-66140350D03*
X53682335Y-68438352D03*
X55320454Y-65867018D03*
D14*
X55033936Y-67491951D03*
D13*
X54747418Y-69116884D03*
X56385537Y-66545550D03*
X55980337Y-68843552D03*
X56658869Y-67778469D03*
%TD*%
%TO.C,*%
X190919018Y-37057671D03*
X190974102Y-35796020D03*
X191772192Y-37988746D03*
X191905177Y-34942846D03*
D14*
X192469510Y-36493338D03*
D13*
X193033843Y-38043830D03*
X193166828Y-34997930D03*
X193964918Y-37190656D03*
X194020002Y-35929005D03*
%TD*%
%TO.C,*%
X251301577Y-67778464D03*
X251574910Y-66545544D03*
X251980111Y-68843545D03*
X252639991Y-65867010D03*
D14*
X252926511Y-67491944D03*
D13*
X253213031Y-69116878D03*
X253872911Y-66140343D03*
X254278112Y-68438344D03*
X254551445Y-67205424D03*
%TD*%
D15*
%TO.C,ENC1*%
X148380221Y-115740203D03*
D16*
X159580221Y-115740205D03*
D17*
X156480222Y-123240201D03*
X151480222Y-123240205D03*
X153980221Y-123240208D03*
%TD*%
D13*
%TO.C,*%
X113940453Y-35928998D03*
X114793624Y-34997921D03*
X113995538Y-37190649D03*
X116055275Y-34942836D03*
D14*
X115490945Y-36493328D03*
D13*
X114926615Y-38043820D03*
X116986352Y-35796007D03*
X116188266Y-37988735D03*
X117041437Y-37057658D03*
%TD*%
%TO.C,*%
X209122102Y-54908382D03*
X209177186Y-53646731D03*
X209975276Y-55839457D03*
X210108261Y-52793557D03*
D14*
X210672594Y-54344049D03*
D13*
X211236927Y-55894541D03*
X211369912Y-52848641D03*
X212168002Y-55041367D03*
X212223086Y-53779716D03*
%TD*%
%TO.C,*%
X241827618Y-107629030D03*
X242100951Y-106396110D03*
X242506152Y-108694111D03*
X243166032Y-105717576D03*
D14*
X243452552Y-107342510D03*
D13*
X243739072Y-108967444D03*
X244398952Y-105990909D03*
X244804153Y-108288910D03*
X245077486Y-107055990D03*
%TD*%
%TO.C,*%
X62882958Y-107055983D03*
X63561490Y-105990900D03*
X63156290Y-108288902D03*
X64794409Y-105717568D03*
D14*
X64507891Y-107342501D03*
D13*
X64221373Y-108967434D03*
X65859492Y-106396100D03*
X65454292Y-108694102D03*
X66132824Y-107629019D03*
%TD*%
%TO.C,*%
X120424078Y-130648492D03*
X121568616Y-130114785D03*
X119992159Y-131835186D03*
X122755310Y-130546704D03*
D14*
X121640588Y-131763214D03*
D13*
X120525866Y-132979724D03*
X123289017Y-131691242D03*
X121712560Y-133411643D03*
X122857098Y-132877936D03*
%TD*%
%TO.C,*%
X95737364Y-53779724D03*
X96590535Y-52848647D03*
X95792449Y-55041375D03*
X97852186Y-52793562D03*
D14*
X97287856Y-54344054D03*
D13*
X96723526Y-55894546D03*
X98783263Y-53646733D03*
X97985177Y-55839461D03*
X98838348Y-54908384D03*
%TD*%
%TO.C,*%
X152330226Y-35179194D03*
X152813499Y-34012467D03*
X152813502Y-36345922D03*
X153980227Y-33529191D03*
D14*
X153980228Y-35179193D03*
D13*
X153980229Y-36829195D03*
X155146954Y-34012464D03*
X155146957Y-36345919D03*
X155630230Y-35179192D03*
%TD*%
D18*
%TO.C,B1*%
X237005657Y-47523212D03*
X236293909Y-44866912D03*
%TD*%
D19*
%TO.C,S20*%
X221793886Y-52244348D03*
D20*
X224827509Y-46565695D03*
X217794272Y-47363203D03*
%TD*%
D19*
%TO.C,S4*%
X76331424Y-88949543D03*
D20*
X81797946Y-85548495D03*
X75308227Y-82722539D03*
%TD*%
D19*
%TO.C,S5*%
X81248982Y-70596942D03*
D20*
X86715504Y-67195894D03*
X80225785Y-64369938D03*
%TD*%
D19*
%TO.C,S3*%
X64757830Y-58415482D03*
D20*
X70224352Y-55014434D03*
X63734633Y-52188478D03*
%TD*%
D19*
%TO.C,S24*%
X195478582Y-100312970D03*
D20*
X197745038Y-94286932D03*
X190876069Y-95995639D03*
%TD*%
D19*
%TO.C,S10*%
X112481864Y-100312972D03*
D20*
X118345542Y-97654545D03*
X112280210Y-94005687D03*
%TD*%
D19*
%TO.C,S28*%
X168230225Y-84179003D03*
D20*
X170496681Y-78152965D03*
X163627712Y-79861672D03*
%TD*%
D19*
%TO.C,S26*%
X180936617Y-65205551D03*
D20*
X183203073Y-59179513D03*
X176334104Y-60888220D03*
%TD*%
D19*
%TO.C,S11*%
X119752846Y-82759259D03*
D20*
X125616524Y-80100832D03*
X119551192Y-76451974D03*
%TD*%
D19*
%TO.C,S16*%
X250176160Y-79248144D03*
D20*
X253693163Y-73855499D03*
X246617179Y-74036984D03*
%TD*%
D19*
%TO.C,S12*%
X127023829Y-65205558D03*
D20*
X132887507Y-62547131D03*
X126822175Y-58898273D03*
%TD*%
D19*
%TO.C,S14*%
X139730230Y-84179020D03*
D20*
X145593908Y-81520593D03*
X139528576Y-77871735D03*
%TD*%
D19*
%TO.C,S23*%
X197086783Y-49179191D03*
D20*
X199613934Y-43257750D03*
X192676969Y-44665210D03*
%TD*%
D19*
%TO.C,S18*%
X231629035Y-88949537D03*
D20*
X234662658Y-83270884D03*
X227629421Y-84068392D03*
%TD*%
D19*
%TO.C,S22*%
X203585161Y-67033343D03*
D20*
X206112312Y-61111902D03*
X199175347Y-62519362D03*
%TD*%
D19*
%TO.C,S19*%
X226711464Y-70596956D03*
D20*
X229745087Y-64918303D03*
X222711850Y-65715811D03*
%TD*%
D19*
%TO.C,S9*%
X110873663Y-49179193D03*
D20*
X116615801Y-46267524D03*
X110397081Y-42886707D03*
%TD*%
D19*
%TO.C,S27*%
X175501208Y-101732709D03*
D20*
X177767664Y-95706671D03*
X170898695Y-97415378D03*
%TD*%
D19*
%TO.C,S30*%
X173449817Y-134740183D03*
D20*
X173518563Y-128302391D03*
X167648250Y-132257373D03*
%TD*%
D19*
%TO.C,S21*%
X210083547Y-84887509D03*
D20*
X212610698Y-78966068D03*
X205673733Y-80373528D03*
%TD*%
D19*
%TO.C,S2*%
X57784274Y-79248148D03*
D20*
X62933568Y-75383605D03*
X56222252Y-73134018D03*
%TD*%
D19*
%TO.C,S1*%
X54484949Y-97959501D03*
D20*
X59634243Y-94094958D03*
X52922927Y-91845371D03*
%TD*%
D19*
%TO.C,S8*%
X104375283Y-67033357D03*
D20*
X110117421Y-64121688D03*
X103898701Y-60740871D03*
%TD*%
D19*
%TO.C,S25*%
X188207592Y-82759253D03*
D20*
X190474048Y-76733215D03*
X183605079Y-78441922D03*
%TD*%
D19*
%TO.C,S13*%
X132459245Y-101732729D03*
D20*
X138322923Y-99074302D03*
X132257591Y-95425444D03*
%TD*%
D19*
%TO.C,S6*%
X86166553Y-52244345D03*
D20*
X91633075Y-48843297D03*
X85143356Y-46017341D03*
%TD*%
D19*
%TO.C,S15*%
X253475480Y-97959487D03*
D20*
X256992483Y-92566842D03*
X249916499Y-92748327D03*
%TD*%
D19*
%TO.C,S7*%
X97876881Y-84887507D03*
D20*
X103619019Y-81975838D03*
X97400299Y-78595021D03*
%TD*%
D19*
%TO.C,S29*%
X134510623Y-134740199D03*
D20*
X140929910Y-134247593D03*
X136478348Y-128744322D03*
%TD*%
D19*
%TO.C,S17*%
X243202614Y-58415469D03*
D20*
X246236237Y-52736816D03*
X239203000Y-53534324D03*
%TD*%
M02*
