M48
; DRILL file {KiCad 8.0.7} date 2025-03-10T17:40:13-0700
; FORMAT={-:-/ absolute / inch / decimal}
; #@! TF.CreationDate,2025-03-10T17:40:13-07:00
; #@! TF.GenerationSoftware,Kicad,Pcbnew,8.0.7
; #@! TF.FileFunction,NonPlated,1,2,NPTH
FMAT,2
INCH
; #@! TA.AperFunction,NonPlated,NPTH,ComponentDrill
T1C0.0354
; #@! TA.AperFunction,NonPlated,NPTH,ComponentDrill
T2C0.0748
; #@! TA.AperFunction,NonPlated,NPTH,ComponentDrill
T3C0.1181
; #@! TA.AperFunction,NonPlated,NPTH,ComponentDrill
T4C0.1969
%
G90
G05
T1
X6.7407Y-1.4799
X6.8588Y-1.4799
T2
X1.7885Y-3.8746
X1.9184Y-3.1379
X2.197Y-2.2993
X2.215Y-3.9498
X2.3449Y-3.2131
X2.6153Y-2.4113
X2.6527Y-3.5014
X2.8463Y-2.7788
X3.0399Y-2.0563
X3.071Y-3.6135
X3.2646Y-2.8909
X3.4582Y-2.1684
X3.5066Y-3.3235
X3.7625Y-2.6205
X3.9136Y-3.4716
X4.0183Y-1.9176
X4.085Y-3.9219
X4.1694Y-2.7687
X4.3713Y-3.2309
X4.4252Y-2.0657
X4.4851Y-4.0877
X4.5684Y-4.7291
X4.6576Y-2.5398
X4.7714Y-3.3966
X4.8715Y-3.9778
X4.9119Y-4.9927
X5.0577Y-2.7055
X5.1578Y-3.2868
X5.1618Y-5.1845
X5.2717Y-4.1436
X5.5054Y-5.4481
X5.5579Y-3.4525
X6.4669Y-3.4525
X6.5194Y-5.4481
X6.7531Y-4.1436
X6.863Y-5.1845
X6.867Y-3.2868
X6.9671Y-2.7055
X7.1128Y-4.9927
X7.1532Y-3.9778
X7.2534Y-3.3966
X7.3672Y-2.5398
X7.4564Y-4.7291
X7.5396Y-4.0877
X7.5995Y-2.0657
X7.6535Y-3.2309
X7.8554Y-2.7687
X7.9397Y-3.9219
X8.0065Y-1.9176
X8.1112Y-3.4716
X8.2623Y-2.6205
X8.5182Y-3.3235
X8.5666Y-2.1684
X8.7602Y-2.8909
X8.9538Y-3.6135
X8.9849Y-2.0563
X9.1785Y-2.7788
X9.3721Y-3.5014
X9.4094Y-2.4113
X9.6799Y-3.2131
X9.8098Y-3.9498
X9.8277Y-2.2993
X10.1064Y-3.1379
X10.2363Y-3.8746
T3
X2.0424Y-3.6815
X2.1723Y-2.9448
X2.2212Y-3.8009
X2.3511Y-3.0643
X2.4668Y-2.129
X2.6345Y-2.2636
X2.9225Y-3.3312
X3.0902Y-3.4658
X3.1161Y-2.6086
X3.2838Y-2.7432
X3.3097Y-1.8861
X3.4774Y-2.0207
X3.7902Y-3.1774
X3.9456Y-3.3261
X4.046Y-2.4745
X4.2014Y-2.6232
X4.3019Y-1.7715
X4.3747Y-3.7884
X4.4572Y-1.9203
X4.5235Y-3.9437
X4.661Y-3.0973
X4.8097Y-3.2527
X4.8827Y-4.6751
X4.9472Y-2.4062
X4.9862Y-4.8636
X5.096Y-2.5616
X5.1612Y-3.8443
X5.31Y-3.9996
X5.4475Y-3.1532
X5.4762Y-5.1304
X5.5796Y-5.319
X5.5962Y-3.3085
X6.5486Y-5.1304
X6.5773Y-3.1532
X6.7575Y-5.0793
X6.7923Y-3.1579
X6.8635Y-3.8443
X7.0775Y-2.4062
X7.0785Y-3.849
X7.142Y-4.6751
X7.2925Y-2.4109
X7.3509Y-4.624
X7.3638Y-3.0973
X7.5788Y-3.102
X7.65Y-3.7884
X7.7229Y-1.7715
X7.865Y-3.7931
X7.9375Y-1.7856
X7.9787Y-2.4745
X8.1933Y-2.4885
X8.2346Y-3.1774
X8.4492Y-3.1915
X8.7151Y-1.8861
X8.9087Y-2.6086
X8.9276Y-1.9188
X9.1023Y-3.3312
X9.1213Y-2.6413
X9.3149Y-3.3639
X9.558Y-2.129
X9.7705Y-2.1617
X9.8525Y-2.9448
X9.9823Y-3.6815
X10.0614Y-2.9959
X10.1912Y-3.7326
T4
X2.0017Y-3.9122
X2.1316Y-3.1755
X2.4062Y-2.3553
X2.8618Y-3.5574
X3.0554Y-2.8349
X3.2491Y-2.1123
X3.7101Y-3.3975
X3.9659Y-2.6946
X4.2218Y-1.9917
X4.2851Y-4.0048
X4.5713Y-3.3137
X4.7401Y-4.8609
X4.8576Y-2.6226
X5.0716Y-4.0607
X5.3336Y-5.3163
X5.3579Y-3.3696
X6.6669Y-3.3696
X6.6912Y-5.3163
X6.9532Y-4.0607
X7.1672Y-2.6226
X7.2846Y-4.8609
X7.4534Y-3.3137
X7.7397Y-4.0048
X7.803Y-1.9917
X8.0588Y-2.6946
X8.3147Y-3.3975
X8.7757Y-2.1123
X8.9693Y-2.8349
X9.1629Y-3.5574
X9.6186Y-2.3553
X9.8931Y-3.1755
X10.023Y-3.9122
M30
