%TF.GenerationSoftware,KiCad,Pcbnew,8.0.7*%
%TF.CreationDate,2024-12-24T09:40:09-07:00*%
%TF.ProjectId,chuck,63687563-6b2e-46b6-9963-61645f706362,v1.0*%
%TF.SameCoordinates,Original*%
%TF.FileFunction,Profile,NP*%
%FSLAX46Y46*%
G04 Gerber Fmt 4.6, Leading zero omitted, Abs format (unit mm)*
G04 Created by KiCad (PCBNEW 8.0.7) date 2024-12-24 09:40:09*
%MOMM*%
%LPD*%
G01*
G04 APERTURE LIST*
%TA.AperFunction,Profile*%
%ADD10C,0.150000*%
%TD*%
G04 APERTURE END LIST*
D10*
X147480221Y-73679192D02*
G75*
G02*
X146480208Y-72679186I-21J999992D01*
G01*
X201480214Y-31245891D02*
G75*
G02*
X203275981Y-32560101I-83514J-1998109D01*
G01*
X169480225Y-72679190D02*
X169480217Y-41679193D01*
X50512379Y-65780787D02*
X50862104Y-65842457D01*
X138686160Y-152540192D02*
X169274270Y-152540189D01*
X209956884Y-117310409D02*
X264828111Y-107635124D01*
X126980219Y-52729192D02*
G75*
G02*
X125980208Y-51729187I181J1000192D01*
G01*
X98003545Y-117310396D02*
G75*
G02*
X99007433Y-117805463I-347245J-1969504D01*
G01*
X259764971Y-67403126D02*
X263150998Y-86606244D01*
X139980215Y-51729198D02*
G75*
G02*
X138980209Y-52729115I-1000015J98D01*
G01*
X126114201Y-31229194D02*
X106480212Y-31229192D01*
X257098351Y-65842465D02*
X257448068Y-65780798D01*
X99007442Y-117805453D02*
X135772985Y-151494865D01*
X125980213Y-31729188D02*
X125980213Y-51729187D01*
X147480221Y-73679192D02*
X168480227Y-73679185D01*
X168480224Y-40679190D02*
G75*
G02*
X169480210Y-41679193I176J-999810D01*
G01*
X139980215Y-51729198D02*
X139980227Y-31729186D01*
X43132326Y-107635117D02*
G75*
G02*
X41510068Y-105318210I347374J1969617D01*
G01*
X59593220Y-40984856D02*
X74161346Y-44888358D01*
X101086196Y-42446300D02*
G75*
G02*
X98689174Y-43694092I-1879296J683900D01*
G01*
X146480236Y-41679180D02*
X146480227Y-72679186D01*
X250816716Y-42399059D02*
X257098351Y-65842465D01*
X201480237Y-31229192D02*
X139846247Y-31229195D01*
X257448068Y-65780798D02*
G75*
G02*
X259764897Y-67403139I347232J-1969602D01*
G01*
X77517171Y-40091646D02*
G75*
G02*
X79966658Y-38677472I1931829J-517654D01*
G01*
X138686160Y-152540192D02*
G75*
G02*
X135772973Y-151494878I-210860J3994392D01*
G01*
X43132326Y-107635117D02*
X98003545Y-117310396D01*
X172187466Y-151494868D02*
X208952994Y-117805464D01*
X203275959Y-32560109D02*
X206874251Y-42446297D01*
X266450435Y-105318205D02*
G75*
G02*
X264828112Y-107635132I-1969635J-347295D01*
G01*
X209271277Y-43694104D02*
X227993784Y-38677439D01*
X248367214Y-40984857D02*
G75*
G02*
X250816634Y-42399079I517586J-1931843D01*
G01*
X263151120Y-86606859D02*
G75*
G02*
X263150997Y-86606244I4180J1159D01*
G01*
X139846247Y-31229195D02*
G75*
G02*
X139980238Y-31729186I-865547J-499905D01*
G01*
X106480212Y-31229192D02*
X106480220Y-31245893D01*
X233799089Y-44888360D02*
X248367214Y-40984857D01*
X208952994Y-117805464D02*
G75*
G02*
X209956884Y-117310410I1351106J-1474436D01*
G01*
X168480224Y-40679190D02*
X147480221Y-40679188D01*
X233799089Y-44888360D02*
G75*
G02*
X231349534Y-43474166I-517689J1931860D01*
G01*
X76610831Y-43474139D02*
G75*
G02*
X74161335Y-44888397I-1931831J517539D01*
G01*
X41510011Y-105318200D02*
X44809338Y-86606868D01*
X231349602Y-43474148D02*
X230443276Y-40091649D01*
X169480225Y-72679190D02*
G75*
G02*
X168480227Y-73679225I-1000125J90D01*
G01*
X172187466Y-151494868D02*
G75*
G02*
X169274271Y-152540166I-2702266J2948968D01*
G01*
X50862104Y-65842457D02*
X57143749Y-42399059D01*
X79966669Y-38677433D02*
X98689172Y-43694101D01*
X48195471Y-67403115D02*
G75*
G02*
X50512388Y-65780736I1969729J-347385D01*
G01*
X44809432Y-86606238D02*
G75*
G02*
X44809335Y-86606867I-6232J638D01*
G01*
X57143744Y-42399052D02*
G75*
G02*
X59593207Y-40984906I1931856J-517748D01*
G01*
X44809432Y-86606238D02*
X48195471Y-67403115D01*
X146480236Y-41679180D02*
G75*
G02*
X147480221Y-40679136I1000064J-20D01*
G01*
X209271277Y-43694104D02*
G75*
G02*
X206874180Y-42446323I-517677J1931904D01*
G01*
X77517171Y-40091646D02*
X76610831Y-43474139D01*
X201480214Y-31245891D02*
X201480237Y-31229192D01*
X126980219Y-52729192D02*
X138980209Y-52729193D01*
X227993784Y-38677439D02*
G75*
G02*
X230443253Y-40091655I517616J-1931861D01*
G01*
X104684464Y-32560102D02*
G75*
G02*
X106480220Y-31245884I1879436J-684098D01*
G01*
X263151117Y-86606865D02*
X266450435Y-105318205D01*
X101086196Y-42446300D02*
X104684464Y-32560102D01*
X125980213Y-31729188D02*
G75*
G02*
X126114198Y-31229192I999587J88D01*
G01*
M02*
