%TF.GenerationSoftware,KiCad,Pcbnew,8.0.7*%
%TF.CreationDate,2025-02-03T22:04:45-07:00*%
%TF.ProjectId,chuck,63687563-6b2e-46b6-9963-61645f706362,v1.2*%
%TF.SameCoordinates,Original*%
%TF.FileFunction,Soldermask,Top*%
%TF.FilePolarity,Negative*%
%FSLAX46Y46*%
G04 Gerber Fmt 4.6, Leading zero omitted, Abs format (unit mm)*
G04 Created by KiCad (PCBNEW 8.0.7) date 2025-02-03 22:04:45*
%MOMM*%
%LPD*%
G01*
G04 APERTURE LIST*
G04 Aperture macros list*
%AMFreePoly0*
4,1,15,0.975355,0.935355,1.335355,0.575355,1.350000,0.540000,1.350000,-0.900000,1.335355,-0.935355,1.300000,-0.950000,-1.300000,-0.950000,-1.335355,-0.935355,-1.350000,-0.900000,-1.350000,0.540000,-1.335355,0.575355,-0.975355,0.935355,-0.940000,0.950000,0.940000,0.950000,0.975355,0.935355,0.975355,0.935355,$1*%
%AMFreePoly1*
4,1,15,1.335355,0.935355,1.350000,0.900000,1.350000,-0.540000,1.335355,-0.575355,0.975355,-0.935355,0.940000,-0.950000,-0.940000,-0.950000,-0.975355,-0.935355,-1.335355,-0.575355,-1.350000,-0.540000,-1.350000,0.900000,-1.335355,0.935355,-1.300000,0.950000,1.300000,0.950000,1.335355,0.935355,1.335355,0.935355,$1*%
G04 Aperture macros list end*
%ADD10C,0.500000*%
%ADD11C,0.010000*%
%ADD12C,1.100000*%
%ADD13C,0.800000*%
%ADD14C,4.500000*%
%ADD15C,0.850000*%
%ADD16FreePoly0,270.000000*%
%ADD17FreePoly1,270.000000*%
%ADD18O,1.700000X1.200000*%
%ADD19C,5.700000*%
%ADD20C,3.600000*%
G04 APERTURE END LIST*
D10*
X66695151Y-107349154D02*
X67257898Y-107448381D01*
X67257898Y-107448381D02*
X67514465Y-107638682D01*
X67514465Y-107638682D02*
X67746225Y-107969669D01*
X67746225Y-107969669D02*
X67787684Y-108557223D01*
X67787684Y-108557223D02*
X67614036Y-109542031D01*
X67614036Y-109542031D02*
X67374122Y-110079972D01*
X67374122Y-110079972D02*
X67043134Y-110311731D01*
X67043134Y-110311731D02*
X66736954Y-110402804D01*
X66736954Y-110402804D02*
X66174206Y-110303577D01*
X66174206Y-110303577D02*
X65917640Y-110113276D01*
X65917640Y-110113276D02*
X65685880Y-109782289D01*
X65685880Y-109782289D02*
X65644421Y-109194735D01*
X65644421Y-109194735D02*
X65818069Y-108209927D01*
X65818069Y-108209927D02*
X66057983Y-107671987D01*
X66057983Y-107671987D02*
X66388970Y-107440227D01*
X66388970Y-107440227D02*
X66695151Y-107349154D01*
X69053865Y-108780485D02*
X68706569Y-110750101D01*
X69004252Y-109061859D02*
X69169745Y-108945979D01*
X69169745Y-108945979D02*
X69475926Y-108854906D01*
X69475926Y-108854906D02*
X69897986Y-108929327D01*
X69897986Y-108929327D02*
X70154553Y-109119627D01*
X70154553Y-109119627D02*
X70245626Y-109425808D01*
X70245626Y-109425808D02*
X69972750Y-110973363D01*
X72529920Y-111279200D02*
X72223740Y-111370273D01*
X72223740Y-111370273D02*
X71660993Y-111271045D01*
X71660993Y-111271045D02*
X71404426Y-111080745D01*
X71404426Y-111080745D02*
X71313353Y-110774564D01*
X71313353Y-110774564D02*
X71511808Y-109649070D01*
X71511808Y-109649070D02*
X71702108Y-109392503D01*
X71702108Y-109392503D02*
X72008289Y-109301430D01*
X72008289Y-109301430D02*
X72571036Y-109400657D01*
X72571036Y-109400657D02*
X72827603Y-109590958D01*
X72827603Y-109590958D02*
X72918676Y-109897139D01*
X72918676Y-109897139D02*
X72869062Y-110178512D01*
X72869062Y-110178512D02*
X71412580Y-110211817D01*
X76683916Y-109110442D02*
X76262199Y-111502118D01*
X76262199Y-111502118D02*
X76353272Y-111808299D01*
X76353272Y-111808299D02*
X76469152Y-111973793D01*
X76469152Y-111973793D02*
X76725718Y-112164093D01*
X76725718Y-112164093D02*
X77288466Y-112263321D01*
X77288466Y-112263321D02*
X77594646Y-112172248D01*
X77594646Y-112172248D02*
X77760140Y-112056368D01*
X77760140Y-112056368D02*
X77950440Y-111799801D01*
X77950440Y-111799801D02*
X78372157Y-109408125D01*
X79605377Y-110641002D02*
X79084433Y-113595425D01*
X79580570Y-110781688D02*
X79886751Y-110690615D01*
X79886751Y-110690615D02*
X80449498Y-110789843D01*
X80449498Y-110789843D02*
X80706065Y-110980143D01*
X80706065Y-110980143D02*
X80821945Y-111145637D01*
X80821945Y-111145637D02*
X80913018Y-111451818D01*
X80913018Y-111451818D02*
X80764177Y-112295939D01*
X80764177Y-112295939D02*
X80573876Y-112552505D01*
X80573876Y-112552505D02*
X80408382Y-112668385D01*
X80408382Y-112668385D02*
X80102202Y-112759458D01*
X80102202Y-112759458D02*
X79539455Y-112660231D01*
X79539455Y-112660231D02*
X79282888Y-112469930D01*
X85919975Y-113495167D02*
X85754482Y-113611047D01*
X85754482Y-113611047D02*
X85307614Y-113677313D01*
X85307614Y-113677313D02*
X85026241Y-113627699D01*
X85026241Y-113627699D02*
X84628987Y-113412592D01*
X84628987Y-113412592D02*
X84397227Y-113081604D01*
X84397227Y-113081604D02*
X84306154Y-112775424D01*
X84306154Y-112775424D02*
X84264695Y-112187870D01*
X84264695Y-112187870D02*
X84339116Y-111765809D01*
X84339116Y-111765809D02*
X84579030Y-111227869D01*
X84579030Y-111227869D02*
X84769330Y-110971302D01*
X84769330Y-110971302D02*
X85100318Y-110739542D01*
X85100318Y-110739542D02*
X85547185Y-110673276D01*
X85547185Y-110673276D02*
X85828559Y-110722890D01*
X85828559Y-110722890D02*
X86225812Y-110937997D01*
X86225812Y-110937997D02*
X86341692Y-111103491D01*
X87136543Y-113999802D02*
X87657488Y-111045379D01*
X88402724Y-114223064D02*
X88675600Y-112675509D01*
X88675600Y-112675509D02*
X88584527Y-112369329D01*
X88584527Y-112369329D02*
X88327960Y-112179028D01*
X88327960Y-112179028D02*
X87905900Y-112104608D01*
X87905900Y-112104608D02*
X87599719Y-112195681D01*
X87599719Y-112195681D02*
X87434226Y-112311561D01*
X91423071Y-112724780D02*
X91075774Y-114694395D01*
X90156889Y-112501518D02*
X89884014Y-114049073D01*
X89884014Y-114049073D02*
X89975087Y-114355253D01*
X89975087Y-114355253D02*
X90231653Y-114545554D01*
X90231653Y-114545554D02*
X90653714Y-114619975D01*
X90653714Y-114619975D02*
X90959894Y-114528902D01*
X90959894Y-114528902D02*
X91125388Y-114413022D01*
X93773631Y-115025039D02*
X93467451Y-115116112D01*
X93467451Y-115116112D02*
X92904703Y-115016885D01*
X92904703Y-115016885D02*
X92648137Y-114826584D01*
X92648137Y-114826584D02*
X92532257Y-114661090D01*
X92532257Y-114661090D02*
X92441184Y-114354910D01*
X92441184Y-114354910D02*
X92590025Y-113510789D01*
X92590025Y-113510789D02*
X92780325Y-113254222D01*
X92780325Y-113254222D02*
X92945819Y-113138342D01*
X92945819Y-113138342D02*
X93252000Y-113047269D01*
X93252000Y-113047269D02*
X93814747Y-113146497D01*
X93814747Y-113146497D02*
X94071314Y-113336797D01*
X95015006Y-115388988D02*
X95535951Y-112434565D01*
X95494835Y-114313107D02*
X96140501Y-115587443D01*
X96487797Y-113617828D02*
X95163847Y-114544867D01*
D11*
%TO.C,REF\u002A\u002A*%
X228299798Y-107435684D02*
X228359849Y-107458671D01*
X228382080Y-107481303D01*
X228382594Y-107512687D01*
X228359452Y-107566214D01*
X228338724Y-107604889D01*
X228294474Y-107676001D01*
X228257650Y-107709131D01*
X228222078Y-107713665D01*
X228112741Y-107705487D01*
X228036104Y-107720247D01*
X227979019Y-107761429D01*
X227961183Y-107782786D01*
X227905081Y-107856761D01*
X228048192Y-108668383D01*
X227778432Y-108715949D01*
X227570871Y-107538814D01*
X227705751Y-107515031D01*
X227787295Y-107503954D01*
X227831081Y-107507958D01*
X227847107Y-107528006D01*
X227847229Y-107528663D01*
X227857047Y-107550891D01*
X227882384Y-107543299D01*
X227915275Y-107520212D01*
X227983813Y-107475964D01*
X228040623Y-107446595D01*
X228117131Y-107428144D01*
X228210902Y-107424786D01*
X228299798Y-107435684D01*
G36*
X228299798Y-107435684D02*
G01*
X228359849Y-107458671D01*
X228382080Y-107481303D01*
X228382594Y-107512687D01*
X228359452Y-107566214D01*
X228338724Y-107604889D01*
X228294474Y-107676001D01*
X228257650Y-107709131D01*
X228222078Y-107713665D01*
X228112741Y-107705487D01*
X228036104Y-107720247D01*
X227979019Y-107761429D01*
X227961183Y-107782786D01*
X227905081Y-107856761D01*
X228048192Y-108668383D01*
X227778432Y-108715949D01*
X227570871Y-107538814D01*
X227705751Y-107515031D01*
X227787295Y-107503954D01*
X227831081Y-107507958D01*
X227847107Y-107528006D01*
X227847229Y-107528663D01*
X227857047Y-107550891D01*
X227882384Y-107543299D01*
X227915275Y-107520212D01*
X227983813Y-107475964D01*
X228040623Y-107446595D01*
X228117131Y-107428144D01*
X228210902Y-107424786D01*
X228299798Y-107435684D01*
G37*
X228312651Y-109323242D02*
X228371175Y-109341298D01*
X228435697Y-109377061D01*
X228373253Y-109492648D01*
X228334556Y-109562802D01*
X228306209Y-109598697D01*
X228273594Y-109609168D01*
X228222092Y-109603049D01*
X228197666Y-109598757D01*
X228101907Y-109602954D01*
X228020849Y-109644444D01*
X227968433Y-109715128D01*
X227961562Y-109735931D01*
X227959305Y-109788223D01*
X227967069Y-109882493D01*
X227984097Y-110012094D01*
X228009634Y-110170380D01*
X228013562Y-110192845D01*
X228082546Y-110584070D01*
X227812785Y-110631636D01*
X227600900Y-109429978D01*
X227735780Y-109406195D01*
X227813911Y-109394512D01*
X227856020Y-109396405D01*
X227874610Y-109414224D01*
X227879623Y-109433239D01*
X227888585Y-109484066D01*
X227944239Y-109421845D01*
X228012217Y-109374106D01*
X228108727Y-109339409D01*
X228215097Y-109321280D01*
X228312651Y-109323242D01*
G36*
X228312651Y-109323242D02*
G01*
X228371175Y-109341298D01*
X228435697Y-109377061D01*
X228373253Y-109492648D01*
X228334556Y-109562802D01*
X228306209Y-109598697D01*
X228273594Y-109609168D01*
X228222092Y-109603049D01*
X228197666Y-109598757D01*
X228101907Y-109602954D01*
X228020849Y-109644444D01*
X227968433Y-109715128D01*
X227961562Y-109735931D01*
X227959305Y-109788223D01*
X227967069Y-109882493D01*
X227984097Y-110012094D01*
X228009634Y-110170380D01*
X228013562Y-110192845D01*
X228082546Y-110584070D01*
X227812785Y-110631636D01*
X227600900Y-109429978D01*
X227735780Y-109406195D01*
X227813911Y-109394512D01*
X227856020Y-109396405D01*
X227874610Y-109414224D01*
X227879623Y-109433239D01*
X227888585Y-109484066D01*
X227944239Y-109421845D01*
X228012217Y-109374106D01*
X228108727Y-109339409D01*
X228215097Y-109321280D01*
X228312651Y-109323242D01*
G37*
X223636534Y-110165604D02*
X223687078Y-110189275D01*
X223702917Y-110227238D01*
X223700328Y-110238732D01*
X223675535Y-110288919D01*
X223634575Y-110352489D01*
X223626981Y-110362936D01*
X223585918Y-110412062D01*
X223546623Y-110432524D01*
X223486816Y-110433625D01*
X223462430Y-110431648D01*
X223387306Y-110429822D01*
X223337458Y-110445389D01*
X223298470Y-110476171D01*
X223264498Y-110514243D01*
X223242337Y-110558502D01*
X223231770Y-110616675D01*
X223232584Y-110696497D01*
X223244561Y-110805703D01*
X223267485Y-110952022D01*
X223282739Y-111040116D01*
X223349483Y-111418637D01*
X223104246Y-111461879D01*
X222892361Y-110260220D01*
X223014979Y-110238599D01*
X223089029Y-110228229D01*
X223127668Y-110232758D01*
X223143760Y-110254841D01*
X223146184Y-110265664D01*
X223153664Y-110295681D01*
X223169126Y-110297875D01*
X223204949Y-110270075D01*
X223225900Y-110251703D01*
X223294541Y-110208167D01*
X223380287Y-110177505D01*
X223472776Y-110160002D01*
X223561646Y-110155940D01*
X223636534Y-110165604D01*
G36*
X223636534Y-110165604D02*
G01*
X223687078Y-110189275D01*
X223702917Y-110227238D01*
X223700328Y-110238732D01*
X223675535Y-110288919D01*
X223634575Y-110352489D01*
X223626981Y-110362936D01*
X223585918Y-110412062D01*
X223546623Y-110432524D01*
X223486816Y-110433625D01*
X223462430Y-110431648D01*
X223387306Y-110429822D01*
X223337458Y-110445389D01*
X223298470Y-110476171D01*
X223264498Y-110514243D01*
X223242337Y-110558502D01*
X223231770Y-110616675D01*
X223232584Y-110696497D01*
X223244561Y-110805703D01*
X223267485Y-110952022D01*
X223282739Y-111040116D01*
X223349483Y-111418637D01*
X223104246Y-111461879D01*
X222892361Y-110260220D01*
X223014979Y-110238599D01*
X223089029Y-110228229D01*
X223127668Y-110232758D01*
X223143760Y-110254841D01*
X223146184Y-110265664D01*
X223153664Y-110295681D01*
X223169126Y-110297875D01*
X223204949Y-110270075D01*
X223225900Y-110251703D01*
X223294541Y-110208167D01*
X223380287Y-110177505D01*
X223472776Y-110160002D01*
X223561646Y-110155940D01*
X223636534Y-110165604D01*
G37*
X227557718Y-108754867D02*
X227422839Y-108778650D01*
X227340945Y-108789692D01*
X227297035Y-108785503D01*
X227281464Y-108765599D01*
X227270969Y-108747277D01*
X227243660Y-108756360D01*
X227192025Y-108794012D01*
X227070024Y-108859565D01*
X226932103Y-108880764D01*
X226792282Y-108857596D01*
X226723132Y-108832012D01*
X226668319Y-108800776D01*
X226624635Y-108757301D01*
X226588867Y-108695004D01*
X226557805Y-108607301D01*
X226528240Y-108487606D01*
X226496962Y-108329337D01*
X226474882Y-108206576D01*
X226393736Y-107746375D01*
X226638972Y-107703133D01*
X226706281Y-108084861D01*
X226740313Y-108264312D01*
X226772870Y-108399432D01*
X226807222Y-108495473D01*
X226846638Y-108557681D01*
X226894385Y-108591306D01*
X226953733Y-108601594D01*
X227023729Y-108594554D01*
X227095073Y-108576033D01*
X227146322Y-108545292D01*
X227178756Y-108496280D01*
X227193648Y-108422947D01*
X227192278Y-108319245D01*
X227175919Y-108179121D01*
X227147707Y-108007026D01*
X227080398Y-107625298D01*
X227350158Y-107577732D01*
X227557718Y-108754867D01*
G36*
X227557718Y-108754867D02*
G01*
X227422839Y-108778650D01*
X227340945Y-108789692D01*
X227297035Y-108785503D01*
X227281464Y-108765599D01*
X227270969Y-108747277D01*
X227243660Y-108756360D01*
X227192025Y-108794012D01*
X227070024Y-108859565D01*
X226932103Y-108880764D01*
X226792282Y-108857596D01*
X226723132Y-108832012D01*
X226668319Y-108800776D01*
X226624635Y-108757301D01*
X226588867Y-108695004D01*
X226557805Y-108607301D01*
X226528240Y-108487606D01*
X226496962Y-108329337D01*
X226474882Y-108206576D01*
X226393736Y-107746375D01*
X226638972Y-107703133D01*
X226706281Y-108084861D01*
X226740313Y-108264312D01*
X226772870Y-108399432D01*
X226807222Y-108495473D01*
X226846638Y-108557681D01*
X226894385Y-108591306D01*
X226953733Y-108601594D01*
X227023729Y-108594554D01*
X227095073Y-108576033D01*
X227146322Y-108545292D01*
X227178756Y-108496280D01*
X227193648Y-108422947D01*
X227192278Y-108319245D01*
X227175919Y-108179121D01*
X227147707Y-108007026D01*
X227080398Y-107625298D01*
X227350158Y-107577732D01*
X227557718Y-108754867D01*
G37*
X223234623Y-108324300D02*
X223300798Y-108342691D01*
X223367334Y-108374378D01*
X223420912Y-108414904D01*
X223464613Y-108470936D01*
X223501516Y-108549142D01*
X223534701Y-108656194D01*
X223567247Y-108798759D01*
X223602235Y-108983504D01*
X223605691Y-109002887D01*
X223682983Y-109438087D01*
X223413223Y-109485653D01*
X223342464Y-109084357D01*
X223316057Y-108935720D01*
X223295729Y-108828202D01*
X223278916Y-108753869D01*
X223263062Y-108704791D01*
X223245600Y-108673038D01*
X223223970Y-108650677D01*
X223195651Y-108629808D01*
X223102543Y-108590654D01*
X223009514Y-108596746D01*
X222928575Y-108646152D01*
X222902811Y-108676846D01*
X222884817Y-108704604D01*
X222873382Y-108732950D01*
X222868885Y-108770091D01*
X222871704Y-108824235D01*
X222882215Y-108903590D01*
X222900801Y-109016362D01*
X222924776Y-109153410D01*
X222996321Y-109559164D01*
X222726561Y-109606730D01*
X222519000Y-108429595D01*
X222653880Y-108405812D01*
X222735426Y-108394735D01*
X222779210Y-108398740D01*
X222795236Y-108418787D01*
X222795358Y-108419444D01*
X222804809Y-108440179D01*
X222829165Y-108433342D01*
X222874246Y-108400779D01*
X222979844Y-108345943D01*
X223107034Y-108319489D01*
X223234623Y-108324300D01*
G36*
X223234623Y-108324300D02*
G01*
X223300798Y-108342691D01*
X223367334Y-108374378D01*
X223420912Y-108414904D01*
X223464613Y-108470936D01*
X223501516Y-108549142D01*
X223534701Y-108656194D01*
X223567247Y-108798759D01*
X223602235Y-108983504D01*
X223605691Y-109002887D01*
X223682983Y-109438087D01*
X223413223Y-109485653D01*
X223342464Y-109084357D01*
X223316057Y-108935720D01*
X223295729Y-108828202D01*
X223278916Y-108753869D01*
X223263062Y-108704791D01*
X223245600Y-108673038D01*
X223223970Y-108650677D01*
X223195651Y-108629808D01*
X223102543Y-108590654D01*
X223009514Y-108596746D01*
X222928575Y-108646152D01*
X222902811Y-108676846D01*
X222884817Y-108704604D01*
X222873382Y-108732950D01*
X222868885Y-108770091D01*
X222871704Y-108824235D01*
X222882215Y-108903590D01*
X222900801Y-109016362D01*
X222924776Y-109153410D01*
X222996321Y-109559164D01*
X222726561Y-109606730D01*
X222519000Y-108429595D01*
X222653880Y-108405812D01*
X222735426Y-108394735D01*
X222779210Y-108398740D01*
X222795236Y-108418787D01*
X222795358Y-108419444D01*
X222804809Y-108440179D01*
X222829165Y-108433342D01*
X222874246Y-108400779D01*
X222979844Y-108345943D01*
X223107034Y-108319489D01*
X223234623Y-108324300D01*
G37*
X229180414Y-107327835D02*
X229230348Y-107349327D01*
X229295508Y-107384396D01*
X229337673Y-107413571D01*
X229345946Y-107424036D01*
X229332868Y-107452801D01*
X229295499Y-107504288D01*
X229264791Y-107541039D01*
X229180062Y-107637777D01*
X229090546Y-107585931D01*
X229022843Y-107554209D01*
X228961532Y-107549949D01*
X228894941Y-107565371D01*
X228792877Y-107610732D01*
X228729114Y-107678773D01*
X228700163Y-107775700D01*
X228702540Y-107907713D01*
X228702550Y-107907795D01*
X228729616Y-108051044D01*
X228775433Y-108151570D01*
X228842422Y-108213701D01*
X228883755Y-108231452D01*
X228987482Y-108244344D01*
X229092581Y-108225830D01*
X229178844Y-108180366D01*
X229197960Y-108162214D01*
X229245784Y-108116024D01*
X229287165Y-108102539D01*
X229337741Y-108121724D01*
X229396973Y-108161756D01*
X229491639Y-108230269D01*
X229415638Y-108319248D01*
X229292833Y-108426201D01*
X229145086Y-108494289D01*
X228982655Y-108519887D01*
X228871556Y-108511602D01*
X228735486Y-108466669D01*
X228617546Y-108379029D01*
X228559300Y-108312756D01*
X228503945Y-108212694D01*
X228461859Y-108081023D01*
X228435939Y-107934849D01*
X228429086Y-107791275D01*
X228444195Y-107667407D01*
X228447714Y-107654359D01*
X228510461Y-107521419D01*
X228608457Y-107415403D01*
X228733077Y-107339675D01*
X228875695Y-107297595D01*
X229027683Y-107292528D01*
X229180414Y-107327835D01*
G36*
X229180414Y-107327835D02*
G01*
X229230348Y-107349327D01*
X229295508Y-107384396D01*
X229337673Y-107413571D01*
X229345946Y-107424036D01*
X229332868Y-107452801D01*
X229295499Y-107504288D01*
X229264791Y-107541039D01*
X229180062Y-107637777D01*
X229090546Y-107585931D01*
X229022843Y-107554209D01*
X228961532Y-107549949D01*
X228894941Y-107565371D01*
X228792877Y-107610732D01*
X228729114Y-107678773D01*
X228700163Y-107775700D01*
X228702540Y-107907713D01*
X228702550Y-107907795D01*
X228729616Y-108051044D01*
X228775433Y-108151570D01*
X228842422Y-108213701D01*
X228883755Y-108231452D01*
X228987482Y-108244344D01*
X229092581Y-108225830D01*
X229178844Y-108180366D01*
X229197960Y-108162214D01*
X229245784Y-108116024D01*
X229287165Y-108102539D01*
X229337741Y-108121724D01*
X229396973Y-108161756D01*
X229491639Y-108230269D01*
X229415638Y-108319248D01*
X229292833Y-108426201D01*
X229145086Y-108494289D01*
X228982655Y-108519887D01*
X228871556Y-108511602D01*
X228735486Y-108466669D01*
X228617546Y-108379029D01*
X228559300Y-108312756D01*
X228503945Y-108212694D01*
X228461859Y-108081023D01*
X228435939Y-107934849D01*
X228429086Y-107791275D01*
X228444195Y-107667407D01*
X228447714Y-107654359D01*
X228510461Y-107521419D01*
X228608457Y-107415403D01*
X228733077Y-107339675D01*
X228875695Y-107297595D01*
X229027683Y-107292528D01*
X229180414Y-107327835D01*
G37*
X225895335Y-107849220D02*
X226031288Y-107894901D01*
X226147140Y-107984430D01*
X226208158Y-108063099D01*
X226241297Y-108136242D01*
X226273273Y-108243206D01*
X226300906Y-108368049D01*
X226321018Y-108494829D01*
X226330427Y-108607603D01*
X226329011Y-108668972D01*
X226303275Y-108757122D01*
X226249128Y-108855478D01*
X226178850Y-108945530D01*
X226104720Y-109008768D01*
X226102839Y-109009895D01*
X226003956Y-109049252D01*
X225882418Y-109071226D01*
X225763422Y-109072251D01*
X225716056Y-109064607D01*
X225589614Y-109019692D01*
X225492229Y-108948806D01*
X225418204Y-108845279D01*
X225361838Y-108702441D01*
X225341311Y-108626036D01*
X225324987Y-108528358D01*
X225306647Y-108418605D01*
X225307963Y-108357470D01*
X225569222Y-108357470D01*
X225580780Y-108441017D01*
X225587861Y-108482006D01*
X225621809Y-108622750D01*
X225666419Y-108726698D01*
X225719143Y-108788842D01*
X225751496Y-108803567D01*
X225827870Y-108804346D01*
X225915036Y-108784759D01*
X225987514Y-108751478D01*
X226005511Y-108737027D01*
X226046848Y-108664048D01*
X226064356Y-108560429D01*
X226058204Y-108439169D01*
X226028565Y-108313265D01*
X225998945Y-108239569D01*
X225937021Y-108159096D01*
X225854170Y-108116575D01*
X225762777Y-108112938D01*
X225675227Y-108149114D01*
X225613928Y-108210650D01*
X225584311Y-108257726D01*
X225569903Y-108301519D01*
X225569222Y-108357470D01*
X225307963Y-108357470D01*
X225310431Y-108242826D01*
X225352666Y-108098693D01*
X225433355Y-107986199D01*
X225552499Y-107905335D01*
X225579094Y-107893705D01*
X225743272Y-107848463D01*
X225895335Y-107849220D01*
G36*
X225895335Y-107849220D02*
G01*
X226031288Y-107894901D01*
X226147140Y-107984430D01*
X226208158Y-108063099D01*
X226241297Y-108136242D01*
X226273273Y-108243206D01*
X226300906Y-108368049D01*
X226321018Y-108494829D01*
X226330427Y-108607603D01*
X226329011Y-108668972D01*
X226303275Y-108757122D01*
X226249128Y-108855478D01*
X226178850Y-108945530D01*
X226104720Y-109008768D01*
X226102839Y-109009895D01*
X226003956Y-109049252D01*
X225882418Y-109071226D01*
X225763422Y-109072251D01*
X225716056Y-109064607D01*
X225589614Y-109019692D01*
X225492229Y-108948806D01*
X225418204Y-108845279D01*
X225361838Y-108702441D01*
X225341311Y-108626036D01*
X225324987Y-108528358D01*
X225306647Y-108418605D01*
X225307963Y-108357470D01*
X225569222Y-108357470D01*
X225580780Y-108441017D01*
X225587861Y-108482006D01*
X225621809Y-108622750D01*
X225666419Y-108726698D01*
X225719143Y-108788842D01*
X225751496Y-108803567D01*
X225827870Y-108804346D01*
X225915036Y-108784759D01*
X225987514Y-108751478D01*
X226005511Y-108737027D01*
X226046848Y-108664048D01*
X226064356Y-108560429D01*
X226058204Y-108439169D01*
X226028565Y-108313265D01*
X225998945Y-108239569D01*
X225937021Y-108159096D01*
X225854170Y-108116575D01*
X225762777Y-108112938D01*
X225675227Y-108149114D01*
X225613928Y-108210650D01*
X225584311Y-108257726D01*
X225569903Y-108301519D01*
X225569222Y-108357470D01*
X225307963Y-108357470D01*
X225310431Y-108242826D01*
X225352666Y-108098693D01*
X225433355Y-107986199D01*
X225552499Y-107905335D01*
X225579094Y-107893705D01*
X225743272Y-107848463D01*
X225895335Y-107849220D01*
G37*
X226382318Y-109916672D02*
X226364128Y-110053578D01*
X226342111Y-110218730D01*
X226319085Y-110391016D01*
X226298498Y-110544640D01*
X226251558Y-110894280D01*
X226026747Y-110949176D01*
X225929190Y-110756461D01*
X225868864Y-110636696D01*
X225802782Y-110504590D01*
X225744801Y-110387848D01*
X225742505Y-110383200D01*
X225700704Y-110304541D01*
X225666766Y-110251825D01*
X225646229Y-110233249D01*
X225643228Y-110236345D01*
X225637039Y-110271850D01*
X225626704Y-110347386D01*
X225613429Y-110453474D01*
X225598424Y-110580630D01*
X225590496Y-110650516D01*
X225547914Y-111030994D01*
X225322181Y-111070797D01*
X225041187Y-110532441D01*
X224962291Y-110381438D01*
X224890499Y-110244333D01*
X224829198Y-110127562D01*
X224781770Y-110037565D01*
X224751599Y-109980781D01*
X224742554Y-109964231D01*
X224744081Y-109945382D01*
X224779629Y-109930978D01*
X224856640Y-109918213D01*
X224868779Y-109916688D01*
X225012645Y-109899000D01*
X225166547Y-110225868D01*
X225222943Y-110345029D01*
X225273018Y-110449692D01*
X225312388Y-110530775D01*
X225336668Y-110579198D01*
X225340958Y-110587034D01*
X225350958Y-110575389D01*
X225365777Y-110521584D01*
X225383900Y-110432852D01*
X225403812Y-110316431D01*
X225419524Y-110211667D01*
X225477580Y-109802004D01*
X225575855Y-109792183D01*
X225674128Y-109782363D01*
X225867959Y-110140120D01*
X226061788Y-110497876D01*
X226077766Y-110355986D01*
X226086995Y-110268410D01*
X226098606Y-110150212D01*
X226110761Y-110020397D01*
X226117021Y-109950808D01*
X226140298Y-109687521D01*
X226419198Y-109638344D01*
X226382318Y-109916672D01*
G36*
X226382318Y-109916672D02*
G01*
X226364128Y-110053578D01*
X226342111Y-110218730D01*
X226319085Y-110391016D01*
X226298498Y-110544640D01*
X226251558Y-110894280D01*
X226026747Y-110949176D01*
X225929190Y-110756461D01*
X225868864Y-110636696D01*
X225802782Y-110504590D01*
X225744801Y-110387848D01*
X225742505Y-110383200D01*
X225700704Y-110304541D01*
X225666766Y-110251825D01*
X225646229Y-110233249D01*
X225643228Y-110236345D01*
X225637039Y-110271850D01*
X225626704Y-110347386D01*
X225613429Y-110453474D01*
X225598424Y-110580630D01*
X225590496Y-110650516D01*
X225547914Y-111030994D01*
X225322181Y-111070797D01*
X225041187Y-110532441D01*
X224962291Y-110381438D01*
X224890499Y-110244333D01*
X224829198Y-110127562D01*
X224781770Y-110037565D01*
X224751599Y-109980781D01*
X224742554Y-109964231D01*
X224744081Y-109945382D01*
X224779629Y-109930978D01*
X224856640Y-109918213D01*
X224868779Y-109916688D01*
X225012645Y-109899000D01*
X225166547Y-110225868D01*
X225222943Y-110345029D01*
X225273018Y-110449692D01*
X225312388Y-110530775D01*
X225336668Y-110579198D01*
X225340958Y-110587034D01*
X225350958Y-110575389D01*
X225365777Y-110521584D01*
X225383900Y-110432852D01*
X225403812Y-110316431D01*
X225419524Y-110211667D01*
X225477580Y-109802004D01*
X225575855Y-109792183D01*
X225674128Y-109782363D01*
X225867959Y-110140120D01*
X226061788Y-110497876D01*
X226077766Y-110355986D01*
X226086995Y-110268410D01*
X226098606Y-110150212D01*
X226110761Y-110020397D01*
X226117021Y-109950808D01*
X226140298Y-109687521D01*
X226419198Y-109638344D01*
X226382318Y-109916672D01*
G37*
X219891764Y-108964471D02*
X220005858Y-109042008D01*
X220095918Y-109163104D01*
X220162109Y-109327880D01*
X220169401Y-109354143D01*
X220204640Y-109542162D01*
X220207528Y-109711904D01*
X220178244Y-109855058D01*
X220157518Y-109903101D01*
X220074949Y-110011605D01*
X219959738Y-110092765D01*
X219823522Y-110142033D01*
X219677941Y-110154862D01*
X219562183Y-110135724D01*
X219457053Y-110087613D01*
X219365501Y-110016372D01*
X219363827Y-110014623D01*
X219323492Y-109967800D01*
X219293999Y-109918767D01*
X219270051Y-109854544D01*
X219246350Y-109762155D01*
X219229641Y-109685911D01*
X219216043Y-109616496D01*
X219199820Y-109533693D01*
X219186038Y-109429356D01*
X219449392Y-109429356D01*
X219461230Y-109573262D01*
X219475852Y-109642174D01*
X219500825Y-109732937D01*
X219526617Y-109789463D01*
X219561722Y-109826725D01*
X219591983Y-109846771D01*
X219692960Y-109882109D01*
X219790319Y-109872045D01*
X219873321Y-109819172D01*
X219910763Y-109769722D01*
X219935641Y-109722156D01*
X219947445Y-109678758D01*
X219946532Y-109625149D01*
X219933255Y-109546949D01*
X219918018Y-109475462D01*
X219894409Y-109373666D01*
X219873954Y-109308548D01*
X219850603Y-109267840D01*
X219818306Y-109239270D01*
X219794007Y-109223972D01*
X219697579Y-109189533D01*
X219602604Y-109203715D01*
X219528547Y-109247243D01*
X219471804Y-109320879D01*
X219449392Y-109429356D01*
X219186038Y-109429356D01*
X219184618Y-109418602D01*
X219184265Y-109330086D01*
X219198993Y-109257590D01*
X219229034Y-109190562D01*
X219240952Y-109170131D01*
X219319451Y-109064962D01*
X219411278Y-108995425D01*
X219530912Y-108951981D01*
X219590800Y-108939594D01*
X219753467Y-108930373D01*
X219891764Y-108964471D01*
G36*
X219891764Y-108964471D02*
G01*
X220005858Y-109042008D01*
X220095918Y-109163104D01*
X220162109Y-109327880D01*
X220169401Y-109354143D01*
X220204640Y-109542162D01*
X220207528Y-109711904D01*
X220178244Y-109855058D01*
X220157518Y-109903101D01*
X220074949Y-110011605D01*
X219959738Y-110092765D01*
X219823522Y-110142033D01*
X219677941Y-110154862D01*
X219562183Y-110135724D01*
X219457053Y-110087613D01*
X219365501Y-110016372D01*
X219363827Y-110014623D01*
X219323492Y-109967800D01*
X219293999Y-109918767D01*
X219270051Y-109854544D01*
X219246350Y-109762155D01*
X219229641Y-109685911D01*
X219216043Y-109616496D01*
X219199820Y-109533693D01*
X219186038Y-109429356D01*
X219449392Y-109429356D01*
X219461230Y-109573262D01*
X219475852Y-109642174D01*
X219500825Y-109732937D01*
X219526617Y-109789463D01*
X219561722Y-109826725D01*
X219591983Y-109846771D01*
X219692960Y-109882109D01*
X219790319Y-109872045D01*
X219873321Y-109819172D01*
X219910763Y-109769722D01*
X219935641Y-109722156D01*
X219947445Y-109678758D01*
X219946532Y-109625149D01*
X219933255Y-109546949D01*
X219918018Y-109475462D01*
X219894409Y-109373666D01*
X219873954Y-109308548D01*
X219850603Y-109267840D01*
X219818306Y-109239270D01*
X219794007Y-109223972D01*
X219697579Y-109189533D01*
X219602604Y-109203715D01*
X219528547Y-109247243D01*
X219471804Y-109320879D01*
X219449392Y-109429356D01*
X219186038Y-109429356D01*
X219184618Y-109418602D01*
X219184265Y-109330086D01*
X219198993Y-109257590D01*
X219229034Y-109190562D01*
X219240952Y-109170131D01*
X219319451Y-109064962D01*
X219411278Y-108995425D01*
X219530912Y-108951981D01*
X219590800Y-108939594D01*
X219753467Y-108930373D01*
X219891764Y-108964471D01*
G37*
X224845424Y-111154862D02*
X224710544Y-111178645D01*
X224631851Y-111190154D01*
X224589401Y-111187838D01*
X224571080Y-111169782D01*
X224567483Y-111156024D01*
X224560071Y-111128468D01*
X224543512Y-111125852D01*
X224505529Y-111150343D01*
X224476464Y-111172073D01*
X224360707Y-111231834D01*
X224227948Y-111257520D01*
X224114679Y-111248145D01*
X224001749Y-111197155D01*
X223907012Y-111109206D01*
X223843825Y-110996906D01*
X223841573Y-110990401D01*
X223822444Y-110918470D01*
X223800848Y-110814174D01*
X223787116Y-110734835D01*
X223780154Y-110694606D01*
X223770576Y-110629980D01*
X223755868Y-110482336D01*
X224031509Y-110482336D01*
X224037892Y-110579155D01*
X224054998Y-110687600D01*
X224079787Y-110791898D01*
X224109221Y-110876277D01*
X224136982Y-110921962D01*
X224221102Y-110976252D01*
X224311183Y-110985147D01*
X224396281Y-110950104D01*
X224461706Y-110878797D01*
X224483480Y-110834758D01*
X224492027Y-110785281D01*
X224487899Y-110715988D01*
X224471847Y-110613647D01*
X224450576Y-110513247D01*
X224425792Y-110426109D01*
X224402368Y-110369001D01*
X224399271Y-110364059D01*
X224335879Y-110309977D01*
X224253519Y-110288671D01*
X224167232Y-110298101D01*
X224092064Y-110336227D01*
X224043059Y-110401010D01*
X224038890Y-110412915D01*
X224031509Y-110482336D01*
X223755868Y-110482336D01*
X223754515Y-110468757D01*
X223758379Y-110344902D01*
X223784275Y-110249279D01*
X223834312Y-110172747D01*
X223887333Y-110123652D01*
X223966130Y-110081817D01*
X224068438Y-110054195D01*
X224176214Y-110042996D01*
X224271412Y-110050434D01*
X224324478Y-110070057D01*
X224382417Y-110106465D01*
X224281620Y-109534819D01*
X224551380Y-109487254D01*
X224845424Y-111154862D01*
G36*
X224845424Y-111154862D02*
G01*
X224710544Y-111178645D01*
X224631851Y-111190154D01*
X224589401Y-111187838D01*
X224571080Y-111169782D01*
X224567483Y-111156024D01*
X224560071Y-111128468D01*
X224543512Y-111125852D01*
X224505529Y-111150343D01*
X224476464Y-111172073D01*
X224360707Y-111231834D01*
X224227948Y-111257520D01*
X224114679Y-111248145D01*
X224001749Y-111197155D01*
X223907012Y-111109206D01*
X223843825Y-110996906D01*
X223841573Y-110990401D01*
X223822444Y-110918470D01*
X223800848Y-110814174D01*
X223787116Y-110734835D01*
X223780154Y-110694606D01*
X223770576Y-110629980D01*
X223755868Y-110482336D01*
X224031509Y-110482336D01*
X224037892Y-110579155D01*
X224054998Y-110687600D01*
X224079787Y-110791898D01*
X224109221Y-110876277D01*
X224136982Y-110921962D01*
X224221102Y-110976252D01*
X224311183Y-110985147D01*
X224396281Y-110950104D01*
X224461706Y-110878797D01*
X224483480Y-110834758D01*
X224492027Y-110785281D01*
X224487899Y-110715988D01*
X224471847Y-110613647D01*
X224450576Y-110513247D01*
X224425792Y-110426109D01*
X224402368Y-110369001D01*
X224399271Y-110364059D01*
X224335879Y-110309977D01*
X224253519Y-110288671D01*
X224167232Y-110298101D01*
X224092064Y-110336227D01*
X224043059Y-110401010D01*
X224038890Y-110412915D01*
X224031509Y-110482336D01*
X223755868Y-110482336D01*
X223754515Y-110468757D01*
X223758379Y-110344902D01*
X223784275Y-110249279D01*
X223834312Y-110172747D01*
X223887333Y-110123652D01*
X223966130Y-110081817D01*
X224068438Y-110054195D01*
X224176214Y-110042996D01*
X224271412Y-110050434D01*
X224324478Y-110070057D01*
X224382417Y-110106465D01*
X224281620Y-109534819D01*
X224551380Y-109487254D01*
X224845424Y-111154862D01*
G37*
X229989066Y-107123811D02*
X230119308Y-107158445D01*
X230237298Y-107225610D01*
X230326582Y-107315341D01*
X230340419Y-107336583D01*
X230364455Y-107394375D01*
X230389547Y-107481714D01*
X230408609Y-107571099D01*
X230438596Y-107741167D01*
X230083003Y-107803868D01*
X229936439Y-107830283D01*
X229833713Y-107851868D01*
X229769571Y-107872182D01*
X229738757Y-107894786D01*
X229736019Y-107923242D01*
X229756100Y-107961109D01*
X229787675Y-108003992D01*
X229866466Y-108070959D01*
X229963632Y-108094111D01*
X230073748Y-108073382D01*
X230191239Y-108008819D01*
X230290006Y-107937291D01*
X230392134Y-107992360D01*
X230494263Y-108047429D01*
X230423676Y-108140207D01*
X230324080Y-108233670D01*
X230193457Y-108302463D01*
X230046728Y-108341143D01*
X229898809Y-108344260D01*
X229874245Y-108340798D01*
X229736038Y-108297024D01*
X229624527Y-108215094D01*
X229537208Y-108092417D01*
X229471579Y-107926400D01*
X229470517Y-107922781D01*
X229434262Y-107735634D01*
X229435217Y-107666420D01*
X229436363Y-107583463D01*
X229683528Y-107583463D01*
X229684372Y-107622487D01*
X229709070Y-107628749D01*
X229772585Y-107625682D01*
X229864963Y-107614037D01*
X229923121Y-107604485D01*
X230031274Y-107584975D01*
X230098467Y-107570331D01*
X230132810Y-107556906D01*
X230142413Y-107541053D01*
X230135388Y-107519125D01*
X230131285Y-107510886D01*
X230073010Y-107436947D01*
X229992403Y-107383289D01*
X229926409Y-107365101D01*
X229845820Y-107381112D01*
X229770206Y-107431638D01*
X229711973Y-107503485D01*
X229683528Y-107583463D01*
X229436363Y-107583463D01*
X229436618Y-107564995D01*
X229474614Y-107415441D01*
X229545279Y-107291551D01*
X229645641Y-107197901D01*
X229772733Y-107139068D01*
X229923581Y-107119629D01*
X229989066Y-107123811D01*
G36*
X229989066Y-107123811D02*
G01*
X230119308Y-107158445D01*
X230237298Y-107225610D01*
X230326582Y-107315341D01*
X230340419Y-107336583D01*
X230364455Y-107394375D01*
X230389547Y-107481714D01*
X230408609Y-107571099D01*
X230438596Y-107741167D01*
X230083003Y-107803868D01*
X229936439Y-107830283D01*
X229833713Y-107851868D01*
X229769571Y-107872182D01*
X229738757Y-107894786D01*
X229736019Y-107923242D01*
X229756100Y-107961109D01*
X229787675Y-108003992D01*
X229866466Y-108070959D01*
X229963632Y-108094111D01*
X230073748Y-108073382D01*
X230191239Y-108008819D01*
X230290006Y-107937291D01*
X230392134Y-107992360D01*
X230494263Y-108047429D01*
X230423676Y-108140207D01*
X230324080Y-108233670D01*
X230193457Y-108302463D01*
X230046728Y-108341143D01*
X229898809Y-108344260D01*
X229874245Y-108340798D01*
X229736038Y-108297024D01*
X229624527Y-108215094D01*
X229537208Y-108092417D01*
X229471579Y-107926400D01*
X229470517Y-107922781D01*
X229434262Y-107735634D01*
X229435217Y-107666420D01*
X229436363Y-107583463D01*
X229683528Y-107583463D01*
X229684372Y-107622487D01*
X229709070Y-107628749D01*
X229772585Y-107625682D01*
X229864963Y-107614037D01*
X229923121Y-107604485D01*
X230031274Y-107584975D01*
X230098467Y-107570331D01*
X230132810Y-107556906D01*
X230142413Y-107541053D01*
X230135388Y-107519125D01*
X230131285Y-107510886D01*
X230073010Y-107436947D01*
X229992403Y-107383289D01*
X229926409Y-107365101D01*
X229845820Y-107381112D01*
X229770206Y-107431638D01*
X229711973Y-107503485D01*
X229683528Y-107583463D01*
X229436363Y-107583463D01*
X229436618Y-107564995D01*
X229474614Y-107415441D01*
X229545279Y-107291551D01*
X229645641Y-107197901D01*
X229772733Y-107139068D01*
X229923581Y-107119629D01*
X229989066Y-107123811D01*
G37*
X224824171Y-108036942D02*
X224927011Y-108056790D01*
X224938134Y-108059671D01*
X225017969Y-108085206D01*
X225074862Y-108111985D01*
X225095249Y-108131972D01*
X225086251Y-108172017D01*
X225058125Y-108233721D01*
X225044956Y-108257226D01*
X224990014Y-108350294D01*
X224891519Y-108313386D01*
X224800430Y-108293291D01*
X224699024Y-108291848D01*
X224604736Y-108307250D01*
X224535007Y-108337705D01*
X224519466Y-108351781D01*
X224495067Y-108408053D01*
X224501259Y-108466826D01*
X224534165Y-108507793D01*
X224550449Y-108513991D01*
X224596524Y-108517131D01*
X224676391Y-108516287D01*
X224774218Y-108511688D01*
X224792205Y-108510501D01*
X224950540Y-108509986D01*
X225069940Y-108535483D01*
X225155815Y-108590334D01*
X225213580Y-108677885D01*
X225246782Y-108791407D01*
X225252322Y-108926130D01*
X225213180Y-109039590D01*
X225129159Y-109132019D01*
X225000062Y-109203643D01*
X224850775Y-109249243D01*
X224726308Y-109270959D01*
X224622386Y-109271775D01*
X224549324Y-109260485D01*
X224455027Y-109234994D01*
X224366181Y-109201781D01*
X224333894Y-109185960D01*
X224249735Y-109138880D01*
X224322633Y-109033452D01*
X224395531Y-108928022D01*
X224508182Y-108976994D01*
X224618204Y-109009293D01*
X224730875Y-109016468D01*
X224835225Y-109000922D01*
X224920284Y-108965059D01*
X224975087Y-108911283D01*
X224988853Y-108871635D01*
X224975625Y-108814276D01*
X224917794Y-108778826D01*
X224815514Y-108765340D01*
X224706868Y-108769929D01*
X224538744Y-108771778D01*
X224408407Y-108742319D01*
X224313974Y-108680349D01*
X224253556Y-108584665D01*
X224226145Y-108463426D01*
X224232526Y-108330615D01*
X224281389Y-108222462D01*
X224373255Y-108138422D01*
X224508628Y-108077950D01*
X224612332Y-108052489D01*
X224728199Y-108035705D01*
X224824171Y-108036942D01*
G36*
X224824171Y-108036942D02*
G01*
X224927011Y-108056790D01*
X224938134Y-108059671D01*
X225017969Y-108085206D01*
X225074862Y-108111985D01*
X225095249Y-108131972D01*
X225086251Y-108172017D01*
X225058125Y-108233721D01*
X225044956Y-108257226D01*
X224990014Y-108350294D01*
X224891519Y-108313386D01*
X224800430Y-108293291D01*
X224699024Y-108291848D01*
X224604736Y-108307250D01*
X224535007Y-108337705D01*
X224519466Y-108351781D01*
X224495067Y-108408053D01*
X224501259Y-108466826D01*
X224534165Y-108507793D01*
X224550449Y-108513991D01*
X224596524Y-108517131D01*
X224676391Y-108516287D01*
X224774218Y-108511688D01*
X224792205Y-108510501D01*
X224950540Y-108509986D01*
X225069940Y-108535483D01*
X225155815Y-108590334D01*
X225213580Y-108677885D01*
X225246782Y-108791407D01*
X225252322Y-108926130D01*
X225213180Y-109039590D01*
X225129159Y-109132019D01*
X225000062Y-109203643D01*
X224850775Y-109249243D01*
X224726308Y-109270959D01*
X224622386Y-109271775D01*
X224549324Y-109260485D01*
X224455027Y-109234994D01*
X224366181Y-109201781D01*
X224333894Y-109185960D01*
X224249735Y-109138880D01*
X224322633Y-109033452D01*
X224395531Y-108928022D01*
X224508182Y-108976994D01*
X224618204Y-109009293D01*
X224730875Y-109016468D01*
X224835225Y-109000922D01*
X224920284Y-108965059D01*
X224975087Y-108911283D01*
X224988853Y-108871635D01*
X224975625Y-108814276D01*
X224917794Y-108778826D01*
X224815514Y-108765340D01*
X224706868Y-108769929D01*
X224538744Y-108771778D01*
X224408407Y-108742319D01*
X224313974Y-108680349D01*
X224253556Y-108584665D01*
X224226145Y-108463426D01*
X224232526Y-108330615D01*
X224281389Y-108222462D01*
X224373255Y-108138422D01*
X224508628Y-108077950D01*
X224612332Y-108052489D01*
X224728199Y-108035705D01*
X224824171Y-108036942D01*
G37*
X229113798Y-109201247D02*
X229223058Y-109246836D01*
X229278877Y-109285442D01*
X229376380Y-109382783D01*
X229443757Y-109503765D01*
X229487029Y-109659458D01*
X229489365Y-109672249D01*
X229512204Y-109800975D01*
X228771178Y-109931639D01*
X228798864Y-109996292D01*
X228838155Y-110052342D01*
X228899294Y-110107181D01*
X228911525Y-110115501D01*
X229010952Y-110154665D01*
X229114924Y-110145949D01*
X229226328Y-110089002D01*
X229244576Y-110075739D01*
X229300591Y-110035325D01*
X229338633Y-110011219D01*
X229345514Y-110008396D01*
X229373168Y-110019144D01*
X229427350Y-110047816D01*
X229455108Y-110063811D01*
X229513431Y-110101511D01*
X229535307Y-110129338D01*
X229528869Y-110159619D01*
X229524126Y-110168425D01*
X229488739Y-110209545D01*
X229427754Y-110262689D01*
X229384396Y-110295080D01*
X229256765Y-110361185D01*
X229109624Y-110401258D01*
X228965123Y-110409997D01*
X228923408Y-110405366D01*
X228789033Y-110361222D01*
X228680179Y-110276033D01*
X228596146Y-110148907D01*
X228536232Y-109978954D01*
X228516901Y-109887972D01*
X228502710Y-109753046D01*
X228498350Y-109711583D01*
X228737858Y-109711583D01*
X228762339Y-109717426D01*
X228824837Y-109714377D01*
X228914522Y-109703268D01*
X228974875Y-109693431D01*
X229083053Y-109673579D01*
X229150794Y-109658001D01*
X229186852Y-109643193D01*
X229199983Y-109625655D01*
X229199270Y-109603691D01*
X229166609Y-109541405D01*
X229102176Y-109485517D01*
X229023717Y-109447735D01*
X228950447Y-109439540D01*
X228859037Y-109474388D01*
X228786394Y-109541347D01*
X228742954Y-109627058D01*
X228737858Y-109711583D01*
X228498350Y-109711583D01*
X228496237Y-109691493D01*
X228510817Y-109529480D01*
X228561311Y-109400551D01*
X228648389Y-109303324D01*
X228772718Y-109236417D01*
X228842758Y-109215402D01*
X228991202Y-109191439D01*
X229113798Y-109201247D01*
G36*
X229113798Y-109201247D02*
G01*
X229223058Y-109246836D01*
X229278877Y-109285442D01*
X229376380Y-109382783D01*
X229443757Y-109503765D01*
X229487029Y-109659458D01*
X229489365Y-109672249D01*
X229512204Y-109800975D01*
X228771178Y-109931639D01*
X228798864Y-109996292D01*
X228838155Y-110052342D01*
X228899294Y-110107181D01*
X228911525Y-110115501D01*
X229010952Y-110154665D01*
X229114924Y-110145949D01*
X229226328Y-110089002D01*
X229244576Y-110075739D01*
X229300591Y-110035325D01*
X229338633Y-110011219D01*
X229345514Y-110008396D01*
X229373168Y-110019144D01*
X229427350Y-110047816D01*
X229455108Y-110063811D01*
X229513431Y-110101511D01*
X229535307Y-110129338D01*
X229528869Y-110159619D01*
X229524126Y-110168425D01*
X229488739Y-110209545D01*
X229427754Y-110262689D01*
X229384396Y-110295080D01*
X229256765Y-110361185D01*
X229109624Y-110401258D01*
X228965123Y-110409997D01*
X228923408Y-110405366D01*
X228789033Y-110361222D01*
X228680179Y-110276033D01*
X228596146Y-110148907D01*
X228536232Y-109978954D01*
X228516901Y-109887972D01*
X228502710Y-109753046D01*
X228498350Y-109711583D01*
X228737858Y-109711583D01*
X228762339Y-109717426D01*
X228824837Y-109714377D01*
X228914522Y-109703268D01*
X228974875Y-109693431D01*
X229083053Y-109673579D01*
X229150794Y-109658001D01*
X229186852Y-109643193D01*
X229199983Y-109625655D01*
X229199270Y-109603691D01*
X229166609Y-109541405D01*
X229102176Y-109485517D01*
X229023717Y-109447735D01*
X228950447Y-109439540D01*
X228859037Y-109474388D01*
X228786394Y-109541347D01*
X228742954Y-109627058D01*
X228737858Y-109711583D01*
X228498350Y-109711583D01*
X228496237Y-109691493D01*
X228510817Y-109529480D01*
X228561311Y-109400551D01*
X228648389Y-109303324D01*
X228772718Y-109236417D01*
X228842758Y-109215402D01*
X228991202Y-109191439D01*
X229113798Y-109201247D01*
G37*
X222060442Y-108538605D02*
X222086909Y-108545802D01*
X222182416Y-108592846D01*
X222278341Y-108669166D01*
X222355618Y-108758199D01*
X222380676Y-108800978D01*
X222410591Y-108880011D01*
X222437256Y-108977194D01*
X222445573Y-109017801D01*
X222468411Y-109146526D01*
X221727385Y-109277189D01*
X221755073Y-109341844D01*
X221807909Y-109414769D01*
X221887849Y-109471749D01*
X221976321Y-109501935D01*
X222029337Y-109502094D01*
X222097054Y-109478614D01*
X222175254Y-109435889D01*
X222201223Y-109417996D01*
X222296480Y-109347409D01*
X222397613Y-109399685D01*
X222457161Y-109436601D01*
X222491224Y-109469733D01*
X222494574Y-109480628D01*
X222474884Y-109511939D01*
X222428531Y-109562419D01*
X222385536Y-109603007D01*
X222264433Y-109683693D01*
X222121881Y-109735684D01*
X221974849Y-109754627D01*
X221852355Y-109739729D01*
X221719146Y-109685033D01*
X221616379Y-109600218D01*
X221540326Y-109480447D01*
X221487264Y-109320891D01*
X221471902Y-109246310D01*
X221450195Y-109073024D01*
X221450367Y-109067841D01*
X221451812Y-109024545D01*
X221695910Y-109024545D01*
X221705513Y-109039461D01*
X221734873Y-109043443D01*
X221792870Y-109037143D01*
X221888385Y-109021209D01*
X221925107Y-109014751D01*
X222036589Y-108993721D01*
X222106582Y-108976395D01*
X222142993Y-108960080D01*
X222153723Y-108942082D01*
X222153316Y-108936981D01*
X222130898Y-108899831D01*
X222082535Y-108850778D01*
X222062529Y-108834145D01*
X221991306Y-108789682D01*
X221923394Y-108779237D01*
X221888550Y-108783507D01*
X221799160Y-108822705D01*
X221731602Y-108897566D01*
X221697554Y-108995002D01*
X221697183Y-108998045D01*
X221695910Y-109024545D01*
X221451812Y-109024545D01*
X221454877Y-108932737D01*
X221487195Y-108815462D01*
X221536510Y-108727563D01*
X221638044Y-108623776D01*
X221766813Y-108555177D01*
X221911414Y-108525531D01*
X222060442Y-108538605D01*
G36*
X222060442Y-108538605D02*
G01*
X222086909Y-108545802D01*
X222182416Y-108592846D01*
X222278341Y-108669166D01*
X222355618Y-108758199D01*
X222380676Y-108800978D01*
X222410591Y-108880011D01*
X222437256Y-108977194D01*
X222445573Y-109017801D01*
X222468411Y-109146526D01*
X221727385Y-109277189D01*
X221755073Y-109341844D01*
X221807909Y-109414769D01*
X221887849Y-109471749D01*
X221976321Y-109501935D01*
X222029337Y-109502094D01*
X222097054Y-109478614D01*
X222175254Y-109435889D01*
X222201223Y-109417996D01*
X222296480Y-109347409D01*
X222397613Y-109399685D01*
X222457161Y-109436601D01*
X222491224Y-109469733D01*
X222494574Y-109480628D01*
X222474884Y-109511939D01*
X222428531Y-109562419D01*
X222385536Y-109603007D01*
X222264433Y-109683693D01*
X222121881Y-109735684D01*
X221974849Y-109754627D01*
X221852355Y-109739729D01*
X221719146Y-109685033D01*
X221616379Y-109600218D01*
X221540326Y-109480447D01*
X221487264Y-109320891D01*
X221471902Y-109246310D01*
X221450195Y-109073024D01*
X221450367Y-109067841D01*
X221451812Y-109024545D01*
X221695910Y-109024545D01*
X221705513Y-109039461D01*
X221734873Y-109043443D01*
X221792870Y-109037143D01*
X221888385Y-109021209D01*
X221925107Y-109014751D01*
X222036589Y-108993721D01*
X222106582Y-108976395D01*
X222142993Y-108960080D01*
X222153723Y-108942082D01*
X222153316Y-108936981D01*
X222130898Y-108899831D01*
X222082535Y-108850778D01*
X222062529Y-108834145D01*
X221991306Y-108789682D01*
X221923394Y-108779237D01*
X221888550Y-108783507D01*
X221799160Y-108822705D01*
X221731602Y-108897566D01*
X221697554Y-108995002D01*
X221697183Y-108998045D01*
X221695910Y-109024545D01*
X221451812Y-109024545D01*
X221454877Y-108932737D01*
X221487195Y-108815462D01*
X221536510Y-108727563D01*
X221638044Y-108623776D01*
X221766813Y-108555177D01*
X221911414Y-108525531D01*
X222060442Y-108538605D01*
G37*
X227160213Y-109541078D02*
X227192438Y-109549110D01*
X227256500Y-109573737D01*
X227307869Y-109605138D01*
X227349654Y-109649791D01*
X227384965Y-109714171D01*
X227416912Y-109804755D01*
X227448605Y-109928020D01*
X227483152Y-110090441D01*
X227504576Y-110199224D01*
X227595823Y-110669892D01*
X227459068Y-110694006D01*
X227375490Y-110705156D01*
X227330650Y-110700804D01*
X227316082Y-110682788D01*
X227306444Y-110662229D01*
X227281096Y-110670954D01*
X227248616Y-110694529D01*
X227164343Y-110736745D01*
X227051282Y-110764053D01*
X226928978Y-110773560D01*
X226816975Y-110762377D01*
X226806670Y-110759901D01*
X226697059Y-110708583D01*
X226615970Y-110624673D01*
X226566754Y-110518556D01*
X226561961Y-110478159D01*
X226556912Y-110435598D01*
X226803336Y-110435598D01*
X226834095Y-110485678D01*
X226903954Y-110513134D01*
X227009341Y-110515897D01*
X227064196Y-110509060D01*
X227153565Y-110486046D01*
X227208973Y-110448075D01*
X227221375Y-110432484D01*
X227248715Y-110354737D01*
X227246639Y-110288955D01*
X227231505Y-110203123D01*
X227111952Y-110224204D01*
X226974229Y-110255791D01*
X226880681Y-110295258D01*
X226825971Y-110345135D01*
X226815249Y-110364962D01*
X226803336Y-110435598D01*
X226556912Y-110435598D01*
X226552762Y-110400613D01*
X226577343Y-110281229D01*
X226624432Y-110195175D01*
X226655255Y-110156125D01*
X226687280Y-110128387D01*
X226731561Y-110107110D01*
X226799155Y-110087441D01*
X226901117Y-110064529D01*
X226941651Y-110055963D01*
X227196124Y-110002469D01*
X227182089Y-109925066D01*
X227157817Y-109845382D01*
X227113298Y-109802464D01*
X227035350Y-109783773D01*
X227033309Y-109783555D01*
X226928478Y-109789287D01*
X226830879Y-109823155D01*
X226763155Y-109875603D01*
X226736622Y-109900282D01*
X226703889Y-109903287D01*
X226649288Y-109883936D01*
X226616638Y-109869241D01*
X226552145Y-109836919D01*
X226511222Y-109811380D01*
X226503951Y-109803284D01*
X226518990Y-109752104D01*
X226578034Y-109683739D01*
X226604640Y-109659493D01*
X226684982Y-109611650D01*
X226797758Y-109572685D01*
X226925919Y-109545801D01*
X227052419Y-109534198D01*
X227160213Y-109541078D01*
G36*
X227160213Y-109541078D02*
G01*
X227192438Y-109549110D01*
X227256500Y-109573737D01*
X227307869Y-109605138D01*
X227349654Y-109649791D01*
X227384965Y-109714171D01*
X227416912Y-109804755D01*
X227448605Y-109928020D01*
X227483152Y-110090441D01*
X227504576Y-110199224D01*
X227595823Y-110669892D01*
X227459068Y-110694006D01*
X227375490Y-110705156D01*
X227330650Y-110700804D01*
X227316082Y-110682788D01*
X227306444Y-110662229D01*
X227281096Y-110670954D01*
X227248616Y-110694529D01*
X227164343Y-110736745D01*
X227051282Y-110764053D01*
X226928978Y-110773560D01*
X226816975Y-110762377D01*
X226806670Y-110759901D01*
X226697059Y-110708583D01*
X226615970Y-110624673D01*
X226566754Y-110518556D01*
X226561961Y-110478159D01*
X226556912Y-110435598D01*
X226803336Y-110435598D01*
X226834095Y-110485678D01*
X226903954Y-110513134D01*
X227009341Y-110515897D01*
X227064196Y-110509060D01*
X227153565Y-110486046D01*
X227208973Y-110448075D01*
X227221375Y-110432484D01*
X227248715Y-110354737D01*
X227246639Y-110288955D01*
X227231505Y-110203123D01*
X227111952Y-110224204D01*
X226974229Y-110255791D01*
X226880681Y-110295258D01*
X226825971Y-110345135D01*
X226815249Y-110364962D01*
X226803336Y-110435598D01*
X226556912Y-110435598D01*
X226552762Y-110400613D01*
X226577343Y-110281229D01*
X226624432Y-110195175D01*
X226655255Y-110156125D01*
X226687280Y-110128387D01*
X226731561Y-110107110D01*
X226799155Y-110087441D01*
X226901117Y-110064529D01*
X226941651Y-110055963D01*
X227196124Y-110002469D01*
X227182089Y-109925066D01*
X227157817Y-109845382D01*
X227113298Y-109802464D01*
X227035350Y-109783773D01*
X227033309Y-109783555D01*
X226928478Y-109789287D01*
X226830879Y-109823155D01*
X226763155Y-109875603D01*
X226736622Y-109900282D01*
X226703889Y-109903287D01*
X226649288Y-109883936D01*
X226616638Y-109869241D01*
X226552145Y-109836919D01*
X226511222Y-109811380D01*
X226503951Y-109803284D01*
X226518990Y-109752104D01*
X226578034Y-109683739D01*
X226604640Y-109659493D01*
X226684982Y-109611650D01*
X226797758Y-109572685D01*
X226925919Y-109545801D01*
X227052419Y-109534198D01*
X227160213Y-109541078D01*
G37*
X222448758Y-110379975D02*
X222546423Y-110420286D01*
X222621286Y-110482438D01*
X222646052Y-110510231D01*
X222666037Y-110540393D01*
X222683350Y-110580433D01*
X222700102Y-110637856D01*
X222718401Y-110720170D01*
X222740358Y-110834881D01*
X222768081Y-110989496D01*
X222775327Y-111030536D01*
X222859009Y-111505121D01*
X222741296Y-111525877D01*
X222665286Y-111533857D01*
X222607420Y-111530324D01*
X222592062Y-111524562D01*
X222551537Y-111517087D01*
X222515198Y-111538115D01*
X222454376Y-111567092D01*
X222362748Y-111590595D01*
X222259253Y-111605656D01*
X222162827Y-111609309D01*
X222104934Y-111602389D01*
X221986534Y-111552865D01*
X221903357Y-111469833D01*
X221851259Y-111349117D01*
X221850411Y-111345931D01*
X221843179Y-111289580D01*
X221837812Y-111247763D01*
X222080334Y-111247763D01*
X222112275Y-111307677D01*
X222152354Y-111337498D01*
X222224914Y-111352604D01*
X222316297Y-111347627D01*
X222406604Y-111326222D01*
X222475936Y-111292042D01*
X222494004Y-111274772D01*
X222518654Y-111205340D01*
X222515068Y-111131983D01*
X222498442Y-111037690D01*
X222362774Y-111061612D01*
X222235637Y-111094260D01*
X222142889Y-111139597D01*
X222089835Y-111194130D01*
X222080334Y-111247763D01*
X221837812Y-111247763D01*
X221832600Y-111207147D01*
X221858808Y-111090313D01*
X221929646Y-110992963D01*
X221940123Y-110983396D01*
X221986518Y-110950081D01*
X222046661Y-110924256D01*
X222133109Y-110901614D01*
X222237021Y-110881591D01*
X222463848Y-110841501D01*
X222447081Y-110746409D01*
X222424449Y-110674325D01*
X222391179Y-110629225D01*
X222387840Y-110627100D01*
X222329386Y-110615111D01*
X222245427Y-110621274D01*
X222154999Y-110641466D01*
X222077146Y-110671564D01*
X222033486Y-110703815D01*
X222010918Y-110727464D01*
X221984177Y-110735934D01*
X221943630Y-110726970D01*
X221879645Y-110698312D01*
X221782589Y-110647706D01*
X221773659Y-110642936D01*
X221773665Y-110619462D01*
X221800526Y-110575685D01*
X221844079Y-110524621D01*
X221894163Y-110479288D01*
X221910386Y-110467808D01*
X221971996Y-110439744D01*
X222064486Y-110411167D01*
X222169324Y-110387760D01*
X222174264Y-110386879D01*
X222327960Y-110369535D01*
X222448758Y-110379975D01*
G36*
X222448758Y-110379975D02*
G01*
X222546423Y-110420286D01*
X222621286Y-110482438D01*
X222646052Y-110510231D01*
X222666037Y-110540393D01*
X222683350Y-110580433D01*
X222700102Y-110637856D01*
X222718401Y-110720170D01*
X222740358Y-110834881D01*
X222768081Y-110989496D01*
X222775327Y-111030536D01*
X222859009Y-111505121D01*
X222741296Y-111525877D01*
X222665286Y-111533857D01*
X222607420Y-111530324D01*
X222592062Y-111524562D01*
X222551537Y-111517087D01*
X222515198Y-111538115D01*
X222454376Y-111567092D01*
X222362748Y-111590595D01*
X222259253Y-111605656D01*
X222162827Y-111609309D01*
X222104934Y-111602389D01*
X221986534Y-111552865D01*
X221903357Y-111469833D01*
X221851259Y-111349117D01*
X221850411Y-111345931D01*
X221843179Y-111289580D01*
X221837812Y-111247763D01*
X222080334Y-111247763D01*
X222112275Y-111307677D01*
X222152354Y-111337498D01*
X222224914Y-111352604D01*
X222316297Y-111347627D01*
X222406604Y-111326222D01*
X222475936Y-111292042D01*
X222494004Y-111274772D01*
X222518654Y-111205340D01*
X222515068Y-111131983D01*
X222498442Y-111037690D01*
X222362774Y-111061612D01*
X222235637Y-111094260D01*
X222142889Y-111139597D01*
X222089835Y-111194130D01*
X222080334Y-111247763D01*
X221837812Y-111247763D01*
X221832600Y-111207147D01*
X221858808Y-111090313D01*
X221929646Y-110992963D01*
X221940123Y-110983396D01*
X221986518Y-110950081D01*
X222046661Y-110924256D01*
X222133109Y-110901614D01*
X222237021Y-110881591D01*
X222463848Y-110841501D01*
X222447081Y-110746409D01*
X222424449Y-110674325D01*
X222391179Y-110629225D01*
X222387840Y-110627100D01*
X222329386Y-110615111D01*
X222245427Y-110621274D01*
X222154999Y-110641466D01*
X222077146Y-110671564D01*
X222033486Y-110703815D01*
X222010918Y-110727464D01*
X221984177Y-110735934D01*
X221943630Y-110726970D01*
X221879645Y-110698312D01*
X221782589Y-110647706D01*
X221773659Y-110642936D01*
X221773665Y-110619462D01*
X221800526Y-110575685D01*
X221844079Y-110524621D01*
X221894163Y-110479288D01*
X221910386Y-110467808D01*
X221971996Y-110439744D01*
X222064486Y-110411167D01*
X222169324Y-110387760D01*
X222174264Y-110386879D01*
X222327960Y-110369535D01*
X222448758Y-110379975D01*
G37*
X220982577Y-108721763D02*
X221038786Y-108738191D01*
X221110398Y-108771462D01*
X221165429Y-108811810D01*
X221208004Y-108867152D01*
X221242245Y-108945406D01*
X221272277Y-109054490D01*
X221302219Y-109202323D01*
X221313696Y-109266124D01*
X221337724Y-109406151D01*
X221352691Y-109506614D01*
X221359092Y-109576827D01*
X221357427Y-109626106D01*
X221348193Y-109663764D01*
X221336377Y-109690426D01*
X221252005Y-109809877D01*
X221142345Y-109892114D01*
X221015678Y-109933368D01*
X220880283Y-109929869D01*
X220835561Y-109918398D01*
X220727312Y-109884205D01*
X220870093Y-110693957D01*
X220935848Y-110643784D01*
X221026079Y-110598026D01*
X221141951Y-110569948D01*
X221261377Y-110563008D01*
X221355165Y-110578183D01*
X221438789Y-110623834D01*
X221516193Y-110696610D01*
X221522419Y-110704386D01*
X221549426Y-110741420D01*
X221571135Y-110779720D01*
X221589846Y-110827455D01*
X221607861Y-110892790D01*
X221627481Y-110983893D01*
X221651008Y-111108929D01*
X221676128Y-111249878D01*
X221755445Y-111699709D01*
X221485686Y-111747276D01*
X221339432Y-110917830D01*
X221252785Y-110867646D01*
X221165449Y-110830681D01*
X221089595Y-110834535D01*
X221019147Y-110871459D01*
X220983472Y-110901742D01*
X220959710Y-110940102D01*
X220947485Y-110993903D01*
X220946422Y-111070498D01*
X220956146Y-111177243D01*
X220976281Y-111321496D01*
X220991294Y-111417228D01*
X221054359Y-111810686D01*
X220926916Y-111840801D01*
X220799475Y-111870914D01*
X220370132Y-109435986D01*
X220324368Y-109176444D01*
X220622653Y-109176444D01*
X220628937Y-109315892D01*
X220639891Y-109388420D01*
X220670705Y-109522954D01*
X220710495Y-109613098D01*
X220764118Y-109664095D01*
X220836432Y-109681186D01*
X220905355Y-109674996D01*
X220981050Y-109654797D01*
X221027454Y-109619645D01*
X221053262Y-109579458D01*
X221071821Y-109537856D01*
X221079469Y-109493807D01*
X221075889Y-109434608D01*
X221060765Y-109347561D01*
X221045680Y-109275100D01*
X221021188Y-109166251D01*
X221000831Y-109095545D01*
X220979886Y-109052111D01*
X220953631Y-109025082D01*
X220930833Y-109010803D01*
X220841831Y-108986592D01*
X220743466Y-108997492D01*
X220689968Y-109020671D01*
X220643028Y-109077807D01*
X220622653Y-109176444D01*
X220324368Y-109176444D01*
X220262825Y-108827420D01*
X220397705Y-108803637D01*
X220479250Y-108792560D01*
X220523035Y-108796564D01*
X220539061Y-108816612D01*
X220539182Y-108817269D01*
X220548634Y-108838003D01*
X220572990Y-108831165D01*
X220618071Y-108798601D01*
X220726481Y-108741830D01*
X220855020Y-108715206D01*
X220982577Y-108721763D01*
G36*
X220982577Y-108721763D02*
G01*
X221038786Y-108738191D01*
X221110398Y-108771462D01*
X221165429Y-108811810D01*
X221208004Y-108867152D01*
X221242245Y-108945406D01*
X221272277Y-109054490D01*
X221302219Y-109202323D01*
X221313696Y-109266124D01*
X221337724Y-109406151D01*
X221352691Y-109506614D01*
X221359092Y-109576827D01*
X221357427Y-109626106D01*
X221348193Y-109663764D01*
X221336377Y-109690426D01*
X221252005Y-109809877D01*
X221142345Y-109892114D01*
X221015678Y-109933368D01*
X220880283Y-109929869D01*
X220835561Y-109918398D01*
X220727312Y-109884205D01*
X220870093Y-110693957D01*
X220935848Y-110643784D01*
X221026079Y-110598026D01*
X221141951Y-110569948D01*
X221261377Y-110563008D01*
X221355165Y-110578183D01*
X221438789Y-110623834D01*
X221516193Y-110696610D01*
X221522419Y-110704386D01*
X221549426Y-110741420D01*
X221571135Y-110779720D01*
X221589846Y-110827455D01*
X221607861Y-110892790D01*
X221627481Y-110983893D01*
X221651008Y-111108929D01*
X221676128Y-111249878D01*
X221755445Y-111699709D01*
X221485686Y-111747276D01*
X221339432Y-110917830D01*
X221252785Y-110867646D01*
X221165449Y-110830681D01*
X221089595Y-110834535D01*
X221019147Y-110871459D01*
X220983472Y-110901742D01*
X220959710Y-110940102D01*
X220947485Y-110993903D01*
X220946422Y-111070498D01*
X220956146Y-111177243D01*
X220976281Y-111321496D01*
X220991294Y-111417228D01*
X221054359Y-111810686D01*
X220926916Y-111840801D01*
X220799475Y-111870914D01*
X220370132Y-109435986D01*
X220324368Y-109176444D01*
X220622653Y-109176444D01*
X220628937Y-109315892D01*
X220639891Y-109388420D01*
X220670705Y-109522954D01*
X220710495Y-109613098D01*
X220764118Y-109664095D01*
X220836432Y-109681186D01*
X220905355Y-109674996D01*
X220981050Y-109654797D01*
X221027454Y-109619645D01*
X221053262Y-109579458D01*
X221071821Y-109537856D01*
X221079469Y-109493807D01*
X221075889Y-109434608D01*
X221060765Y-109347561D01*
X221045680Y-109275100D01*
X221021188Y-109166251D01*
X221000831Y-109095545D01*
X220979886Y-109052111D01*
X220953631Y-109025082D01*
X220930833Y-109010803D01*
X220841831Y-108986592D01*
X220743466Y-108997492D01*
X220689968Y-109020671D01*
X220643028Y-109077807D01*
X220622653Y-109176444D01*
X220324368Y-109176444D01*
X220262825Y-108827420D01*
X220397705Y-108803637D01*
X220479250Y-108792560D01*
X220523035Y-108796564D01*
X220539061Y-108816612D01*
X220539182Y-108817269D01*
X220548634Y-108838003D01*
X220572990Y-108831165D01*
X220618071Y-108798601D01*
X220726481Y-108741830D01*
X220855020Y-108715206D01*
X220982577Y-108721763D01*
G37*
X224014698Y-99773285D02*
X224229270Y-100341854D01*
X224668110Y-100438364D01*
X225106949Y-100534873D01*
X225538890Y-100114604D01*
X225659951Y-99997446D01*
X225769565Y-99892571D01*
X225862602Y-99804790D01*
X225933933Y-99738911D01*
X225978427Y-99699747D01*
X225990848Y-99690803D01*
X226018275Y-99703336D01*
X226078748Y-99740689D01*
X226165359Y-99797947D01*
X226271201Y-99870193D01*
X226389369Y-99952513D01*
X226512956Y-100039990D01*
X226635053Y-100127710D01*
X226748756Y-100210755D01*
X226847157Y-100284210D01*
X226923349Y-100343160D01*
X226970426Y-100382688D01*
X226982461Y-100396573D01*
X226974126Y-100427552D01*
X226947663Y-100496868D01*
X226905938Y-100597691D01*
X226851812Y-100723194D01*
X226788150Y-100866547D01*
X226751053Y-100948450D01*
X226683483Y-101097976D01*
X226623763Y-101232687D01*
X226574765Y-101345894D01*
X226539362Y-101430911D01*
X226520421Y-101481050D01*
X226518054Y-101491303D01*
X226532012Y-101516793D01*
X226568172Y-101575561D01*
X226621191Y-101659390D01*
X226685728Y-101760062D01*
X226756441Y-101869359D01*
X226827992Y-101979065D01*
X226895034Y-102080961D01*
X226952231Y-102166831D01*
X226994239Y-102228458D01*
X227015718Y-102257622D01*
X227016874Y-102258715D01*
X227042827Y-102260432D01*
X227111480Y-102262364D01*
X227215728Y-102264383D01*
X227348470Y-102266364D01*
X227502602Y-102268179D01*
X227592496Y-102269047D01*
X227757247Y-102271291D01*
X227906315Y-102274784D01*
X228032136Y-102279229D01*
X228127148Y-102284333D01*
X228183790Y-102289800D01*
X228195483Y-102292640D01*
X228211790Y-102322950D01*
X228233184Y-102394127D01*
X228258175Y-102497668D01*
X228285268Y-102625074D01*
X228312971Y-102767841D01*
X228339791Y-102917471D01*
X228364233Y-103065462D01*
X228384808Y-103203313D01*
X228400019Y-103322521D01*
X228408376Y-103414589D01*
X228408384Y-103471012D01*
X228404610Y-103483423D01*
X228372454Y-103503172D01*
X228302655Y-103535609D01*
X228204499Y-103576729D01*
X228087268Y-103622534D01*
X228046235Y-103637899D01*
X227848302Y-103711430D01*
X227692052Y-103770092D01*
X227572356Y-103816025D01*
X227484087Y-103851368D01*
X227422118Y-103878266D01*
X227381324Y-103898855D01*
X227356575Y-103915278D01*
X227342745Y-103929674D01*
X227340928Y-103932358D01*
X227325267Y-103973190D01*
X227304114Y-104051011D01*
X227279294Y-104156424D01*
X227252636Y-104280037D01*
X227225963Y-104412457D01*
X227201102Y-104544284D01*
X227179877Y-104666129D01*
X227164116Y-104768597D01*
X227155645Y-104842291D01*
X227156288Y-104877818D01*
X227156956Y-104878950D01*
X227180410Y-104903946D01*
X227233278Y-104958721D01*
X227310015Y-105037582D01*
X227405075Y-105134833D01*
X227512915Y-105244784D01*
X227543614Y-105276020D01*
X227653446Y-105389523D01*
X227750830Y-105493581D01*
X227830402Y-105582181D01*
X227886794Y-105649305D01*
X227914639Y-105688940D01*
X227916555Y-105694075D01*
X227904478Y-105724969D01*
X227867261Y-105788514D01*
X227809892Y-105877707D01*
X227737363Y-105985543D01*
X227654661Y-106105020D01*
X227566779Y-106229131D01*
X227478703Y-106350875D01*
X227395427Y-106463245D01*
X227321938Y-106559240D01*
X227263226Y-106631854D01*
X227224282Y-106674085D01*
X227212823Y-106681879D01*
X227181527Y-106673799D01*
X227115939Y-106648685D01*
X227026780Y-106610829D01*
X226957855Y-106579859D01*
X226832800Y-106522780D01*
X226684792Y-106455706D01*
X226536409Y-106388848D01*
X226456672Y-106353123D01*
X226186844Y-106232570D01*
X226003772Y-106377670D01*
X225920031Y-106441859D01*
X225848204Y-106492941D01*
X225798906Y-106523544D01*
X225785926Y-106528882D01*
X225765840Y-106509913D01*
X225722931Y-106453869D01*
X225660593Y-106366019D01*
X225582220Y-106251631D01*
X225491207Y-106115975D01*
X225390948Y-105964319D01*
X225284838Y-105801930D01*
X225176272Y-105634083D01*
X225068645Y-105466040D01*
X224965349Y-105303074D01*
X224869781Y-105150453D01*
X224785335Y-105013446D01*
X224715403Y-104897321D01*
X224663384Y-104807348D01*
X224632669Y-104748795D01*
X224625731Y-104728049D01*
X224646146Y-104696426D01*
X224693559Y-104642576D01*
X224758045Y-104577701D01*
X224763502Y-104572506D01*
X224926961Y-104386601D01*
X225049083Y-104181806D01*
X225129540Y-103964037D01*
X225168005Y-103739214D01*
X225164150Y-103513254D01*
X225117647Y-103292073D01*
X225028168Y-103081591D01*
X224895385Y-102887723D01*
X224859121Y-102846580D01*
X224679961Y-102686208D01*
X224480726Y-102567191D01*
X224267536Y-102489249D01*
X224046511Y-102452106D01*
X223823774Y-102455483D01*
X223605443Y-102499103D01*
X223397637Y-102582690D01*
X223206480Y-102705964D01*
X223038091Y-102868649D01*
X222988199Y-102931424D01*
X222866625Y-103121830D01*
X222787397Y-103313676D01*
X222746279Y-103520309D01*
X222738156Y-103719192D01*
X222765778Y-103936319D01*
X222838413Y-104146611D01*
X222951267Y-104343371D01*
X223099549Y-104519906D01*
X223278466Y-104669519D01*
X223483225Y-104785512D01*
X223509459Y-104796919D01*
X223592863Y-104834716D01*
X223657220Y-104868859D01*
X223689236Y-104892260D01*
X223689787Y-104893081D01*
X223689353Y-104924578D01*
X223678527Y-104997797D01*
X223658700Y-105106627D01*
X223631261Y-105244959D01*
X223597596Y-105406678D01*
X223559096Y-105585677D01*
X223517151Y-105775842D01*
X223473146Y-105971064D01*
X223428474Y-106165231D01*
X223384522Y-106352232D01*
X223342679Y-106525955D01*
X223304334Y-106680292D01*
X223270876Y-106809129D01*
X223243694Y-106906356D01*
X223224177Y-106965862D01*
X223214974Y-106982210D01*
X223177198Y-106977404D01*
X223104926Y-106959397D01*
X223010653Y-106931478D01*
X222958549Y-106914625D01*
X222736890Y-106840890D01*
X222524566Y-107046459D01*
X222416232Y-107151694D01*
X222297707Y-107267379D01*
X222186712Y-107376198D01*
X222131156Y-107430936D01*
X222052740Y-107506349D01*
X221985768Y-107566963D01*
X221939007Y-107605050D01*
X221923241Y-107614138D01*
X221895812Y-107601957D01*
X221833424Y-107565449D01*
X221742182Y-107508471D01*
X221628189Y-107434880D01*
X221497549Y-107348532D01*
X221414746Y-107292901D01*
X221269435Y-107193048D01*
X221143206Y-107103078D01*
X221041208Y-107026883D01*
X220968584Y-106968357D01*
X220930490Y-106931393D01*
X220926036Y-106923314D01*
X220933905Y-106888208D01*
X220959924Y-106815443D01*
X221001095Y-106712450D01*
X221054417Y-106586661D01*
X221116893Y-106445506D01*
X221134784Y-106406070D01*
X221200031Y-106262698D01*
X221258496Y-106133665D01*
X221306916Y-106026218D01*
X221342029Y-105947603D01*
X221360572Y-105905068D01*
X221362317Y-105900701D01*
X221353316Y-105870995D01*
X221322181Y-105807684D01*
X221273840Y-105718971D01*
X221213223Y-105613058D01*
X221145257Y-105498149D01*
X221074870Y-105382449D01*
X221006994Y-105274159D01*
X220946555Y-105181483D01*
X220898483Y-105112626D01*
X220867707Y-105075789D01*
X220865686Y-105074118D01*
X220849221Y-105064943D01*
X220822856Y-105057647D01*
X220781043Y-105051973D01*
X220718231Y-105047662D01*
X220628871Y-105044458D01*
X220507412Y-105042102D01*
X220348303Y-105040337D01*
X220145996Y-105038903D01*
X220102204Y-105038648D01*
X219972170Y-105036523D01*
X219858353Y-105032086D01*
X219770844Y-105025919D01*
X219719736Y-105018607D01*
X219712607Y-105016058D01*
X219696161Y-104985218D01*
X219674590Y-104913623D01*
X219649399Y-104809776D01*
X219622088Y-104682171D01*
X219594166Y-104539309D01*
X219567137Y-104389689D01*
X219542505Y-104241809D01*
X219521775Y-104104170D01*
X219506452Y-103985269D01*
X219498039Y-103893606D01*
X219498041Y-103837681D01*
X219501851Y-103825562D01*
X219531983Y-103808704D01*
X219601881Y-103777594D01*
X219704540Y-103735100D01*
X219832953Y-103684087D01*
X219980116Y-103627417D01*
X220060405Y-103597158D01*
X220212769Y-103539924D01*
X220348568Y-103488467D01*
X220461170Y-103445340D01*
X220543944Y-103413088D01*
X220590259Y-103394264D01*
X220597778Y-103390575D01*
X220606613Y-103362379D01*
X220623945Y-103295157D01*
X220647570Y-103198467D01*
X220675282Y-103081864D01*
X220704876Y-102954904D01*
X220734146Y-102827142D01*
X220760887Y-102708135D01*
X220782894Y-102607438D01*
X220797961Y-102534607D01*
X220803882Y-102499197D01*
X220803845Y-102497702D01*
X220785834Y-102473768D01*
X220737668Y-102419876D01*
X220664349Y-102341344D01*
X220570878Y-102243489D01*
X220462256Y-102131632D01*
X220399267Y-102067486D01*
X220284342Y-101949771D01*
X220181803Y-101842580D01*
X220096690Y-101751362D01*
X220034045Y-101681566D01*
X219998911Y-101638638D01*
X219993166Y-101628639D01*
X220005381Y-101600854D01*
X220041907Y-101539686D01*
X220097933Y-101452116D01*
X220168644Y-101345121D01*
X220249227Y-101225686D01*
X220334874Y-101100785D01*
X220420766Y-100977401D01*
X220502093Y-100862514D01*
X220574041Y-100763102D01*
X220631798Y-100686146D01*
X220670550Y-100638626D01*
X220684182Y-100626512D01*
X220711416Y-100635364D01*
X220777529Y-100662064D01*
X220876063Y-100703849D01*
X221000560Y-100757951D01*
X221144560Y-100821604D01*
X221253300Y-100870269D01*
X221802932Y-101117461D01*
X222182298Y-100876679D01*
X222561663Y-100635898D01*
X222568835Y-100028230D01*
X222576005Y-99420561D01*
X223800124Y-99204716D01*
X224014698Y-99773285D01*
G36*
X224014698Y-99773285D02*
G01*
X224229270Y-100341854D01*
X224668110Y-100438364D01*
X225106949Y-100534873D01*
X225538890Y-100114604D01*
X225659951Y-99997446D01*
X225769565Y-99892571D01*
X225862602Y-99804790D01*
X225933933Y-99738911D01*
X225978427Y-99699747D01*
X225990848Y-99690803D01*
X226018275Y-99703336D01*
X226078748Y-99740689D01*
X226165359Y-99797947D01*
X226271201Y-99870193D01*
X226389369Y-99952513D01*
X226512956Y-100039990D01*
X226635053Y-100127710D01*
X226748756Y-100210755D01*
X226847157Y-100284210D01*
X226923349Y-100343160D01*
X226970426Y-100382688D01*
X226982461Y-100396573D01*
X226974126Y-100427552D01*
X226947663Y-100496868D01*
X226905938Y-100597691D01*
X226851812Y-100723194D01*
X226788150Y-100866547D01*
X226751053Y-100948450D01*
X226683483Y-101097976D01*
X226623763Y-101232687D01*
X226574765Y-101345894D01*
X226539362Y-101430911D01*
X226520421Y-101481050D01*
X226518054Y-101491303D01*
X226532012Y-101516793D01*
X226568172Y-101575561D01*
X226621191Y-101659390D01*
X226685728Y-101760062D01*
X226756441Y-101869359D01*
X226827992Y-101979065D01*
X226895034Y-102080961D01*
X226952231Y-102166831D01*
X226994239Y-102228458D01*
X227015718Y-102257622D01*
X227016874Y-102258715D01*
X227042827Y-102260432D01*
X227111480Y-102262364D01*
X227215728Y-102264383D01*
X227348470Y-102266364D01*
X227502602Y-102268179D01*
X227592496Y-102269047D01*
X227757247Y-102271291D01*
X227906315Y-102274784D01*
X228032136Y-102279229D01*
X228127148Y-102284333D01*
X228183790Y-102289800D01*
X228195483Y-102292640D01*
X228211790Y-102322950D01*
X228233184Y-102394127D01*
X228258175Y-102497668D01*
X228285268Y-102625074D01*
X228312971Y-102767841D01*
X228339791Y-102917471D01*
X228364233Y-103065462D01*
X228384808Y-103203313D01*
X228400019Y-103322521D01*
X228408376Y-103414589D01*
X228408384Y-103471012D01*
X228404610Y-103483423D01*
X228372454Y-103503172D01*
X228302655Y-103535609D01*
X228204499Y-103576729D01*
X228087268Y-103622534D01*
X228046235Y-103637899D01*
X227848302Y-103711430D01*
X227692052Y-103770092D01*
X227572356Y-103816025D01*
X227484087Y-103851368D01*
X227422118Y-103878266D01*
X227381324Y-103898855D01*
X227356575Y-103915278D01*
X227342745Y-103929674D01*
X227340928Y-103932358D01*
X227325267Y-103973190D01*
X227304114Y-104051011D01*
X227279294Y-104156424D01*
X227252636Y-104280037D01*
X227225963Y-104412457D01*
X227201102Y-104544284D01*
X227179877Y-104666129D01*
X227164116Y-104768597D01*
X227155645Y-104842291D01*
X227156288Y-104877818D01*
X227156956Y-104878950D01*
X227180410Y-104903946D01*
X227233278Y-104958721D01*
X227310015Y-105037582D01*
X227405075Y-105134833D01*
X227512915Y-105244784D01*
X227543614Y-105276020D01*
X227653446Y-105389523D01*
X227750830Y-105493581D01*
X227830402Y-105582181D01*
X227886794Y-105649305D01*
X227914639Y-105688940D01*
X227916555Y-105694075D01*
X227904478Y-105724969D01*
X227867261Y-105788514D01*
X227809892Y-105877707D01*
X227737363Y-105985543D01*
X227654661Y-106105020D01*
X227566779Y-106229131D01*
X227478703Y-106350875D01*
X227395427Y-106463245D01*
X227321938Y-106559240D01*
X227263226Y-106631854D01*
X227224282Y-106674085D01*
X227212823Y-106681879D01*
X227181527Y-106673799D01*
X227115939Y-106648685D01*
X227026780Y-106610829D01*
X226957855Y-106579859D01*
X226832800Y-106522780D01*
X226684792Y-106455706D01*
X226536409Y-106388848D01*
X226456672Y-106353123D01*
X226186844Y-106232570D01*
X226003772Y-106377670D01*
X225920031Y-106441859D01*
X225848204Y-106492941D01*
X225798906Y-106523544D01*
X225785926Y-106528882D01*
X225765840Y-106509913D01*
X225722931Y-106453869D01*
X225660593Y-106366019D01*
X225582220Y-106251631D01*
X225491207Y-106115975D01*
X225390948Y-105964319D01*
X225284838Y-105801930D01*
X225176272Y-105634083D01*
X225068645Y-105466040D01*
X224965349Y-105303074D01*
X224869781Y-105150453D01*
X224785335Y-105013446D01*
X224715403Y-104897321D01*
X224663384Y-104807348D01*
X224632669Y-104748795D01*
X224625731Y-104728049D01*
X224646146Y-104696426D01*
X224693559Y-104642576D01*
X224758045Y-104577701D01*
X224763502Y-104572506D01*
X224926961Y-104386601D01*
X225049083Y-104181806D01*
X225129540Y-103964037D01*
X225168005Y-103739214D01*
X225164150Y-103513254D01*
X225117647Y-103292073D01*
X225028168Y-103081591D01*
X224895385Y-102887723D01*
X224859121Y-102846580D01*
X224679961Y-102686208D01*
X224480726Y-102567191D01*
X224267536Y-102489249D01*
X224046511Y-102452106D01*
X223823774Y-102455483D01*
X223605443Y-102499103D01*
X223397637Y-102582690D01*
X223206480Y-102705964D01*
X223038091Y-102868649D01*
X222988199Y-102931424D01*
X222866625Y-103121830D01*
X222787397Y-103313676D01*
X222746279Y-103520309D01*
X222738156Y-103719192D01*
X222765778Y-103936319D01*
X222838413Y-104146611D01*
X222951267Y-104343371D01*
X223099549Y-104519906D01*
X223278466Y-104669519D01*
X223483225Y-104785512D01*
X223509459Y-104796919D01*
X223592863Y-104834716D01*
X223657220Y-104868859D01*
X223689236Y-104892260D01*
X223689787Y-104893081D01*
X223689353Y-104924578D01*
X223678527Y-104997797D01*
X223658700Y-105106627D01*
X223631261Y-105244959D01*
X223597596Y-105406678D01*
X223559096Y-105585677D01*
X223517151Y-105775842D01*
X223473146Y-105971064D01*
X223428474Y-106165231D01*
X223384522Y-106352232D01*
X223342679Y-106525955D01*
X223304334Y-106680292D01*
X223270876Y-106809129D01*
X223243694Y-106906356D01*
X223224177Y-106965862D01*
X223214974Y-106982210D01*
X223177198Y-106977404D01*
X223104926Y-106959397D01*
X223010653Y-106931478D01*
X222958549Y-106914625D01*
X222736890Y-106840890D01*
X222524566Y-107046459D01*
X222416232Y-107151694D01*
X222297707Y-107267379D01*
X222186712Y-107376198D01*
X222131156Y-107430936D01*
X222052740Y-107506349D01*
X221985768Y-107566963D01*
X221939007Y-107605050D01*
X221923241Y-107614138D01*
X221895812Y-107601957D01*
X221833424Y-107565449D01*
X221742182Y-107508471D01*
X221628189Y-107434880D01*
X221497549Y-107348532D01*
X221414746Y-107292901D01*
X221269435Y-107193048D01*
X221143206Y-107103078D01*
X221041208Y-107026883D01*
X220968584Y-106968357D01*
X220930490Y-106931393D01*
X220926036Y-106923314D01*
X220933905Y-106888208D01*
X220959924Y-106815443D01*
X221001095Y-106712450D01*
X221054417Y-106586661D01*
X221116893Y-106445506D01*
X221134784Y-106406070D01*
X221200031Y-106262698D01*
X221258496Y-106133665D01*
X221306916Y-106026218D01*
X221342029Y-105947603D01*
X221360572Y-105905068D01*
X221362317Y-105900701D01*
X221353316Y-105870995D01*
X221322181Y-105807684D01*
X221273840Y-105718971D01*
X221213223Y-105613058D01*
X221145257Y-105498149D01*
X221074870Y-105382449D01*
X221006994Y-105274159D01*
X220946555Y-105181483D01*
X220898483Y-105112626D01*
X220867707Y-105075789D01*
X220865686Y-105074118D01*
X220849221Y-105064943D01*
X220822856Y-105057647D01*
X220781043Y-105051973D01*
X220718231Y-105047662D01*
X220628871Y-105044458D01*
X220507412Y-105042102D01*
X220348303Y-105040337D01*
X220145996Y-105038903D01*
X220102204Y-105038648D01*
X219972170Y-105036523D01*
X219858353Y-105032086D01*
X219770844Y-105025919D01*
X219719736Y-105018607D01*
X219712607Y-105016058D01*
X219696161Y-104985218D01*
X219674590Y-104913623D01*
X219649399Y-104809776D01*
X219622088Y-104682171D01*
X219594166Y-104539309D01*
X219567137Y-104389689D01*
X219542505Y-104241809D01*
X219521775Y-104104170D01*
X219506452Y-103985269D01*
X219498039Y-103893606D01*
X219498041Y-103837681D01*
X219501851Y-103825562D01*
X219531983Y-103808704D01*
X219601881Y-103777594D01*
X219704540Y-103735100D01*
X219832953Y-103684087D01*
X219980116Y-103627417D01*
X220060405Y-103597158D01*
X220212769Y-103539924D01*
X220348568Y-103488467D01*
X220461170Y-103445340D01*
X220543944Y-103413088D01*
X220590259Y-103394264D01*
X220597778Y-103390575D01*
X220606613Y-103362379D01*
X220623945Y-103295157D01*
X220647570Y-103198467D01*
X220675282Y-103081864D01*
X220704876Y-102954904D01*
X220734146Y-102827142D01*
X220760887Y-102708135D01*
X220782894Y-102607438D01*
X220797961Y-102534607D01*
X220803882Y-102499197D01*
X220803845Y-102497702D01*
X220785834Y-102473768D01*
X220737668Y-102419876D01*
X220664349Y-102341344D01*
X220570878Y-102243489D01*
X220462256Y-102131632D01*
X220399267Y-102067486D01*
X220284342Y-101949771D01*
X220181803Y-101842580D01*
X220096690Y-101751362D01*
X220034045Y-101681566D01*
X219998911Y-101638638D01*
X219993166Y-101628639D01*
X220005381Y-101600854D01*
X220041907Y-101539686D01*
X220097933Y-101452116D01*
X220168644Y-101345121D01*
X220249227Y-101225686D01*
X220334874Y-101100785D01*
X220420766Y-100977401D01*
X220502093Y-100862514D01*
X220574041Y-100763102D01*
X220631798Y-100686146D01*
X220670550Y-100638626D01*
X220684182Y-100626512D01*
X220711416Y-100635364D01*
X220777529Y-100662064D01*
X220876063Y-100703849D01*
X221000560Y-100757951D01*
X221144560Y-100821604D01*
X221253300Y-100870269D01*
X221802932Y-101117461D01*
X222182298Y-100876679D01*
X222561663Y-100635898D01*
X222568835Y-100028230D01*
X222576005Y-99420561D01*
X223800124Y-99204716D01*
X224014698Y-99773285D01*
G37*
%TD*%
D12*
%TO.C,T1*%
X177938324Y-33631498D03*
X180938320Y-33631496D03*
%TD*%
D13*
%TO.C,*%
X248759672Y-68030784D03*
X249033004Y-66797864D03*
X249438204Y-69095866D03*
X250671124Y-69369198D03*
D14*
X250384605Y-67744265D03*
D13*
X250098086Y-66119332D03*
X251331006Y-66392664D03*
X251736206Y-68690666D03*
X252009538Y-67457746D03*
%TD*%
%TO.C,*%
X93195452Y-54032026D03*
X94048625Y-53100951D03*
X93250537Y-55293679D03*
X95310278Y-53045866D03*
D14*
X94745945Y-54596359D03*
D13*
X94181612Y-56146852D03*
X96241353Y-53899039D03*
X95443265Y-56091767D03*
X96296438Y-55160692D03*
%TD*%
%TO.C,*%
X182561437Y-133130251D03*
X182129516Y-131943555D03*
X183705973Y-133663956D03*
X182663221Y-130799019D03*
D14*
X183777945Y-132015527D03*
D13*
X184892669Y-133232035D03*
X183849917Y-130367098D03*
X185426374Y-132087499D03*
X184994453Y-130900803D03*
%TD*%
%TO.C,*%
X149788316Y-35431511D03*
X150271590Y-34264785D03*
X150271590Y-36598237D03*
X151438316Y-33781511D03*
D14*
X151438316Y-35431511D03*
D13*
X151438316Y-37081511D03*
X152605042Y-34264785D03*
X152605042Y-36598237D03*
X153088316Y-35431511D03*
%TD*%
%TO.C,*%
X111398540Y-36181319D03*
X112251713Y-35250244D03*
X111453625Y-37442972D03*
X113513366Y-35195159D03*
D14*
X112949033Y-36745652D03*
D13*
X112384700Y-38296145D03*
X114444441Y-36048332D03*
X113646353Y-38241060D03*
X114499526Y-37309985D03*
%TD*%
%TO.C,*%
X206580198Y-55160694D03*
X206635283Y-53899041D03*
X207433371Y-56091769D03*
X207566358Y-53045868D03*
D14*
X208130691Y-54596361D03*
D13*
X208695024Y-56146854D03*
X208828011Y-53100953D03*
X209626099Y-55293681D03*
X209681184Y-54032028D03*
%TD*%
%TO.C,*%
X149788319Y-140692518D03*
X150271593Y-139525792D03*
X150271593Y-141859244D03*
X151438319Y-139042518D03*
D14*
X151438319Y-140692518D03*
D13*
X151438319Y-142342518D03*
X152605045Y-139525792D03*
X152605045Y-141859244D03*
X153088319Y-140692518D03*
%TD*%
%TO.C,*%
X239285720Y-107881342D03*
X239559052Y-106648422D03*
X239964252Y-108946424D03*
X241197172Y-109219756D03*
D14*
X240910653Y-107594823D03*
D13*
X240624134Y-105969890D03*
X241857054Y-106243222D03*
X242262254Y-108541224D03*
X242535586Y-107308304D03*
%TD*%
%TO.C,*%
X188377118Y-37309990D03*
X188432203Y-36048337D03*
X189230291Y-38241065D03*
X189363278Y-35195164D03*
D14*
X189927611Y-36745657D03*
D13*
X190491944Y-38296150D03*
X190624931Y-35250249D03*
X191423019Y-37442977D03*
X191478104Y-36181324D03*
%TD*%
%TO.C,*%
X50867097Y-67457746D03*
X51545629Y-66392664D03*
X51140429Y-68690666D03*
X52778549Y-66119332D03*
D14*
X52492030Y-67744265D03*
D13*
X52205511Y-69369198D03*
X53843631Y-66797864D03*
X53438431Y-69095866D03*
X54116963Y-68030784D03*
%TD*%
%TO.C,*%
X117882183Y-130900811D03*
X119026719Y-130367106D03*
X117450262Y-132087507D03*
X120213415Y-130799027D03*
D14*
X119098691Y-132015535D03*
D13*
X117983967Y-133232043D03*
X120747120Y-131943563D03*
X119170663Y-133663964D03*
X120315199Y-133130259D03*
%TD*%
D15*
%TO.C,B1*%
X233752015Y-45119236D03*
X234463767Y-47775532D03*
%TD*%
D16*
%TO.C,ENC1*%
X145838324Y-115992513D03*
D17*
X157038324Y-115992513D03*
D18*
X153938324Y-123492513D03*
X148938324Y-123492513D03*
X151438326Y-123492515D03*
X148938324Y-108992513D03*
X153938324Y-108992513D03*
%TD*%
D13*
%TO.C,*%
X60341047Y-107308294D03*
X61019579Y-106243212D03*
X60614379Y-108541214D03*
X62252499Y-105969880D03*
D14*
X61965980Y-107594813D03*
D13*
X61679461Y-109219746D03*
X63317581Y-106648412D03*
X62912381Y-108946414D03*
X63590913Y-107881332D03*
%TD*%
D19*
%TO.C,S14*%
X137188323Y-84431323D03*
D20*
X143052004Y-81772897D03*
X136986666Y-78124039D03*
%TD*%
D19*
%TO.C,S25*%
X185665694Y-83011576D03*
D20*
X187932153Y-76985535D03*
X181063180Y-78694244D03*
%TD*%
D19*
%TO.C,S1*%
X51943060Y-98211812D03*
D20*
X57092362Y-94347271D03*
X50381037Y-92097682D03*
%TD*%
D19*
%TO.C,S9*%
X108331759Y-49431508D03*
D20*
X114073899Y-46519841D03*
X107855174Y-43139023D03*
%TD*%
D19*
%TO.C,S16*%
X247634272Y-79500464D03*
D20*
X251151281Y-74107821D03*
X244075295Y-74289305D03*
%TD*%
D19*
%TO.C,S2*%
X55242378Y-79500460D03*
D20*
X60391680Y-75635919D03*
X53680355Y-73386330D03*
%TD*%
D19*
%TO.C,S6*%
X83624641Y-52496685D03*
D20*
X89091158Y-49095638D03*
X82601443Y-46269682D03*
%TD*%
D19*
%TO.C,S29*%
X131968707Y-134992512D03*
D20*
X138388001Y-134499905D03*
X133936432Y-128996636D03*
%TD*%
D19*
%TO.C,S24*%
X192936675Y-100565289D03*
D20*
X195203134Y-94539248D03*
X188334161Y-96247957D03*
%TD*%
D19*
%TO.C,S15*%
X250933576Y-98211813D03*
D20*
X254450585Y-92819170D03*
X247374599Y-93000654D03*
%TD*%
D19*
%TO.C,S10*%
X109939962Y-100565282D03*
D20*
X115803643Y-97906856D03*
X109738305Y-94257998D03*
%TD*%
D19*
%TO.C,S27*%
X172959304Y-101985034D03*
D20*
X175225763Y-95958993D03*
X168356790Y-97667702D03*
%TD*%
D19*
%TO.C,S8*%
X101833381Y-67285666D03*
D20*
X107575521Y-64373999D03*
X101356796Y-60993181D03*
%TD*%
D19*
%TO.C,S22*%
X201043265Y-67285670D03*
D20*
X203570419Y-61364227D03*
X196633450Y-62771689D03*
%TD*%
D19*
%TO.C,S19*%
X224169562Y-70849264D03*
D20*
X227203188Y-65170613D03*
X220169945Y-65968120D03*
%TD*%
D19*
%TO.C,S26*%
X178394714Y-65457868D03*
D20*
X180661173Y-59431827D03*
X173792200Y-61140536D03*
%TD*%
D19*
%TO.C,S12*%
X124481927Y-65457861D03*
D20*
X130345608Y-62799435D03*
X124280270Y-59150577D03*
%TD*%
D19*
%TO.C,S17*%
X240660712Y-58667794D03*
D20*
X243694338Y-52989143D03*
X236661095Y-53786650D03*
%TD*%
D19*
%TO.C,S5*%
X78707075Y-70849263D03*
D20*
X84173592Y-67448216D03*
X77683877Y-64622260D03*
%TD*%
D19*
%TO.C,S11*%
X117210948Y-83011570D03*
D20*
X123074629Y-80353144D03*
X117009291Y-76704286D03*
%TD*%
D19*
%TO.C,S30*%
X170907923Y-134992513D03*
D20*
X170976669Y-128554713D03*
X165106358Y-132509704D03*
%TD*%
D19*
%TO.C,S23*%
X194544881Y-49431510D03*
D20*
X197072035Y-43510067D03*
X190135066Y-44917529D03*
%TD*%
D19*
%TO.C,S28*%
X165688328Y-84431329D03*
D20*
X167954787Y-78405288D03*
X161085814Y-80113997D03*
%TD*%
D19*
%TO.C,S7*%
X95334986Y-85139826D03*
D20*
X101077126Y-82228159D03*
X94858401Y-78847341D03*
%TD*%
D19*
%TO.C,S20*%
X219251989Y-52496675D03*
D20*
X222285615Y-46818024D03*
X215252372Y-47615531D03*
%TD*%
D19*
%TO.C,S4*%
X73789510Y-89201853D03*
D20*
X79256027Y-85800806D03*
X72766312Y-82974850D03*
%TD*%
D19*
%TO.C,S3*%
X62215926Y-58667794D03*
D20*
X67682443Y-55266747D03*
X61192728Y-52440791D03*
%TD*%
D19*
%TO.C,S13*%
X129917331Y-101985039D03*
D20*
X135781012Y-99326613D03*
X129715674Y-95677755D03*
%TD*%
D19*
%TO.C,S21*%
X207541643Y-85139829D03*
D20*
X210068797Y-79218386D03*
X203131828Y-80625848D03*
%TD*%
D19*
%TO.C,S18*%
X229087114Y-89201859D03*
D20*
X232120740Y-83523208D03*
X225087497Y-84320715D03*
%TD*%
M02*
