%TF.GenerationSoftware,KiCad,Pcbnew,8.0.7*%
%TF.CreationDate,2024-12-24T09:40:09-07:00*%
%TF.ProjectId,chuck,63687563-6b2e-46b6-9963-61645f706362,v1.0*%
%TF.SameCoordinates,Original*%
%TF.FileFunction,Paste,Bot*%
%TF.FilePolarity,Positive*%
%FSLAX46Y46*%
G04 Gerber Fmt 4.6, Leading zero omitted, Abs format (unit mm)*
G04 Created by KiCad (PCBNEW 8.0.7) date 2024-12-24 09:40:09*
%MOMM*%
%LPD*%
G01*
G04 APERTURE LIST*
G04 Aperture macros list*
%AMRoundRect*
0 Rectangle with rounded corners*
0 $1 Rounding radius*
0 $2 $3 $4 $5 $6 $7 $8 $9 X,Y pos of 4 corners*
0 Add a 4 corners polygon primitive as box body*
4,1,4,$2,$3,$4,$5,$6,$7,$8,$9,$2,$3,0*
0 Add four circle primitives for the rounded corners*
1,1,$1+$1,$2,$3*
1,1,$1+$1,$4,$5*
1,1,$1+$1,$6,$7*
1,1,$1+$1,$8,$9*
0 Add four rect primitives between the rounded corners*
20,1,$1+$1,$2,$3,$4,$5,0*
20,1,$1+$1,$4,$5,$6,$7,0*
20,1,$1+$1,$6,$7,$8,$9,0*
20,1,$1+$1,$8,$9,$2,$3,0*%
%AMRotRect*
0 Rectangle, with rotation*
0 The origin of the aperture is its center*
0 $1 length*
0 $2 width*
0 $3 Rotation angle, in degrees counterclockwise*
0 Add horizontal line*
21,1,$1,$2,0,0,$3*%
G04 Aperture macros list end*
%ADD10R,0.900000X0.900000*%
%ADD11R,0.900000X1.250000*%
%ADD12O,2.750000X1.800000*%
%ADD13R,2.750000X1.800000*%
%ADD14C,2.000000*%
%ADD15RotRect,1.550000X1.000000X15.000000*%
%ADD16R,2.000000X2.000000*%
%ADD17RotRect,1.200000X1.200000X75.000000*%
%ADD18RotRect,1.000000X1.000000X200.000000*%
%ADD19RoundRect,0.250000X0.755403X1.237686X-1.273041X0.694166X-0.755403X-1.237686X1.273041X-0.694166X0*%
%ADD20RotRect,1.000000X1.000000X202.500000*%
%ADD21RoundRect,0.250000X1.273041X0.694166X-0.755403X1.237686X-1.273041X-0.694166X0.755403X-1.237686X0*%
%ADD22RotRect,1.000000X1.000000X100.000000*%
%ADD23RotRect,1.000000X1.000000X250.000000*%
%ADD24RotRect,1.200000X1.200000X105.000000*%
%ADD25RoundRect,0.250000X0.587390X1.325697X-1.352757X0.522062X-0.587390X-1.325697X1.352757X-0.522062X0*%
%ADD26RoundRect,0.250000X1.352757X0.522062X-0.587390X1.325697X-1.352757X-0.522062X0.587390X-1.325697X0*%
%ADD27RotRect,1.000000X1.000000X160.000000*%
%ADD28RotRect,1.000000X1.000000X105.000000*%
%ADD29RotRect,1.000000X1.000000X255.000000*%
%ADD30RotRect,1.000000X1.000000X247.500000*%
%ADD31RoundRect,0.250000X0.860400X1.167138X-1.207696X0.802477X-0.860400X-1.167138X1.207696X-0.802477X0*%
%ADD32RotRect,1.200000X1.200000X132.500000*%
%ADD33RoundRect,0.250000X0.644657X1.298814X-1.328697X0.580571X-0.644657X-1.298814X1.328697X-0.580571X0*%
%ADD34RotRect,1.000000X1.000000X195.000000*%
%ADD35RotRect,1.000000X1.000000X165.000000*%
%ADD36RoundRect,0.250000X1.328697X0.580571X-0.644657X1.298814X-1.328697X-0.580571X0.644657X-1.298814X0*%
%ADD37RoundRect,0.250000X0.098551X1.446647X-1.449731X0.027908X-0.098551X-1.446647X1.449731X-0.027908X0*%
%ADD38RoundRect,0.250000X1.207696X0.802477X-0.860400X1.167138X-1.207696X-0.802477X0.860400X-1.167138X0*%
%ADD39RotRect,1.000000X1.000000X260.000000*%
%ADD40RotRect,1.000000X1.000000X112.500000*%
%ADD41RotRect,1.000000X1.000000X110.000000*%
%ADD42RotRect,1.200000X1.200000X47.500000*%
%ADD43RotRect,1.000000X1.000000X157.500000*%
%ADD44RoundRect,0.250000X1.449731X0.027908X-0.098551X1.446647X-1.449731X-0.027908X0.098551X-1.446647X0*%
G04 APERTURE END LIST*
D10*
%TO.C,T1*%
X178280214Y-32279189D03*
X178280215Y-34479194D03*
X185680215Y-32279188D03*
X185680216Y-34479193D03*
D11*
X179730216Y-35454191D03*
X182730210Y-35454192D03*
X184230213Y-35454193D03*
%TD*%
D12*
%TO.C,MCU1*%
X124860218Y-34109192D03*
X124860218Y-36649194D03*
X124860216Y-39189191D03*
X124860222Y-41729193D03*
X124860218Y-44269193D03*
X124860219Y-46809193D03*
X124860219Y-49349192D03*
X141100216Y-49349192D03*
X141100216Y-46809190D03*
X141100218Y-44269193D03*
X141100212Y-41729191D03*
X141100216Y-39189191D03*
D13*
X141100215Y-36649191D03*
D12*
X141100215Y-34109192D03*
%TD*%
D14*
%TO.C,PAD2*%
X136980226Y-55479191D03*
%TD*%
%TO.C,PAD3*%
X170980219Y-51179192D03*
%TD*%
%TO.C,PAD1*%
X128980220Y-55479187D03*
%TD*%
D15*
%TO.C,B1*%
X233894232Y-46053425D03*
X238965341Y-44694625D03*
X234334225Y-47695499D03*
X239405334Y-46336699D03*
%TD*%
D16*
%TO.C,PAD4*%
X174480221Y-46179201D03*
%TD*%
D17*
%TO.C,SW1*%
X68901583Y-62269280D03*
X69755681Y-59081724D03*
%TD*%
D18*
%TO.C,DA5*%
X215508017Y-97013515D03*
X213722601Y-97663353D03*
X215299351Y-99217818D03*
%TD*%
D19*
%TO.C,S20*%
X228353137Y-45621004D03*
X214268638Y-48307889D03*
%TD*%
D20*
%TO.C,DA6*%
X181449444Y-113610578D03*
X179694074Y-114337676D03*
X181337125Y-115821883D03*
%TD*%
D21*
%TO.C,S4*%
X85323577Y-86493185D03*
X71782597Y-81777851D03*
%TD*%
%TO.C,S5*%
X90241135Y-68140584D03*
X76700155Y-63425250D03*
%TD*%
D22*
%TO.C,DC7*%
X245677564Y-82529166D03*
X245347633Y-80658030D03*
X243542990Y-81940893D03*
%TD*%
D23*
%TO.C,DC4*%
X115384025Y-51406128D03*
X114734185Y-53191545D03*
X116938490Y-52982873D03*
%TD*%
D24*
%TO.C,SW4*%
X239058848Y-62269273D03*
X238204744Y-59081715D03*
%TD*%
D21*
%TO.C,S3*%
X73749983Y-55959124D03*
X60209003Y-51243790D03*
%TD*%
D25*
%TO.C,S24*%
X201117196Y-92890133D03*
X187503905Y-97392433D03*
%TD*%
D26*
%TO.C,S10*%
X121717707Y-99051338D03*
X108908052Y-92608891D03*
%TD*%
D27*
%TO.C,DA2*%
X94237834Y-97663350D03*
X92452417Y-97013510D03*
X92661089Y-99217815D03*
%TD*%
D25*
%TO.C,S28*%
X173868839Y-76756166D03*
X160255548Y-81258466D03*
%TD*%
D28*
%TO.C,DC8*%
X222515948Y-74257564D03*
X222024194Y-72422303D03*
X220338224Y-73857574D03*
%TD*%
D25*
%TO.C,S26*%
X186575231Y-57782714D03*
X172961940Y-62285014D03*
%TD*%
D29*
%TO.C,DC2*%
X85936254Y-72422307D03*
X85444498Y-74257566D03*
X87622232Y-73857572D03*
%TD*%
D30*
%TO.C,DC6*%
X144139142Y-86600552D03*
X143412044Y-88355920D03*
X145623354Y-88243602D03*
%TD*%
D26*
%TO.C,S11*%
X128988689Y-81497625D03*
X116179034Y-75055178D03*
%TD*%
D31*
%TO.C,S16*%
X257287717Y-73221679D03*
X243022636Y-74670801D03*
%TD*%
D26*
%TO.C,S12*%
X136259672Y-63943924D03*
X123450017Y-57501477D03*
%TD*%
D24*
%TO.C,SW5*%
X217650135Y-56098166D03*
X216796031Y-52910608D03*
%TD*%
D26*
%TO.C,S14*%
X148966073Y-82917386D03*
X136156418Y-76474939D03*
%TD*%
D32*
%TO.C,SW6*%
X171553763Y-140071954D03*
X169324313Y-137638934D03*
%TD*%
D33*
%TO.C,S23*%
X203043806Y-42009375D03*
X189247087Y-45913585D03*
%TD*%
D19*
%TO.C,S18*%
X238188286Y-82326193D03*
X224103787Y-85013078D03*
%TD*%
D34*
%TO.C,DA4*%
X235976007Y-101502180D03*
X234140746Y-101993934D03*
X235576017Y-103679904D03*
%TD*%
D35*
%TO.C,DA1*%
X73819706Y-101993939D03*
X71984447Y-101502183D03*
X72384441Y-103679917D03*
%TD*%
D33*
%TO.C,S22*%
X209542184Y-59863527D03*
X195745465Y-63767737D03*
%TD*%
D19*
%TO.C,S19*%
X233270715Y-63973612D03*
X219186216Y-66660497D03*
%TD*%
D36*
%TO.C,S9*%
X120045683Y-47515895D03*
X106967200Y-41638334D03*
%TD*%
D25*
%TO.C,S27*%
X181139822Y-94309872D03*
X167526531Y-98812172D03*
%TD*%
D37*
%TO.C,S30*%
X176209625Y-125836480D03*
X164957192Y-134723276D03*
%TD*%
D33*
%TO.C,S21*%
X216040570Y-77717693D03*
X202243851Y-81621903D03*
%TD*%
D38*
%TO.C,S2*%
X66528122Y-76017419D03*
X52627701Y-72500202D03*
%TD*%
%TO.C,S1*%
X63228797Y-94728772D03*
X49328376Y-91211555D03*
%TD*%
D39*
%TO.C,DC1*%
X62612808Y-80658028D03*
X62282874Y-82529160D03*
X64417450Y-81940888D03*
%TD*%
D36*
%TO.C,S8*%
X113547303Y-65370059D03*
X100468820Y-59492498D03*
%TD*%
D40*
%TO.C,DC12*%
X164548398Y-88355925D03*
X163821300Y-86600555D03*
X162337093Y-88243606D03*
%TD*%
D41*
%TO.C,DC10*%
X193226265Y-53191534D03*
X192576427Y-51406118D03*
X191021962Y-52982868D03*
%TD*%
D25*
%TO.C,S25*%
X193846206Y-75336416D03*
X180232915Y-79838716D03*
%TD*%
D23*
%TO.C,DC3*%
X102387253Y-87114444D03*
X101737413Y-88899861D03*
X103941718Y-88691189D03*
%TD*%
D41*
%TO.C,DC9*%
X206223035Y-88899855D03*
X205573197Y-87114439D03*
X204018732Y-88691189D03*
%TD*%
D30*
%TO.C,DC5*%
X131432764Y-67627098D03*
X130705666Y-69382466D03*
X132916976Y-69270148D03*
%TD*%
D26*
%TO.C,S13*%
X141695088Y-100471095D03*
X128885433Y-94028648D03*
%TD*%
D21*
%TO.C,S6*%
X95158706Y-49787987D03*
X81617726Y-45072653D03*
%TD*%
D31*
%TO.C,S15*%
X260587037Y-91933022D03*
X246321956Y-93382144D03*
%TD*%
D42*
%TO.C,SW3*%
X136406699Y-140071945D03*
X138636143Y-137638925D03*
%TD*%
D43*
%TO.C,DA3*%
X128266358Y-114337677D03*
X126510990Y-113610579D03*
X126623308Y-115821889D03*
%TD*%
D36*
%TO.C,S7*%
X107048901Y-83224209D03*
X93970418Y-77346648D03*
%TD*%
D40*
%TO.C,DC11*%
X177254784Y-69382474D03*
X176527686Y-67627104D03*
X175043479Y-69270155D03*
%TD*%
D44*
%TO.C,S29*%
X143620981Y-136713497D03*
X133787282Y-126278416D03*
%TD*%
D17*
%TO.C,SW2*%
X90310306Y-56098158D03*
X91164404Y-52910602D03*
%TD*%
D19*
%TO.C,S17*%
X249761865Y-51792125D03*
X235677366Y-54479010D03*
%TD*%
M02*
