M48
; DRILL file {KiCad 8.0.7} date 2025-02-03T22:04:54-0700
; FORMAT={-:-/ absolute / inch / decimal}
; #@! TF.CreationDate,2025-02-03T22:04:54-07:00
; #@! TF.GenerationSoftware,Kicad,Pcbnew,8.0.7
; #@! TF.FileFunction,Plated,1,2,PTH
FMAT,2
INCH
; #@! TA.AperFunction,Plated,PTH,ViaDrill
T1C0.0118
; #@! TA.AperFunction,Plated,PTH,ComponentDrill
T2C0.0118
; #@! TA.AperFunction,Plated,PTH,ComponentDrill
T3C0.0157
; #@! TA.AperFunction,Plated,PTH,ComponentDrill
T4C0.0197
; #@! TA.AperFunction,Plated,PTH,ComponentDrill
T5C0.0354
; #@! TA.AperFunction,Plated,PTH,ComponentDrill
T6C0.0591
; #@! TA.AperFunction,Plated,PTH,ComponentDrill
T7C0.0866
; #@! TA.AperFunction,Plated,PTH,ComponentDrill
T8C0.1181
; #@! TA.AperFunction,Plated,PTH,ComponentDrill
T9C0.2008
%
G90
G05
T1
X3.0609Y-3.9747
X3.9312Y-3.9536
X4.0889Y-3.2778
X4.4455Y-2.6125
X4.4706Y-3.0733
X4.513Y-2.8777
X4.5388Y-2.6199
X4.6196Y-2.3035
X4.6481Y-4.6297
X4.8326Y-2.0792
X4.9187Y-3.6169
X5.1853Y-2.9189
X5.3912Y-2.1562
X5.443Y-2.1193
X5.5249Y-3.7784
X5.5464Y-3.1409
X5.5896Y-2.512
X5.7275Y-3.137
X6.5926Y-1.5996
X7.1394Y-3.7459
X7.2839Y-4.2491
X7.428Y-2.6937
X7.9679Y-3.8562
T2
X2.2207Y-4.0035
X2.2433Y-3.8756
X2.3506Y-3.2669
X2.3732Y-3.1389
X2.6126Y-2.4615
X2.6462Y-2.336
X2.6971Y-4.037
X2.7262Y-3.9286
X2.8226Y-4.0706
X2.8517Y-3.9622
X3.0682Y-3.6636
X3.1019Y-3.5381
X3.2618Y-2.9411
X3.2955Y-2.8156
X3.4554Y-2.2185
X3.4891Y-2.093
X3.5004Y-3.8569
X3.5388Y-3.7515
X3.6225Y-3.9014
X3.6609Y-3.7959
X3.9026Y-3.5173
X3.9471Y-3.3952
X4.1585Y-2.8144
X4.2029Y-2.6923
X4.4143Y-2.1115
X4.4588Y-1.9894
X4.4703Y-4.131
X4.52Y-4.011
X4.7417Y-1.6028
X4.7417Y-1.7028
X4.7417Y-1.4028
X4.7417Y-1.5028
X4.7417Y-1.8028
X4.7417Y-2.0028
X4.7565Y-3.4399
X4.8063Y-3.3199
X4.8401Y-4.5086
X4.8831Y-4.405
X4.9602Y-4.5583
X5.0031Y-4.4547
X5.0428Y-2.7488
X5.0925Y-2.6288
X5.2568Y-4.1869
X5.2703Y-5.5246
X5.3065Y-4.0668
X5.358Y-5.4288
X5.5291Y-2.0028
X5.5291Y-1.5028
X5.5291Y-1.8028
X5.5291Y-1.9028
X5.5291Y-1.7028
X5.5431Y-3.4958
X5.5928Y-3.3758
X6.3315Y-3.3758
X6.3812Y-3.4958
X6.5662Y-5.4288
X6.6178Y-4.0668
X6.654Y-5.5246
X6.6675Y-4.1869
X6.8318Y-2.6288
X6.8815Y-2.7488
X6.9212Y-4.4547
X6.9641Y-4.5583
X6.9759Y-1.4058
X7.0412Y-4.405
X7.0841Y-4.5086
X7.094Y-1.4058
X7.118Y-3.3199
X7.1531Y-1.4058
X7.1677Y-3.4399
X7.4043Y-4.011
X7.454Y-4.131
X7.4655Y-1.9894
X7.51Y-2.1115
X7.7214Y-2.6923
X7.7658Y-2.8144
X7.9772Y-3.3952
X8.0216Y-3.5173
X8.2634Y-3.7959
X8.3018Y-3.9014
X8.3855Y-3.7515
X8.4239Y-3.8569
X8.4352Y-2.093
X8.4688Y-2.2185
X8.6288Y-2.8156
X8.6624Y-2.9411
X8.8224Y-3.5381
X8.856Y-3.6636
X9.0726Y-3.9622
X9.1016Y-4.0706
X9.1084Y-1.8231
X9.1257Y-1.8877
X9.1981Y-3.9286
X9.2271Y-4.037
X9.2781Y-2.336
X9.308Y-1.7696
X9.3117Y-2.4615
X9.3253Y-1.8342
X9.5511Y-3.1389
X9.5736Y-3.2669
X9.681Y-3.8756
X9.7035Y-4.0035
T3
X2.0026Y-2.6558
X2.0134Y-2.7044
X2.0294Y-2.6139
X2.0553Y-2.7311
X2.0779Y-2.6031
X2.1039Y-2.7203
X2.1198Y-2.6298
X2.1306Y-2.6784
X2.3756Y-4.2247
X2.3864Y-4.2733
X2.4023Y-4.1828
X2.4283Y-4.3
X2.4509Y-4.172
X2.4769Y-4.2892
X2.4928Y-4.1988
X2.5036Y-4.2473
X3.6691Y-2.1272
X3.6713Y-2.1769
X3.7027Y-2.0906
X3.7079Y-2.2105
X3.7524Y-2.0884
X3.7576Y-2.2083
X3.789Y-2.122
X3.7912Y-2.1717
X4.3858Y-1.4245
X4.3879Y-1.4741
X4.4194Y-1.3878
X4.4246Y-1.5077
X4.469Y-1.3856
X4.4743Y-1.5056
X4.5057Y-1.4192
X4.5079Y-1.4689
X4.624Y-5.2003
X4.641Y-5.1536
X4.645Y-5.2454
X4.6861Y-5.1326
X4.6918Y-5.2624
X4.7328Y-5.1496
X4.7368Y-5.2413
X4.7538Y-5.1946
X5.8972Y-1.3949
X5.8972Y-5.5391
X5.9162Y-1.349
X5.9162Y-1.4409
X5.9162Y-5.4931
X5.9162Y-5.585
X5.9621Y-1.33
X5.9621Y-1.4599
X5.9621Y-5.4741
X5.9621Y-5.604
X6.0081Y-1.349
X6.0081Y-1.4409
X6.0081Y-5.4931
X6.0081Y-5.585
X6.0271Y-1.3949
X6.0271Y-5.5391
X7.1705Y-5.1946
X7.1875Y-5.2413
X7.1915Y-5.1496
X7.2325Y-5.2624
X7.2382Y-5.1326
X7.2792Y-5.2454
X7.2832Y-5.1536
X7.3003Y-5.2003
X7.4164Y-1.4689
X7.4186Y-1.4192
X7.45Y-1.5056
X7.4552Y-1.3856
X7.4997Y-1.5077
X7.5049Y-1.3878
X7.5363Y-1.4741
X7.5385Y-1.4245
X8.1331Y-2.1717
X8.1352Y-2.122
X8.1667Y-2.2083
X8.1719Y-2.0884
X8.2163Y-2.2105
X8.2216Y-2.0906
X8.253Y-2.1769
X8.2552Y-2.1272
X9.4207Y-4.2473
X9.4315Y-4.1988
X9.4474Y-4.2892
X9.4734Y-4.172
X9.496Y-4.3
X9.5219Y-4.1828
X9.5379Y-4.2733
X9.5486Y-4.2247
X9.7937Y-2.6784
X9.8044Y-2.6298
X9.8204Y-2.7203
X9.8464Y-2.6031
X9.8689Y-2.7311
X9.8949Y-2.6139
X9.9109Y-2.7044
X9.9216Y-2.6558
T5
X4.9779Y-2.1942
X5.2928Y-2.1942
X6.6314Y-2.0249
X6.7692Y-1.828
T7
X2.0666Y-2.6671
X2.4396Y-4.236
X3.7302Y-2.1495
X4.4468Y-1.4467
X4.6889Y-5.1975
X5.9621Y-1.3949
X5.9621Y-5.5391
X7.2354Y-5.1975
X7.4775Y-1.4467
X8.1941Y-2.1495
X9.4847Y-4.236
X9.8577Y-2.6671
T8
X1.9835Y-3.6259
X2.1134Y-2.8892
X2.2477Y-3.7145
X2.3776Y-2.9778
X2.4092Y-2.0646
X2.6647Y-2.1759
X2.8648Y-3.2667
X3.0584Y-2.5442
X3.1203Y-3.378
X3.252Y-1.8216
X3.3139Y-2.6554
X3.5075Y-1.9329
X3.7346Y-3.1042
X3.9794Y-3.2373
X3.9904Y-2.4013
X4.2353Y-2.5344
X4.2463Y-1.6984
X4.3204Y-3.7109
X4.4911Y-1.8315
X4.5592Y-3.8546
X4.6067Y-3.0199
X4.8455Y-3.1635
X4.8929Y-2.3288
X5.1069Y-3.7668
X5.1317Y-2.4724
X5.2731Y-5.0786
X5.3457Y-3.9105
X5.3932Y-3.0757
X5.4483Y-5.2953
X5.632Y-3.2194
X6.342Y-3.1541
X6.5003Y-5.2169
X6.6124Y-3.0868
X6.6282Y-3.8452
X6.7314Y-5.0612
X6.8422Y-2.4071
X6.8987Y-3.7779
X7.1126Y-2.3398
X7.1285Y-3.0982
X7.3989Y-3.0309
X7.4147Y-3.7893
X7.4856Y-1.7684
X7.6852Y-3.722
X7.7415Y-2.4713
X7.7587Y-1.713
X7.9973Y-3.1742
X8.0146Y-2.4159
X8.2704Y-3.1188
X8.4745Y-1.8746
X8.6681Y-2.5972
X8.7514Y-1.8432
X8.8617Y-3.3197
X8.945Y-2.5658
X9.1386Y-3.2883
X9.3174Y-2.1176
X9.5943Y-2.0862
X9.6093Y-2.9248
X9.7392Y-3.6614
X9.8878Y-2.9176
X10.0177Y-3.6543
T9
X2.045Y-3.8666
X2.1749Y-3.1299
X2.4494Y-2.3098
X2.9051Y-3.5119
X3.0987Y-2.7893
X3.2923Y-2.0668
X3.7533Y-3.352
X4.0092Y-2.649
X4.265Y-1.9461
X4.3283Y-3.9593
X4.6146Y-3.2682
X4.9009Y-2.5771
X5.1149Y-4.0152
X5.1956Y-5.3147
X5.4011Y-3.3241
X6.5232Y-3.3241
X6.7287Y-5.3147
X6.8094Y-4.0152
X7.0234Y-2.5771
X7.3097Y-3.2682
X7.5959Y-3.9593
X7.6592Y-1.9461
X7.9151Y-2.649
X8.1709Y-3.352
X8.632Y-2.0668
X8.8256Y-2.7893
X9.0192Y-3.5119
X9.4748Y-2.3098
X9.7494Y-3.1299
X9.8793Y-3.8666
T4
G00X5.8539Y-4.291
M15
G01X5.8736Y-4.291
M16
G05
G00X5.8539Y-4.8619
M15
G01X5.8736Y-4.8619
M16
G05
G00X5.9523Y-4.8619
M15
G01X5.972Y-4.8619
M16
G05
G00X6.0507Y-4.291
M15
G01X6.0704Y-4.291
M16
G05
G00X6.0507Y-4.8619
M15
G01X6.0704Y-4.8619
M16
G05
T6
G00X5.7417Y-4.5509
M15
G01X5.7417Y-4.5824
M16
G05
G00X6.1826Y-4.5509
M15
G01X6.1826Y-4.5824
M16
G05
M30
