%TF.GenerationSoftware,KiCad,Pcbnew,8.0.7*%
%TF.CreationDate,2025-03-10T17:40:08-07:00*%
%TF.ProjectId,chuck,63687563-6b2e-46b6-9963-61645f706362,v1.3*%
%TF.SameCoordinates,Original*%
%TF.FileFunction,Paste,Bot*%
%TF.FilePolarity,Positive*%
%FSLAX46Y46*%
G04 Gerber Fmt 4.6, Leading zero omitted, Abs format (unit mm)*
G04 Created by KiCad (PCBNEW 8.0.7) date 2025-03-10 17:40:08*
%MOMM*%
%LPD*%
G01*
G04 APERTURE LIST*
G04 Aperture macros list*
%AMRotRect*
0 Rectangle, with rotation*
0 The origin of the aperture is its center*
0 $1 length*
0 $2 width*
0 $3 Rotation angle, in degrees counterclockwise*
0 Add horizontal line*
21,1,$1,$2,0,0,$3*%
G04 Aperture macros list end*
%ADD10R,0.900000X0.900000*%
%ADD11R,0.900000X1.250000*%
%ADD12O,2.750000X1.800000*%
%ADD13R,2.750000X1.800000*%
%ADD14RotRect,2.600000X2.600000X340.000000*%
%ADD15RotRect,1.200000X1.200000X15.000000*%
%ADD16RotRect,2.600000X2.600000X322.500000*%
%ADD17RotRect,1.200000X1.200000X337.500000*%
%ADD18RotRect,1.200000X1.200000X10.000000*%
%ADD19RotRect,1.200000X1.200000X340.000000*%
%ADD20RotRect,2.600000X2.600000X20.000000*%
%ADD21RotRect,2.600000X2.600000X22.500000*%
%ADD22RotRect,1.200000X1.200000X345.000000*%
%ADD23RotRect,2.600000X2.600000X15.000000*%
%ADD24RotRect,2.600000X2.600000X337.500000*%
%ADD25RotRect,1.200000X1.200000X20.000000*%
%ADD26RotRect,1.200000X1.200000X37.500000*%
%ADD27RotRect,1.200000X1.200000X22.500000*%
%ADD28RotRect,2.600000X2.600000X345.000000*%
%ADD29RotRect,2.600000X2.600000X350.000000*%
%ADD30RotRect,2.600000X2.600000X10.000000*%
%ADD31RotRect,2.600000X2.600000X37.500000*%
%ADD32RotRect,1.200000X1.200000X350.000000*%
%ADD33RotRect,1.200000X1.200000X322.500000*%
%ADD34R,1.200000X1.200000*%
%ADD35R,2.000000X1.000000*%
G04 APERTURE END LIST*
D10*
%TO.C,T1*%
X169014568Y-36488473D03*
X169014568Y-38688478D03*
X176414568Y-36488474D03*
X176414568Y-38688479D03*
D11*
X170464570Y-39663476D03*
X173464566Y-39663475D03*
X174964566Y-39663476D03*
%TD*%
D12*
%TO.C,MCU1*%
X138594574Y-40318475D03*
X138594574Y-42858475D03*
X138594574Y-45398475D03*
X138594578Y-47938476D03*
X138594574Y-50478475D03*
X138594574Y-53018475D03*
X138594574Y-55558475D03*
X154834574Y-55558475D03*
X154834574Y-53018475D03*
X154834574Y-50478475D03*
X154834570Y-47938474D03*
X154834574Y-45398475D03*
D13*
X154834574Y-42858475D03*
D12*
X154834574Y-40318475D03*
%TD*%
D14*
%TO.C,S7*%
X93193768Y-79585513D03*
X103294773Y-85603169D03*
%TD*%
D15*
%TO.C,I4*%
X233849249Y-100879803D03*
X237036805Y-100025703D03*
%TD*%
D16*
%TO.C,S29*%
X121423439Y-116753209D03*
X129247394Y-125529784D03*
%TD*%
D17*
%TO.C,SW10*%
X110405470Y-106699771D03*
X113454272Y-107962627D03*
%TD*%
D18*
%TO.C,SW15*%
X258578524Y-102726291D03*
X261828390Y-102153253D03*
%TD*%
D19*
%TO.C,D2*%
X90086393Y-92874121D03*
X93187379Y-94002787D03*
%TD*%
%TO.C,I2*%
X89111644Y-95552247D03*
X92212630Y-96680913D03*
%TD*%
D20*
%TO.C,S23*%
X193083614Y-46117426D03*
X204689508Y-44234417D03*
%TD*%
D19*
%TO.C,SW9*%
X109012899Y-55493016D03*
X112113885Y-56621682D03*
%TD*%
D15*
%TO.C,SW17*%
X248583086Y-62821417D03*
X251770642Y-61967317D03*
%TD*%
D21*
%TO.C,S27*%
X171307879Y-98898210D03*
X182820591Y-96510751D03*
%TD*%
D22*
%TO.C,SW6*%
X84726466Y-58384395D03*
X87914022Y-59238495D03*
%TD*%
D23*
%TO.C,S17*%
X239608578Y-54925132D03*
X251334423Y-54060809D03*
%TD*%
D24*
%TO.C,S13*%
X128069845Y-96391636D03*
X137898750Y-102844164D03*
%TD*%
%TO.C,S14*%
X135340832Y-78837926D03*
X145169737Y-85290454D03*
%TD*%
D23*
%TO.C,S20*%
X218199864Y-48754027D03*
X229925709Y-47889704D03*
%TD*%
D25*
%TO.C,SW21*%
X215708941Y-88909802D03*
X218809927Y-87781136D03*
%TD*%
D17*
%TO.C,I3*%
X123295141Y-112165124D03*
X126343943Y-113427980D03*
%TD*%
D26*
%TO.C,SW31*%
X190122362Y-124601420D03*
X192740428Y-122592508D03*
%TD*%
D17*
%TO.C,SW11*%
X117676457Y-89146056D03*
X120725259Y-90408912D03*
%TD*%
D27*
%TO.C,I6*%
X179085200Y-113427975D03*
X182134002Y-112165119D03*
%TD*%
D25*
%TO.C,I5*%
X213216514Y-96680916D03*
X216317500Y-95552250D03*
%TD*%
D21*
%TO.C,S25*%
X184014274Y-79924754D03*
X195526986Y-77537295D03*
%TD*%
D28*
%TO.C,S3*%
X59493731Y-53229875D03*
X70080773Y-58344272D03*
%TD*%
D27*
%TO.C,SW28*%
X173965298Y-88001825D03*
X177014100Y-86738969D03*
%TD*%
D14*
%TO.C,S8*%
X99692150Y-61731350D03*
X109793155Y-67749006D03*
%TD*%
D27*
%TO.C,SW27*%
X181236276Y-105555540D03*
X184285078Y-104292684D03*
%TD*%
D29*
%TO.C,S2*%
X51951581Y-74229120D03*
X62944085Y-78401334D03*
%TD*%
D24*
%TO.C,S10*%
X108092473Y-94971887D03*
X117921378Y-101424415D03*
%TD*%
D30*
%TO.C,S16*%
X247027065Y-75366515D03*
X258783620Y-75527455D03*
%TD*%
D22*
%TO.C,SW3*%
X63317755Y-64555510D03*
X66505311Y-65409610D03*
%TD*%
D25*
%TO.C,SW23*%
X202712180Y-53201486D03*
X205813166Y-52072820D03*
%TD*%
%TO.C,SW22*%
X209210563Y-71055645D03*
X212311549Y-69926979D03*
%TD*%
D31*
%TO.C,S32*%
X163735508Y-132307068D03*
X174238015Y-127021251D03*
%TD*%
D15*
%TO.C,SW18*%
X237009498Y-93355484D03*
X240197054Y-92501384D03*
%TD*%
D22*
%TO.C,I1*%
X68392329Y-100025702D03*
X71579885Y-100879802D03*
%TD*%
D14*
%TO.C,S9*%
X106190535Y-43877182D03*
X116291540Y-49894838D03*
%TD*%
D20*
%TO.C,S22*%
X199581999Y-63971578D03*
X211187893Y-62088569D03*
%TD*%
D22*
%TO.C,SW4*%
X74891350Y-95089579D03*
X78078906Y-95943679D03*
%TD*%
D32*
%TO.C,SW2*%
X56748137Y-85178390D03*
X59998003Y-85751428D03*
%TD*%
D27*
%TO.C,SW25*%
X193942669Y-86582071D03*
X196991471Y-85319215D03*
%TD*%
D17*
%TO.C,SW14*%
X137653831Y-90565806D03*
X140702633Y-91828662D03*
%TD*%
D16*
%TO.C,S30*%
X136497162Y-128319677D03*
X144321117Y-137096252D03*
%TD*%
D20*
%TO.C,S21*%
X206080380Y-81825737D03*
X217686274Y-79942728D03*
%TD*%
D27*
%TO.C,D6*%
X177994550Y-110794922D03*
X181043352Y-109532066D03*
%TD*%
D15*
%TO.C,SW19*%
X232091935Y-75002895D03*
X235279491Y-74148795D03*
%TD*%
D22*
%TO.C,SW5*%
X79808900Y-76736985D03*
X82996456Y-77591085D03*
%TD*%
D33*
%TO.C,SW30*%
X135695955Y-140246595D03*
X138314021Y-142255507D03*
%TD*%
D21*
%TO.C,S24*%
X191285243Y-97478463D03*
X202797955Y-95091004D03*
%TD*%
D34*
%TO.C,SW33*%
X151064570Y-101083830D03*
X154364570Y-101083830D03*
%TD*%
D18*
%TO.C,SW16*%
X255279210Y-84014942D03*
X258529076Y-83441904D03*
%TD*%
D17*
%TO.C,D3*%
X124385792Y-109532068D03*
X127434594Y-110794924D03*
%TD*%
D27*
%TO.C,SW26*%
X186671689Y-69028368D03*
X189720491Y-67765512D03*
%TD*%
D23*
%TO.C,S19*%
X223117434Y-67106612D03*
X234843279Y-66242289D03*
%TD*%
D17*
%TO.C,SW13*%
X130382857Y-108119515D03*
X133431659Y-109382371D03*
%TD*%
D24*
%TO.C,S11*%
X115363455Y-77418170D03*
X125192360Y-83870698D03*
%TD*%
D28*
%TO.C,S5*%
X75984892Y-65411344D03*
X86571934Y-70525741D03*
%TD*%
D15*
%TO.C,SW20*%
X227174372Y-56650303D03*
X230361928Y-55796203D03*
%TD*%
D29*
%TO.C,S1*%
X48652265Y-92940470D03*
X59644769Y-97112684D03*
%TD*%
D35*
%TO.C,SW34*%
X169714564Y-48938485D03*
X175714564Y-48938485D03*
X169714564Y-45238485D03*
X175714564Y-45238485D03*
%TD*%
D17*
%TO.C,SW12*%
X124947451Y-71592343D03*
X127996253Y-72855199D03*
%TD*%
D23*
%TO.C,S18*%
X228034985Y-85459202D03*
X239760830Y-84594879D03*
%TD*%
D27*
%TO.C,SW24*%
X201213650Y-104135791D03*
X204262452Y-102872935D03*
%TD*%
D22*
%TO.C,D1*%
X69129965Y-97272816D03*
X72317521Y-98126916D03*
%TD*%
D24*
%TO.C,S12*%
X122634442Y-59864463D03*
X132463347Y-66316991D03*
%TD*%
D28*
%TO.C,S6*%
X80902456Y-47058754D03*
X91489498Y-52173151D03*
%TD*%
D21*
%TO.C,S26*%
X176743287Y-62371039D03*
X188255999Y-59983580D03*
%TD*%
D33*
%TO.C,SW29*%
X120622228Y-128680116D03*
X123240294Y-130689028D03*
%TD*%
D15*
%TO.C,D4*%
X233111615Y-98126906D03*
X236299171Y-97272806D03*
%TD*%
D21*
%TO.C,S28*%
X164036902Y-81344498D03*
X175549614Y-78957039D03*
%TD*%
D26*
%TO.C,SW32*%
X175048654Y-136167887D03*
X177666720Y-134158975D03*
%TD*%
D31*
%TO.C,S31*%
X178809228Y-120740603D03*
X189311735Y-115454786D03*
%TD*%
D30*
%TO.C,S15*%
X250326380Y-94077870D03*
X262082935Y-94238810D03*
%TD*%
D19*
%TO.C,SW7*%
X96016124Y-91201338D03*
X99117110Y-92330004D03*
%TD*%
D28*
%TO.C,S4*%
X71067329Y-83763940D03*
X81654371Y-88878337D03*
%TD*%
D32*
%TO.C,SW1*%
X53448821Y-103889732D03*
X56698687Y-104462770D03*
%TD*%
D19*
%TO.C,SW8*%
X102514515Y-73347178D03*
X105615501Y-74475844D03*
%TD*%
D25*
%TO.C,D5*%
X212241749Y-94002789D03*
X215342735Y-92874123D03*
%TD*%
M02*
