%TF.GenerationSoftware,KiCad,Pcbnew,8.0.7*%
%TF.CreationDate,2025-02-03T22:04:45-07:00*%
%TF.ProjectId,chuck,63687563-6b2e-46b6-9963-61645f706362,v1.2*%
%TF.SameCoordinates,Original*%
%TF.FileFunction,Legend,Bot*%
%TF.FilePolarity,Positive*%
%FSLAX46Y46*%
G04 Gerber Fmt 4.6, Leading zero omitted, Abs format (unit mm)*
G04 Created by KiCad (PCBNEW 8.0.7) date 2025-02-03 22:04:45*
%MOMM*%
%LPD*%
G01*
G04 APERTURE LIST*
%ADD10C,0.153000*%
%ADD11C,0.150000*%
%ADD12C,0.200000*%
%ADD13C,0.120000*%
G04 APERTURE END LIST*
D10*
X241618927Y-44284342D02*
X241817655Y-43738105D01*
X242170885Y-44136446D02*
X241912066Y-43170520D01*
X241912066Y-43170520D02*
X241544094Y-43269118D01*
X241544094Y-43269118D02*
X241464426Y-43339764D01*
X241464426Y-43339764D02*
X241430754Y-43398085D01*
X241430754Y-43398085D02*
X241409407Y-43502402D01*
X241409407Y-43502402D02*
X241446381Y-43640392D01*
X241446381Y-43640392D02*
X241517027Y-43720060D01*
X241517027Y-43720060D02*
X241575348Y-43753732D01*
X241575348Y-43753732D02*
X241679666Y-43775079D01*
X241679666Y-43775079D02*
X242047638Y-43676481D01*
X241069387Y-43889304D02*
X240747412Y-43975577D01*
X240744994Y-44518512D02*
X241204959Y-44395265D01*
X241204959Y-44395265D02*
X240946140Y-43429339D01*
X240946140Y-43429339D02*
X240486175Y-43552586D01*
X240364698Y-44571113D02*
X240239033Y-44654084D01*
X240239033Y-44654084D02*
X240009051Y-44715707D01*
X240009051Y-44715707D02*
X239904733Y-44694360D01*
X239904733Y-44694360D02*
X239846412Y-44660689D01*
X239846412Y-44660689D02*
X239775766Y-44581020D01*
X239775766Y-44581020D02*
X239751116Y-44489027D01*
X239751116Y-44489027D02*
X239772464Y-44384710D01*
X239772464Y-44384710D02*
X239806135Y-44326389D01*
X239806135Y-44326389D02*
X239885803Y-44255743D01*
X239885803Y-44255743D02*
X240057465Y-44160447D01*
X240057465Y-44160447D02*
X240137133Y-44089802D01*
X240137133Y-44089802D02*
X240170805Y-44031480D01*
X240170805Y-44031480D02*
X240192152Y-43927163D01*
X240192152Y-43927163D02*
X240167502Y-43835170D01*
X240167502Y-43835170D02*
X240096856Y-43755502D01*
X240096856Y-43755502D02*
X240038535Y-43721830D01*
X240038535Y-43721830D02*
X239934217Y-43700483D01*
X239934217Y-43700483D02*
X239704235Y-43762106D01*
X239704235Y-43762106D02*
X239578570Y-43845077D01*
X239275525Y-44369968D02*
X238953549Y-44456241D01*
X238951132Y-44999176D02*
X239411097Y-44875929D01*
X239411097Y-44875929D02*
X239152277Y-43910003D01*
X239152277Y-43910003D02*
X238692313Y-44033250D01*
X238416334Y-44107198D02*
X237864376Y-44255095D01*
X238399174Y-45147073D02*
X238140355Y-44181147D01*
X138390692Y-53436172D02*
X137724026Y-54436172D01*
X137724026Y-53436172D02*
X138390692Y-54436172D01*
X137343073Y-54436172D02*
X137343073Y-53436172D01*
X136914502Y-54150457D02*
X136438312Y-54150457D01*
X137009740Y-54436172D02*
X136676407Y-53436172D01*
X136676407Y-53436172D02*
X136343074Y-54436172D01*
X135819264Y-53436172D02*
X135628788Y-53436172D01*
X135628788Y-53436172D02*
X135533550Y-53483791D01*
X135533550Y-53483791D02*
X135438312Y-53579029D01*
X135438312Y-53579029D02*
X135390693Y-53769505D01*
X135390693Y-53769505D02*
X135390693Y-54102838D01*
X135390693Y-54102838D02*
X135438312Y-54293314D01*
X135438312Y-54293314D02*
X135533550Y-54388553D01*
X135533550Y-54388553D02*
X135628788Y-54436172D01*
X135628788Y-54436172D02*
X135819264Y-54436172D01*
X135819264Y-54436172D02*
X135914502Y-54388553D01*
X135914502Y-54388553D02*
X136009740Y-54293314D01*
X136009740Y-54293314D02*
X136057359Y-54102838D01*
X136057359Y-54102838D02*
X136057359Y-53769505D01*
X136057359Y-53769505D02*
X136009740Y-53579029D01*
X136009740Y-53579029D02*
X135914502Y-53483791D01*
X135914502Y-53483791D02*
X135819264Y-53436172D01*
X133866883Y-53912362D02*
X133724026Y-53959981D01*
X133724026Y-53959981D02*
X133676407Y-54007600D01*
X133676407Y-54007600D02*
X133628788Y-54102838D01*
X133628788Y-54102838D02*
X133628788Y-54245695D01*
X133628788Y-54245695D02*
X133676407Y-54340933D01*
X133676407Y-54340933D02*
X133724026Y-54388553D01*
X133724026Y-54388553D02*
X133819264Y-54436172D01*
X133819264Y-54436172D02*
X134200216Y-54436172D01*
X134200216Y-54436172D02*
X134200216Y-53436172D01*
X134200216Y-53436172D02*
X133866883Y-53436172D01*
X133866883Y-53436172D02*
X133771645Y-53483791D01*
X133771645Y-53483791D02*
X133724026Y-53531410D01*
X133724026Y-53531410D02*
X133676407Y-53626648D01*
X133676407Y-53626648D02*
X133676407Y-53721886D01*
X133676407Y-53721886D02*
X133724026Y-53817124D01*
X133724026Y-53817124D02*
X133771645Y-53864743D01*
X133771645Y-53864743D02*
X133866883Y-53912362D01*
X133866883Y-53912362D02*
X134200216Y-53912362D01*
X132724026Y-54436172D02*
X133200216Y-54436172D01*
X133200216Y-54436172D02*
X133200216Y-53436172D01*
X132390692Y-53912362D02*
X132057359Y-53912362D01*
X131914502Y-54436172D02*
X132390692Y-54436172D01*
X132390692Y-54436172D02*
X132390692Y-53436172D01*
X132390692Y-53436172D02*
X131914502Y-53436172D01*
X130390692Y-53912362D02*
X130724025Y-53912362D01*
X130724025Y-54436172D02*
X130724025Y-53436172D01*
X130724025Y-53436172D02*
X130247835Y-53436172D01*
X129914501Y-54150457D02*
X129438311Y-54150457D01*
X130009739Y-54436172D02*
X129676406Y-53436172D01*
X129676406Y-53436172D02*
X129343073Y-54436172D01*
X128438311Y-54340933D02*
X128485930Y-54388553D01*
X128485930Y-54388553D02*
X128628787Y-54436172D01*
X128628787Y-54436172D02*
X128724025Y-54436172D01*
X128724025Y-54436172D02*
X128866882Y-54388553D01*
X128866882Y-54388553D02*
X128962120Y-54293314D01*
X128962120Y-54293314D02*
X129009739Y-54198076D01*
X129009739Y-54198076D02*
X129057358Y-54007600D01*
X129057358Y-54007600D02*
X129057358Y-53864743D01*
X129057358Y-53864743D02*
X129009739Y-53674267D01*
X129009739Y-53674267D02*
X128962120Y-53579029D01*
X128962120Y-53579029D02*
X128866882Y-53483791D01*
X128866882Y-53483791D02*
X128724025Y-53436172D01*
X128724025Y-53436172D02*
X128628787Y-53436172D01*
X128628787Y-53436172D02*
X128485930Y-53483791D01*
X128485930Y-53483791D02*
X128438311Y-53531410D01*
X128009739Y-53912362D02*
X127676406Y-53912362D01*
X127533549Y-54436172D02*
X128009739Y-54436172D01*
X128009739Y-54436172D02*
X128009739Y-53436172D01*
X128009739Y-53436172D02*
X127533549Y-53436172D01*
X126343072Y-54436172D02*
X126343072Y-53436172D01*
X126343072Y-53436172D02*
X126104977Y-53436172D01*
X126104977Y-53436172D02*
X125962120Y-53483791D01*
X125962120Y-53483791D02*
X125866882Y-53579029D01*
X125866882Y-53579029D02*
X125819263Y-53674267D01*
X125819263Y-53674267D02*
X125771644Y-53864743D01*
X125771644Y-53864743D02*
X125771644Y-54007600D01*
X125771644Y-54007600D02*
X125819263Y-54198076D01*
X125819263Y-54198076D02*
X125866882Y-54293314D01*
X125866882Y-54293314D02*
X125962120Y-54388553D01*
X125962120Y-54388553D02*
X126104977Y-54436172D01*
X126104977Y-54436172D02*
X126343072Y-54436172D01*
X125152596Y-53436172D02*
X124962120Y-53436172D01*
X124962120Y-53436172D02*
X124866882Y-53483791D01*
X124866882Y-53483791D02*
X124771644Y-53579029D01*
X124771644Y-53579029D02*
X124724025Y-53769505D01*
X124724025Y-53769505D02*
X124724025Y-54102838D01*
X124724025Y-54102838D02*
X124771644Y-54293314D01*
X124771644Y-54293314D02*
X124866882Y-54388553D01*
X124866882Y-54388553D02*
X124962120Y-54436172D01*
X124962120Y-54436172D02*
X125152596Y-54436172D01*
X125152596Y-54436172D02*
X125247834Y-54388553D01*
X125247834Y-54388553D02*
X125343072Y-54293314D01*
X125343072Y-54293314D02*
X125390691Y-54102838D01*
X125390691Y-54102838D02*
X125390691Y-53769505D01*
X125390691Y-53769505D02*
X125343072Y-53579029D01*
X125343072Y-53579029D02*
X125247834Y-53483791D01*
X125247834Y-53483791D02*
X125152596Y-53436172D01*
X124390691Y-53436172D02*
X124152596Y-54436172D01*
X124152596Y-54436172D02*
X123962120Y-53721886D01*
X123962120Y-53721886D02*
X123771644Y-54436172D01*
X123771644Y-54436172D02*
X123533549Y-53436172D01*
X123152596Y-54436172D02*
X123152596Y-53436172D01*
X123152596Y-53436172D02*
X122581168Y-54436172D01*
X122581168Y-54436172D02*
X122581168Y-53436172D01*
X164747839Y-39362353D02*
X164604982Y-39409972D01*
X164604982Y-39409972D02*
X164557363Y-39457591D01*
X164557363Y-39457591D02*
X164509744Y-39552829D01*
X164509744Y-39552829D02*
X164509744Y-39695686D01*
X164509744Y-39695686D02*
X164557363Y-39790924D01*
X164557363Y-39790924D02*
X164604982Y-39838544D01*
X164604982Y-39838544D02*
X164700220Y-39886163D01*
X164700220Y-39886163D02*
X165081172Y-39886163D01*
X165081172Y-39886163D02*
X165081172Y-38886163D01*
X165081172Y-38886163D02*
X164747839Y-38886163D01*
X164747839Y-38886163D02*
X164652601Y-38933782D01*
X164652601Y-38933782D02*
X164604982Y-38981401D01*
X164604982Y-38981401D02*
X164557363Y-39076639D01*
X164557363Y-39076639D02*
X164557363Y-39171877D01*
X164557363Y-39171877D02*
X164604982Y-39267115D01*
X164604982Y-39267115D02*
X164652601Y-39314734D01*
X164652601Y-39314734D02*
X164747839Y-39362353D01*
X164747839Y-39362353D02*
X165081172Y-39362353D01*
X164128791Y-39600448D02*
X163652601Y-39600448D01*
X164224029Y-39886163D02*
X163890696Y-38886163D01*
X163890696Y-38886163D02*
X163557363Y-39886163D01*
X163366886Y-38886163D02*
X162795458Y-38886163D01*
X163081172Y-39886163D02*
X163081172Y-38886163D01*
X162604981Y-38886163D02*
X162033553Y-38886163D01*
X162319267Y-39886163D02*
X162319267Y-38886163D01*
X161700219Y-39362353D02*
X161366886Y-39362353D01*
X161224029Y-39886163D02*
X161700219Y-39886163D01*
X161700219Y-39886163D02*
X161700219Y-38886163D01*
X161700219Y-38886163D02*
X161224029Y-38886163D01*
X160224029Y-39886163D02*
X160557362Y-39409972D01*
X160795457Y-39886163D02*
X160795457Y-38886163D01*
X160795457Y-38886163D02*
X160414505Y-38886163D01*
X160414505Y-38886163D02*
X160319267Y-38933782D01*
X160319267Y-38933782D02*
X160271648Y-38981401D01*
X160271648Y-38981401D02*
X160224029Y-39076639D01*
X160224029Y-39076639D02*
X160224029Y-39219496D01*
X160224029Y-39219496D02*
X160271648Y-39314734D01*
X160271648Y-39314734D02*
X160319267Y-39362353D01*
X160319267Y-39362353D02*
X160414505Y-39409972D01*
X160414505Y-39409972D02*
X160795457Y-39409972D01*
X159604981Y-39409972D02*
X159604981Y-39886163D01*
X159938314Y-38886163D02*
X159604981Y-39409972D01*
X159604981Y-39409972D02*
X159271648Y-38886163D01*
X157700219Y-38886163D02*
X158176409Y-38886163D01*
X158176409Y-38886163D02*
X158224028Y-39362353D01*
X158224028Y-39362353D02*
X158176409Y-39314734D01*
X158176409Y-39314734D02*
X158081171Y-39267115D01*
X158081171Y-39267115D02*
X157843076Y-39267115D01*
X157843076Y-39267115D02*
X157747838Y-39314734D01*
X157747838Y-39314734D02*
X157700219Y-39362353D01*
X157700219Y-39362353D02*
X157652600Y-39457591D01*
X157652600Y-39457591D02*
X157652600Y-39695686D01*
X157652600Y-39695686D02*
X157700219Y-39790924D01*
X157700219Y-39790924D02*
X157747838Y-39838544D01*
X157747838Y-39838544D02*
X157843076Y-39886163D01*
X157843076Y-39886163D02*
X158081171Y-39886163D01*
X158081171Y-39886163D02*
X158176409Y-39838544D01*
X158176409Y-39838544D02*
X158224028Y-39790924D01*
X156557361Y-39886163D02*
X156033552Y-39219496D01*
X156557361Y-39219496D02*
X156033552Y-39886163D01*
X154938313Y-38981401D02*
X154890694Y-38933782D01*
X154890694Y-38933782D02*
X154795456Y-38886163D01*
X154795456Y-38886163D02*
X154557361Y-38886163D01*
X154557361Y-38886163D02*
X154462123Y-38933782D01*
X154462123Y-38933782D02*
X154414504Y-38981401D01*
X154414504Y-38981401D02*
X154366885Y-39076639D01*
X154366885Y-39076639D02*
X154366885Y-39171877D01*
X154366885Y-39171877D02*
X154414504Y-39314734D01*
X154414504Y-39314734D02*
X154985932Y-39886163D01*
X154985932Y-39886163D02*
X154366885Y-39886163D01*
X153747837Y-38886163D02*
X153652599Y-38886163D01*
X153652599Y-38886163D02*
X153557361Y-38933782D01*
X153557361Y-38933782D02*
X153509742Y-38981401D01*
X153509742Y-38981401D02*
X153462123Y-39076639D01*
X153462123Y-39076639D02*
X153414504Y-39267115D01*
X153414504Y-39267115D02*
X153414504Y-39505210D01*
X153414504Y-39505210D02*
X153462123Y-39695686D01*
X153462123Y-39695686D02*
X153509742Y-39790924D01*
X153509742Y-39790924D02*
X153557361Y-39838544D01*
X153557361Y-39838544D02*
X153652599Y-39886163D01*
X153652599Y-39886163D02*
X153747837Y-39886163D01*
X153747837Y-39886163D02*
X153843075Y-39838544D01*
X153843075Y-39838544D02*
X153890694Y-39790924D01*
X153890694Y-39790924D02*
X153938313Y-39695686D01*
X153938313Y-39695686D02*
X153985932Y-39505210D01*
X153985932Y-39505210D02*
X153985932Y-39267115D01*
X153985932Y-39267115D02*
X153938313Y-39076639D01*
X153938313Y-39076639D02*
X153890694Y-38981401D01*
X153890694Y-38981401D02*
X153843075Y-38933782D01*
X153843075Y-38933782D02*
X153747837Y-38886163D01*
X152319265Y-39886163D02*
X151795456Y-39219496D01*
X152319265Y-39219496D02*
X151795456Y-39886163D01*
X150747836Y-38886163D02*
X150128789Y-38886163D01*
X150128789Y-38886163D02*
X150462122Y-39267115D01*
X150462122Y-39267115D02*
X150319265Y-39267115D01*
X150319265Y-39267115D02*
X150224027Y-39314734D01*
X150224027Y-39314734D02*
X150176408Y-39362353D01*
X150176408Y-39362353D02*
X150128789Y-39457591D01*
X150128789Y-39457591D02*
X150128789Y-39695686D01*
X150128789Y-39695686D02*
X150176408Y-39790924D01*
X150176408Y-39790924D02*
X150224027Y-39838544D01*
X150224027Y-39838544D02*
X150319265Y-39886163D01*
X150319265Y-39886163D02*
X150604979Y-39886163D01*
X150604979Y-39886163D02*
X150700217Y-39838544D01*
X150700217Y-39838544D02*
X150747836Y-39790924D01*
X149509741Y-38886163D02*
X149414503Y-38886163D01*
X149414503Y-38886163D02*
X149319265Y-38933782D01*
X149319265Y-38933782D02*
X149271646Y-38981401D01*
X149271646Y-38981401D02*
X149224027Y-39076639D01*
X149224027Y-39076639D02*
X149176408Y-39267115D01*
X149176408Y-39267115D02*
X149176408Y-39505210D01*
X149176408Y-39505210D02*
X149224027Y-39695686D01*
X149224027Y-39695686D02*
X149271646Y-39790924D01*
X149271646Y-39790924D02*
X149319265Y-39838544D01*
X149319265Y-39838544D02*
X149414503Y-39886163D01*
X149414503Y-39886163D02*
X149509741Y-39886163D01*
X149509741Y-39886163D02*
X149604979Y-39838544D01*
X149604979Y-39838544D02*
X149652598Y-39790924D01*
X149652598Y-39790924D02*
X149700217Y-39695686D01*
X149700217Y-39695686D02*
X149747836Y-39505210D01*
X149747836Y-39505210D02*
X149747836Y-39267115D01*
X149747836Y-39267115D02*
X149700217Y-39076639D01*
X149700217Y-39076639D02*
X149652598Y-38981401D01*
X149652598Y-38981401D02*
X149604979Y-38933782D01*
X149604979Y-38933782D02*
X149509741Y-38886163D01*
X147985931Y-39886163D02*
X147985931Y-39219496D01*
X147985931Y-39314734D02*
X147938312Y-39267115D01*
X147938312Y-39267115D02*
X147843074Y-39219496D01*
X147843074Y-39219496D02*
X147700217Y-39219496D01*
X147700217Y-39219496D02*
X147604979Y-39267115D01*
X147604979Y-39267115D02*
X147557360Y-39362353D01*
X147557360Y-39362353D02*
X147557360Y-39886163D01*
X147557360Y-39362353D02*
X147509741Y-39267115D01*
X147509741Y-39267115D02*
X147414503Y-39219496D01*
X147414503Y-39219496D02*
X147271646Y-39219496D01*
X147271646Y-39219496D02*
X147176407Y-39267115D01*
X147176407Y-39267115D02*
X147128788Y-39362353D01*
X147128788Y-39362353D02*
X147128788Y-39886163D01*
X146652598Y-39886163D02*
X146652598Y-39219496D01*
X146652598Y-39314734D02*
X146604979Y-39267115D01*
X146604979Y-39267115D02*
X146509741Y-39219496D01*
X146509741Y-39219496D02*
X146366884Y-39219496D01*
X146366884Y-39219496D02*
X146271646Y-39267115D01*
X146271646Y-39267115D02*
X146224027Y-39362353D01*
X146224027Y-39362353D02*
X146224027Y-39886163D01*
X146224027Y-39362353D02*
X146176408Y-39267115D01*
X146176408Y-39267115D02*
X146081170Y-39219496D01*
X146081170Y-39219496D02*
X145938313Y-39219496D01*
X145938313Y-39219496D02*
X145843074Y-39267115D01*
X145843074Y-39267115D02*
X145795455Y-39362353D01*
X145795455Y-39362353D02*
X145795455Y-39886163D01*
X174409089Y-33886169D02*
X174218613Y-33886169D01*
X174218613Y-33886169D02*
X174123375Y-33933788D01*
X174123375Y-33933788D02*
X174028137Y-34029026D01*
X174028137Y-34029026D02*
X173980518Y-34219502D01*
X173980518Y-34219502D02*
X173980518Y-34552835D01*
X173980518Y-34552835D02*
X174028137Y-34743311D01*
X174028137Y-34743311D02*
X174123375Y-34838550D01*
X174123375Y-34838550D02*
X174218613Y-34886169D01*
X174218613Y-34886169D02*
X174409089Y-34886169D01*
X174409089Y-34886169D02*
X174504327Y-34838550D01*
X174504327Y-34838550D02*
X174599565Y-34743311D01*
X174599565Y-34743311D02*
X174647184Y-34552835D01*
X174647184Y-34552835D02*
X174647184Y-34219502D01*
X174647184Y-34219502D02*
X174599565Y-34029026D01*
X174599565Y-34029026D02*
X174504327Y-33933788D01*
X174504327Y-33933788D02*
X174409089Y-33886169D01*
X173551946Y-34886169D02*
X173551946Y-33886169D01*
X173551946Y-33886169D02*
X172980518Y-34886169D01*
X172980518Y-34886169D02*
X172980518Y-33886169D01*
X186372312Y-32486169D02*
X186181836Y-32486169D01*
X186181836Y-32486169D02*
X186086598Y-32533788D01*
X186086598Y-32533788D02*
X185991360Y-32629026D01*
X185991360Y-32629026D02*
X185943741Y-32819502D01*
X185943741Y-32819502D02*
X185943741Y-33152835D01*
X185943741Y-33152835D02*
X185991360Y-33343311D01*
X185991360Y-33343311D02*
X186086598Y-33438550D01*
X186086598Y-33438550D02*
X186181836Y-33486169D01*
X186181836Y-33486169D02*
X186372312Y-33486169D01*
X186372312Y-33486169D02*
X186467550Y-33438550D01*
X186467550Y-33438550D02*
X186562788Y-33343311D01*
X186562788Y-33343311D02*
X186610407Y-33152835D01*
X186610407Y-33152835D02*
X186610407Y-32819502D01*
X186610407Y-32819502D02*
X186562788Y-32629026D01*
X186562788Y-32629026D02*
X186467550Y-32533788D01*
X186467550Y-32533788D02*
X186372312Y-32486169D01*
X185181836Y-32962359D02*
X185515169Y-32962359D01*
X185515169Y-33486169D02*
X185515169Y-32486169D01*
X185515169Y-32486169D02*
X185038979Y-32486169D01*
X184324693Y-32962359D02*
X184658026Y-32962359D01*
X184658026Y-33486169D02*
X184658026Y-32486169D01*
X184658026Y-32486169D02*
X184181836Y-32486169D01*
X174599562Y-33486170D02*
X174599562Y-32486170D01*
X174599562Y-32486170D02*
X174218610Y-32486170D01*
X174218610Y-32486170D02*
X174123372Y-32533789D01*
X174123372Y-32533789D02*
X174075753Y-32581408D01*
X174075753Y-32581408D02*
X174028134Y-32676646D01*
X174028134Y-32676646D02*
X174028134Y-32819503D01*
X174028134Y-32819503D02*
X174075753Y-32914741D01*
X174075753Y-32914741D02*
X174123372Y-32962360D01*
X174123372Y-32962360D02*
X174218610Y-33009979D01*
X174218610Y-33009979D02*
X174599562Y-33009979D01*
X173409086Y-32486170D02*
X173218610Y-32486170D01*
X173218610Y-32486170D02*
X173123372Y-32533789D01*
X173123372Y-32533789D02*
X173028134Y-32629027D01*
X173028134Y-32629027D02*
X172980515Y-32819503D01*
X172980515Y-32819503D02*
X172980515Y-33152836D01*
X172980515Y-33152836D02*
X173028134Y-33343312D01*
X173028134Y-33343312D02*
X173123372Y-33438551D01*
X173123372Y-33438551D02*
X173218610Y-33486170D01*
X173218610Y-33486170D02*
X173409086Y-33486170D01*
X173409086Y-33486170D02*
X173504324Y-33438551D01*
X173504324Y-33438551D02*
X173599562Y-33343312D01*
X173599562Y-33343312D02*
X173647181Y-33152836D01*
X173647181Y-33152836D02*
X173647181Y-32819503D01*
X173647181Y-32819503D02*
X173599562Y-32629027D01*
X173599562Y-32629027D02*
X173504324Y-32533789D01*
X173504324Y-32533789D02*
X173409086Y-32486170D01*
X172647181Y-32486170D02*
X172409086Y-33486170D01*
X172409086Y-33486170D02*
X172218610Y-32771884D01*
X172218610Y-32771884D02*
X172028134Y-33486170D01*
X172028134Y-33486170D02*
X171790039Y-32486170D01*
X171409086Y-32962360D02*
X171075753Y-32962360D01*
X170932896Y-33486170D02*
X171409086Y-33486170D01*
X171409086Y-33486170D02*
X171409086Y-32486170D01*
X171409086Y-32486170D02*
X170932896Y-32486170D01*
X169932896Y-33486170D02*
X170266229Y-33009979D01*
X170504324Y-33486170D02*
X170504324Y-32486170D01*
X170504324Y-32486170D02*
X170123372Y-32486170D01*
X170123372Y-32486170D02*
X170028134Y-32533789D01*
X170028134Y-32533789D02*
X169980515Y-32581408D01*
X169980515Y-32581408D02*
X169932896Y-32676646D01*
X169932896Y-32676646D02*
X169932896Y-32819503D01*
X169932896Y-32819503D02*
X169980515Y-32914741D01*
X169980515Y-32914741D02*
X170028134Y-32962360D01*
X170028134Y-32962360D02*
X170123372Y-33009979D01*
X170123372Y-33009979D02*
X170504324Y-33009979D01*
D11*
X120601535Y-34816326D02*
X120601535Y-33816326D01*
X120601535Y-33816326D02*
X120220583Y-33816326D01*
X120220583Y-33816326D02*
X120125345Y-33863945D01*
X120125345Y-33863945D02*
X120077726Y-33911564D01*
X120077726Y-33911564D02*
X120030107Y-34006802D01*
X120030107Y-34006802D02*
X120030107Y-34149659D01*
X120030107Y-34149659D02*
X120077726Y-34244897D01*
X120077726Y-34244897D02*
X120125345Y-34292516D01*
X120125345Y-34292516D02*
X120220583Y-34340135D01*
X120220583Y-34340135D02*
X120601535Y-34340135D01*
X119411059Y-33816326D02*
X119315821Y-33816326D01*
X119315821Y-33816326D02*
X119220583Y-33863945D01*
X119220583Y-33863945D02*
X119172964Y-33911564D01*
X119172964Y-33911564D02*
X119125345Y-34006802D01*
X119125345Y-34006802D02*
X119077726Y-34197278D01*
X119077726Y-34197278D02*
X119077726Y-34435373D01*
X119077726Y-34435373D02*
X119125345Y-34625849D01*
X119125345Y-34625849D02*
X119172964Y-34721087D01*
X119172964Y-34721087D02*
X119220583Y-34768707D01*
X119220583Y-34768707D02*
X119315821Y-34816326D01*
X119315821Y-34816326D02*
X119411059Y-34816326D01*
X119411059Y-34816326D02*
X119506297Y-34768707D01*
X119506297Y-34768707D02*
X119553916Y-34721087D01*
X119553916Y-34721087D02*
X119601535Y-34625849D01*
X119601535Y-34625849D02*
X119649154Y-34435373D01*
X119649154Y-34435373D02*
X119649154Y-34197278D01*
X119649154Y-34197278D02*
X119601535Y-34006802D01*
X119601535Y-34006802D02*
X119553916Y-33911564D01*
X119553916Y-33911564D02*
X119506297Y-33863945D01*
X119506297Y-33863945D02*
X119411059Y-33816326D01*
X120601543Y-39896331D02*
X120601543Y-38896331D01*
X120601543Y-38896331D02*
X120220591Y-38896331D01*
X120220591Y-38896331D02*
X120125353Y-38943950D01*
X120125353Y-38943950D02*
X120077734Y-38991569D01*
X120077734Y-38991569D02*
X120030115Y-39086807D01*
X120030115Y-39086807D02*
X120030115Y-39229664D01*
X120030115Y-39229664D02*
X120077734Y-39324902D01*
X120077734Y-39324902D02*
X120125353Y-39372521D01*
X120125353Y-39372521D02*
X120220591Y-39420140D01*
X120220591Y-39420140D02*
X120601543Y-39420140D01*
X119649162Y-38991569D02*
X119601543Y-38943950D01*
X119601543Y-38943950D02*
X119506305Y-38896331D01*
X119506305Y-38896331D02*
X119268210Y-38896331D01*
X119268210Y-38896331D02*
X119172972Y-38943950D01*
X119172972Y-38943950D02*
X119125353Y-38991569D01*
X119125353Y-38991569D02*
X119077734Y-39086807D01*
X119077734Y-39086807D02*
X119077734Y-39182045D01*
X119077734Y-39182045D02*
X119125353Y-39324902D01*
X119125353Y-39324902D02*
X119696781Y-39896331D01*
X119696781Y-39896331D02*
X119077734Y-39896331D01*
X120601539Y-47516327D02*
X120601539Y-46516327D01*
X120601539Y-46516327D02*
X120220587Y-46516327D01*
X120220587Y-46516327D02*
X120125349Y-46563946D01*
X120125349Y-46563946D02*
X120077730Y-46611565D01*
X120077730Y-46611565D02*
X120030111Y-46706803D01*
X120030111Y-46706803D02*
X120030111Y-46849660D01*
X120030111Y-46849660D02*
X120077730Y-46944898D01*
X120077730Y-46944898D02*
X120125349Y-46992517D01*
X120125349Y-46992517D02*
X120220587Y-47040136D01*
X120220587Y-47040136D02*
X120601539Y-47040136D01*
X119125349Y-46516327D02*
X119601539Y-46516327D01*
X119601539Y-46516327D02*
X119649158Y-46992517D01*
X119649158Y-46992517D02*
X119601539Y-46944898D01*
X119601539Y-46944898D02*
X119506301Y-46897279D01*
X119506301Y-46897279D02*
X119268206Y-46897279D01*
X119268206Y-46897279D02*
X119172968Y-46944898D01*
X119172968Y-46944898D02*
X119125349Y-46992517D01*
X119125349Y-46992517D02*
X119077730Y-47087755D01*
X119077730Y-47087755D02*
X119077730Y-47325850D01*
X119077730Y-47325850D02*
X119125349Y-47421088D01*
X119125349Y-47421088D02*
X119172968Y-47468708D01*
X119172968Y-47468708D02*
X119268206Y-47516327D01*
X119268206Y-47516327D02*
X119506301Y-47516327D01*
X119506301Y-47516327D02*
X119601539Y-47468708D01*
X119601539Y-47468708D02*
X119649158Y-47421088D01*
X142522727Y-36403946D02*
X142617965Y-36356327D01*
X142617965Y-36356327D02*
X142760822Y-36356327D01*
X142760822Y-36356327D02*
X142903679Y-36403946D01*
X142903679Y-36403946D02*
X142998917Y-36499184D01*
X142998917Y-36499184D02*
X143046536Y-36594422D01*
X143046536Y-36594422D02*
X143094155Y-36784898D01*
X143094155Y-36784898D02*
X143094155Y-36927755D01*
X143094155Y-36927755D02*
X143046536Y-37118231D01*
X143046536Y-37118231D02*
X142998917Y-37213469D01*
X142998917Y-37213469D02*
X142903679Y-37308708D01*
X142903679Y-37308708D02*
X142760822Y-37356327D01*
X142760822Y-37356327D02*
X142665584Y-37356327D01*
X142665584Y-37356327D02*
X142522727Y-37308708D01*
X142522727Y-37308708D02*
X142475108Y-37261088D01*
X142475108Y-37261088D02*
X142475108Y-36927755D01*
X142475108Y-36927755D02*
X142665584Y-36927755D01*
X142046536Y-37356327D02*
X142046536Y-36356327D01*
X142046536Y-36356327D02*
X141475108Y-37356327D01*
X141475108Y-37356327D02*
X141475108Y-36356327D01*
X140998917Y-37356327D02*
X140998917Y-36356327D01*
X140998917Y-36356327D02*
X140760822Y-36356327D01*
X140760822Y-36356327D02*
X140617965Y-36403946D01*
X140617965Y-36403946D02*
X140522727Y-36499184D01*
X140522727Y-36499184D02*
X140475108Y-36594422D01*
X140475108Y-36594422D02*
X140427489Y-36784898D01*
X140427489Y-36784898D02*
X140427489Y-36927755D01*
X140427489Y-36927755D02*
X140475108Y-37118231D01*
X140475108Y-37118231D02*
X140522727Y-37213469D01*
X140522727Y-37213469D02*
X140617965Y-37308708D01*
X140617965Y-37308708D02*
X140760822Y-37356327D01*
X140760822Y-37356327D02*
X140998917Y-37356327D01*
X141751288Y-47516327D02*
X141751288Y-46516327D01*
X141751288Y-46516327D02*
X141370336Y-46516327D01*
X141370336Y-46516327D02*
X141275098Y-46563946D01*
X141275098Y-46563946D02*
X141227479Y-46611565D01*
X141227479Y-46611565D02*
X141179860Y-46706803D01*
X141179860Y-46706803D02*
X141179860Y-46849660D01*
X141179860Y-46849660D02*
X141227479Y-46944898D01*
X141227479Y-46944898D02*
X141275098Y-46992517D01*
X141275098Y-46992517D02*
X141370336Y-47040136D01*
X141370336Y-47040136D02*
X141751288Y-47040136D01*
X140608431Y-46944898D02*
X140703669Y-46897279D01*
X140703669Y-46897279D02*
X140751288Y-46849660D01*
X140751288Y-46849660D02*
X140798907Y-46754422D01*
X140798907Y-46754422D02*
X140798907Y-46706803D01*
X140798907Y-46706803D02*
X140751288Y-46611565D01*
X140751288Y-46611565D02*
X140703669Y-46563946D01*
X140703669Y-46563946D02*
X140608431Y-46516327D01*
X140608431Y-46516327D02*
X140417955Y-46516327D01*
X140417955Y-46516327D02*
X140322717Y-46563946D01*
X140322717Y-46563946D02*
X140275098Y-46611565D01*
X140275098Y-46611565D02*
X140227479Y-46706803D01*
X140227479Y-46706803D02*
X140227479Y-46754422D01*
X140227479Y-46754422D02*
X140275098Y-46849660D01*
X140275098Y-46849660D02*
X140322717Y-46897279D01*
X140322717Y-46897279D02*
X140417955Y-46944898D01*
X140417955Y-46944898D02*
X140608431Y-46944898D01*
X140608431Y-46944898D02*
X140703669Y-46992517D01*
X140703669Y-46992517D02*
X140751288Y-47040136D01*
X140751288Y-47040136D02*
X140798907Y-47135374D01*
X140798907Y-47135374D02*
X140798907Y-47325850D01*
X140798907Y-47325850D02*
X140751288Y-47421088D01*
X140751288Y-47421088D02*
X140703669Y-47468708D01*
X140703669Y-47468708D02*
X140608431Y-47516327D01*
X140608431Y-47516327D02*
X140417955Y-47516327D01*
X140417955Y-47516327D02*
X140322717Y-47468708D01*
X140322717Y-47468708D02*
X140275098Y-47421088D01*
X140275098Y-47421088D02*
X140227479Y-47325850D01*
X140227479Y-47325850D02*
X140227479Y-47135374D01*
X140227479Y-47135374D02*
X140275098Y-47040136D01*
X140275098Y-47040136D02*
X140322717Y-46992517D01*
X140322717Y-46992517D02*
X140417955Y-46944898D01*
X120601541Y-44976327D02*
X120601541Y-43976327D01*
X120601541Y-43976327D02*
X120220589Y-43976327D01*
X120220589Y-43976327D02*
X120125351Y-44023946D01*
X120125351Y-44023946D02*
X120077732Y-44071565D01*
X120077732Y-44071565D02*
X120030113Y-44166803D01*
X120030113Y-44166803D02*
X120030113Y-44309660D01*
X120030113Y-44309660D02*
X120077732Y-44404898D01*
X120077732Y-44404898D02*
X120125351Y-44452517D01*
X120125351Y-44452517D02*
X120220589Y-44500136D01*
X120220589Y-44500136D02*
X120601541Y-44500136D01*
X119172970Y-44309660D02*
X119172970Y-44976327D01*
X119411065Y-43928708D02*
X119649160Y-44642993D01*
X119649160Y-44642993D02*
X119030113Y-44642993D01*
X120601539Y-37356327D02*
X120601539Y-36356327D01*
X120601539Y-36356327D02*
X120220587Y-36356327D01*
X120220587Y-36356327D02*
X120125349Y-36403946D01*
X120125349Y-36403946D02*
X120077730Y-36451565D01*
X120077730Y-36451565D02*
X120030111Y-36546803D01*
X120030111Y-36546803D02*
X120030111Y-36689660D01*
X120030111Y-36689660D02*
X120077730Y-36784898D01*
X120077730Y-36784898D02*
X120125349Y-36832517D01*
X120125349Y-36832517D02*
X120220587Y-36880136D01*
X120220587Y-36880136D02*
X120601539Y-36880136D01*
X119077730Y-37356327D02*
X119649158Y-37356327D01*
X119363444Y-37356327D02*
X119363444Y-36356327D01*
X119363444Y-36356327D02*
X119458682Y-36499184D01*
X119458682Y-36499184D02*
X119553920Y-36594422D01*
X119553920Y-36594422D02*
X119649158Y-36642041D01*
X141751292Y-50056328D02*
X141751292Y-49056328D01*
X141751292Y-49056328D02*
X141370340Y-49056328D01*
X141370340Y-49056328D02*
X141275102Y-49103947D01*
X141275102Y-49103947D02*
X141227483Y-49151566D01*
X141227483Y-49151566D02*
X141179864Y-49246804D01*
X141179864Y-49246804D02*
X141179864Y-49389661D01*
X141179864Y-49389661D02*
X141227483Y-49484899D01*
X141227483Y-49484899D02*
X141275102Y-49532518D01*
X141275102Y-49532518D02*
X141370340Y-49580137D01*
X141370340Y-49580137D02*
X141751292Y-49580137D01*
X140846530Y-49056328D02*
X140179864Y-49056328D01*
X140179864Y-49056328D02*
X140608435Y-50056328D01*
X142703669Y-42436327D02*
X142703669Y-41436327D01*
X142703669Y-41436327D02*
X142322717Y-41436327D01*
X142322717Y-41436327D02*
X142227479Y-41483946D01*
X142227479Y-41483946D02*
X142179860Y-41531565D01*
X142179860Y-41531565D02*
X142132241Y-41626803D01*
X142132241Y-41626803D02*
X142132241Y-41769660D01*
X142132241Y-41769660D02*
X142179860Y-41864898D01*
X142179860Y-41864898D02*
X142227479Y-41912517D01*
X142227479Y-41912517D02*
X142322717Y-41960136D01*
X142322717Y-41960136D02*
X142703669Y-41960136D01*
X141179860Y-42436327D02*
X141751288Y-42436327D01*
X141465574Y-42436327D02*
X141465574Y-41436327D01*
X141465574Y-41436327D02*
X141560812Y-41579184D01*
X141560812Y-41579184D02*
X141656050Y-41674422D01*
X141656050Y-41674422D02*
X141751288Y-41722041D01*
X140560812Y-41436327D02*
X140465574Y-41436327D01*
X140465574Y-41436327D02*
X140370336Y-41483946D01*
X140370336Y-41483946D02*
X140322717Y-41531565D01*
X140322717Y-41531565D02*
X140275098Y-41626803D01*
X140275098Y-41626803D02*
X140227479Y-41817279D01*
X140227479Y-41817279D02*
X140227479Y-42055374D01*
X140227479Y-42055374D02*
X140275098Y-42245850D01*
X140275098Y-42245850D02*
X140322717Y-42341088D01*
X140322717Y-42341088D02*
X140370336Y-42388708D01*
X140370336Y-42388708D02*
X140465574Y-42436327D01*
X140465574Y-42436327D02*
X140560812Y-42436327D01*
X140560812Y-42436327D02*
X140656050Y-42388708D01*
X140656050Y-42388708D02*
X140703669Y-42341088D01*
X140703669Y-42341088D02*
X140751288Y-42245850D01*
X140751288Y-42245850D02*
X140798907Y-42055374D01*
X140798907Y-42055374D02*
X140798907Y-41817279D01*
X140798907Y-41817279D02*
X140751288Y-41626803D01*
X140751288Y-41626803D02*
X140703669Y-41531565D01*
X140703669Y-41531565D02*
X140656050Y-41483946D01*
X140656050Y-41483946D02*
X140560812Y-41436327D01*
X120601539Y-42436327D02*
X120601539Y-41436327D01*
X120601539Y-41436327D02*
X120220587Y-41436327D01*
X120220587Y-41436327D02*
X120125349Y-41483946D01*
X120125349Y-41483946D02*
X120077730Y-41531565D01*
X120077730Y-41531565D02*
X120030111Y-41626803D01*
X120030111Y-41626803D02*
X120030111Y-41769660D01*
X120030111Y-41769660D02*
X120077730Y-41864898D01*
X120077730Y-41864898D02*
X120125349Y-41912517D01*
X120125349Y-41912517D02*
X120220587Y-41960136D01*
X120220587Y-41960136D02*
X120601539Y-41960136D01*
X119696777Y-41436327D02*
X119077730Y-41436327D01*
X119077730Y-41436327D02*
X119411063Y-41817279D01*
X119411063Y-41817279D02*
X119268206Y-41817279D01*
X119268206Y-41817279D02*
X119172968Y-41864898D01*
X119172968Y-41864898D02*
X119125349Y-41912517D01*
X119125349Y-41912517D02*
X119077730Y-42007755D01*
X119077730Y-42007755D02*
X119077730Y-42245850D01*
X119077730Y-42245850D02*
X119125349Y-42341088D01*
X119125349Y-42341088D02*
X119172968Y-42388708D01*
X119172968Y-42388708D02*
X119268206Y-42436327D01*
X119268206Y-42436327D02*
X119553920Y-42436327D01*
X119553920Y-42436327D02*
X119649158Y-42388708D01*
X119649158Y-42388708D02*
X119696777Y-42341088D01*
X141751284Y-44976323D02*
X141751284Y-43976323D01*
X141751284Y-43976323D02*
X141370332Y-43976323D01*
X141370332Y-43976323D02*
X141275094Y-44023942D01*
X141275094Y-44023942D02*
X141227475Y-44071561D01*
X141227475Y-44071561D02*
X141179856Y-44166799D01*
X141179856Y-44166799D02*
X141179856Y-44309656D01*
X141179856Y-44309656D02*
X141227475Y-44404894D01*
X141227475Y-44404894D02*
X141275094Y-44452513D01*
X141275094Y-44452513D02*
X141370332Y-44500132D01*
X141370332Y-44500132D02*
X141751284Y-44500132D01*
X140703665Y-44976323D02*
X140513189Y-44976323D01*
X140513189Y-44976323D02*
X140417951Y-44928704D01*
X140417951Y-44928704D02*
X140370332Y-44881084D01*
X140370332Y-44881084D02*
X140275094Y-44738227D01*
X140275094Y-44738227D02*
X140227475Y-44547751D01*
X140227475Y-44547751D02*
X140227475Y-44166799D01*
X140227475Y-44166799D02*
X140275094Y-44071561D01*
X140275094Y-44071561D02*
X140322713Y-44023942D01*
X140322713Y-44023942D02*
X140417951Y-43976323D01*
X140417951Y-43976323D02*
X140608427Y-43976323D01*
X140608427Y-43976323D02*
X140703665Y-44023942D01*
X140703665Y-44023942D02*
X140751284Y-44071561D01*
X140751284Y-44071561D02*
X140798903Y-44166799D01*
X140798903Y-44166799D02*
X140798903Y-44404894D01*
X140798903Y-44404894D02*
X140751284Y-44500132D01*
X140751284Y-44500132D02*
X140703665Y-44547751D01*
X140703665Y-44547751D02*
X140608427Y-44595370D01*
X140608427Y-44595370D02*
X140417951Y-44595370D01*
X140417951Y-44595370D02*
X140322713Y-44547751D01*
X140322713Y-44547751D02*
X140275094Y-44500132D01*
X140275094Y-44500132D02*
X140227475Y-44404894D01*
X120601538Y-50056328D02*
X120601538Y-49056328D01*
X120601538Y-49056328D02*
X120220586Y-49056328D01*
X120220586Y-49056328D02*
X120125348Y-49103947D01*
X120125348Y-49103947D02*
X120077729Y-49151566D01*
X120077729Y-49151566D02*
X120030110Y-49246804D01*
X120030110Y-49246804D02*
X120030110Y-49389661D01*
X120030110Y-49389661D02*
X120077729Y-49484899D01*
X120077729Y-49484899D02*
X120125348Y-49532518D01*
X120125348Y-49532518D02*
X120220586Y-49580137D01*
X120220586Y-49580137D02*
X120601538Y-49580137D01*
X119172967Y-49056328D02*
X119363443Y-49056328D01*
X119363443Y-49056328D02*
X119458681Y-49103947D01*
X119458681Y-49103947D02*
X119506300Y-49151566D01*
X119506300Y-49151566D02*
X119601538Y-49294423D01*
X119601538Y-49294423D02*
X119649157Y-49484899D01*
X119649157Y-49484899D02*
X119649157Y-49865851D01*
X119649157Y-49865851D02*
X119601538Y-49961089D01*
X119601538Y-49961089D02*
X119553919Y-50008709D01*
X119553919Y-50008709D02*
X119458681Y-50056328D01*
X119458681Y-50056328D02*
X119268205Y-50056328D01*
X119268205Y-50056328D02*
X119172967Y-50008709D01*
X119172967Y-50008709D02*
X119125348Y-49961089D01*
X119125348Y-49961089D02*
X119077729Y-49865851D01*
X119077729Y-49865851D02*
X119077729Y-49627756D01*
X119077729Y-49627756D02*
X119125348Y-49532518D01*
X119125348Y-49532518D02*
X119172967Y-49484899D01*
X119172967Y-49484899D02*
X119268205Y-49437280D01*
X119268205Y-49437280D02*
X119458681Y-49437280D01*
X119458681Y-49437280D02*
X119553919Y-49484899D01*
X119553919Y-49484899D02*
X119601538Y-49532518D01*
X119601538Y-49532518D02*
X119649157Y-49627756D01*
X143798908Y-33816326D02*
X143465575Y-34816326D01*
X143465575Y-34816326D02*
X143132242Y-33816326D01*
X142798908Y-33816326D02*
X142798908Y-34625849D01*
X142798908Y-34625849D02*
X142751289Y-34721087D01*
X142751289Y-34721087D02*
X142703670Y-34768707D01*
X142703670Y-34768707D02*
X142608432Y-34816326D01*
X142608432Y-34816326D02*
X142417956Y-34816326D01*
X142417956Y-34816326D02*
X142322718Y-34768707D01*
X142322718Y-34768707D02*
X142275099Y-34721087D01*
X142275099Y-34721087D02*
X142227480Y-34625849D01*
X142227480Y-34625849D02*
X142227480Y-33816326D01*
X141798908Y-34768707D02*
X141656051Y-34816326D01*
X141656051Y-34816326D02*
X141417956Y-34816326D01*
X141417956Y-34816326D02*
X141322718Y-34768707D01*
X141322718Y-34768707D02*
X141275099Y-34721087D01*
X141275099Y-34721087D02*
X141227480Y-34625849D01*
X141227480Y-34625849D02*
X141227480Y-34530611D01*
X141227480Y-34530611D02*
X141275099Y-34435373D01*
X141275099Y-34435373D02*
X141322718Y-34387754D01*
X141322718Y-34387754D02*
X141417956Y-34340135D01*
X141417956Y-34340135D02*
X141608432Y-34292516D01*
X141608432Y-34292516D02*
X141703670Y-34244897D01*
X141703670Y-34244897D02*
X141751289Y-34197278D01*
X141751289Y-34197278D02*
X141798908Y-34102040D01*
X141798908Y-34102040D02*
X141798908Y-34006802D01*
X141798908Y-34006802D02*
X141751289Y-33911564D01*
X141751289Y-33911564D02*
X141703670Y-33863945D01*
X141703670Y-33863945D02*
X141608432Y-33816326D01*
X141608432Y-33816326D02*
X141370337Y-33816326D01*
X141370337Y-33816326D02*
X141227480Y-33863945D01*
X140465575Y-34292516D02*
X140322718Y-34340135D01*
X140322718Y-34340135D02*
X140275099Y-34387754D01*
X140275099Y-34387754D02*
X140227480Y-34482992D01*
X140227480Y-34482992D02*
X140227480Y-34625849D01*
X140227480Y-34625849D02*
X140275099Y-34721087D01*
X140275099Y-34721087D02*
X140322718Y-34768707D01*
X140322718Y-34768707D02*
X140417956Y-34816326D01*
X140417956Y-34816326D02*
X140798908Y-34816326D01*
X140798908Y-34816326D02*
X140798908Y-33816326D01*
X140798908Y-33816326D02*
X140465575Y-33816326D01*
X140465575Y-33816326D02*
X140370337Y-33863945D01*
X140370337Y-33863945D02*
X140322718Y-33911564D01*
X140322718Y-33911564D02*
X140275099Y-34006802D01*
X140275099Y-34006802D02*
X140275099Y-34102040D01*
X140275099Y-34102040D02*
X140322718Y-34197278D01*
X140322718Y-34197278D02*
X140370337Y-34244897D01*
X140370337Y-34244897D02*
X140465575Y-34292516D01*
X140465575Y-34292516D02*
X140798908Y-34292516D01*
X142798905Y-38896327D02*
X142465572Y-39896327D01*
X142465572Y-39896327D02*
X142132239Y-38896327D01*
X141227477Y-39801088D02*
X141275096Y-39848708D01*
X141275096Y-39848708D02*
X141417953Y-39896327D01*
X141417953Y-39896327D02*
X141513191Y-39896327D01*
X141513191Y-39896327D02*
X141656048Y-39848708D01*
X141656048Y-39848708D02*
X141751286Y-39753469D01*
X141751286Y-39753469D02*
X141798905Y-39658231D01*
X141798905Y-39658231D02*
X141846524Y-39467755D01*
X141846524Y-39467755D02*
X141846524Y-39324898D01*
X141846524Y-39324898D02*
X141798905Y-39134422D01*
X141798905Y-39134422D02*
X141751286Y-39039184D01*
X141751286Y-39039184D02*
X141656048Y-38943946D01*
X141656048Y-38943946D02*
X141513191Y-38896327D01*
X141513191Y-38896327D02*
X141417953Y-38896327D01*
X141417953Y-38896327D02*
X141275096Y-38943946D01*
X141275096Y-38943946D02*
X141227477Y-38991565D01*
X140227477Y-39801088D02*
X140275096Y-39848708D01*
X140275096Y-39848708D02*
X140417953Y-39896327D01*
X140417953Y-39896327D02*
X140513191Y-39896327D01*
X140513191Y-39896327D02*
X140656048Y-39848708D01*
X140656048Y-39848708D02*
X140751286Y-39753469D01*
X140751286Y-39753469D02*
X140798905Y-39658231D01*
X140798905Y-39658231D02*
X140846524Y-39467755D01*
X140846524Y-39467755D02*
X140846524Y-39324898D01*
X140846524Y-39324898D02*
X140798905Y-39134422D01*
X140798905Y-39134422D02*
X140751286Y-39039184D01*
X140751286Y-39039184D02*
X140656048Y-38943946D01*
X140656048Y-38943946D02*
X140513191Y-38896327D01*
X140513191Y-38896327D02*
X140417953Y-38896327D01*
X140417953Y-38896327D02*
X140275096Y-38943946D01*
X140275096Y-38943946D02*
X140227477Y-38991565D01*
X170243080Y-46489043D02*
X169633557Y-46489043D01*
X137876398Y-56093804D02*
X138143065Y-55712851D01*
X138333541Y-56093804D02*
X138333541Y-55293804D01*
X138333541Y-55293804D02*
X138028779Y-55293804D01*
X138028779Y-55293804D02*
X137952589Y-55331899D01*
X137952589Y-55331899D02*
X137914494Y-55369994D01*
X137914494Y-55369994D02*
X137876398Y-55446185D01*
X137876398Y-55446185D02*
X137876398Y-55560470D01*
X137876398Y-55560470D02*
X137914494Y-55636661D01*
X137914494Y-55636661D02*
X137952589Y-55674756D01*
X137952589Y-55674756D02*
X138028779Y-55712851D01*
X138028779Y-55712851D02*
X138333541Y-55712851D01*
X137571637Y-56055709D02*
X137457351Y-56093804D01*
X137457351Y-56093804D02*
X137266875Y-56093804D01*
X137266875Y-56093804D02*
X137190684Y-56055709D01*
X137190684Y-56055709D02*
X137152589Y-56017613D01*
X137152589Y-56017613D02*
X137114494Y-55941423D01*
X137114494Y-55941423D02*
X137114494Y-55865232D01*
X137114494Y-55865232D02*
X137152589Y-55789042D01*
X137152589Y-55789042D02*
X137190684Y-55750947D01*
X137190684Y-55750947D02*
X137266875Y-55712851D01*
X137266875Y-55712851D02*
X137419256Y-55674756D01*
X137419256Y-55674756D02*
X137495446Y-55636661D01*
X137495446Y-55636661D02*
X137533541Y-55598566D01*
X137533541Y-55598566D02*
X137571637Y-55522375D01*
X137571637Y-55522375D02*
X137571637Y-55446185D01*
X137571637Y-55446185D02*
X137533541Y-55369994D01*
X137533541Y-55369994D02*
X137495446Y-55331899D01*
X137495446Y-55331899D02*
X137419256Y-55293804D01*
X137419256Y-55293804D02*
X137228779Y-55293804D01*
X137228779Y-55293804D02*
X137114494Y-55331899D01*
X136885922Y-55293804D02*
X136428779Y-55293804D01*
X136657351Y-56093804D02*
X136657351Y-55293804D01*
X131024035Y-55674752D02*
X130909749Y-55712847D01*
X130909749Y-55712847D02*
X130871654Y-55750943D01*
X130871654Y-55750943D02*
X130833558Y-55827133D01*
X130833558Y-55827133D02*
X130833558Y-55941419D01*
X130833558Y-55941419D02*
X130871654Y-56017609D01*
X130871654Y-56017609D02*
X130909749Y-56055705D01*
X130909749Y-56055705D02*
X130985939Y-56093800D01*
X130985939Y-56093800D02*
X131290701Y-56093800D01*
X131290701Y-56093800D02*
X131290701Y-55293800D01*
X131290701Y-55293800D02*
X131024035Y-55293800D01*
X131024035Y-55293800D02*
X130947844Y-55331895D01*
X130947844Y-55331895D02*
X130909749Y-55369990D01*
X130909749Y-55369990D02*
X130871654Y-55446181D01*
X130871654Y-55446181D02*
X130871654Y-55522371D01*
X130871654Y-55522371D02*
X130909749Y-55598562D01*
X130909749Y-55598562D02*
X130947844Y-55636657D01*
X130947844Y-55636657D02*
X131024035Y-55674752D01*
X131024035Y-55674752D02*
X131290701Y-55674752D01*
X130528797Y-55865228D02*
X130147844Y-55865228D01*
X130604987Y-56093800D02*
X130338320Y-55293800D01*
X130338320Y-55293800D02*
X130071654Y-56093800D01*
X129919273Y-55293800D02*
X129462130Y-55293800D01*
X129690702Y-56093800D02*
X129690702Y-55293800D01*
X129195463Y-55789038D02*
X128585940Y-55789038D01*
X128890701Y-56093800D02*
X128890701Y-55484276D01*
X168495846Y-49126748D02*
X168495846Y-49736272D01*
X168800608Y-49431510D02*
X168191084Y-49431510D01*
X65613960Y-102234770D02*
X65872779Y-101268844D01*
X64648034Y-101975951D02*
X65199992Y-102123848D01*
X64924013Y-102049899D02*
X65182832Y-101083973D01*
X65182832Y-101083973D02*
X65237851Y-101246612D01*
X65237851Y-101246612D02*
X65305194Y-101363255D01*
X65305194Y-101363255D02*
X65384863Y-101433901D01*
X60366883Y-86910089D02*
X60217928Y-86932178D01*
X60217928Y-86932178D02*
X59983450Y-86890833D01*
X59983450Y-86890833D02*
X59897927Y-86827399D01*
X59897927Y-86827399D02*
X59859301Y-86772235D01*
X59859301Y-86772235D02*
X59828943Y-86670175D01*
X59828943Y-86670175D02*
X59845481Y-86576383D01*
X59845481Y-86576383D02*
X59908914Y-86490861D01*
X59908914Y-86490861D02*
X59964079Y-86452235D01*
X59964079Y-86452235D02*
X60066139Y-86421877D01*
X60066139Y-86421877D02*
X60261991Y-86408057D01*
X60261991Y-86408057D02*
X60364051Y-86377699D01*
X60364051Y-86377699D02*
X60419215Y-86339073D01*
X60419215Y-86339073D02*
X60482649Y-86253551D01*
X60482649Y-86253551D02*
X60499187Y-86159759D01*
X60499187Y-86159759D02*
X60468829Y-86057699D01*
X60468829Y-86057699D02*
X60430202Y-86002535D01*
X60430202Y-86002535D02*
X60344680Y-85939101D01*
X60344680Y-85939101D02*
X60110202Y-85897756D01*
X60110202Y-85897756D02*
X59961246Y-85919845D01*
X59641246Y-85815067D02*
X59233120Y-86758530D01*
X59233120Y-86758530D02*
X59169572Y-86022020D01*
X59169572Y-86022020D02*
X58857955Y-86692378D01*
X58857955Y-86692378D02*
X58797125Y-85666225D01*
X58452318Y-85702134D02*
X58413691Y-85646969D01*
X58413691Y-85646969D02*
X58328169Y-85583536D01*
X58328169Y-85583536D02*
X58093691Y-85542191D01*
X58093691Y-85542191D02*
X57991631Y-85572549D01*
X57991631Y-85572549D02*
X57936466Y-85611175D01*
X57936466Y-85611175D02*
X57873033Y-85696698D01*
X57873033Y-85696698D02*
X57856495Y-85790489D01*
X57856495Y-85790489D02*
X57878584Y-85939445D01*
X57878584Y-85939445D02*
X58342103Y-86601419D01*
X58342103Y-86601419D02*
X57732461Y-86493923D01*
X66604576Y-99549674D02*
X66863396Y-98583748D01*
X66863396Y-98583748D02*
X66633413Y-98522125D01*
X66633413Y-98522125D02*
X66483099Y-98531147D01*
X66483099Y-98531147D02*
X66366457Y-98598490D01*
X66366457Y-98598490D02*
X66295811Y-98678159D01*
X66295811Y-98678159D02*
X66200515Y-98849820D01*
X66200515Y-98849820D02*
X66163541Y-98987809D01*
X66163541Y-98987809D02*
X66160239Y-99184120D01*
X66160239Y-99184120D02*
X66181586Y-99288437D01*
X66181586Y-99288437D02*
X66248929Y-99405080D01*
X66248929Y-99405080D02*
X66374594Y-99488050D01*
X66374594Y-99488050D02*
X66604576Y-99549674D01*
X65132689Y-99155283D02*
X65684647Y-99303180D01*
X65408668Y-99229231D02*
X65667487Y-98263305D01*
X65667487Y-98263305D02*
X65722506Y-98425944D01*
X65722506Y-98425944D02*
X65789850Y-98542587D01*
X65789850Y-98542587D02*
X65869518Y-98613233D01*
X207591351Y-97737373D02*
X207249331Y-96797681D01*
X207249331Y-96797681D02*
X207025594Y-96879114D01*
X207025594Y-96879114D02*
X206907639Y-96972721D01*
X206907639Y-96972721D02*
X206850718Y-97094789D01*
X206850718Y-97094789D02*
X206838544Y-97200570D01*
X206838544Y-97200570D02*
X206858944Y-97395846D01*
X206858944Y-97395846D02*
X206907804Y-97530088D01*
X206907804Y-97530088D02*
X207017698Y-97692790D01*
X207017698Y-97692790D02*
X207095018Y-97765998D01*
X207095018Y-97765998D02*
X207217086Y-97822919D01*
X207217086Y-97822919D02*
X207367615Y-97818807D01*
X207367615Y-97818807D02*
X207591351Y-97737373D01*
X205862166Y-97302568D02*
X206309638Y-97139701D01*
X206309638Y-97139701D02*
X206517252Y-97570887D01*
X206517252Y-97570887D02*
X206456218Y-97542426D01*
X206456218Y-97542426D02*
X206350437Y-97530252D01*
X206350437Y-97530252D02*
X206126701Y-97611686D01*
X206126701Y-97611686D02*
X206053493Y-97689006D01*
X206053493Y-97689006D02*
X206025032Y-97750040D01*
X206025032Y-97750040D02*
X206012858Y-97855821D01*
X206012858Y-97855821D02*
X206094292Y-98079558D01*
X206094292Y-98079558D02*
X206171612Y-98152766D01*
X206171612Y-98152766D02*
X206232646Y-98181226D01*
X206232646Y-98181226D02*
X206338427Y-98193400D01*
X206338427Y-98193400D02*
X206562164Y-98111967D01*
X206562164Y-98111967D02*
X206635372Y-98034646D01*
X206635372Y-98034646D02*
X206663832Y-97973612D01*
X132660589Y-144316842D02*
X132523093Y-144255438D01*
X132523093Y-144255438D02*
X132347551Y-144094583D01*
X132347551Y-144094583D02*
X132309505Y-143995133D01*
X132309505Y-143995133D02*
X132306567Y-143927853D01*
X132306567Y-143927853D02*
X132335801Y-143825466D01*
X132335801Y-143825466D02*
X132400143Y-143755249D01*
X132400143Y-143755249D02*
X132499593Y-143717203D01*
X132499593Y-143717203D02*
X132566872Y-143714265D01*
X132566872Y-143714265D02*
X132669260Y-143743499D01*
X132669260Y-143743499D02*
X132841865Y-143837074D01*
X132841865Y-143837074D02*
X132944253Y-143866308D01*
X132944253Y-143866308D02*
X133011532Y-143863370D01*
X133011532Y-143863370D02*
X133110983Y-143825324D01*
X133110983Y-143825324D02*
X133175324Y-143755107D01*
X133175324Y-143755107D02*
X133204558Y-143652719D01*
X133204558Y-143652719D02*
X133201620Y-143585440D01*
X133201620Y-143585440D02*
X133163575Y-143485990D01*
X133163575Y-143485990D02*
X132988032Y-143325135D01*
X132988032Y-143325135D02*
X132850536Y-143263730D01*
X132636948Y-143003425D02*
X131785815Y-143579848D01*
X131785815Y-143579848D02*
X132127946Y-142924537D01*
X132127946Y-142924537D02*
X131504948Y-143322480D01*
X131504948Y-143322480D02*
X132004996Y-142424348D01*
X130662345Y-142550377D02*
X131083647Y-142936429D01*
X130872996Y-142743403D02*
X131548586Y-142006125D01*
X131548586Y-142006125D02*
X131522290Y-142175793D01*
X131522290Y-142175793D02*
X131528165Y-142310352D01*
X131528165Y-142310352D02*
X131566211Y-142409802D01*
X130670875Y-141201851D02*
X131021959Y-141523561D01*
X131021959Y-141523561D02*
X130735358Y-141906816D01*
X130735358Y-141906816D02*
X130732421Y-141839537D01*
X130732421Y-141839537D02*
X130694375Y-141740087D01*
X130694375Y-141740087D02*
X130518833Y-141579232D01*
X130518833Y-141579232D02*
X130416445Y-141549998D01*
X130416445Y-141549998D02*
X130349165Y-141552936D01*
X130349165Y-141552936D02*
X130249715Y-141590982D01*
X130249715Y-141590982D02*
X130088860Y-141766524D01*
X130088860Y-141766524D02*
X130059627Y-141868912D01*
X130059627Y-141868912D02*
X130062564Y-141936191D01*
X130062564Y-141936191D02*
X130100610Y-142035642D01*
X130100610Y-142035642D02*
X130276152Y-142196496D01*
X130276152Y-142196496D02*
X130378540Y-142225730D01*
X130378540Y-142225730D02*
X130445820Y-142222792D01*
X105593368Y-75472587D02*
X105442839Y-75468474D01*
X105442839Y-75468474D02*
X105219103Y-75387041D01*
X105219103Y-75387041D02*
X105145895Y-75309720D01*
X105145895Y-75309720D02*
X105117435Y-75248686D01*
X105117435Y-75248686D02*
X105105261Y-75142905D01*
X105105261Y-75142905D02*
X105137834Y-75053411D01*
X105137834Y-75053411D02*
X105215155Y-74980203D01*
X105215155Y-74980203D02*
X105276189Y-74951742D01*
X105276189Y-74951742D02*
X105381970Y-74939568D01*
X105381970Y-74939568D02*
X105577246Y-74959968D01*
X105577246Y-74959968D02*
X105683027Y-74947794D01*
X105683027Y-74947794D02*
X105744061Y-74919333D01*
X105744061Y-74919333D02*
X105821381Y-74846125D01*
X105821381Y-74846125D02*
X105853955Y-74756631D01*
X105853955Y-74756631D02*
X105841781Y-74650850D01*
X105841781Y-74650850D02*
X105813320Y-74589816D01*
X105813320Y-74589816D02*
X105740112Y-74512495D01*
X105740112Y-74512495D02*
X105516376Y-74431062D01*
X105516376Y-74431062D02*
X105365847Y-74426949D01*
X105068903Y-74268195D02*
X104503147Y-75126454D01*
X104503147Y-75126454D02*
X104568458Y-74390098D01*
X104568458Y-74390098D02*
X104145169Y-74996161D01*
X104145169Y-74996161D02*
X104263452Y-73975035D01*
X103624653Y-74198607D02*
X103730434Y-74186433D01*
X103730434Y-74186433D02*
X103791468Y-74157972D01*
X103791468Y-74157972D02*
X103868788Y-74084764D01*
X103868788Y-74084764D02*
X103885075Y-74040017D01*
X103885075Y-74040017D02*
X103872901Y-73934236D01*
X103872901Y-73934236D02*
X103844440Y-73873202D01*
X103844440Y-73873202D02*
X103771233Y-73795881D01*
X103771233Y-73795881D02*
X103592244Y-73730735D01*
X103592244Y-73730735D02*
X103486462Y-73742909D01*
X103486462Y-73742909D02*
X103425428Y-73771369D01*
X103425428Y-73771369D02*
X103348108Y-73844577D01*
X103348108Y-73844577D02*
X103331821Y-73889324D01*
X103331821Y-73889324D02*
X103343995Y-73995106D01*
X103343995Y-73995106D02*
X103372456Y-74056139D01*
X103372456Y-74056139D02*
X103445663Y-74133460D01*
X103445663Y-74133460D02*
X103624653Y-74198607D01*
X103624653Y-74198607D02*
X103697860Y-74275927D01*
X103697860Y-74275927D02*
X103726321Y-74336961D01*
X103726321Y-74336961D02*
X103738495Y-74442743D01*
X103738495Y-74442743D02*
X103673348Y-74621732D01*
X103673348Y-74621732D02*
X103596028Y-74694939D01*
X103596028Y-74694939D02*
X103534994Y-74723400D01*
X103534994Y-74723400D02*
X103429212Y-74735574D01*
X103429212Y-74735574D02*
X103250223Y-74670427D01*
X103250223Y-74670427D02*
X103177016Y-74593107D01*
X103177016Y-74593107D02*
X103148555Y-74532073D01*
X103148555Y-74532073D02*
X103136381Y-74426292D01*
X103136381Y-74426292D02*
X103201528Y-74247302D01*
X103201528Y-74247302D02*
X103278848Y-74174095D01*
X103278848Y-74174095D02*
X103339882Y-74145634D01*
X103339882Y-74145634D02*
X103445663Y-74133460D01*
X121443198Y-111306498D02*
X121825882Y-110382619D01*
X121825882Y-110382619D02*
X121605911Y-110291504D01*
X121605911Y-110291504D02*
X121455705Y-110280829D01*
X121455705Y-110280829D02*
X121331270Y-110332371D01*
X121331270Y-110332371D02*
X121250830Y-110402137D01*
X121250830Y-110402137D02*
X121133944Y-110559891D01*
X121133944Y-110559891D02*
X121079274Y-110691874D01*
X121079274Y-110691874D02*
X121050377Y-110886074D01*
X121050377Y-110886074D02*
X121057925Y-110992285D01*
X121057925Y-110992285D02*
X121109467Y-111116720D01*
X121109467Y-111116720D02*
X121223227Y-111215383D01*
X121223227Y-111215383D02*
X121443198Y-111306498D01*
X120989991Y-110036381D02*
X120418065Y-109799482D01*
X120418065Y-109799482D02*
X120580241Y-110278997D01*
X120580241Y-110278997D02*
X120448258Y-110224328D01*
X120448258Y-110224328D02*
X120342047Y-110231876D01*
X120342047Y-110231876D02*
X120279829Y-110257648D01*
X120279829Y-110257648D02*
X120199389Y-110327413D01*
X120199389Y-110327413D02*
X120108274Y-110547384D01*
X120108274Y-110547384D02*
X120115822Y-110653596D01*
X120115822Y-110653596D02*
X120141594Y-110715813D01*
X120141594Y-110715813D02*
X120211359Y-110796254D01*
X120211359Y-110796254D02*
X120475325Y-110905592D01*
X120475325Y-110905592D02*
X120581536Y-110898043D01*
X120581536Y-110898043D02*
X120643753Y-110872272D01*
X217828537Y-59511304D02*
X217702873Y-59594275D01*
X217702873Y-59594275D02*
X217472890Y-59655898D01*
X217472890Y-59655898D02*
X217368573Y-59634551D01*
X217368573Y-59634551D02*
X217310252Y-59600880D01*
X217310252Y-59600880D02*
X217239606Y-59521211D01*
X217239606Y-59521211D02*
X217214956Y-59429219D01*
X217214956Y-59429219D02*
X217236303Y-59324901D01*
X217236303Y-59324901D02*
X217269975Y-59266580D01*
X217269975Y-59266580D02*
X217349643Y-59195934D01*
X217349643Y-59195934D02*
X217521304Y-59100638D01*
X217521304Y-59100638D02*
X217600973Y-59029993D01*
X217600973Y-59029993D02*
X217634644Y-58971671D01*
X217634644Y-58971671D02*
X217655991Y-58867354D01*
X217655991Y-58867354D02*
X217631342Y-58775361D01*
X217631342Y-58775361D02*
X217560696Y-58695693D01*
X217560696Y-58695693D02*
X217502375Y-58662021D01*
X217502375Y-58662021D02*
X217398057Y-58640674D01*
X217398057Y-58640674D02*
X217168075Y-58702297D01*
X217168075Y-58702297D02*
X217042410Y-58785268D01*
X216708110Y-58825545D02*
X216736947Y-59853094D01*
X216736947Y-59853094D02*
X216368090Y-59212446D01*
X216368090Y-59212446D02*
X216368975Y-59951692D01*
X216368975Y-59951692D02*
X215880174Y-59047389D01*
X215582848Y-59225655D02*
X215524527Y-59191984D01*
X215524527Y-59191984D02*
X215420209Y-59170637D01*
X215420209Y-59170637D02*
X215190227Y-59232260D01*
X215190227Y-59232260D02*
X215110559Y-59302906D01*
X215110559Y-59302906D02*
X215076887Y-59361227D01*
X215076887Y-59361227D02*
X215055540Y-59465545D01*
X215055540Y-59465545D02*
X215080189Y-59557538D01*
X215080189Y-59557538D02*
X215163160Y-59683203D01*
X215163160Y-59683203D02*
X215863014Y-60087264D01*
X215863014Y-60087264D02*
X215265060Y-60247485D01*
X214345131Y-60493979D02*
X214897088Y-60346083D01*
X214621109Y-60420031D02*
X214362290Y-59454105D01*
X214362290Y-59454105D02*
X214491257Y-59567445D01*
X214491257Y-59567445D02*
X214607900Y-59634789D01*
X214607900Y-59634789D02*
X214712217Y-59656136D01*
X185170010Y-90152002D02*
X185056250Y-90250666D01*
X185056250Y-90250666D02*
X184836279Y-90341781D01*
X184836279Y-90341781D02*
X184730068Y-90334233D01*
X184730068Y-90334233D02*
X184667850Y-90308461D01*
X184667850Y-90308461D02*
X184587410Y-90238696D01*
X184587410Y-90238696D02*
X184550964Y-90150707D01*
X184550964Y-90150707D02*
X184558512Y-90044496D01*
X184558512Y-90044496D02*
X184584283Y-89982279D01*
X184584283Y-89982279D02*
X184654049Y-89901838D01*
X184654049Y-89901838D02*
X184811803Y-89784952D01*
X184811803Y-89784952D02*
X184881568Y-89704512D01*
X184881568Y-89704512D02*
X184907340Y-89642294D01*
X184907340Y-89642294D02*
X184914888Y-89536083D01*
X184914888Y-89536083D02*
X184878442Y-89448094D01*
X184878442Y-89448094D02*
X184798002Y-89378329D01*
X184798002Y-89378329D02*
X184735784Y-89352557D01*
X184735784Y-89352557D02*
X184629573Y-89345009D01*
X184629573Y-89345009D02*
X184409601Y-89436124D01*
X184409601Y-89436124D02*
X184295842Y-89534788D01*
X183969659Y-89618355D02*
X184132371Y-90633349D01*
X184132371Y-90633349D02*
X183683048Y-90046327D01*
X183683048Y-90046327D02*
X183780417Y-90779133D01*
X183780417Y-90779133D02*
X183177762Y-89946369D01*
X182906248Y-90161919D02*
X182844031Y-90136147D01*
X182844031Y-90136147D02*
X182737819Y-90128599D01*
X182737819Y-90128599D02*
X182517848Y-90219714D01*
X182517848Y-90219714D02*
X182448083Y-90300155D01*
X182448083Y-90300155D02*
X182422311Y-90362372D01*
X182422311Y-90362372D02*
X182414763Y-90468583D01*
X182414763Y-90468583D02*
X182451209Y-90556572D01*
X182451209Y-90556572D02*
X182549873Y-90670332D01*
X182549873Y-90670332D02*
X183296480Y-90979587D01*
X183296480Y-90979587D02*
X182724555Y-91216486D01*
X181549974Y-90620621D02*
X181725951Y-90547729D01*
X181725951Y-90547729D02*
X181832163Y-90555277D01*
X181832163Y-90555277D02*
X181894380Y-90581048D01*
X181894380Y-90581048D02*
X182037038Y-90676585D01*
X182037038Y-90676585D02*
X182153924Y-90834339D01*
X182153924Y-90834339D02*
X182299708Y-91186293D01*
X182299708Y-91186293D02*
X182292160Y-91292505D01*
X182292160Y-91292505D02*
X182266389Y-91354722D01*
X182266389Y-91354722D02*
X182196623Y-91435162D01*
X182196623Y-91435162D02*
X182020646Y-91508054D01*
X182020646Y-91508054D02*
X181914435Y-91500506D01*
X181914435Y-91500506D02*
X181852217Y-91474735D01*
X181852217Y-91474735D02*
X181771777Y-91404969D01*
X181771777Y-91404969D02*
X181680662Y-91184998D01*
X181680662Y-91184998D02*
X181688210Y-91078786D01*
X181688210Y-91078786D02*
X181713982Y-91016569D01*
X181713982Y-91016569D02*
X181783747Y-90936129D01*
X181783747Y-90936129D02*
X181959724Y-90863237D01*
X181959724Y-90863237D02*
X182065936Y-90870785D01*
X182065936Y-90870785D02*
X182128153Y-90896556D01*
X182128153Y-90896556D02*
X182208593Y-90966322D01*
X222746104Y-77863895D02*
X222620440Y-77946866D01*
X222620440Y-77946866D02*
X222390457Y-78008489D01*
X222390457Y-78008489D02*
X222286140Y-77987142D01*
X222286140Y-77987142D02*
X222227819Y-77953471D01*
X222227819Y-77953471D02*
X222157173Y-77873802D01*
X222157173Y-77873802D02*
X222132523Y-77781810D01*
X222132523Y-77781810D02*
X222153870Y-77677492D01*
X222153870Y-77677492D02*
X222187542Y-77619171D01*
X222187542Y-77619171D02*
X222267210Y-77548525D01*
X222267210Y-77548525D02*
X222438871Y-77453229D01*
X222438871Y-77453229D02*
X222518540Y-77382584D01*
X222518540Y-77382584D02*
X222552211Y-77324262D01*
X222552211Y-77324262D02*
X222573558Y-77219945D01*
X222573558Y-77219945D02*
X222548909Y-77127952D01*
X222548909Y-77127952D02*
X222478263Y-77048284D01*
X222478263Y-77048284D02*
X222419942Y-77014612D01*
X222419942Y-77014612D02*
X222315624Y-76993265D01*
X222315624Y-76993265D02*
X222085642Y-77054888D01*
X222085642Y-77054888D02*
X221959977Y-77137859D01*
X221625677Y-77178136D02*
X221654514Y-78205685D01*
X221654514Y-78205685D02*
X221285657Y-77565037D01*
X221285657Y-77565037D02*
X221286542Y-78304283D01*
X221286542Y-78304283D02*
X220797741Y-77399980D01*
X220500415Y-77578246D02*
X220442094Y-77544575D01*
X220442094Y-77544575D02*
X220337776Y-77523228D01*
X220337776Y-77523228D02*
X220107794Y-77584851D01*
X220107794Y-77584851D02*
X220028126Y-77655497D01*
X220028126Y-77655497D02*
X219994454Y-77713818D01*
X219994454Y-77713818D02*
X219973107Y-77818136D01*
X219973107Y-77818136D02*
X219997756Y-77910129D01*
X219997756Y-77910129D02*
X220080727Y-78035794D01*
X220080727Y-78035794D02*
X220780581Y-78439855D01*
X220780581Y-78439855D02*
X220182627Y-78600076D01*
X219325854Y-77794371D02*
X219233861Y-77819021D01*
X219233861Y-77819021D02*
X219154193Y-77889667D01*
X219154193Y-77889667D02*
X219120521Y-77947988D01*
X219120521Y-77947988D02*
X219099174Y-78052306D01*
X219099174Y-78052306D02*
X219102476Y-78248616D01*
X219102476Y-78248616D02*
X219164100Y-78478598D01*
X219164100Y-78478598D02*
X219259395Y-78650260D01*
X219259395Y-78650260D02*
X219330041Y-78729928D01*
X219330041Y-78729928D02*
X219388362Y-78763600D01*
X219388362Y-78763600D02*
X219492680Y-78784947D01*
X219492680Y-78784947D02*
X219584673Y-78760297D01*
X219584673Y-78760297D02*
X219664341Y-78689651D01*
X219664341Y-78689651D02*
X219698013Y-78631330D01*
X219698013Y-78631330D02*
X219719360Y-78527012D01*
X219719360Y-78527012D02*
X219716057Y-78330702D01*
X219716057Y-78330702D02*
X219654434Y-78100719D01*
X219654434Y-78100719D02*
X219559139Y-77929058D01*
X219559139Y-77929058D02*
X219488493Y-77849390D01*
X219488493Y-77849390D02*
X219430171Y-77815718D01*
X219430171Y-77815718D02*
X219325854Y-77794371D01*
X112091753Y-57618426D02*
X111941224Y-57614313D01*
X111941224Y-57614313D02*
X111717488Y-57532880D01*
X111717488Y-57532880D02*
X111644280Y-57455559D01*
X111644280Y-57455559D02*
X111615820Y-57394525D01*
X111615820Y-57394525D02*
X111603646Y-57288744D01*
X111603646Y-57288744D02*
X111636219Y-57199250D01*
X111636219Y-57199250D02*
X111713540Y-57126042D01*
X111713540Y-57126042D02*
X111774574Y-57097581D01*
X111774574Y-57097581D02*
X111880355Y-57085407D01*
X111880355Y-57085407D02*
X112075631Y-57105807D01*
X112075631Y-57105807D02*
X112181412Y-57093633D01*
X112181412Y-57093633D02*
X112242446Y-57065172D01*
X112242446Y-57065172D02*
X112319766Y-56991964D01*
X112319766Y-56991964D02*
X112352340Y-56902470D01*
X112352340Y-56902470D02*
X112340166Y-56796689D01*
X112340166Y-56796689D02*
X112311705Y-56735655D01*
X112311705Y-56735655D02*
X112238497Y-56658334D01*
X112238497Y-56658334D02*
X112014761Y-56576901D01*
X112014761Y-56576901D02*
X111864232Y-56572788D01*
X111567288Y-56414034D02*
X111001532Y-57272293D01*
X111001532Y-57272293D02*
X111066843Y-56535937D01*
X111066843Y-56535937D02*
X110643554Y-57142000D01*
X110643554Y-57142000D02*
X110761837Y-56120874D01*
X110017092Y-56913986D02*
X109838103Y-56848840D01*
X109838103Y-56848840D02*
X109764895Y-56771519D01*
X109764895Y-56771519D02*
X109736434Y-56710485D01*
X109736434Y-56710485D02*
X109695800Y-56543670D01*
X109695800Y-56543670D02*
X109716199Y-56348394D01*
X109716199Y-56348394D02*
X109846493Y-55990416D01*
X109846493Y-55990416D02*
X109923813Y-55917208D01*
X109923813Y-55917208D02*
X109984847Y-55888748D01*
X109984847Y-55888748D02*
X110090629Y-55876574D01*
X110090629Y-55876574D02*
X110269618Y-55941720D01*
X110269618Y-55941720D02*
X110342825Y-56019041D01*
X110342825Y-56019041D02*
X110371286Y-56080075D01*
X110371286Y-56080075D02*
X110383460Y-56185856D01*
X110383460Y-56185856D02*
X110302027Y-56409592D01*
X110302027Y-56409592D02*
X110224706Y-56482800D01*
X110224706Y-56482800D02*
X110163672Y-56511261D01*
X110163672Y-56511261D02*
X110057891Y-56523435D01*
X110057891Y-56523435D02*
X109878902Y-56458288D01*
X109878902Y-56458288D02*
X109805694Y-56380968D01*
X109805694Y-56380968D02*
X109777233Y-56319934D01*
X109777233Y-56319934D02*
X109765059Y-56214152D01*
X99094985Y-93326752D02*
X98944456Y-93322639D01*
X98944456Y-93322639D02*
X98720720Y-93241206D01*
X98720720Y-93241206D02*
X98647512Y-93163885D01*
X98647512Y-93163885D02*
X98619052Y-93102851D01*
X98619052Y-93102851D02*
X98606878Y-92997070D01*
X98606878Y-92997070D02*
X98639451Y-92907576D01*
X98639451Y-92907576D02*
X98716772Y-92834368D01*
X98716772Y-92834368D02*
X98777806Y-92805907D01*
X98777806Y-92805907D02*
X98883587Y-92793733D01*
X98883587Y-92793733D02*
X99078863Y-92814133D01*
X99078863Y-92814133D02*
X99184644Y-92801959D01*
X99184644Y-92801959D02*
X99245678Y-92773498D01*
X99245678Y-92773498D02*
X99322998Y-92700290D01*
X99322998Y-92700290D02*
X99355572Y-92610796D01*
X99355572Y-92610796D02*
X99343398Y-92505015D01*
X99343398Y-92505015D02*
X99314937Y-92443981D01*
X99314937Y-92443981D02*
X99241729Y-92366660D01*
X99241729Y-92366660D02*
X99017993Y-92285227D01*
X99017993Y-92285227D02*
X98867464Y-92281114D01*
X98570520Y-92122360D02*
X98004764Y-92980619D01*
X98004764Y-92980619D02*
X98070075Y-92244263D01*
X98070075Y-92244263D02*
X97646786Y-92850326D01*
X97646786Y-92850326D02*
X97765069Y-91829200D01*
X97496586Y-91731480D02*
X96870124Y-91503466D01*
X96870124Y-91503466D02*
X96930829Y-92589739D01*
X83166306Y-78677331D02*
X83015992Y-78686354D01*
X83015992Y-78686354D02*
X82786010Y-78624730D01*
X82786010Y-78624730D02*
X82706341Y-78554084D01*
X82706341Y-78554084D02*
X82672670Y-78495763D01*
X82672670Y-78495763D02*
X82651323Y-78391445D01*
X82651323Y-78391445D02*
X82675972Y-78299452D01*
X82675972Y-78299452D02*
X82746618Y-78219784D01*
X82746618Y-78219784D02*
X82804939Y-78186113D01*
X82804939Y-78186113D02*
X82909257Y-78164765D01*
X82909257Y-78164765D02*
X83105567Y-78168068D01*
X83105567Y-78168068D02*
X83209885Y-78146721D01*
X83209885Y-78146721D02*
X83268206Y-78113049D01*
X83268206Y-78113049D02*
X83338852Y-78033381D01*
X83338852Y-78033381D02*
X83363501Y-77941388D01*
X83363501Y-77941388D02*
X83342154Y-77837070D01*
X83342154Y-77837070D02*
X83308483Y-77778749D01*
X83308483Y-77778749D02*
X83228814Y-77708103D01*
X83228814Y-77708103D02*
X82998832Y-77646480D01*
X82998832Y-77646480D02*
X82848518Y-77655502D01*
X82538867Y-77523232D02*
X82050066Y-78427535D01*
X82050066Y-78427535D02*
X82050951Y-77688289D01*
X82050951Y-77688289D02*
X81682094Y-78328937D01*
X81682094Y-78328937D02*
X81710931Y-77301388D01*
X80882995Y-77079543D02*
X81342959Y-77202790D01*
X81342959Y-77202790D02*
X81265709Y-77675079D01*
X81265709Y-77675079D02*
X81232037Y-77616758D01*
X81232037Y-77616758D02*
X81152369Y-77546112D01*
X81152369Y-77546112D02*
X80922386Y-77484489D01*
X80922386Y-77484489D02*
X80818069Y-77505836D01*
X80818069Y-77505836D02*
X80759748Y-77539507D01*
X80759748Y-77539507D02*
X80689102Y-77619176D01*
X80689102Y-77619176D02*
X80627478Y-77849158D01*
X80627478Y-77849158D02*
X80648825Y-77953476D01*
X80648825Y-77953476D02*
X80682497Y-78011797D01*
X80682497Y-78011797D02*
X80762165Y-78082443D01*
X80762165Y-78082443D02*
X80992147Y-78144066D01*
X80992147Y-78144066D02*
X81096465Y-78122719D01*
X81096465Y-78122719D02*
X81154786Y-78089047D01*
X239237253Y-65682424D02*
X239111589Y-65765395D01*
X239111589Y-65765395D02*
X238881606Y-65827018D01*
X238881606Y-65827018D02*
X238777289Y-65805671D01*
X238777289Y-65805671D02*
X238718968Y-65772000D01*
X238718968Y-65772000D02*
X238648322Y-65692331D01*
X238648322Y-65692331D02*
X238623672Y-65600339D01*
X238623672Y-65600339D02*
X238645019Y-65496021D01*
X238645019Y-65496021D02*
X238678691Y-65437700D01*
X238678691Y-65437700D02*
X238758359Y-65367054D01*
X238758359Y-65367054D02*
X238930020Y-65271758D01*
X238930020Y-65271758D02*
X239009689Y-65201113D01*
X239009689Y-65201113D02*
X239043360Y-65142791D01*
X239043360Y-65142791D02*
X239064707Y-65038474D01*
X239064707Y-65038474D02*
X239040058Y-64946481D01*
X239040058Y-64946481D02*
X238969412Y-64866813D01*
X238969412Y-64866813D02*
X238911091Y-64833141D01*
X238911091Y-64833141D02*
X238806773Y-64811794D01*
X238806773Y-64811794D02*
X238576791Y-64873417D01*
X238576791Y-64873417D02*
X238451126Y-64956388D01*
X238116826Y-64996665D02*
X238145663Y-66024214D01*
X238145663Y-66024214D02*
X237776806Y-65383566D01*
X237776806Y-65383566D02*
X237777691Y-66122812D01*
X237777691Y-66122812D02*
X237288890Y-65218509D01*
X236673776Y-66418605D02*
X237225734Y-66270708D01*
X236949755Y-66344657D02*
X236690936Y-65378731D01*
X236690936Y-65378731D02*
X236819903Y-65492071D01*
X236819903Y-65492071D02*
X236936545Y-65559414D01*
X236936545Y-65559414D02*
X237040863Y-65580761D01*
X235973922Y-66014544D02*
X236053590Y-65943898D01*
X236053590Y-65943898D02*
X236087262Y-65885577D01*
X236087262Y-65885577D02*
X236108609Y-65781259D01*
X236108609Y-65781259D02*
X236096284Y-65735263D01*
X236096284Y-65735263D02*
X236025638Y-65655594D01*
X236025638Y-65655594D02*
X235967317Y-65621923D01*
X235967317Y-65621923D02*
X235862999Y-65600576D01*
X235862999Y-65600576D02*
X235679013Y-65649874D01*
X235679013Y-65649874D02*
X235599345Y-65720520D01*
X235599345Y-65720520D02*
X235565673Y-65778842D01*
X235565673Y-65778842D02*
X235544326Y-65883159D01*
X235544326Y-65883159D02*
X235556651Y-65929156D01*
X235556651Y-65929156D02*
X235627297Y-66008824D01*
X235627297Y-66008824D02*
X235685618Y-66042496D01*
X235685618Y-66042496D02*
X235789936Y-66063843D01*
X235789936Y-66063843D02*
X235973922Y-66014544D01*
X235973922Y-66014544D02*
X236078239Y-66035891D01*
X236078239Y-66035891D02*
X236136561Y-66069563D01*
X236136561Y-66069563D02*
X236207206Y-66149231D01*
X236207206Y-66149231D02*
X236256505Y-66333217D01*
X236256505Y-66333217D02*
X236235158Y-66437534D01*
X236235158Y-66437534D02*
X236201487Y-66495856D01*
X236201487Y-66495856D02*
X236121818Y-66566501D01*
X236121818Y-66566501D02*
X235937832Y-66615800D01*
X235937832Y-66615800D02*
X235833515Y-66594453D01*
X235833515Y-66594453D02*
X235775194Y-66560782D01*
X235775194Y-66560782D02*
X235704548Y-66481113D01*
X235704548Y-66481113D02*
X235655249Y-66297127D01*
X235655249Y-66297127D02*
X235676596Y-66192810D01*
X235676596Y-66192810D02*
X235710268Y-66134489D01*
X235710268Y-66134489D02*
X235789936Y-66063843D01*
X206734965Y-92251830D02*
X206617010Y-92345437D01*
X206617010Y-92345437D02*
X206393274Y-92426870D01*
X206393274Y-92426870D02*
X206287493Y-92414696D01*
X206287493Y-92414696D02*
X206226459Y-92386236D01*
X206226459Y-92386236D02*
X206149138Y-92313028D01*
X206149138Y-92313028D02*
X206116565Y-92223533D01*
X206116565Y-92223533D02*
X206128739Y-92117752D01*
X206128739Y-92117752D02*
X206157199Y-92056718D01*
X206157199Y-92056718D02*
X206230407Y-91979398D01*
X206230407Y-91979398D02*
X206393109Y-91869504D01*
X206393109Y-91869504D02*
X206466317Y-91792183D01*
X206466317Y-91792183D02*
X206494778Y-91731149D01*
X206494778Y-91731149D02*
X206506952Y-91625368D01*
X206506952Y-91625368D02*
X206474378Y-91535873D01*
X206474378Y-91535873D02*
X206397058Y-91462666D01*
X206397058Y-91462666D02*
X206336024Y-91434205D01*
X206336024Y-91434205D02*
X206230243Y-91422031D01*
X206230243Y-91422031D02*
X206006506Y-91503464D01*
X206006506Y-91503464D02*
X205888551Y-91597072D01*
X205559034Y-91666331D02*
X205677317Y-92687457D01*
X205677317Y-92687457D02*
X205254028Y-92081395D01*
X205254028Y-92081395D02*
X205319339Y-92817751D01*
X205319339Y-92817751D02*
X204753583Y-91959491D01*
X204472925Y-92162993D02*
X204411892Y-92134532D01*
X204411892Y-92134532D02*
X204306110Y-92122358D01*
X204306110Y-92122358D02*
X204082374Y-92203791D01*
X204082374Y-92203791D02*
X204009166Y-92281112D01*
X204009166Y-92281112D02*
X203980706Y-92342146D01*
X203980706Y-92342146D02*
X203968532Y-92447927D01*
X203968532Y-92447927D02*
X204001105Y-92537422D01*
X204001105Y-92537422D02*
X204094712Y-92655377D01*
X204094712Y-92655377D02*
X204827120Y-92996904D01*
X204827120Y-92996904D02*
X204245405Y-93208631D01*
X203577980Y-92488726D02*
X203516946Y-92460265D01*
X203516946Y-92460265D02*
X203411165Y-92448091D01*
X203411165Y-92448091D02*
X203187429Y-92529525D01*
X203187429Y-92529525D02*
X203114221Y-92606845D01*
X203114221Y-92606845D02*
X203085760Y-92667879D01*
X203085760Y-92667879D02*
X203073586Y-92773661D01*
X203073586Y-92773661D02*
X203106160Y-92863155D01*
X203106160Y-92863155D02*
X203199767Y-92981110D01*
X203199767Y-92981110D02*
X203932174Y-93322637D01*
X203932174Y-93322637D02*
X203350460Y-93534364D01*
X172463618Y-109125459D02*
X172349858Y-109224123D01*
X172349858Y-109224123D02*
X172129887Y-109315238D01*
X172129887Y-109315238D02*
X172023676Y-109307690D01*
X172023676Y-109307690D02*
X171961458Y-109281918D01*
X171961458Y-109281918D02*
X171881018Y-109212153D01*
X171881018Y-109212153D02*
X171844572Y-109124164D01*
X171844572Y-109124164D02*
X171852120Y-109017953D01*
X171852120Y-109017953D02*
X171877891Y-108955736D01*
X171877891Y-108955736D02*
X171947657Y-108875295D01*
X171947657Y-108875295D02*
X172105411Y-108758409D01*
X172105411Y-108758409D02*
X172175176Y-108677969D01*
X172175176Y-108677969D02*
X172200948Y-108615751D01*
X172200948Y-108615751D02*
X172208496Y-108509540D01*
X172208496Y-108509540D02*
X172172050Y-108421551D01*
X172172050Y-108421551D02*
X172091610Y-108351786D01*
X172091610Y-108351786D02*
X172029392Y-108326014D01*
X172029392Y-108326014D02*
X171923181Y-108318466D01*
X171923181Y-108318466D02*
X171703209Y-108409581D01*
X171703209Y-108409581D02*
X171589450Y-108508245D01*
X171263267Y-108591812D02*
X171425979Y-109606806D01*
X171425979Y-109606806D02*
X170976656Y-109019784D01*
X170976656Y-109019784D02*
X171074025Y-109752590D01*
X171074025Y-109752590D02*
X170471370Y-108919826D01*
X170199856Y-109135376D02*
X170137639Y-109109604D01*
X170137639Y-109109604D02*
X170031427Y-109102056D01*
X170031427Y-109102056D02*
X169811456Y-109193171D01*
X169811456Y-109193171D02*
X169741691Y-109273612D01*
X169741691Y-109273612D02*
X169715919Y-109335829D01*
X169715919Y-109335829D02*
X169708371Y-109442040D01*
X169708371Y-109442040D02*
X169744817Y-109530029D01*
X169744817Y-109530029D02*
X169843481Y-109643789D01*
X169843481Y-109643789D02*
X170590088Y-109953044D01*
X170590088Y-109953044D02*
X170018163Y-110189943D01*
X169271555Y-109880688D02*
X169341321Y-109800248D01*
X169341321Y-109800248D02*
X169367092Y-109738030D01*
X169367092Y-109738030D02*
X169374640Y-109631819D01*
X169374640Y-109631819D02*
X169356417Y-109587825D01*
X169356417Y-109587825D02*
X169275977Y-109518059D01*
X169275977Y-109518059D02*
X169213759Y-109492288D01*
X169213759Y-109492288D02*
X169107548Y-109484740D01*
X169107548Y-109484740D02*
X168931571Y-109557632D01*
X168931571Y-109557632D02*
X168861805Y-109638072D01*
X168861805Y-109638072D02*
X168836034Y-109700289D01*
X168836034Y-109700289D02*
X168828486Y-109806501D01*
X168828486Y-109806501D02*
X168846709Y-109850495D01*
X168846709Y-109850495D02*
X168927149Y-109920261D01*
X168927149Y-109920261D02*
X168989367Y-109946032D01*
X168989367Y-109946032D02*
X169095578Y-109953580D01*
X169095578Y-109953580D02*
X169271555Y-109880688D01*
X169271555Y-109880688D02*
X169377767Y-109888236D01*
X169377767Y-109888236D02*
X169439984Y-109914007D01*
X169439984Y-109914007D02*
X169520424Y-109983773D01*
X169520424Y-109983773D02*
X169593316Y-110159750D01*
X169593316Y-110159750D02*
X169585768Y-110265962D01*
X169585768Y-110265962D02*
X169559997Y-110328179D01*
X169559997Y-110328179D02*
X169490231Y-110408619D01*
X169490231Y-110408619D02*
X169314254Y-110481511D01*
X169314254Y-110481511D02*
X169208043Y-110473963D01*
X169208043Y-110473963D02*
X169145825Y-110448192D01*
X169145825Y-110448192D02*
X169065385Y-110378426D01*
X169065385Y-110378426D02*
X168992493Y-110202449D01*
X168992493Y-110202449D02*
X169000041Y-110096238D01*
X169000041Y-110096238D02*
X169025813Y-110034020D01*
X169025813Y-110034020D02*
X169095578Y-109953580D01*
X86054653Y-97410599D02*
X86396673Y-96470906D01*
X85961375Y-96413821D02*
X85932914Y-96352787D01*
X85932914Y-96352787D02*
X85859707Y-96275467D01*
X85859707Y-96275467D02*
X85635970Y-96194033D01*
X85635970Y-96194033D02*
X85530189Y-96206207D01*
X85530189Y-96206207D02*
X85469155Y-96234668D01*
X85469155Y-96234668D02*
X85391835Y-96307876D01*
X85391835Y-96307876D02*
X85359261Y-96397370D01*
X85359261Y-96397370D02*
X85355148Y-96547899D01*
X85355148Y-96547899D02*
X85696676Y-97280306D01*
X85696676Y-97280306D02*
X85114961Y-97068579D01*
X121050193Y-91536946D02*
X120899987Y-91526271D01*
X120899987Y-91526271D02*
X120680016Y-91435156D01*
X120680016Y-91435156D02*
X120610250Y-91354716D01*
X120610250Y-91354716D02*
X120584479Y-91292499D01*
X120584479Y-91292499D02*
X120576931Y-91186287D01*
X120576931Y-91186287D02*
X120613377Y-91098298D01*
X120613377Y-91098298D02*
X120693817Y-91028533D01*
X120693817Y-91028533D02*
X120756034Y-91002762D01*
X120756034Y-91002762D02*
X120862246Y-90995213D01*
X120862246Y-90995213D02*
X121056446Y-91024111D01*
X121056446Y-91024111D02*
X121162658Y-91016563D01*
X121162658Y-91016563D02*
X121224875Y-90990792D01*
X121224875Y-90990792D02*
X121305315Y-90921026D01*
X121305315Y-90921026D02*
X121341761Y-90833038D01*
X121341761Y-90833038D02*
X121334213Y-90726826D01*
X121334213Y-90726826D02*
X121308442Y-90664609D01*
X121308442Y-90664609D02*
X121238676Y-90584169D01*
X121238676Y-90584169D02*
X121018705Y-90493054D01*
X121018705Y-90493054D02*
X120868499Y-90482379D01*
X120578762Y-90310823D02*
X119976107Y-91143588D01*
X119976107Y-91143588D02*
X120073476Y-90410782D01*
X120073476Y-90410782D02*
X119624153Y-90997804D01*
X119624153Y-90997804D02*
X119786865Y-89982809D01*
X118568291Y-90560451D02*
X119096222Y-90779127D01*
X118832257Y-90669789D02*
X119214940Y-89745910D01*
X119214940Y-89745910D02*
X119248260Y-89914339D01*
X119248260Y-89914339D02*
X119299802Y-90038773D01*
X119299802Y-90038773D02*
X119369568Y-90119213D01*
X117688406Y-90195991D02*
X118216337Y-90414667D01*
X117952371Y-90305329D02*
X118335055Y-89381449D01*
X118335055Y-89381449D02*
X118368374Y-89549878D01*
X118368374Y-89549878D02*
X118419917Y-89674313D01*
X118419917Y-89674313D02*
X118489682Y-89754753D01*
X165192626Y-91571741D02*
X165078866Y-91670405D01*
X165078866Y-91670405D02*
X164858895Y-91761520D01*
X164858895Y-91761520D02*
X164752684Y-91753972D01*
X164752684Y-91753972D02*
X164690466Y-91728200D01*
X164690466Y-91728200D02*
X164610026Y-91658435D01*
X164610026Y-91658435D02*
X164573580Y-91570446D01*
X164573580Y-91570446D02*
X164581128Y-91464235D01*
X164581128Y-91464235D02*
X164606899Y-91402018D01*
X164606899Y-91402018D02*
X164676665Y-91321577D01*
X164676665Y-91321577D02*
X164834419Y-91204691D01*
X164834419Y-91204691D02*
X164904184Y-91124251D01*
X164904184Y-91124251D02*
X164929956Y-91062033D01*
X164929956Y-91062033D02*
X164937504Y-90955822D01*
X164937504Y-90955822D02*
X164901058Y-90867833D01*
X164901058Y-90867833D02*
X164820618Y-90798068D01*
X164820618Y-90798068D02*
X164758400Y-90772296D01*
X164758400Y-90772296D02*
X164652189Y-90764748D01*
X164652189Y-90764748D02*
X164432217Y-90855863D01*
X164432217Y-90855863D02*
X164318458Y-90954527D01*
X163992275Y-91038094D02*
X164154987Y-92053088D01*
X164154987Y-92053088D02*
X163705664Y-91466066D01*
X163705664Y-91466066D02*
X163803033Y-92198872D01*
X163803033Y-92198872D02*
X163200378Y-91366108D01*
X162928864Y-91581658D02*
X162866647Y-91555886D01*
X162866647Y-91555886D02*
X162760435Y-91548338D01*
X162760435Y-91548338D02*
X162540464Y-91639453D01*
X162540464Y-91639453D02*
X162470699Y-91719894D01*
X162470699Y-91719894D02*
X162444927Y-91782111D01*
X162444927Y-91782111D02*
X162437379Y-91888322D01*
X162437379Y-91888322D02*
X162473825Y-91976311D01*
X162473825Y-91976311D02*
X162572489Y-92090071D01*
X162572489Y-92090071D02*
X163319096Y-92399326D01*
X163319096Y-92399326D02*
X162747171Y-92636225D01*
X162307228Y-92818455D02*
X162131251Y-92891347D01*
X162131251Y-92891347D02*
X162025039Y-92883799D01*
X162025039Y-92883799D02*
X161962822Y-92858028D01*
X161962822Y-92858028D02*
X161820164Y-92762491D01*
X161820164Y-92762491D02*
X161703278Y-92604737D01*
X161703278Y-92604737D02*
X161557494Y-92252783D01*
X161557494Y-92252783D02*
X161565042Y-92146571D01*
X161565042Y-92146571D02*
X161590813Y-92084354D01*
X161590813Y-92084354D02*
X161660579Y-92003914D01*
X161660579Y-92003914D02*
X161836556Y-91931022D01*
X161836556Y-91931022D02*
X161942767Y-91938570D01*
X161942767Y-91938570D02*
X162004985Y-91964341D01*
X162004985Y-91964341D02*
X162085425Y-92034107D01*
X162085425Y-92034107D02*
X162176540Y-92254078D01*
X162176540Y-92254078D02*
X162168992Y-92360289D01*
X162168992Y-92360289D02*
X162143221Y-92422507D01*
X162143221Y-92422507D02*
X162073455Y-92502947D01*
X162073455Y-92502947D02*
X161897478Y-92575839D01*
X161897478Y-92575839D02*
X161791267Y-92568291D01*
X161791267Y-92568291D02*
X161729049Y-92542520D01*
X161729049Y-92542520D02*
X161648609Y-92472754D01*
X245604863Y-86364348D02*
X245472445Y-86436050D01*
X245472445Y-86436050D02*
X245237967Y-86477395D01*
X245237967Y-86477395D02*
X245135907Y-86447037D01*
X245135907Y-86447037D02*
X245080742Y-86408411D01*
X245080742Y-86408411D02*
X245017309Y-86322888D01*
X245017309Y-86322888D02*
X245000771Y-86229097D01*
X245000771Y-86229097D02*
X245031129Y-86127037D01*
X245031129Y-86127037D02*
X245069755Y-86071872D01*
X245069755Y-86071872D02*
X245155278Y-86008439D01*
X245155278Y-86008439D02*
X245334591Y-85928467D01*
X245334591Y-85928467D02*
X245420113Y-85865034D01*
X245420113Y-85865034D02*
X245458740Y-85809869D01*
X245458740Y-85809869D02*
X245489098Y-85707809D01*
X245489098Y-85707809D02*
X245472560Y-85614018D01*
X245472560Y-85614018D02*
X245409126Y-85528496D01*
X245409126Y-85528496D02*
X245353962Y-85489869D01*
X245353962Y-85489869D02*
X245251901Y-85459511D01*
X245251901Y-85459511D02*
X245017423Y-85500856D01*
X245017423Y-85500856D02*
X244885006Y-85572559D01*
X244548467Y-85583546D02*
X244487637Y-86609698D01*
X244487637Y-86609698D02*
X244176021Y-85939340D01*
X244176021Y-85939340D02*
X244112473Y-86675850D01*
X244112473Y-86675850D02*
X243704346Y-85732387D01*
X242986978Y-86874305D02*
X243549725Y-86775078D01*
X243268352Y-86824691D02*
X243094704Y-85839884D01*
X243094704Y-85839884D02*
X243213302Y-85964032D01*
X243213302Y-85964032D02*
X243323631Y-86041286D01*
X243323631Y-86041286D02*
X243425691Y-86071643D01*
X242485061Y-85947380D02*
X241828522Y-86063146D01*
X241828522Y-86063146D02*
X242424231Y-86973533D01*
X174407136Y-117301704D02*
X174024453Y-116377824D01*
X173188562Y-116724061D02*
X173364539Y-116651169D01*
X173364539Y-116651169D02*
X173470751Y-116658717D01*
X173470751Y-116658717D02*
X173532968Y-116684489D01*
X173532968Y-116684489D02*
X173675626Y-116780025D01*
X173675626Y-116780025D02*
X173792512Y-116937779D01*
X173792512Y-116937779D02*
X173938296Y-117289734D01*
X173938296Y-117289734D02*
X173930748Y-117395945D01*
X173930748Y-117395945D02*
X173904977Y-117458162D01*
X173904977Y-117458162D02*
X173835211Y-117538603D01*
X173835211Y-117538603D02*
X173659234Y-117611495D01*
X173659234Y-117611495D02*
X173553023Y-117603947D01*
X173553023Y-117603947D02*
X173490805Y-117578175D01*
X173490805Y-117578175D02*
X173410365Y-117508410D01*
X173410365Y-117508410D02*
X173319250Y-117288438D01*
X173319250Y-117288438D02*
X173326798Y-117182227D01*
X173326798Y-117182227D02*
X173352569Y-117120010D01*
X173352569Y-117120010D02*
X173422335Y-117039569D01*
X173422335Y-117039569D02*
X173598312Y-116966677D01*
X173598312Y-116966677D02*
X173704523Y-116974225D01*
X173704523Y-116974225D02*
X173766741Y-116999997D01*
X173766741Y-116999997D02*
X173847181Y-117069762D01*
X228523340Y-104576468D02*
X228264521Y-103610542D01*
X227476862Y-104166687D02*
X227649408Y-104810637D01*
X227608246Y-103737092D02*
X228023100Y-104365415D01*
X228023100Y-104365415D02*
X227425145Y-104525636D01*
X248904167Y-105075686D02*
X248771749Y-105147388D01*
X248771749Y-105147388D02*
X248537271Y-105188733D01*
X248537271Y-105188733D02*
X248435211Y-105158375D01*
X248435211Y-105158375D02*
X248380046Y-105119749D01*
X248380046Y-105119749D02*
X248316613Y-105034226D01*
X248316613Y-105034226D02*
X248300075Y-104940435D01*
X248300075Y-104940435D02*
X248330433Y-104838375D01*
X248330433Y-104838375D02*
X248369059Y-104783210D01*
X248369059Y-104783210D02*
X248454582Y-104719777D01*
X248454582Y-104719777D02*
X248633895Y-104639805D01*
X248633895Y-104639805D02*
X248719417Y-104576372D01*
X248719417Y-104576372D02*
X248758044Y-104521207D01*
X248758044Y-104521207D02*
X248788402Y-104419147D01*
X248788402Y-104419147D02*
X248771864Y-104325356D01*
X248771864Y-104325356D02*
X248708430Y-104239834D01*
X248708430Y-104239834D02*
X248653266Y-104201207D01*
X248653266Y-104201207D02*
X248551205Y-104170849D01*
X248551205Y-104170849D02*
X248316727Y-104212194D01*
X248316727Y-104212194D02*
X248184310Y-104283897D01*
X247847771Y-104294884D02*
X247786941Y-105321036D01*
X247786941Y-105321036D02*
X247475325Y-104650678D01*
X247475325Y-104650678D02*
X247411777Y-105387188D01*
X247411777Y-105387188D02*
X247003650Y-104443725D01*
X246286282Y-105585643D02*
X246849029Y-105486416D01*
X246567656Y-105536029D02*
X246394008Y-104551222D01*
X246394008Y-104551222D02*
X246512606Y-104675370D01*
X246512606Y-104675370D02*
X246622935Y-104752624D01*
X246622935Y-104752624D02*
X246724995Y-104782981D01*
X245268513Y-104749677D02*
X245456095Y-104716601D01*
X245456095Y-104716601D02*
X245558156Y-104746958D01*
X245558156Y-104746958D02*
X245613320Y-104785585D01*
X245613320Y-104785585D02*
X245731918Y-104909734D01*
X245731918Y-104909734D02*
X245811890Y-105089048D01*
X245811890Y-105089048D02*
X245878041Y-105464212D01*
X245878041Y-105464212D02*
X245847684Y-105566273D01*
X245847684Y-105566273D02*
X245809057Y-105621437D01*
X245809057Y-105621437D02*
X245723535Y-105684871D01*
X245723535Y-105684871D02*
X245535952Y-105717946D01*
X245535952Y-105717946D02*
X245433892Y-105687589D01*
X245433892Y-105687589D02*
X245378728Y-105648962D01*
X245378728Y-105648962D02*
X245315294Y-105563440D01*
X245315294Y-105563440D02*
X245273949Y-105328962D01*
X245273949Y-105328962D02*
X245304307Y-105226902D01*
X245304307Y-105226902D02*
X245342934Y-105171737D01*
X245342934Y-105171737D02*
X245428456Y-105108304D01*
X245428456Y-105108304D02*
X245616038Y-105075228D01*
X245616038Y-105075228D02*
X245718099Y-105105585D01*
X245718099Y-105105585D02*
X245773263Y-105144212D01*
X245773263Y-105144212D02*
X245836697Y-105229734D01*
X177899019Y-72598281D02*
X177785259Y-72696945D01*
X177785259Y-72696945D02*
X177565288Y-72788060D01*
X177565288Y-72788060D02*
X177459077Y-72780512D01*
X177459077Y-72780512D02*
X177396859Y-72754740D01*
X177396859Y-72754740D02*
X177316419Y-72684975D01*
X177316419Y-72684975D02*
X177279973Y-72596986D01*
X177279973Y-72596986D02*
X177287521Y-72490775D01*
X177287521Y-72490775D02*
X177313292Y-72428558D01*
X177313292Y-72428558D02*
X177383058Y-72348117D01*
X177383058Y-72348117D02*
X177540812Y-72231231D01*
X177540812Y-72231231D02*
X177610577Y-72150791D01*
X177610577Y-72150791D02*
X177636349Y-72088573D01*
X177636349Y-72088573D02*
X177643897Y-71982362D01*
X177643897Y-71982362D02*
X177607451Y-71894373D01*
X177607451Y-71894373D02*
X177527011Y-71824608D01*
X177527011Y-71824608D02*
X177464793Y-71798836D01*
X177464793Y-71798836D02*
X177358582Y-71791288D01*
X177358582Y-71791288D02*
X177138610Y-71882403D01*
X177138610Y-71882403D02*
X177024851Y-71981067D01*
X176698668Y-72064634D02*
X176861380Y-73079628D01*
X176861380Y-73079628D02*
X176412057Y-72492606D01*
X176412057Y-72492606D02*
X176509426Y-73225412D01*
X176509426Y-73225412D02*
X175906771Y-72392648D01*
X175635257Y-72608198D02*
X175573040Y-72582426D01*
X175573040Y-72582426D02*
X175466828Y-72574878D01*
X175466828Y-72574878D02*
X175246857Y-72665993D01*
X175246857Y-72665993D02*
X175177092Y-72746434D01*
X175177092Y-72746434D02*
X175151320Y-72808651D01*
X175151320Y-72808651D02*
X175143772Y-72914862D01*
X175143772Y-72914862D02*
X175180218Y-73002851D01*
X175180218Y-73002851D02*
X175278882Y-73116611D01*
X175278882Y-73116611D02*
X176025489Y-73425866D01*
X176025489Y-73425866D02*
X175453564Y-73662765D01*
X174762920Y-72866446D02*
X174147001Y-73121569D01*
X174147001Y-73121569D02*
X174925632Y-73881441D01*
X57067571Y-105621441D02*
X56918616Y-105643530D01*
X56918616Y-105643530D02*
X56684138Y-105602185D01*
X56684138Y-105602185D02*
X56598615Y-105538751D01*
X56598615Y-105538751D02*
X56559989Y-105483587D01*
X56559989Y-105483587D02*
X56529631Y-105381527D01*
X56529631Y-105381527D02*
X56546169Y-105287735D01*
X56546169Y-105287735D02*
X56609602Y-105202213D01*
X56609602Y-105202213D02*
X56664767Y-105163587D01*
X56664767Y-105163587D02*
X56766827Y-105133229D01*
X56766827Y-105133229D02*
X56962679Y-105119409D01*
X56962679Y-105119409D02*
X57064739Y-105089051D01*
X57064739Y-105089051D02*
X57119903Y-105050425D01*
X57119903Y-105050425D02*
X57183337Y-104964903D01*
X57183337Y-104964903D02*
X57199875Y-104871111D01*
X57199875Y-104871111D02*
X57169517Y-104769051D01*
X57169517Y-104769051D02*
X57130890Y-104713887D01*
X57130890Y-104713887D02*
X57045368Y-104650453D01*
X57045368Y-104650453D02*
X56810890Y-104609108D01*
X56810890Y-104609108D02*
X56661934Y-104631197D01*
X56341934Y-104526419D02*
X55933808Y-105469882D01*
X55933808Y-105469882D02*
X55870260Y-104733372D01*
X55870260Y-104733372D02*
X55558643Y-105403730D01*
X55558643Y-105403730D02*
X55497813Y-104377577D01*
X54433149Y-105205275D02*
X54995896Y-105304502D01*
X54714522Y-105254889D02*
X54888170Y-104270081D01*
X54888170Y-104270081D02*
X54957155Y-104427306D01*
X54957155Y-104427306D02*
X55034408Y-104537635D01*
X55034408Y-104537635D02*
X55119930Y-104601068D01*
X113779209Y-109090663D02*
X113629003Y-109079988D01*
X113629003Y-109079988D02*
X113409032Y-108988873D01*
X113409032Y-108988873D02*
X113339266Y-108908433D01*
X113339266Y-108908433D02*
X113313495Y-108846216D01*
X113313495Y-108846216D02*
X113305947Y-108740004D01*
X113305947Y-108740004D02*
X113342393Y-108652015D01*
X113342393Y-108652015D02*
X113422833Y-108582250D01*
X113422833Y-108582250D02*
X113485050Y-108556479D01*
X113485050Y-108556479D02*
X113591262Y-108548930D01*
X113591262Y-108548930D02*
X113785462Y-108577828D01*
X113785462Y-108577828D02*
X113891674Y-108570280D01*
X113891674Y-108570280D02*
X113953891Y-108544509D01*
X113953891Y-108544509D02*
X114034331Y-108474743D01*
X114034331Y-108474743D02*
X114070777Y-108386755D01*
X114070777Y-108386755D02*
X114063229Y-108280543D01*
X114063229Y-108280543D02*
X114037458Y-108218326D01*
X114037458Y-108218326D02*
X113967692Y-108137886D01*
X113967692Y-108137886D02*
X113747721Y-108046771D01*
X113747721Y-108046771D02*
X113597515Y-108036096D01*
X113307778Y-107864540D02*
X112705123Y-108697305D01*
X112705123Y-108697305D02*
X112802492Y-107964499D01*
X112802492Y-107964499D02*
X112353169Y-108551521D01*
X112353169Y-108551521D02*
X112515881Y-107536526D01*
X111297307Y-108114168D02*
X111825238Y-108332844D01*
X111561273Y-108223506D02*
X111943956Y-107299627D01*
X111943956Y-107299627D02*
X111977276Y-107468056D01*
X111977276Y-107468056D02*
X112028818Y-107592490D01*
X112028818Y-107592490D02*
X112098584Y-107672930D01*
X111108065Y-106953389D02*
X111020077Y-106916943D01*
X111020077Y-106916943D02*
X110913865Y-106924492D01*
X110913865Y-106924492D02*
X110851648Y-106950263D01*
X110851648Y-106950263D02*
X110771207Y-107020028D01*
X110771207Y-107020028D02*
X110654321Y-107177782D01*
X110654321Y-107177782D02*
X110563206Y-107397754D01*
X110563206Y-107397754D02*
X110534308Y-107591954D01*
X110534308Y-107591954D02*
X110541856Y-107698165D01*
X110541856Y-107698165D02*
X110567628Y-107760383D01*
X110567628Y-107760383D02*
X110637393Y-107840823D01*
X110637393Y-107840823D02*
X110725382Y-107877269D01*
X110725382Y-107877269D02*
X110831593Y-107869721D01*
X110831593Y-107869721D02*
X110893810Y-107843949D01*
X110893810Y-107843949D02*
X110974251Y-107774184D01*
X110974251Y-107774184D02*
X111091137Y-107616430D01*
X111091137Y-107616430D02*
X111182252Y-107396459D01*
X111182252Y-107396459D02*
X111211150Y-107202258D01*
X111211150Y-107202258D02*
X111203602Y-107096047D01*
X111203602Y-107096047D02*
X111177831Y-107033830D01*
X111177831Y-107033830D02*
X111108065Y-106953389D01*
X172884287Y-141871855D02*
X172811132Y-142003477D01*
X172811132Y-142003477D02*
X172635590Y-142164331D01*
X172635590Y-142164331D02*
X172533202Y-142193565D01*
X172533202Y-142193565D02*
X172465923Y-142190627D01*
X172465923Y-142190627D02*
X172366473Y-142152581D01*
X172366473Y-142152581D02*
X172302131Y-142082365D01*
X172302131Y-142082365D02*
X172272897Y-141979977D01*
X172272897Y-141979977D02*
X172275835Y-141912697D01*
X172275835Y-141912697D02*
X172313881Y-141813247D01*
X172313881Y-141813247D02*
X172422143Y-141649455D01*
X172422143Y-141649455D02*
X172460189Y-141550004D01*
X172460189Y-141550004D02*
X172463127Y-141482725D01*
X172463127Y-141482725D02*
X172433893Y-141380337D01*
X172433893Y-141380337D02*
X172369551Y-141310120D01*
X172369551Y-141310120D02*
X172270101Y-141272074D01*
X172270101Y-141272074D02*
X172202822Y-141269137D01*
X172202822Y-141269137D02*
X172100434Y-141298370D01*
X172100434Y-141298370D02*
X171924891Y-141459225D01*
X171924891Y-141459225D02*
X171851737Y-141590846D01*
X171573807Y-141780935D02*
X172073855Y-142679067D01*
X172073855Y-142679067D02*
X171450857Y-142281124D01*
X171450857Y-142281124D02*
X171792987Y-142936435D01*
X171792987Y-142936435D02*
X170941855Y-142360012D01*
X170731204Y-142553038D02*
X170274795Y-142971260D01*
X170274795Y-142971260D02*
X170777921Y-143026931D01*
X170777921Y-143026931D02*
X170672596Y-143123444D01*
X170672596Y-143123444D02*
X170634550Y-143222894D01*
X170634550Y-143222894D02*
X170631613Y-143290174D01*
X170631613Y-143290174D02*
X170660846Y-143392562D01*
X170660846Y-143392562D02*
X170821701Y-143568104D01*
X170821701Y-143568104D02*
X170921151Y-143606150D01*
X170921151Y-143606150D02*
X170988431Y-143609087D01*
X170988431Y-143609087D02*
X171090819Y-143579854D01*
X171090819Y-143579854D02*
X171301469Y-143386828D01*
X171301469Y-143386828D02*
X171339515Y-143287378D01*
X171339515Y-143287378D02*
X171342453Y-143220098D01*
X169818385Y-143389483D02*
X169748168Y-143453825D01*
X169748168Y-143453825D02*
X169710122Y-143553275D01*
X169710122Y-143553275D02*
X169707185Y-143620554D01*
X169707185Y-143620554D02*
X169736418Y-143722942D01*
X169736418Y-143722942D02*
X169829993Y-143895547D01*
X169829993Y-143895547D02*
X169990848Y-144071089D01*
X169990848Y-144071089D02*
X170154641Y-144179352D01*
X170154641Y-144179352D02*
X170254091Y-144217398D01*
X170254091Y-144217398D02*
X170321370Y-144220335D01*
X170321370Y-144220335D02*
X170423758Y-144191102D01*
X170423758Y-144191102D02*
X170493975Y-144126760D01*
X170493975Y-144126760D02*
X170532021Y-144027310D01*
X170532021Y-144027310D02*
X170534958Y-143960030D01*
X170534958Y-143960030D02*
X170505725Y-143857642D01*
X170505725Y-143857642D02*
X170412150Y-143685038D01*
X170412150Y-143685038D02*
X170251295Y-143509495D01*
X170251295Y-143509495D02*
X170087502Y-143401233D01*
X170087502Y-143401233D02*
X169988052Y-143363187D01*
X169988052Y-143363187D02*
X169920773Y-143360249D01*
X169920773Y-143360249D02*
X169818385Y-143389483D01*
X78248737Y-97029925D02*
X78098423Y-97038948D01*
X78098423Y-97038948D02*
X77868441Y-96977324D01*
X77868441Y-96977324D02*
X77788772Y-96906678D01*
X77788772Y-96906678D02*
X77755101Y-96848357D01*
X77755101Y-96848357D02*
X77733754Y-96744039D01*
X77733754Y-96744039D02*
X77758403Y-96652046D01*
X77758403Y-96652046D02*
X77829049Y-96572378D01*
X77829049Y-96572378D02*
X77887370Y-96538707D01*
X77887370Y-96538707D02*
X77991688Y-96517359D01*
X77991688Y-96517359D02*
X78187998Y-96520662D01*
X78187998Y-96520662D02*
X78292316Y-96499315D01*
X78292316Y-96499315D02*
X78350637Y-96465643D01*
X78350637Y-96465643D02*
X78421283Y-96385975D01*
X78421283Y-96385975D02*
X78445932Y-96293982D01*
X78445932Y-96293982D02*
X78424585Y-96189664D01*
X78424585Y-96189664D02*
X78390914Y-96131343D01*
X78390914Y-96131343D02*
X78311245Y-96060697D01*
X78311245Y-96060697D02*
X78081263Y-95999074D01*
X78081263Y-95999074D02*
X77930949Y-96008096D01*
X77621298Y-95875826D02*
X77132497Y-96780129D01*
X77132497Y-96780129D02*
X77133382Y-96040883D01*
X77133382Y-96040883D02*
X76764525Y-96681531D01*
X76764525Y-96681531D02*
X76793362Y-95653982D01*
X75925149Y-95766437D02*
X75752603Y-96410387D01*
X76253729Y-95460089D02*
X76298841Y-96211659D01*
X76298841Y-96211659D02*
X75700887Y-96051438D01*
X227663664Y-96216488D02*
X227538000Y-96299459D01*
X227538000Y-96299459D02*
X227308017Y-96361082D01*
X227308017Y-96361082D02*
X227203700Y-96339735D01*
X227203700Y-96339735D02*
X227145379Y-96306064D01*
X227145379Y-96306064D02*
X227074733Y-96226395D01*
X227074733Y-96226395D02*
X227050083Y-96134403D01*
X227050083Y-96134403D02*
X227071430Y-96030085D01*
X227071430Y-96030085D02*
X227105102Y-95971764D01*
X227105102Y-95971764D02*
X227184770Y-95901118D01*
X227184770Y-95901118D02*
X227356431Y-95805822D01*
X227356431Y-95805822D02*
X227436100Y-95735177D01*
X227436100Y-95735177D02*
X227469771Y-95676855D01*
X227469771Y-95676855D02*
X227491118Y-95572538D01*
X227491118Y-95572538D02*
X227466469Y-95480545D01*
X227466469Y-95480545D02*
X227395823Y-95400877D01*
X227395823Y-95400877D02*
X227337502Y-95367205D01*
X227337502Y-95367205D02*
X227233184Y-95345858D01*
X227233184Y-95345858D02*
X227003202Y-95407481D01*
X227003202Y-95407481D02*
X226877537Y-95490452D01*
X226543237Y-95530729D02*
X226572074Y-96558278D01*
X226572074Y-96558278D02*
X226203217Y-95917630D01*
X226203217Y-95917630D02*
X226204102Y-96656876D01*
X226204102Y-96656876D02*
X225715301Y-95752573D01*
X225100187Y-96952669D02*
X225652145Y-96804772D01*
X225376166Y-96878721D02*
X225117347Y-95912795D01*
X225117347Y-95912795D02*
X225246314Y-96026135D01*
X225246314Y-96026135D02*
X225362956Y-96093478D01*
X225362956Y-96093478D02*
X225467274Y-96114825D01*
X224640222Y-97075916D02*
X224456236Y-97125215D01*
X224456236Y-97125215D02*
X224351919Y-97103868D01*
X224351919Y-97103868D02*
X224293598Y-97070196D01*
X224293598Y-97070196D02*
X224164630Y-96956856D01*
X224164630Y-96956856D02*
X224069335Y-96785195D01*
X224069335Y-96785195D02*
X223970737Y-96417223D01*
X223970737Y-96417223D02*
X223992084Y-96312906D01*
X223992084Y-96312906D02*
X224025756Y-96254584D01*
X224025756Y-96254584D02*
X224105424Y-96183938D01*
X224105424Y-96183938D02*
X224289410Y-96134640D01*
X224289410Y-96134640D02*
X224393728Y-96155987D01*
X224393728Y-96155987D02*
X224452049Y-96189658D01*
X224452049Y-96189658D02*
X224522695Y-96269327D01*
X224522695Y-96269327D02*
X224584319Y-96499309D01*
X224584319Y-96499309D02*
X224562972Y-96603627D01*
X224562972Y-96603627D02*
X224529300Y-96661948D01*
X224529300Y-96661948D02*
X224449632Y-96732594D01*
X224449632Y-96732594D02*
X224265646Y-96781893D01*
X224265646Y-96781893D02*
X224161328Y-96760546D01*
X224161328Y-96760546D02*
X224103007Y-96726874D01*
X224103007Y-96726874D02*
X224032361Y-96647206D01*
X228038690Y-101755799D02*
X227779871Y-100789873D01*
X227779871Y-100789873D02*
X227549889Y-100851497D01*
X227549889Y-100851497D02*
X227424224Y-100934467D01*
X227424224Y-100934467D02*
X227356881Y-101051110D01*
X227356881Y-101051110D02*
X227335534Y-101155427D01*
X227335534Y-101155427D02*
X227338836Y-101351738D01*
X227338836Y-101351738D02*
X227375810Y-101489727D01*
X227375810Y-101489727D02*
X227471105Y-101661389D01*
X227471105Y-101661389D02*
X227541751Y-101741057D01*
X227541751Y-101741057D02*
X227658394Y-101808400D01*
X227658394Y-101808400D02*
X227808708Y-101817423D01*
X227808708Y-101817423D02*
X228038690Y-101755799D01*
X226486250Y-101481590D02*
X226658796Y-102125540D01*
X226617635Y-101051995D02*
X227032488Y-101680318D01*
X227032488Y-101680318D02*
X226434534Y-101840539D01*
X200236583Y-74397676D02*
X200118628Y-74491283D01*
X200118628Y-74491283D02*
X199894892Y-74572716D01*
X199894892Y-74572716D02*
X199789111Y-74560542D01*
X199789111Y-74560542D02*
X199728077Y-74532082D01*
X199728077Y-74532082D02*
X199650756Y-74458874D01*
X199650756Y-74458874D02*
X199618183Y-74369379D01*
X199618183Y-74369379D02*
X199630357Y-74263598D01*
X199630357Y-74263598D02*
X199658817Y-74202564D01*
X199658817Y-74202564D02*
X199732025Y-74125244D01*
X199732025Y-74125244D02*
X199894727Y-74015350D01*
X199894727Y-74015350D02*
X199967935Y-73938029D01*
X199967935Y-73938029D02*
X199996396Y-73876995D01*
X199996396Y-73876995D02*
X200008570Y-73771214D01*
X200008570Y-73771214D02*
X199975996Y-73681719D01*
X199975996Y-73681719D02*
X199898676Y-73608512D01*
X199898676Y-73608512D02*
X199837642Y-73580051D01*
X199837642Y-73580051D02*
X199731861Y-73567877D01*
X199731861Y-73567877D02*
X199508124Y-73649310D01*
X199508124Y-73649310D02*
X199390169Y-73742918D01*
X199060652Y-73812177D02*
X199178935Y-74833303D01*
X199178935Y-74833303D02*
X198755646Y-74227241D01*
X198755646Y-74227241D02*
X198820957Y-74963597D01*
X198820957Y-74963597D02*
X198255201Y-74105337D01*
X197974543Y-74308839D02*
X197913510Y-74280378D01*
X197913510Y-74280378D02*
X197807728Y-74268204D01*
X197807728Y-74268204D02*
X197583992Y-74349637D01*
X197583992Y-74349637D02*
X197510784Y-74426958D01*
X197510784Y-74426958D02*
X197482324Y-74487992D01*
X197482324Y-74487992D02*
X197470150Y-74593773D01*
X197470150Y-74593773D02*
X197502723Y-74683268D01*
X197502723Y-74683268D02*
X197596330Y-74801223D01*
X197596330Y-74801223D02*
X198328738Y-75142750D01*
X198328738Y-75142750D02*
X197747023Y-75354477D01*
X197091772Y-74528791D02*
X196510058Y-74740518D01*
X196510058Y-74740518D02*
X196953582Y-74984489D01*
X196953582Y-74984489D02*
X196819340Y-75033349D01*
X196819340Y-75033349D02*
X196746132Y-75110670D01*
X196746132Y-75110670D02*
X196717672Y-75171704D01*
X196717672Y-75171704D02*
X196705498Y-75277485D01*
X196705498Y-75277485D02*
X196786931Y-75501221D01*
X196786931Y-75501221D02*
X196864252Y-75574429D01*
X196864252Y-75574429D02*
X196925286Y-75602890D01*
X196925286Y-75602890D02*
X197031067Y-75615063D01*
X197031067Y-75615063D02*
X197299550Y-75517343D01*
X197299550Y-75517343D02*
X197372758Y-75440023D01*
X197372758Y-75440023D02*
X197401219Y-75378989D01*
X193738198Y-56543511D02*
X193620243Y-56637118D01*
X193620243Y-56637118D02*
X193396507Y-56718551D01*
X193396507Y-56718551D02*
X193290726Y-56706377D01*
X193290726Y-56706377D02*
X193229692Y-56677917D01*
X193229692Y-56677917D02*
X193152371Y-56604709D01*
X193152371Y-56604709D02*
X193119798Y-56515214D01*
X193119798Y-56515214D02*
X193131972Y-56409433D01*
X193131972Y-56409433D02*
X193160432Y-56348399D01*
X193160432Y-56348399D02*
X193233640Y-56271079D01*
X193233640Y-56271079D02*
X193396342Y-56161185D01*
X193396342Y-56161185D02*
X193469550Y-56083864D01*
X193469550Y-56083864D02*
X193498011Y-56022830D01*
X193498011Y-56022830D02*
X193510185Y-55917049D01*
X193510185Y-55917049D02*
X193477611Y-55827554D01*
X193477611Y-55827554D02*
X193400291Y-55754347D01*
X193400291Y-55754347D02*
X193339257Y-55725886D01*
X193339257Y-55725886D02*
X193233476Y-55713712D01*
X193233476Y-55713712D02*
X193009739Y-55795145D01*
X193009739Y-55795145D02*
X192891784Y-55888753D01*
X192562267Y-55958012D02*
X192680550Y-56979138D01*
X192680550Y-56979138D02*
X192257261Y-56373076D01*
X192257261Y-56373076D02*
X192322572Y-57109432D01*
X192322572Y-57109432D02*
X191756816Y-56251172D01*
X191476158Y-56454674D02*
X191415125Y-56426213D01*
X191415125Y-56426213D02*
X191309343Y-56414039D01*
X191309343Y-56414039D02*
X191085607Y-56495472D01*
X191085607Y-56495472D02*
X191012399Y-56572793D01*
X191012399Y-56572793D02*
X190983939Y-56633827D01*
X190983939Y-56633827D02*
X190971765Y-56739608D01*
X190971765Y-56739608D02*
X191004338Y-56829103D01*
X191004338Y-56829103D02*
X191097945Y-56947058D01*
X191097945Y-56947058D02*
X191830353Y-57288585D01*
X191830353Y-57288585D02*
X191248638Y-57500312D01*
X190215174Y-57167010D02*
X190443187Y-57793472D01*
X190308617Y-56727599D02*
X190776653Y-57317374D01*
X190776653Y-57317374D02*
X190194939Y-57529101D01*
X192440990Y-107705714D02*
X192327230Y-107804378D01*
X192327230Y-107804378D02*
X192107259Y-107895493D01*
X192107259Y-107895493D02*
X192001048Y-107887945D01*
X192001048Y-107887945D02*
X191938830Y-107862173D01*
X191938830Y-107862173D02*
X191858390Y-107792408D01*
X191858390Y-107792408D02*
X191821944Y-107704419D01*
X191821944Y-107704419D02*
X191829492Y-107598208D01*
X191829492Y-107598208D02*
X191855263Y-107535991D01*
X191855263Y-107535991D02*
X191925029Y-107455550D01*
X191925029Y-107455550D02*
X192082783Y-107338664D01*
X192082783Y-107338664D02*
X192152548Y-107258224D01*
X192152548Y-107258224D02*
X192178320Y-107196006D01*
X192178320Y-107196006D02*
X192185868Y-107089795D01*
X192185868Y-107089795D02*
X192149422Y-107001806D01*
X192149422Y-107001806D02*
X192068982Y-106932041D01*
X192068982Y-106932041D02*
X192006764Y-106906269D01*
X192006764Y-106906269D02*
X191900553Y-106898721D01*
X191900553Y-106898721D02*
X191680581Y-106989836D01*
X191680581Y-106989836D02*
X191566822Y-107088500D01*
X191240639Y-107172067D02*
X191403351Y-108187061D01*
X191403351Y-108187061D02*
X190954028Y-107600039D01*
X190954028Y-107600039D02*
X191051397Y-108332845D01*
X191051397Y-108332845D02*
X190448742Y-107500081D01*
X190177228Y-107715631D02*
X190115011Y-107689859D01*
X190115011Y-107689859D02*
X190008799Y-107682311D01*
X190008799Y-107682311D02*
X189788828Y-107773426D01*
X189788828Y-107773426D02*
X189719063Y-107853867D01*
X189719063Y-107853867D02*
X189693291Y-107916084D01*
X189693291Y-107916084D02*
X189685743Y-108022295D01*
X189685743Y-108022295D02*
X189722189Y-108110284D01*
X189722189Y-108110284D02*
X189820853Y-108224044D01*
X189820853Y-108224044D02*
X190567460Y-108533299D01*
X190567460Y-108533299D02*
X189995535Y-108770198D01*
X188776960Y-108192556D02*
X189216903Y-108010326D01*
X189216903Y-108010326D02*
X189443127Y-108432045D01*
X189443127Y-108432045D02*
X189380910Y-108406274D01*
X189380910Y-108406274D02*
X189274698Y-108398726D01*
X189274698Y-108398726D02*
X189054727Y-108489841D01*
X189054727Y-108489841D02*
X188984962Y-108570281D01*
X188984962Y-108570281D02*
X188959190Y-108632498D01*
X188959190Y-108632498D02*
X188951642Y-108738710D01*
X188951642Y-108738710D02*
X189042757Y-108958681D01*
X189042757Y-108958681D02*
X189123197Y-109028447D01*
X189123197Y-109028447D02*
X189185415Y-109054218D01*
X189185415Y-109054218D02*
X189291626Y-109061766D01*
X189291626Y-109061766D02*
X189511598Y-108970651D01*
X189511598Y-108970651D02*
X189581363Y-108890211D01*
X189581363Y-108890211D02*
X189607134Y-108827993D01*
X87275527Y-94822055D02*
X87617548Y-93882362D01*
X87617548Y-93882362D02*
X87393811Y-93800929D01*
X87393811Y-93800929D02*
X87243283Y-93796816D01*
X87243283Y-93796816D02*
X87121215Y-93853737D01*
X87121215Y-93853737D02*
X87043894Y-93926945D01*
X87043894Y-93926945D02*
X86934000Y-94089648D01*
X86934000Y-94089648D02*
X86885140Y-94223889D01*
X86885140Y-94223889D02*
X86864741Y-94419165D01*
X86864741Y-94419165D02*
X86876915Y-94524946D01*
X86876915Y-94524946D02*
X86933836Y-94647014D01*
X86933836Y-94647014D02*
X87051791Y-94740622D01*
X87051791Y-94740622D02*
X87275527Y-94822055D01*
X86690029Y-93646123D02*
X86661568Y-93585089D01*
X86661568Y-93585089D02*
X86588360Y-93507769D01*
X86588360Y-93507769D02*
X86364624Y-93426335D01*
X86364624Y-93426335D02*
X86258843Y-93438509D01*
X86258843Y-93438509D02*
X86197809Y-93466970D01*
X86197809Y-93466970D02*
X86120488Y-93540178D01*
X86120488Y-93540178D02*
X86087915Y-93629672D01*
X86087915Y-93629672D02*
X86083802Y-93780201D01*
X86083802Y-93780201D02*
X86425329Y-94512608D01*
X86425329Y-94512608D02*
X85843615Y-94300881D01*
X88083868Y-60324745D02*
X87933554Y-60333768D01*
X87933554Y-60333768D02*
X87703572Y-60272144D01*
X87703572Y-60272144D02*
X87623903Y-60201498D01*
X87623903Y-60201498D02*
X87590232Y-60143177D01*
X87590232Y-60143177D02*
X87568885Y-60038859D01*
X87568885Y-60038859D02*
X87593534Y-59946866D01*
X87593534Y-59946866D02*
X87664180Y-59867198D01*
X87664180Y-59867198D02*
X87722501Y-59833527D01*
X87722501Y-59833527D02*
X87826819Y-59812179D01*
X87826819Y-59812179D02*
X88023129Y-59815482D01*
X88023129Y-59815482D02*
X88127447Y-59794135D01*
X88127447Y-59794135D02*
X88185768Y-59760463D01*
X88185768Y-59760463D02*
X88256414Y-59680795D01*
X88256414Y-59680795D02*
X88281063Y-59588802D01*
X88281063Y-59588802D02*
X88259716Y-59484484D01*
X88259716Y-59484484D02*
X88226045Y-59426163D01*
X88226045Y-59426163D02*
X88146376Y-59355517D01*
X88146376Y-59355517D02*
X87916394Y-59293894D01*
X87916394Y-59293894D02*
X87766080Y-59302916D01*
X87456429Y-59170646D02*
X86967628Y-60074949D01*
X86967628Y-60074949D02*
X86968513Y-59335703D01*
X86968513Y-59335703D02*
X86599656Y-59976351D01*
X86599656Y-59976351D02*
X86628493Y-58948802D01*
X85846553Y-58739281D02*
X86030539Y-58788580D01*
X86030539Y-58788580D02*
X86110207Y-58859226D01*
X86110207Y-58859226D02*
X86143879Y-58917547D01*
X86143879Y-58917547D02*
X86198898Y-59080186D01*
X86198898Y-59080186D02*
X86195595Y-59276497D01*
X86195595Y-59276497D02*
X86096998Y-59644469D01*
X86096998Y-59644469D02*
X86026352Y-59724137D01*
X86026352Y-59724137D02*
X85968031Y-59757808D01*
X85968031Y-59757808D02*
X85863713Y-59779156D01*
X85863713Y-59779156D02*
X85679727Y-59729857D01*
X85679727Y-59729857D02*
X85600059Y-59659211D01*
X85600059Y-59659211D02*
X85566387Y-59600890D01*
X85566387Y-59600890D02*
X85545040Y-59496572D01*
X85545040Y-59496572D02*
X85606664Y-59266590D01*
X85606664Y-59266590D02*
X85677310Y-59186921D01*
X85677310Y-59186921D02*
X85735631Y-59153250D01*
X85735631Y-59153250D02*
X85839948Y-59131903D01*
X85839948Y-59131903D02*
X86023934Y-59181201D01*
X86023934Y-59181201D02*
X86103602Y-59251847D01*
X86103602Y-59251847D02*
X86137274Y-59310169D01*
X86137274Y-59310169D02*
X86158621Y-59414486D01*
X128321185Y-73983235D02*
X128170979Y-73972560D01*
X128170979Y-73972560D02*
X127951008Y-73881445D01*
X127951008Y-73881445D02*
X127881242Y-73801005D01*
X127881242Y-73801005D02*
X127855471Y-73738788D01*
X127855471Y-73738788D02*
X127847923Y-73632576D01*
X127847923Y-73632576D02*
X127884369Y-73544587D01*
X127884369Y-73544587D02*
X127964809Y-73474822D01*
X127964809Y-73474822D02*
X128027026Y-73449051D01*
X128027026Y-73449051D02*
X128133238Y-73441502D01*
X128133238Y-73441502D02*
X128327438Y-73470400D01*
X128327438Y-73470400D02*
X128433650Y-73462852D01*
X128433650Y-73462852D02*
X128495867Y-73437081D01*
X128495867Y-73437081D02*
X128576307Y-73367315D01*
X128576307Y-73367315D02*
X128612753Y-73279327D01*
X128612753Y-73279327D02*
X128605205Y-73173115D01*
X128605205Y-73173115D02*
X128579434Y-73110898D01*
X128579434Y-73110898D02*
X128509668Y-73030458D01*
X128509668Y-73030458D02*
X128289697Y-72939343D01*
X128289697Y-72939343D02*
X128139491Y-72928668D01*
X127849754Y-72757112D02*
X127247099Y-73589877D01*
X127247099Y-73589877D02*
X127344468Y-72857071D01*
X127344468Y-72857071D02*
X126895145Y-73444093D01*
X126895145Y-73444093D02*
X127057857Y-72429098D01*
X125839283Y-73006740D02*
X126367214Y-73225416D01*
X126103249Y-73116078D02*
X126485932Y-72192199D01*
X126485932Y-72192199D02*
X126519252Y-72360628D01*
X126519252Y-72360628D02*
X126570794Y-72485062D01*
X126570794Y-72485062D02*
X126640560Y-72565502D01*
X125833566Y-72025065D02*
X125807795Y-71962848D01*
X125807795Y-71962848D02*
X125738030Y-71882407D01*
X125738030Y-71882407D02*
X125518058Y-71791292D01*
X125518058Y-71791292D02*
X125411847Y-71798841D01*
X125411847Y-71798841D02*
X125349629Y-71824612D01*
X125349629Y-71824612D02*
X125269189Y-71894377D01*
X125269189Y-71894377D02*
X125232743Y-71982366D01*
X125232743Y-71982366D02*
X125222068Y-72132572D01*
X125222068Y-72132572D02*
X125531323Y-72879179D01*
X125531323Y-72879179D02*
X124959398Y-72642280D01*
X173558461Y-114568418D02*
X173175777Y-113644538D01*
X173175777Y-113644538D02*
X172955806Y-113735653D01*
X172955806Y-113735653D02*
X172842046Y-113834317D01*
X172842046Y-113834317D02*
X172790504Y-113958751D01*
X172790504Y-113958751D02*
X172782956Y-114064963D01*
X172782956Y-114064963D02*
X172811853Y-114259163D01*
X172811853Y-114259163D02*
X172866523Y-114391146D01*
X172866523Y-114391146D02*
X172983409Y-114548900D01*
X172983409Y-114548900D02*
X173063849Y-114618665D01*
X173063849Y-114618665D02*
X173188284Y-114670208D01*
X173188284Y-114670208D02*
X173338490Y-114659533D01*
X173338490Y-114659533D02*
X173558461Y-114568418D01*
X171855950Y-114191229D02*
X172031927Y-114118337D01*
X172031927Y-114118337D02*
X172138138Y-114125885D01*
X172138138Y-114125885D02*
X172200355Y-114151656D01*
X172200355Y-114151656D02*
X172343013Y-114247193D01*
X172343013Y-114247193D02*
X172459899Y-114404947D01*
X172459899Y-114404947D02*
X172605684Y-114756901D01*
X172605684Y-114756901D02*
X172598135Y-114863113D01*
X172598135Y-114863113D02*
X172572364Y-114925330D01*
X172572364Y-114925330D02*
X172502599Y-115005770D01*
X172502599Y-115005770D02*
X172326621Y-115078662D01*
X172326621Y-115078662D02*
X172220410Y-115071114D01*
X172220410Y-115071114D02*
X172158193Y-115045343D01*
X172158193Y-115045343D02*
X172077752Y-114975577D01*
X172077752Y-114975577D02*
X171986637Y-114755606D01*
X171986637Y-114755606D02*
X171994185Y-114649395D01*
X171994185Y-114649395D02*
X172019957Y-114587177D01*
X172019957Y-114587177D02*
X172089722Y-114506737D01*
X172089722Y-114506737D02*
X172265699Y-114433845D01*
X172265699Y-114433845D02*
X172371911Y-114441393D01*
X172371911Y-114441393D02*
X172434128Y-114467164D01*
X172434128Y-114467164D02*
X172514568Y-114536930D01*
X208320006Y-100505070D02*
X207977986Y-99565377D01*
X207083041Y-99891111D02*
X207530513Y-99728244D01*
X207530513Y-99728244D02*
X207738127Y-100159430D01*
X207738127Y-100159430D02*
X207677093Y-100130969D01*
X207677093Y-100130969D02*
X207571312Y-100118796D01*
X207571312Y-100118796D02*
X207347576Y-100200229D01*
X207347576Y-100200229D02*
X207274368Y-100277550D01*
X207274368Y-100277550D02*
X207245907Y-100338583D01*
X207245907Y-100338583D02*
X207233734Y-100444365D01*
X207233734Y-100444365D02*
X207315167Y-100668101D01*
X207315167Y-100668101D02*
X207392488Y-100741309D01*
X207392488Y-100741309D02*
X207453521Y-100769769D01*
X207453521Y-100769769D02*
X207559303Y-100781943D01*
X207559303Y-100781943D02*
X207783039Y-100700510D01*
X207783039Y-100700510D02*
X207856247Y-100623189D01*
X207856247Y-100623189D02*
X207884707Y-100562155D01*
X141027573Y-92956695D02*
X140877367Y-92946020D01*
X140877367Y-92946020D02*
X140657396Y-92854905D01*
X140657396Y-92854905D02*
X140587630Y-92774465D01*
X140587630Y-92774465D02*
X140561859Y-92712248D01*
X140561859Y-92712248D02*
X140554311Y-92606036D01*
X140554311Y-92606036D02*
X140590757Y-92518047D01*
X140590757Y-92518047D02*
X140671197Y-92448282D01*
X140671197Y-92448282D02*
X140733414Y-92422511D01*
X140733414Y-92422511D02*
X140839626Y-92414962D01*
X140839626Y-92414962D02*
X141033826Y-92443860D01*
X141033826Y-92443860D02*
X141140038Y-92436312D01*
X141140038Y-92436312D02*
X141202255Y-92410541D01*
X141202255Y-92410541D02*
X141282695Y-92340775D01*
X141282695Y-92340775D02*
X141319141Y-92252787D01*
X141319141Y-92252787D02*
X141311593Y-92146575D01*
X141311593Y-92146575D02*
X141285822Y-92084358D01*
X141285822Y-92084358D02*
X141216056Y-92003918D01*
X141216056Y-92003918D02*
X140996085Y-91912803D01*
X140996085Y-91912803D02*
X140845879Y-91902128D01*
X140556142Y-91730572D02*
X139953487Y-92563337D01*
X139953487Y-92563337D02*
X140050856Y-91830531D01*
X140050856Y-91830531D02*
X139601533Y-92417553D01*
X139601533Y-92417553D02*
X139764245Y-91402558D01*
X138545671Y-91980200D02*
X139073602Y-92198876D01*
X138809637Y-92089538D02*
X139192320Y-91165659D01*
X139192320Y-91165659D02*
X139225640Y-91334088D01*
X139225640Y-91334088D02*
X139277182Y-91458522D01*
X139277182Y-91458522D02*
X139346948Y-91538962D01*
X138008897Y-91036266D02*
X137753774Y-91652186D01*
X138374652Y-90775427D02*
X138321278Y-91526456D01*
X138321278Y-91526456D02*
X137749353Y-91289557D01*
X120110588Y-113839329D02*
X120493271Y-112915450D01*
X120141318Y-112769666D02*
X119569392Y-112532767D01*
X119569392Y-112532767D02*
X119731568Y-113012282D01*
X119731568Y-113012282D02*
X119599585Y-112957613D01*
X119599585Y-112957613D02*
X119493373Y-112965161D01*
X119493373Y-112965161D02*
X119431156Y-112990932D01*
X119431156Y-112990932D02*
X119350716Y-113060698D01*
X119350716Y-113060698D02*
X119259601Y-113280669D01*
X119259601Y-113280669D02*
X119267149Y-113386881D01*
X119267149Y-113386881D02*
X119292920Y-113449098D01*
X119292920Y-113449098D02*
X119362686Y-113529538D01*
X119362686Y-113529538D02*
X119626651Y-113638876D01*
X119626651Y-113638876D02*
X119732863Y-113631328D01*
X119732863Y-113631328D02*
X119795080Y-113605557D01*
X133756584Y-110510411D02*
X133606378Y-110499736D01*
X133606378Y-110499736D02*
X133386407Y-110408621D01*
X133386407Y-110408621D02*
X133316641Y-110328181D01*
X133316641Y-110328181D02*
X133290870Y-110265964D01*
X133290870Y-110265964D02*
X133283322Y-110159752D01*
X133283322Y-110159752D02*
X133319768Y-110071763D01*
X133319768Y-110071763D02*
X133400208Y-110001998D01*
X133400208Y-110001998D02*
X133462425Y-109976227D01*
X133462425Y-109976227D02*
X133568637Y-109968678D01*
X133568637Y-109968678D02*
X133762837Y-109997576D01*
X133762837Y-109997576D02*
X133869049Y-109990028D01*
X133869049Y-109990028D02*
X133931266Y-109964257D01*
X133931266Y-109964257D02*
X134011706Y-109894491D01*
X134011706Y-109894491D02*
X134048152Y-109806503D01*
X134048152Y-109806503D02*
X134040604Y-109700291D01*
X134040604Y-109700291D02*
X134014833Y-109638074D01*
X134014833Y-109638074D02*
X133945067Y-109557634D01*
X133945067Y-109557634D02*
X133725096Y-109466519D01*
X133725096Y-109466519D02*
X133574890Y-109455844D01*
X133285153Y-109284288D02*
X132682498Y-110117053D01*
X132682498Y-110117053D02*
X132779867Y-109384247D01*
X132779867Y-109384247D02*
X132330544Y-109971269D01*
X132330544Y-109971269D02*
X132493256Y-108956274D01*
X131274682Y-109533916D02*
X131802613Y-109752592D01*
X131538648Y-109643254D02*
X131921331Y-108719375D01*
X131921331Y-108719375D02*
X131954651Y-108887804D01*
X131954651Y-108887804D02*
X132006193Y-109012238D01*
X132006193Y-109012238D02*
X132075959Y-109092678D01*
X131349406Y-108482475D02*
X130777480Y-108245576D01*
X130777480Y-108245576D02*
X130939656Y-108725091D01*
X130939656Y-108725091D02*
X130807673Y-108670422D01*
X130807673Y-108670422D02*
X130701462Y-108677971D01*
X130701462Y-108677971D02*
X130639244Y-108703742D01*
X130639244Y-108703742D02*
X130558804Y-108773507D01*
X130558804Y-108773507D02*
X130467689Y-108993479D01*
X130467689Y-108993479D02*
X130475237Y-109099690D01*
X130475237Y-109099690D02*
X130501008Y-109161908D01*
X130501008Y-109161908D02*
X130570774Y-109242348D01*
X130570774Y-109242348D02*
X130834739Y-109351686D01*
X130834739Y-109351686D02*
X130940951Y-109344138D01*
X130940951Y-109344138D02*
X131003168Y-109318366D01*
X66675150Y-66495858D02*
X66524836Y-66504881D01*
X66524836Y-66504881D02*
X66294854Y-66443257D01*
X66294854Y-66443257D02*
X66215185Y-66372611D01*
X66215185Y-66372611D02*
X66181514Y-66314290D01*
X66181514Y-66314290D02*
X66160167Y-66209972D01*
X66160167Y-66209972D02*
X66184816Y-66117979D01*
X66184816Y-66117979D02*
X66255462Y-66038311D01*
X66255462Y-66038311D02*
X66313783Y-66004640D01*
X66313783Y-66004640D02*
X66418101Y-65983292D01*
X66418101Y-65983292D02*
X66614411Y-65986595D01*
X66614411Y-65986595D02*
X66718729Y-65965248D01*
X66718729Y-65965248D02*
X66777050Y-65931576D01*
X66777050Y-65931576D02*
X66847696Y-65851908D01*
X66847696Y-65851908D02*
X66872345Y-65759915D01*
X66872345Y-65759915D02*
X66850998Y-65655597D01*
X66850998Y-65655597D02*
X66817327Y-65597276D01*
X66817327Y-65597276D02*
X66737658Y-65526630D01*
X66737658Y-65526630D02*
X66507676Y-65465007D01*
X66507676Y-65465007D02*
X66357362Y-65474029D01*
X66047711Y-65341759D02*
X65558910Y-66246062D01*
X65558910Y-66246062D02*
X65559795Y-65506816D01*
X65559795Y-65506816D02*
X65190938Y-66147464D01*
X65190938Y-66147464D02*
X65219775Y-65119915D01*
X64943796Y-65045966D02*
X64345842Y-64885745D01*
X64345842Y-64885745D02*
X64569220Y-65339990D01*
X64569220Y-65339990D02*
X64431230Y-65303016D01*
X64431230Y-65303016D02*
X64326913Y-65324363D01*
X64326913Y-65324363D02*
X64268592Y-65358034D01*
X64268592Y-65358034D02*
X64197946Y-65437703D01*
X64197946Y-65437703D02*
X64136322Y-65667685D01*
X64136322Y-65667685D02*
X64157669Y-65772003D01*
X64157669Y-65772003D02*
X64191341Y-65830324D01*
X64191341Y-65830324D02*
X64271009Y-65900970D01*
X64271009Y-65900970D02*
X64546988Y-65974918D01*
X64546988Y-65974918D02*
X64651305Y-65953571D01*
X64651305Y-65953571D02*
X64709627Y-65919899D01*
%TO.C,T1*%
X176138322Y-32281497D02*
X176138327Y-35131498D01*
X176138327Y-35131498D02*
X182738321Y-35131499D01*
X179438322Y-32281497D02*
X176138322Y-32281497D01*
X179438322Y-32281497D02*
X182738322Y-32281497D01*
X181388322Y-32281497D02*
X177488322Y-32281497D01*
X182738321Y-35131499D02*
X182738322Y-32281497D01*
%TO.C,MCU1*%
X136788319Y-35631508D02*
X136788319Y-38171508D01*
X136788319Y-35631508D02*
X140138319Y-35631509D01*
X136788319Y-38171508D02*
X140138319Y-38171508D01*
X140138319Y-35631509D02*
X140138319Y-38171508D01*
D12*
%TO.C,ARC1*%
X166438309Y-39431504D02*
G75*
G02*
X166438311Y-53431514I1J-7000005D01*
G01*
D13*
%TO.C,B1*%
X231812548Y-47347120D02*
X231670197Y-46815861D01*
X232252631Y-45029238D02*
X231359152Y-45268646D01*
X235899001Y-44052191D02*
X235005520Y-44291604D01*
X236545585Y-46078907D02*
X236403234Y-45547648D01*
X236856630Y-47626122D02*
X232316781Y-48842577D01*
D11*
%TO.C,I1*%
X69376897Y-102772180D02*
X69763267Y-102875710D01*
X69763267Y-102875710D02*
X69620916Y-103406971D01*
X69763267Y-102875710D02*
X69905615Y-102344449D01*
X69763267Y-102875710D02*
X70446353Y-102644635D01*
X70239292Y-103417372D02*
X69763267Y-102875710D01*
X70342822Y-103031002D02*
X70825785Y-103160414D01*
X70446353Y-102644635D02*
X70239292Y-103417372D01*
%TO.C,S14*%
X133952190Y-79113081D02*
X134181800Y-78558754D01*
X134006310Y-79243738D02*
X134560638Y-79473347D01*
X135310716Y-75833309D02*
X135540326Y-75278981D01*
X135670978Y-75224859D02*
X136225310Y-75454472D01*
X137863507Y-80841440D02*
X139284796Y-81430160D01*
X139695470Y-81745278D02*
X140647637Y-82986161D01*
X141058307Y-83301277D02*
X142479598Y-83890007D01*
X143813360Y-84442459D02*
X144367689Y-84672073D01*
X144498347Y-84617959D02*
X144727954Y-84063626D01*
X145478034Y-80423587D02*
X146032361Y-80653197D01*
X145856873Y-81338179D02*
X146086479Y-80783854D01*
X134006310Y-79243738D02*
G75*
G02*
X133952190Y-79113081I38268J92388D01*
G01*
X135540326Y-75278981D02*
G75*
G02*
X135670978Y-75224860I92388J-38269D01*
G01*
X139284796Y-81430160D02*
G75*
G02*
X139695470Y-81745278I-382679J-923884D01*
G01*
X141058307Y-83301277D02*
G75*
G02*
X140647637Y-82986161I383025J924329D01*
G01*
X144498347Y-84617959D02*
G75*
G02*
X144367689Y-84672073I-92383J38264D01*
G01*
X146032361Y-80653197D02*
G75*
G02*
X146086479Y-80783854I-38275J-92390D01*
G01*
%TO.C,S25*%
X178082821Y-77574547D02*
X178637149Y-77344937D01*
X178258312Y-78259530D02*
X178028701Y-77705203D01*
X179616838Y-81539305D02*
X179387228Y-80984975D01*
X179747494Y-81593423D02*
X180301823Y-81363810D01*
X183604691Y-79995719D02*
X185025985Y-79407000D01*
X185539194Y-79339432D02*
X187089915Y-79543591D01*
X187603125Y-79476026D02*
X189024418Y-78887307D01*
X188693508Y-74315968D02*
X189247835Y-74086358D01*
X189608103Y-74694805D02*
X189378492Y-74140478D01*
X190358180Y-78334844D02*
X190912508Y-78105234D01*
X190966628Y-77974578D02*
X190737018Y-77420250D01*
X178028701Y-77705203D02*
G75*
G02*
X178082821Y-77574547I92388J38268D01*
G01*
X179747494Y-81593423D02*
G75*
G02*
X179616839Y-81539305I-38268J92388D01*
G01*
X185025985Y-79407000D02*
G75*
G02*
X185539194Y-79339432I382697J-923942D01*
G01*
X187603125Y-79476026D02*
G75*
G02*
X187089915Y-79543591I-382753J924414D01*
G01*
X189247835Y-74086358D02*
G75*
G02*
X189378491Y-74140478I38266J-92393D01*
G01*
X190966628Y-77974578D02*
G75*
G02*
X190912508Y-78105235I-92387J-38269D01*
G01*
%TO.C,SW2*%
X59642247Y-81037845D02*
X60430093Y-81176766D01*
X59862518Y-82092112D02*
X59931981Y-81698189D01*
X59931981Y-81698189D02*
X59390335Y-81602685D01*
X59931981Y-81698189D02*
X59642247Y-81037845D01*
X59931981Y-81698189D02*
X60473625Y-81793693D01*
X60036170Y-81107304D02*
X60122998Y-80614900D01*
X60430093Y-81176766D02*
X59931981Y-81698189D01*
%TO.C,D1*%
X70114533Y-100019298D02*
X70500903Y-100122828D01*
X70500903Y-100122828D02*
X70358552Y-100654089D01*
X70500903Y-100122828D02*
X70643251Y-99591567D01*
X70500903Y-100122828D02*
X71183989Y-99891753D01*
X70976928Y-100664490D02*
X70500903Y-100122828D01*
X71080458Y-100278120D02*
X71563421Y-100407532D01*
X71183989Y-99891753D02*
X70976928Y-100664490D01*
%TO.C,D5*%
X210735906Y-96108846D02*
X211111783Y-95972033D01*
X211111783Y-95972033D02*
X210923672Y-95455202D01*
X211111783Y-95972033D02*
X211299897Y-96488861D01*
X211111783Y-95972033D02*
X211538787Y-95390944D01*
X211538787Y-95390944D02*
X211812406Y-96142698D01*
X211675598Y-95766821D02*
X212145444Y-95595806D01*
X211812406Y-96142698D02*
X211111783Y-95972033D01*
%TO.C,SW15*%
X134472825Y-139660696D02*
X134743061Y-139365785D01*
X134743061Y-139365785D02*
X134337559Y-138994210D01*
X134743061Y-139365785D02*
X134853507Y-138653183D01*
X134743061Y-139365785D02*
X135148565Y-139737356D01*
X134853507Y-138653183D02*
X135443326Y-139193652D01*
X135148416Y-138923419D02*
X135486211Y-138554780D01*
X135443326Y-139193652D02*
X134743061Y-139365785D01*
%TO.C,S1*%
X47632558Y-93720061D02*
X47736747Y-93129177D01*
X47713674Y-93835907D02*
X48304559Y-93940096D01*
X48249009Y-90223994D02*
X48353198Y-89633103D01*
X48469038Y-89551996D02*
X49059928Y-89656182D01*
X51825246Y-94560888D02*
X53340275Y-94828027D01*
X53809411Y-95046791D02*
X55007583Y-96052176D01*
X55476722Y-96270940D02*
X56991745Y-96538083D01*
X58413470Y-96788766D02*
X59004354Y-96892956D01*
X59120193Y-96811841D02*
X59224388Y-96220956D01*
X59168838Y-92504853D02*
X59759723Y-92609043D01*
X59736651Y-93315770D02*
X59840839Y-92724887D01*
X47713674Y-93835907D02*
G75*
G02*
X47632558Y-93720061I17365J98481D01*
G01*
X48353198Y-89633103D02*
G75*
G02*
X48469039Y-89551991I98481J-17371D01*
G01*
X53340275Y-94828027D02*
G75*
G02*
X53809411Y-95046791I-173649J-984797D01*
G01*
X55476722Y-96270940D02*
G75*
G02*
X55007583Y-96052176I173877J985296D01*
G01*
X59120193Y-96811841D02*
G75*
G02*
X59004354Y-96892956I-98482J17369D01*
G01*
X59759723Y-92609043D02*
G75*
G02*
X59840838Y-92724887I-17360J-98476D01*
G01*
%TO.C,SW8*%
X105899445Y-69563724D02*
X106651199Y-69837343D01*
X105933300Y-70640224D02*
X106070110Y-70264347D01*
X106070110Y-70264347D02*
X105553282Y-70076235D01*
X106070110Y-70264347D02*
X105899445Y-69563724D01*
X106070110Y-70264347D02*
X106586941Y-70452458D01*
X106275322Y-69700532D02*
X106446334Y-69230686D01*
X106651199Y-69837343D02*
X106070110Y-70264347D01*
%TO.C,D3*%
X124861828Y-112230248D02*
X125231380Y-112383322D01*
X125231380Y-112383322D02*
X125020904Y-112891456D01*
X125231380Y-112383322D02*
X125441856Y-111875190D01*
X125231380Y-112383322D02*
X125938781Y-112243380D01*
X125632633Y-112982484D02*
X125231380Y-112383322D01*
X125785708Y-112612932D02*
X126247648Y-112804274D01*
X125938781Y-112243380D02*
X125632633Y-112982484D01*
%TO.C,S9*%
X104866731Y-44259486D02*
X105071940Y-43695671D01*
X104926495Y-44387658D02*
X105490311Y-44592868D01*
X106080899Y-40923578D02*
X106286111Y-40359762D01*
X106414278Y-40299992D02*
X106978098Y-40505207D01*
X108849712Y-45815591D02*
X110295332Y-46341755D01*
X110719356Y-46638659D02*
X111724742Y-47836831D01*
X112148767Y-48133731D02*
X113594386Y-48659905D01*
X114950977Y-49153658D02*
X115514793Y-49358870D01*
X115642961Y-49299100D02*
X115848175Y-48735287D01*
X116438765Y-45065995D02*
X117002578Y-45271206D01*
X116857140Y-45963193D02*
X117062345Y-45399378D01*
X104926495Y-44387658D02*
G75*
G02*
X104866727Y-44259485I34202J93970D01*
G01*
X106286111Y-40359762D02*
G75*
G02*
X106414278Y-40299993I93969J-34202D01*
G01*
X110295332Y-46341755D02*
G75*
G02*
X110719356Y-46638659I-342021J-939695D01*
G01*
X112148767Y-48133731D02*
G75*
G02*
X111724742Y-47836831I342364J940196D01*
G01*
X115642961Y-49299100D02*
G75*
G02*
X115514793Y-49358871I-93971J34202D01*
G01*
X117002578Y-45271206D02*
G75*
G02*
X117062345Y-45399378I-34195J-93966D01*
G01*
%TO.C,SW21*%
X214230111Y-54618739D02*
X215002850Y-54411681D01*
X214616481Y-54515209D02*
X214487067Y-54032246D01*
X214771773Y-55094764D02*
X214230111Y-54618739D01*
X214771773Y-55094764D02*
X214240512Y-55237115D01*
X214771773Y-55094764D02*
X215303034Y-54952417D01*
X214875305Y-55481134D02*
X214771773Y-55094764D01*
X215002850Y-54411681D02*
X214771773Y-55094764D01*
%TO.C,S16*%
X241407928Y-72551082D02*
X241998817Y-72446891D01*
X241431005Y-73257810D02*
X241326817Y-72666920D01*
X242047456Y-76753878D02*
X241943267Y-76162993D01*
X242163304Y-76834995D02*
X242754186Y-76730805D01*
X246274874Y-76110012D02*
X247789900Y-75842875D01*
X248305567Y-75887985D02*
X249775343Y-76422944D01*
X250291009Y-76468055D02*
X251806036Y-76200917D01*
X252472388Y-71666316D02*
X253063273Y-71562127D01*
X253227754Y-75950225D02*
X253818642Y-75846039D01*
X253283307Y-72234123D02*
X253179115Y-71643245D01*
X253899757Y-75730195D02*
X253795570Y-75139310D01*
X241326817Y-72666920D02*
G75*
G02*
X241407928Y-72551083I98480J17359D01*
G01*
X242163304Y-76834995D02*
G75*
G02*
X242047455Y-76753878I-17367J98482D01*
G01*
X247789900Y-75842875D02*
G75*
G02*
X248305567Y-75887986I173650J-984869D01*
G01*
X250291009Y-76468055D02*
G75*
G02*
X249775343Y-76422944I-173599J985445D01*
G01*
X253063273Y-71562127D02*
G75*
G02*
X253179114Y-71643245I17365J-98475D01*
G01*
X253899757Y-75730195D02*
G75*
G02*
X253818642Y-75846039I-98483J-17362D01*
G01*
%TO.C,SW26*%
X180963761Y-85770983D02*
X181702864Y-85464833D01*
X181333312Y-85617906D02*
X181141970Y-85155966D01*
X181562922Y-86172234D02*
X180963761Y-85770983D01*
X181562922Y-86172234D02*
X181054788Y-86382710D01*
X181562922Y-86172234D02*
X182071049Y-85961757D01*
X181702864Y-85464833D02*
X181562922Y-86172234D01*
X181715996Y-86541786D02*
X181562922Y-86172234D01*
%TO.C,SW20*%
X219147678Y-72971330D02*
X219920417Y-72764272D01*
X219534048Y-72867800D02*
X219404634Y-72384837D01*
X219689340Y-73447355D02*
X219147678Y-72971330D01*
X219689340Y-73447355D02*
X219158079Y-73589706D01*
X219689340Y-73447355D02*
X220220601Y-73305008D01*
X219792872Y-73833725D02*
X219689340Y-73447355D01*
X219920417Y-72764272D02*
X219689340Y-73447355D01*
%TO.C,S2*%
X50931876Y-75008709D02*
X51036065Y-74417825D01*
X51012992Y-75124555D02*
X51603877Y-75228744D01*
X51548327Y-71512642D02*
X51652516Y-70921751D01*
X51768356Y-70840644D02*
X52359246Y-70944830D01*
X55124564Y-75849536D02*
X56639593Y-76116675D01*
X57108729Y-76335439D02*
X58306901Y-77340824D01*
X58776040Y-77559588D02*
X60291063Y-77826731D01*
X61712788Y-78077414D02*
X62303672Y-78181604D01*
X62419511Y-78100489D02*
X62523706Y-77509604D01*
X62468156Y-73793501D02*
X63059041Y-73897691D01*
X63035969Y-74604418D02*
X63140157Y-74013535D01*
X51012992Y-75124555D02*
G75*
G02*
X50931876Y-75008709I17365J98481D01*
G01*
X51652516Y-70921751D02*
G75*
G02*
X51768357Y-70840639I98481J-17371D01*
G01*
X56639593Y-76116675D02*
G75*
G02*
X57108729Y-76335439I-173649J-984797D01*
G01*
X58776040Y-77559588D02*
G75*
G02*
X58306901Y-77340824I173877J985296D01*
G01*
X62419511Y-78100489D02*
G75*
G02*
X62303672Y-78181604I-98482J17369D01*
G01*
X63059041Y-73897691D02*
G75*
G02*
X63140156Y-74013535I-17360J-98476D01*
G01*
%TO.C,SW9*%
X112397830Y-51709563D02*
X113149584Y-51983182D01*
X112431685Y-52786063D02*
X112568495Y-52410186D01*
X112568495Y-52410186D02*
X112051667Y-52222074D01*
X112568495Y-52410186D02*
X112397830Y-51709563D01*
X112568495Y-52410186D02*
X113085326Y-52598297D01*
X112773707Y-51846371D02*
X112944719Y-51376525D01*
X113149584Y-51983182D02*
X112568495Y-52410186D01*
%TO.C,S6*%
X79722024Y-47646342D02*
X79877315Y-47066786D01*
X79792734Y-47768816D02*
X80372290Y-47924108D01*
X80640831Y-44217305D02*
X80796123Y-43637750D01*
X80918593Y-43567037D02*
X81498153Y-43722329D01*
X83825475Y-48849386D02*
X85311453Y-49247548D01*
X85759740Y-49506371D02*
X86865727Y-50612358D01*
X87314017Y-50871172D02*
X88799992Y-51269352D01*
X90194462Y-51642991D02*
X90774010Y-51798280D01*
X90896479Y-51727570D02*
X91051775Y-51148014D01*
X91320318Y-47441212D02*
X91899873Y-47596503D01*
X91815288Y-48298533D02*
X91970582Y-47718978D01*
X79792734Y-47768816D02*
G75*
G02*
X79722024Y-47646342I25882J96592D01*
G01*
X80796123Y-43637750D02*
G75*
G02*
X80918593Y-43567039I96592J-25882D01*
G01*
X85311453Y-49247548D02*
G75*
G02*
X85759740Y-49506371I-258750J-965796D01*
G01*
X87314017Y-50871172D02*
G75*
G02*
X86865727Y-50612358I259111J966452D01*
G01*
X90896479Y-51727570D02*
G75*
G02*
X90774010Y-51798280I-96596J25891D01*
G01*
X91899873Y-47596503D02*
G75*
G02*
X91970582Y-47718978I-25880J-96590D01*
G01*
%TO.C,S29*%
X130746682Y-128888177D02*
X131152037Y-128445811D01*
X130752851Y-129029464D02*
X131195218Y-129434818D01*
X133145028Y-126270842D02*
X133550382Y-125828476D01*
X133691669Y-125822307D02*
X134134040Y-126227661D01*
X133830984Y-131850053D02*
X134965209Y-132889379D01*
X135243336Y-133325950D02*
X135713671Y-134817660D01*
X135991797Y-135254230D02*
X137126023Y-136293558D01*
X138190396Y-137268877D02*
X138632762Y-137674231D01*
X138774049Y-137668064D02*
X139179403Y-137225696D01*
X141129213Y-134061720D02*
X141571580Y-134467074D01*
X141172394Y-135050729D02*
X141577748Y-134608361D01*
X130752851Y-129029464D02*
G75*
G02*
X130746682Y-128888177I67559J73728D01*
G01*
X133550382Y-125828476D02*
G75*
G02*
X133691668Y-125822308I73727J-67559D01*
G01*
X134965209Y-132889379D02*
G75*
G02*
X135243336Y-133325950I-675646J-737314D01*
G01*
X135991797Y-135254230D02*
G75*
G02*
X135713671Y-134817660I676050J737569D01*
G01*
X138774049Y-137668064D02*
G75*
G02*
X138632762Y-137674231I-73727J67556D01*
G01*
X141571580Y-134467074D02*
G75*
G02*
X141577748Y-134608361I-67562J-73728D01*
G01*
%TO.C,S24*%
X185353802Y-95128260D02*
X185908130Y-94898650D01*
X185529293Y-95813243D02*
X185299682Y-95258916D01*
X186887819Y-99093018D02*
X186658209Y-98538688D01*
X187018475Y-99147136D02*
X187572804Y-98917523D01*
X190875672Y-97549432D02*
X192296966Y-96960713D01*
X192810175Y-96893145D02*
X194360896Y-97097304D01*
X194874106Y-97029739D02*
X196295399Y-96441020D01*
X195964489Y-91869681D02*
X196518816Y-91640071D01*
X196879084Y-92248518D02*
X196649473Y-91694191D01*
X197629161Y-95888557D02*
X198183489Y-95658947D01*
X198237609Y-95528291D02*
X198007999Y-94973963D01*
X185299682Y-95258916D02*
G75*
G02*
X185353802Y-95128260I92388J38268D01*
G01*
X187018475Y-99147136D02*
G75*
G02*
X186887820Y-99093018I-38268J92388D01*
G01*
X192296966Y-96960713D02*
G75*
G02*
X192810175Y-96893145I382697J-923942D01*
G01*
X194874106Y-97029739D02*
G75*
G02*
X194360896Y-97097304I-382753J924414D01*
G01*
X196518816Y-91640071D02*
G75*
G02*
X196649472Y-91694191I38266J-92393D01*
G01*
X198237609Y-95528291D02*
G75*
G02*
X198183489Y-95658948I-92387J-38269D01*
G01*
%TO.C,SW7*%
X99401062Y-87417889D02*
X100152816Y-87691508D01*
X99434917Y-88494389D02*
X99571727Y-88118512D01*
X99571727Y-88118512D02*
X99054899Y-87930400D01*
X99571727Y-88118512D02*
X99401062Y-87417889D01*
X99571727Y-88118512D02*
X100088558Y-88306623D01*
X99776939Y-87554697D02*
X99947951Y-87084851D01*
X100152816Y-87691508D02*
X99571727Y-88118512D01*
%TO.C,S15*%
X244707232Y-91262431D02*
X245298121Y-91158240D01*
X244730309Y-91969159D02*
X244626121Y-91378269D01*
X245346760Y-95465227D02*
X245242571Y-94874342D01*
X245462608Y-95546344D02*
X246053490Y-95442154D01*
X249574178Y-94821361D02*
X251089204Y-94554224D01*
X251604871Y-94599334D02*
X253074647Y-95134293D01*
X253590313Y-95179404D02*
X255105340Y-94912266D01*
X255771692Y-90377665D02*
X256362577Y-90273476D01*
X256527058Y-94661574D02*
X257117946Y-94557388D01*
X256582611Y-90945472D02*
X256478419Y-90354594D01*
X257199061Y-94441544D02*
X257094874Y-93850659D01*
X244626121Y-91378269D02*
G75*
G02*
X244707232Y-91262432I98480J17359D01*
G01*
X245462608Y-95546344D02*
G75*
G02*
X245346759Y-95465227I-17367J98482D01*
G01*
X251089204Y-94554224D02*
G75*
G02*
X251604871Y-94599335I173650J-984869D01*
G01*
X253590313Y-95179404D02*
G75*
G02*
X253074647Y-95134293I-173599J985445D01*
G01*
X256362577Y-90273476D02*
G75*
G02*
X256478418Y-90354594I17365J-98475D01*
G01*
X257199061Y-94441544D02*
G75*
G02*
X257117946Y-94557388I-98483J-17362D01*
G01*
%TO.C,SW5*%
X82956230Y-72764274D02*
X83728967Y-72971335D01*
X83083775Y-73833730D02*
X83187305Y-73447360D01*
X83187305Y-73447360D02*
X82656044Y-73305012D01*
X83187305Y-73447360D02*
X82956230Y-72764274D01*
X83187305Y-73447360D02*
X83718566Y-73589711D01*
X83342597Y-72867805D02*
X83472009Y-72384842D01*
X83728967Y-72971335D02*
X83187305Y-73447360D01*
%TO.C,SW18*%
X235638827Y-60789859D02*
X236411566Y-60582801D01*
X236025197Y-60686329D02*
X235895783Y-60203366D01*
X236180489Y-61265884D02*
X235638827Y-60789859D01*
X236180489Y-61265884D02*
X235649228Y-61408235D01*
X236180489Y-61265884D02*
X236711750Y-61123537D01*
X236284021Y-61652254D02*
X236180489Y-61265884D01*
X236411566Y-60582801D02*
X236180489Y-61265884D01*
%TO.C,S10*%
X106703829Y-95247040D02*
X106933439Y-94692713D01*
X106757949Y-95377697D02*
X107312277Y-95607306D01*
X108062355Y-91967268D02*
X108291965Y-91412940D01*
X108422617Y-91358818D02*
X108976949Y-91588431D01*
X110615146Y-96975399D02*
X112036435Y-97564119D01*
X112447109Y-97879237D02*
X113399276Y-99120120D01*
X113809946Y-99435236D02*
X115231237Y-100023966D01*
X116564999Y-100576418D02*
X117119328Y-100806032D01*
X117249986Y-100751918D02*
X117479593Y-100197585D01*
X118229673Y-96557546D02*
X118784000Y-96787156D01*
X118608512Y-97472138D02*
X118838118Y-96917813D01*
X106757949Y-95377697D02*
G75*
G02*
X106703829Y-95247040I38268J92388D01*
G01*
X108291965Y-91412940D02*
G75*
G02*
X108422617Y-91358819I92388J-38269D01*
G01*
X112036435Y-97564119D02*
G75*
G02*
X112447109Y-97879237I-382679J-923884D01*
G01*
X113809946Y-99435236D02*
G75*
G02*
X113399276Y-99120120I383025J924329D01*
G01*
X117249986Y-100751918D02*
G75*
G02*
X117119328Y-100806032I-92383J38264D01*
G01*
X118784000Y-96787156D02*
G75*
G02*
X118838118Y-96917813I-38275J-92390D01*
G01*
%TO.C,SW22*%
X202723816Y-87691506D02*
X203475570Y-87417887D01*
X203099693Y-87554695D02*
X202928678Y-87084849D01*
X203304905Y-88118510D02*
X202723816Y-87691506D01*
X203304905Y-88118510D02*
X202788074Y-88306621D01*
X203304905Y-88118510D02*
X203821733Y-87930396D01*
X203441718Y-88494387D02*
X203304905Y-88118510D01*
X203475570Y-87417887D02*
X203304905Y-88118510D01*
%TO.C,S27*%
X165376431Y-96548005D02*
X165930759Y-96318395D01*
X165551922Y-97232988D02*
X165322311Y-96678661D01*
X166910448Y-100512763D02*
X166680838Y-99958433D01*
X167041104Y-100566881D02*
X167595433Y-100337268D01*
X170898301Y-98969177D02*
X172319595Y-98380458D01*
X172832804Y-98312890D02*
X174383525Y-98517049D01*
X174896735Y-98449484D02*
X176318028Y-97860765D01*
X175987118Y-93289426D02*
X176541445Y-93059816D01*
X176901713Y-93668263D02*
X176672102Y-93113936D01*
X177651790Y-97308302D02*
X178206118Y-97078692D01*
X178260238Y-96948036D02*
X178030628Y-96393708D01*
X165322311Y-96678661D02*
G75*
G02*
X165376431Y-96548005I92388J38268D01*
G01*
X167041104Y-100566881D02*
G75*
G02*
X166910449Y-100512763I-38268J92388D01*
G01*
X172319595Y-98380458D02*
G75*
G02*
X172832804Y-98312890I382697J-923942D01*
G01*
X174896735Y-98449484D02*
G75*
G02*
X174383525Y-98517049I-382753J924414D01*
G01*
X176541445Y-93059816D02*
G75*
G02*
X176672101Y-93113936I38266J-92393D01*
G01*
X178260238Y-96948036D02*
G75*
G02*
X178206118Y-97078693I-92387J-38269D01*
G01*
%TO.C,SW28*%
X168257369Y-104744440D02*
X168996472Y-104438290D01*
X168626920Y-104591363D02*
X168435578Y-104129423D01*
X168856530Y-105145691D02*
X168257369Y-104744440D01*
X168856530Y-105145691D02*
X168348396Y-105356167D01*
X168856530Y-105145691D02*
X169364657Y-104935214D01*
X168996472Y-104438290D02*
X168856530Y-105145691D01*
X169009604Y-105515243D02*
X168856530Y-105145691D01*
%TO.C,I2*%
X89756433Y-98273927D02*
X90132310Y-98410737D01*
X90132310Y-98410737D02*
X89944199Y-98927568D01*
X90132310Y-98410737D02*
X90320422Y-97893909D01*
X90132310Y-98410737D02*
X90832933Y-98240072D01*
X90559314Y-98991826D02*
X90132310Y-98410737D01*
X90696125Y-98615949D02*
X91165971Y-98786961D01*
X90832933Y-98240072D02*
X90559314Y-98991826D01*
%TO.C,S8*%
X98368353Y-62113644D02*
X98573562Y-61549829D01*
X98428117Y-62241816D02*
X98991933Y-62447026D01*
X99582521Y-58777736D02*
X99787733Y-58213920D01*
X99915900Y-58154150D02*
X100479720Y-58359365D01*
X102351334Y-63669749D02*
X103796954Y-64195913D01*
X104220978Y-64492817D02*
X105226364Y-65690989D01*
X105650389Y-65987889D02*
X107096008Y-66514063D01*
X108452599Y-67007816D02*
X109016415Y-67213028D01*
X109144583Y-67153258D02*
X109349797Y-66589445D01*
X109940387Y-62920153D02*
X110504200Y-63125364D01*
X110358762Y-63817351D02*
X110563967Y-63253536D01*
X98428117Y-62241816D02*
G75*
G02*
X98368349Y-62113643I34202J93970D01*
G01*
X99787733Y-58213920D02*
G75*
G02*
X99915900Y-58154151I93969J-34202D01*
G01*
X103796954Y-64195913D02*
G75*
G02*
X104220978Y-64492817I-342021J-939695D01*
G01*
X105650389Y-65987889D02*
G75*
G02*
X105226364Y-65690989I342364J940196D01*
G01*
X109144583Y-67153258D02*
G75*
G02*
X109016415Y-67213029I-93971J34202D01*
G01*
X110504200Y-63125364D02*
G75*
G02*
X110563967Y-63253536I-34195J-93966D01*
G01*
%TO.C,SW11*%
X121160644Y-86541780D02*
X121313718Y-86172228D01*
X121173776Y-85464827D02*
X121912880Y-85770975D01*
X121313718Y-86172228D02*
X120805586Y-85961752D01*
X121313718Y-86172228D02*
X121173776Y-85464827D01*
X121313718Y-86172228D02*
X121821852Y-86382704D01*
X121543328Y-85617900D02*
X121734670Y-85155960D01*
X121912880Y-85770975D02*
X121313718Y-86172228D01*
%TO.C,S22*%
X193704769Y-61523055D02*
X194268585Y-61317845D01*
X193850215Y-62215041D02*
X193645005Y-61651226D01*
X195064386Y-65550951D02*
X194859173Y-64987137D01*
X195192557Y-65610718D02*
X195756372Y-65405506D01*
X199115774Y-64182784D02*
X200561394Y-63656621D01*
X201077062Y-63611506D02*
X202617402Y-63883109D01*
X203133067Y-63837994D02*
X204578689Y-63311832D01*
X204447494Y-58730410D02*
X205011309Y-58525198D01*
X205344692Y-59148776D02*
X205139480Y-58584965D01*
X205935281Y-62818073D02*
X206499097Y-62612861D01*
X206558864Y-62484689D02*
X206353652Y-61920874D01*
X193645005Y-61651226D02*
G75*
G02*
X193704770Y-61523058I93966J34202D01*
G01*
X195192557Y-65610718D02*
G75*
G02*
X195064386Y-65550951I-34202J93969D01*
G01*
X200561394Y-63656621D02*
G75*
G02*
X201077062Y-63611505I342024J-939724D01*
G01*
X203133067Y-63837994D02*
G75*
G02*
X202617402Y-63883109I-342066J940235D01*
G01*
X205011309Y-58525198D02*
G75*
G02*
X205139479Y-58584965I34200J-93972D01*
G01*
X206558864Y-62484689D02*
G75*
G02*
X206499097Y-62612861I-93968J-34203D01*
G01*
%TO.C,SW29*%
X160986377Y-87190722D02*
X161725480Y-86884572D01*
X161355928Y-87037645D02*
X161164586Y-86575705D01*
X161585538Y-87591973D02*
X160986377Y-87190722D01*
X161585538Y-87591973D02*
X161077404Y-87802449D01*
X161585538Y-87591973D02*
X162093665Y-87381496D01*
X161725480Y-86884572D02*
X161585538Y-87591973D01*
X161738612Y-87961525D02*
X161585538Y-87591973D01*
%TO.C,SW17*%
X242446545Y-81176776D02*
X243234391Y-81037855D01*
X242840468Y-81107314D02*
X242753640Y-80614910D01*
X242944657Y-81698199D02*
X242403013Y-81793701D01*
X242944657Y-81698199D02*
X242446545Y-81176776D01*
X242944657Y-81698199D02*
X243486302Y-81602693D01*
X243014120Y-82092122D02*
X242944657Y-81698199D01*
X243234391Y-81037855D02*
X242944657Y-81698199D01*
%TO.C,I6*%
X177719631Y-115437332D02*
X178089183Y-115284258D01*
X178089183Y-115284258D02*
X177878707Y-114776124D01*
X178089183Y-115284258D02*
X178299660Y-115792385D01*
X178089183Y-115284258D02*
X178490434Y-114685097D01*
X178490434Y-114685097D02*
X178796584Y-115424200D01*
X178643511Y-115054648D02*
X179105451Y-114863306D01*
X178796584Y-115424200D02*
X178089183Y-115284258D01*
%TO.C,I4*%
X232050846Y-103160418D02*
X232437216Y-103056886D01*
X232437216Y-103056886D02*
X232294865Y-102525625D01*
X232437216Y-103056886D02*
X232579563Y-103588147D01*
X232437216Y-103056886D02*
X232913241Y-102515224D01*
X232913241Y-102515224D02*
X233120299Y-103287963D01*
X233016771Y-102901594D02*
X233499734Y-102772180D01*
X233120299Y-103287963D02*
X232437216Y-103056886D01*
%TO.C,SW16*%
X245745849Y-99888114D02*
X246533695Y-99749193D01*
X246139772Y-99818652D02*
X246052944Y-99326248D01*
X246243961Y-100409537D02*
X245702317Y-100505039D01*
X246243961Y-100409537D02*
X245745849Y-99888114D01*
X246243961Y-100409537D02*
X246785606Y-100314031D01*
X246313424Y-100803460D02*
X246243961Y-100409537D01*
X246533695Y-99749193D02*
X246243961Y-100409537D01*
%TO.C,S19*%
X217361236Y-64468986D02*
X217940792Y-64313694D01*
X217445818Y-65171015D02*
X217290528Y-64591460D01*
X218364625Y-68600052D02*
X218209329Y-68020498D01*
X218487099Y-68670763D02*
X219066660Y-68515473D01*
X222519841Y-67590193D02*
X224005817Y-67192027D01*
X224523454Y-67192024D02*
X226034261Y-67596846D01*
X226551898Y-67596844D02*
X228037877Y-67198680D01*
X228306477Y-62623257D02*
X228886032Y-62467966D01*
X229163797Y-63118228D02*
X229008507Y-62538678D01*
X229432334Y-66825033D02*
X230011895Y-66669743D01*
X230082606Y-66547269D02*
X229927314Y-65967713D01*
X217290528Y-64591460D02*
G75*
G02*
X217361237Y-64468988I96590J25882D01*
G01*
X218487099Y-68670763D02*
G75*
G02*
X218364624Y-68600052I-25882J96593D01*
G01*
X224005817Y-67192027D02*
G75*
G02*
X224523454Y-67192024I258825J-966003D01*
G01*
X226551898Y-67596844D02*
G75*
G02*
X226034261Y-67596846I-258822J966475D01*
G01*
X228886032Y-62467966D02*
G75*
G02*
X229008507Y-62538678I25881J-96595D01*
G01*
X230082606Y-66547269D02*
G75*
G02*
X230011895Y-66669743I-96592J-25882D01*
G01*
%TO.C,S26*%
X170811841Y-60020839D02*
X171366169Y-59791229D01*
X170987332Y-60705822D02*
X170757721Y-60151495D01*
X172345858Y-63985597D02*
X172116248Y-63431267D01*
X172476514Y-64039715D02*
X173030843Y-63810102D01*
X176333711Y-62442011D02*
X177755005Y-61853292D01*
X178268214Y-61785724D02*
X179818935Y-61989883D01*
X180332145Y-61922318D02*
X181753438Y-61333599D01*
X181422528Y-56762260D02*
X181976855Y-56532650D01*
X182337123Y-57141097D02*
X182107512Y-56586770D01*
X183087200Y-60781136D02*
X183641528Y-60551526D01*
X183695648Y-60420870D02*
X183466038Y-59866542D01*
X170757721Y-60151495D02*
G75*
G02*
X170811841Y-60020839I92388J38268D01*
G01*
X172476514Y-64039715D02*
G75*
G02*
X172345859Y-63985597I-38268J92388D01*
G01*
X177755005Y-61853292D02*
G75*
G02*
X178268214Y-61785724I382697J-923942D01*
G01*
X180332145Y-61922318D02*
G75*
G02*
X179818935Y-61989883I-382753J924414D01*
G01*
X181976855Y-56532650D02*
G75*
G02*
X182107511Y-56586770I38266J-92393D01*
G01*
X183695648Y-60420870D02*
G75*
G02*
X183641528Y-60551527I-92387J-38269D01*
G01*
%TO.C,SW27*%
X173692770Y-68217262D02*
X174431873Y-67911112D01*
X174062321Y-68064185D02*
X173870979Y-67602245D01*
X174291931Y-68618513D02*
X173692770Y-68217262D01*
X174291931Y-68618513D02*
X173783797Y-68828989D01*
X174291931Y-68618513D02*
X174800058Y-68408036D01*
X174431873Y-67911112D02*
X174291931Y-68618513D01*
X174445005Y-68988065D02*
X174291931Y-68618513D01*
%TO.C,SW1*%
X56342935Y-99749197D02*
X57130781Y-99888118D01*
X56563206Y-100803464D02*
X56632669Y-100409541D01*
X56632669Y-100409541D02*
X56091023Y-100314037D01*
X56632669Y-100409541D02*
X56342935Y-99749197D01*
X56632669Y-100409541D02*
X57174313Y-100505045D01*
X56736858Y-99818656D02*
X56823686Y-99326252D01*
X57130781Y-99888118D02*
X56632669Y-100409541D01*
%TO.C,SW10*%
X113889660Y-104095497D02*
X114042734Y-103725945D01*
X113902792Y-103018544D02*
X114641896Y-103324692D01*
X114042734Y-103725945D02*
X113534602Y-103515469D01*
X114042734Y-103725945D02*
X113902792Y-103018544D01*
X114042734Y-103725945D02*
X114550868Y-103936421D01*
X114272344Y-103171617D02*
X114463686Y-102709677D01*
X114641896Y-103324692D02*
X114042734Y-103725945D01*
%TO.C,S12*%
X121245794Y-60139619D02*
X121475404Y-59585292D01*
X121299914Y-60270276D02*
X121854242Y-60499885D01*
X122604320Y-56859847D02*
X122833930Y-56305519D01*
X122964582Y-56251397D02*
X123518914Y-56481010D01*
X125157111Y-61867978D02*
X126578400Y-62456698D01*
X126989074Y-62771816D02*
X127941241Y-64012699D01*
X128351911Y-64327815D02*
X129773202Y-64916545D01*
X131106964Y-65468997D02*
X131661293Y-65698611D01*
X131791951Y-65644497D02*
X132021558Y-65090164D01*
X132771638Y-61450125D02*
X133325965Y-61679735D01*
X133150477Y-62364717D02*
X133380083Y-61810392D01*
X121299914Y-60270276D02*
G75*
G02*
X121245794Y-60139619I38268J92388D01*
G01*
X122833930Y-56305519D02*
G75*
G02*
X122964582Y-56251398I92388J-38269D01*
G01*
X126578400Y-62456698D02*
G75*
G02*
X126989074Y-62771816I-382679J-923884D01*
G01*
X128351911Y-64327815D02*
G75*
G02*
X127941241Y-64012699I383025J924329D01*
G01*
X131791951Y-65644497D02*
G75*
G02*
X131661293Y-65698611I-92383J38264D01*
G01*
X133325965Y-61679735D02*
G75*
G02*
X133380083Y-61810392I-38275J-92390D01*
G01*
%TO.C,SW30*%
X167433311Y-139193658D02*
X168023130Y-138653189D01*
X167728221Y-138923425D02*
X167390426Y-138554786D01*
X168023130Y-138653189D02*
X168133576Y-139365791D01*
X168133576Y-139365791D02*
X167433311Y-139193658D01*
X168133576Y-139365791D02*
X167728074Y-139737364D01*
X168133576Y-139365791D02*
X168539078Y-138994216D01*
X168403812Y-139660702D02*
X168133576Y-139365791D01*
%TO.C,SW4*%
X78038661Y-91116868D02*
X78811398Y-91323929D01*
X78166206Y-92186324D02*
X78269736Y-91799954D01*
X78269736Y-91799954D02*
X77738475Y-91657606D01*
X78269736Y-91799954D02*
X78038661Y-91116868D01*
X78269736Y-91799954D02*
X78800997Y-91942305D01*
X78425028Y-91220399D02*
X78554440Y-90737436D01*
X78811398Y-91323929D02*
X78269736Y-91799954D01*
%TO.C,S17*%
X233852386Y-52287516D02*
X234431942Y-52132224D01*
X233936968Y-52989545D02*
X233781678Y-52409990D01*
X234855775Y-56418582D02*
X234700479Y-55839028D01*
X234978249Y-56489293D02*
X235557810Y-56334003D01*
X239010991Y-55408723D02*
X240496967Y-55010557D01*
X241014604Y-55010554D02*
X242525411Y-55415376D01*
X243043048Y-55415374D02*
X244529027Y-55017210D01*
X244797627Y-50441787D02*
X245377182Y-50286496D01*
X245654947Y-50936758D02*
X245499657Y-50357208D01*
X245923484Y-54643563D02*
X246503045Y-54488273D01*
X246573756Y-54365799D02*
X246418464Y-53786243D01*
X233781678Y-52409990D02*
G75*
G02*
X233852387Y-52287518I96590J25882D01*
G01*
X234978249Y-56489293D02*
G75*
G02*
X234855774Y-56418582I-25882J96593D01*
G01*
X240496967Y-55010557D02*
G75*
G02*
X241014604Y-55010554I258825J-966003D01*
G01*
X243043048Y-55415374D02*
G75*
G02*
X242525411Y-55415376I-258822J966475D01*
G01*
X245377182Y-50286496D02*
G75*
G02*
X245499657Y-50357208I25881J-96595D01*
G01*
X246573756Y-54365799D02*
G75*
G02*
X246503045Y-54488273I-96592J-25882D01*
G01*
%TO.C,SW19*%
X224065238Y-91323923D02*
X224837977Y-91116865D01*
X224451608Y-91220393D02*
X224322194Y-90737430D01*
X224606900Y-91799948D02*
X224065238Y-91323923D01*
X224606900Y-91799948D02*
X224075639Y-91942299D01*
X224606900Y-91799948D02*
X225138161Y-91657601D01*
X224710432Y-92186318D02*
X224606900Y-91799948D01*
X224837977Y-91116865D02*
X224606900Y-91799948D01*
%TO.C,S5*%
X74804458Y-65998920D02*
X74959749Y-65419364D01*
X74875168Y-66121394D02*
X75454724Y-66276686D01*
X75723265Y-62569883D02*
X75878557Y-61990328D01*
X76001027Y-61919615D02*
X76580587Y-62074907D01*
X78907909Y-67201964D02*
X80393887Y-67600126D01*
X80842174Y-67858949D02*
X81948161Y-68964936D01*
X82396451Y-69223750D02*
X83882426Y-69621930D01*
X85276896Y-69995569D02*
X85856444Y-70150858D01*
X85978913Y-70080148D02*
X86134209Y-69500592D01*
X86402752Y-65793790D02*
X86982307Y-65949081D01*
X86897722Y-66651111D02*
X87053016Y-66071556D01*
X74875168Y-66121394D02*
G75*
G02*
X74804458Y-65998920I25882J96592D01*
G01*
X75878557Y-61990328D02*
G75*
G02*
X76001027Y-61919617I96592J-25882D01*
G01*
X80393887Y-67600126D02*
G75*
G02*
X80842174Y-67858949I-258750J-965796D01*
G01*
X82396451Y-69223750D02*
G75*
G02*
X81948161Y-68964936I259111J966452D01*
G01*
X85978913Y-70080148D02*
G75*
G02*
X85856444Y-70150858I-96596J25891D01*
G01*
X86982307Y-65949081D02*
G75*
G02*
X87053016Y-66071556I-25880J-96590D01*
G01*
%TO.C,S11*%
X113974815Y-77693328D02*
X114204425Y-77139001D01*
X114028935Y-77823985D02*
X114583263Y-78053594D01*
X115333341Y-74413556D02*
X115562951Y-73859228D01*
X115693603Y-73805106D02*
X116247935Y-74034719D01*
X117886132Y-79421687D02*
X119307421Y-80010407D01*
X119718095Y-80325525D02*
X120670262Y-81566408D01*
X121080932Y-81881524D02*
X122502223Y-82470254D01*
X123835985Y-83022706D02*
X124390314Y-83252320D01*
X124520972Y-83198206D02*
X124750579Y-82643873D01*
X125500659Y-79003834D02*
X126054986Y-79233444D01*
X125879498Y-79918426D02*
X126109104Y-79364101D01*
X114028935Y-77823985D02*
G75*
G02*
X113974815Y-77693328I38268J92388D01*
G01*
X115562951Y-73859228D02*
G75*
G02*
X115693603Y-73805107I92388J-38269D01*
G01*
X119307421Y-80010407D02*
G75*
G02*
X119718095Y-80325525I-382679J-923884D01*
G01*
X121080932Y-81881524D02*
G75*
G02*
X120670262Y-81566408I383025J924329D01*
G01*
X124520972Y-83198206D02*
G75*
G02*
X124390314Y-83252320I-92383J38264D01*
G01*
X126054986Y-79233444D02*
G75*
G02*
X126109104Y-79364101I-38275J-92390D01*
G01*
%TO.C,S30*%
X161922778Y-132476874D02*
X162365146Y-132071518D01*
X162321965Y-133060525D02*
X161916611Y-132618159D01*
X164720310Y-135677860D02*
X164314956Y-135235493D01*
X164861597Y-135684028D02*
X165303964Y-135278674D01*
X167939730Y-132863439D02*
X169073959Y-131824111D01*
X169533102Y-131585092D02*
X171060132Y-131246561D01*
X170779064Y-125785741D02*
X171221430Y-125380387D01*
X171519281Y-131007542D02*
X172653509Y-129968214D01*
X171768073Y-125828925D02*
X171362717Y-125386556D01*
X173717881Y-128992898D02*
X174160248Y-128587544D01*
X174166419Y-128446257D02*
X173761062Y-128003892D01*
X161916611Y-132618159D02*
G75*
G02*
X161922778Y-132476874I73728J67559D01*
G01*
X164861597Y-135684028D02*
G75*
G02*
X164720311Y-135677860I-67559J73727D01*
G01*
X169073959Y-131824111D02*
G75*
G02*
X169533102Y-131585091I675619J-737322D01*
G01*
X171221430Y-125380387D02*
G75*
G02*
X171362718Y-125386555I67560J-73721D01*
G01*
X171519281Y-131007542D02*
G75*
G02*
X171060132Y-131246560I-675841J737760D01*
G01*
X174166419Y-128446257D02*
G75*
G02*
X174160248Y-128587544I-73724J-67558D01*
G01*
%TO.C,S23*%
X187206385Y-43668895D02*
X187770201Y-43463685D01*
X187351831Y-44360881D02*
X187146621Y-43797066D01*
X188566002Y-47696791D02*
X188360789Y-47132977D01*
X188694173Y-47756558D02*
X189257988Y-47551346D01*
X192617390Y-46328624D02*
X194063010Y-45802461D01*
X194578678Y-45757346D02*
X196119018Y-46028949D01*
X196634683Y-45983834D02*
X198080305Y-45457672D01*
X197949110Y-40876250D02*
X198512925Y-40671038D01*
X198846308Y-41294616D02*
X198641096Y-40730805D01*
X199436897Y-44963913D02*
X200000713Y-44758701D01*
X200060480Y-44630529D02*
X199855268Y-44066714D01*
X187146621Y-43797066D02*
G75*
G02*
X187206386Y-43668898I93966J34202D01*
G01*
X188694173Y-47756558D02*
G75*
G02*
X188566002Y-47696791I-34202J93969D01*
G01*
X194063010Y-45802461D02*
G75*
G02*
X194578678Y-45757345I342024J-939724D01*
G01*
X196634683Y-45983834D02*
G75*
G02*
X196119018Y-46028949I-342066J940235D01*
G01*
X198512925Y-40671038D02*
G75*
G02*
X198641095Y-40730805I34200J-93972D01*
G01*
X200060480Y-44630529D02*
G75*
G02*
X200000713Y-44758701I-93968J-34203D01*
G01*
%TO.C,S28*%
X158105455Y-78994300D02*
X158659783Y-78764690D01*
X158280946Y-79679283D02*
X158051335Y-79124956D01*
X159639472Y-82959058D02*
X159409862Y-82404728D01*
X159770128Y-83013176D02*
X160324457Y-82783563D01*
X163627325Y-81415472D02*
X165048619Y-80826753D01*
X165561828Y-80759185D02*
X167112549Y-80963344D01*
X167625759Y-80895779D02*
X169047052Y-80307060D01*
X168716142Y-75735721D02*
X169270469Y-75506111D01*
X169630737Y-76114558D02*
X169401126Y-75560231D01*
X170380814Y-79754597D02*
X170935142Y-79524987D01*
X170989262Y-79394331D02*
X170759652Y-78840003D01*
X158051335Y-79124956D02*
G75*
G02*
X158105455Y-78994300I92388J38268D01*
G01*
X159770128Y-83013176D02*
G75*
G02*
X159639473Y-82959058I-38268J92388D01*
G01*
X165048619Y-80826753D02*
G75*
G02*
X165561828Y-80759185I382697J-923942D01*
G01*
X167625759Y-80895779D02*
G75*
G02*
X167112549Y-80963344I-382753J924414D01*
G01*
X169270469Y-75506111D02*
G75*
G02*
X169401125Y-75560231I38266J-92393D01*
G01*
X170989262Y-79394331D02*
G75*
G02*
X170935142Y-79524988I-92387J-38269D01*
G01*
%TO.C,S7*%
X91869958Y-79967804D02*
X92075167Y-79403989D01*
X91929722Y-80095976D02*
X92493538Y-80301186D01*
X93084126Y-76631896D02*
X93289338Y-76068080D01*
X93417505Y-76008310D02*
X93981325Y-76213525D01*
X95852939Y-81523909D02*
X97298559Y-82050073D01*
X97722583Y-82346977D02*
X98727969Y-83545149D01*
X99151994Y-83842049D02*
X100597613Y-84368223D01*
X101954204Y-84861976D02*
X102518020Y-85067188D01*
X102646188Y-85007418D02*
X102851402Y-84443605D01*
X103441992Y-80774313D02*
X104005805Y-80979524D01*
X103860367Y-81671511D02*
X104065572Y-81107696D01*
X91929722Y-80095976D02*
G75*
G02*
X91869954Y-79967803I34202J93970D01*
G01*
X93289338Y-76068080D02*
G75*
G02*
X93417505Y-76008311I93969J-34202D01*
G01*
X97298559Y-82050073D02*
G75*
G02*
X97722583Y-82346977I-342021J-939695D01*
G01*
X99151994Y-83842049D02*
G75*
G02*
X98727969Y-83545149I342364J940196D01*
G01*
X102646188Y-85007418D02*
G75*
G02*
X102518020Y-85067189I-93971J34202D01*
G01*
X104005805Y-80979524D02*
G75*
G02*
X104065572Y-81107696I-34195J-93966D01*
G01*
%TO.C,D4*%
X231313215Y-100407535D02*
X231699585Y-100304003D01*
X231699585Y-100304003D02*
X231557234Y-99772742D01*
X231699585Y-100304003D02*
X231841932Y-100835264D01*
X231699585Y-100304003D02*
X232175610Y-99762341D01*
X232175610Y-99762341D02*
X232382668Y-100535080D01*
X232279140Y-100148711D02*
X232762103Y-100019297D01*
X232382668Y-100535080D02*
X231699585Y-100304003D01*
%TO.C,SW23*%
X196225434Y-69837352D02*
X196977188Y-69563733D01*
X196601311Y-69700541D02*
X196430296Y-69230695D01*
X196806523Y-70264356D02*
X196225434Y-69837352D01*
X196806523Y-70264356D02*
X196289692Y-70452467D01*
X196806523Y-70264356D02*
X197323351Y-70076242D01*
X196943336Y-70640233D02*
X196806523Y-70264356D01*
X196977188Y-69563733D02*
X196806523Y-70264356D01*
%TO.C,SW24*%
X189727049Y-51983187D02*
X190478803Y-51709568D01*
X190102926Y-51846376D02*
X189931911Y-51376530D01*
X190308138Y-52410191D02*
X189727049Y-51983187D01*
X190308138Y-52410191D02*
X189791307Y-52598302D01*
X190308138Y-52410191D02*
X190824966Y-52222077D01*
X190444951Y-52786068D02*
X190308138Y-52410191D01*
X190478803Y-51709568D02*
X190308138Y-52410191D01*
%TO.C,S20*%
X212443663Y-46116397D02*
X213023219Y-45961105D01*
X212528245Y-46818426D02*
X212372955Y-46238871D01*
X213447052Y-50247463D02*
X213291756Y-49667909D01*
X213569526Y-50318174D02*
X214149087Y-50162884D01*
X217602268Y-49237604D02*
X219088244Y-48839438D01*
X219605881Y-48839435D02*
X221116688Y-49244257D01*
X221634325Y-49244255D02*
X223120304Y-48846091D01*
X223388904Y-44270668D02*
X223968459Y-44115377D01*
X224246224Y-44765639D02*
X224090934Y-44186089D01*
X224514761Y-48472444D02*
X225094322Y-48317154D01*
X225165033Y-48194680D02*
X225009741Y-47615124D01*
X212372955Y-46238871D02*
G75*
G02*
X212443664Y-46116399I96590J25882D01*
G01*
X213569526Y-50318174D02*
G75*
G02*
X213447051Y-50247463I-25882J96593D01*
G01*
X219088244Y-48839438D02*
G75*
G02*
X219605881Y-48839435I258825J-966003D01*
G01*
X221634325Y-49244255D02*
G75*
G02*
X221116688Y-49244257I-258822J966475D01*
G01*
X223968459Y-44115377D02*
G75*
G02*
X224090934Y-44186089I25881J-96595D01*
G01*
X225165033Y-48194680D02*
G75*
G02*
X225094322Y-48317154I-96592J-25882D01*
G01*
%TO.C,SW25*%
X188234741Y-103324695D02*
X188973844Y-103018545D01*
X188604292Y-103171618D02*
X188412950Y-102709678D01*
X188833902Y-103725946D02*
X188234741Y-103324695D01*
X188833902Y-103725946D02*
X188325768Y-103936422D01*
X188833902Y-103725946D02*
X189342029Y-103515469D01*
X188973844Y-103018545D02*
X188833902Y-103725946D01*
X188986976Y-104095498D02*
X188833902Y-103725946D01*
%TO.C,D2*%
X90731197Y-95595806D02*
X91107074Y-95732616D01*
X91107074Y-95732616D02*
X90918963Y-96249447D01*
X91107074Y-95732616D02*
X91295186Y-95215788D01*
X91107074Y-95732616D02*
X91807697Y-95561951D01*
X91534078Y-96313705D02*
X91107074Y-95732616D01*
X91670889Y-95937828D02*
X92140735Y-96108840D01*
X91807697Y-95561951D02*
X91534078Y-96313705D01*
%TO.C,SW6*%
X87873792Y-54411688D02*
X88646529Y-54618749D01*
X88001337Y-55481144D02*
X88104867Y-55094774D01*
X88104867Y-55094774D02*
X87573606Y-54952426D01*
X88104867Y-55094774D02*
X87873792Y-54411688D01*
X88104867Y-55094774D02*
X88636128Y-55237125D01*
X88260159Y-54515219D02*
X88389571Y-54032256D01*
X88646529Y-54618749D02*
X88104867Y-55094774D01*
%TO.C,S4*%
X69886893Y-84351510D02*
X70042184Y-83771954D01*
X69957603Y-84473984D02*
X70537159Y-84629276D01*
X70805700Y-80922473D02*
X70960992Y-80342918D01*
X71083462Y-80272205D02*
X71663022Y-80427497D01*
X73990344Y-85554554D02*
X75476322Y-85952716D01*
X75924609Y-86211539D02*
X77030596Y-87317526D01*
X77478886Y-87576340D02*
X78964861Y-87974520D01*
X80359331Y-88348159D02*
X80938879Y-88503448D01*
X81061348Y-88432738D02*
X81216644Y-87853182D01*
X81485187Y-84146380D02*
X82064742Y-84301671D01*
X81980157Y-85003701D02*
X82135451Y-84424146D01*
X69957603Y-84473984D02*
G75*
G02*
X69886893Y-84351510I25882J96592D01*
G01*
X70960992Y-80342918D02*
G75*
G02*
X71083462Y-80272207I96592J-25882D01*
G01*
X75476322Y-85952716D02*
G75*
G02*
X75924609Y-86211539I-258750J-965796D01*
G01*
X77478886Y-87576340D02*
G75*
G02*
X77030596Y-87317526I259111J966452D01*
G01*
X81061348Y-88432738D02*
G75*
G02*
X80938879Y-88503448I-96596J25891D01*
G01*
X82064742Y-84301671D02*
G75*
G02*
X82135451Y-84424146I-25880J-96590D01*
G01*
%TO.C,S3*%
X58313309Y-53817451D02*
X58468600Y-53237895D01*
X58384019Y-53939925D02*
X58963575Y-54095217D01*
X59232116Y-50388414D02*
X59387408Y-49808859D01*
X59509878Y-49738146D02*
X60089438Y-49893438D01*
X62416760Y-55020495D02*
X63902738Y-55418657D01*
X64351025Y-55677480D02*
X65457012Y-56783467D01*
X65905302Y-57042281D02*
X67391277Y-57440461D01*
X68785747Y-57814100D02*
X69365295Y-57969389D01*
X69487764Y-57898679D02*
X69643060Y-57319123D01*
X69911603Y-53612321D02*
X70491158Y-53767612D01*
X70406573Y-54469642D02*
X70561867Y-53890087D01*
X58384019Y-53939925D02*
G75*
G02*
X58313309Y-53817451I25882J96592D01*
G01*
X59387408Y-49808859D02*
G75*
G02*
X59509878Y-49738148I96592J-25882D01*
G01*
X63902738Y-55418657D02*
G75*
G02*
X64351025Y-55677480I-258750J-965796D01*
G01*
X65905302Y-57042281D02*
G75*
G02*
X65457012Y-56783467I259111J966452D01*
G01*
X69487764Y-57898679D02*
G75*
G02*
X69365295Y-57969389I-96596J25891D01*
G01*
X70491158Y-53767612D02*
G75*
G02*
X70561867Y-53890087I-25880J-96590D01*
G01*
%TO.C,SW12*%
X128431636Y-68988069D02*
X128584710Y-68618517D01*
X128444768Y-67911116D02*
X129183872Y-68217264D01*
X128584710Y-68618517D02*
X128076578Y-68408041D01*
X128584710Y-68618517D02*
X128444768Y-67911116D01*
X128584710Y-68618517D02*
X129092844Y-68828993D01*
X128814320Y-68064189D02*
X129005662Y-67602249D01*
X129183872Y-68217264D02*
X128584710Y-68618517D01*
%TO.C,D6*%
X176628987Y-112804273D02*
X176998539Y-112651199D01*
X176998539Y-112651199D02*
X176788063Y-112143065D01*
X176998539Y-112651199D02*
X177209016Y-113159326D01*
X176998539Y-112651199D02*
X177399790Y-112052038D01*
X177399790Y-112052038D02*
X177705940Y-112791141D01*
X177552867Y-112421589D02*
X178014807Y-112230247D01*
X177705940Y-112791141D02*
X176998539Y-112651199D01*
%TO.C,I5*%
X211710671Y-98786966D02*
X212086548Y-98650153D01*
X212086548Y-98650153D02*
X211898437Y-98133322D01*
X212086548Y-98650153D02*
X212274662Y-99166981D01*
X212086548Y-98650153D02*
X212513552Y-98069064D01*
X212513552Y-98069064D02*
X212787171Y-98820818D01*
X212650363Y-98444941D02*
X213120209Y-98273926D01*
X212787171Y-98820818D02*
X212086548Y-98650153D01*
%TO.C,S13*%
X126681198Y-96666797D02*
X126910808Y-96112470D01*
X126735318Y-96797454D02*
X127289646Y-97027063D01*
X128039724Y-93387025D02*
X128269334Y-92832697D01*
X128399986Y-92778575D02*
X128954318Y-93008188D01*
X130592515Y-98395156D02*
X132013804Y-98983876D01*
X132424478Y-99298994D02*
X133376645Y-100539877D01*
X133787315Y-100854993D02*
X135208606Y-101443723D01*
X136542368Y-101996175D02*
X137096697Y-102225789D01*
X137227355Y-102171675D02*
X137456962Y-101617342D01*
X138207042Y-97977303D02*
X138761369Y-98206913D01*
X138585881Y-98891895D02*
X138815487Y-98337570D01*
X126735318Y-96797454D02*
G75*
G02*
X126681198Y-96666797I38268J92388D01*
G01*
X128269334Y-92832697D02*
G75*
G02*
X128399986Y-92778576I92388J-38269D01*
G01*
X132013804Y-98983876D02*
G75*
G02*
X132424478Y-99298994I-382679J-923884D01*
G01*
X133787315Y-100854993D02*
G75*
G02*
X133376645Y-100539877I383025J924329D01*
G01*
X137227355Y-102171675D02*
G75*
G02*
X137096697Y-102225789I-92383J38264D01*
G01*
X138761369Y-98206913D02*
G75*
G02*
X138815487Y-98337570I-38275J-92390D01*
G01*
%TO.C,SW14*%
X141138024Y-87961529D02*
X141291098Y-87591977D01*
X141151156Y-86884576D02*
X141890260Y-87190724D01*
X141291098Y-87591977D02*
X140782966Y-87381501D01*
X141291098Y-87591977D02*
X141151156Y-86884576D01*
X141291098Y-87591977D02*
X141799232Y-87802453D01*
X141520708Y-87037649D02*
X141712050Y-86575709D01*
X141890260Y-87190724D02*
X141291098Y-87591977D01*
%TO.C,I3*%
X123771186Y-114863306D02*
X124140738Y-115016380D01*
X124140738Y-115016380D02*
X123930262Y-115524514D01*
X124140738Y-115016380D02*
X124351214Y-114508248D01*
X124140738Y-115016380D02*
X124848139Y-114876438D01*
X124541991Y-115615542D02*
X124140738Y-115016380D01*
X124695066Y-115245990D02*
X125157006Y-115437332D01*
X124848139Y-114876438D02*
X124541991Y-115615542D01*
%TO.C,S21*%
X200203147Y-79377214D02*
X200766963Y-79172004D01*
X200348593Y-80069200D02*
X200143383Y-79505385D01*
X201562764Y-83405110D02*
X201357551Y-82841296D01*
X201690935Y-83464877D02*
X202254750Y-83259665D01*
X205614152Y-82036943D02*
X207059772Y-81510780D01*
X207575440Y-81465665D02*
X209115780Y-81737268D01*
X209631445Y-81692153D02*
X211077067Y-81165991D01*
X210945872Y-76584569D02*
X211509687Y-76379357D01*
X211843070Y-77002935D02*
X211637858Y-76439124D01*
X212433659Y-80672232D02*
X212997475Y-80467020D01*
X213057242Y-80338848D02*
X212852030Y-79775033D01*
X200143383Y-79505385D02*
G75*
G02*
X200203148Y-79377217I93966J34202D01*
G01*
X201690935Y-83464877D02*
G75*
G02*
X201562764Y-83405110I-34202J93969D01*
G01*
X207059772Y-81510780D02*
G75*
G02*
X207575440Y-81465664I342024J-939724D01*
G01*
X209631445Y-81692153D02*
G75*
G02*
X209115780Y-81737268I-342066J940235D01*
G01*
X211509687Y-76379357D02*
G75*
G02*
X211637857Y-76439124I34200J-93972D01*
G01*
X213057242Y-80338848D02*
G75*
G02*
X212997475Y-80467020I-93968J-34203D01*
G01*
%TO.C,SW13*%
X133867035Y-105515245D02*
X134020109Y-105145693D01*
X133880167Y-104438292D02*
X134619271Y-104744440D01*
X134020109Y-105145693D02*
X133511977Y-104935217D01*
X134020109Y-105145693D02*
X133880167Y-104438292D01*
X134020109Y-105145693D02*
X134528243Y-105356169D01*
X134249719Y-104591365D02*
X134441061Y-104129425D01*
X134619271Y-104744440D02*
X134020109Y-105145693D01*
%TO.C,S18*%
X222278788Y-82821581D02*
X222858344Y-82666289D01*
X222363370Y-83523610D02*
X222208080Y-82944055D01*
X223282177Y-86952647D02*
X223126881Y-86373093D01*
X223404651Y-87023358D02*
X223984212Y-86868068D01*
X227437393Y-85942788D02*
X228923369Y-85544622D01*
X229441006Y-85544619D02*
X230951813Y-85949441D01*
X231469450Y-85949439D02*
X232955429Y-85551275D01*
X233224029Y-80975852D02*
X233803584Y-80820561D01*
X234081349Y-81470823D02*
X233926059Y-80891273D01*
X234349886Y-85177628D02*
X234929447Y-85022338D01*
X235000158Y-84899864D02*
X234844866Y-84320308D01*
X222208080Y-82944055D02*
G75*
G02*
X222278789Y-82821583I96590J25882D01*
G01*
X223404651Y-87023358D02*
G75*
G02*
X223282176Y-86952647I-25882J96593D01*
G01*
X228923369Y-85544622D02*
G75*
G02*
X229441006Y-85544619I258825J-966003D01*
G01*
X231469450Y-85949439D02*
G75*
G02*
X230951813Y-85949441I-258822J966475D01*
G01*
X233803584Y-80820561D02*
G75*
G02*
X233926059Y-80891273I25881J-96595D01*
G01*
X235000158Y-84899864D02*
G75*
G02*
X234929447Y-85022338I-96592J-25882D01*
G01*
%TO.C,SW3*%
X66465074Y-60582801D02*
X67237811Y-60789862D01*
X66592619Y-61652257D02*
X66696149Y-61265887D01*
X66696149Y-61265887D02*
X66164888Y-61123539D01*
X66696149Y-61265887D02*
X66465074Y-60582801D01*
X66696149Y-61265887D02*
X67227410Y-61408238D01*
X66851441Y-60686332D02*
X66980853Y-60203369D01*
X67237811Y-60789862D02*
X66696149Y-61265887D01*
%TD*%
M02*
