%TF.GenerationSoftware,KiCad,Pcbnew,8.0.7*%
%TF.CreationDate,2024-12-24T09:40:09-07:00*%
%TF.ProjectId,chuck,63687563-6b2e-46b6-9963-61645f706362,v1.0*%
%TF.SameCoordinates,Original*%
%TF.FileFunction,Soldermask,Bot*%
%TF.FilePolarity,Negative*%
%FSLAX46Y46*%
G04 Gerber Fmt 4.6, Leading zero omitted, Abs format (unit mm)*
G04 Created by KiCad (PCBNEW 8.0.7) date 2024-12-24 09:40:09*
%MOMM*%
%LPD*%
G01*
G04 APERTURE LIST*
G04 Aperture macros list*
%AMRoundRect*
0 Rectangle with rounded corners*
0 $1 Rounding radius*
0 $2 $3 $4 $5 $6 $7 $8 $9 X,Y pos of 4 corners*
0 Add a 4 corners polygon primitive as box body*
4,1,4,$2,$3,$4,$5,$6,$7,$8,$9,$2,$3,0*
0 Add four circle primitives for the rounded corners*
1,1,$1+$1,$2,$3*
1,1,$1+$1,$4,$5*
1,1,$1+$1,$6,$7*
1,1,$1+$1,$8,$9*
0 Add four rect primitives between the rounded corners*
20,1,$1+$1,$2,$3,$4,$5,0*
20,1,$1+$1,$4,$5,$6,$7,0*
20,1,$1+$1,$6,$7,$8,$9,0*
20,1,$1+$1,$8,$9,$2,$3,0*%
%AMFreePoly0*
4,1,15,0.975355,0.935355,1.335355,0.575355,1.350000,0.540000,1.350000,-0.900000,1.335355,-0.935355,1.300000,-0.950000,-1.300000,-0.950000,-1.335355,-0.935355,-1.350000,-0.900000,-1.350000,0.540000,-1.335355,0.575355,-0.975355,0.935355,-0.940000,0.950000,0.940000,0.950000,0.975355,0.935355,0.975355,0.935355,$1*%
%AMFreePoly1*
4,1,15,1.335355,0.935355,1.350000,0.900000,1.350000,-0.540000,1.335355,-0.575355,0.975355,-0.935355,0.940000,-0.950000,-0.940000,-0.950000,-0.975355,-0.935355,-1.335355,-0.575355,-1.350000,-0.540000,-1.350000,0.900000,-1.335355,0.935355,-1.300000,0.950000,1.300000,0.950000,1.335355,0.935355,1.335355,0.935355,$1*%
G04 Aperture macros list end*
%ADD10RoundRect,0.050000X-0.450000X-0.450000X0.450000X-0.450000X0.450000X0.450000X-0.450000X0.450000X0*%
%ADD11C,1.100000*%
%ADD12RoundRect,0.050000X-0.450000X-0.625000X0.450000X-0.625000X0.450000X0.625000X-0.450000X0.625000X0*%
%ADD13C,0.800000*%
%ADD14C,4.500000*%
%ADD15FreePoly0,270.000000*%
%ADD16FreePoly1,270.000000*%
%ADD17O,2.850000X1.900000*%
%ADD18RoundRect,0.050000X1.375000X0.900000X-1.375000X0.900000X-1.375000X-0.900000X1.375000X-0.900000X0*%
%ADD19C,2.100000*%
%ADD20C,0.850000*%
%ADD21RoundRect,0.050000X-0.619183X-0.683548X0.878002X-0.282378X0.619183X0.683548X-0.878002X0.282378X0*%
%ADD22RoundRect,0.050000X-1.000000X-1.000000X1.000000X-1.000000X1.000000X1.000000X-1.000000X1.000000X0*%
%ADD23RoundRect,0.050000X0.424264X-0.734847X0.734847X0.424264X-0.424264X0.734847X-0.734847X-0.424264X0*%
%ADD24RoundRect,0.050000X0.298836X0.640856X-0.640856X0.298836X-0.298836X-0.640856X0.640856X-0.298836X0*%
%ADD25RoundRect,0.250000X0.755403X1.237686X-1.273041X0.694166X-0.755403X-1.237686X1.273041X-0.694166X0*%
%ADD26C,5.700000*%
%ADD27C,3.600000*%
%ADD28RoundRect,0.050000X0.270598X0.653281X-0.653281X0.270598X-0.270598X-0.653281X0.653281X-0.270598X0*%
%ADD29RoundRect,0.250000X1.273041X0.694166X-0.755403X1.237686X-1.273041X-0.694166X0.755403X-1.237686X0*%
%ADD30RoundRect,0.050000X0.579228X-0.405580X0.405580X0.579228X-0.579228X0.405580X-0.405580X-0.579228X0*%
%ADD31RoundRect,0.050000X-0.298836X0.640856X-0.640856X-0.298836X0.298836X-0.640856X0.640856X0.298836X0*%
%ADD32RoundRect,0.050000X0.734847X-0.424264X0.424264X0.734847X-0.734847X0.424264X-0.424264X-0.734847X0*%
%ADD33RoundRect,0.250000X0.587390X1.325697X-1.352757X0.522062X-0.587390X-1.325697X1.352757X-0.522062X0*%
%ADD34RoundRect,0.250000X1.352757X0.522062X-0.587390X1.325697X-1.352757X-0.522062X0.587390X-1.325697X0*%
%ADD35RoundRect,0.050000X0.640856X0.298836X-0.298836X0.640856X-0.640856X-0.298836X0.298836X-0.640856X0*%
%ADD36RoundRect,0.050000X0.612372X-0.353553X0.353553X0.612372X-0.612372X0.353553X-0.353553X-0.612372X0*%
%ADD37RoundRect,0.050000X-0.353553X0.612372X-0.612372X-0.353553X0.353553X-0.612372X0.612372X0.353553X0*%
%ADD38RoundRect,0.050000X-0.270598X0.653281X-0.653281X-0.270598X0.270598X-0.653281X0.653281X0.270598X0*%
%ADD39RoundRect,0.250000X0.860400X1.167138X-1.207696X0.802477X-0.860400X-1.167138X1.207696X-0.802477X0*%
%ADD40RoundRect,0.050000X0.847721X-0.037012X0.037012X0.847721X-0.847721X0.037012X-0.037012X-0.847721X0*%
%ADD41RoundRect,0.250000X0.644657X1.298814X-1.328697X0.580571X-0.644657X-1.298814X1.328697X-0.580571X0*%
%ADD42RoundRect,0.050000X0.353553X0.612372X-0.612372X0.353553X-0.353553X-0.612372X0.612372X-0.353553X0*%
%ADD43RoundRect,0.050000X0.612372X0.353553X-0.353553X0.612372X-0.612372X-0.353553X0.353553X-0.612372X0*%
%ADD44RoundRect,0.250000X1.328697X0.580571X-0.644657X1.298814X-1.328697X-0.580571X0.644657X-1.298814X0*%
%ADD45RoundRect,0.250000X0.098551X1.446647X-1.449731X0.027908X-0.098551X-1.446647X1.449731X-0.027908X0*%
%ADD46RoundRect,0.250000X1.207696X0.802477X-0.860400X1.167138X-1.207696X-0.802477X0.860400X-1.167138X0*%
%ADD47RoundRect,0.050000X-0.405580X0.579228X-0.579228X-0.405580X0.405580X-0.579228X0.579228X0.405580X0*%
%ADD48RoundRect,0.050000X0.653281X-0.270598X0.270598X0.653281X-0.653281X0.270598X-0.270598X-0.653281X0*%
%ADD49RoundRect,0.050000X0.640856X-0.298836X0.298836X0.640856X-0.640856X0.298836X-0.298836X-0.640856X0*%
%ADD50RoundRect,0.050000X0.037012X-0.847721X0.847721X0.037012X-0.037012X0.847721X-0.847721X-0.037012X0*%
%ADD51RoundRect,0.050000X0.653281X0.270598X-0.270598X0.653281X-0.653281X-0.270598X0.270598X-0.653281X0*%
%ADD52RoundRect,0.250000X1.449731X0.027908X-0.098551X1.446647X-1.449731X-0.027908X0.098551X-1.446647X0*%
G04 APERTURE END LIST*
D10*
%TO.C,T1*%
X178280214Y-32279189D03*
X178280215Y-34479194D03*
D11*
X180480220Y-33379193D03*
X183480210Y-33379189D03*
D10*
X185680215Y-32279188D03*
X185680216Y-34479193D03*
D12*
X179730216Y-35454191D03*
X182730210Y-35454192D03*
X184230213Y-35454193D03*
%TD*%
D13*
%TO.C,*%
X152330207Y-140440197D03*
X152813480Y-139273470D03*
X152813483Y-141606925D03*
X153980208Y-138790194D03*
D14*
X153980209Y-140440196D03*
D13*
X153980210Y-142090198D03*
X155146935Y-139273467D03*
X155146938Y-141606922D03*
X155630211Y-140440195D03*
%TD*%
%TO.C,*%
X185103340Y-132877932D03*
X184671422Y-131691236D03*
X186247879Y-133411635D03*
X187434575Y-132979717D03*
D14*
X186319850Y-131763207D03*
D13*
X185205125Y-130546697D03*
X186391821Y-130114779D03*
X187968278Y-131835178D03*
X187536360Y-130648482D03*
%TD*%
%TO.C,*%
X53409003Y-67205433D03*
X54087535Y-66140350D03*
X53682335Y-68438352D03*
X55320454Y-65867018D03*
D14*
X55033936Y-67491951D03*
D13*
X54747418Y-69116884D03*
X56385537Y-66545550D03*
X55980337Y-68843552D03*
X56658869Y-67778469D03*
%TD*%
%TO.C,*%
X190919018Y-37057671D03*
X190974102Y-35796020D03*
X191772192Y-37988746D03*
X191905177Y-34942846D03*
D14*
X192469510Y-36493338D03*
D13*
X193033843Y-38043830D03*
X193166828Y-34997930D03*
X193964918Y-37190656D03*
X194020002Y-35929005D03*
%TD*%
%TO.C,*%
X251301577Y-67778464D03*
X251574910Y-66545544D03*
X251980111Y-68843545D03*
X252639991Y-65867010D03*
D14*
X252926511Y-67491944D03*
D13*
X253213031Y-69116878D03*
X253872911Y-66140343D03*
X254278112Y-68438344D03*
X254551445Y-67205424D03*
%TD*%
D15*
%TO.C,ENC1*%
X148380221Y-115740203D03*
D16*
X159580221Y-115740205D03*
%TD*%
D17*
%TO.C,MCU1*%
X124860218Y-34109192D03*
X124860218Y-36649194D03*
X124860216Y-39189191D03*
X124860222Y-41729193D03*
X124860218Y-44269193D03*
X124860219Y-46809193D03*
X124860219Y-49349192D03*
X141100216Y-49349192D03*
X141100216Y-46809190D03*
X141100218Y-44269193D03*
X141100212Y-41729191D03*
X141100216Y-39189191D03*
D18*
X141100215Y-36649191D03*
D17*
X141100215Y-34109192D03*
%TD*%
D13*
%TO.C,*%
X113940453Y-35928998D03*
X114793624Y-34997921D03*
X113995538Y-37190649D03*
X116055275Y-34942836D03*
D14*
X115490945Y-36493328D03*
D13*
X114926615Y-38043820D03*
X116986352Y-35796007D03*
X116188266Y-37988735D03*
X117041437Y-37057658D03*
%TD*%
%TO.C,*%
X209122102Y-54908382D03*
X209177186Y-53646731D03*
X209975276Y-55839457D03*
X210108261Y-52793557D03*
D14*
X210672594Y-54344049D03*
D13*
X211236927Y-55894541D03*
X211369912Y-52848641D03*
X212168002Y-55041367D03*
X212223086Y-53779716D03*
%TD*%
D19*
%TO.C,PAD2*%
X136980226Y-55479191D03*
%TD*%
D13*
%TO.C,*%
X241827618Y-107629030D03*
X242100951Y-106396110D03*
X242506152Y-108694111D03*
X243166032Y-105717576D03*
D14*
X243452552Y-107342510D03*
D13*
X243739072Y-108967444D03*
X244398952Y-105990909D03*
X244804153Y-108288910D03*
X245077486Y-107055990D03*
%TD*%
D19*
%TO.C,PAD3*%
X170980219Y-51179192D03*
%TD*%
D13*
%TO.C,*%
X62882958Y-107055983D03*
X63561490Y-105990900D03*
X63156290Y-108288902D03*
X64794409Y-105717568D03*
D14*
X64507891Y-107342501D03*
D13*
X64221373Y-108967434D03*
X65859492Y-106396100D03*
X65454292Y-108694102D03*
X66132824Y-107629019D03*
%TD*%
%TO.C,*%
X120424078Y-130648492D03*
X121568616Y-130114785D03*
X119992159Y-131835186D03*
X122755310Y-130546704D03*
D14*
X121640588Y-131763214D03*
D13*
X120525866Y-132979724D03*
X123289017Y-131691242D03*
X121712560Y-133411643D03*
X122857098Y-132877936D03*
%TD*%
%TO.C,*%
X95737364Y-53779724D03*
X96590535Y-52848647D03*
X95792449Y-55041375D03*
X97852186Y-52793562D03*
D14*
X97287856Y-54344054D03*
D13*
X96723526Y-55894546D03*
X98783263Y-53646733D03*
X97985177Y-55839461D03*
X98838348Y-54908384D03*
%TD*%
D19*
%TO.C,PAD1*%
X128980220Y-55479187D03*
%TD*%
D13*
%TO.C,*%
X152330226Y-35179194D03*
X152813499Y-34012467D03*
X152813502Y-36345922D03*
X153980227Y-33529191D03*
D14*
X153980228Y-35179193D03*
D13*
X153980229Y-36829195D03*
X155146954Y-34012464D03*
X155146957Y-36345919D03*
X155630230Y-35179192D03*
%TD*%
D20*
%TO.C,B1*%
X237005657Y-47523212D03*
X236293909Y-44866912D03*
D21*
X233894232Y-46053425D03*
X238965341Y-44694625D03*
X234334225Y-47695499D03*
X239405334Y-46336699D03*
%TD*%
D22*
%TO.C,PAD4*%
X174480221Y-46179201D03*
%TD*%
D23*
%TO.C,SW1*%
X68901583Y-62269280D03*
X69755681Y-59081724D03*
%TD*%
D24*
%TO.C,DA5*%
X215508017Y-97013515D03*
X213722601Y-97663353D03*
X215299351Y-99217818D03*
%TD*%
D25*
%TO.C,S20*%
X228353137Y-45621004D03*
D26*
X221793886Y-52244348D03*
D25*
X214268638Y-48307889D03*
D27*
X224827509Y-46565695D03*
X217794272Y-47363203D03*
%TD*%
D28*
%TO.C,DA6*%
X181449444Y-113610578D03*
X179694074Y-114337676D03*
X181337125Y-115821883D03*
%TD*%
D29*
%TO.C,S4*%
X85323577Y-86493185D03*
D26*
X76331424Y-88949543D03*
D29*
X71782597Y-81777851D03*
D27*
X81797946Y-85548495D03*
X75308227Y-82722539D03*
%TD*%
D29*
%TO.C,S5*%
X90241135Y-68140584D03*
D26*
X81248982Y-70596942D03*
D29*
X76700155Y-63425250D03*
D27*
X86715504Y-67195894D03*
X80225785Y-64369938D03*
%TD*%
D30*
%TO.C,DC7*%
X245677564Y-82529166D03*
X245347633Y-80658030D03*
X243542990Y-81940893D03*
%TD*%
D31*
%TO.C,DC4*%
X115384025Y-51406128D03*
X114734185Y-53191545D03*
X116938490Y-52982873D03*
%TD*%
D32*
%TO.C,SW4*%
X239058848Y-62269273D03*
X238204744Y-59081715D03*
%TD*%
D29*
%TO.C,S3*%
X73749983Y-55959124D03*
D26*
X64757830Y-58415482D03*
D29*
X60209003Y-51243790D03*
D27*
X70224352Y-55014434D03*
X63734633Y-52188478D03*
%TD*%
D33*
%TO.C,S24*%
X201117196Y-92890133D03*
D26*
X195478582Y-100312970D03*
D33*
X187503905Y-97392433D03*
D27*
X197745038Y-94286932D03*
X190876069Y-95995639D03*
%TD*%
D34*
%TO.C,S10*%
X121717707Y-99051338D03*
D26*
X112481864Y-100312972D03*
D34*
X108908052Y-92608891D03*
D27*
X118345542Y-97654545D03*
X112280210Y-94005687D03*
%TD*%
D35*
%TO.C,DA2*%
X94237834Y-97663350D03*
X92452417Y-97013510D03*
X92661089Y-99217815D03*
%TD*%
D33*
%TO.C,S28*%
X173868839Y-76756166D03*
D26*
X168230225Y-84179003D03*
D33*
X160255548Y-81258466D03*
D27*
X170496681Y-78152965D03*
X163627712Y-79861672D03*
%TD*%
D36*
%TO.C,DC8*%
X222515948Y-74257564D03*
X222024194Y-72422303D03*
X220338224Y-73857574D03*
%TD*%
D33*
%TO.C,S26*%
X186575231Y-57782714D03*
D26*
X180936617Y-65205551D03*
D33*
X172961940Y-62285014D03*
D27*
X183203073Y-59179513D03*
X176334104Y-60888220D03*
%TD*%
D37*
%TO.C,DC2*%
X85936254Y-72422307D03*
X85444498Y-74257566D03*
X87622232Y-73857572D03*
%TD*%
D38*
%TO.C,DC6*%
X144139142Y-86600552D03*
X143412044Y-88355920D03*
X145623354Y-88243602D03*
%TD*%
D34*
%TO.C,S11*%
X128988689Y-81497625D03*
D26*
X119752846Y-82759259D03*
D34*
X116179034Y-75055178D03*
D27*
X125616524Y-80100832D03*
X119551192Y-76451974D03*
%TD*%
D39*
%TO.C,S16*%
X257287717Y-73221679D03*
D26*
X250176160Y-79248144D03*
D39*
X243022636Y-74670801D03*
D27*
X253693163Y-73855499D03*
X246617179Y-74036984D03*
%TD*%
D34*
%TO.C,S12*%
X136259672Y-63943924D03*
D26*
X127023829Y-65205558D03*
D34*
X123450017Y-57501477D03*
D27*
X132887507Y-62547131D03*
X126822175Y-58898273D03*
%TD*%
D32*
%TO.C,SW5*%
X217650135Y-56098166D03*
X216796031Y-52910608D03*
%TD*%
D34*
%TO.C,S14*%
X148966073Y-82917386D03*
D26*
X139730230Y-84179020D03*
D34*
X136156418Y-76474939D03*
D27*
X145593908Y-81520593D03*
X139528576Y-77871735D03*
%TD*%
D40*
%TO.C,SW6*%
X171553763Y-140071954D03*
X169324313Y-137638934D03*
%TD*%
D41*
%TO.C,S23*%
X203043806Y-42009375D03*
D26*
X197086783Y-49179191D03*
D41*
X189247087Y-45913585D03*
D27*
X199613934Y-43257750D03*
X192676969Y-44665210D03*
%TD*%
D25*
%TO.C,S18*%
X238188286Y-82326193D03*
D26*
X231629035Y-88949537D03*
D25*
X224103787Y-85013078D03*
D27*
X234662658Y-83270884D03*
X227629421Y-84068392D03*
%TD*%
D42*
%TO.C,DA4*%
X235976007Y-101502180D03*
X234140746Y-101993934D03*
X235576017Y-103679904D03*
%TD*%
D43*
%TO.C,DA1*%
X73819706Y-101993939D03*
X71984447Y-101502183D03*
X72384441Y-103679917D03*
%TD*%
D41*
%TO.C,S22*%
X209542184Y-59863527D03*
D26*
X203585161Y-67033343D03*
D41*
X195745465Y-63767737D03*
D27*
X206112312Y-61111902D03*
X199175347Y-62519362D03*
%TD*%
D25*
%TO.C,S19*%
X233270715Y-63973612D03*
D26*
X226711464Y-70596956D03*
D25*
X219186216Y-66660497D03*
D27*
X229745087Y-64918303D03*
X222711850Y-65715811D03*
%TD*%
D44*
%TO.C,S9*%
X120045683Y-47515895D03*
D26*
X110873663Y-49179193D03*
D44*
X106967200Y-41638334D03*
D27*
X116615801Y-46267524D03*
X110397081Y-42886707D03*
%TD*%
D33*
%TO.C,S27*%
X181139822Y-94309872D03*
D26*
X175501208Y-101732709D03*
D33*
X167526531Y-98812172D03*
D27*
X177767664Y-95706671D03*
X170898695Y-97415378D03*
%TD*%
D45*
%TO.C,S30*%
X176209625Y-125836480D03*
D26*
X173449817Y-134740183D03*
D45*
X164957192Y-134723276D03*
D27*
X173518563Y-128302391D03*
X167648250Y-132257373D03*
%TD*%
D41*
%TO.C,S21*%
X216040570Y-77717693D03*
D26*
X210083547Y-84887509D03*
D41*
X202243851Y-81621903D03*
D27*
X212610698Y-78966068D03*
X205673733Y-80373528D03*
%TD*%
D46*
%TO.C,S2*%
X66528122Y-76017419D03*
D26*
X57784274Y-79248148D03*
D46*
X52627701Y-72500202D03*
D27*
X62933568Y-75383605D03*
X56222252Y-73134018D03*
%TD*%
D46*
%TO.C,S1*%
X63228797Y-94728772D03*
D26*
X54484949Y-97959501D03*
D46*
X49328376Y-91211555D03*
D27*
X59634243Y-94094958D03*
X52922927Y-91845371D03*
%TD*%
D47*
%TO.C,DC1*%
X62612808Y-80658028D03*
X62282874Y-82529160D03*
X64417450Y-81940888D03*
%TD*%
D44*
%TO.C,S8*%
X113547303Y-65370059D03*
D26*
X104375283Y-67033357D03*
D44*
X100468820Y-59492498D03*
D27*
X110117421Y-64121688D03*
X103898701Y-60740871D03*
%TD*%
D48*
%TO.C,DC12*%
X164548398Y-88355925D03*
X163821300Y-86600555D03*
X162337093Y-88243606D03*
%TD*%
D49*
%TO.C,DC10*%
X193226265Y-53191534D03*
X192576427Y-51406118D03*
X191021962Y-52982868D03*
%TD*%
D33*
%TO.C,S25*%
X193846206Y-75336416D03*
D26*
X188207592Y-82759253D03*
D33*
X180232915Y-79838716D03*
D27*
X190474048Y-76733215D03*
X183605079Y-78441922D03*
%TD*%
D31*
%TO.C,DC3*%
X102387253Y-87114444D03*
X101737413Y-88899861D03*
X103941718Y-88691189D03*
%TD*%
D49*
%TO.C,DC9*%
X206223035Y-88899855D03*
X205573197Y-87114439D03*
X204018732Y-88691189D03*
%TD*%
D38*
%TO.C,DC5*%
X131432764Y-67627098D03*
X130705666Y-69382466D03*
X132916976Y-69270148D03*
%TD*%
D34*
%TO.C,S13*%
X141695088Y-100471095D03*
D26*
X132459245Y-101732729D03*
D34*
X128885433Y-94028648D03*
D27*
X138322923Y-99074302D03*
X132257591Y-95425444D03*
%TD*%
D29*
%TO.C,S6*%
X95158706Y-49787987D03*
D26*
X86166553Y-52244345D03*
D29*
X81617726Y-45072653D03*
D27*
X91633075Y-48843297D03*
X85143356Y-46017341D03*
%TD*%
D39*
%TO.C,S15*%
X260587037Y-91933022D03*
D26*
X253475480Y-97959487D03*
D39*
X246321956Y-93382144D03*
D27*
X256992483Y-92566842D03*
X249916499Y-92748327D03*
%TD*%
D50*
%TO.C,SW3*%
X136406699Y-140071945D03*
X138636143Y-137638925D03*
%TD*%
D51*
%TO.C,DA3*%
X128266358Y-114337677D03*
X126510990Y-113610579D03*
X126623308Y-115821889D03*
%TD*%
D44*
%TO.C,S7*%
X107048901Y-83224209D03*
D26*
X97876881Y-84887507D03*
D44*
X93970418Y-77346648D03*
D27*
X103619019Y-81975838D03*
X97400299Y-78595021D03*
%TD*%
D48*
%TO.C,DC11*%
X177254784Y-69382474D03*
X176527686Y-67627104D03*
X175043479Y-69270155D03*
%TD*%
D52*
%TO.C,S29*%
X143620981Y-136713497D03*
D26*
X134510623Y-134740199D03*
D52*
X133787282Y-126278416D03*
D27*
X140929910Y-134247593D03*
X136478348Y-128744322D03*
%TD*%
D23*
%TO.C,SW2*%
X90310306Y-56098158D03*
X91164404Y-52910602D03*
%TD*%
D25*
%TO.C,S17*%
X249761865Y-51792125D03*
D26*
X243202614Y-58415469D03*
D25*
X235677366Y-54479010D03*
D27*
X246236237Y-52736816D03*
X239203000Y-53534324D03*
%TD*%
M02*
