%TF.GenerationSoftware,KiCad,Pcbnew,8.0.7*%
%TF.CreationDate,2024-12-24T09:40:09-07:00*%
%TF.ProjectId,chuck,63687563-6b2e-46b6-9963-61645f706362,v1.0*%
%TF.SameCoordinates,Original*%
%TF.FileFunction,Legend,Top*%
%TF.FilePolarity,Positive*%
%FSLAX46Y46*%
G04 Gerber Fmt 4.6, Leading zero omitted, Abs format (unit mm)*
G04 Created by KiCad (PCBNEW 8.0.7) date 2024-12-24 09:40:09*
%MOMM*%
%LPD*%
G01*
G04 APERTURE LIST*
%ADD10C,0.153000*%
%ADD11C,0.120000*%
G04 APERTURE END LIST*
D10*
X149361176Y-108444857D02*
X149361176Y-109159142D01*
X149361176Y-109159142D02*
X149313557Y-109301999D01*
X149313557Y-109301999D02*
X149218319Y-109397238D01*
X149218319Y-109397238D02*
X149075462Y-109444857D01*
X149075462Y-109444857D02*
X148980224Y-109444857D01*
X150313557Y-109444857D02*
X149837367Y-109444857D01*
X149837367Y-109444857D02*
X149837367Y-108444857D01*
X151218319Y-109349618D02*
X151170700Y-109397238D01*
X151170700Y-109397238D02*
X151027843Y-109444857D01*
X151027843Y-109444857D02*
X150932605Y-109444857D01*
X150932605Y-109444857D02*
X150789748Y-109397238D01*
X150789748Y-109397238D02*
X150694510Y-109301999D01*
X150694510Y-109301999D02*
X150646891Y-109206761D01*
X150646891Y-109206761D02*
X150599272Y-109016285D01*
X150599272Y-109016285D02*
X150599272Y-108873428D01*
X150599272Y-108873428D02*
X150646891Y-108682952D01*
X150646891Y-108682952D02*
X150694510Y-108587714D01*
X150694510Y-108587714D02*
X150789748Y-108492476D01*
X150789748Y-108492476D02*
X150932605Y-108444857D01*
X150932605Y-108444857D02*
X151027843Y-108444857D01*
X151027843Y-108444857D02*
X151170700Y-108492476D01*
X151170700Y-108492476D02*
X151218319Y-108540095D01*
X151932605Y-108444857D02*
X151932605Y-109159142D01*
X151932605Y-109159142D02*
X151884986Y-109301999D01*
X151884986Y-109301999D02*
X151789748Y-109397238D01*
X151789748Y-109397238D02*
X151646891Y-109444857D01*
X151646891Y-109444857D02*
X151551653Y-109444857D01*
X152884986Y-109444857D02*
X152408796Y-109444857D01*
X152408796Y-109444857D02*
X152408796Y-108444857D01*
X153789748Y-109349618D02*
X153742129Y-109397238D01*
X153742129Y-109397238D02*
X153599272Y-109444857D01*
X153599272Y-109444857D02*
X153504034Y-109444857D01*
X153504034Y-109444857D02*
X153361177Y-109397238D01*
X153361177Y-109397238D02*
X153265939Y-109301999D01*
X153265939Y-109301999D02*
X153218320Y-109206761D01*
X153218320Y-109206761D02*
X153170701Y-109016285D01*
X153170701Y-109016285D02*
X153170701Y-108873428D01*
X153170701Y-108873428D02*
X153218320Y-108682952D01*
X153218320Y-108682952D02*
X153265939Y-108587714D01*
X153265939Y-108587714D02*
X153361177Y-108492476D01*
X153361177Y-108492476D02*
X153504034Y-108444857D01*
X153504034Y-108444857D02*
X153599272Y-108444857D01*
X153599272Y-108444857D02*
X153742129Y-108492476D01*
X153742129Y-108492476D02*
X153789748Y-108540095D01*
X154504034Y-108444857D02*
X154504034Y-109159142D01*
X154504034Y-109159142D02*
X154456415Y-109301999D01*
X154456415Y-109301999D02*
X154361177Y-109397238D01*
X154361177Y-109397238D02*
X154218320Y-109444857D01*
X154218320Y-109444857D02*
X154123082Y-109444857D01*
X155456415Y-109444857D02*
X154980225Y-109444857D01*
X154980225Y-109444857D02*
X154980225Y-108444857D01*
X156361177Y-109349618D02*
X156313558Y-109397238D01*
X156313558Y-109397238D02*
X156170701Y-109444857D01*
X156170701Y-109444857D02*
X156075463Y-109444857D01*
X156075463Y-109444857D02*
X155932606Y-109397238D01*
X155932606Y-109397238D02*
X155837368Y-109301999D01*
X155837368Y-109301999D02*
X155789749Y-109206761D01*
X155789749Y-109206761D02*
X155742130Y-109016285D01*
X155742130Y-109016285D02*
X155742130Y-108873428D01*
X155742130Y-108873428D02*
X155789749Y-108682952D01*
X155789749Y-108682952D02*
X155837368Y-108587714D01*
X155837368Y-108587714D02*
X155932606Y-108492476D01*
X155932606Y-108492476D02*
X156075463Y-108444857D01*
X156075463Y-108444857D02*
X156170701Y-108444857D01*
X156170701Y-108444857D02*
X156313558Y-108492476D01*
X156313558Y-108492476D02*
X156361177Y-108540095D01*
X157075463Y-108444857D02*
X157075463Y-109159142D01*
X157075463Y-109159142D02*
X157027844Y-109301999D01*
X157027844Y-109301999D02*
X156932606Y-109397238D01*
X156932606Y-109397238D02*
X156789749Y-109444857D01*
X156789749Y-109444857D02*
X156694511Y-109444857D01*
X158027844Y-109444857D02*
X157551654Y-109444857D01*
X157551654Y-109444857D02*
X157551654Y-108444857D01*
X158932606Y-109349618D02*
X158884987Y-109397238D01*
X158884987Y-109397238D02*
X158742130Y-109444857D01*
X158742130Y-109444857D02*
X158646892Y-109444857D01*
X158646892Y-109444857D02*
X158504035Y-109397238D01*
X158504035Y-109397238D02*
X158408797Y-109301999D01*
X158408797Y-109301999D02*
X158361178Y-109206761D01*
X158361178Y-109206761D02*
X158313559Y-109016285D01*
X158313559Y-109016285D02*
X158313559Y-108873428D01*
X158313559Y-108873428D02*
X158361178Y-108682952D01*
X158361178Y-108682952D02*
X158408797Y-108587714D01*
X158408797Y-108587714D02*
X158504035Y-108492476D01*
X158504035Y-108492476D02*
X158646892Y-108444857D01*
X158646892Y-108444857D02*
X158742130Y-108444857D01*
X158742130Y-108444857D02*
X158884987Y-108492476D01*
X158884987Y-108492476D02*
X158932606Y-108540095D01*
X152551654Y-147828188D02*
X152789749Y-148494855D01*
X152789749Y-148494855D02*
X153027844Y-147828188D01*
X153932606Y-148494855D02*
X153361178Y-148494855D01*
X153646892Y-148494855D02*
X153646892Y-147494855D01*
X153646892Y-147494855D02*
X153551654Y-147637712D01*
X153551654Y-147637712D02*
X153456416Y-147732950D01*
X153456416Y-147732950D02*
X153361178Y-147780569D01*
X154361178Y-148399616D02*
X154408797Y-148447236D01*
X154408797Y-148447236D02*
X154361178Y-148494855D01*
X154361178Y-148494855D02*
X154313559Y-148447236D01*
X154313559Y-148447236D02*
X154361178Y-148399616D01*
X154361178Y-148399616D02*
X154361178Y-148494855D01*
X155027844Y-147494855D02*
X155123082Y-147494855D01*
X155123082Y-147494855D02*
X155218320Y-147542474D01*
X155218320Y-147542474D02*
X155265939Y-147590093D01*
X155265939Y-147590093D02*
X155313558Y-147685331D01*
X155313558Y-147685331D02*
X155361177Y-147875807D01*
X155361177Y-147875807D02*
X155361177Y-148113902D01*
X155361177Y-148113902D02*
X155313558Y-148304378D01*
X155313558Y-148304378D02*
X155265939Y-148399616D01*
X155265939Y-148399616D02*
X155218320Y-148447236D01*
X155218320Y-148447236D02*
X155123082Y-148494855D01*
X155123082Y-148494855D02*
X155027844Y-148494855D01*
X155027844Y-148494855D02*
X154932606Y-148447236D01*
X154932606Y-148447236D02*
X154884987Y-148399616D01*
X154884987Y-148399616D02*
X154837368Y-148304378D01*
X154837368Y-148304378D02*
X154789749Y-148113902D01*
X154789749Y-148113902D02*
X154789749Y-147875807D01*
X154789749Y-147875807D02*
X154837368Y-147685331D01*
X154837368Y-147685331D02*
X154884987Y-147590093D01*
X154884987Y-147590093D02*
X154932606Y-147542474D01*
X154932606Y-147542474D02*
X155027844Y-147494855D01*
X139670690Y-151344864D02*
X139670690Y-150344864D01*
X140099261Y-151344864D02*
X140099261Y-150821054D01*
X140099261Y-150821054D02*
X140051642Y-150725816D01*
X140051642Y-150725816D02*
X139956404Y-150678197D01*
X139956404Y-150678197D02*
X139813547Y-150678197D01*
X139813547Y-150678197D02*
X139718309Y-150725816D01*
X139718309Y-150725816D02*
X139670690Y-150773435D01*
X140432595Y-150678197D02*
X140813547Y-150678197D01*
X140575452Y-150344864D02*
X140575452Y-151202006D01*
X140575452Y-151202006D02*
X140623071Y-151297245D01*
X140623071Y-151297245D02*
X140718309Y-151344864D01*
X140718309Y-151344864D02*
X140813547Y-151344864D01*
X141004024Y-150678197D02*
X141384976Y-150678197D01*
X141146881Y-150344864D02*
X141146881Y-151202006D01*
X141146881Y-151202006D02*
X141194500Y-151297245D01*
X141194500Y-151297245D02*
X141289738Y-151344864D01*
X141289738Y-151344864D02*
X141384976Y-151344864D01*
X141718310Y-150678197D02*
X141718310Y-151678197D01*
X141718310Y-150725816D02*
X141813548Y-150678197D01*
X141813548Y-150678197D02*
X142004024Y-150678197D01*
X142004024Y-150678197D02*
X142099262Y-150725816D01*
X142099262Y-150725816D02*
X142146881Y-150773435D01*
X142146881Y-150773435D02*
X142194500Y-150868673D01*
X142194500Y-150868673D02*
X142194500Y-151154387D01*
X142194500Y-151154387D02*
X142146881Y-151249625D01*
X142146881Y-151249625D02*
X142099262Y-151297245D01*
X142099262Y-151297245D02*
X142004024Y-151344864D01*
X142004024Y-151344864D02*
X141813548Y-151344864D01*
X141813548Y-151344864D02*
X141718310Y-151297245D01*
X142575453Y-151297245D02*
X142670691Y-151344864D01*
X142670691Y-151344864D02*
X142861167Y-151344864D01*
X142861167Y-151344864D02*
X142956405Y-151297245D01*
X142956405Y-151297245D02*
X143004024Y-151202006D01*
X143004024Y-151202006D02*
X143004024Y-151154387D01*
X143004024Y-151154387D02*
X142956405Y-151059149D01*
X142956405Y-151059149D02*
X142861167Y-151011530D01*
X142861167Y-151011530D02*
X142718310Y-151011530D01*
X142718310Y-151011530D02*
X142623072Y-150963911D01*
X142623072Y-150963911D02*
X142575453Y-150868673D01*
X142575453Y-150868673D02*
X142575453Y-150821054D01*
X142575453Y-150821054D02*
X142623072Y-150725816D01*
X142623072Y-150725816D02*
X142718310Y-150678197D01*
X142718310Y-150678197D02*
X142861167Y-150678197D01*
X142861167Y-150678197D02*
X142956405Y-150725816D01*
X143432596Y-151249625D02*
X143480215Y-151297245D01*
X143480215Y-151297245D02*
X143432596Y-151344864D01*
X143432596Y-151344864D02*
X143384977Y-151297245D01*
X143384977Y-151297245D02*
X143432596Y-151249625D01*
X143432596Y-151249625D02*
X143432596Y-151344864D01*
X143432596Y-150725816D02*
X143480215Y-150773435D01*
X143480215Y-150773435D02*
X143432596Y-150821054D01*
X143432596Y-150821054D02*
X143384977Y-150773435D01*
X143384977Y-150773435D02*
X143432596Y-150725816D01*
X143432596Y-150725816D02*
X143432596Y-150821054D01*
X144623071Y-150297245D02*
X143765929Y-151582959D01*
X145670690Y-150297245D02*
X144813548Y-151582959D01*
X146432595Y-150678197D02*
X146432595Y-151487721D01*
X146432595Y-151487721D02*
X146384976Y-151582959D01*
X146384976Y-151582959D02*
X146337357Y-151630578D01*
X146337357Y-151630578D02*
X146242119Y-151678197D01*
X146242119Y-151678197D02*
X146099262Y-151678197D01*
X146099262Y-151678197D02*
X146004024Y-151630578D01*
X146432595Y-151297245D02*
X146337357Y-151344864D01*
X146337357Y-151344864D02*
X146146881Y-151344864D01*
X146146881Y-151344864D02*
X146051643Y-151297245D01*
X146051643Y-151297245D02*
X146004024Y-151249625D01*
X146004024Y-151249625D02*
X145956405Y-151154387D01*
X145956405Y-151154387D02*
X145956405Y-150868673D01*
X145956405Y-150868673D02*
X146004024Y-150773435D01*
X146004024Y-150773435D02*
X146051643Y-150725816D01*
X146051643Y-150725816D02*
X146146881Y-150678197D01*
X146146881Y-150678197D02*
X146337357Y-150678197D01*
X146337357Y-150678197D02*
X146432595Y-150725816D01*
X146908786Y-151344864D02*
X146908786Y-150678197D01*
X146908786Y-150344864D02*
X146861167Y-150392483D01*
X146861167Y-150392483D02*
X146908786Y-150440102D01*
X146908786Y-150440102D02*
X146956405Y-150392483D01*
X146956405Y-150392483D02*
X146908786Y-150344864D01*
X146908786Y-150344864D02*
X146908786Y-150440102D01*
X147242119Y-150678197D02*
X147623071Y-150678197D01*
X147384976Y-150344864D02*
X147384976Y-151202006D01*
X147384976Y-151202006D02*
X147432595Y-151297245D01*
X147432595Y-151297245D02*
X147527833Y-151344864D01*
X147527833Y-151344864D02*
X147623071Y-151344864D01*
X147956405Y-151344864D02*
X147956405Y-150344864D01*
X148384976Y-151344864D02*
X148384976Y-150821054D01*
X148384976Y-150821054D02*
X148337357Y-150725816D01*
X148337357Y-150725816D02*
X148242119Y-150678197D01*
X148242119Y-150678197D02*
X148099262Y-150678197D01*
X148099262Y-150678197D02*
X148004024Y-150725816D01*
X148004024Y-150725816D02*
X147956405Y-150773435D01*
X149289738Y-150678197D02*
X149289738Y-151344864D01*
X148861167Y-150678197D02*
X148861167Y-151202006D01*
X148861167Y-151202006D02*
X148908786Y-151297245D01*
X148908786Y-151297245D02*
X149004024Y-151344864D01*
X149004024Y-151344864D02*
X149146881Y-151344864D01*
X149146881Y-151344864D02*
X149242119Y-151297245D01*
X149242119Y-151297245D02*
X149289738Y-151249625D01*
X149765929Y-151344864D02*
X149765929Y-150344864D01*
X149765929Y-150725816D02*
X149861167Y-150678197D01*
X149861167Y-150678197D02*
X150051643Y-150678197D01*
X150051643Y-150678197D02*
X150146881Y-150725816D01*
X150146881Y-150725816D02*
X150194500Y-150773435D01*
X150194500Y-150773435D02*
X150242119Y-150868673D01*
X150242119Y-150868673D02*
X150242119Y-151154387D01*
X150242119Y-151154387D02*
X150194500Y-151249625D01*
X150194500Y-151249625D02*
X150146881Y-151297245D01*
X150146881Y-151297245D02*
X150051643Y-151344864D01*
X150051643Y-151344864D02*
X149861167Y-151344864D01*
X149861167Y-151344864D02*
X149765929Y-151297245D01*
X150670691Y-151249625D02*
X150718310Y-151297245D01*
X150718310Y-151297245D02*
X150670691Y-151344864D01*
X150670691Y-151344864D02*
X150623072Y-151297245D01*
X150623072Y-151297245D02*
X150670691Y-151249625D01*
X150670691Y-151249625D02*
X150670691Y-151344864D01*
X151575452Y-151297245D02*
X151480214Y-151344864D01*
X151480214Y-151344864D02*
X151289738Y-151344864D01*
X151289738Y-151344864D02*
X151194500Y-151297245D01*
X151194500Y-151297245D02*
X151146881Y-151249625D01*
X151146881Y-151249625D02*
X151099262Y-151154387D01*
X151099262Y-151154387D02*
X151099262Y-150868673D01*
X151099262Y-150868673D02*
X151146881Y-150773435D01*
X151146881Y-150773435D02*
X151194500Y-150725816D01*
X151194500Y-150725816D02*
X151289738Y-150678197D01*
X151289738Y-150678197D02*
X151480214Y-150678197D01*
X151480214Y-150678197D02*
X151575452Y-150725816D01*
X152146881Y-151344864D02*
X152051643Y-151297245D01*
X152051643Y-151297245D02*
X152004024Y-151249625D01*
X152004024Y-151249625D02*
X151956405Y-151154387D01*
X151956405Y-151154387D02*
X151956405Y-150868673D01*
X151956405Y-150868673D02*
X152004024Y-150773435D01*
X152004024Y-150773435D02*
X152051643Y-150725816D01*
X152051643Y-150725816D02*
X152146881Y-150678197D01*
X152146881Y-150678197D02*
X152289738Y-150678197D01*
X152289738Y-150678197D02*
X152384976Y-150725816D01*
X152384976Y-150725816D02*
X152432595Y-150773435D01*
X152432595Y-150773435D02*
X152480214Y-150868673D01*
X152480214Y-150868673D02*
X152480214Y-151154387D01*
X152480214Y-151154387D02*
X152432595Y-151249625D01*
X152432595Y-151249625D02*
X152384976Y-151297245D01*
X152384976Y-151297245D02*
X152289738Y-151344864D01*
X152289738Y-151344864D02*
X152146881Y-151344864D01*
X152908786Y-151344864D02*
X152908786Y-150678197D01*
X152908786Y-150773435D02*
X152956405Y-150725816D01*
X152956405Y-150725816D02*
X153051643Y-150678197D01*
X153051643Y-150678197D02*
X153194500Y-150678197D01*
X153194500Y-150678197D02*
X153289738Y-150725816D01*
X153289738Y-150725816D02*
X153337357Y-150821054D01*
X153337357Y-150821054D02*
X153337357Y-151344864D01*
X153337357Y-150821054D02*
X153384976Y-150725816D01*
X153384976Y-150725816D02*
X153480214Y-150678197D01*
X153480214Y-150678197D02*
X153623071Y-150678197D01*
X153623071Y-150678197D02*
X153718310Y-150725816D01*
X153718310Y-150725816D02*
X153765929Y-150821054D01*
X153765929Y-150821054D02*
X153765929Y-151344864D01*
X154956404Y-150297245D02*
X154099262Y-151582959D01*
X155718309Y-151297245D02*
X155623071Y-151344864D01*
X155623071Y-151344864D02*
X155432595Y-151344864D01*
X155432595Y-151344864D02*
X155337357Y-151297245D01*
X155337357Y-151297245D02*
X155289738Y-151249625D01*
X155289738Y-151249625D02*
X155242119Y-151154387D01*
X155242119Y-151154387D02*
X155242119Y-150868673D01*
X155242119Y-150868673D02*
X155289738Y-150773435D01*
X155289738Y-150773435D02*
X155337357Y-150725816D01*
X155337357Y-150725816D02*
X155432595Y-150678197D01*
X155432595Y-150678197D02*
X155623071Y-150678197D01*
X155623071Y-150678197D02*
X155718309Y-150725816D01*
X156004024Y-150678197D02*
X156384976Y-150678197D01*
X156146881Y-150344864D02*
X156146881Y-151202006D01*
X156146881Y-151202006D02*
X156194500Y-151297245D01*
X156194500Y-151297245D02*
X156289738Y-151344864D01*
X156289738Y-151344864D02*
X156384976Y-151344864D01*
X156718310Y-151344864D02*
X156718310Y-150678197D01*
X156718310Y-150868673D02*
X156765929Y-150773435D01*
X156765929Y-150773435D02*
X156813548Y-150725816D01*
X156813548Y-150725816D02*
X156908786Y-150678197D01*
X156908786Y-150678197D02*
X157004024Y-150678197D01*
X157765929Y-151344864D02*
X157765929Y-150821054D01*
X157765929Y-150821054D02*
X157718310Y-150725816D01*
X157718310Y-150725816D02*
X157623072Y-150678197D01*
X157623072Y-150678197D02*
X157432596Y-150678197D01*
X157432596Y-150678197D02*
X157337358Y-150725816D01*
X157765929Y-151297245D02*
X157670691Y-151344864D01*
X157670691Y-151344864D02*
X157432596Y-151344864D01*
X157432596Y-151344864D02*
X157337358Y-151297245D01*
X157337358Y-151297245D02*
X157289739Y-151202006D01*
X157289739Y-151202006D02*
X157289739Y-151106768D01*
X157289739Y-151106768D02*
X157337358Y-151011530D01*
X157337358Y-151011530D02*
X157432596Y-150963911D01*
X157432596Y-150963911D02*
X157670691Y-150963911D01*
X157670691Y-150963911D02*
X157765929Y-150916292D01*
X158242120Y-150678197D02*
X158242120Y-151344864D01*
X158242120Y-150773435D02*
X158289739Y-150725816D01*
X158289739Y-150725816D02*
X158384977Y-150678197D01*
X158384977Y-150678197D02*
X158527834Y-150678197D01*
X158527834Y-150678197D02*
X158623072Y-150725816D01*
X158623072Y-150725816D02*
X158670691Y-150821054D01*
X158670691Y-150821054D02*
X158670691Y-151344864D01*
X159099263Y-151297245D02*
X159194501Y-151344864D01*
X159194501Y-151344864D02*
X159384977Y-151344864D01*
X159384977Y-151344864D02*
X159480215Y-151297245D01*
X159480215Y-151297245D02*
X159527834Y-151202006D01*
X159527834Y-151202006D02*
X159527834Y-151154387D01*
X159527834Y-151154387D02*
X159480215Y-151059149D01*
X159480215Y-151059149D02*
X159384977Y-151011530D01*
X159384977Y-151011530D02*
X159242120Y-151011530D01*
X159242120Y-151011530D02*
X159146882Y-150963911D01*
X159146882Y-150963911D02*
X159099263Y-150868673D01*
X159099263Y-150868673D02*
X159099263Y-150821054D01*
X159099263Y-150821054D02*
X159146882Y-150725816D01*
X159146882Y-150725816D02*
X159242120Y-150678197D01*
X159242120Y-150678197D02*
X159384977Y-150678197D01*
X159384977Y-150678197D02*
X159480215Y-150725816D01*
X159813549Y-150678197D02*
X160194501Y-150678197D01*
X159956406Y-150344864D02*
X159956406Y-151202006D01*
X159956406Y-151202006D02*
X160004025Y-151297245D01*
X160004025Y-151297245D02*
X160099263Y-151344864D01*
X160099263Y-151344864D02*
X160194501Y-151344864D01*
X160527835Y-151344864D02*
X160527835Y-150678197D01*
X160527835Y-150868673D02*
X160575454Y-150773435D01*
X160575454Y-150773435D02*
X160623073Y-150725816D01*
X160623073Y-150725816D02*
X160718311Y-150678197D01*
X160718311Y-150678197D02*
X160813549Y-150678197D01*
X161575454Y-150678197D02*
X161575454Y-151344864D01*
X161146883Y-150678197D02*
X161146883Y-151202006D01*
X161146883Y-151202006D02*
X161194502Y-151297245D01*
X161194502Y-151297245D02*
X161289740Y-151344864D01*
X161289740Y-151344864D02*
X161432597Y-151344864D01*
X161432597Y-151344864D02*
X161527835Y-151297245D01*
X161527835Y-151297245D02*
X161575454Y-151249625D01*
X162051645Y-151344864D02*
X162051645Y-150678197D01*
X162051645Y-150773435D02*
X162099264Y-150725816D01*
X162099264Y-150725816D02*
X162194502Y-150678197D01*
X162194502Y-150678197D02*
X162337359Y-150678197D01*
X162337359Y-150678197D02*
X162432597Y-150725816D01*
X162432597Y-150725816D02*
X162480216Y-150821054D01*
X162480216Y-150821054D02*
X162480216Y-151344864D01*
X162480216Y-150821054D02*
X162527835Y-150725816D01*
X162527835Y-150725816D02*
X162623073Y-150678197D01*
X162623073Y-150678197D02*
X162765930Y-150678197D01*
X162765930Y-150678197D02*
X162861169Y-150725816D01*
X162861169Y-150725816D02*
X162908788Y-150821054D01*
X162908788Y-150821054D02*
X162908788Y-151344864D01*
X164099263Y-150297245D02*
X163242121Y-151582959D01*
X164861168Y-151297245D02*
X164765930Y-151344864D01*
X164765930Y-151344864D02*
X164575454Y-151344864D01*
X164575454Y-151344864D02*
X164480216Y-151297245D01*
X164480216Y-151297245D02*
X164432597Y-151249625D01*
X164432597Y-151249625D02*
X164384978Y-151154387D01*
X164384978Y-151154387D02*
X164384978Y-150868673D01*
X164384978Y-150868673D02*
X164432597Y-150773435D01*
X164432597Y-150773435D02*
X164480216Y-150725816D01*
X164480216Y-150725816D02*
X164575454Y-150678197D01*
X164575454Y-150678197D02*
X164765930Y-150678197D01*
X164765930Y-150678197D02*
X164861168Y-150725816D01*
X165289740Y-151344864D02*
X165289740Y-150344864D01*
X165718311Y-151344864D02*
X165718311Y-150821054D01*
X165718311Y-150821054D02*
X165670692Y-150725816D01*
X165670692Y-150725816D02*
X165575454Y-150678197D01*
X165575454Y-150678197D02*
X165432597Y-150678197D01*
X165432597Y-150678197D02*
X165337359Y-150725816D01*
X165337359Y-150725816D02*
X165289740Y-150773435D01*
X166623073Y-150678197D02*
X166623073Y-151344864D01*
X166194502Y-150678197D02*
X166194502Y-151202006D01*
X166194502Y-151202006D02*
X166242121Y-151297245D01*
X166242121Y-151297245D02*
X166337359Y-151344864D01*
X166337359Y-151344864D02*
X166480216Y-151344864D01*
X166480216Y-151344864D02*
X166575454Y-151297245D01*
X166575454Y-151297245D02*
X166623073Y-151249625D01*
X167527835Y-151297245D02*
X167432597Y-151344864D01*
X167432597Y-151344864D02*
X167242121Y-151344864D01*
X167242121Y-151344864D02*
X167146883Y-151297245D01*
X167146883Y-151297245D02*
X167099264Y-151249625D01*
X167099264Y-151249625D02*
X167051645Y-151154387D01*
X167051645Y-151154387D02*
X167051645Y-150868673D01*
X167051645Y-150868673D02*
X167099264Y-150773435D01*
X167099264Y-150773435D02*
X167146883Y-150725816D01*
X167146883Y-150725816D02*
X167242121Y-150678197D01*
X167242121Y-150678197D02*
X167432597Y-150678197D01*
X167432597Y-150678197D02*
X167527835Y-150725816D01*
X167956407Y-151344864D02*
X167956407Y-150344864D01*
X168051645Y-150963911D02*
X168337359Y-151344864D01*
X168337359Y-150678197D02*
X167956407Y-151059149D01*
X217154696Y-114472041D02*
X216685740Y-114554731D01*
X216685740Y-114554731D02*
X216512092Y-113569923D01*
X217482966Y-114414159D02*
X217367200Y-113757620D01*
X217309318Y-113429351D02*
X217270691Y-113484516D01*
X217270691Y-113484516D02*
X217325856Y-113523142D01*
X217325856Y-113523142D02*
X217364482Y-113467978D01*
X217364482Y-113467978D02*
X217309318Y-113429351D01*
X217309318Y-113429351D02*
X217325856Y-113523142D01*
X218365713Y-114210153D02*
X218280191Y-114273586D01*
X218280191Y-114273586D02*
X218092608Y-114306662D01*
X218092608Y-114306662D02*
X217990548Y-114276305D01*
X217990548Y-114276305D02*
X217935384Y-114237678D01*
X217935384Y-114237678D02*
X217871950Y-114152156D01*
X217871950Y-114152156D02*
X217822336Y-113870782D01*
X217822336Y-113870782D02*
X217852694Y-113768722D01*
X217852694Y-113768722D02*
X217891321Y-113713557D01*
X217891321Y-113713557D02*
X217976843Y-113650124D01*
X217976843Y-113650124D02*
X218164425Y-113617048D01*
X218164425Y-113617048D02*
X218266485Y-113647406D01*
X219162938Y-114069581D02*
X219077416Y-114133014D01*
X219077416Y-114133014D02*
X218889834Y-114166090D01*
X218889834Y-114166090D02*
X218787774Y-114135732D01*
X218787774Y-114135732D02*
X218724340Y-114050210D01*
X218724340Y-114050210D02*
X218658188Y-113675045D01*
X218658188Y-113675045D02*
X218688546Y-113572985D01*
X218688546Y-113572985D02*
X218774068Y-113509551D01*
X218774068Y-113509551D02*
X218961651Y-113476476D01*
X218961651Y-113476476D02*
X219063711Y-113506833D01*
X219063711Y-113506833D02*
X219127144Y-113592356D01*
X219127144Y-113592356D02*
X219143682Y-113686147D01*
X219143682Y-113686147D02*
X218691264Y-113862628D01*
X219524398Y-113377248D02*
X219640164Y-114033787D01*
X219540936Y-113471039D02*
X219579563Y-113415875D01*
X219579563Y-113415875D02*
X219665085Y-113352441D01*
X219665085Y-113352441D02*
X219805772Y-113327634D01*
X219805772Y-113327634D02*
X219907832Y-113357992D01*
X219907832Y-113357992D02*
X219971266Y-113443514D01*
X219971266Y-113443514D02*
X220062224Y-113959366D01*
X220476016Y-113838050D02*
X220578076Y-113868407D01*
X220578076Y-113868407D02*
X220765658Y-113835331D01*
X220765658Y-113835331D02*
X220851181Y-113771898D01*
X220851181Y-113771898D02*
X220881538Y-113669838D01*
X220881538Y-113669838D02*
X220873269Y-113622942D01*
X220873269Y-113622942D02*
X220809836Y-113537420D01*
X220809836Y-113537420D02*
X220707776Y-113507062D01*
X220707776Y-113507062D02*
X220567089Y-113531869D01*
X220567089Y-113531869D02*
X220465029Y-113501511D01*
X220465029Y-113501511D02*
X220401595Y-113415989D01*
X220401595Y-113415989D02*
X220393326Y-113369094D01*
X220393326Y-113369094D02*
X220423684Y-113267033D01*
X220423684Y-113267033D02*
X220509206Y-113203600D01*
X220509206Y-113203600D02*
X220649893Y-113178793D01*
X220649893Y-113178793D02*
X220751953Y-113209151D01*
X221695302Y-113623057D02*
X221609779Y-113686490D01*
X221609779Y-113686490D02*
X221422197Y-113719566D01*
X221422197Y-113719566D02*
X221320137Y-113689208D01*
X221320137Y-113689208D02*
X221256703Y-113603686D01*
X221256703Y-113603686D02*
X221190552Y-113228521D01*
X221190552Y-113228521D02*
X221220909Y-113126461D01*
X221220909Y-113126461D02*
X221306432Y-113063027D01*
X221306432Y-113063027D02*
X221494014Y-113029952D01*
X221494014Y-113029952D02*
X221596074Y-113060309D01*
X221596074Y-113060309D02*
X221659508Y-113145832D01*
X221659508Y-113145832D02*
X221676046Y-113239623D01*
X221676046Y-113239623D02*
X221223627Y-113416104D01*
X222594587Y-113512842D02*
X222420939Y-112528034D01*
X222586318Y-113465946D02*
X222500796Y-113529380D01*
X222500796Y-113529380D02*
X222313214Y-113562456D01*
X222313214Y-113562456D02*
X222211153Y-113532098D01*
X222211153Y-113532098D02*
X222155989Y-113493471D01*
X222155989Y-113493471D02*
X222092555Y-113407949D01*
X222092555Y-113407949D02*
X222042942Y-113126575D01*
X222042942Y-113126575D02*
X222073299Y-113024515D01*
X222073299Y-113024515D02*
X222111926Y-112969351D01*
X222111926Y-112969351D02*
X222197448Y-112905917D01*
X222197448Y-112905917D02*
X222385031Y-112872841D01*
X222385031Y-112872841D02*
X222487091Y-112903199D01*
X224120168Y-112566890D02*
X224235934Y-113223428D01*
X223698108Y-112641310D02*
X223789067Y-113157162D01*
X223789067Y-113157162D02*
X223852500Y-113242684D01*
X223852500Y-113242684D02*
X223954560Y-113273042D01*
X223954560Y-113273042D02*
X224095247Y-113248235D01*
X224095247Y-113248235D02*
X224180769Y-113184802D01*
X224180769Y-113184802D02*
X224219396Y-113129637D01*
X224589125Y-112484200D02*
X224704890Y-113140739D01*
X224605663Y-112577991D02*
X224644289Y-112522827D01*
X224644289Y-112522827D02*
X224729811Y-112459393D01*
X224729811Y-112459393D02*
X224870498Y-112434586D01*
X224870498Y-112434586D02*
X224972558Y-112464944D01*
X224972558Y-112464944D02*
X225035992Y-112550466D01*
X225035992Y-112550466D02*
X225126951Y-113066318D01*
X226017967Y-112909208D02*
X225844319Y-111924400D01*
X226009698Y-112862312D02*
X225924176Y-112925746D01*
X225924176Y-112925746D02*
X225736594Y-112958821D01*
X225736594Y-112958821D02*
X225634533Y-112928464D01*
X225634533Y-112928464D02*
X225579369Y-112889837D01*
X225579369Y-112889837D02*
X225515935Y-112804315D01*
X225515935Y-112804315D02*
X225466321Y-112522941D01*
X225466321Y-112522941D02*
X225496679Y-112420881D01*
X225496679Y-112420881D02*
X225535306Y-112365717D01*
X225535306Y-112365717D02*
X225620828Y-112302283D01*
X225620828Y-112302283D02*
X225808410Y-112269207D01*
X225808410Y-112269207D02*
X225910471Y-112299565D01*
X226853819Y-112713471D02*
X226768297Y-112776904D01*
X226768297Y-112776904D02*
X226580715Y-112809980D01*
X226580715Y-112809980D02*
X226478654Y-112779622D01*
X226478654Y-112779622D02*
X226415221Y-112694100D01*
X226415221Y-112694100D02*
X226349069Y-112318935D01*
X226349069Y-112318935D02*
X226379427Y-112216875D01*
X226379427Y-112216875D02*
X226464949Y-112153442D01*
X226464949Y-112153442D02*
X226652532Y-112120366D01*
X226652532Y-112120366D02*
X226754592Y-112150724D01*
X226754592Y-112150724D02*
X226818025Y-112236246D01*
X226818025Y-112236246D02*
X226834563Y-112330037D01*
X226834563Y-112330037D02*
X226382145Y-112506518D01*
X227331044Y-112677677D02*
X227215279Y-112021138D01*
X227248355Y-112208721D02*
X227278712Y-112106661D01*
X227278712Y-112106661D02*
X227317339Y-112051496D01*
X227317339Y-112051496D02*
X227402861Y-111988062D01*
X227402861Y-111988062D02*
X227496653Y-111971524D01*
X229237227Y-112244858D02*
X229198600Y-112300023D01*
X229198600Y-112300023D02*
X229066182Y-112371725D01*
X229066182Y-112371725D02*
X228972391Y-112388263D01*
X228972391Y-112388263D02*
X228823435Y-112366174D01*
X228823435Y-112366174D02*
X228713106Y-112288921D01*
X228713106Y-112288921D02*
X228649673Y-112203399D01*
X228649673Y-112203399D02*
X228569701Y-112024085D01*
X228569701Y-112024085D02*
X228544894Y-111883398D01*
X228544894Y-111883398D02*
X228558714Y-111687547D01*
X228558714Y-111687547D02*
X228589072Y-111585487D01*
X228589072Y-111585487D02*
X228666325Y-111475158D01*
X228666325Y-111475158D02*
X228798743Y-111403455D01*
X228798743Y-111403455D02*
X228892534Y-111386917D01*
X228892534Y-111386917D02*
X229041490Y-111409006D01*
X229041490Y-111409006D02*
X229096655Y-111447633D01*
X229584867Y-111748377D02*
X229913136Y-111690494D01*
X230144781Y-112181539D02*
X229675825Y-112264229D01*
X229675825Y-112264229D02*
X229502177Y-111279421D01*
X229502177Y-111279421D02*
X229971133Y-111196731D01*
X231129589Y-112007891D02*
X230718630Y-111596817D01*
X230566842Y-112107118D02*
X230393194Y-111122311D01*
X230393194Y-111122311D02*
X230768359Y-111056159D01*
X230768359Y-111056159D02*
X230870419Y-111086517D01*
X230870419Y-111086517D02*
X230925583Y-111125143D01*
X230925583Y-111125143D02*
X230989017Y-111210665D01*
X230989017Y-111210665D02*
X231013824Y-111351352D01*
X231013824Y-111351352D02*
X230983466Y-111453412D01*
X230983466Y-111453412D02*
X230944839Y-111508577D01*
X230944839Y-111508577D02*
X230859317Y-111572011D01*
X230859317Y-111572011D02*
X230484152Y-111638162D01*
X231551650Y-111933470D02*
X231378002Y-110948662D01*
X231378002Y-110948662D02*
X232114397Y-111834243D01*
X232114397Y-111834243D02*
X231940749Y-110849435D01*
X232517201Y-111376388D02*
X233267531Y-111244085D01*
X233816573Y-110518676D02*
X234004155Y-110485601D01*
X234004155Y-110485601D02*
X234106215Y-110515958D01*
X234106215Y-110515958D02*
X234216545Y-110593212D01*
X234216545Y-110593212D02*
X234296516Y-110772525D01*
X234296516Y-110772525D02*
X234354399Y-111100794D01*
X234354399Y-111100794D02*
X234340579Y-111296646D01*
X234340579Y-111296646D02*
X234263326Y-111406975D01*
X234263326Y-111406975D02*
X234177803Y-111470408D01*
X234177803Y-111470408D02*
X233990221Y-111503484D01*
X233990221Y-111503484D02*
X233888161Y-111473127D01*
X233888161Y-111473127D02*
X233777832Y-111395873D01*
X233777832Y-111395873D02*
X233697860Y-111216560D01*
X233697860Y-111216560D02*
X233639978Y-110888291D01*
X233639978Y-110888291D02*
X233653797Y-110692439D01*
X233653797Y-110692439D02*
X233731051Y-110582110D01*
X233731051Y-110582110D02*
X233816573Y-110518676D01*
X234834342Y-111354643D02*
X234660694Y-110369835D01*
X234743383Y-110838791D02*
X235306131Y-110739564D01*
X235397089Y-111255415D02*
X235223441Y-110270608D01*
X236335001Y-111090036D02*
X235866045Y-111172726D01*
X235866045Y-111172726D02*
X235692397Y-110187918D01*
X236597119Y-110656989D02*
X237347449Y-110524685D01*
X237882556Y-110817161D02*
X237708908Y-109832353D01*
X237708908Y-109832353D02*
X238084073Y-109766201D01*
X238084073Y-109766201D02*
X238186133Y-109796559D01*
X238186133Y-109796559D02*
X238241298Y-109835185D01*
X238241298Y-109835185D02*
X238304731Y-109920708D01*
X238304731Y-109920708D02*
X238329538Y-110061394D01*
X238329538Y-110061394D02*
X238299180Y-110163455D01*
X238299180Y-110163455D02*
X238260554Y-110218619D01*
X238260554Y-110218619D02*
X238175032Y-110282053D01*
X238175032Y-110282053D02*
X237799867Y-110348204D01*
X239408137Y-109871208D02*
X239758381Y-110486402D01*
X239758381Y-110486402D02*
X239877093Y-109788519D01*
X240164018Y-109496158D02*
X240202645Y-109440993D01*
X240202645Y-109440993D02*
X240288167Y-109377560D01*
X240288167Y-109377560D02*
X240522645Y-109336215D01*
X240522645Y-109336215D02*
X240624705Y-109366573D01*
X240624705Y-109366573D02*
X240679870Y-109405199D01*
X240679870Y-109405199D02*
X240743303Y-109490722D01*
X240743303Y-109490722D02*
X240759841Y-109584513D01*
X240759841Y-109584513D02*
X240737753Y-109733469D01*
X240737753Y-109733469D02*
X240274233Y-110395443D01*
X240274233Y-110395443D02*
X240883876Y-110287947D01*
D11*
%TO.C,MCU1*%
X124090215Y-40184194D02*
X124090219Y-40714194D01*
X124090215Y-45264190D02*
X124090217Y-45794193D01*
X124090216Y-42724193D02*
X124090225Y-43254194D01*
X124090218Y-35104189D02*
X124090217Y-35634193D01*
X124090219Y-33129194D02*
X124090221Y-31229189D01*
X124090219Y-37644187D02*
X124090216Y-38174191D01*
X124090219Y-47804192D02*
X124090216Y-48334192D01*
X124090220Y-52229193D02*
X124090215Y-50329187D01*
X124090221Y-31229189D02*
X141870214Y-31229191D01*
X141870211Y-40194197D02*
X141870217Y-40724192D01*
X141870213Y-52229195D02*
X124090220Y-52229193D01*
X141870215Y-35119193D02*
X141870217Y-35649190D01*
X141870217Y-31239192D02*
X141870217Y-33079189D01*
X141870218Y-42724193D02*
X141870211Y-43254191D01*
X141870218Y-45274193D02*
X141870218Y-45804197D01*
X141870218Y-47814194D02*
X141870214Y-48344193D01*
X141870218Y-50339192D02*
X141870213Y-52229195D01*
X141870222Y-37654184D02*
X141870218Y-38184192D01*
%TD*%
M02*
