%TF.GenerationSoftware,KiCad,Pcbnew,8.0.7*%
%TF.CreationDate,2025-02-03T22:04:45-07:00*%
%TF.ProjectId,chuck,63687563-6b2e-46b6-9963-61645f706362,v1.2*%
%TF.SameCoordinates,Original*%
%TF.FileFunction,Soldermask,Bot*%
%TF.FilePolarity,Negative*%
%FSLAX46Y46*%
G04 Gerber Fmt 4.6, Leading zero omitted, Abs format (unit mm)*
G04 Created by KiCad (PCBNEW 8.0.7) date 2025-02-03 22:04:45*
%MOMM*%
%LPD*%
G01*
G04 APERTURE LIST*
G04 Aperture macros list*
%AMRoundRect*
0 Rectangle with rounded corners*
0 $1 Rounding radius*
0 $2 $3 $4 $5 $6 $7 $8 $9 X,Y pos of 4 corners*
0 Add a 4 corners polygon primitive as box body*
4,1,4,$2,$3,$4,$5,$6,$7,$8,$9,$2,$3,0*
0 Add four circle primitives for the rounded corners*
1,1,$1+$1,$2,$3*
1,1,$1+$1,$4,$5*
1,1,$1+$1,$6,$7*
1,1,$1+$1,$8,$9*
0 Add four rect primitives between the rounded corners*
20,1,$1+$1,$2,$3,$4,$5,0*
20,1,$1+$1,$4,$5,$6,$7,0*
20,1,$1+$1,$6,$7,$8,$9,0*
20,1,$1+$1,$8,$9,$2,$3,0*%
%AMFreePoly0*
4,1,15,0.975355,0.935355,1.335355,0.575355,1.350000,0.540000,1.350000,-0.900000,1.335355,-0.935355,1.300000,-0.950000,-1.300000,-0.950000,-1.335355,-0.935355,-1.350000,-0.900000,-1.350000,0.540000,-1.335355,0.575355,-0.975355,0.935355,-0.940000,0.950000,0.940000,0.950000,0.975355,0.935355,0.975355,0.935355,$1*%
%AMFreePoly1*
4,1,15,1.335355,0.935355,1.350000,0.900000,1.350000,-0.540000,1.335355,-0.575355,0.975355,-0.935355,0.940000,-0.950000,-0.940000,-0.950000,-0.975355,-0.935355,-1.335355,-0.575355,-1.350000,-0.540000,-1.350000,0.900000,-1.335355,0.935355,-1.300000,0.950000,1.300000,0.950000,1.335355,0.935355,1.335355,0.935355,$1*%
G04 Aperture macros list end*
%ADD10RoundRect,0.050000X-0.450000X-0.450000X0.450000X-0.450000X0.450000X0.450000X-0.450000X0.450000X0*%
%ADD11C,1.100000*%
%ADD12RoundRect,0.050000X-0.450000X-0.625000X0.450000X-0.625000X0.450000X0.625000X-0.450000X0.625000X0*%
%ADD13O,2.850000X1.900000*%
%ADD14RoundRect,0.050000X1.375000X0.900000X-1.375000X0.900000X-1.375000X-0.900000X1.375000X-0.900000X0*%
%ADD15C,0.800000*%
%ADD16C,4.500000*%
%ADD17RoundRect,0.050000X-1.000000X-1.000000X1.000000X-1.000000X1.000000X1.000000X-1.000000X1.000000X0*%
%ADD18C,2.100000*%
%ADD19C,0.850000*%
%ADD20RoundRect,0.050000X-0.619183X-0.683548X0.878002X-0.282378X0.619183X0.683548X-0.878002X0.282378X0*%
%ADD21FreePoly0,270.000000*%
%ADD22FreePoly1,270.000000*%
%ADD23RoundRect,0.050000X-0.734847X-0.424264X0.424264X-0.734847X0.734847X0.424264X-0.424264X0.734847X0*%
%ADD24RoundRect,0.250000X1.352757X0.522062X-0.587390X1.325697X-1.352757X-0.522062X0.587390X-1.325697X0*%
%ADD25C,5.700000*%
%ADD26C,3.600000*%
%ADD27RoundRect,0.250000X0.587390X1.325697X-1.352757X0.522062X-0.587390X-1.325697X1.352757X-0.522062X0*%
%ADD28RoundRect,0.050000X0.486696X-0.695074X0.695074X0.486696X-0.486696X0.695074X-0.695074X-0.486696X0*%
%ADD29RoundRect,0.050000X-0.358603X-0.769028X0.769028X-0.358603X0.358603X0.769028X-0.769028X0.358603X0*%
%ADD30RoundRect,0.050000X0.037012X-0.847721X0.847721X0.037012X-0.037012X0.847721X-0.847721X-0.037012X0*%
%ADD31RoundRect,0.250000X1.207696X0.802477X-0.860400X1.167138X-1.207696X-0.802477X0.860400X-1.167138X0*%
%ADD32RoundRect,0.050000X0.358603X-0.769028X0.769028X0.358603X-0.358603X0.769028X-0.769028X-0.358603X0*%
%ADD33RoundRect,0.050000X-0.783938X-0.324718X0.324718X-0.783938X0.783938X0.324718X-0.324718X0.783938X0*%
%ADD34RoundRect,0.250000X1.328697X0.580571X-0.644657X1.298814X-1.328697X-0.580571X0.644657X-1.298814X0*%
%ADD35RoundRect,0.050000X0.734847X-0.424264X0.424264X0.734847X-0.734847X0.424264X-0.424264X-0.734847X0*%
%ADD36RoundRect,0.250000X0.860400X1.167138X-1.207696X0.802477X-0.860400X-1.167138X1.207696X-0.802477X0*%
%ADD37RoundRect,0.050000X0.783938X-0.324718X0.324718X0.783938X-0.783938X0.324718X-0.324718X-0.783938X0*%
%ADD38RoundRect,0.250000X1.273041X0.694166X-0.755403X1.237686X-1.273041X-0.694166X0.755403X-1.237686X0*%
%ADD39RoundRect,0.250000X1.449731X0.027908X-0.098551X1.446647X-1.449731X-0.027908X0.098551X-1.446647X0*%
%ADD40RoundRect,0.050000X0.424264X-0.734847X0.734847X0.424264X-0.424264X0.734847X-0.734847X-0.424264X0*%
%ADD41RoundRect,0.050000X0.769028X-0.358603X0.358603X0.769028X-0.769028X0.358603X-0.358603X-0.769028X0*%
%ADD42RoundRect,0.050000X-0.769028X-0.358603X0.358603X-0.769028X0.769028X0.358603X-0.358603X0.769028X0*%
%ADD43RoundRect,0.050000X0.324718X-0.783938X0.783938X0.324718X-0.324718X0.783938X-0.783938X-0.324718X0*%
%ADD44RoundRect,0.250000X0.644657X1.298814X-1.328697X0.580571X-0.644657X-1.298814X1.328697X-0.580571X0*%
%ADD45RoundRect,0.050000X0.695074X-0.486696X0.486696X0.695074X-0.695074X0.486696X-0.486696X-0.695074X0*%
%ADD46RoundRect,0.050000X-0.324718X-0.783938X0.783938X-0.324718X0.324718X0.783938X-0.783938X0.324718X0*%
%ADD47RoundRect,0.050000X-0.424264X-0.734847X0.734847X-0.424264X0.424264X0.734847X-0.734847X0.424264X0*%
%ADD48RoundRect,0.250000X0.755403X1.237686X-1.273041X0.694166X-0.755403X-1.237686X1.273041X-0.694166X0*%
%ADD49RoundRect,0.050000X0.847721X-0.037012X0.037012X0.847721X-0.847721X0.037012X-0.037012X-0.847721X0*%
%ADD50RoundRect,0.250000X0.098551X1.446647X-1.449731X0.027908X-0.098551X-1.446647X1.449731X-0.027908X0*%
G04 APERTURE END LIST*
D10*
%TO.C,T1*%
X175738322Y-32531494D03*
X175738322Y-34731500D03*
D11*
X177938324Y-33631498D03*
X180938320Y-33631496D03*
D10*
X183138322Y-32531494D03*
X183138322Y-34731500D03*
D12*
X177188322Y-35706497D03*
X180188319Y-35706498D03*
X181688322Y-35706497D03*
%TD*%
D13*
%TO.C,MCU1*%
X122318319Y-34361508D03*
X122318319Y-36901508D03*
X122318319Y-39441508D03*
X122318321Y-41981509D03*
X122318319Y-44521508D03*
X122318319Y-47061508D03*
X122318319Y-49601508D03*
X138558319Y-49601508D03*
X138558319Y-47061508D03*
X138558319Y-44521508D03*
X138558317Y-41981507D03*
X138558319Y-39441508D03*
D14*
X138558319Y-36901508D03*
D13*
X138558319Y-34361508D03*
%TD*%
D15*
%TO.C,*%
X248759672Y-68030784D03*
X249033004Y-66797864D03*
X249438204Y-69095866D03*
X250671124Y-69369198D03*
D16*
X250384605Y-67744265D03*
D15*
X250098086Y-66119332D03*
X251331006Y-66392664D03*
X251736206Y-68690666D03*
X252009538Y-67457746D03*
%TD*%
%TO.C,*%
X93195452Y-54032026D03*
X94048625Y-53100951D03*
X93250537Y-55293679D03*
X95310278Y-53045866D03*
D16*
X94745945Y-54596359D03*
D15*
X94181612Y-56146852D03*
X96241353Y-53899039D03*
X95443265Y-56091767D03*
X96296438Y-55160692D03*
%TD*%
%TO.C,*%
X182561437Y-133130251D03*
X182129516Y-131943555D03*
X183705973Y-133663956D03*
X182663221Y-130799019D03*
D16*
X183777945Y-132015527D03*
D15*
X184892669Y-133232035D03*
X183849917Y-130367098D03*
X185426374Y-132087499D03*
X184994453Y-130900803D03*
%TD*%
%TO.C,*%
X149788316Y-35431511D03*
X150271590Y-34264785D03*
X150271590Y-36598237D03*
X151438316Y-33781511D03*
D16*
X151438316Y-35431511D03*
D15*
X151438316Y-37081511D03*
X152605042Y-34264785D03*
X152605042Y-36598237D03*
X153088316Y-35431511D03*
%TD*%
%TO.C,*%
X111398540Y-36181319D03*
X112251713Y-35250244D03*
X111453625Y-37442972D03*
X113513366Y-35195159D03*
D16*
X112949033Y-36745652D03*
D15*
X112384700Y-38296145D03*
X114444441Y-36048332D03*
X113646353Y-38241060D03*
X114499526Y-37309985D03*
%TD*%
D17*
%TO.C,PAD4*%
X171938319Y-46431510D03*
%TD*%
D15*
%TO.C,*%
X206580198Y-55160694D03*
X206635283Y-53899041D03*
X207433371Y-56091769D03*
X207566358Y-53045868D03*
D16*
X208130691Y-54596361D03*
D15*
X208695024Y-56146854D03*
X208828011Y-53100953D03*
X209626099Y-55293681D03*
X209681184Y-54032028D03*
%TD*%
%TO.C,*%
X149788319Y-140692518D03*
X150271593Y-139525792D03*
X150271593Y-141859244D03*
X151438319Y-139042518D03*
D16*
X151438319Y-140692518D03*
D15*
X151438319Y-142342518D03*
X152605045Y-139525792D03*
X152605045Y-141859244D03*
X153088319Y-140692518D03*
%TD*%
D18*
%TO.C,PAD2*%
X134438312Y-55731509D03*
%TD*%
D15*
%TO.C,*%
X239285720Y-107881342D03*
X239559052Y-106648422D03*
X239964252Y-108946424D03*
X241197172Y-109219756D03*
D16*
X240910653Y-107594823D03*
D15*
X240624134Y-105969890D03*
X241857054Y-106243222D03*
X242262254Y-108541224D03*
X242535586Y-107308304D03*
%TD*%
%TO.C,*%
X188377118Y-37309990D03*
X188432203Y-36048337D03*
X189230291Y-38241065D03*
X189363278Y-35195164D03*
D16*
X189927611Y-36745657D03*
D15*
X190491944Y-38296150D03*
X190624931Y-35250249D03*
X191423019Y-37442977D03*
X191478104Y-36181324D03*
%TD*%
%TO.C,*%
X50867097Y-67457746D03*
X51545629Y-66392664D03*
X51140429Y-68690666D03*
X52778549Y-66119332D03*
D16*
X52492030Y-67744265D03*
D15*
X52205511Y-69369198D03*
X53843631Y-66797864D03*
X53438431Y-69095866D03*
X54116963Y-68030784D03*
%TD*%
D18*
%TO.C,PAD1*%
X126438321Y-55731505D03*
%TD*%
%TO.C,PAD3*%
X168438313Y-51431510D03*
%TD*%
D15*
%TO.C,*%
X117882183Y-130900811D03*
X119026719Y-130367106D03*
X117450262Y-132087507D03*
X120213415Y-130799027D03*
D16*
X119098691Y-132015535D03*
D15*
X117983967Y-133232043D03*
X120747120Y-131943563D03*
X119170663Y-133663964D03*
X120315199Y-133130259D03*
%TD*%
D19*
%TO.C,B1*%
X233752015Y-45119236D03*
X234463767Y-47775532D03*
D20*
X231352340Y-46305747D03*
X236423450Y-44946947D03*
X231792332Y-47947821D03*
X236863442Y-46589021D03*
%TD*%
D21*
%TO.C,ENC1*%
X145838324Y-115992513D03*
D22*
X157038324Y-115992513D03*
%TD*%
D15*
%TO.C,*%
X60341047Y-107308294D03*
X61019579Y-106243212D03*
X60614379Y-108541214D03*
X62252499Y-105969880D03*
D16*
X61965980Y-107594813D03*
D15*
X61679461Y-109219746D03*
X63317581Y-106648412D03*
X62912381Y-108946414D03*
X63590913Y-107881332D03*
%TD*%
D23*
%TO.C,I1*%
X68507563Y-102539247D03*
X71695119Y-103393347D03*
%TD*%
D24*
%TO.C,S14*%
X146424165Y-83169691D03*
D25*
X137188323Y-84431323D03*
D24*
X133614506Y-76727244D03*
D26*
X143052004Y-81772897D03*
X136986666Y-78124039D03*
%TD*%
D27*
%TO.C,S25*%
X191304311Y-75588742D03*
D25*
X185665694Y-83011576D03*
D27*
X177691017Y-80091040D03*
D26*
X187932153Y-76985535D03*
X181063180Y-78694244D03*
%TD*%
D28*
%TO.C,SW2*%
X59706239Y-82978439D03*
X60279277Y-79728573D03*
%TD*%
D23*
%TO.C,D1*%
X69245199Y-99786365D03*
X72432755Y-100640465D03*
%TD*%
D29*
%TO.C,D5*%
X209890182Y-96416659D03*
X212991168Y-95287993D03*
%TD*%
D30*
%TO.C,SW15*%
X133864794Y-140324246D03*
X136094242Y-137891230D03*
%TD*%
D31*
%TO.C,S1*%
X60686909Y-94981083D03*
D25*
X51943060Y-98211812D03*
D31*
X46786489Y-91463866D03*
D26*
X57092362Y-94347271D03*
X50381037Y-92097682D03*
%TD*%
D32*
%TO.C,SW8*%
X105625484Y-71485948D03*
X106754150Y-68384962D03*
%TD*%
D33*
%TO.C,D3*%
X124030337Y-111885833D03*
X127079139Y-113148689D03*
%TD*%
D34*
%TO.C,S9*%
X117503779Y-47768215D03*
D25*
X108331759Y-49431508D03*
D34*
X104425296Y-41890650D03*
D26*
X114073899Y-46519841D03*
X107855174Y-43139023D03*
%TD*%
D35*
%TO.C,SW21*%
X215108236Y-56350468D03*
X214254136Y-53162912D03*
%TD*%
D36*
%TO.C,S16*%
X254745828Y-73474000D03*
D25*
X247634272Y-79500464D03*
D36*
X240480745Y-74923121D03*
D26*
X251151281Y-74107821D03*
X244075295Y-74289305D03*
%TD*%
D37*
%TO.C,SW26*%
X182060411Y-87373277D03*
X180797555Y-84324475D03*
%TD*%
D35*
%TO.C,SW20*%
X220025803Y-74703059D03*
X219171703Y-71515503D03*
%TD*%
D31*
%TO.C,S2*%
X63986227Y-76269731D03*
D25*
X55242378Y-79500460D03*
D31*
X50085807Y-72752514D03*
D26*
X60391680Y-75635919D03*
X53680355Y-73386330D03*
%TD*%
D32*
%TO.C,SW9*%
X112123869Y-53631787D03*
X113252535Y-50530801D03*
%TD*%
D38*
%TO.C,S6*%
X92616793Y-50040327D03*
D25*
X83624641Y-52496685D03*
D38*
X79075814Y-45324992D03*
D26*
X89091158Y-49095638D03*
X82601443Y-46269682D03*
%TD*%
D39*
%TO.C,S29*%
X141079064Y-136965810D03*
D25*
X131968707Y-134992512D03*
D39*
X131245367Y-126530728D03*
D26*
X138388001Y-134499905D03*
X133936432Y-128996636D03*
%TD*%
D27*
%TO.C,S24*%
X198575292Y-93142455D03*
D25*
X192936675Y-100565289D03*
D27*
X184961998Y-97644753D03*
D26*
X195203134Y-94539248D03*
X188334161Y-96247957D03*
%TD*%
D32*
%TO.C,SW7*%
X99127101Y-89340113D03*
X100255767Y-86239127D03*
%TD*%
D36*
%TO.C,S15*%
X258045132Y-92185349D03*
D25*
X250933576Y-98211813D03*
D36*
X243780049Y-93634470D03*
D26*
X254450585Y-92819170D03*
X247374599Y-93000654D03*
%TD*%
D40*
%TO.C,SW5*%
X82850842Y-74703064D03*
X83704942Y-71515508D03*
%TD*%
D35*
%TO.C,SW18*%
X236516952Y-62521588D03*
X235662852Y-59334032D03*
%TD*%
D24*
%TO.C,S10*%
X119175804Y-99303650D03*
D25*
X109939962Y-100565282D03*
D24*
X106366145Y-92861203D03*
D26*
X115803643Y-97906856D03*
X109738305Y-94257998D03*
%TD*%
D41*
%TO.C,SW22*%
X203749531Y-89340111D03*
X202620865Y-86239125D03*
%TD*%
D27*
%TO.C,S27*%
X178597921Y-94562200D03*
D25*
X172959304Y-101985034D03*
D27*
X164984627Y-99064498D03*
D26*
X175225763Y-95958993D03*
X168356790Y-97667702D03*
%TD*%
D37*
%TO.C,SW28*%
X169354019Y-106346734D03*
X168091163Y-103297932D03*
%TD*%
D42*
%TO.C,I2*%
X88910709Y-97966111D03*
X92011695Y-99094777D03*
%TD*%
D34*
%TO.C,S8*%
X111005401Y-65622373D03*
D25*
X101833381Y-67285666D03*
D34*
X97926918Y-59744808D03*
D26*
X107575521Y-64373999D03*
X101356796Y-60993181D03*
%TD*%
D43*
%TO.C,SW11*%
X120816229Y-87373271D03*
X122079085Y-84324469D03*
%TD*%
D44*
%TO.C,S22*%
X207000295Y-60115854D03*
D25*
X201043265Y-67285670D03*
D44*
X193203570Y-64020063D03*
D26*
X203570419Y-61364227D03*
X196633450Y-62771689D03*
%TD*%
D37*
%TO.C,SW29*%
X162083027Y-88793016D03*
X160820171Y-85744214D03*
%TD*%
D45*
%TO.C,SW17*%
X243170399Y-82978449D03*
X242597361Y-79728583D03*
%TD*%
D46*
%TO.C,I6*%
X176888140Y-115781747D03*
X179936942Y-114518891D03*
%TD*%
D47*
%TO.C,I4*%
X231181512Y-103393349D03*
X234369068Y-102539249D03*
%TD*%
D45*
%TO.C,SW16*%
X246469703Y-101689787D03*
X245896665Y-98439921D03*
%TD*%
D48*
%TO.C,S19*%
X230728815Y-64225919D03*
D25*
X224169562Y-70849264D03*
D48*
X216644315Y-66912806D03*
D26*
X227203188Y-65170613D03*
X220169945Y-65968120D03*
%TD*%
D27*
%TO.C,S26*%
X184033331Y-58035034D03*
D25*
X178394714Y-65457868D03*
D27*
X170420037Y-62537332D03*
D26*
X180661173Y-59431827D03*
X173792200Y-61140536D03*
%TD*%
D37*
%TO.C,SW27*%
X174789420Y-69819556D03*
X173526564Y-66770754D03*
%TD*%
D28*
%TO.C,SW1*%
X56406927Y-101689791D03*
X56979965Y-98439925D03*
%TD*%
D43*
%TO.C,SW10*%
X113545245Y-104926988D03*
X114808101Y-101878186D03*
%TD*%
D24*
%TO.C,S12*%
X133717769Y-64196229D03*
D25*
X124481927Y-65457861D03*
D24*
X120908110Y-57753782D03*
D26*
X130345608Y-62799435D03*
X124280270Y-59150577D03*
%TD*%
D49*
%TO.C,SW30*%
X169011843Y-140324252D03*
X166782395Y-137891236D03*
%TD*%
D40*
%TO.C,SW4*%
X77933273Y-93055658D03*
X78787373Y-89868102D03*
%TD*%
D48*
%TO.C,S17*%
X247219965Y-52044449D03*
D25*
X240660712Y-58667794D03*
D48*
X233135465Y-54731336D03*
D26*
X243694338Y-52989143D03*
X236661095Y-53786650D03*
%TD*%
D35*
%TO.C,SW19*%
X224943363Y-93055652D03*
X224089263Y-89868096D03*
%TD*%
D38*
%TO.C,S5*%
X87699227Y-68392905D03*
D25*
X78707075Y-70849263D03*
D38*
X74158248Y-63677570D03*
D26*
X84173592Y-67448216D03*
X77683877Y-64622260D03*
%TD*%
D24*
%TO.C,S11*%
X126446790Y-81749938D03*
D25*
X117210948Y-83011570D03*
D24*
X113637131Y-75307491D03*
D26*
X123074629Y-80353144D03*
X117009291Y-76704286D03*
%TD*%
D50*
%TO.C,S30*%
X173667732Y-126088808D03*
D25*
X170907923Y-134992513D03*
D50*
X162415296Y-134975607D03*
D26*
X170976669Y-128554713D03*
X165106358Y-132509704D03*
%TD*%
D44*
%TO.C,S23*%
X200501911Y-42261694D03*
D25*
X194544881Y-49431510D03*
D44*
X186705186Y-46165903D03*
D26*
X197072035Y-43510067D03*
X190135066Y-44917529D03*
%TD*%
D27*
%TO.C,S28*%
X171326945Y-77008495D03*
D25*
X165688328Y-84431329D03*
D27*
X157713651Y-81510793D03*
D26*
X167954787Y-78405288D03*
X161085814Y-80113997D03*
%TD*%
D34*
%TO.C,S7*%
X104507006Y-83476533D03*
D25*
X95334986Y-85139826D03*
D34*
X91428523Y-77598968D03*
D26*
X101077126Y-82228159D03*
X94858401Y-78847341D03*
%TD*%
D47*
%TO.C,D4*%
X230443881Y-100640466D03*
X233631437Y-99786366D03*
%TD*%
D41*
%TO.C,SW23*%
X197251149Y-71485957D03*
X196122483Y-68384971D03*
%TD*%
%TO.C,SW24*%
X190752764Y-53631792D03*
X189624098Y-50530806D03*
%TD*%
D48*
%TO.C,S20*%
X225811242Y-45873330D03*
D25*
X219251989Y-52496675D03*
D48*
X211726742Y-48560217D03*
D26*
X222285615Y-46818024D03*
X215252372Y-47615531D03*
%TD*%
D37*
%TO.C,SW25*%
X189331391Y-104926989D03*
X188068535Y-101878187D03*
%TD*%
D42*
%TO.C,D2*%
X89885473Y-95287990D03*
X92986459Y-96416656D03*
%TD*%
D40*
%TO.C,SW6*%
X87768404Y-56350478D03*
X88622504Y-53162922D03*
%TD*%
D38*
%TO.C,S4*%
X82781662Y-86745495D03*
D25*
X73789510Y-89201853D03*
D38*
X69240683Y-82030160D03*
D26*
X79256027Y-85800806D03*
X72766312Y-82974850D03*
%TD*%
D38*
%TO.C,S3*%
X71208078Y-56211436D03*
D25*
X62215926Y-58667794D03*
D38*
X57667099Y-51496101D03*
D26*
X67682443Y-55266747D03*
X61192728Y-52440791D03*
%TD*%
D43*
%TO.C,SW12*%
X128087221Y-69819560D03*
X129350077Y-66770758D03*
%TD*%
D46*
%TO.C,D6*%
X175797496Y-113148688D03*
X178846298Y-111885832D03*
%TD*%
D29*
%TO.C,I5*%
X210864947Y-99094779D03*
X213965933Y-97966113D03*
%TD*%
D24*
%TO.C,S13*%
X139153173Y-100723407D03*
D25*
X129917331Y-101985039D03*
D24*
X126343514Y-94280960D03*
D26*
X135781012Y-99326613D03*
X129715674Y-95677755D03*
%TD*%
D43*
%TO.C,SW14*%
X140793609Y-88793020D03*
X142056465Y-85744218D03*
%TD*%
D33*
%TO.C,I3*%
X122939695Y-114518891D03*
X125988497Y-115781747D03*
%TD*%
D44*
%TO.C,S21*%
X213498673Y-77970013D03*
D25*
X207541643Y-85139829D03*
D44*
X199701948Y-81874222D03*
D26*
X210068797Y-79218386D03*
X203131828Y-80625848D03*
%TD*%
D43*
%TO.C,SW13*%
X133522620Y-106346736D03*
X134785476Y-103297934D03*
%TD*%
D48*
%TO.C,S18*%
X235646367Y-82578514D03*
D25*
X229087114Y-89201859D03*
D48*
X221561867Y-85265401D03*
D26*
X232120740Y-83523208D03*
X225087497Y-84320715D03*
%TD*%
D40*
%TO.C,SW3*%
X66359686Y-62521591D03*
X67213786Y-59334035D03*
%TD*%
M02*
