%TF.GenerationSoftware,KiCad,Pcbnew,8.0.7*%
%TF.CreationDate,2024-12-24T09:40:09-07:00*%
%TF.ProjectId,chuck,63687563-6b2e-46b6-9963-61645f706362,v1.0*%
%TF.SameCoordinates,Original*%
%TF.FileFunction,Legend,Bot*%
%TF.FilePolarity,Positive*%
%FSLAX46Y46*%
G04 Gerber Fmt 4.6, Leading zero omitted, Abs format (unit mm)*
G04 Created by KiCad (PCBNEW 8.0.7) date 2024-12-24 09:40:09*
%MOMM*%
%LPD*%
G01*
G04 APERTURE LIST*
%ADD10C,0.153000*%
%ADD11C,0.150000*%
%ADD12C,0.200000*%
%ADD13C,0.120000*%
G04 APERTURE END LIST*
D10*
X140932602Y-53183843D02*
X140265936Y-54183843D01*
X140265936Y-53183843D02*
X140932602Y-54183843D01*
X139884983Y-54183843D02*
X139884983Y-53183843D01*
X139456412Y-53898128D02*
X138980222Y-53898128D01*
X139551650Y-54183843D02*
X139218317Y-53183843D01*
X139218317Y-53183843D02*
X138884984Y-54183843D01*
X138361174Y-53183843D02*
X138170698Y-53183843D01*
X138170698Y-53183843D02*
X138075460Y-53231462D01*
X138075460Y-53231462D02*
X137980222Y-53326700D01*
X137980222Y-53326700D02*
X137932603Y-53517176D01*
X137932603Y-53517176D02*
X137932603Y-53850509D01*
X137932603Y-53850509D02*
X137980222Y-54040985D01*
X137980222Y-54040985D02*
X138075460Y-54136224D01*
X138075460Y-54136224D02*
X138170698Y-54183843D01*
X138170698Y-54183843D02*
X138361174Y-54183843D01*
X138361174Y-54183843D02*
X138456412Y-54136224D01*
X138456412Y-54136224D02*
X138551650Y-54040985D01*
X138551650Y-54040985D02*
X138599269Y-53850509D01*
X138599269Y-53850509D02*
X138599269Y-53517176D01*
X138599269Y-53517176D02*
X138551650Y-53326700D01*
X138551650Y-53326700D02*
X138456412Y-53231462D01*
X138456412Y-53231462D02*
X138361174Y-53183843D01*
X136408793Y-53660033D02*
X136265936Y-53707652D01*
X136265936Y-53707652D02*
X136218317Y-53755271D01*
X136218317Y-53755271D02*
X136170698Y-53850509D01*
X136170698Y-53850509D02*
X136170698Y-53993366D01*
X136170698Y-53993366D02*
X136218317Y-54088604D01*
X136218317Y-54088604D02*
X136265936Y-54136224D01*
X136265936Y-54136224D02*
X136361174Y-54183843D01*
X136361174Y-54183843D02*
X136742126Y-54183843D01*
X136742126Y-54183843D02*
X136742126Y-53183843D01*
X136742126Y-53183843D02*
X136408793Y-53183843D01*
X136408793Y-53183843D02*
X136313555Y-53231462D01*
X136313555Y-53231462D02*
X136265936Y-53279081D01*
X136265936Y-53279081D02*
X136218317Y-53374319D01*
X136218317Y-53374319D02*
X136218317Y-53469557D01*
X136218317Y-53469557D02*
X136265936Y-53564795D01*
X136265936Y-53564795D02*
X136313555Y-53612414D01*
X136313555Y-53612414D02*
X136408793Y-53660033D01*
X136408793Y-53660033D02*
X136742126Y-53660033D01*
X135265936Y-54183843D02*
X135742126Y-54183843D01*
X135742126Y-54183843D02*
X135742126Y-53183843D01*
X134932602Y-53660033D02*
X134599269Y-53660033D01*
X134456412Y-54183843D02*
X134932602Y-54183843D01*
X134932602Y-54183843D02*
X134932602Y-53183843D01*
X134932602Y-53183843D02*
X134456412Y-53183843D01*
X132932602Y-53660033D02*
X133265935Y-53660033D01*
X133265935Y-54183843D02*
X133265935Y-53183843D01*
X133265935Y-53183843D02*
X132789745Y-53183843D01*
X132456411Y-53898128D02*
X131980221Y-53898128D01*
X132551649Y-54183843D02*
X132218316Y-53183843D01*
X132218316Y-53183843D02*
X131884983Y-54183843D01*
X130980221Y-54088604D02*
X131027840Y-54136224D01*
X131027840Y-54136224D02*
X131170697Y-54183843D01*
X131170697Y-54183843D02*
X131265935Y-54183843D01*
X131265935Y-54183843D02*
X131408792Y-54136224D01*
X131408792Y-54136224D02*
X131504030Y-54040985D01*
X131504030Y-54040985D02*
X131551649Y-53945747D01*
X131551649Y-53945747D02*
X131599268Y-53755271D01*
X131599268Y-53755271D02*
X131599268Y-53612414D01*
X131599268Y-53612414D02*
X131551649Y-53421938D01*
X131551649Y-53421938D02*
X131504030Y-53326700D01*
X131504030Y-53326700D02*
X131408792Y-53231462D01*
X131408792Y-53231462D02*
X131265935Y-53183843D01*
X131265935Y-53183843D02*
X131170697Y-53183843D01*
X131170697Y-53183843D02*
X131027840Y-53231462D01*
X131027840Y-53231462D02*
X130980221Y-53279081D01*
X130551649Y-53660033D02*
X130218316Y-53660033D01*
X130075459Y-54183843D02*
X130551649Y-54183843D01*
X130551649Y-54183843D02*
X130551649Y-53183843D01*
X130551649Y-53183843D02*
X130075459Y-53183843D01*
X128884982Y-54183843D02*
X128884982Y-53183843D01*
X128884982Y-53183843D02*
X128646887Y-53183843D01*
X128646887Y-53183843D02*
X128504030Y-53231462D01*
X128504030Y-53231462D02*
X128408792Y-53326700D01*
X128408792Y-53326700D02*
X128361173Y-53421938D01*
X128361173Y-53421938D02*
X128313554Y-53612414D01*
X128313554Y-53612414D02*
X128313554Y-53755271D01*
X128313554Y-53755271D02*
X128361173Y-53945747D01*
X128361173Y-53945747D02*
X128408792Y-54040985D01*
X128408792Y-54040985D02*
X128504030Y-54136224D01*
X128504030Y-54136224D02*
X128646887Y-54183843D01*
X128646887Y-54183843D02*
X128884982Y-54183843D01*
X127694506Y-53183843D02*
X127504030Y-53183843D01*
X127504030Y-53183843D02*
X127408792Y-53231462D01*
X127408792Y-53231462D02*
X127313554Y-53326700D01*
X127313554Y-53326700D02*
X127265935Y-53517176D01*
X127265935Y-53517176D02*
X127265935Y-53850509D01*
X127265935Y-53850509D02*
X127313554Y-54040985D01*
X127313554Y-54040985D02*
X127408792Y-54136224D01*
X127408792Y-54136224D02*
X127504030Y-54183843D01*
X127504030Y-54183843D02*
X127694506Y-54183843D01*
X127694506Y-54183843D02*
X127789744Y-54136224D01*
X127789744Y-54136224D02*
X127884982Y-54040985D01*
X127884982Y-54040985D02*
X127932601Y-53850509D01*
X127932601Y-53850509D02*
X127932601Y-53517176D01*
X127932601Y-53517176D02*
X127884982Y-53326700D01*
X127884982Y-53326700D02*
X127789744Y-53231462D01*
X127789744Y-53231462D02*
X127694506Y-53183843D01*
X126932601Y-53183843D02*
X126694506Y-54183843D01*
X126694506Y-54183843D02*
X126504030Y-53469557D01*
X126504030Y-53469557D02*
X126313554Y-54183843D01*
X126313554Y-54183843D02*
X126075459Y-53183843D01*
X125694506Y-54183843D02*
X125694506Y-53183843D01*
X125694506Y-53183843D02*
X125123078Y-54183843D01*
X125123078Y-54183843D02*
X125123078Y-53183843D01*
X177141467Y-33233853D02*
X177141467Y-32233853D01*
X177141467Y-32233853D02*
X176760515Y-32233853D01*
X176760515Y-32233853D02*
X176665277Y-32281472D01*
X176665277Y-32281472D02*
X176617658Y-32329091D01*
X176617658Y-32329091D02*
X176570039Y-32424329D01*
X176570039Y-32424329D02*
X176570039Y-32567186D01*
X176570039Y-32567186D02*
X176617658Y-32662424D01*
X176617658Y-32662424D02*
X176665277Y-32710043D01*
X176665277Y-32710043D02*
X176760515Y-32757662D01*
X176760515Y-32757662D02*
X177141467Y-32757662D01*
X175950991Y-32233853D02*
X175760515Y-32233853D01*
X175760515Y-32233853D02*
X175665277Y-32281472D01*
X175665277Y-32281472D02*
X175570039Y-32376710D01*
X175570039Y-32376710D02*
X175522420Y-32567186D01*
X175522420Y-32567186D02*
X175522420Y-32900519D01*
X175522420Y-32900519D02*
X175570039Y-33090995D01*
X175570039Y-33090995D02*
X175665277Y-33186234D01*
X175665277Y-33186234D02*
X175760515Y-33233853D01*
X175760515Y-33233853D02*
X175950991Y-33233853D01*
X175950991Y-33233853D02*
X176046229Y-33186234D01*
X176046229Y-33186234D02*
X176141467Y-33090995D01*
X176141467Y-33090995D02*
X176189086Y-32900519D01*
X176189086Y-32900519D02*
X176189086Y-32567186D01*
X176189086Y-32567186D02*
X176141467Y-32376710D01*
X176141467Y-32376710D02*
X176046229Y-32281472D01*
X176046229Y-32281472D02*
X175950991Y-32233853D01*
X175189086Y-32233853D02*
X174950991Y-33233853D01*
X174950991Y-33233853D02*
X174760515Y-32519567D01*
X174760515Y-32519567D02*
X174570039Y-33233853D01*
X174570039Y-33233853D02*
X174331944Y-32233853D01*
X173950991Y-32710043D02*
X173617658Y-32710043D01*
X173474801Y-33233853D02*
X173950991Y-33233853D01*
X173950991Y-33233853D02*
X173950991Y-32233853D01*
X173950991Y-32233853D02*
X173474801Y-32233853D01*
X172474801Y-33233853D02*
X172808134Y-32757662D01*
X173046229Y-33233853D02*
X173046229Y-32233853D01*
X173046229Y-32233853D02*
X172665277Y-32233853D01*
X172665277Y-32233853D02*
X172570039Y-32281472D01*
X172570039Y-32281472D02*
X172522420Y-32329091D01*
X172522420Y-32329091D02*
X172474801Y-32424329D01*
X172474801Y-32424329D02*
X172474801Y-32567186D01*
X172474801Y-32567186D02*
X172522420Y-32662424D01*
X172522420Y-32662424D02*
X172570039Y-32710043D01*
X172570039Y-32710043D02*
X172665277Y-32757662D01*
X172665277Y-32757662D02*
X173046229Y-32757662D01*
X176950997Y-33633858D02*
X176760521Y-33633858D01*
X176760521Y-33633858D02*
X176665283Y-33681477D01*
X176665283Y-33681477D02*
X176570045Y-33776715D01*
X176570045Y-33776715D02*
X176522426Y-33967191D01*
X176522426Y-33967191D02*
X176522426Y-34300524D01*
X176522426Y-34300524D02*
X176570045Y-34491000D01*
X176570045Y-34491000D02*
X176665283Y-34586239D01*
X176665283Y-34586239D02*
X176760521Y-34633858D01*
X176760521Y-34633858D02*
X176950997Y-34633858D01*
X176950997Y-34633858D02*
X177046235Y-34586239D01*
X177046235Y-34586239D02*
X177141473Y-34491000D01*
X177141473Y-34491000D02*
X177189092Y-34300524D01*
X177189092Y-34300524D02*
X177189092Y-33967191D01*
X177189092Y-33967191D02*
X177141473Y-33776715D01*
X177141473Y-33776715D02*
X177046235Y-33681477D01*
X177046235Y-33681477D02*
X176950997Y-33633858D01*
X176093854Y-34633858D02*
X176093854Y-33633858D01*
X176093854Y-33633858D02*
X175522426Y-34633858D01*
X175522426Y-34633858D02*
X175522426Y-33633858D01*
X188914210Y-32233857D02*
X188723734Y-32233857D01*
X188723734Y-32233857D02*
X188628496Y-32281476D01*
X188628496Y-32281476D02*
X188533258Y-32376714D01*
X188533258Y-32376714D02*
X188485639Y-32567190D01*
X188485639Y-32567190D02*
X188485639Y-32900523D01*
X188485639Y-32900523D02*
X188533258Y-33090999D01*
X188533258Y-33090999D02*
X188628496Y-33186238D01*
X188628496Y-33186238D02*
X188723734Y-33233857D01*
X188723734Y-33233857D02*
X188914210Y-33233857D01*
X188914210Y-33233857D02*
X189009448Y-33186238D01*
X189009448Y-33186238D02*
X189104686Y-33090999D01*
X189104686Y-33090999D02*
X189152305Y-32900523D01*
X189152305Y-32900523D02*
X189152305Y-32567190D01*
X189152305Y-32567190D02*
X189104686Y-32376714D01*
X189104686Y-32376714D02*
X189009448Y-32281476D01*
X189009448Y-32281476D02*
X188914210Y-32233857D01*
X187723734Y-32710047D02*
X188057067Y-32710047D01*
X188057067Y-33233857D02*
X188057067Y-32233857D01*
X188057067Y-32233857D02*
X187580877Y-32233857D01*
X186866591Y-32710047D02*
X187199924Y-32710047D01*
X187199924Y-33233857D02*
X187199924Y-32233857D01*
X187199924Y-32233857D02*
X186723734Y-32233857D01*
X244160838Y-44032027D02*
X244359566Y-43485790D01*
X244712796Y-43884131D02*
X244453977Y-42918205D01*
X244453977Y-42918205D02*
X244086005Y-43016803D01*
X244086005Y-43016803D02*
X244006337Y-43087449D01*
X244006337Y-43087449D02*
X243972665Y-43145770D01*
X243972665Y-43145770D02*
X243951318Y-43250087D01*
X243951318Y-43250087D02*
X243988292Y-43388077D01*
X243988292Y-43388077D02*
X244058938Y-43467745D01*
X244058938Y-43467745D02*
X244117259Y-43501417D01*
X244117259Y-43501417D02*
X244221577Y-43522764D01*
X244221577Y-43522764D02*
X244589549Y-43424166D01*
X243611298Y-43636989D02*
X243289323Y-43723262D01*
X243286905Y-44266197D02*
X243746870Y-44142950D01*
X243746870Y-44142950D02*
X243488051Y-43177024D01*
X243488051Y-43177024D02*
X243028086Y-43300271D01*
X242906609Y-44318798D02*
X242780944Y-44401769D01*
X242780944Y-44401769D02*
X242550962Y-44463392D01*
X242550962Y-44463392D02*
X242446644Y-44442045D01*
X242446644Y-44442045D02*
X242388323Y-44408374D01*
X242388323Y-44408374D02*
X242317677Y-44328705D01*
X242317677Y-44328705D02*
X242293027Y-44236712D01*
X242293027Y-44236712D02*
X242314375Y-44132395D01*
X242314375Y-44132395D02*
X242348046Y-44074074D01*
X242348046Y-44074074D02*
X242427714Y-44003428D01*
X242427714Y-44003428D02*
X242599376Y-43908132D01*
X242599376Y-43908132D02*
X242679044Y-43837487D01*
X242679044Y-43837487D02*
X242712716Y-43779165D01*
X242712716Y-43779165D02*
X242734063Y-43674848D01*
X242734063Y-43674848D02*
X242709413Y-43582855D01*
X242709413Y-43582855D02*
X242638767Y-43503187D01*
X242638767Y-43503187D02*
X242580446Y-43469515D01*
X242580446Y-43469515D02*
X242476128Y-43448168D01*
X242476128Y-43448168D02*
X242246146Y-43509791D01*
X242246146Y-43509791D02*
X242120481Y-43592762D01*
X241817436Y-44117653D02*
X241495460Y-44203926D01*
X241493043Y-44746861D02*
X241953008Y-44623614D01*
X241953008Y-44623614D02*
X241694188Y-43657688D01*
X241694188Y-43657688D02*
X241234224Y-43780935D01*
X240958245Y-43854883D02*
X240406287Y-44002780D01*
X240941085Y-44894758D02*
X240682266Y-43928832D01*
X167289748Y-39110044D02*
X167146891Y-39157663D01*
X167146891Y-39157663D02*
X167099272Y-39205282D01*
X167099272Y-39205282D02*
X167051653Y-39300520D01*
X167051653Y-39300520D02*
X167051653Y-39443377D01*
X167051653Y-39443377D02*
X167099272Y-39538615D01*
X167099272Y-39538615D02*
X167146891Y-39586235D01*
X167146891Y-39586235D02*
X167242129Y-39633854D01*
X167242129Y-39633854D02*
X167623081Y-39633854D01*
X167623081Y-39633854D02*
X167623081Y-38633854D01*
X167623081Y-38633854D02*
X167289748Y-38633854D01*
X167289748Y-38633854D02*
X167194510Y-38681473D01*
X167194510Y-38681473D02*
X167146891Y-38729092D01*
X167146891Y-38729092D02*
X167099272Y-38824330D01*
X167099272Y-38824330D02*
X167099272Y-38919568D01*
X167099272Y-38919568D02*
X167146891Y-39014806D01*
X167146891Y-39014806D02*
X167194510Y-39062425D01*
X167194510Y-39062425D02*
X167289748Y-39110044D01*
X167289748Y-39110044D02*
X167623081Y-39110044D01*
X166670700Y-39348139D02*
X166194510Y-39348139D01*
X166765938Y-39633854D02*
X166432605Y-38633854D01*
X166432605Y-38633854D02*
X166099272Y-39633854D01*
X165908795Y-38633854D02*
X165337367Y-38633854D01*
X165623081Y-39633854D02*
X165623081Y-38633854D01*
X165146890Y-38633854D02*
X164575462Y-38633854D01*
X164861176Y-39633854D02*
X164861176Y-38633854D01*
X164242128Y-39110044D02*
X163908795Y-39110044D01*
X163765938Y-39633854D02*
X164242128Y-39633854D01*
X164242128Y-39633854D02*
X164242128Y-38633854D01*
X164242128Y-38633854D02*
X163765938Y-38633854D01*
X162765938Y-39633854D02*
X163099271Y-39157663D01*
X163337366Y-39633854D02*
X163337366Y-38633854D01*
X163337366Y-38633854D02*
X162956414Y-38633854D01*
X162956414Y-38633854D02*
X162861176Y-38681473D01*
X162861176Y-38681473D02*
X162813557Y-38729092D01*
X162813557Y-38729092D02*
X162765938Y-38824330D01*
X162765938Y-38824330D02*
X162765938Y-38967187D01*
X162765938Y-38967187D02*
X162813557Y-39062425D01*
X162813557Y-39062425D02*
X162861176Y-39110044D01*
X162861176Y-39110044D02*
X162956414Y-39157663D01*
X162956414Y-39157663D02*
X163337366Y-39157663D01*
X162146890Y-39157663D02*
X162146890Y-39633854D01*
X162480223Y-38633854D02*
X162146890Y-39157663D01*
X162146890Y-39157663D02*
X161813557Y-38633854D01*
X160242128Y-38633854D02*
X160718318Y-38633854D01*
X160718318Y-38633854D02*
X160765937Y-39110044D01*
X160765937Y-39110044D02*
X160718318Y-39062425D01*
X160718318Y-39062425D02*
X160623080Y-39014806D01*
X160623080Y-39014806D02*
X160384985Y-39014806D01*
X160384985Y-39014806D02*
X160289747Y-39062425D01*
X160289747Y-39062425D02*
X160242128Y-39110044D01*
X160242128Y-39110044D02*
X160194509Y-39205282D01*
X160194509Y-39205282D02*
X160194509Y-39443377D01*
X160194509Y-39443377D02*
X160242128Y-39538615D01*
X160242128Y-39538615D02*
X160289747Y-39586235D01*
X160289747Y-39586235D02*
X160384985Y-39633854D01*
X160384985Y-39633854D02*
X160623080Y-39633854D01*
X160623080Y-39633854D02*
X160718318Y-39586235D01*
X160718318Y-39586235D02*
X160765937Y-39538615D01*
X159099270Y-39633854D02*
X158575461Y-38967187D01*
X159099270Y-38967187D02*
X158575461Y-39633854D01*
X157480222Y-38729092D02*
X157432603Y-38681473D01*
X157432603Y-38681473D02*
X157337365Y-38633854D01*
X157337365Y-38633854D02*
X157099270Y-38633854D01*
X157099270Y-38633854D02*
X157004032Y-38681473D01*
X157004032Y-38681473D02*
X156956413Y-38729092D01*
X156956413Y-38729092D02*
X156908794Y-38824330D01*
X156908794Y-38824330D02*
X156908794Y-38919568D01*
X156908794Y-38919568D02*
X156956413Y-39062425D01*
X156956413Y-39062425D02*
X157527841Y-39633854D01*
X157527841Y-39633854D02*
X156908794Y-39633854D01*
X156289746Y-38633854D02*
X156194508Y-38633854D01*
X156194508Y-38633854D02*
X156099270Y-38681473D01*
X156099270Y-38681473D02*
X156051651Y-38729092D01*
X156051651Y-38729092D02*
X156004032Y-38824330D01*
X156004032Y-38824330D02*
X155956413Y-39014806D01*
X155956413Y-39014806D02*
X155956413Y-39252901D01*
X155956413Y-39252901D02*
X156004032Y-39443377D01*
X156004032Y-39443377D02*
X156051651Y-39538615D01*
X156051651Y-39538615D02*
X156099270Y-39586235D01*
X156099270Y-39586235D02*
X156194508Y-39633854D01*
X156194508Y-39633854D02*
X156289746Y-39633854D01*
X156289746Y-39633854D02*
X156384984Y-39586235D01*
X156384984Y-39586235D02*
X156432603Y-39538615D01*
X156432603Y-39538615D02*
X156480222Y-39443377D01*
X156480222Y-39443377D02*
X156527841Y-39252901D01*
X156527841Y-39252901D02*
X156527841Y-39014806D01*
X156527841Y-39014806D02*
X156480222Y-38824330D01*
X156480222Y-38824330D02*
X156432603Y-38729092D01*
X156432603Y-38729092D02*
X156384984Y-38681473D01*
X156384984Y-38681473D02*
X156289746Y-38633854D01*
X154861174Y-39633854D02*
X154337365Y-38967187D01*
X154861174Y-38967187D02*
X154337365Y-39633854D01*
X153289745Y-38633854D02*
X152670698Y-38633854D01*
X152670698Y-38633854D02*
X153004031Y-39014806D01*
X153004031Y-39014806D02*
X152861174Y-39014806D01*
X152861174Y-39014806D02*
X152765936Y-39062425D01*
X152765936Y-39062425D02*
X152718317Y-39110044D01*
X152718317Y-39110044D02*
X152670698Y-39205282D01*
X152670698Y-39205282D02*
X152670698Y-39443377D01*
X152670698Y-39443377D02*
X152718317Y-39538615D01*
X152718317Y-39538615D02*
X152765936Y-39586235D01*
X152765936Y-39586235D02*
X152861174Y-39633854D01*
X152861174Y-39633854D02*
X153146888Y-39633854D01*
X153146888Y-39633854D02*
X153242126Y-39586235D01*
X153242126Y-39586235D02*
X153289745Y-39538615D01*
X152051650Y-38633854D02*
X151956412Y-38633854D01*
X151956412Y-38633854D02*
X151861174Y-38681473D01*
X151861174Y-38681473D02*
X151813555Y-38729092D01*
X151813555Y-38729092D02*
X151765936Y-38824330D01*
X151765936Y-38824330D02*
X151718317Y-39014806D01*
X151718317Y-39014806D02*
X151718317Y-39252901D01*
X151718317Y-39252901D02*
X151765936Y-39443377D01*
X151765936Y-39443377D02*
X151813555Y-39538615D01*
X151813555Y-39538615D02*
X151861174Y-39586235D01*
X151861174Y-39586235D02*
X151956412Y-39633854D01*
X151956412Y-39633854D02*
X152051650Y-39633854D01*
X152051650Y-39633854D02*
X152146888Y-39586235D01*
X152146888Y-39586235D02*
X152194507Y-39538615D01*
X152194507Y-39538615D02*
X152242126Y-39443377D01*
X152242126Y-39443377D02*
X152289745Y-39252901D01*
X152289745Y-39252901D02*
X152289745Y-39014806D01*
X152289745Y-39014806D02*
X152242126Y-38824330D01*
X152242126Y-38824330D02*
X152194507Y-38729092D01*
X152194507Y-38729092D02*
X152146888Y-38681473D01*
X152146888Y-38681473D02*
X152051650Y-38633854D01*
X150527840Y-39633854D02*
X150527840Y-38967187D01*
X150527840Y-39062425D02*
X150480221Y-39014806D01*
X150480221Y-39014806D02*
X150384983Y-38967187D01*
X150384983Y-38967187D02*
X150242126Y-38967187D01*
X150242126Y-38967187D02*
X150146888Y-39014806D01*
X150146888Y-39014806D02*
X150099269Y-39110044D01*
X150099269Y-39110044D02*
X150099269Y-39633854D01*
X150099269Y-39110044D02*
X150051650Y-39014806D01*
X150051650Y-39014806D02*
X149956412Y-38967187D01*
X149956412Y-38967187D02*
X149813555Y-38967187D01*
X149813555Y-38967187D02*
X149718316Y-39014806D01*
X149718316Y-39014806D02*
X149670697Y-39110044D01*
X149670697Y-39110044D02*
X149670697Y-39633854D01*
X149194507Y-39633854D02*
X149194507Y-38967187D01*
X149194507Y-39062425D02*
X149146888Y-39014806D01*
X149146888Y-39014806D02*
X149051650Y-38967187D01*
X149051650Y-38967187D02*
X148908793Y-38967187D01*
X148908793Y-38967187D02*
X148813555Y-39014806D01*
X148813555Y-39014806D02*
X148765936Y-39110044D01*
X148765936Y-39110044D02*
X148765936Y-39633854D01*
X148765936Y-39110044D02*
X148718317Y-39014806D01*
X148718317Y-39014806D02*
X148623079Y-38967187D01*
X148623079Y-38967187D02*
X148480222Y-38967187D01*
X148480222Y-38967187D02*
X148384983Y-39014806D01*
X148384983Y-39014806D02*
X148337364Y-39110044D01*
X148337364Y-39110044D02*
X148337364Y-39633854D01*
D11*
X123143435Y-37104014D02*
X123143435Y-36104014D01*
X123143435Y-36104014D02*
X122762483Y-36104014D01*
X122762483Y-36104014D02*
X122667245Y-36151633D01*
X122667245Y-36151633D02*
X122619626Y-36199252D01*
X122619626Y-36199252D02*
X122572007Y-36294490D01*
X122572007Y-36294490D02*
X122572007Y-36437347D01*
X122572007Y-36437347D02*
X122619626Y-36532585D01*
X122619626Y-36532585D02*
X122667245Y-36580204D01*
X122667245Y-36580204D02*
X122762483Y-36627823D01*
X122762483Y-36627823D02*
X123143435Y-36627823D01*
X121619626Y-37104014D02*
X122191054Y-37104014D01*
X121905340Y-37104014D02*
X121905340Y-36104014D01*
X121905340Y-36104014D02*
X122000578Y-36246871D01*
X122000578Y-36246871D02*
X122095816Y-36342109D01*
X122095816Y-36342109D02*
X122191054Y-36389728D01*
X144293182Y-44724010D02*
X144293182Y-43724010D01*
X144293182Y-43724010D02*
X143912230Y-43724010D01*
X143912230Y-43724010D02*
X143816992Y-43771629D01*
X143816992Y-43771629D02*
X143769373Y-43819248D01*
X143769373Y-43819248D02*
X143721754Y-43914486D01*
X143721754Y-43914486D02*
X143721754Y-44057343D01*
X143721754Y-44057343D02*
X143769373Y-44152581D01*
X143769373Y-44152581D02*
X143816992Y-44200200D01*
X143816992Y-44200200D02*
X143912230Y-44247819D01*
X143912230Y-44247819D02*
X144293182Y-44247819D01*
X143245563Y-44724010D02*
X143055087Y-44724010D01*
X143055087Y-44724010D02*
X142959849Y-44676391D01*
X142959849Y-44676391D02*
X142912230Y-44628771D01*
X142912230Y-44628771D02*
X142816992Y-44485914D01*
X142816992Y-44485914D02*
X142769373Y-44295438D01*
X142769373Y-44295438D02*
X142769373Y-43914486D01*
X142769373Y-43914486D02*
X142816992Y-43819248D01*
X142816992Y-43819248D02*
X142864611Y-43771629D01*
X142864611Y-43771629D02*
X142959849Y-43724010D01*
X142959849Y-43724010D02*
X143150325Y-43724010D01*
X143150325Y-43724010D02*
X143245563Y-43771629D01*
X143245563Y-43771629D02*
X143293182Y-43819248D01*
X143293182Y-43819248D02*
X143340801Y-43914486D01*
X143340801Y-43914486D02*
X143340801Y-44152581D01*
X143340801Y-44152581D02*
X143293182Y-44247819D01*
X143293182Y-44247819D02*
X143245563Y-44295438D01*
X143245563Y-44295438D02*
X143150325Y-44343057D01*
X143150325Y-44343057D02*
X142959849Y-44343057D01*
X142959849Y-44343057D02*
X142864611Y-44295438D01*
X142864611Y-44295438D02*
X142816992Y-44247819D01*
X142816992Y-44247819D02*
X142769373Y-44152581D01*
X144293188Y-47264008D02*
X144293188Y-46264008D01*
X144293188Y-46264008D02*
X143912236Y-46264008D01*
X143912236Y-46264008D02*
X143816998Y-46311627D01*
X143816998Y-46311627D02*
X143769379Y-46359246D01*
X143769379Y-46359246D02*
X143721760Y-46454484D01*
X143721760Y-46454484D02*
X143721760Y-46597341D01*
X143721760Y-46597341D02*
X143769379Y-46692579D01*
X143769379Y-46692579D02*
X143816998Y-46740198D01*
X143816998Y-46740198D02*
X143912236Y-46787817D01*
X143912236Y-46787817D02*
X144293188Y-46787817D01*
X143150331Y-46692579D02*
X143245569Y-46644960D01*
X143245569Y-46644960D02*
X143293188Y-46597341D01*
X143293188Y-46597341D02*
X143340807Y-46502103D01*
X143340807Y-46502103D02*
X143340807Y-46454484D01*
X143340807Y-46454484D02*
X143293188Y-46359246D01*
X143293188Y-46359246D02*
X143245569Y-46311627D01*
X143245569Y-46311627D02*
X143150331Y-46264008D01*
X143150331Y-46264008D02*
X142959855Y-46264008D01*
X142959855Y-46264008D02*
X142864617Y-46311627D01*
X142864617Y-46311627D02*
X142816998Y-46359246D01*
X142816998Y-46359246D02*
X142769379Y-46454484D01*
X142769379Y-46454484D02*
X142769379Y-46502103D01*
X142769379Y-46502103D02*
X142816998Y-46597341D01*
X142816998Y-46597341D02*
X142864617Y-46644960D01*
X142864617Y-46644960D02*
X142959855Y-46692579D01*
X142959855Y-46692579D02*
X143150331Y-46692579D01*
X143150331Y-46692579D02*
X143245569Y-46740198D01*
X143245569Y-46740198D02*
X143293188Y-46787817D01*
X143293188Y-46787817D02*
X143340807Y-46883055D01*
X143340807Y-46883055D02*
X143340807Y-47073531D01*
X143340807Y-47073531D02*
X143293188Y-47168769D01*
X143293188Y-47168769D02*
X143245569Y-47216389D01*
X143245569Y-47216389D02*
X143150331Y-47264008D01*
X143150331Y-47264008D02*
X142959855Y-47264008D01*
X142959855Y-47264008D02*
X142864617Y-47216389D01*
X142864617Y-47216389D02*
X142816998Y-47168769D01*
X142816998Y-47168769D02*
X142769379Y-47073531D01*
X142769379Y-47073531D02*
X142769379Y-46883055D01*
X142769379Y-46883055D02*
X142816998Y-46787817D01*
X142816998Y-46787817D02*
X142864617Y-46740198D01*
X142864617Y-46740198D02*
X142959855Y-46692579D01*
X145340800Y-38644010D02*
X145007467Y-39644010D01*
X145007467Y-39644010D02*
X144674134Y-38644010D01*
X143769372Y-39548771D02*
X143816991Y-39596391D01*
X143816991Y-39596391D02*
X143959848Y-39644010D01*
X143959848Y-39644010D02*
X144055086Y-39644010D01*
X144055086Y-39644010D02*
X144197943Y-39596391D01*
X144197943Y-39596391D02*
X144293181Y-39501152D01*
X144293181Y-39501152D02*
X144340800Y-39405914D01*
X144340800Y-39405914D02*
X144388419Y-39215438D01*
X144388419Y-39215438D02*
X144388419Y-39072581D01*
X144388419Y-39072581D02*
X144340800Y-38882105D01*
X144340800Y-38882105D02*
X144293181Y-38786867D01*
X144293181Y-38786867D02*
X144197943Y-38691629D01*
X144197943Y-38691629D02*
X144055086Y-38644010D01*
X144055086Y-38644010D02*
X143959848Y-38644010D01*
X143959848Y-38644010D02*
X143816991Y-38691629D01*
X143816991Y-38691629D02*
X143769372Y-38739248D01*
X142769372Y-39548771D02*
X142816991Y-39596391D01*
X142816991Y-39596391D02*
X142959848Y-39644010D01*
X142959848Y-39644010D02*
X143055086Y-39644010D01*
X143055086Y-39644010D02*
X143197943Y-39596391D01*
X143197943Y-39596391D02*
X143293181Y-39501152D01*
X143293181Y-39501152D02*
X143340800Y-39405914D01*
X143340800Y-39405914D02*
X143388419Y-39215438D01*
X143388419Y-39215438D02*
X143388419Y-39072581D01*
X143388419Y-39072581D02*
X143340800Y-38882105D01*
X143340800Y-38882105D02*
X143293181Y-38786867D01*
X143293181Y-38786867D02*
X143197943Y-38691629D01*
X143197943Y-38691629D02*
X143055086Y-38644010D01*
X143055086Y-38644010D02*
X142959848Y-38644010D01*
X142959848Y-38644010D02*
X142816991Y-38691629D01*
X142816991Y-38691629D02*
X142769372Y-38739248D01*
X146340805Y-33564004D02*
X146007472Y-34564004D01*
X146007472Y-34564004D02*
X145674139Y-33564004D01*
X145340805Y-33564004D02*
X145340805Y-34373527D01*
X145340805Y-34373527D02*
X145293186Y-34468765D01*
X145293186Y-34468765D02*
X145245567Y-34516385D01*
X145245567Y-34516385D02*
X145150329Y-34564004D01*
X145150329Y-34564004D02*
X144959853Y-34564004D01*
X144959853Y-34564004D02*
X144864615Y-34516385D01*
X144864615Y-34516385D02*
X144816996Y-34468765D01*
X144816996Y-34468765D02*
X144769377Y-34373527D01*
X144769377Y-34373527D02*
X144769377Y-33564004D01*
X144340805Y-34516385D02*
X144197948Y-34564004D01*
X144197948Y-34564004D02*
X143959853Y-34564004D01*
X143959853Y-34564004D02*
X143864615Y-34516385D01*
X143864615Y-34516385D02*
X143816996Y-34468765D01*
X143816996Y-34468765D02*
X143769377Y-34373527D01*
X143769377Y-34373527D02*
X143769377Y-34278289D01*
X143769377Y-34278289D02*
X143816996Y-34183051D01*
X143816996Y-34183051D02*
X143864615Y-34135432D01*
X143864615Y-34135432D02*
X143959853Y-34087813D01*
X143959853Y-34087813D02*
X144150329Y-34040194D01*
X144150329Y-34040194D02*
X144245567Y-33992575D01*
X144245567Y-33992575D02*
X144293186Y-33944956D01*
X144293186Y-33944956D02*
X144340805Y-33849718D01*
X144340805Y-33849718D02*
X144340805Y-33754480D01*
X144340805Y-33754480D02*
X144293186Y-33659242D01*
X144293186Y-33659242D02*
X144245567Y-33611623D01*
X144245567Y-33611623D02*
X144150329Y-33564004D01*
X144150329Y-33564004D02*
X143912234Y-33564004D01*
X143912234Y-33564004D02*
X143769377Y-33611623D01*
X143007472Y-34040194D02*
X142864615Y-34087813D01*
X142864615Y-34087813D02*
X142816996Y-34135432D01*
X142816996Y-34135432D02*
X142769377Y-34230670D01*
X142769377Y-34230670D02*
X142769377Y-34373527D01*
X142769377Y-34373527D02*
X142816996Y-34468765D01*
X142816996Y-34468765D02*
X142864615Y-34516385D01*
X142864615Y-34516385D02*
X142959853Y-34564004D01*
X142959853Y-34564004D02*
X143340805Y-34564004D01*
X143340805Y-34564004D02*
X143340805Y-33564004D01*
X143340805Y-33564004D02*
X143007472Y-33564004D01*
X143007472Y-33564004D02*
X142912234Y-33611623D01*
X142912234Y-33611623D02*
X142864615Y-33659242D01*
X142864615Y-33659242D02*
X142816996Y-33754480D01*
X142816996Y-33754480D02*
X142816996Y-33849718D01*
X142816996Y-33849718D02*
X142864615Y-33944956D01*
X142864615Y-33944956D02*
X142912234Y-33992575D01*
X142912234Y-33992575D02*
X143007472Y-34040194D01*
X143007472Y-34040194D02*
X143340805Y-34040194D01*
X123143436Y-42184013D02*
X123143436Y-41184013D01*
X123143436Y-41184013D02*
X122762484Y-41184013D01*
X122762484Y-41184013D02*
X122667246Y-41231632D01*
X122667246Y-41231632D02*
X122619627Y-41279251D01*
X122619627Y-41279251D02*
X122572008Y-41374489D01*
X122572008Y-41374489D02*
X122572008Y-41517346D01*
X122572008Y-41517346D02*
X122619627Y-41612584D01*
X122619627Y-41612584D02*
X122667246Y-41660203D01*
X122667246Y-41660203D02*
X122762484Y-41707822D01*
X122762484Y-41707822D02*
X123143436Y-41707822D01*
X122238674Y-41184013D02*
X121619627Y-41184013D01*
X121619627Y-41184013D02*
X121952960Y-41564965D01*
X121952960Y-41564965D02*
X121810103Y-41564965D01*
X121810103Y-41564965D02*
X121714865Y-41612584D01*
X121714865Y-41612584D02*
X121667246Y-41660203D01*
X121667246Y-41660203D02*
X121619627Y-41755441D01*
X121619627Y-41755441D02*
X121619627Y-41993536D01*
X121619627Y-41993536D02*
X121667246Y-42088774D01*
X121667246Y-42088774D02*
X121714865Y-42136394D01*
X121714865Y-42136394D02*
X121810103Y-42184013D01*
X121810103Y-42184013D02*
X122095817Y-42184013D01*
X122095817Y-42184013D02*
X122191055Y-42136394D01*
X122191055Y-42136394D02*
X122238674Y-42088774D01*
X144293193Y-49804014D02*
X144293193Y-48804014D01*
X144293193Y-48804014D02*
X143912241Y-48804014D01*
X143912241Y-48804014D02*
X143817003Y-48851633D01*
X143817003Y-48851633D02*
X143769384Y-48899252D01*
X143769384Y-48899252D02*
X143721765Y-48994490D01*
X143721765Y-48994490D02*
X143721765Y-49137347D01*
X143721765Y-49137347D02*
X143769384Y-49232585D01*
X143769384Y-49232585D02*
X143817003Y-49280204D01*
X143817003Y-49280204D02*
X143912241Y-49327823D01*
X143912241Y-49327823D02*
X144293193Y-49327823D01*
X143388431Y-48804014D02*
X142721765Y-48804014D01*
X142721765Y-48804014D02*
X143150336Y-49804014D01*
X123143442Y-44724012D02*
X123143442Y-43724012D01*
X123143442Y-43724012D02*
X122762490Y-43724012D01*
X122762490Y-43724012D02*
X122667252Y-43771631D01*
X122667252Y-43771631D02*
X122619633Y-43819250D01*
X122619633Y-43819250D02*
X122572014Y-43914488D01*
X122572014Y-43914488D02*
X122572014Y-44057345D01*
X122572014Y-44057345D02*
X122619633Y-44152583D01*
X122619633Y-44152583D02*
X122667252Y-44200202D01*
X122667252Y-44200202D02*
X122762490Y-44247821D01*
X122762490Y-44247821D02*
X123143442Y-44247821D01*
X121714871Y-44057345D02*
X121714871Y-44724012D01*
X121952966Y-43676393D02*
X122191061Y-44390678D01*
X122191061Y-44390678D02*
X121572014Y-44390678D01*
X145245568Y-42184009D02*
X145245568Y-41184009D01*
X145245568Y-41184009D02*
X144864616Y-41184009D01*
X144864616Y-41184009D02*
X144769378Y-41231628D01*
X144769378Y-41231628D02*
X144721759Y-41279247D01*
X144721759Y-41279247D02*
X144674140Y-41374485D01*
X144674140Y-41374485D02*
X144674140Y-41517342D01*
X144674140Y-41517342D02*
X144721759Y-41612580D01*
X144721759Y-41612580D02*
X144769378Y-41660199D01*
X144769378Y-41660199D02*
X144864616Y-41707818D01*
X144864616Y-41707818D02*
X145245568Y-41707818D01*
X143721759Y-42184009D02*
X144293187Y-42184009D01*
X144007473Y-42184009D02*
X144007473Y-41184009D01*
X144007473Y-41184009D02*
X144102711Y-41326866D01*
X144102711Y-41326866D02*
X144197949Y-41422104D01*
X144197949Y-41422104D02*
X144293187Y-41469723D01*
X143102711Y-41184009D02*
X143007473Y-41184009D01*
X143007473Y-41184009D02*
X142912235Y-41231628D01*
X142912235Y-41231628D02*
X142864616Y-41279247D01*
X142864616Y-41279247D02*
X142816997Y-41374485D01*
X142816997Y-41374485D02*
X142769378Y-41564961D01*
X142769378Y-41564961D02*
X142769378Y-41803056D01*
X142769378Y-41803056D02*
X142816997Y-41993532D01*
X142816997Y-41993532D02*
X142864616Y-42088770D01*
X142864616Y-42088770D02*
X142912235Y-42136390D01*
X142912235Y-42136390D02*
X143007473Y-42184009D01*
X143007473Y-42184009D02*
X143102711Y-42184009D01*
X143102711Y-42184009D02*
X143197949Y-42136390D01*
X143197949Y-42136390D02*
X143245568Y-42088770D01*
X143245568Y-42088770D02*
X143293187Y-41993532D01*
X143293187Y-41993532D02*
X143340806Y-41803056D01*
X143340806Y-41803056D02*
X143340806Y-41564961D01*
X143340806Y-41564961D02*
X143293187Y-41374485D01*
X143293187Y-41374485D02*
X143245568Y-41279247D01*
X143245568Y-41279247D02*
X143197949Y-41231628D01*
X143197949Y-41231628D02*
X143102711Y-41184009D01*
X123143437Y-49804018D02*
X123143437Y-48804018D01*
X123143437Y-48804018D02*
X122762485Y-48804018D01*
X122762485Y-48804018D02*
X122667247Y-48851637D01*
X122667247Y-48851637D02*
X122619628Y-48899256D01*
X122619628Y-48899256D02*
X122572009Y-48994494D01*
X122572009Y-48994494D02*
X122572009Y-49137351D01*
X122572009Y-49137351D02*
X122619628Y-49232589D01*
X122619628Y-49232589D02*
X122667247Y-49280208D01*
X122667247Y-49280208D02*
X122762485Y-49327827D01*
X122762485Y-49327827D02*
X123143437Y-49327827D01*
X121714866Y-48804018D02*
X121905342Y-48804018D01*
X121905342Y-48804018D02*
X122000580Y-48851637D01*
X122000580Y-48851637D02*
X122048199Y-48899256D01*
X122048199Y-48899256D02*
X122143437Y-49042113D01*
X122143437Y-49042113D02*
X122191056Y-49232589D01*
X122191056Y-49232589D02*
X122191056Y-49613541D01*
X122191056Y-49613541D02*
X122143437Y-49708779D01*
X122143437Y-49708779D02*
X122095818Y-49756399D01*
X122095818Y-49756399D02*
X122000580Y-49804018D01*
X122000580Y-49804018D02*
X121810104Y-49804018D01*
X121810104Y-49804018D02*
X121714866Y-49756399D01*
X121714866Y-49756399D02*
X121667247Y-49708779D01*
X121667247Y-49708779D02*
X121619628Y-49613541D01*
X121619628Y-49613541D02*
X121619628Y-49375446D01*
X121619628Y-49375446D02*
X121667247Y-49280208D01*
X121667247Y-49280208D02*
X121714866Y-49232589D01*
X121714866Y-49232589D02*
X121810104Y-49184970D01*
X121810104Y-49184970D02*
X122000580Y-49184970D01*
X122000580Y-49184970D02*
X122095818Y-49232589D01*
X122095818Y-49232589D02*
X122143437Y-49280208D01*
X122143437Y-49280208D02*
X122191056Y-49375446D01*
X123143441Y-39644012D02*
X123143441Y-38644012D01*
X123143441Y-38644012D02*
X122762489Y-38644012D01*
X122762489Y-38644012D02*
X122667251Y-38691631D01*
X122667251Y-38691631D02*
X122619632Y-38739250D01*
X122619632Y-38739250D02*
X122572013Y-38834488D01*
X122572013Y-38834488D02*
X122572013Y-38977345D01*
X122572013Y-38977345D02*
X122619632Y-39072583D01*
X122619632Y-39072583D02*
X122667251Y-39120202D01*
X122667251Y-39120202D02*
X122762489Y-39167821D01*
X122762489Y-39167821D02*
X123143441Y-39167821D01*
X122191060Y-38739250D02*
X122143441Y-38691631D01*
X122143441Y-38691631D02*
X122048203Y-38644012D01*
X122048203Y-38644012D02*
X121810108Y-38644012D01*
X121810108Y-38644012D02*
X121714870Y-38691631D01*
X121714870Y-38691631D02*
X121667251Y-38739250D01*
X121667251Y-38739250D02*
X121619632Y-38834488D01*
X121619632Y-38834488D02*
X121619632Y-38929726D01*
X121619632Y-38929726D02*
X121667251Y-39072583D01*
X121667251Y-39072583D02*
X122238679Y-39644012D01*
X122238679Y-39644012D02*
X121619632Y-39644012D01*
X123143430Y-34564008D02*
X123143430Y-33564008D01*
X123143430Y-33564008D02*
X122762478Y-33564008D01*
X122762478Y-33564008D02*
X122667240Y-33611627D01*
X122667240Y-33611627D02*
X122619621Y-33659246D01*
X122619621Y-33659246D02*
X122572002Y-33754484D01*
X122572002Y-33754484D02*
X122572002Y-33897341D01*
X122572002Y-33897341D02*
X122619621Y-33992579D01*
X122619621Y-33992579D02*
X122667240Y-34040198D01*
X122667240Y-34040198D02*
X122762478Y-34087817D01*
X122762478Y-34087817D02*
X123143430Y-34087817D01*
X121952954Y-33564008D02*
X121857716Y-33564008D01*
X121857716Y-33564008D02*
X121762478Y-33611627D01*
X121762478Y-33611627D02*
X121714859Y-33659246D01*
X121714859Y-33659246D02*
X121667240Y-33754484D01*
X121667240Y-33754484D02*
X121619621Y-33944960D01*
X121619621Y-33944960D02*
X121619621Y-34183055D01*
X121619621Y-34183055D02*
X121667240Y-34373531D01*
X121667240Y-34373531D02*
X121714859Y-34468769D01*
X121714859Y-34468769D02*
X121762478Y-34516389D01*
X121762478Y-34516389D02*
X121857716Y-34564008D01*
X121857716Y-34564008D02*
X121952954Y-34564008D01*
X121952954Y-34564008D02*
X122048192Y-34516389D01*
X122048192Y-34516389D02*
X122095811Y-34468769D01*
X122095811Y-34468769D02*
X122143430Y-34373531D01*
X122143430Y-34373531D02*
X122191049Y-34183055D01*
X122191049Y-34183055D02*
X122191049Y-33944960D01*
X122191049Y-33944960D02*
X122143430Y-33754484D01*
X122143430Y-33754484D02*
X122095811Y-33659246D01*
X122095811Y-33659246D02*
X122048192Y-33611627D01*
X122048192Y-33611627D02*
X121952954Y-33564008D01*
X123143437Y-47264013D02*
X123143437Y-46264013D01*
X123143437Y-46264013D02*
X122762485Y-46264013D01*
X122762485Y-46264013D02*
X122667247Y-46311632D01*
X122667247Y-46311632D02*
X122619628Y-46359251D01*
X122619628Y-46359251D02*
X122572009Y-46454489D01*
X122572009Y-46454489D02*
X122572009Y-46597346D01*
X122572009Y-46597346D02*
X122619628Y-46692584D01*
X122619628Y-46692584D02*
X122667247Y-46740203D01*
X122667247Y-46740203D02*
X122762485Y-46787822D01*
X122762485Y-46787822D02*
X123143437Y-46787822D01*
X121667247Y-46264013D02*
X122143437Y-46264013D01*
X122143437Y-46264013D02*
X122191056Y-46740203D01*
X122191056Y-46740203D02*
X122143437Y-46692584D01*
X122143437Y-46692584D02*
X122048199Y-46644965D01*
X122048199Y-46644965D02*
X121810104Y-46644965D01*
X121810104Y-46644965D02*
X121714866Y-46692584D01*
X121714866Y-46692584D02*
X121667247Y-46740203D01*
X121667247Y-46740203D02*
X121619628Y-46835441D01*
X121619628Y-46835441D02*
X121619628Y-47073536D01*
X121619628Y-47073536D02*
X121667247Y-47168774D01*
X121667247Y-47168774D02*
X121714866Y-47216394D01*
X121714866Y-47216394D02*
X121810104Y-47264013D01*
X121810104Y-47264013D02*
X122048199Y-47264013D01*
X122048199Y-47264013D02*
X122143437Y-47216394D01*
X122143437Y-47216394D02*
X122191056Y-47168774D01*
X145064614Y-36151623D02*
X145159852Y-36104004D01*
X145159852Y-36104004D02*
X145302709Y-36104004D01*
X145302709Y-36104004D02*
X145445566Y-36151623D01*
X145445566Y-36151623D02*
X145540804Y-36246861D01*
X145540804Y-36246861D02*
X145588423Y-36342099D01*
X145588423Y-36342099D02*
X145636042Y-36532575D01*
X145636042Y-36532575D02*
X145636042Y-36675432D01*
X145636042Y-36675432D02*
X145588423Y-36865908D01*
X145588423Y-36865908D02*
X145540804Y-36961146D01*
X145540804Y-36961146D02*
X145445566Y-37056385D01*
X145445566Y-37056385D02*
X145302709Y-37104004D01*
X145302709Y-37104004D02*
X145207471Y-37104004D01*
X145207471Y-37104004D02*
X145064614Y-37056385D01*
X145064614Y-37056385D02*
X145016995Y-37008765D01*
X145016995Y-37008765D02*
X145016995Y-36675432D01*
X145016995Y-36675432D02*
X145207471Y-36675432D01*
X144588423Y-37104004D02*
X144588423Y-36104004D01*
X144588423Y-36104004D02*
X144016995Y-37104004D01*
X144016995Y-37104004D02*
X144016995Y-36104004D01*
X143540804Y-37104004D02*
X143540804Y-36104004D01*
X143540804Y-36104004D02*
X143302709Y-36104004D01*
X143302709Y-36104004D02*
X143159852Y-36151623D01*
X143159852Y-36151623D02*
X143064614Y-36246861D01*
X143064614Y-36246861D02*
X143016995Y-36342099D01*
X143016995Y-36342099D02*
X142969376Y-36532575D01*
X142969376Y-36532575D02*
X142969376Y-36675432D01*
X142969376Y-36675432D02*
X143016995Y-36865908D01*
X143016995Y-36865908D02*
X143064614Y-36961146D01*
X143064614Y-36961146D02*
X143159852Y-37056385D01*
X143159852Y-37056385D02*
X143302709Y-37104004D01*
X143302709Y-37104004D02*
X143540804Y-37104004D01*
X140418315Y-55841486D02*
X140684982Y-55460533D01*
X140875458Y-55841486D02*
X140875458Y-55041486D01*
X140875458Y-55041486D02*
X140570696Y-55041486D01*
X140570696Y-55041486D02*
X140494506Y-55079581D01*
X140494506Y-55079581D02*
X140456411Y-55117676D01*
X140456411Y-55117676D02*
X140418315Y-55193867D01*
X140418315Y-55193867D02*
X140418315Y-55308152D01*
X140418315Y-55308152D02*
X140456411Y-55384343D01*
X140456411Y-55384343D02*
X140494506Y-55422438D01*
X140494506Y-55422438D02*
X140570696Y-55460533D01*
X140570696Y-55460533D02*
X140875458Y-55460533D01*
X140113554Y-55803391D02*
X139999268Y-55841486D01*
X139999268Y-55841486D02*
X139808792Y-55841486D01*
X139808792Y-55841486D02*
X139732601Y-55803391D01*
X139732601Y-55803391D02*
X139694506Y-55765295D01*
X139694506Y-55765295D02*
X139656411Y-55689105D01*
X139656411Y-55689105D02*
X139656411Y-55612914D01*
X139656411Y-55612914D02*
X139694506Y-55536724D01*
X139694506Y-55536724D02*
X139732601Y-55498629D01*
X139732601Y-55498629D02*
X139808792Y-55460533D01*
X139808792Y-55460533D02*
X139961173Y-55422438D01*
X139961173Y-55422438D02*
X140037363Y-55384343D01*
X140037363Y-55384343D02*
X140075458Y-55346248D01*
X140075458Y-55346248D02*
X140113554Y-55270057D01*
X140113554Y-55270057D02*
X140113554Y-55193867D01*
X140113554Y-55193867D02*
X140075458Y-55117676D01*
X140075458Y-55117676D02*
X140037363Y-55079581D01*
X140037363Y-55079581D02*
X139961173Y-55041486D01*
X139961173Y-55041486D02*
X139770696Y-55041486D01*
X139770696Y-55041486D02*
X139656411Y-55079581D01*
X139427839Y-55041486D02*
X138970696Y-55041486D01*
X139199268Y-55841486D02*
X139199268Y-55041486D01*
X171037755Y-48874430D02*
X171037755Y-49483954D01*
X171342517Y-49179192D02*
X170732993Y-49179192D01*
X133565936Y-55422433D02*
X133451650Y-55460528D01*
X133451650Y-55460528D02*
X133413555Y-55498624D01*
X133413555Y-55498624D02*
X133375459Y-55574814D01*
X133375459Y-55574814D02*
X133375459Y-55689100D01*
X133375459Y-55689100D02*
X133413555Y-55765290D01*
X133413555Y-55765290D02*
X133451650Y-55803386D01*
X133451650Y-55803386D02*
X133527840Y-55841481D01*
X133527840Y-55841481D02*
X133832602Y-55841481D01*
X133832602Y-55841481D02*
X133832602Y-55041481D01*
X133832602Y-55041481D02*
X133565936Y-55041481D01*
X133565936Y-55041481D02*
X133489745Y-55079576D01*
X133489745Y-55079576D02*
X133451650Y-55117671D01*
X133451650Y-55117671D02*
X133413555Y-55193862D01*
X133413555Y-55193862D02*
X133413555Y-55270052D01*
X133413555Y-55270052D02*
X133451650Y-55346243D01*
X133451650Y-55346243D02*
X133489745Y-55384338D01*
X133489745Y-55384338D02*
X133565936Y-55422433D01*
X133565936Y-55422433D02*
X133832602Y-55422433D01*
X133070698Y-55612909D02*
X132689745Y-55612909D01*
X133146888Y-55841481D02*
X132880221Y-55041481D01*
X132880221Y-55041481D02*
X132613555Y-55841481D01*
X132461174Y-55041481D02*
X132004031Y-55041481D01*
X132232603Y-55841481D02*
X132232603Y-55041481D01*
X131737364Y-55536719D02*
X131127841Y-55536719D01*
X131432602Y-55841481D02*
X131432602Y-55231957D01*
X172784982Y-46236731D02*
X172175459Y-46236731D01*
X69217045Y-66243547D02*
X69066731Y-66252570D01*
X69066731Y-66252570D02*
X68836749Y-66190946D01*
X68836749Y-66190946D02*
X68757080Y-66120300D01*
X68757080Y-66120300D02*
X68723409Y-66061979D01*
X68723409Y-66061979D02*
X68702062Y-65957661D01*
X68702062Y-65957661D02*
X68726711Y-65865668D01*
X68726711Y-65865668D02*
X68797357Y-65786000D01*
X68797357Y-65786000D02*
X68855678Y-65752329D01*
X68855678Y-65752329D02*
X68959996Y-65730981D01*
X68959996Y-65730981D02*
X69156306Y-65734284D01*
X69156306Y-65734284D02*
X69260624Y-65712937D01*
X69260624Y-65712937D02*
X69318945Y-65679265D01*
X69318945Y-65679265D02*
X69389591Y-65599597D01*
X69389591Y-65599597D02*
X69414240Y-65507604D01*
X69414240Y-65507604D02*
X69392893Y-65403286D01*
X69392893Y-65403286D02*
X69359222Y-65344965D01*
X69359222Y-65344965D02*
X69279553Y-65274319D01*
X69279553Y-65274319D02*
X69049571Y-65212696D01*
X69049571Y-65212696D02*
X68899257Y-65221718D01*
X68589606Y-65089448D02*
X68100805Y-65993751D01*
X68100805Y-65993751D02*
X68101690Y-65254505D01*
X68101690Y-65254505D02*
X67732833Y-65895153D01*
X67732833Y-65895153D02*
X67761670Y-64867604D01*
X66628918Y-65599360D02*
X67180876Y-65747256D01*
X66904897Y-65673308D02*
X67163716Y-64707382D01*
X67163716Y-64707382D02*
X67218735Y-64870021D01*
X67218735Y-64870021D02*
X67286078Y-64986663D01*
X67286078Y-64986663D02*
X67365747Y-65057309D01*
X219501360Y-97108245D02*
X219159340Y-96168553D01*
X219159340Y-96168553D02*
X218935604Y-96249986D01*
X218935604Y-96249986D02*
X218817648Y-96343593D01*
X218817648Y-96343593D02*
X218760727Y-96465661D01*
X218760727Y-96465661D02*
X218748553Y-96571442D01*
X218748553Y-96571442D02*
X218768953Y-96766718D01*
X218768953Y-96766718D02*
X218817813Y-96900960D01*
X218817813Y-96900960D02*
X218927707Y-97063662D01*
X218927707Y-97063662D02*
X219005027Y-97136870D01*
X219005027Y-97136870D02*
X219127095Y-97193791D01*
X219127095Y-97193791D02*
X219277624Y-97189679D01*
X219277624Y-97189679D02*
X219501360Y-97108245D01*
X218508695Y-97165495D02*
X218061222Y-97328362D01*
X218695909Y-97401405D02*
X218040658Y-96575719D01*
X218040658Y-96575719D02*
X218069447Y-97629419D01*
X216966724Y-96966600D02*
X217414196Y-96803733D01*
X217414196Y-96803733D02*
X217621810Y-97234919D01*
X217621810Y-97234919D02*
X217560776Y-97206458D01*
X217560776Y-97206458D02*
X217454995Y-97194284D01*
X217454995Y-97194284D02*
X217231259Y-97275718D01*
X217231259Y-97275718D02*
X217158051Y-97353038D01*
X217158051Y-97353038D02*
X217129590Y-97414072D01*
X217129590Y-97414072D02*
X217117416Y-97519854D01*
X217117416Y-97519854D02*
X217198850Y-97743590D01*
X217198850Y-97743590D02*
X217276170Y-97816798D01*
X217276170Y-97816798D02*
X217337204Y-97845258D01*
X217337204Y-97845258D02*
X217442986Y-97857432D01*
X217442986Y-97857432D02*
X217666722Y-97775999D01*
X217666722Y-97775999D02*
X217739930Y-97698678D01*
X217739930Y-97698678D02*
X217768390Y-97637644D01*
X185443117Y-113531030D02*
X185060433Y-112607150D01*
X185060433Y-112607150D02*
X184840462Y-112698265D01*
X184840462Y-112698265D02*
X184726702Y-112796928D01*
X184726702Y-112796928D02*
X184675160Y-112921363D01*
X184675160Y-112921363D02*
X184667612Y-113027575D01*
X184667612Y-113027575D02*
X184696509Y-113221775D01*
X184696509Y-113221775D02*
X184751178Y-113353757D01*
X184751178Y-113353757D02*
X184868065Y-113511512D01*
X184868065Y-113511512D02*
X184948505Y-113581277D01*
X184948505Y-113581277D02*
X185072940Y-113632819D01*
X185072940Y-113632819D02*
X185223145Y-113622145D01*
X185223145Y-113622145D02*
X185443117Y-113531030D01*
X184453893Y-113631524D02*
X184013951Y-113813755D01*
X184651220Y-113859044D02*
X183960577Y-113062726D01*
X183960577Y-113062726D02*
X184035300Y-114114166D01*
X182948709Y-113481855D02*
X183124686Y-113408963D01*
X183124686Y-113408963D02*
X183230897Y-113416511D01*
X183230897Y-113416511D02*
X183293114Y-113442282D01*
X183293114Y-113442282D02*
X183435772Y-113537819D01*
X183435772Y-113537819D02*
X183552658Y-113695573D01*
X183552658Y-113695573D02*
X183698443Y-114047527D01*
X183698443Y-114047527D02*
X183690894Y-114153739D01*
X183690894Y-114153739D02*
X183665123Y-114215956D01*
X183665123Y-114215956D02*
X183595358Y-114296397D01*
X183595358Y-114296397D02*
X183419380Y-114369289D01*
X183419380Y-114369289D02*
X183313169Y-114361740D01*
X183313169Y-114361740D02*
X183250952Y-114335969D01*
X183250952Y-114335969D02*
X183170511Y-114266204D01*
X183170511Y-114266204D02*
X183079396Y-114046232D01*
X183079396Y-114046232D02*
X183086944Y-113940021D01*
X183086944Y-113940021D02*
X183112716Y-113877803D01*
X183112716Y-113877803D02*
X183182481Y-113797363D01*
X183182481Y-113797363D02*
X183358458Y-113724471D01*
X183358458Y-113724471D02*
X183464670Y-113732019D01*
X183464670Y-113732019D02*
X183526887Y-113757791D01*
X183526887Y-113757791D02*
X183607327Y-113827556D01*
X246347001Y-84954586D02*
X246173353Y-83969778D01*
X246173353Y-83969778D02*
X245938875Y-84011123D01*
X245938875Y-84011123D02*
X245806457Y-84082825D01*
X245806457Y-84082825D02*
X245729204Y-84193155D01*
X245729204Y-84193155D02*
X245698846Y-84295215D01*
X245698846Y-84295215D02*
X245685027Y-84491066D01*
X245685027Y-84491066D02*
X245709833Y-84631753D01*
X245709833Y-84631753D02*
X245789805Y-84811066D01*
X245789805Y-84811066D02*
X245853238Y-84896589D01*
X245853238Y-84896589D02*
X245963568Y-84973842D01*
X245963568Y-84973842D02*
X246112523Y-84995931D01*
X246112523Y-84995931D02*
X246347001Y-84954586D01*
X244782908Y-85133670D02*
X244838073Y-85172297D01*
X244838073Y-85172297D02*
X244987029Y-85194386D01*
X244987029Y-85194386D02*
X245080820Y-85177848D01*
X245080820Y-85177848D02*
X245213238Y-85106145D01*
X245213238Y-85106145D02*
X245290491Y-84995816D01*
X245290491Y-84995816D02*
X245320849Y-84893756D01*
X245320849Y-84893756D02*
X245334669Y-84697905D01*
X245334669Y-84697905D02*
X245309862Y-84557218D01*
X245309862Y-84557218D02*
X245229890Y-84377904D01*
X245229890Y-84377904D02*
X245166457Y-84292382D01*
X245166457Y-84292382D02*
X245056128Y-84215129D01*
X245056128Y-84215129D02*
X244907172Y-84193040D01*
X244907172Y-84193040D02*
X244813381Y-84209578D01*
X244813381Y-84209578D02*
X244680963Y-84281281D01*
X244680963Y-84281281D02*
X244642336Y-84336445D01*
X244297529Y-84300537D02*
X243640990Y-84416302D01*
X243640990Y-84416302D02*
X244236699Y-85326689D01*
X115980608Y-56310780D02*
X116322628Y-55371087D01*
X116322628Y-55371087D02*
X116098892Y-55289654D01*
X116098892Y-55289654D02*
X115948363Y-55285541D01*
X115948363Y-55285541D02*
X115826295Y-55342462D01*
X115826295Y-55342462D02*
X115748975Y-55415670D01*
X115748975Y-55415670D02*
X115639081Y-55578373D01*
X115639081Y-55578373D02*
X115590221Y-55712614D01*
X115590221Y-55712614D02*
X115569821Y-55907890D01*
X115569821Y-55907890D02*
X115581995Y-56013671D01*
X115581995Y-56013671D02*
X115638916Y-56135739D01*
X115638916Y-56135739D02*
X115756871Y-56229347D01*
X115756871Y-56229347D02*
X115980608Y-56310780D01*
X114536521Y-55683825D02*
X114564982Y-55744859D01*
X114564982Y-55744859D02*
X114682937Y-55838466D01*
X114682937Y-55838466D02*
X114772432Y-55871040D01*
X114772432Y-55871040D02*
X114922960Y-55875153D01*
X114922960Y-55875153D02*
X115045028Y-55818231D01*
X115045028Y-55818231D02*
X115122348Y-55745023D01*
X115122348Y-55745023D02*
X115232242Y-55582321D01*
X115232242Y-55582321D02*
X115281102Y-55448079D01*
X115281102Y-55448079D02*
X115301502Y-55252804D01*
X115301502Y-55252804D02*
X115289328Y-55147022D01*
X115289328Y-55147022D02*
X115232407Y-55024954D01*
X115232407Y-55024954D02*
X115114452Y-54931347D01*
X115114452Y-54931347D02*
X115024957Y-54898774D01*
X115024957Y-54898774D02*
X114874429Y-54894661D01*
X114874429Y-54894661D02*
X114813395Y-54923122D01*
X113926511Y-54853698D02*
X113698497Y-55480160D01*
X114280540Y-54577153D02*
X114259976Y-55329795D01*
X114259976Y-55329795D02*
X113678262Y-55118069D01*
X241319182Y-65553356D02*
X241193518Y-65636326D01*
X241193518Y-65636326D02*
X240963535Y-65697950D01*
X240963535Y-65697950D02*
X240859218Y-65676603D01*
X240859218Y-65676603D02*
X240800896Y-65642931D01*
X240800896Y-65642931D02*
X240730250Y-65563263D01*
X240730250Y-65563263D02*
X240705601Y-65471270D01*
X240705601Y-65471270D02*
X240726948Y-65366952D01*
X240726948Y-65366952D02*
X240760620Y-65308631D01*
X240760620Y-65308631D02*
X240840288Y-65237985D01*
X240840288Y-65237985D02*
X241011949Y-65142690D01*
X241011949Y-65142690D02*
X241091617Y-65072044D01*
X241091617Y-65072044D02*
X241125289Y-65013723D01*
X241125289Y-65013723D02*
X241146636Y-64909405D01*
X241146636Y-64909405D02*
X241121987Y-64817412D01*
X241121987Y-64817412D02*
X241051341Y-64737744D01*
X241051341Y-64737744D02*
X240993020Y-64704072D01*
X240993020Y-64704072D02*
X240888702Y-64682725D01*
X240888702Y-64682725D02*
X240658720Y-64744349D01*
X240658720Y-64744349D02*
X240533055Y-64827319D01*
X240198755Y-64867596D02*
X240227592Y-65895145D01*
X240227592Y-65895145D02*
X239858735Y-65254497D01*
X239858735Y-65254497D02*
X239859620Y-65993743D01*
X239859620Y-65993743D02*
X239370819Y-65089441D01*
X238675152Y-65620936D02*
X238847698Y-66264887D01*
X238806536Y-65191341D02*
X239221389Y-65819664D01*
X239221389Y-65819664D02*
X238623435Y-65979886D01*
X97236020Y-100302786D02*
X97578041Y-99363093D01*
X97578041Y-99363093D02*
X97354304Y-99281660D01*
X97354304Y-99281660D02*
X97203776Y-99277547D01*
X97203776Y-99277547D02*
X97081708Y-99334468D01*
X97081708Y-99334468D02*
X97004387Y-99407676D01*
X97004387Y-99407676D02*
X96894493Y-99570379D01*
X96894493Y-99570379D02*
X96845633Y-99704620D01*
X96845633Y-99704620D02*
X96825234Y-99899896D01*
X96825234Y-99899896D02*
X96837408Y-100005677D01*
X96837408Y-100005677D02*
X96894329Y-100127745D01*
X96894329Y-100127745D02*
X97012284Y-100221353D01*
X97012284Y-100221353D02*
X97236020Y-100302786D01*
X96438795Y-99708569D02*
X95991322Y-99545702D01*
X96430570Y-100009626D02*
X96459359Y-98955926D01*
X96459359Y-98955926D02*
X95804108Y-99781612D01*
X95845071Y-98833694D02*
X95816610Y-98772660D01*
X95816610Y-98772660D02*
X95743403Y-98695340D01*
X95743403Y-98695340D02*
X95519666Y-98613906D01*
X95519666Y-98613906D02*
X95413885Y-98626080D01*
X95413885Y-98626080D02*
X95352851Y-98654541D01*
X95352851Y-98654541D02*
X95275530Y-98727749D01*
X95275530Y-98727749D02*
X95242957Y-98817243D01*
X95242957Y-98817243D02*
X95238844Y-98967772D01*
X95238844Y-98967772D02*
X95580371Y-99700179D01*
X95580371Y-99700179D02*
X94998657Y-99488452D01*
X223394227Y-76615409D02*
X223135408Y-75649484D01*
X223135408Y-75649484D02*
X222905426Y-75711107D01*
X222905426Y-75711107D02*
X222779761Y-75794078D01*
X222779761Y-75794078D02*
X222712417Y-75910720D01*
X222712417Y-75910720D02*
X222691070Y-76015038D01*
X222691070Y-76015038D02*
X222694373Y-76211348D01*
X222694373Y-76211348D02*
X222731347Y-76349338D01*
X222731347Y-76349338D02*
X222826642Y-76520999D01*
X222826642Y-76520999D02*
X222897288Y-76600667D01*
X222897288Y-76600667D02*
X223013931Y-76668011D01*
X223013931Y-76668011D02*
X223164245Y-76677033D01*
X223164245Y-76677033D02*
X223394227Y-76615409D01*
X221851694Y-76930132D02*
X221910015Y-76963804D01*
X221910015Y-76963804D02*
X222060329Y-76972826D01*
X222060329Y-76972826D02*
X222152322Y-76948177D01*
X222152322Y-76948177D02*
X222277987Y-76865206D01*
X222277987Y-76865206D02*
X222345331Y-76748564D01*
X222345331Y-76748564D02*
X222366678Y-76644246D01*
X222366678Y-76644246D02*
X222363375Y-76447936D01*
X222363375Y-76447936D02*
X222326401Y-76309946D01*
X222326401Y-76309946D02*
X222231106Y-76138285D01*
X222231106Y-76138285D02*
X222160460Y-76058617D01*
X222160460Y-76058617D02*
X222043817Y-75991273D01*
X222043817Y-75991273D02*
X221893503Y-75982251D01*
X221893503Y-75982251D02*
X221801510Y-76006900D01*
X221801510Y-76006900D02*
X221675846Y-76089871D01*
X221675846Y-76089871D02*
X221642174Y-76148192D01*
X221176489Y-76618064D02*
X221256158Y-76547418D01*
X221256158Y-76547418D02*
X221289829Y-76489097D01*
X221289829Y-76489097D02*
X221311176Y-76384779D01*
X221311176Y-76384779D02*
X221298852Y-76338783D01*
X221298852Y-76338783D02*
X221228206Y-76259115D01*
X221228206Y-76259115D02*
X221169885Y-76225443D01*
X221169885Y-76225443D02*
X221065567Y-76204096D01*
X221065567Y-76204096D02*
X220881581Y-76253395D01*
X220881581Y-76253395D02*
X220801913Y-76324041D01*
X220801913Y-76324041D02*
X220768241Y-76382362D01*
X220768241Y-76382362D02*
X220746894Y-76486679D01*
X220746894Y-76486679D02*
X220759219Y-76532676D01*
X220759219Y-76532676D02*
X220829865Y-76612344D01*
X220829865Y-76612344D02*
X220888186Y-76646016D01*
X220888186Y-76646016D02*
X220992504Y-76667363D01*
X220992504Y-76667363D02*
X221176489Y-76618064D01*
X221176489Y-76618064D02*
X221280807Y-76639411D01*
X221280807Y-76639411D02*
X221339128Y-76673083D01*
X221339128Y-76673083D02*
X221409774Y-76752751D01*
X221409774Y-76752751D02*
X221459073Y-76936737D01*
X221459073Y-76936737D02*
X221437726Y-77041055D01*
X221437726Y-77041055D02*
X221404054Y-77099376D01*
X221404054Y-77099376D02*
X221324386Y-77170022D01*
X221324386Y-77170022D02*
X221140400Y-77219321D01*
X221140400Y-77219321D02*
X221036082Y-77197974D01*
X221036082Y-77197974D02*
X220977761Y-77164302D01*
X220977761Y-77164302D02*
X220907115Y-77084634D01*
X220907115Y-77084634D02*
X220857817Y-76900648D01*
X220857817Y-76900648D02*
X220879164Y-76796330D01*
X220879164Y-76796330D02*
X220912835Y-76738009D01*
X220912835Y-76738009D02*
X220992504Y-76667363D01*
X86958038Y-77256294D02*
X87216857Y-76290369D01*
X87216857Y-76290369D02*
X86986875Y-76228745D01*
X86986875Y-76228745D02*
X86836561Y-76237767D01*
X86836561Y-76237767D02*
X86719919Y-76305111D01*
X86719919Y-76305111D02*
X86649273Y-76384779D01*
X86649273Y-76384779D02*
X86553977Y-76556440D01*
X86553977Y-76556440D02*
X86517003Y-76694430D01*
X86517003Y-76694430D02*
X86513701Y-76890740D01*
X86513701Y-76890740D02*
X86535048Y-76995058D01*
X86535048Y-76995058D02*
X86602391Y-77111700D01*
X86602391Y-77111700D02*
X86728056Y-77194671D01*
X86728056Y-77194671D02*
X86958038Y-77256294D01*
X85464804Y-76757586D02*
X85498476Y-76815907D01*
X85498476Y-76815907D02*
X85624141Y-76898878D01*
X85624141Y-76898878D02*
X85716134Y-76923527D01*
X85716134Y-76923527D02*
X85866448Y-76914505D01*
X85866448Y-76914505D02*
X85983090Y-76847161D01*
X85983090Y-76847161D02*
X86053736Y-76767493D01*
X86053736Y-76767493D02*
X86149031Y-76595832D01*
X86149031Y-76595832D02*
X86186006Y-76457843D01*
X86186006Y-76457843D02*
X86189308Y-76261532D01*
X86189308Y-76261532D02*
X86167961Y-76157214D01*
X86167961Y-76157214D02*
X86100617Y-76040572D01*
X86100617Y-76040572D02*
X85974953Y-75957601D01*
X85974953Y-75957601D02*
X85882960Y-75932952D01*
X85882960Y-75932952D02*
X85732646Y-75941974D01*
X85732646Y-75941974D02*
X85674325Y-75975646D01*
X85306353Y-75877048D02*
X85272681Y-75818727D01*
X85272681Y-75818727D02*
X85193013Y-75748081D01*
X85193013Y-75748081D02*
X84963030Y-75686458D01*
X84963030Y-75686458D02*
X84858713Y-75707805D01*
X84858713Y-75707805D02*
X84800392Y-75741476D01*
X84800392Y-75741476D02*
X84729746Y-75821145D01*
X84729746Y-75821145D02*
X84705096Y-75913137D01*
X84705096Y-75913137D02*
X84714119Y-76063452D01*
X84714119Y-76063452D02*
X85118180Y-76763306D01*
X85118180Y-76763306D02*
X84520226Y-76603084D01*
X144521219Y-91526556D02*
X144903903Y-90602676D01*
X144903903Y-90602676D02*
X144683931Y-90511561D01*
X144683931Y-90511561D02*
X144533725Y-90500886D01*
X144533725Y-90500886D02*
X144409291Y-90552429D01*
X144409291Y-90552429D02*
X144328851Y-90622194D01*
X144328851Y-90622194D02*
X144211964Y-90779948D01*
X144211964Y-90779948D02*
X144157295Y-90911931D01*
X144157295Y-90911931D02*
X144128397Y-91106131D01*
X144128397Y-91106131D02*
X144135946Y-91212343D01*
X144135946Y-91212343D02*
X144187488Y-91336777D01*
X144187488Y-91336777D02*
X144301248Y-91435441D01*
X144301248Y-91435441D02*
X144521219Y-91526556D01*
X143105855Y-90837208D02*
X143131626Y-90899425D01*
X143131626Y-90899425D02*
X143245386Y-90998088D01*
X143245386Y-90998088D02*
X143333374Y-91034534D01*
X143333374Y-91034534D02*
X143483580Y-91045209D01*
X143483580Y-91045209D02*
X143608014Y-90993667D01*
X143608014Y-90993667D02*
X143688455Y-90923901D01*
X143688455Y-90923901D02*
X143805341Y-90766147D01*
X143805341Y-90766147D02*
X143860010Y-90634164D01*
X143860010Y-90634164D02*
X143888908Y-90439964D01*
X143888908Y-90439964D02*
X143881360Y-90333753D01*
X143881360Y-90333753D02*
X143829817Y-90209318D01*
X143829817Y-90209318D02*
X143716058Y-90110655D01*
X143716058Y-90110655D02*
X143628069Y-90074209D01*
X143628069Y-90074209D02*
X143477863Y-90063534D01*
X143477863Y-90063534D02*
X143415646Y-90089305D01*
X142660195Y-89673302D02*
X142836172Y-89746194D01*
X142836172Y-89746194D02*
X142905938Y-89826635D01*
X142905938Y-89826635D02*
X142931709Y-89888852D01*
X142931709Y-89888852D02*
X142965028Y-90057281D01*
X142965028Y-90057281D02*
X142936131Y-90251481D01*
X142936131Y-90251481D02*
X142790346Y-90603435D01*
X142790346Y-90603435D02*
X142709906Y-90673200D01*
X142709906Y-90673200D02*
X142647689Y-90698972D01*
X142647689Y-90698972D02*
X142541477Y-90706520D01*
X142541477Y-90706520D02*
X142365500Y-90633628D01*
X142365500Y-90633628D02*
X142295735Y-90553188D01*
X142295735Y-90553188D02*
X142269964Y-90490970D01*
X142269964Y-90490970D02*
X142262415Y-90384759D01*
X142262415Y-90384759D02*
X142353530Y-90164787D01*
X142353530Y-90164787D02*
X142433971Y-90095022D01*
X142433971Y-90095022D02*
X142496188Y-90069251D01*
X142496188Y-90069251D02*
X142602400Y-90061702D01*
X142602400Y-90061702D02*
X142778377Y-90134595D01*
X142778377Y-90134595D02*
X142848142Y-90215035D01*
X142848142Y-90215035D02*
X142873913Y-90277252D01*
X142873913Y-90277252D02*
X142881462Y-90383464D01*
X219910469Y-59382249D02*
X219784805Y-59465219D01*
X219784805Y-59465219D02*
X219554822Y-59526843D01*
X219554822Y-59526843D02*
X219450505Y-59505496D01*
X219450505Y-59505496D02*
X219392183Y-59471824D01*
X219392183Y-59471824D02*
X219321537Y-59392156D01*
X219321537Y-59392156D02*
X219296888Y-59300163D01*
X219296888Y-59300163D02*
X219318235Y-59195845D01*
X219318235Y-59195845D02*
X219351907Y-59137524D01*
X219351907Y-59137524D02*
X219431575Y-59066878D01*
X219431575Y-59066878D02*
X219603236Y-58971583D01*
X219603236Y-58971583D02*
X219682904Y-58900937D01*
X219682904Y-58900937D02*
X219716576Y-58842616D01*
X219716576Y-58842616D02*
X219737923Y-58738298D01*
X219737923Y-58738298D02*
X219713274Y-58646305D01*
X219713274Y-58646305D02*
X219642628Y-58566637D01*
X219642628Y-58566637D02*
X219584307Y-58532965D01*
X219584307Y-58532965D02*
X219479989Y-58511618D01*
X219479989Y-58511618D02*
X219250007Y-58573242D01*
X219250007Y-58573242D02*
X219124342Y-58656212D01*
X218790042Y-58696489D02*
X218818879Y-59724038D01*
X218818879Y-59724038D02*
X218450022Y-59083390D01*
X218450022Y-59083390D02*
X218450907Y-59822636D01*
X218450907Y-59822636D02*
X217962106Y-58918334D01*
X217134169Y-59140179D02*
X217594134Y-59016931D01*
X217594134Y-59016931D02*
X217763378Y-59464571D01*
X217763378Y-59464571D02*
X217705056Y-59430900D01*
X217705056Y-59430900D02*
X217600739Y-59409553D01*
X217600739Y-59409553D02*
X217370756Y-59471176D01*
X217370756Y-59471176D02*
X217291088Y-59541822D01*
X217291088Y-59541822D02*
X217257416Y-59600143D01*
X217257416Y-59600143D02*
X217236069Y-59704461D01*
X217236069Y-59704461D02*
X217297693Y-59934443D01*
X217297693Y-59934443D02*
X217368339Y-60014111D01*
X217368339Y-60014111D02*
X217426660Y-60047783D01*
X217426660Y-60047783D02*
X217530978Y-60069130D01*
X217530978Y-60069130D02*
X217760960Y-60007507D01*
X217760960Y-60007507D02*
X217840628Y-59936861D01*
X217840628Y-59936861D02*
X217874300Y-59878540D01*
X175075128Y-141941265D02*
X175001974Y-142072887D01*
X175001974Y-142072887D02*
X174826431Y-142233741D01*
X174826431Y-142233741D02*
X174724043Y-142262975D01*
X174724043Y-142262975D02*
X174656764Y-142260037D01*
X174656764Y-142260037D02*
X174557314Y-142221991D01*
X174557314Y-142221991D02*
X174492972Y-142151775D01*
X174492972Y-142151775D02*
X174463738Y-142049387D01*
X174463738Y-142049387D02*
X174466676Y-141982107D01*
X174466676Y-141982107D02*
X174504722Y-141882657D01*
X174504722Y-141882657D02*
X174612984Y-141718865D01*
X174612984Y-141718865D02*
X174651030Y-141619414D01*
X174651030Y-141619414D02*
X174653968Y-141552135D01*
X174653968Y-141552135D02*
X174624734Y-141449747D01*
X174624734Y-141449747D02*
X174560392Y-141379530D01*
X174560392Y-141379530D02*
X174460942Y-141341484D01*
X174460942Y-141341484D02*
X174393663Y-141338547D01*
X174393663Y-141338547D02*
X174291275Y-141367780D01*
X174291275Y-141367780D02*
X174115733Y-141528635D01*
X174115733Y-141528635D02*
X174042578Y-141660256D01*
X173764648Y-141850345D02*
X174264696Y-142748477D01*
X174264696Y-142748477D02*
X173641698Y-142350534D01*
X173641698Y-142350534D02*
X173983829Y-143005845D01*
X173983829Y-143005845D02*
X173132696Y-142429422D01*
X172535853Y-142976328D02*
X172676286Y-142847644D01*
X172676286Y-142847644D02*
X172778674Y-142818411D01*
X172778674Y-142818411D02*
X172845954Y-142821348D01*
X172845954Y-142821348D02*
X173012684Y-142862332D01*
X173012684Y-142862332D02*
X173176476Y-142970595D01*
X173176476Y-142970595D02*
X173433844Y-143251462D01*
X173433844Y-143251462D02*
X173463077Y-143353850D01*
X173463077Y-143353850D02*
X173460140Y-143421129D01*
X173460140Y-143421129D02*
X173422094Y-143520580D01*
X173422094Y-143520580D02*
X173281660Y-143649264D01*
X173281660Y-143649264D02*
X173179272Y-143678497D01*
X173179272Y-143678497D02*
X173111993Y-143675560D01*
X173111993Y-143675560D02*
X173012542Y-143637514D01*
X173012542Y-143637514D02*
X172851687Y-143461972D01*
X172851687Y-143461972D02*
X172822454Y-143359584D01*
X172822454Y-143359584D02*
X172825391Y-143292304D01*
X172825391Y-143292304D02*
X172863437Y-143192854D01*
X172863437Y-143192854D02*
X173003871Y-143064170D01*
X173003871Y-143064170D02*
X173106259Y-143034937D01*
X173106259Y-143034937D02*
X173173538Y-143037874D01*
X173173538Y-143037874D02*
X173272989Y-143075920D01*
X239945896Y-101944592D02*
X239687077Y-100978666D01*
X239687077Y-100978666D02*
X239457095Y-101040290D01*
X239457095Y-101040290D02*
X239331430Y-101123260D01*
X239331430Y-101123260D02*
X239264087Y-101239903D01*
X239264087Y-101239903D02*
X239242740Y-101344220D01*
X239242740Y-101344220D02*
X239246042Y-101540531D01*
X239246042Y-101540531D02*
X239283016Y-101678520D01*
X239283016Y-101678520D02*
X239378311Y-101850181D01*
X239378311Y-101850181D02*
X239448957Y-101929850D01*
X239448957Y-101929850D02*
X239565600Y-101997193D01*
X239565600Y-101997193D02*
X239715914Y-102006216D01*
X239715914Y-102006216D02*
X239945896Y-101944592D01*
X238952019Y-101915107D02*
X238492054Y-102038355D01*
X239117960Y-102166437D02*
X238537165Y-101286784D01*
X238537165Y-101286784D02*
X238474009Y-102338983D01*
X237565520Y-101892228D02*
X237738066Y-102536178D01*
X237696904Y-101462632D02*
X238111757Y-102090956D01*
X238111757Y-102090956D02*
X237513803Y-102251177D01*
X77036525Y-104362024D02*
X77295344Y-103396098D01*
X77295344Y-103396098D02*
X77065361Y-103334475D01*
X77065361Y-103334475D02*
X76915047Y-103343497D01*
X76915047Y-103343497D02*
X76798405Y-103410840D01*
X76798405Y-103410840D02*
X76727759Y-103490509D01*
X76727759Y-103490509D02*
X76632464Y-103662170D01*
X76632464Y-103662170D02*
X76595489Y-103800159D01*
X76595489Y-103800159D02*
X76592187Y-103996470D01*
X76592187Y-103996470D02*
X76613534Y-104100787D01*
X76613534Y-104100787D02*
X76680878Y-104217430D01*
X76680878Y-104217430D02*
X76806542Y-104300400D01*
X76806542Y-104300400D02*
X77036525Y-104362024D01*
X76190543Y-103839551D02*
X75730579Y-103716304D01*
X76208588Y-104140179D02*
X76145432Y-103087980D01*
X76145432Y-103087980D02*
X75564638Y-103967633D01*
X74736701Y-103745788D02*
X75288659Y-103893685D01*
X75012680Y-103819736D02*
X75271499Y-102853811D01*
X75271499Y-102853811D02*
X75326518Y-103016449D01*
X75326518Y-103016449D02*
X75393861Y-103133092D01*
X75393861Y-103133092D02*
X75473529Y-103203738D01*
X64052011Y-85384564D02*
X64225659Y-84399756D01*
X64225659Y-84399756D02*
X63991181Y-84358411D01*
X63991181Y-84358411D02*
X63842226Y-84380500D01*
X63842226Y-84380500D02*
X63731897Y-84457753D01*
X63731897Y-84457753D02*
X63668463Y-84543275D01*
X63668463Y-84543275D02*
X63588492Y-84722589D01*
X63588492Y-84722589D02*
X63563685Y-84863276D01*
X63563685Y-84863276D02*
X63577504Y-85059127D01*
X63577504Y-85059127D02*
X63607862Y-85161187D01*
X63607862Y-85161187D02*
X63685115Y-85271516D01*
X63685115Y-85271516D02*
X63817533Y-85343219D01*
X63817533Y-85343219D02*
X64052011Y-85384564D01*
X62520994Y-85017897D02*
X62559621Y-85073061D01*
X62559621Y-85073061D02*
X62692039Y-85144764D01*
X62692039Y-85144764D02*
X62785830Y-85161302D01*
X62785830Y-85161302D02*
X62934786Y-85139213D01*
X62934786Y-85139213D02*
X63045115Y-85061960D01*
X63045115Y-85061960D02*
X63108548Y-84976438D01*
X63108548Y-84976438D02*
X63188520Y-84797124D01*
X63188520Y-84797124D02*
X63213327Y-84656437D01*
X63213327Y-84656437D02*
X63199507Y-84460586D01*
X63199507Y-84460586D02*
X63169149Y-84358526D01*
X63169149Y-84358526D02*
X63091896Y-84248197D01*
X63091896Y-84248197D02*
X62959478Y-84176494D01*
X62959478Y-84176494D02*
X62865687Y-84159956D01*
X62865687Y-84159956D02*
X62716731Y-84182045D01*
X62716731Y-84182045D02*
X62661567Y-84220671D01*
X61566544Y-84946309D02*
X62129291Y-85045536D01*
X61847918Y-84995923D02*
X62021566Y-84011115D01*
X62021566Y-84011115D02*
X62090550Y-84168340D01*
X62090550Y-84168340D02*
X62167804Y-84278669D01*
X62167804Y-84278669D02*
X62253326Y-84342102D01*
X166166866Y-90396732D02*
X165784182Y-89472852D01*
X165784182Y-89472852D02*
X165564211Y-89563967D01*
X165564211Y-89563967D02*
X165450451Y-89662631D01*
X165450451Y-89662631D02*
X165398909Y-89787065D01*
X165398909Y-89787065D02*
X165391361Y-89893277D01*
X165391361Y-89893277D02*
X165420258Y-90087477D01*
X165420258Y-90087477D02*
X165474927Y-90219460D01*
X165474927Y-90219460D02*
X165591814Y-90377214D01*
X165591814Y-90377214D02*
X165672254Y-90446979D01*
X165672254Y-90446979D02*
X165796689Y-90498522D01*
X165796689Y-90498522D02*
X165946894Y-90487847D01*
X165946894Y-90487847D02*
X166166866Y-90396732D01*
X164678609Y-90910103D02*
X164740826Y-90935874D01*
X164740826Y-90935874D02*
X164891032Y-90925199D01*
X164891032Y-90925199D02*
X164979021Y-90888753D01*
X164979021Y-90888753D02*
X165092780Y-90790090D01*
X165092780Y-90790090D02*
X165144323Y-90665655D01*
X165144323Y-90665655D02*
X165151871Y-90559444D01*
X165151871Y-90559444D02*
X165122973Y-90365244D01*
X165122973Y-90365244D02*
X165068304Y-90233261D01*
X165068304Y-90233261D02*
X164951418Y-90075507D01*
X164951418Y-90075507D02*
X164870978Y-90005741D01*
X164870978Y-90005741D02*
X164746543Y-89954199D01*
X164746543Y-89954199D02*
X164596337Y-89964874D01*
X164596337Y-89964874D02*
X164508349Y-90001320D01*
X164508349Y-90001320D02*
X164394589Y-90099983D01*
X164394589Y-90099983D02*
X164368818Y-90162200D01*
X163835170Y-91362552D02*
X164363101Y-91143876D01*
X164099135Y-91253214D02*
X163716452Y-90329334D01*
X163716452Y-90329334D02*
X163859110Y-90424871D01*
X163859110Y-90424871D02*
X163983544Y-90476413D01*
X163983544Y-90476413D02*
X164089756Y-90483962D01*
X163136978Y-90672445D02*
X163074761Y-90646674D01*
X163074761Y-90646674D02*
X162968549Y-90639126D01*
X162968549Y-90639126D02*
X162748578Y-90730241D01*
X162748578Y-90730241D02*
X162678813Y-90810681D01*
X162678813Y-90810681D02*
X162653041Y-90872898D01*
X162653041Y-90872898D02*
X162645493Y-90979110D01*
X162645493Y-90979110D02*
X162681939Y-91067098D01*
X162681939Y-91067098D02*
X162780602Y-91180858D01*
X162780602Y-91180858D02*
X163527210Y-91490113D01*
X163527210Y-91490113D02*
X162955284Y-91727012D01*
X194754173Y-55300994D02*
X194412153Y-54361302D01*
X194412153Y-54361302D02*
X194188417Y-54442735D01*
X194188417Y-54442735D02*
X194070462Y-54536342D01*
X194070462Y-54536342D02*
X194013541Y-54658410D01*
X194013541Y-54658410D02*
X194001367Y-54764191D01*
X194001367Y-54764191D02*
X194021766Y-54959467D01*
X194021766Y-54959467D02*
X194070626Y-55093709D01*
X194070626Y-55093709D02*
X194180520Y-55256411D01*
X194180520Y-55256411D02*
X194257841Y-55329619D01*
X194257841Y-55329619D02*
X194379909Y-55386540D01*
X194379909Y-55386540D02*
X194530437Y-55382428D01*
X194530437Y-55382428D02*
X194754173Y-55300994D01*
X193244940Y-55748960D02*
X193305974Y-55777421D01*
X193305974Y-55777421D02*
X193456503Y-55773308D01*
X193456503Y-55773308D02*
X193545997Y-55740735D01*
X193545997Y-55740735D02*
X193663952Y-55647127D01*
X193663952Y-55647127D02*
X193720874Y-55525059D01*
X193720874Y-55525059D02*
X193733047Y-55419278D01*
X193733047Y-55419278D02*
X193712648Y-55224002D01*
X193712648Y-55224002D02*
X193663788Y-55089761D01*
X193663788Y-55089761D02*
X193553894Y-54927058D01*
X193553894Y-54927058D02*
X193476573Y-54853850D01*
X193476573Y-54853850D02*
X193354506Y-54796929D01*
X193354506Y-54796929D02*
X193203977Y-54801042D01*
X193203977Y-54801042D02*
X193114483Y-54833615D01*
X193114483Y-54833615D02*
X192996527Y-54927223D01*
X192996527Y-54927223D02*
X192968067Y-54988256D01*
X192382568Y-56164188D02*
X192919535Y-55968748D01*
X192651052Y-56066468D02*
X192309032Y-55126775D01*
X192309032Y-55126775D02*
X192447386Y-55228444D01*
X192447386Y-55228444D02*
X192569454Y-55285365D01*
X192569454Y-55285365D02*
X192675235Y-55297539D01*
X191458834Y-55436222D02*
X191369339Y-55468796D01*
X191369339Y-55468796D02*
X191296131Y-55546116D01*
X191296131Y-55546116D02*
X191267671Y-55607150D01*
X191267671Y-55607150D02*
X191255497Y-55712931D01*
X191255497Y-55712931D02*
X191275896Y-55908207D01*
X191275896Y-55908207D02*
X191357329Y-56131943D01*
X191357329Y-56131943D02*
X191467223Y-56294646D01*
X191467223Y-56294646D02*
X191544544Y-56367854D01*
X191544544Y-56367854D02*
X191605578Y-56396314D01*
X191605578Y-56396314D02*
X191711359Y-56408488D01*
X191711359Y-56408488D02*
X191800854Y-56375915D01*
X191800854Y-56375915D02*
X191874062Y-56298594D01*
X191874062Y-56298594D02*
X191902522Y-56237560D01*
X191902522Y-56237560D02*
X191914696Y-56131779D01*
X191914696Y-56131779D02*
X191894297Y-55936503D01*
X191894297Y-55936503D02*
X191812863Y-55712767D01*
X191812863Y-55712767D02*
X191702969Y-55550065D01*
X191702969Y-55550065D02*
X191625649Y-55476857D01*
X191625649Y-55476857D02*
X191564615Y-55448396D01*
X191564615Y-55448396D02*
X191458834Y-55436222D01*
X102983836Y-92019096D02*
X103325856Y-91079403D01*
X103325856Y-91079403D02*
X103102120Y-90997970D01*
X103102120Y-90997970D02*
X102951591Y-90993857D01*
X102951591Y-90993857D02*
X102829523Y-91050778D01*
X102829523Y-91050778D02*
X102752203Y-91123986D01*
X102752203Y-91123986D02*
X102642309Y-91286689D01*
X102642309Y-91286689D02*
X102593449Y-91420930D01*
X102593449Y-91420930D02*
X102573049Y-91616206D01*
X102573049Y-91616206D02*
X102585223Y-91721987D01*
X102585223Y-91721987D02*
X102642144Y-91844055D01*
X102642144Y-91844055D02*
X102760099Y-91937663D01*
X102760099Y-91937663D02*
X102983836Y-92019096D01*
X101539749Y-91392141D02*
X101568210Y-91453175D01*
X101568210Y-91453175D02*
X101686165Y-91546782D01*
X101686165Y-91546782D02*
X101775660Y-91579356D01*
X101775660Y-91579356D02*
X101926188Y-91583469D01*
X101926188Y-91583469D02*
X102048256Y-91526547D01*
X102048256Y-91526547D02*
X102125576Y-91453339D01*
X102125576Y-91453339D02*
X102235470Y-91290637D01*
X102235470Y-91290637D02*
X102284330Y-91156395D01*
X102284330Y-91156395D02*
X102304730Y-90961120D01*
X102304730Y-90961120D02*
X102292556Y-90855338D01*
X102292556Y-90855338D02*
X102235635Y-90733270D01*
X102235635Y-90733270D02*
X102117680Y-90639663D01*
X102117680Y-90639663D02*
X102028185Y-90607090D01*
X102028185Y-90607090D02*
X101877657Y-90602977D01*
X101877657Y-90602977D02*
X101816623Y-90631438D01*
X101535965Y-90427936D02*
X100954251Y-90216210D01*
X100954251Y-90216210D02*
X101137188Y-90688194D01*
X101137188Y-90688194D02*
X101002946Y-90639334D01*
X101002946Y-90639334D02*
X100897165Y-90651508D01*
X100897165Y-90651508D02*
X100836131Y-90679969D01*
X100836131Y-90679969D02*
X100758811Y-90753177D01*
X100758811Y-90753177D02*
X100677377Y-90976913D01*
X100677377Y-90976913D02*
X100689551Y-91082694D01*
X100689551Y-91082694D02*
X100718012Y-91143728D01*
X100718012Y-91143728D02*
X100791220Y-91221049D01*
X100791220Y-91221049D02*
X101059703Y-91318769D01*
X101059703Y-91318769D02*
X101165484Y-91306595D01*
X101165484Y-91306595D02*
X101226518Y-91278134D01*
X207303470Y-91172182D02*
X206961450Y-90232490D01*
X206961450Y-90232490D02*
X206737714Y-90313923D01*
X206737714Y-90313923D02*
X206619759Y-90407530D01*
X206619759Y-90407530D02*
X206562837Y-90529598D01*
X206562837Y-90529598D02*
X206550664Y-90635379D01*
X206550664Y-90635379D02*
X206571063Y-90830655D01*
X206571063Y-90830655D02*
X206619923Y-90964897D01*
X206619923Y-90964897D02*
X206729817Y-91127599D01*
X206729817Y-91127599D02*
X206807138Y-91200807D01*
X206807138Y-91200807D02*
X206929205Y-91257728D01*
X206929205Y-91257728D02*
X207079734Y-91253616D01*
X207079734Y-91253616D02*
X207303470Y-91172182D01*
X205794237Y-91620148D02*
X205855271Y-91648609D01*
X205855271Y-91648609D02*
X206005800Y-91644496D01*
X206005800Y-91644496D02*
X206095294Y-91611922D01*
X206095294Y-91611922D02*
X206213249Y-91518315D01*
X206213249Y-91518315D02*
X206270170Y-91396247D01*
X206270170Y-91396247D02*
X206282344Y-91290466D01*
X206282344Y-91290466D02*
X206261945Y-91095190D01*
X206261945Y-91095190D02*
X206213085Y-90960949D01*
X206213085Y-90960949D02*
X206103191Y-90798246D01*
X206103191Y-90798246D02*
X206025870Y-90725038D01*
X206025870Y-90725038D02*
X205903802Y-90668117D01*
X205903802Y-90668117D02*
X205753274Y-90672230D01*
X205753274Y-90672230D02*
X205663779Y-90704803D01*
X205663779Y-90704803D02*
X205545824Y-90798410D01*
X205545824Y-90798410D02*
X205517364Y-90859444D01*
X205379338Y-91872509D02*
X205200349Y-91937656D01*
X205200349Y-91937656D02*
X205094567Y-91925482D01*
X205094567Y-91925482D02*
X205033534Y-91897021D01*
X205033534Y-91897021D02*
X204895179Y-91795353D01*
X204895179Y-91795353D02*
X204785285Y-91632651D01*
X204785285Y-91632651D02*
X204654992Y-91274672D01*
X204654992Y-91274672D02*
X204667166Y-91168891D01*
X204667166Y-91168891D02*
X204695626Y-91107857D01*
X204695626Y-91107857D02*
X204768834Y-91030537D01*
X204768834Y-91030537D02*
X204947823Y-90965390D01*
X204947823Y-90965390D02*
X205053604Y-90977564D01*
X205053604Y-90977564D02*
X205114638Y-91006024D01*
X205114638Y-91006024D02*
X205191959Y-91079232D01*
X205191959Y-91079232D02*
X205273392Y-91302969D01*
X205273392Y-91302969D02*
X205261218Y-91408750D01*
X205261218Y-91408750D02*
X205232758Y-91469784D01*
X205232758Y-91469784D02*
X205159550Y-91547104D01*
X205159550Y-91547104D02*
X204980561Y-91612251D01*
X204980561Y-91612251D02*
X204874780Y-91600077D01*
X204874780Y-91600077D02*
X204813746Y-91571617D01*
X204813746Y-91571617D02*
X204736425Y-91498409D01*
X131814841Y-72553102D02*
X132197525Y-71629222D01*
X132197525Y-71629222D02*
X131977553Y-71538107D01*
X131977553Y-71538107D02*
X131827347Y-71527432D01*
X131827347Y-71527432D02*
X131702913Y-71578975D01*
X131702913Y-71578975D02*
X131622473Y-71648740D01*
X131622473Y-71648740D02*
X131505586Y-71806494D01*
X131505586Y-71806494D02*
X131450917Y-71938477D01*
X131450917Y-71938477D02*
X131422019Y-72132677D01*
X131422019Y-72132677D02*
X131429568Y-72238889D01*
X131429568Y-72238889D02*
X131481110Y-72363323D01*
X131481110Y-72363323D02*
X131594870Y-72461987D01*
X131594870Y-72461987D02*
X131814841Y-72553102D01*
X130399477Y-71863754D02*
X130425248Y-71925971D01*
X130425248Y-71925971D02*
X130539008Y-72024634D01*
X130539008Y-72024634D02*
X130626996Y-72061080D01*
X130626996Y-72061080D02*
X130777202Y-72071755D01*
X130777202Y-72071755D02*
X130901636Y-72020213D01*
X130901636Y-72020213D02*
X130982077Y-71950447D01*
X130982077Y-71950447D02*
X131098963Y-71792693D01*
X131098963Y-71792693D02*
X131153632Y-71660710D01*
X131153632Y-71660710D02*
X131182530Y-71466510D01*
X131182530Y-71466510D02*
X131174982Y-71360299D01*
X131174982Y-71360299D02*
X131123439Y-71235864D01*
X131123439Y-71235864D02*
X131009680Y-71137201D01*
X131009680Y-71137201D02*
X130921691Y-71100755D01*
X130921691Y-71100755D02*
X130771485Y-71090080D01*
X130771485Y-71090080D02*
X130709268Y-71115851D01*
X129909823Y-70681625D02*
X130349766Y-70863855D01*
X130349766Y-70863855D02*
X130211530Y-71322021D01*
X130211530Y-71322021D02*
X130185758Y-71259804D01*
X130185758Y-71259804D02*
X130115993Y-71179364D01*
X130115993Y-71179364D02*
X129896022Y-71088248D01*
X129896022Y-71088248D02*
X129789810Y-71095797D01*
X129789810Y-71095797D02*
X129727593Y-71121568D01*
X129727593Y-71121568D02*
X129647152Y-71191333D01*
X129647152Y-71191333D02*
X129556037Y-71411305D01*
X129556037Y-71411305D02*
X129563586Y-71517516D01*
X129563586Y-71517516D02*
X129589357Y-71579734D01*
X129589357Y-71579734D02*
X129659122Y-71660174D01*
X129659122Y-71660174D02*
X129879094Y-71751289D01*
X129879094Y-71751289D02*
X129985305Y-71743741D01*
X129985305Y-71743741D02*
X130047522Y-71717969D01*
X134851408Y-143742828D02*
X134713912Y-143681424D01*
X134713912Y-143681424D02*
X134538370Y-143520569D01*
X134538370Y-143520569D02*
X134500324Y-143421119D01*
X134500324Y-143421119D02*
X134497386Y-143353839D01*
X134497386Y-143353839D02*
X134526620Y-143251452D01*
X134526620Y-143251452D02*
X134590962Y-143181235D01*
X134590962Y-143181235D02*
X134690412Y-143143189D01*
X134690412Y-143143189D02*
X134757691Y-143140251D01*
X134757691Y-143140251D02*
X134860079Y-143169485D01*
X134860079Y-143169485D02*
X135032684Y-143263060D01*
X135032684Y-143263060D02*
X135135072Y-143292294D01*
X135135072Y-143292294D02*
X135202351Y-143289356D01*
X135202351Y-143289356D02*
X135301802Y-143251310D01*
X135301802Y-143251310D02*
X135366144Y-143181093D01*
X135366144Y-143181093D02*
X135395377Y-143078705D01*
X135395377Y-143078705D02*
X135392440Y-143011426D01*
X135392440Y-143011426D02*
X135354394Y-142911976D01*
X135354394Y-142911976D02*
X135178851Y-142751121D01*
X135178851Y-142751121D02*
X135041355Y-142689716D01*
X134827767Y-142429411D02*
X133976635Y-143005834D01*
X133976635Y-143005834D02*
X134318765Y-142350523D01*
X134318765Y-142350523D02*
X133695767Y-142748466D01*
X133695767Y-142748466D02*
X134195815Y-141850334D01*
X133985164Y-141657308D02*
X133528755Y-141239086D01*
X133528755Y-141239086D02*
X133517146Y-141745150D01*
X133517146Y-141745150D02*
X133411821Y-141648637D01*
X133411821Y-141648637D02*
X133309433Y-141619404D01*
X133309433Y-141619404D02*
X133242153Y-141622341D01*
X133242153Y-141622341D02*
X133142703Y-141660387D01*
X133142703Y-141660387D02*
X132981848Y-141835929D01*
X132981848Y-141835929D02*
X132952615Y-141938317D01*
X132952615Y-141938317D02*
X132955552Y-142005597D01*
X132955552Y-142005597D02*
X132993598Y-142105047D01*
X132993598Y-142105047D02*
X133204249Y-142298073D01*
X133204249Y-142298073D02*
X133306637Y-142327306D01*
X133306637Y-142327306D02*
X133373916Y-142324369D01*
X131146560Y-117105379D02*
X131529244Y-116181500D01*
X131529244Y-116181500D02*
X131309272Y-116090385D01*
X131309272Y-116090385D02*
X131159067Y-116079710D01*
X131159067Y-116079710D02*
X131034632Y-116131252D01*
X131034632Y-116131252D02*
X130954192Y-116201018D01*
X130954192Y-116201018D02*
X130837305Y-116358772D01*
X130837305Y-116358772D02*
X130782636Y-116490755D01*
X130782636Y-116490755D02*
X130753739Y-116684955D01*
X130753739Y-116684955D02*
X130761287Y-116791166D01*
X130761287Y-116791166D02*
X130812829Y-116915601D01*
X130812829Y-116915601D02*
X130926589Y-117014264D01*
X130926589Y-117014264D02*
X131146560Y-117105379D01*
X130376013Y-116476953D02*
X129936071Y-116294723D01*
X130354664Y-116777365D02*
X130429387Y-115725924D01*
X130429387Y-115725924D02*
X129738744Y-116522243D01*
X129901456Y-115507248D02*
X129329530Y-115270349D01*
X129329530Y-115270349D02*
X129491706Y-115749864D01*
X129491706Y-115749864D02*
X129359723Y-115695195D01*
X129359723Y-115695195D02*
X129253512Y-115702743D01*
X129253512Y-115702743D02*
X129191295Y-115728514D01*
X129191295Y-115728514D02*
X129110854Y-115798280D01*
X129110854Y-115798280D02*
X129019739Y-116018251D01*
X129019739Y-116018251D02*
X129027287Y-116124463D01*
X129027287Y-116124463D02*
X129053059Y-116186680D01*
X129053059Y-116186680D02*
X129122824Y-116267120D01*
X129122824Y-116267120D02*
X129386790Y-116376459D01*
X129386790Y-116376459D02*
X129493001Y-116368910D01*
X129493001Y-116368910D02*
X129555218Y-116343139D01*
X178873252Y-71423281D02*
X178490568Y-70499401D01*
X178490568Y-70499401D02*
X178270597Y-70590516D01*
X178270597Y-70590516D02*
X178156837Y-70689180D01*
X178156837Y-70689180D02*
X178105295Y-70813614D01*
X178105295Y-70813614D02*
X178097747Y-70919826D01*
X178097747Y-70919826D02*
X178126644Y-71114026D01*
X178126644Y-71114026D02*
X178181313Y-71246009D01*
X178181313Y-71246009D02*
X178298200Y-71403763D01*
X178298200Y-71403763D02*
X178378640Y-71473528D01*
X178378640Y-71473528D02*
X178503075Y-71525071D01*
X178503075Y-71525071D02*
X178653280Y-71514396D01*
X178653280Y-71514396D02*
X178873252Y-71423281D01*
X177384995Y-71936652D02*
X177447212Y-71962423D01*
X177447212Y-71962423D02*
X177597418Y-71951748D01*
X177597418Y-71951748D02*
X177685407Y-71915302D01*
X177685407Y-71915302D02*
X177799166Y-71816639D01*
X177799166Y-71816639D02*
X177850709Y-71692204D01*
X177850709Y-71692204D02*
X177858257Y-71585993D01*
X177858257Y-71585993D02*
X177829359Y-71391793D01*
X177829359Y-71391793D02*
X177774690Y-71259810D01*
X177774690Y-71259810D02*
X177657804Y-71102056D01*
X177657804Y-71102056D02*
X177577364Y-71032290D01*
X177577364Y-71032290D02*
X177452929Y-70980748D01*
X177452929Y-70980748D02*
X177302723Y-70991423D01*
X177302723Y-70991423D02*
X177214735Y-71027869D01*
X177214735Y-71027869D02*
X177100975Y-71126532D01*
X177100975Y-71126532D02*
X177075204Y-71188749D01*
X176541556Y-72389101D02*
X177069487Y-72170425D01*
X176805521Y-72279763D02*
X176422838Y-71355883D01*
X176422838Y-71355883D02*
X176565496Y-71451420D01*
X176565496Y-71451420D02*
X176689930Y-71502962D01*
X176689930Y-71502962D02*
X176796142Y-71510511D01*
X175661670Y-72753561D02*
X176189602Y-72534885D01*
X175925636Y-72644223D02*
X175542953Y-71720344D01*
X175542953Y-71720344D02*
X175685610Y-71815880D01*
X175685610Y-71815880D02*
X175810045Y-71867423D01*
X175810045Y-71867423D02*
X175916256Y-71874971D01*
X90625768Y-60072425D02*
X90475454Y-60081448D01*
X90475454Y-60081448D02*
X90245472Y-60019824D01*
X90245472Y-60019824D02*
X90165803Y-59949178D01*
X90165803Y-59949178D02*
X90132132Y-59890857D01*
X90132132Y-59890857D02*
X90110785Y-59786539D01*
X90110785Y-59786539D02*
X90135434Y-59694546D01*
X90135434Y-59694546D02*
X90206080Y-59614878D01*
X90206080Y-59614878D02*
X90264401Y-59581207D01*
X90264401Y-59581207D02*
X90368719Y-59559859D01*
X90368719Y-59559859D02*
X90565029Y-59563162D01*
X90565029Y-59563162D02*
X90669347Y-59541815D01*
X90669347Y-59541815D02*
X90727668Y-59508143D01*
X90727668Y-59508143D02*
X90798314Y-59428475D01*
X90798314Y-59428475D02*
X90822963Y-59336482D01*
X90822963Y-59336482D02*
X90801616Y-59232164D01*
X90801616Y-59232164D02*
X90767945Y-59173843D01*
X90767945Y-59173843D02*
X90688276Y-59103197D01*
X90688276Y-59103197D02*
X90458294Y-59041574D01*
X90458294Y-59041574D02*
X90307980Y-59050596D01*
X89998329Y-58918326D02*
X89509528Y-59822629D01*
X89509528Y-59822629D02*
X89510413Y-59083383D01*
X89510413Y-59083383D02*
X89141556Y-59724031D01*
X89141556Y-59724031D02*
X89170393Y-58696482D01*
X88823768Y-58702202D02*
X88790097Y-58643880D01*
X88790097Y-58643880D02*
X88710428Y-58573234D01*
X88710428Y-58573234D02*
X88480446Y-58511611D01*
X88480446Y-58511611D02*
X88376128Y-58532958D01*
X88376128Y-58532958D02*
X88317807Y-58566630D01*
X88317807Y-58566630D02*
X88247161Y-58646298D01*
X88247161Y-58646298D02*
X88222512Y-58738291D01*
X88222512Y-58738291D02*
X88231534Y-58888605D01*
X88231534Y-58888605D02*
X88635595Y-59588459D01*
X88635595Y-59588459D02*
X88037641Y-59428238D01*
%TO.C,T1*%
X178680215Y-32029194D02*
X178680219Y-34879194D01*
X178680219Y-34879194D02*
X185280214Y-34879195D01*
X181980215Y-32029191D02*
X178680215Y-32029194D01*
X181980215Y-32029191D02*
X185280214Y-32029194D01*
X183930214Y-32029193D02*
X180030217Y-32029192D01*
X185280214Y-34879195D02*
X185280214Y-32029194D01*
%TO.C,MCU1*%
X139330217Y-37919193D02*
X142680217Y-37919193D01*
X139330219Y-35379191D02*
X139330217Y-37919193D01*
X139330219Y-35379191D02*
X142680221Y-35379196D01*
X142680221Y-35379196D02*
X142680217Y-37919193D01*
D12*
%TO.C,ARC1*%
X168980212Y-39179186D02*
G75*
G02*
X168980218Y-53179194I3J-7000004D01*
G01*
D13*
%TO.C,B1*%
X234354441Y-47094798D02*
X234212088Y-46563541D01*
X234794522Y-44776915D02*
X233901045Y-45016325D01*
X238440892Y-43799876D02*
X237547413Y-44039282D01*
X239087478Y-45826583D02*
X238945125Y-45295326D01*
X239398521Y-47373799D02*
X234858674Y-48590248D01*
D11*
%TO.C,SW1*%
X69006966Y-60330494D02*
X69779708Y-60537552D01*
X69134512Y-61399945D02*
X69238044Y-61013575D01*
X69238044Y-61013575D02*
X68706791Y-60871224D01*
X69238044Y-61013575D02*
X69006966Y-60330494D01*
X69238044Y-61013575D02*
X69769307Y-61155925D01*
X69393339Y-60434020D02*
X69522752Y-59951059D01*
X69779708Y-60537552D02*
X69238044Y-61013575D01*
%TO.C,DA5*%
X213308378Y-98133371D02*
X213787201Y-99448942D01*
X213782713Y-98705655D02*
X214158592Y-98568844D01*
X213787201Y-99448942D02*
X216606282Y-98422883D01*
X214158592Y-98568844D02*
X213970482Y-98052018D01*
X214158592Y-98568844D02*
X214346702Y-99085676D01*
X214158592Y-98568844D02*
X214859218Y-98739509D01*
X214585602Y-97987754D02*
X214158592Y-98568844D01*
X214722407Y-98363631D02*
X215192253Y-98192623D01*
X214859218Y-98739509D02*
X214585602Y-97987754D01*
X215055442Y-97816745D02*
X215756068Y-97987410D01*
X215192253Y-98192623D02*
X214722407Y-98363631D01*
X215329058Y-98568500D02*
X215055442Y-97816745D01*
X215756068Y-97987410D02*
X215329058Y-98568500D01*
X215756068Y-97987410D02*
X215567958Y-97470578D01*
X215756068Y-97987410D02*
X215944178Y-98504236D01*
X216127459Y-97107312D02*
X213308378Y-98133371D01*
X216131947Y-97850599D02*
X215756068Y-97987410D01*
X216606282Y-98422883D02*
X216127459Y-97107312D01*
%TO.C,S20*%
X214985560Y-45864071D02*
X215565117Y-45708781D01*
X215070142Y-46566099D02*
X214914852Y-45986545D01*
X215988948Y-49995138D02*
X215833653Y-49415582D01*
X216111423Y-50065847D02*
X216690978Y-49910556D01*
X220144165Y-48985277D02*
X221630143Y-48587111D01*
X222147776Y-48587110D02*
X223658585Y-48991931D01*
X224176222Y-48991924D02*
X225662202Y-48593764D01*
X225930801Y-44018339D02*
X226510355Y-43863050D01*
X226788122Y-44513312D02*
X226632828Y-43933756D01*
X227056665Y-48220119D02*
X227636221Y-48064828D01*
X227706927Y-47942353D02*
X227551638Y-47362797D01*
X214914852Y-45986545D02*
G75*
G02*
X214985560Y-45864072I96590J25883D01*
G01*
X216111423Y-50065847D02*
G75*
G02*
X215988949Y-49995138I-25882J96593D01*
G01*
X221630143Y-48587111D02*
G75*
G02*
X222147776Y-48587110I258819J-965913D01*
G01*
X224176222Y-48991924D02*
G75*
G02*
X223658585Y-48991931I-258831J966596D01*
G01*
X226510355Y-43863050D02*
G75*
G02*
X226632828Y-43933756I25883J-96591D01*
G01*
X227706927Y-47942353D02*
G75*
G02*
X227636221Y-48064828I-96595J-25882D01*
G01*
%TO.C,DA6*%
X179300745Y-114825315D02*
X179836498Y-116118753D01*
X179799597Y-115376363D02*
X180169148Y-115223287D01*
X179836498Y-116118753D02*
X182608139Y-114970699D01*
X180169148Y-115223287D02*
X179958670Y-114715156D01*
X180169148Y-115223287D02*
X180379620Y-115731423D01*
X180169148Y-115223287D02*
X180876547Y-115363228D01*
X180570401Y-114624126D02*
X180169148Y-115223287D01*
X180723474Y-114993676D02*
X181185410Y-114802338D01*
X180876547Y-115363228D02*
X180570401Y-114624126D01*
X181032337Y-114432786D02*
X181739736Y-114572727D01*
X181185410Y-114802338D02*
X180723474Y-114993676D01*
X181338483Y-115171888D02*
X181032337Y-114432786D01*
X181739736Y-114572727D02*
X181338483Y-115171888D01*
X181739736Y-114572727D02*
X181529264Y-114064591D01*
X181739736Y-114572727D02*
X181950214Y-115080858D01*
X182072386Y-113677261D02*
X179300745Y-114825315D01*
X182109287Y-114419651D02*
X181739736Y-114572727D01*
X182608139Y-114970699D02*
X182072386Y-113677261D01*
%TO.C,S4*%
X72428805Y-84099202D02*
X72584095Y-83519644D01*
X72499518Y-84221673D02*
X73079076Y-84376968D01*
X73347612Y-80670163D02*
X73502907Y-80090610D01*
X73625374Y-80019901D02*
X74204934Y-80175192D01*
X76532257Y-85302244D02*
X78018235Y-85700406D01*
X78466521Y-85959230D02*
X79572510Y-87065218D01*
X80020796Y-87324033D02*
X81506774Y-87722215D01*
X82901244Y-88095850D02*
X83480793Y-88251139D01*
X83603266Y-88180427D02*
X83758558Y-87600872D01*
X84027101Y-83894070D02*
X84606656Y-84049360D01*
X84522071Y-84751391D02*
X84677364Y-84171839D01*
X72499518Y-84221673D02*
G75*
G02*
X72428808Y-84099203I25881J96591D01*
G01*
X73502907Y-80090610D02*
G75*
G02*
X73625375Y-80019898I96591J-25880D01*
G01*
X78018235Y-85700406D02*
G75*
G02*
X78466520Y-85959231I-258784J-965844D01*
G01*
X80020796Y-87324033D02*
G75*
G02*
X79572509Y-87065219I259096J966415D01*
G01*
X83603266Y-88180427D02*
G75*
G02*
X83480793Y-88251139I-96594J25883D01*
G01*
X84606656Y-84049360D02*
G75*
G02*
X84677364Y-84171839I-25865J-96582D01*
G01*
%TO.C,S5*%
X77346363Y-65746601D02*
X77501653Y-65167043D01*
X77417076Y-65869072D02*
X77996634Y-66024367D01*
X78265170Y-62317562D02*
X78420465Y-61738009D01*
X78542932Y-61667300D02*
X79122492Y-61822591D01*
X81449815Y-66949643D02*
X82935793Y-67347805D01*
X83384079Y-67606629D02*
X84490068Y-68712617D01*
X84938354Y-68971432D02*
X86424332Y-69369614D01*
X87818802Y-69743249D02*
X88398351Y-69898538D01*
X88520824Y-69827826D02*
X88676116Y-69248271D01*
X88944659Y-65541469D02*
X89524214Y-65696759D01*
X89439629Y-66398790D02*
X89594922Y-65819238D01*
X77417076Y-65869072D02*
G75*
G02*
X77346366Y-65746602I25881J96591D01*
G01*
X78420465Y-61738009D02*
G75*
G02*
X78542933Y-61667297I96591J-25880D01*
G01*
X82935793Y-67347805D02*
G75*
G02*
X83384078Y-67606630I-258784J-965844D01*
G01*
X84938354Y-68971432D02*
G75*
G02*
X84490067Y-68712618I259096J966415D01*
G01*
X88520824Y-69827826D02*
G75*
G02*
X88398351Y-69898538I-96594J25883D01*
G01*
X89524214Y-65696759D02*
G75*
G02*
X89594922Y-65819238I-25865J-96582D01*
G01*
%TO.C,DC7*%
X243577944Y-80411588D02*
X244098896Y-83366010D01*
X244003632Y-81098097D02*
X244791477Y-80959171D01*
X244098896Y-83366010D02*
X245477638Y-83122904D01*
X244264105Y-82575321D02*
X245051950Y-82436395D01*
X244397560Y-81028639D02*
X244310728Y-80536237D01*
X244484379Y-81521045D02*
X244553842Y-81914965D01*
X244501740Y-81619527D02*
X243960101Y-81715031D01*
X244501740Y-81619527D02*
X244003632Y-81098097D01*
X244501740Y-81619527D02*
X245043386Y-81524018D01*
X244553842Y-81914965D02*
X244012196Y-82010474D01*
X244553842Y-81914965D02*
X244264105Y-82575321D01*
X244553842Y-81914965D02*
X245095481Y-81819461D01*
X244571203Y-82013447D02*
X244501740Y-81619527D01*
X244658022Y-82505853D02*
X244744854Y-82998255D01*
X244791477Y-80959171D02*
X244501740Y-81619527D01*
X244956686Y-80168482D02*
X243577944Y-80411588D01*
X245051950Y-82436395D02*
X244553842Y-81914965D01*
X245477638Y-83122904D02*
X244956686Y-80168482D01*
%TO.C,DC4*%
X114827981Y-53810980D02*
X116143556Y-54289809D01*
X115366412Y-53208819D02*
X115947496Y-52781810D01*
X115742277Y-53345626D02*
X115571275Y-53815476D01*
X115854040Y-50991905D02*
X114827981Y-53810980D01*
X115879437Y-51799279D02*
X116050100Y-52499904D01*
X115913292Y-52875780D02*
X116050100Y-52499904D01*
X115947496Y-52781810D02*
X115430665Y-52593699D01*
X115947496Y-52781810D02*
X116118159Y-53482435D01*
X115947496Y-52781810D02*
X116464324Y-52969919D01*
X116050100Y-52499904D02*
X115533272Y-52311795D01*
X116050100Y-52499904D02*
X116566931Y-52688015D01*
X116050100Y-52499904D02*
X116631184Y-52072895D01*
X116084304Y-52405934D02*
X115947496Y-52781810D01*
X116118159Y-53482435D02*
X115366412Y-53208819D01*
X116143556Y-54289809D02*
X117169615Y-51470734D01*
X116255319Y-51936088D02*
X116426321Y-51466238D01*
X116631184Y-52072895D02*
X115879437Y-51799279D01*
X117169615Y-51470734D02*
X115854040Y-50991905D01*
%TO.C,SW4*%
X238180720Y-60537541D02*
X238953463Y-60330486D01*
X238567091Y-60434011D02*
X238437680Y-59951050D01*
X238722381Y-61013569D02*
X238180720Y-60537541D01*
X238722381Y-61013569D02*
X238191123Y-61155913D01*
X238722381Y-61013569D02*
X239253640Y-60871213D01*
X238825912Y-61399938D02*
X238722381Y-61013569D01*
X238953463Y-60330486D02*
X238722381Y-61013569D01*
%TO.C,S3*%
X60855211Y-53565141D02*
X61010501Y-52985583D01*
X60925924Y-53687612D02*
X61505482Y-53842907D01*
X61774018Y-50136102D02*
X61929313Y-49556549D01*
X62051780Y-49485840D02*
X62631340Y-49641131D01*
X64958663Y-54768183D02*
X66444641Y-55166345D01*
X66892927Y-55425169D02*
X67998916Y-56531157D01*
X68447202Y-56789972D02*
X69933180Y-57188154D01*
X71327650Y-57561789D02*
X71907199Y-57717078D01*
X72029672Y-57646366D02*
X72184964Y-57066811D01*
X72453507Y-53360009D02*
X73033062Y-53515299D01*
X72948477Y-54217330D02*
X73103770Y-53637778D01*
X60925924Y-53687612D02*
G75*
G02*
X60855214Y-53565142I25881J96591D01*
G01*
X61929313Y-49556549D02*
G75*
G02*
X62051781Y-49485837I96591J-25880D01*
G01*
X66444641Y-55166345D02*
G75*
G02*
X66892926Y-55425170I-258784J-965844D01*
G01*
X68447202Y-56789972D02*
G75*
G02*
X67998915Y-56531158I259096J966415D01*
G01*
X72029672Y-57646366D02*
G75*
G02*
X71907199Y-57717078I-96594J25883D01*
G01*
X73033062Y-53515299D02*
G75*
G02*
X73103770Y-53637778I-25865J-96582D01*
G01*
%TO.C,S24*%
X187895710Y-94875941D02*
X188450037Y-94646329D01*
X188071198Y-95560926D02*
X187841587Y-95006600D01*
X189429726Y-98840700D02*
X189200116Y-98286366D01*
X189560385Y-98894816D02*
X190114712Y-98665206D01*
X193417579Y-97297112D02*
X194838883Y-96708395D01*
X195352081Y-96640823D02*
X196902802Y-96844984D01*
X197416012Y-96777422D02*
X198837306Y-96188701D01*
X198506395Y-91617360D02*
X199060723Y-91387753D01*
X199420988Y-91996195D02*
X199191380Y-91441870D01*
X200171067Y-95636238D02*
X200725396Y-95406629D01*
X200779516Y-95275973D02*
X200549906Y-94721645D01*
X187841587Y-95006600D02*
G75*
G02*
X187895709Y-94875938I92390J38271D01*
G01*
X189560385Y-98894816D02*
G75*
G02*
X189429727Y-98840700I-38271J92387D01*
G01*
X194838883Y-96708395D02*
G75*
G02*
X195352081Y-96640823I382720J-924087D01*
G01*
X197416012Y-96777422D02*
G75*
G02*
X196902802Y-96844984I-382742J924369D01*
G01*
X199060723Y-91387753D02*
G75*
G02*
X199191380Y-91441870I38269J-92389D01*
G01*
X200779516Y-95275973D02*
G75*
G02*
X200725396Y-95406629I-92389J-38268D01*
G01*
%TO.C,S10*%
X109245730Y-94994729D02*
X109475336Y-94440403D01*
X109299853Y-95125388D02*
X109854179Y-95354996D01*
X110604255Y-91714956D02*
X110833866Y-91160625D01*
X110964519Y-91106506D02*
X111518848Y-91336123D01*
X113157048Y-96723089D02*
X114578336Y-97311807D01*
X114989009Y-97626928D02*
X115941175Y-98867813D01*
X116351849Y-99182926D02*
X117773141Y-99771647D01*
X119106902Y-100324107D02*
X119661229Y-100553722D01*
X119791888Y-100499609D02*
X120021495Y-99945275D01*
X120771576Y-96305236D02*
X121325898Y-96534840D01*
X121150414Y-97219823D02*
X121380021Y-96665503D01*
X109299853Y-95125388D02*
G75*
G02*
X109245731Y-94994730I38266J92389D01*
G01*
X110833866Y-91160625D02*
G75*
G02*
X110964519Y-91106506I92389J-38274D01*
G01*
X114578336Y-97311807D02*
G75*
G02*
X114989009Y-97626928I-382695J-923896D01*
G01*
X116351849Y-99182926D02*
G75*
G02*
X115941174Y-98867813I383047J924376D01*
G01*
X119791888Y-100499609D02*
G75*
G02*
X119661229Y-100553722I-92383J38265D01*
G01*
X121325898Y-96534840D02*
G75*
G02*
X121380020Y-96665503I-38257J-92387D01*
G01*
%TO.C,DA2*%
X91354153Y-98422881D02*
X94173228Y-99448940D01*
X91828486Y-97850600D02*
X92204374Y-97987405D01*
X91832982Y-97107306D02*
X91354153Y-98422881D01*
X92204374Y-97987405D02*
X92016258Y-98504234D01*
X92204374Y-97987405D02*
X92392478Y-97470576D01*
X92204374Y-97987405D02*
X92631376Y-98568498D01*
X92631376Y-98568498D02*
X92904994Y-97816739D01*
X92768182Y-98192617D02*
X93238028Y-98363629D01*
X92904994Y-97816739D02*
X92204374Y-97987405D01*
X93101216Y-98739507D02*
X93374834Y-97987748D01*
X93238028Y-98363629D02*
X92768182Y-98192617D01*
X93374834Y-97987748D02*
X93801836Y-98568841D01*
X93801836Y-98568841D02*
X93101216Y-98739507D01*
X93801836Y-98568841D02*
X93613732Y-99085670D01*
X93801836Y-98568841D02*
X93989952Y-98052012D01*
X94173228Y-99448940D02*
X94652057Y-98133365D01*
X94177724Y-98705646D02*
X93801836Y-98568841D01*
X94652057Y-98133365D02*
X91832982Y-97107306D01*
%TO.C,S28*%
X160647353Y-78741974D02*
X161201680Y-78512362D01*
X160822841Y-79426959D02*
X160593230Y-78872633D01*
X162181369Y-82706733D02*
X161951759Y-82152399D01*
X162312028Y-82760849D02*
X162866355Y-82531239D01*
X166169222Y-81163145D02*
X167590526Y-80574428D01*
X168103724Y-80506856D02*
X169654445Y-80711017D01*
X170167655Y-80643455D02*
X171588949Y-80054734D01*
X171258038Y-75483393D02*
X171812366Y-75253786D01*
X172172631Y-75862228D02*
X171943023Y-75307903D01*
X172922710Y-79502271D02*
X173477039Y-79272662D01*
X173531159Y-79142006D02*
X173301549Y-78587678D01*
X160593230Y-78872633D02*
G75*
G02*
X160647352Y-78741971I92390J38271D01*
G01*
X162312028Y-82760849D02*
G75*
G02*
X162181370Y-82706733I-38271J92387D01*
G01*
X167590526Y-80574428D02*
G75*
G02*
X168103724Y-80506856I382720J-924087D01*
G01*
X170167655Y-80643455D02*
G75*
G02*
X169654445Y-80711017I-382742J924369D01*
G01*
X171812366Y-75253786D02*
G75*
G02*
X171943023Y-75307903I38269J-92389D01*
G01*
X173531159Y-79142006D02*
G75*
G02*
X173477039Y-79272662I-92389J-38268D01*
G01*
%TO.C,DC8*%
X220239760Y-72331038D02*
X221016225Y-75228816D01*
X220723658Y-72977844D02*
X221496400Y-72770783D01*
X221016225Y-75228816D02*
X222368528Y-74866470D01*
X221110028Y-72874310D02*
X220980615Y-72391342D01*
X221111888Y-74426725D02*
X221884630Y-74219664D01*
X221239439Y-73357271D02*
X221342967Y-73743644D01*
X221265321Y-73453864D02*
X220723658Y-72977844D01*
X221265321Y-73453864D02*
X220734061Y-73596214D01*
X221265321Y-73453864D02*
X221796578Y-73311513D01*
X221342967Y-73743644D02*
X220811710Y-73885995D01*
X221342967Y-73743644D02*
X221111888Y-74426725D01*
X221342967Y-73743644D02*
X221874227Y-73601294D01*
X221368849Y-73840237D02*
X221265321Y-73453864D01*
X221496400Y-72770783D02*
X221265321Y-73453864D01*
X221498260Y-74323198D02*
X221627673Y-74806166D01*
X221592063Y-71968692D02*
X220239760Y-72331038D01*
X221884630Y-74219664D02*
X221342967Y-73743644D01*
X222368528Y-74866470D02*
X221592063Y-71968692D01*
%TO.C,S26*%
X173353745Y-59768522D02*
X173908072Y-59538910D01*
X173529233Y-60453507D02*
X173299622Y-59899181D01*
X174887761Y-63733281D02*
X174658151Y-63178947D01*
X175018420Y-63787397D02*
X175572747Y-63557787D01*
X178875614Y-62189693D02*
X180296918Y-61600976D01*
X180810116Y-61533404D02*
X182360837Y-61737565D01*
X182874047Y-61670003D02*
X184295341Y-61081282D01*
X183964430Y-56509941D02*
X184518758Y-56280334D01*
X184879023Y-56888776D02*
X184649415Y-56334451D01*
X185629102Y-60528819D02*
X186183431Y-60299210D01*
X186237551Y-60168554D02*
X186007941Y-59614226D01*
X173299622Y-59899181D02*
G75*
G02*
X173353744Y-59768519I92390J38271D01*
G01*
X175018420Y-63787397D02*
G75*
G02*
X174887762Y-63733281I-38271J92387D01*
G01*
X180296918Y-61600976D02*
G75*
G02*
X180810116Y-61533404I382720J-924087D01*
G01*
X182874047Y-61670003D02*
G75*
G02*
X182360837Y-61737565I-382742J924369D01*
G01*
X184518758Y-56280334D02*
G75*
G02*
X184649415Y-56334451I38269J-92389D01*
G01*
X186237551Y-60168554D02*
G75*
G02*
X186183431Y-60299210I-92389J-38268D01*
G01*
%TO.C,DC2*%
X85591916Y-74866472D02*
X86944224Y-75228818D01*
X86075825Y-74219671D02*
X86617479Y-73743643D01*
X86368380Y-71968692D02*
X85591916Y-74866472D01*
X86462182Y-74323198D02*
X86332772Y-74806165D01*
X86464049Y-72770775D02*
X86695125Y-73453867D01*
X86591595Y-73840237D02*
X86695125Y-73453867D01*
X86617479Y-73743643D02*
X86086222Y-73601295D01*
X86617479Y-73743643D02*
X86848555Y-74426735D01*
X86617479Y-73743643D02*
X87148735Y-73885995D01*
X86695125Y-73453867D02*
X86163869Y-73311515D01*
X86695125Y-73453867D02*
X87226382Y-73596215D01*
X86695125Y-73453867D02*
X87236779Y-72977839D01*
X86721009Y-73357273D02*
X86617479Y-73743643D01*
X86848555Y-74426735D02*
X86075825Y-74219671D01*
X86850422Y-72874312D02*
X86979832Y-72391345D01*
X86944224Y-75228818D02*
X87720688Y-72331038D01*
X87236779Y-72977839D02*
X86464049Y-72770775D01*
X87720688Y-72331038D02*
X86368380Y-71968692D01*
%TO.C,DC6*%
X143478730Y-88978861D02*
X144772163Y-89514618D01*
X144042911Y-88400756D02*
X144642065Y-87999503D01*
X144412458Y-88553829D02*
X144221119Y-89015771D01*
X144603799Y-88091890D02*
X144756879Y-87722337D01*
X144616936Y-87014937D02*
X144756879Y-87722337D01*
X144626781Y-86207222D02*
X143478730Y-88978861D01*
X144642065Y-87999503D02*
X144133937Y-87789026D01*
X144642065Y-87999503D02*
X144782008Y-88706903D01*
X144642065Y-87999503D02*
X145150201Y-88209977D01*
X144756879Y-87722337D02*
X144248743Y-87511863D01*
X144756879Y-87722337D02*
X145265007Y-87932814D01*
X144756879Y-87722337D02*
X145356033Y-87321084D01*
X144772163Y-89514618D02*
X145920214Y-86742979D01*
X144782008Y-88706903D02*
X144042911Y-88400756D01*
X144795145Y-87629950D02*
X144642065Y-87999503D01*
X144986486Y-87168011D02*
X145177825Y-86706069D01*
X145356033Y-87321084D02*
X144616936Y-87014937D01*
X145920214Y-86742979D02*
X144626781Y-86207222D01*
%TO.C,S11*%
X116516712Y-77441016D02*
X116746318Y-76886690D01*
X116570835Y-77571675D02*
X117125161Y-77801283D01*
X117875237Y-74161243D02*
X118104848Y-73606912D01*
X118235501Y-73552793D02*
X118789830Y-73782410D01*
X120428030Y-79169376D02*
X121849318Y-79758094D01*
X122259991Y-80073215D02*
X123212157Y-81314100D01*
X123622831Y-81629213D02*
X125044123Y-82217934D01*
X126377884Y-82770394D02*
X126932211Y-83000009D01*
X127062870Y-82945896D02*
X127292477Y-82391562D01*
X128042558Y-78751523D02*
X128596880Y-78981127D01*
X128421396Y-79666110D02*
X128651003Y-79111790D01*
X116570835Y-77571675D02*
G75*
G02*
X116516713Y-77441017I38266J92389D01*
G01*
X118104848Y-73606912D02*
G75*
G02*
X118235501Y-73552793I92389J-38274D01*
G01*
X121849318Y-79758094D02*
G75*
G02*
X122259991Y-80073215I-382695J-923896D01*
G01*
X123622831Y-81629213D02*
G75*
G02*
X123212156Y-81314100I383047J924376D01*
G01*
X127062870Y-82945896D02*
G75*
G02*
X126932211Y-83000009I-92383J38265D01*
G01*
X128596880Y-78981127D02*
G75*
G02*
X128651002Y-79111790I-38257J-92387D01*
G01*
%TO.C,S16*%
X243949819Y-72298757D02*
X244540703Y-72194569D01*
X243972893Y-73005489D02*
X243868702Y-72414597D01*
X244589344Y-76501559D02*
X244485150Y-75910674D01*
X244705191Y-76582674D02*
X245296075Y-76478484D01*
X248816762Y-75857692D02*
X250331795Y-75590554D01*
X250847454Y-75635664D02*
X252317231Y-76170625D01*
X252832899Y-76215733D02*
X254347926Y-75948599D01*
X255014276Y-71413995D02*
X255605159Y-71309808D01*
X255769648Y-75697909D02*
X256360530Y-75593719D01*
X255825198Y-71981803D02*
X255721001Y-71390924D01*
X256441640Y-75477878D02*
X256337457Y-74886990D01*
X243868702Y-72414597D02*
G75*
G02*
X243949819Y-72298760I98483J17356D01*
G01*
X244705191Y-76582674D02*
G75*
G02*
X244589344Y-76501559I-17366J98481D01*
G01*
X250331795Y-75590554D02*
G75*
G02*
X250847454Y-75635664I173644J-984895D01*
G01*
X252832899Y-76215733D02*
G75*
G02*
X252317231Y-76170625I-173609J985406D01*
G01*
X255605159Y-71309808D02*
G75*
G02*
X255721001Y-71390924I17366J-98475D01*
G01*
X256441640Y-75477878D02*
G75*
G02*
X256360530Y-75593720I-98484J-17360D01*
G01*
%TO.C,S12*%
X123787695Y-59887315D02*
X124017301Y-59332989D01*
X123841818Y-60017974D02*
X124396144Y-60247582D01*
X125146220Y-56607542D02*
X125375831Y-56053211D01*
X125506482Y-55999100D02*
X126060813Y-56228709D01*
X127699013Y-61615675D02*
X129120310Y-62204394D01*
X129530974Y-62519514D02*
X130483140Y-63760399D01*
X130893814Y-64075512D02*
X132315103Y-64664239D01*
X133648867Y-65216693D02*
X134203194Y-65446308D01*
X134333853Y-65392195D02*
X134563460Y-64837861D01*
X135313541Y-61197822D02*
X135867863Y-61427426D01*
X135692379Y-62112409D02*
X135921988Y-61558089D01*
X123841818Y-60017974D02*
G75*
G02*
X123787696Y-59887316I38266J92389D01*
G01*
X125375831Y-56053211D02*
G75*
G02*
X125506485Y-55999092I92389J-38274D01*
G01*
X129120310Y-62204394D02*
G75*
G02*
X129530974Y-62519514I-382660J-923829D01*
G01*
X130893814Y-64075512D02*
G75*
G02*
X130483139Y-63760399I383047J924376D01*
G01*
X134333853Y-65392195D02*
G75*
G02*
X134203194Y-65446308I-92383J38265D01*
G01*
X135867863Y-61427426D02*
G75*
G02*
X135921988Y-61558089I-38260J-92390D01*
G01*
%TO.C,SW5*%
X216772007Y-54366434D02*
X217544750Y-54159379D01*
X217158378Y-54262904D02*
X217028967Y-53779943D01*
X217313668Y-54842462D02*
X216772007Y-54366434D01*
X217313668Y-54842462D02*
X216782410Y-54984806D01*
X217313668Y-54842462D02*
X217844927Y-54700106D01*
X217417199Y-55228831D02*
X217313668Y-54842462D01*
X217544750Y-54159379D02*
X217313668Y-54842462D01*
%TO.C,S14*%
X136494096Y-78860777D02*
X136723702Y-78306451D01*
X136548219Y-78991436D02*
X137102545Y-79221044D01*
X137852621Y-75581004D02*
X138082232Y-75026673D01*
X138212885Y-74972554D02*
X138767214Y-75202171D01*
X140405414Y-80589137D02*
X141826702Y-81177855D01*
X142237375Y-81492976D02*
X143189541Y-82733861D01*
X143600215Y-83048974D02*
X145021507Y-83637695D01*
X146355268Y-84190155D02*
X146909595Y-84419770D01*
X147040254Y-84365657D02*
X147269861Y-83811323D01*
X148019942Y-80171284D02*
X148574264Y-80400888D01*
X148398780Y-81085871D02*
X148628387Y-80531551D01*
X136548219Y-78991436D02*
G75*
G02*
X136494097Y-78860778I38266J92389D01*
G01*
X138082232Y-75026673D02*
G75*
G02*
X138212885Y-74972554I92389J-38274D01*
G01*
X141826702Y-81177855D02*
G75*
G02*
X142237375Y-81492976I-382695J-923896D01*
G01*
X143600215Y-83048974D02*
G75*
G02*
X143189540Y-82733861I383047J924376D01*
G01*
X147040254Y-84365657D02*
G75*
G02*
X146909595Y-84419770I-92383J38265D01*
G01*
X148574264Y-80400888D02*
G75*
G02*
X148628386Y-80531551I-38257J-92387D01*
G01*
%TO.C,SW6*%
X169975230Y-138941355D02*
X170565048Y-138400889D01*
X170270144Y-138671126D02*
X169932345Y-138302486D01*
X170565048Y-138400889D02*
X170675495Y-139113493D01*
X170675495Y-139113493D02*
X169975230Y-138941355D01*
X170675495Y-139113493D02*
X170269989Y-139485056D01*
X170675495Y-139113493D02*
X171080996Y-138741917D01*
X170945731Y-139408402D02*
X170675495Y-139113493D01*
%TO.C,S23*%
X189748287Y-43416578D02*
X190312103Y-43211366D01*
X189893731Y-44108565D02*
X189688526Y-43544746D01*
X191107904Y-47444473D02*
X190902687Y-46880658D01*
X191236075Y-47504240D02*
X191799892Y-47299028D01*
X195159292Y-46076304D02*
X196604921Y-45550144D01*
X197120581Y-45505026D02*
X198660917Y-45776630D01*
X199176587Y-45731510D02*
X200622209Y-45205354D01*
X200491013Y-40623929D02*
X201054827Y-40418719D01*
X201388210Y-41042297D02*
X201183002Y-40478483D01*
X201978798Y-44711593D02*
X202542612Y-44506384D01*
X202602380Y-44378216D02*
X202397170Y-43814397D01*
X189688526Y-43544746D02*
G75*
G02*
X189748288Y-43416582I93963J34201D01*
G01*
X191236075Y-47504240D02*
G75*
G02*
X191107903Y-47444473I-34202J93970D01*
G01*
X196604921Y-45550144D02*
G75*
G02*
X197120581Y-45505026I342029J-939774D01*
G01*
X199176587Y-45731510D02*
G75*
G02*
X198660917Y-45776629I-342084J940321D01*
G01*
X201054827Y-40418719D02*
G75*
G02*
X201183002Y-40478483I34203J-93975D01*
G01*
X202602380Y-44378216D02*
G75*
G02*
X202542612Y-44506384I-93972J-34198D01*
G01*
%TO.C,S18*%
X224820709Y-82569260D02*
X225400266Y-82413970D01*
X224905291Y-83271288D02*
X224750001Y-82691734D01*
X225824097Y-86700327D02*
X225668802Y-86120771D01*
X225946572Y-86771036D02*
X226526127Y-86615745D01*
X229979314Y-85690466D02*
X231465292Y-85292300D01*
X231982925Y-85292299D02*
X233493734Y-85697120D01*
X234011371Y-85697113D02*
X235497351Y-85298953D01*
X235765950Y-80723528D02*
X236345504Y-80568239D01*
X236623271Y-81218501D02*
X236467977Y-80638945D01*
X236891814Y-84925308D02*
X237471370Y-84770017D01*
X237542076Y-84647542D02*
X237386787Y-84067986D01*
X224750001Y-82691734D02*
G75*
G02*
X224820709Y-82569261I96590J25883D01*
G01*
X225946572Y-86771036D02*
G75*
G02*
X225824098Y-86700327I-25882J96593D01*
G01*
X231465292Y-85292300D02*
G75*
G02*
X231982925Y-85292299I258819J-965913D01*
G01*
X234011371Y-85697113D02*
G75*
G02*
X233493734Y-85697120I-258831J966596D01*
G01*
X236345504Y-80568239D02*
G75*
G02*
X236467977Y-80638945I25883J-96591D01*
G01*
X237542076Y-84647542D02*
G75*
G02*
X237471370Y-84770017I-96595J-25882D01*
G01*
%TO.C,DA4*%
X233687135Y-102426065D02*
X234049481Y-103778368D01*
X234049481Y-103778368D02*
X236947259Y-103001903D01*
X234109785Y-103037513D02*
X234496160Y-102933979D01*
X234496160Y-102933979D02*
X234353810Y-102402723D01*
X234496160Y-102933979D02*
X234638510Y-103465241D01*
X234496160Y-102933979D02*
X235179244Y-103165060D01*
X234972189Y-102392317D02*
X234496160Y-102933979D01*
X235075714Y-102778689D02*
X235558680Y-102649279D01*
X235179244Y-103165060D02*
X234972189Y-102392317D01*
X235455150Y-102262908D02*
X236138234Y-102493989D01*
X235558680Y-102649279D02*
X235075714Y-102778689D01*
X235662205Y-103035651D02*
X235455150Y-102262908D01*
X236138234Y-102493989D02*
X235662205Y-103035651D01*
X236138234Y-102493989D02*
X235995884Y-101962727D01*
X236138234Y-102493989D02*
X236280584Y-103025245D01*
X236524609Y-102390455D02*
X236138234Y-102493989D01*
X236584913Y-101649600D02*
X233687135Y-102426065D01*
X236947259Y-103001903D02*
X236584913Y-101649600D01*
%TO.C,DA1*%
X71013195Y-103001909D02*
X73910975Y-103778373D01*
X71375541Y-101649601D02*
X71013195Y-103001909D01*
X71435848Y-102390457D02*
X71822223Y-102493992D01*
X71822223Y-102493992D02*
X71679870Y-103025250D01*
X71822223Y-102493992D02*
X71964573Y-101962734D01*
X71822223Y-102493992D02*
X72298250Y-103035653D01*
X72298250Y-103035653D02*
X72505308Y-102262911D01*
X72401776Y-102649280D02*
X72884740Y-102778694D01*
X72505308Y-102262911D02*
X71822223Y-102493992D01*
X72781208Y-103165063D02*
X72988266Y-102392321D01*
X72884740Y-102778694D02*
X72401776Y-102649280D01*
X72988266Y-102392321D02*
X73464293Y-102933982D01*
X73464293Y-102933982D02*
X72781208Y-103165063D01*
X73464293Y-102933982D02*
X73321943Y-103465240D01*
X73464293Y-102933982D02*
X73606646Y-102402724D01*
X73850668Y-103037517D02*
X73464293Y-102933982D01*
X73910975Y-103778373D02*
X74273321Y-102426065D01*
X74273321Y-102426065D02*
X71375541Y-101649601D01*
%TO.C,S22*%
X196246665Y-61270730D02*
X196810481Y-61065518D01*
X196392109Y-61962717D02*
X196186904Y-61398898D01*
X197606282Y-65298625D02*
X197401065Y-64734810D01*
X197734453Y-65358392D02*
X198298270Y-65153180D01*
X201657670Y-63930456D02*
X203103299Y-63404296D01*
X203618959Y-63359178D02*
X205159295Y-63630782D01*
X205674965Y-63585662D02*
X207120587Y-63059506D01*
X206989391Y-58478081D02*
X207553205Y-58272871D01*
X207886588Y-58896449D02*
X207681380Y-58332635D01*
X208477176Y-62565745D02*
X209040990Y-62360536D01*
X209100758Y-62232368D02*
X208895548Y-61668549D01*
X196186904Y-61398898D02*
G75*
G02*
X196246666Y-61270734I93963J34201D01*
G01*
X197734453Y-65358392D02*
G75*
G02*
X197606281Y-65298625I-34202J93970D01*
G01*
X203103299Y-63404296D02*
G75*
G02*
X203618959Y-63359178I342029J-939774D01*
G01*
X205674965Y-63585662D02*
G75*
G02*
X205159295Y-63630781I-342084J940321D01*
G01*
X207553205Y-58272871D02*
G75*
G02*
X207681380Y-58332635I34203J-93975D01*
G01*
X209100758Y-62232368D02*
G75*
G02*
X209040990Y-62360536I-93972J-34198D01*
G01*
%TO.C,S19*%
X219903138Y-64216679D02*
X220482695Y-64061389D01*
X219987720Y-64918707D02*
X219832430Y-64339153D01*
X220906526Y-68347746D02*
X220751231Y-67768190D01*
X221029001Y-68418455D02*
X221608556Y-68263164D01*
X225061743Y-67337885D02*
X226547721Y-66939719D01*
X227065354Y-66939718D02*
X228576163Y-67344539D01*
X229093800Y-67344532D02*
X230579780Y-66946372D01*
X230848379Y-62370947D02*
X231427933Y-62215658D01*
X231705700Y-62865920D02*
X231550406Y-62286364D01*
X231974243Y-66572727D02*
X232553799Y-66417436D01*
X232624505Y-66294961D02*
X232469216Y-65715405D01*
X219832430Y-64339153D02*
G75*
G02*
X219903138Y-64216680I96590J25883D01*
G01*
X221029001Y-68418455D02*
G75*
G02*
X220906527Y-68347746I-25882J96593D01*
G01*
X226547721Y-66939719D02*
G75*
G02*
X227065354Y-66939718I258819J-965913D01*
G01*
X229093800Y-67344532D02*
G75*
G02*
X228576163Y-67344539I-258831J966596D01*
G01*
X231427933Y-62215658D02*
G75*
G02*
X231550406Y-62286364I25883J-96591D01*
G01*
X232624505Y-66294961D02*
G75*
G02*
X232553799Y-66417436I-96595J-25882D01*
G01*
%TO.C,S9*%
X107408631Y-44007172D02*
X107613838Y-43443357D01*
X107468400Y-44135345D02*
X108032215Y-44340554D01*
X108622801Y-40671262D02*
X108828014Y-40107441D01*
X108956182Y-40047677D02*
X109519999Y-40252894D01*
X111391617Y-45563275D02*
X112837234Y-46089440D01*
X113261257Y-46386345D02*
X114266646Y-47584519D01*
X114690672Y-47881418D02*
X116136288Y-48407587D01*
X117492883Y-48901343D02*
X118056697Y-49106555D01*
X118184864Y-49046785D02*
X118390080Y-48482972D01*
X118980669Y-44813680D02*
X119544483Y-45018889D01*
X119399041Y-45710879D02*
X119604250Y-45147067D01*
X107468400Y-44135345D02*
G75*
G02*
X107408629Y-44007171I34201J93972D01*
G01*
X108828014Y-40107441D02*
G75*
G02*
X108956183Y-40047676I93970J-34208D01*
G01*
X112837234Y-46089440D02*
G75*
G02*
X113261257Y-46386345I-342012J-939677D01*
G01*
X114690672Y-47881418D02*
G75*
G02*
X114266645Y-47584520I342359J940197D01*
G01*
X118184864Y-49046785D02*
G75*
G02*
X118056697Y-49106555I-93971J34203D01*
G01*
X119544483Y-45018889D02*
G75*
G02*
X119604250Y-45147067I-34196J-93968D01*
G01*
%TO.C,S27*%
X167918336Y-96295680D02*
X168472663Y-96066068D01*
X168093824Y-96980665D02*
X167864213Y-96426339D01*
X169452352Y-100260439D02*
X169222742Y-99706105D01*
X169583011Y-100314555D02*
X170137338Y-100084945D01*
X173440205Y-98716851D02*
X174861509Y-98128134D01*
X175374707Y-98060562D02*
X176925428Y-98264723D01*
X177438638Y-98197161D02*
X178859932Y-97608440D01*
X178529021Y-93037099D02*
X179083349Y-92807492D01*
X179443614Y-93415934D02*
X179214006Y-92861609D01*
X180193693Y-97055977D02*
X180748022Y-96826368D01*
X180802142Y-96695712D02*
X180572532Y-96141384D01*
X167864213Y-96426339D02*
G75*
G02*
X167918335Y-96295677I92390J38271D01*
G01*
X169583011Y-100314555D02*
G75*
G02*
X169452353Y-100260439I-38271J92387D01*
G01*
X174861509Y-98128134D02*
G75*
G02*
X175374707Y-98060562I382720J-924087D01*
G01*
X177438638Y-98197161D02*
G75*
G02*
X176925428Y-98264723I-382742J924369D01*
G01*
X179083349Y-92807492D02*
G75*
G02*
X179214006Y-92861609I38269J-92389D01*
G01*
X180802142Y-96695712D02*
G75*
G02*
X180748022Y-96826368I-92389J-38268D01*
G01*
%TO.C,S30*%
X164464671Y-132224549D02*
X164907042Y-131819190D01*
X164863858Y-132808196D02*
X164458504Y-132365830D01*
X167262203Y-135425530D02*
X166856849Y-134983163D01*
X167403490Y-135431699D02*
X167845866Y-135026342D01*
X170481624Y-132611111D02*
X171615852Y-131571785D01*
X172074998Y-131332761D02*
X173602025Y-130994229D01*
X173320959Y-125533412D02*
X173763323Y-125128059D01*
X174061176Y-130755216D02*
X175195404Y-129715887D01*
X174309968Y-125576595D02*
X173904613Y-125134224D01*
X176259775Y-128740568D02*
X176702140Y-128335214D01*
X176708317Y-128193928D02*
X176302957Y-127751563D01*
X164458504Y-132365830D02*
G75*
G02*
X164464668Y-132224546I73729J67560D01*
G01*
X167403490Y-135431699D02*
G75*
G02*
X167262204Y-135425529I-67558J73728D01*
G01*
X171615852Y-131571785D02*
G75*
G02*
X172074998Y-131332761I675640J-737349D01*
G01*
X173763323Y-125128059D02*
G75*
G02*
X173904613Y-125134224I67562J-73732D01*
G01*
X174061176Y-130755216D02*
G75*
G02*
X173602025Y-130994229I-675796J737696D01*
G01*
X176708317Y-128193928D02*
G75*
G02*
X176702140Y-128335213I-73731J-67554D01*
G01*
%TO.C,S21*%
X202745051Y-79124896D02*
X203308867Y-78919684D01*
X202890495Y-79816883D02*
X202685290Y-79253064D01*
X204104668Y-83152791D02*
X203899451Y-82588976D01*
X204232839Y-83212558D02*
X204796656Y-83007346D01*
X208156056Y-81784622D02*
X209601685Y-81258462D01*
X210117345Y-81213344D02*
X211657681Y-81484948D01*
X212173351Y-81439828D02*
X213618973Y-80913672D01*
X213487777Y-76332247D02*
X214051591Y-76127037D01*
X214384974Y-76750615D02*
X214179766Y-76186801D01*
X214975562Y-80419911D02*
X215539376Y-80214702D01*
X215599144Y-80086534D02*
X215393934Y-79522715D01*
X202685290Y-79253064D02*
G75*
G02*
X202745052Y-79124900I93963J34201D01*
G01*
X204232839Y-83212558D02*
G75*
G02*
X204104667Y-83152791I-34202J93970D01*
G01*
X209601685Y-81258462D02*
G75*
G02*
X210117345Y-81213344I342029J-939774D01*
G01*
X212173351Y-81439828D02*
G75*
G02*
X211657681Y-81484947I-342084J940321D01*
G01*
X214051591Y-76127037D02*
G75*
G02*
X214179766Y-76186801I34203J-93975D01*
G01*
X215599144Y-80086534D02*
G75*
G02*
X215539376Y-80214702I-93972J-34198D01*
G01*
%TO.C,S2*%
X53473770Y-74756399D02*
X53577954Y-74165514D01*
X53554890Y-74872243D02*
X54145777Y-74976434D01*
X54090222Y-71260330D02*
X54194407Y-70669440D01*
X54310258Y-70588326D02*
X54901140Y-70692519D01*
X57666460Y-75597224D02*
X59181484Y-75864366D01*
X59650624Y-76083128D02*
X60848796Y-77088515D01*
X61317934Y-77307276D02*
X62832960Y-77574419D01*
X64254685Y-77825106D02*
X64845566Y-77929292D01*
X64961408Y-77848178D02*
X65065601Y-77257289D01*
X65010046Y-73541189D02*
X65600935Y-73645378D01*
X65577870Y-74352109D02*
X65682051Y-73761225D01*
X53554890Y-74872243D02*
G75*
G02*
X53473772Y-74756399I17363J98481D01*
G01*
X54194407Y-70669440D02*
G75*
G02*
X54310258Y-70588323I98486J-17370D01*
G01*
X59181484Y-75864366D02*
G75*
G02*
X59650624Y-76083128I-173679J-984881D01*
G01*
X61317934Y-77307276D02*
G75*
G02*
X60848796Y-77088515I173882J985312D01*
G01*
X64961408Y-77848178D02*
G75*
G02*
X64845566Y-77929293I-98480J17366D01*
G01*
X65600935Y-73645378D02*
G75*
G02*
X65682051Y-73761225I-17352J-98472D01*
G01*
%TO.C,S1*%
X50174445Y-93467752D02*
X50278629Y-92876867D01*
X50255565Y-93583596D02*
X50846452Y-93687787D01*
X50790897Y-89971683D02*
X50895082Y-89380793D01*
X51010933Y-89299679D02*
X51601815Y-89403872D01*
X54367135Y-94308577D02*
X55882159Y-94575719D01*
X56351299Y-94794481D02*
X57549471Y-95799868D01*
X58018609Y-96018629D02*
X59533635Y-96285772D01*
X60955360Y-96536459D02*
X61546241Y-96640645D01*
X61662083Y-96559531D02*
X61766276Y-95968642D01*
X61710721Y-92252542D02*
X62301610Y-92356731D01*
X62278545Y-93063462D02*
X62382726Y-92472578D01*
X50255565Y-93583596D02*
G75*
G02*
X50174447Y-93467752I17363J98481D01*
G01*
X50895082Y-89380793D02*
G75*
G02*
X51010933Y-89299676I98486J-17370D01*
G01*
X55882159Y-94575719D02*
G75*
G02*
X56351299Y-94794481I-173679J-984881D01*
G01*
X58018609Y-96018629D02*
G75*
G02*
X57549471Y-95799868I173882J985312D01*
G01*
X61662083Y-96559531D02*
G75*
G02*
X61546241Y-96640646I-98480J17366D01*
G01*
X62301610Y-92356731D02*
G75*
G02*
X62382726Y-92472578I-17352J-98472D01*
G01*
%TO.C,DC1*%
X62482801Y-83122903D02*
X63861547Y-83366005D01*
X62908488Y-82436389D02*
X63406600Y-81914963D01*
X63003751Y-80168477D02*
X62482801Y-83122903D01*
X63168965Y-80959169D02*
X63458698Y-81619519D01*
X63302406Y-82505849D02*
X63215590Y-82998251D01*
X63389235Y-82013444D02*
X63458698Y-81619519D01*
X63406600Y-81914963D02*
X62864959Y-81819456D01*
X63406600Y-81914963D02*
X63696333Y-82575313D01*
X63406600Y-81914963D02*
X63948244Y-82010471D01*
X63458698Y-81619519D02*
X62917054Y-81524011D01*
X63458698Y-81619519D02*
X63956810Y-81098093D01*
X63458698Y-81619519D02*
X64000339Y-81715026D01*
X63476063Y-81521038D02*
X63406600Y-81914963D01*
X63562892Y-81028633D02*
X63649708Y-80536231D01*
X63696333Y-82575313D02*
X62908488Y-82436389D01*
X63861547Y-83366005D02*
X64382497Y-80411579D01*
X63956810Y-81098093D02*
X63168965Y-80959169D01*
X64382497Y-80411579D02*
X63003751Y-80168477D01*
%TO.C,S8*%
X100910251Y-61861336D02*
X101115458Y-61297521D01*
X100970020Y-61989509D02*
X101533835Y-62194718D01*
X102124421Y-58525426D02*
X102329634Y-57961605D01*
X102457802Y-57901841D02*
X103021619Y-58107058D01*
X104893237Y-63417439D02*
X106338854Y-63943604D01*
X106762877Y-64240509D02*
X107768266Y-65438683D01*
X108192292Y-65735582D02*
X109637908Y-66261751D01*
X110994503Y-66755507D02*
X111558317Y-66960719D01*
X111686484Y-66900949D02*
X111891700Y-66337136D01*
X112482289Y-62667844D02*
X113046103Y-62873053D01*
X112900661Y-63565043D02*
X113105870Y-63001231D01*
X100970020Y-61989509D02*
G75*
G02*
X100910249Y-61861335I34201J93972D01*
G01*
X102329634Y-57961605D02*
G75*
G02*
X102457803Y-57901840I93970J-34208D01*
G01*
X106338854Y-63943604D02*
G75*
G02*
X106762877Y-64240509I-342012J-939677D01*
G01*
X108192292Y-65735582D02*
G75*
G02*
X107768265Y-65438684I342359J940197D01*
G01*
X111686484Y-66900949D02*
G75*
G02*
X111558317Y-66960719I-93971J34203D01*
G01*
X113046103Y-62873053D02*
G75*
G02*
X113105870Y-63001231I-34196J-93968D01*
G01*
%TO.C,DC12*%
X162040223Y-86742979D02*
X163188277Y-89514620D01*
X162604404Y-87321087D02*
X163343507Y-87014939D01*
X162973958Y-87168012D02*
X162782613Y-86706078D01*
X163165300Y-87629955D02*
X163318375Y-87999507D01*
X163178431Y-88706907D02*
X163917534Y-88400759D01*
X163188277Y-89514620D02*
X164481715Y-88978867D01*
X163203563Y-87722339D02*
X162604404Y-87321087D01*
X163203563Y-87722339D02*
X162695431Y-87932817D01*
X163203563Y-87722339D02*
X163711703Y-87511864D01*
X163318375Y-87999507D02*
X162810235Y-88209982D01*
X163318375Y-87999507D02*
X163178431Y-88706907D01*
X163318375Y-87999507D02*
X163826507Y-87789029D01*
X163333661Y-86207226D02*
X162040223Y-86742979D01*
X163343507Y-87014939D02*
X163203563Y-87722339D01*
X163356638Y-88091891D02*
X163203563Y-87722339D01*
X163547980Y-88553834D02*
X163739325Y-89015768D01*
X163917534Y-88400759D02*
X163318375Y-87999507D01*
X164481715Y-88978867D02*
X163333661Y-86207226D01*
%TO.C,DC10*%
X190790838Y-51470718D02*
X191816897Y-54289799D01*
X191329270Y-52072887D02*
X192081013Y-51799263D01*
X191705135Y-51936078D02*
X191534125Y-51466230D01*
X191816897Y-54289799D02*
X193132468Y-53810976D01*
X191842293Y-53482431D02*
X192594036Y-53208807D01*
X191876149Y-52405924D02*
X192012957Y-52781801D01*
X191910349Y-52499893D02*
X191329270Y-52072887D01*
X191910349Y-52499893D02*
X191393518Y-52688005D01*
X191910349Y-52499893D02*
X192427183Y-52311781D01*
X192012957Y-52781801D02*
X191496123Y-52969913D01*
X192012957Y-52781801D02*
X191842293Y-53482431D01*
X192012957Y-52781801D02*
X192529788Y-52593689D01*
X192047157Y-52875770D02*
X191910349Y-52499893D01*
X192081013Y-51799263D02*
X191910349Y-52499893D01*
X192106409Y-50991895D02*
X190790838Y-51470718D01*
X192218171Y-53345616D02*
X192389181Y-53815464D01*
X192594036Y-53208807D02*
X192012957Y-52781801D01*
X193132468Y-53810976D02*
X192106409Y-50991895D01*
%TO.C,S25*%
X180624720Y-77322224D02*
X181179047Y-77092612D01*
X180800208Y-78007209D02*
X180570597Y-77452883D01*
X182158736Y-81286983D02*
X181929126Y-80732649D01*
X182289395Y-81341099D02*
X182843722Y-81111489D01*
X186146589Y-79743395D02*
X187567893Y-79154678D01*
X188081091Y-79087106D02*
X189631812Y-79291267D01*
X190145022Y-79223705D02*
X191566316Y-78634984D01*
X191235405Y-74063643D02*
X191789733Y-73834036D01*
X192149998Y-74442478D02*
X191920390Y-73888153D01*
X192900077Y-78082521D02*
X193454406Y-77852912D01*
X193508526Y-77722256D02*
X193278916Y-77167928D01*
X180570597Y-77452883D02*
G75*
G02*
X180624719Y-77322221I92390J38271D01*
G01*
X182289395Y-81341099D02*
G75*
G02*
X182158737Y-81286983I-38271J92387D01*
G01*
X187567893Y-79154678D02*
G75*
G02*
X188081091Y-79087106I382720J-924087D01*
G01*
X190145022Y-79223705D02*
G75*
G02*
X189631812Y-79291267I-382742J924369D01*
G01*
X191789733Y-73834036D02*
G75*
G02*
X191920390Y-73888153I38269J-92389D01*
G01*
X193508526Y-77722256D02*
G75*
G02*
X193454406Y-77852912I-92389J-38268D01*
G01*
%TO.C,DC3*%
X101831209Y-89519296D02*
X103146784Y-89998125D01*
X102369640Y-88917135D02*
X102950724Y-88490126D01*
X102745505Y-89053942D02*
X102574503Y-89523792D01*
X102857268Y-86700221D02*
X101831209Y-89519296D01*
X102882665Y-87507595D02*
X103053328Y-88208220D01*
X102916520Y-88584096D02*
X103053328Y-88208220D01*
X102950724Y-88490126D02*
X102433893Y-88302015D01*
X102950724Y-88490126D02*
X103121387Y-89190751D01*
X102950724Y-88490126D02*
X103467552Y-88678235D01*
X103053328Y-88208220D02*
X102536500Y-88020111D01*
X103053328Y-88208220D02*
X103570159Y-88396331D01*
X103053328Y-88208220D02*
X103634412Y-87781211D01*
X103087532Y-88114250D02*
X102950724Y-88490126D01*
X103121387Y-89190751D02*
X102369640Y-88917135D01*
X103146784Y-89998125D02*
X104172843Y-87179050D01*
X103258547Y-87644404D02*
X103429549Y-87174554D01*
X103634412Y-87781211D02*
X102882665Y-87507595D01*
X104172843Y-87179050D02*
X102857268Y-86700221D01*
%TO.C,DC9*%
X203787608Y-87179039D02*
X204813667Y-89998120D01*
X204326040Y-87781208D02*
X205077783Y-87507584D01*
X204701905Y-87644399D02*
X204530895Y-87174551D01*
X204813667Y-89998120D02*
X206129238Y-89519297D01*
X204839063Y-89190752D02*
X205590806Y-88917128D01*
X204872919Y-88114245D02*
X205009727Y-88490122D01*
X204907119Y-88208214D02*
X204326040Y-87781208D01*
X204907119Y-88208214D02*
X204390288Y-88396326D01*
X204907119Y-88208214D02*
X205423953Y-88020102D01*
X205009727Y-88490122D02*
X204492893Y-88678234D01*
X205009727Y-88490122D02*
X204839063Y-89190752D01*
X205009727Y-88490122D02*
X205526558Y-88302010D01*
X205043927Y-88584091D02*
X204907119Y-88208214D01*
X205077783Y-87507584D02*
X204907119Y-88208214D01*
X205103179Y-86700216D02*
X203787608Y-87179039D01*
X205214941Y-89053937D02*
X205385951Y-89523785D01*
X205590806Y-88917128D02*
X205009727Y-88490122D01*
X206129238Y-89519297D02*
X205103179Y-86700216D01*
%TO.C,DC5*%
X130772352Y-70005407D02*
X132065785Y-70541164D01*
X131336533Y-69427302D02*
X131935687Y-69026049D01*
X131706080Y-69580375D02*
X131514741Y-70042317D01*
X131897421Y-69118436D02*
X132050501Y-68748883D01*
X131910558Y-68041483D02*
X132050501Y-68748883D01*
X131920403Y-67233768D02*
X130772352Y-70005407D01*
X131935687Y-69026049D02*
X131427559Y-68815572D01*
X131935687Y-69026049D02*
X132075630Y-69733449D01*
X131935687Y-69026049D02*
X132443823Y-69236523D01*
X132050501Y-68748883D02*
X131542365Y-68538409D01*
X132050501Y-68748883D02*
X132558629Y-68959360D01*
X132050501Y-68748883D02*
X132649655Y-68347630D01*
X132065785Y-70541164D02*
X133213836Y-67769525D01*
X132075630Y-69733449D02*
X131336533Y-69427302D01*
X132088767Y-68656496D02*
X131935687Y-69026049D01*
X132280108Y-68194557D02*
X132471447Y-67732615D01*
X132649655Y-68347630D02*
X131910558Y-68041483D01*
X133213836Y-67769525D02*
X131920403Y-67233768D01*
%TO.C,S13*%
X129223111Y-96414486D02*
X129452717Y-95860160D01*
X129277234Y-96545145D02*
X129831560Y-96774753D01*
X130581636Y-93134713D02*
X130811247Y-92580382D01*
X130941900Y-92526263D02*
X131496229Y-92755880D01*
X133134429Y-98142846D02*
X134555717Y-98731564D01*
X134966390Y-99046685D02*
X135918556Y-100287570D01*
X136329230Y-100602683D02*
X137750522Y-101191404D01*
X139084283Y-101743864D02*
X139638610Y-101973479D01*
X139769269Y-101919366D02*
X139998876Y-101365032D01*
X140748957Y-97724993D02*
X141303279Y-97954597D01*
X141127795Y-98639580D02*
X141357402Y-98085260D01*
X129277234Y-96545145D02*
G75*
G02*
X129223112Y-96414487I38266J92389D01*
G01*
X130811247Y-92580382D02*
G75*
G02*
X130941900Y-92526263I92389J-38274D01*
G01*
X134555717Y-98731564D02*
G75*
G02*
X134966390Y-99046685I-382695J-923896D01*
G01*
X136329230Y-100602683D02*
G75*
G02*
X135918555Y-100287570I383047J924376D01*
G01*
X139769269Y-101919366D02*
G75*
G02*
X139638610Y-101973479I-92383J38265D01*
G01*
X141303279Y-97954597D02*
G75*
G02*
X141357401Y-98085260I-38257J-92387D01*
G01*
%TO.C,S6*%
X82263934Y-47394004D02*
X82419224Y-46814446D01*
X82334647Y-47516475D02*
X82914205Y-47671770D01*
X83182741Y-43964965D02*
X83338036Y-43385412D01*
X83460503Y-43314703D02*
X84040063Y-43469994D01*
X86367386Y-48597046D02*
X87853364Y-48995208D01*
X88301650Y-49254032D02*
X89407639Y-50360020D01*
X89855925Y-50618835D02*
X91341903Y-51017017D01*
X92736373Y-51390652D02*
X93315922Y-51545941D01*
X93438395Y-51475229D02*
X93593687Y-50895674D01*
X93862230Y-47188872D02*
X94441785Y-47344162D01*
X94357200Y-48046193D02*
X94512493Y-47466641D01*
X82334647Y-47516475D02*
G75*
G02*
X82263937Y-47394005I25881J96591D01*
G01*
X83338036Y-43385412D02*
G75*
G02*
X83460504Y-43314700I96591J-25880D01*
G01*
X87853364Y-48995208D02*
G75*
G02*
X88301649Y-49254033I-258784J-965844D01*
G01*
X89855925Y-50618835D02*
G75*
G02*
X89407638Y-50360021I259096J966415D01*
G01*
X93438395Y-51475229D02*
G75*
G02*
X93315922Y-51545941I-96594J25883D01*
G01*
X94441785Y-47344162D02*
G75*
G02*
X94512493Y-47466641I-25865J-96582D01*
G01*
%TO.C,S15*%
X247249139Y-91010100D02*
X247840023Y-90905912D01*
X247272213Y-91716832D02*
X247168022Y-91125940D01*
X247888664Y-95212902D02*
X247784470Y-94622017D01*
X248004511Y-95294017D02*
X248595395Y-95189827D01*
X252116082Y-94569035D02*
X253631115Y-94301897D01*
X254146774Y-94347007D02*
X255616551Y-94881968D01*
X256132219Y-94927076D02*
X257647246Y-94659942D01*
X258313596Y-90125338D02*
X258904479Y-90021151D01*
X259068968Y-94409252D02*
X259659850Y-94305062D01*
X259124518Y-90693146D02*
X259020321Y-90102267D01*
X259740960Y-94189221D02*
X259636777Y-93598333D01*
X247168022Y-91125940D02*
G75*
G02*
X247249139Y-91010103I98483J17356D01*
G01*
X248004511Y-95294017D02*
G75*
G02*
X247888664Y-95212902I-17366J98481D01*
G01*
X253631115Y-94301897D02*
G75*
G02*
X254146774Y-94347007I173644J-984895D01*
G01*
X256132219Y-94927076D02*
G75*
G02*
X255616551Y-94881968I-173609J985406D01*
G01*
X258904479Y-90021151D02*
G75*
G02*
X259020321Y-90102267I17366J-98475D01*
G01*
X259740960Y-94189221D02*
G75*
G02*
X259659850Y-94305063I-98484J-17360D01*
G01*
%TO.C,SW3*%
X137014729Y-139408392D02*
X137284962Y-139113481D01*
X137284962Y-139113481D02*
X136879460Y-138741906D01*
X137284962Y-139113481D02*
X137395412Y-138400878D01*
X137284962Y-139113481D02*
X137690468Y-139485052D01*
X137395412Y-138400878D02*
X137985229Y-138941348D01*
X137690320Y-138671118D02*
X138028113Y-138302478D01*
X137985229Y-138941348D02*
X137284962Y-139113481D01*
%TO.C,DA3*%
X125352292Y-114970698D02*
X128123931Y-116118749D01*
X125851139Y-114419654D02*
X126220698Y-114572725D01*
X125888049Y-113677265D02*
X125352292Y-114970698D01*
X126220698Y-114572725D02*
X126010218Y-115080856D01*
X126220698Y-114572725D02*
X126431168Y-114064593D01*
X126220698Y-114572725D02*
X126621949Y-115171892D01*
X126621949Y-115171892D02*
X126928097Y-114432784D01*
X126775020Y-114802334D02*
X127236960Y-114993680D01*
X126928097Y-114432784D02*
X126220698Y-114572725D01*
X127083883Y-115363230D02*
X127390031Y-114624122D01*
X127236960Y-114993680D02*
X126775020Y-114802334D01*
X127390031Y-114624122D02*
X127791282Y-115223289D01*
X127791282Y-115223289D02*
X127083883Y-115363230D01*
X127791282Y-115223289D02*
X127580812Y-115731421D01*
X127791282Y-115223289D02*
X128001762Y-114715158D01*
X128123931Y-116118749D02*
X128659688Y-114825316D01*
X128160841Y-115376360D02*
X127791282Y-115223289D01*
X128659688Y-114825316D02*
X125888049Y-113677265D01*
%TO.C,S7*%
X94411849Y-79715486D02*
X94617056Y-79151671D01*
X94471618Y-79843659D02*
X95035433Y-80048868D01*
X95626019Y-76379576D02*
X95831232Y-75815755D01*
X95959400Y-75755991D02*
X96523217Y-75961208D01*
X98394835Y-81271589D02*
X99840452Y-81797754D01*
X100264475Y-82094659D02*
X101269864Y-83292833D01*
X101693890Y-83589732D02*
X103139506Y-84115901D01*
X104496101Y-84609657D02*
X105059915Y-84814869D01*
X105188082Y-84755099D02*
X105393298Y-84191286D01*
X105983887Y-80521994D02*
X106547701Y-80727203D01*
X106402259Y-81419193D02*
X106607468Y-80855381D01*
X94471618Y-79843659D02*
G75*
G02*
X94411847Y-79715485I34201J93972D01*
G01*
X95831232Y-75815755D02*
G75*
G02*
X95959401Y-75755990I93970J-34208D01*
G01*
X99840452Y-81797754D02*
G75*
G02*
X100264475Y-82094659I-342012J-939677D01*
G01*
X101693890Y-83589732D02*
G75*
G02*
X101269863Y-83292834I342359J940197D01*
G01*
X105188082Y-84755099D02*
G75*
G02*
X105059915Y-84814869I-93971J34203D01*
G01*
X106547701Y-80727203D02*
G75*
G02*
X106607468Y-80855381I-34196J-93968D01*
G01*
%TO.C,DC11*%
X174746609Y-67769528D02*
X175894663Y-70541169D01*
X175310790Y-68347636D02*
X176049893Y-68041488D01*
X175680344Y-68194561D02*
X175488999Y-67732627D01*
X175871686Y-68656504D02*
X176024761Y-69026056D01*
X175884817Y-69733456D02*
X176623920Y-69427308D01*
X175894663Y-70541169D02*
X177188101Y-70005416D01*
X175909949Y-68748888D02*
X175310790Y-68347636D01*
X175909949Y-68748888D02*
X175401817Y-68959366D01*
X175909949Y-68748888D02*
X176418089Y-68538413D01*
X176024761Y-69026056D02*
X175516621Y-69236531D01*
X176024761Y-69026056D02*
X175884817Y-69733456D01*
X176024761Y-69026056D02*
X176532893Y-68815578D01*
X176040047Y-67233775D02*
X174746609Y-67769528D01*
X176049893Y-68041488D02*
X175909949Y-68748888D01*
X176063024Y-69118440D02*
X175909949Y-68748888D01*
X176254366Y-69580383D02*
X176445711Y-70042317D01*
X176623920Y-69427308D02*
X176024761Y-69026056D01*
X177188101Y-70005416D02*
X176040047Y-67233775D01*
%TO.C,S29*%
X133288598Y-128635862D02*
X133693953Y-128193495D01*
X133294765Y-128777152D02*
X133737135Y-129182509D01*
X135686944Y-126018528D02*
X136092298Y-125576161D01*
X136233586Y-125569994D02*
X136675957Y-125975350D01*
X136372898Y-131597741D02*
X137507122Y-132637068D01*
X137785252Y-133073638D02*
X138255586Y-134565348D01*
X138533710Y-135001919D02*
X139667941Y-136041245D01*
X140732314Y-137016563D02*
X141174678Y-137421917D01*
X141315966Y-137415754D02*
X141721320Y-136973383D01*
X143671130Y-133809407D02*
X144113495Y-134214759D01*
X143714313Y-134798418D02*
X144119663Y-134356052D01*
X133294765Y-128777152D02*
G75*
G02*
X133288597Y-128635862I67561J73729D01*
G01*
X136092298Y-125576161D02*
G75*
G02*
X136233586Y-125569995I73727J-67561D01*
G01*
X137507122Y-132637068D02*
G75*
G02*
X137785252Y-133073638I-675628J-737309D01*
G01*
X138533710Y-135001919D02*
G75*
G02*
X138255586Y-134565348I676024J737549D01*
G01*
X141315966Y-137415754D02*
G75*
G02*
X141174678Y-137421917I-73725J67557D01*
G01*
X144113495Y-134214759D02*
G75*
G02*
X144119663Y-134356052I-67560J-73730D01*
G01*
%TO.C,SW2*%
X90415689Y-54159372D02*
X91188431Y-54366430D01*
X90543235Y-55228823D02*
X90646767Y-54842453D01*
X90646767Y-54842453D02*
X90115514Y-54700102D01*
X90646767Y-54842453D02*
X90415689Y-54159372D01*
X90646767Y-54842453D02*
X91178030Y-54984803D01*
X90802062Y-54262898D02*
X90931475Y-53779937D01*
X91188431Y-54366430D02*
X90646767Y-54842453D01*
%TO.C,S17*%
X236394288Y-52035192D02*
X236973845Y-51879902D01*
X236478870Y-52737220D02*
X236323580Y-52157666D01*
X237397676Y-56166259D02*
X237242381Y-55586703D01*
X237520151Y-56236968D02*
X238099706Y-56081677D01*
X241552893Y-55156398D02*
X243038871Y-54758232D01*
X243556504Y-54758231D02*
X245067313Y-55163052D01*
X245584950Y-55163045D02*
X247070930Y-54764885D01*
X247339529Y-50189460D02*
X247919083Y-50034171D01*
X248196850Y-50684433D02*
X248041556Y-50104877D01*
X248465393Y-54391240D02*
X249044949Y-54235949D01*
X249115655Y-54113474D02*
X248960366Y-53533918D01*
X236323580Y-52157666D02*
G75*
G02*
X236394288Y-52035193I96590J25883D01*
G01*
X237520151Y-56236968D02*
G75*
G02*
X237397677Y-56166259I-25882J96593D01*
G01*
X243038871Y-54758232D02*
G75*
G02*
X243556504Y-54758231I258819J-965913D01*
G01*
X245584950Y-55163045D02*
G75*
G02*
X245067313Y-55163052I-258831J966596D01*
G01*
X247919083Y-50034171D02*
G75*
G02*
X248041556Y-50104877I25883J-96591D01*
G01*
X249115655Y-54113474D02*
G75*
G02*
X249044949Y-54235949I-96595J-25882D01*
G01*
%TD*%
M02*
