M48
; DRILL file {KiCad 8.0.7} date 2025-01-13T21:54:59-0700
; FORMAT={-:-/ absolute / inch / decimal}
; #@! TF.CreationDate,2025-01-13T21:54:59-07:00
; #@! TF.GenerationSoftware,Kicad,Pcbnew,8.0.7
; #@! TF.FileFunction,Plated,1,2,PTH
FMAT,2
INCH
; #@! TA.AperFunction,Plated,PTH,ViaDrill
T1C0.0118
; #@! TA.AperFunction,Plated,PTH,ComponentDrill
T2C0.0118
; #@! TA.AperFunction,Plated,PTH,ComponentDrill
T3C0.0157
; #@! TA.AperFunction,Plated,PTH,ComponentDrill
T4C0.0197
; #@! TA.AperFunction,Plated,PTH,ComponentDrill
T5C0.0591
; #@! TA.AperFunction,Plated,PTH,ComponentDrill
T6C0.0866
; #@! TA.AperFunction,Plated,PTH,ComponentDrill
T7C0.1181
; #@! TA.AperFunction,Plated,PTH,ComponentDrill
T8C0.2008
%
G90
G05
T1
X2.9702Y-4.0422
X3.8405Y-4.0212
X3.9982Y-3.3453
X4.3548Y-2.68
X4.3798Y-3.1409
X4.4223Y-2.9452
X4.4481Y-2.6874
X4.5289Y-2.371
X4.5574Y-4.6972
X4.828Y-3.6845
X5.0946Y-2.9864
X5.3005Y-2.2237
X5.3523Y-2.1868
X5.4342Y-3.8459
X5.4557Y-3.2085
X5.6368Y-3.2045
X6.5019Y-1.6672
X7.0487Y-3.8134
X7.1932Y-4.3166
X7.3373Y-2.7612
X7.8772Y-3.9238
T2
X2.1304Y-4.0718
X2.153Y-3.9439
X2.2603Y-3.3351
X2.2829Y-3.2072
X2.5223Y-2.5297
X2.5559Y-2.4043
X2.6068Y-4.1052
X2.6359Y-3.9969
X2.7323Y-4.1389
X2.7614Y-4.0305
X2.9779Y-3.7319
X3.0115Y-3.6064
X3.1715Y-3.0093
X3.2051Y-2.8838
X3.3651Y-2.2868
X3.3987Y-2.1613
X3.4101Y-3.9252
X3.4485Y-3.8198
X3.5322Y-3.9696
X3.5706Y-3.8642
X3.8123Y-3.5856
X3.8567Y-3.4635
X4.0682Y-2.8827
X4.1126Y-2.7606
X4.324Y-2.1798
X4.3684Y-2.0577
X4.38Y-4.1993
X4.4297Y-4.0792
X4.6513Y-2.0711
X4.6513Y-1.8711
X4.6513Y-1.5711
X4.6513Y-1.6711
X4.6513Y-1.7711
X4.6662Y-3.5082
X4.7159Y-3.3881
X4.7498Y-4.5769
X4.7928Y-4.4732
X4.8698Y-4.6266
X4.9128Y-4.5229
X4.9525Y-2.8171
X5.0022Y-2.697
X5.1665Y-4.2551
X5.1799Y-5.5928
X5.2162Y-4.1351
X5.2677Y-5.4971
X5.4387Y-1.7711
X5.4387Y-1.8711
X5.4387Y-1.9711
X5.4387Y-2.0711
X5.4387Y-1.5711
X5.4527Y-3.5641
X5.5024Y-3.444
X6.2412Y-3.444
X6.2909Y-3.5641
X6.4759Y-5.4971
X6.5274Y-4.1351
X6.5637Y-5.5928
X6.5772Y-4.2551
X6.7414Y-2.697
X6.7911Y-2.8171
X6.8308Y-4.5229
X6.8738Y-4.6266
X6.8856Y-1.474
X6.9509Y-4.4732
X6.9938Y-4.5769
X7.0037Y-1.474
X7.0277Y-3.3881
X7.0628Y-1.474
X7.0774Y-3.5082
X7.3139Y-4.0792
X7.3637Y-4.1993
X7.3752Y-2.0577
X7.4196Y-2.1798
X7.631Y-2.7606
X7.6755Y-2.8827
X7.8869Y-3.4635
X7.9313Y-3.5856
X8.1731Y-3.8642
X8.2114Y-3.9696
X8.2952Y-3.8198
X8.3335Y-3.9252
X8.3449Y-2.1613
X8.3785Y-2.2868
X8.5385Y-2.8838
X8.5721Y-3.0093
X8.7321Y-3.6064
X8.7657Y-3.7319
X8.9823Y-4.0305
X9.0113Y-4.1389
X9.018Y-1.8913
X9.0354Y-1.956
X9.1078Y-3.9969
X9.1368Y-4.1052
X9.1877Y-2.4043
X9.2177Y-1.8378
X9.2214Y-2.5297
X9.235Y-1.9025
X9.4607Y-3.2072
X9.4833Y-3.3351
X9.5906Y-3.9439
X9.6132Y-4.0718
T3
X1.9123Y-2.7241
X1.9231Y-2.7726
X1.939Y-2.6822
X1.965Y-2.7993
X1.9876Y-2.6714
X2.0135Y-2.7886
X2.0295Y-2.6981
X2.0403Y-2.7466
X2.2853Y-4.293
X2.2961Y-4.3415
X2.312Y-4.2511
X2.338Y-4.3683
X2.3606Y-4.2403
X2.3865Y-4.3575
X2.4025Y-4.267
X2.4133Y-4.3156
X3.5788Y-2.1955
X3.581Y-2.2452
X3.6124Y-2.1589
X3.6176Y-2.2788
X3.662Y-2.1567
X3.6673Y-2.2766
X3.6987Y-2.1903
X3.7009Y-2.2399
X4.2954Y-1.4927
X4.2976Y-1.5424
X4.329Y-1.4561
X4.3343Y-1.576
X4.3787Y-1.4539
X4.3839Y-1.5738
X4.4154Y-1.4875
X4.4175Y-1.5372
X4.5337Y-5.2686
X4.5507Y-5.2218
X4.5547Y-5.3136
X4.5958Y-5.2008
X4.6014Y-5.3306
X4.6425Y-5.2178
X4.6465Y-5.3096
X4.6635Y-5.2629
X5.8068Y-1.4632
X5.8068Y-5.6073
X5.8259Y-1.4173
X5.8259Y-1.5091
X5.8259Y-5.5614
X5.8259Y-5.6533
X5.8718Y-1.3982
X5.8718Y-1.5282
X5.8718Y-5.5424
X5.8718Y-5.6723
X5.9177Y-1.4173
X5.9177Y-1.5091
X5.9177Y-5.5614
X5.9177Y-5.6533
X5.9368Y-1.4632
X5.9368Y-5.6073
X7.0801Y-5.2629
X7.0971Y-5.3096
X7.1011Y-5.2178
X7.1422Y-5.3306
X7.1479Y-5.2008
X7.1889Y-5.3136
X7.1929Y-5.2218
X7.2099Y-5.2686
X7.3261Y-1.5372
X7.3283Y-1.4875
X7.3597Y-1.5738
X7.3649Y-1.4539
X7.4094Y-1.576
X7.4146Y-1.4561
X7.446Y-1.5424
X7.4482Y-1.4927
X8.0428Y-2.2399
X8.0449Y-2.1903
X8.0763Y-2.2766
X8.0816Y-2.1567
X8.126Y-2.2788
X8.1312Y-2.1589
X8.1627Y-2.2452
X8.1648Y-2.1955
X9.3304Y-4.3156
X9.3411Y-4.267
X9.3571Y-4.3575
X9.3831Y-4.2403
X9.4056Y-4.3683
X9.4316Y-4.2511
X9.4476Y-4.3415
X9.4583Y-4.293
X9.7034Y-2.7466
X9.7141Y-2.6981
X9.7301Y-2.7886
X9.7561Y-2.6714
X9.7786Y-2.7993
X9.8046Y-2.6822
X9.8205Y-2.7726
X9.8313Y-2.7241
T6
X1.9763Y-2.7354
X2.3493Y-4.3043
X3.6398Y-2.2177
X4.3565Y-1.5149
X4.5986Y-5.2657
X5.8718Y-1.4632
X5.8718Y-5.6073
X7.145Y-5.2657
X7.3871Y-1.5149
X8.1038Y-2.2177
X9.3943Y-4.3043
X9.7673Y-2.7354
T7
X1.8932Y-3.6942
X2.0231Y-2.9575
X2.1574Y-3.7827
X2.2873Y-3.0461
X2.3188Y-2.1329
X2.5743Y-2.2441
X2.7745Y-3.335
X2.9681Y-2.6125
X3.03Y-3.4463
X3.1617Y-1.8899
X3.2236Y-2.7237
X3.4172Y-2.0012
X3.6443Y-3.1725
X3.8891Y-3.3056
X3.9001Y-2.4696
X4.1449Y-2.6027
X4.1559Y-1.7667
X4.2301Y-3.7792
X4.4008Y-1.8998
X4.4689Y-3.9229
X4.5163Y-3.0881
X4.7551Y-3.2318
X4.8026Y-2.397
X5.0166Y-3.8351
X5.0414Y-2.5407
X5.1828Y-5.1469
X5.2554Y-3.9788
X5.3028Y-3.144
X5.358Y-5.3635
X5.5416Y-3.2877
X6.2516Y-3.2224
X6.4099Y-5.2852
X6.5221Y-3.1551
X6.5379Y-3.9135
X6.641Y-5.1295
X6.7519Y-2.4754
X6.8083Y-3.8462
X7.0223Y-2.4081
X7.0381Y-3.1665
X7.3086Y-3.0992
X7.3244Y-3.8576
X7.3953Y-1.8367
X7.5948Y-3.7903
X7.6511Y-2.5396
X7.6684Y-1.7813
X7.907Y-3.2425
X7.9243Y-2.4842
X8.1801Y-3.1871
X8.3842Y-1.9429
X8.5778Y-2.6654
X8.6611Y-1.9115
X8.7714Y-3.388
X8.8547Y-2.634
X9.0483Y-3.3566
X9.227Y-2.1859
X9.5039Y-2.1545
X9.5189Y-2.993
X9.6488Y-3.7297
X9.7975Y-2.9859
X9.9274Y-3.7226
T8
X1.9547Y-3.9349
X2.0846Y-3.1982
X2.3591Y-2.378
X2.8148Y-3.5802
X3.0084Y-2.8576
X3.202Y-2.1351
X3.663Y-3.4202
X3.9189Y-2.7173
X4.1747Y-2.0144
X4.238Y-4.0275
X4.5243Y-3.3364
X4.8105Y-2.6453
X5.0245Y-4.0834
X5.1053Y-5.3829
X5.3108Y-3.3923
X6.4328Y-3.3923
X6.6383Y-5.3829
X6.7191Y-4.0834
X6.9331Y-2.6453
X7.2193Y-3.3364
X7.5056Y-4.0275
X7.5689Y-2.0144
X7.8248Y-2.7173
X8.0806Y-3.4202
X8.5416Y-2.1351
X8.7352Y-2.8576
X8.9288Y-3.5802
X9.3845Y-2.378
X9.6591Y-3.1982
X9.7889Y-3.9349
T4
G00X5.7635Y-4.9302
M15
G01X5.7832Y-4.9302
M16
G05
G00X5.862Y-4.9302
M15
G01X5.8817Y-4.9302
M16
G05
G00X5.9604Y-4.9302
M15
G01X5.9801Y-4.9302
M16
G05
T5
G00X5.6513Y-4.6192
M15
G01X5.6513Y-4.6506
M16
G05
G00X6.0923Y-4.6192
M15
G01X6.0923Y-4.6506
M16
G05
M30
