%TF.GenerationSoftware,KiCad,Pcbnew,8.0.7*%
%TF.CreationDate,2025-02-03T22:04:45-07:00*%
%TF.ProjectId,chuck,63687563-6b2e-46b6-9963-61645f706362,v1.2*%
%TF.SameCoordinates,Original*%
%TF.FileFunction,Profile,NP*%
%FSLAX46Y46*%
G04 Gerber Fmt 4.6, Leading zero omitted, Abs format (unit mm)*
G04 Created by KiCad (PCBNEW 8.0.7) date 2025-02-03 22:04:45*
%MOMM*%
%LPD*%
G01*
G04 APERTURE LIST*
%TA.AperFunction,Profile*%
%ADD10C,0.150000*%
%TD*%
G04 APERTURE END LIST*
D10*
X169645564Y-151747180D02*
G75*
G02*
X166732369Y-152792526I-2702264J2948780D01*
G01*
X198938318Y-31498211D02*
G75*
G02*
X200734107Y-32812411I-83618J-1998289D01*
G01*
X231257188Y-45140675D02*
X245825318Y-41237157D01*
X206729373Y-43946424D02*
X225451876Y-38929747D01*
X198938321Y-31481505D02*
X137304339Y-31481510D01*
X225451876Y-38929747D02*
G75*
G02*
X227901399Y-40343946I517724J-1931753D01*
G01*
X124438321Y-52981512D02*
X136438318Y-52981501D01*
X123438314Y-31981511D02*
G75*
G02*
X123572286Y-31481509I999986J11D01*
G01*
X54601834Y-42651375D02*
G75*
G02*
X57051327Y-41237134I1931866J-517625D01*
G01*
X260609202Y-86859179D02*
X263908529Y-105570527D01*
X254556448Y-66094771D02*
X254906163Y-66033103D01*
X42267541Y-86858558D02*
X45653561Y-67655427D01*
X137438315Y-51981506D02*
X137438316Y-31981512D01*
X123572293Y-31481513D02*
X103938314Y-31481501D01*
X40590436Y-107887438D02*
X95461663Y-117562719D01*
X137438315Y-51981506D02*
G75*
G02*
X136438318Y-52981515I-999915J-94D01*
G01*
X124438321Y-52981512D02*
G75*
G02*
X123438288Y-51981509I-21J1000012D01*
G01*
X165938318Y-40931506D02*
X144938322Y-40931498D01*
X45653561Y-67655427D02*
G75*
G02*
X47970484Y-66033063I1969639J-347273D01*
G01*
X166938318Y-72931510D02*
X166938325Y-41931507D01*
X74975271Y-40343960D02*
G75*
G02*
X77424760Y-38929776I1931829J-517640D01*
G01*
X245825318Y-41237157D02*
G75*
G02*
X248274853Y-42651354I517682J-1931843D01*
G01*
X206729373Y-43946424D02*
G75*
G02*
X204332382Y-42698604I-517573J1931924D01*
G01*
X143938319Y-41931510D02*
G75*
G02*
X144938322Y-40931419I1000081J10D01*
G01*
X48320187Y-66094773D02*
X54601831Y-42651377D01*
X77424768Y-38929747D02*
X96147258Y-43946423D01*
X74975271Y-40343960D02*
X74068935Y-43726464D01*
X248274805Y-42651366D02*
X254556448Y-66094771D01*
X102142561Y-32812424D02*
G75*
G02*
X103938317Y-31498213I1879339J-683976D01*
G01*
X47970475Y-66033116D02*
X48320187Y-66094773D01*
X74068935Y-43726464D02*
G75*
G02*
X71619457Y-45140641I-1931835J517664D01*
G01*
X144938321Y-73931499D02*
G75*
G02*
X143938301Y-72931506I-21J999999D01*
G01*
X143938319Y-41931510D02*
X143938312Y-72931506D01*
X263908529Y-105570527D02*
G75*
G02*
X262286211Y-107887422I-1969629J-347273D01*
G01*
X228807697Y-43726458D02*
X227901361Y-40343956D01*
X98544288Y-42698610D02*
X102142561Y-32812424D01*
X38968119Y-105570536D02*
X42267434Y-86859181D01*
X200734076Y-32812422D02*
X204332355Y-42698614D01*
X169645564Y-151747180D02*
X206411092Y-118057778D01*
X206411092Y-118057778D02*
G75*
G02*
X207414978Y-117562695I1351208J-1474522D01*
G01*
X123438314Y-31981511D02*
X123438321Y-51981509D01*
X103938314Y-31481501D02*
X103938317Y-31498215D01*
X198938318Y-31498211D02*
X198938321Y-31481505D01*
X136144265Y-152792503D02*
X166732370Y-152792512D01*
X40590436Y-107887438D02*
G75*
G02*
X38968144Y-105570540I347364J1969638D01*
G01*
X165938318Y-40931506D02*
G75*
G02*
X166938294Y-41931507I-18J-999994D01*
G01*
X95461663Y-117562719D02*
G75*
G02*
X96465535Y-118057792I-347263J-1969481D01*
G01*
X207414981Y-117562714D02*
X262286213Y-107887432D01*
X96465544Y-118057782D02*
X133231082Y-151747185D01*
X166938318Y-72931510D02*
G75*
G02*
X165938323Y-73931418I-999918J10D01*
G01*
X231257188Y-45140675D02*
G75*
G02*
X228807741Y-43726446I-517588J1931875D01*
G01*
X98544288Y-42698610D02*
G75*
G02*
X96147268Y-43946386I-1879288J683910D01*
G01*
X137304339Y-31481510D02*
G75*
G02*
X137438297Y-31981512I-865739J-499890D01*
G01*
X254906163Y-66033103D02*
G75*
G02*
X257223107Y-67655419I347337J-1969597D01*
G01*
X257223067Y-67655426D02*
X260609107Y-86858558D01*
X57051321Y-41237156D02*
X71619448Y-45140674D01*
X136144265Y-152792503D02*
G75*
G02*
X133231106Y-151747159I-210765J3994503D01*
G01*
X144938321Y-73931499D02*
X165938323Y-73931503D01*
M02*
