%TF.GenerationSoftware,KiCad,Pcbnew,8.0.7*%
%TF.CreationDate,2025-01-13T21:54:52-07:00*%
%TF.ProjectId,chuck,63687563-6b2e-46b6-9963-61645f706362,v1.1*%
%TF.SameCoordinates,Original*%
%TF.FileFunction,Paste,Bot*%
%TF.FilePolarity,Positive*%
%FSLAX46Y46*%
G04 Gerber Fmt 4.6, Leading zero omitted, Abs format (unit mm)*
G04 Created by KiCad (PCBNEW 8.0.7) date 2025-01-13 21:54:52*
%MOMM*%
%LPD*%
G01*
G04 APERTURE LIST*
G04 Aperture macros list*
%AMRoundRect*
0 Rectangle with rounded corners*
0 $1 Rounding radius*
0 $2 $3 $4 $5 $6 $7 $8 $9 X,Y pos of 4 corners*
0 Add a 4 corners polygon primitive as box body*
4,1,4,$2,$3,$4,$5,$6,$7,$8,$9,$2,$3,0*
0 Add four circle primitives for the rounded corners*
1,1,$1+$1,$2,$3*
1,1,$1+$1,$4,$5*
1,1,$1+$1,$6,$7*
1,1,$1+$1,$8,$9*
0 Add four rect primitives between the rounded corners*
20,1,$1+$1,$2,$3,$4,$5,0*
20,1,$1+$1,$4,$5,$6,$7,0*
20,1,$1+$1,$6,$7,$8,$9,0*
20,1,$1+$1,$8,$9,$2,$3,0*%
%AMRotRect*
0 Rectangle, with rotation*
0 The origin of the aperture is its center*
0 $1 length*
0 $2 width*
0 $3 Rotation angle, in degrees counterclockwise*
0 Add horizontal line*
21,1,$1,$2,0,0,$3*%
G04 Aperture macros list end*
%ADD10R,0.900000X0.900000*%
%ADD11R,0.900000X1.250000*%
%ADD12C,2.000000*%
%ADD13RotRect,1.550000X1.000000X15.000000*%
%ADD14R,2.000000X2.000000*%
%ADD15O,2.750000X1.800000*%
%ADD16R,2.750000X1.800000*%
%ADD17RoundRect,0.250000X1.328697X0.580571X-0.644657X1.298814X-1.328697X-0.580571X0.644657X-1.298814X0*%
%ADD18RoundRect,0.250000X0.755403X1.237686X-1.273041X0.694166X-0.755403X-1.237686X1.273041X-0.694166X0*%
%ADD19RoundRect,0.250000X1.273041X0.694166X-0.755403X1.237686X-1.273041X-0.694166X0.755403X-1.237686X0*%
%ADD20RoundRect,0.250000X1.449731X0.027908X-0.098551X1.446647X-1.449731X-0.027908X0.098551X-1.446647X0*%
%ADD21RoundRect,0.250000X0.644657X1.298814X-1.328697X0.580571X-0.644657X-1.298814X1.328697X-0.580571X0*%
%ADD22RotRect,1.200000X1.200000X75.000000*%
%ADD23RoundRect,0.250000X1.352757X0.522062X-0.587390X1.325697X-1.352757X-0.522062X0.587390X-1.325697X0*%
%ADD24RoundRect,0.250000X0.587390X1.325697X-1.352757X0.522062X-0.587390X-1.325697X1.352757X-0.522062X0*%
%ADD25RotRect,1.200000X1.200000X47.500000*%
%ADD26RotRect,1.200000X1.200000X105.000000*%
%ADD27RoundRect,0.250000X1.207696X0.802477X-0.860400X1.167138X-1.207696X-0.802477X0.860400X-1.167138X0*%
%ADD28RotRect,1.200000X1.200000X132.500000*%
%ADD29RotRect,1.200000X1.200000X345.000000*%
%ADD30RotRect,1.200000X1.200000X20.000000*%
%ADD31RotRect,1.200000X1.200000X15.000000*%
%ADD32RotRect,1.200000X1.200000X67.500000*%
%ADD33RotRect,1.200000X1.200000X112.500000*%
%ADD34RotRect,1.200000X1.200000X100.000000*%
%ADD35RoundRect,0.250000X0.860400X1.167138X-1.207696X0.802477X-0.860400X-1.167138X1.207696X-0.802477X0*%
%ADD36RotRect,1.200000X1.200000X110.000000*%
%ADD37RotRect,1.200000X1.200000X340.000000*%
%ADD38RotRect,1.200000X1.200000X22.500000*%
%ADD39RotRect,1.200000X1.200000X70.000000*%
%ADD40RotRect,1.200000X1.200000X80.000000*%
%ADD41RoundRect,0.250000X0.098551X1.446647X-1.449731X0.027908X-0.098551X-1.446647X1.449731X-0.027908X0*%
%ADD42RotRect,1.200000X1.200000X337.500000*%
G04 APERTURE END LIST*
D10*
%TO.C,T1*%
X173443980Y-34265476D03*
X173443980Y-36465474D03*
X180843976Y-34265476D03*
X180843976Y-36465474D03*
D11*
X174893977Y-37440475D03*
X177893980Y-37440478D03*
X179393974Y-37440480D03*
%TD*%
D12*
%TO.C,PAD1*%
X124143973Y-57465478D03*
%TD*%
D13*
%TO.C,B1*%
X229057995Y-48039719D03*
X234129101Y-46680919D03*
X229497991Y-49681793D03*
X234569097Y-48322993D03*
%TD*%
D12*
%TO.C,PAD2*%
X132143976Y-57465483D03*
%TD*%
D14*
%TO.C,PAD4*%
X169643978Y-48165474D03*
%TD*%
D12*
%TO.C,PAD3*%
X166143977Y-53165474D03*
%TD*%
D15*
%TO.C,MCU1*%
X120023972Y-36095484D03*
X120023971Y-38635485D03*
X120023974Y-41175484D03*
X120023976Y-43715489D03*
X120023973Y-46255484D03*
X120023974Y-48795485D03*
X120023974Y-51335484D03*
X136263976Y-51335484D03*
X136263977Y-48795483D03*
X136263974Y-46255484D03*
X136263972Y-43715479D03*
X136263975Y-41175484D03*
D16*
X136263974Y-38635483D03*
D15*
X136263974Y-36095484D03*
%TD*%
D17*
%TO.C,S7*%
X102212667Y-85210506D03*
X89134183Y-79332945D03*
%TD*%
D18*
%TO.C,S20*%
X223516905Y-47607301D03*
X209432403Y-50294194D03*
%TD*%
D19*
%TO.C,S4*%
X80487327Y-88479470D03*
X66946348Y-83764139D03*
%TD*%
D20*
%TO.C,S29*%
X138784725Y-138699784D03*
X128951030Y-128264704D03*
%TD*%
D21*
%TO.C,S22*%
X204705952Y-61849821D03*
X190909225Y-65754030D03*
%TD*%
D22*
%TO.C,SW3*%
X64065337Y-64255564D03*
X64919437Y-61068008D03*
%TD*%
D21*
%TO.C,S21*%
X211204332Y-79703981D03*
X197407605Y-83608190D03*
%TD*%
D23*
%TO.C,S10*%
X116881462Y-101037625D03*
X104071800Y-94595180D03*
%TD*%
D24*
%TO.C,S25*%
X189009960Y-77322720D03*
X175396668Y-81825018D03*
%TD*%
D25*
%TO.C,SW15*%
X131570451Y-142058227D03*
X133799895Y-139625213D03*
%TD*%
D26*
%TO.C,SW18*%
X234222615Y-64255562D03*
X233368513Y-61068008D03*
%TD*%
D24*
%TO.C,S24*%
X196280950Y-94876426D03*
X182667658Y-99378724D03*
%TD*%
D27*
%TO.C,S1*%
X58392564Y-96715050D03*
X44492145Y-93197836D03*
%TD*%
D28*
%TO.C,SW30*%
X166717511Y-142058217D03*
X164488063Y-139625205D03*
%TD*%
D19*
%TO.C,S6*%
X90322455Y-51774291D03*
X76781476Y-47058960D03*
%TD*%
D29*
%TO.C,D1*%
X66950854Y-101520338D03*
X70138410Y-102374438D03*
%TD*%
D23*
%TO.C,S13*%
X136858840Y-102457379D03*
X124049178Y-96014934D03*
%TD*%
D30*
%TO.C,D5*%
X207595839Y-98150632D03*
X210696825Y-97021966D03*
%TD*%
D31*
%TO.C,I4*%
X228887167Y-105127329D03*
X232074721Y-104273227D03*
%TD*%
D32*
%TO.C,SW14*%
X138499257Y-90526996D03*
X139762113Y-87478194D03*
%TD*%
D33*
%TO.C,SW28*%
X167059678Y-108080713D03*
X165796820Y-105031911D03*
%TD*%
D22*
%TO.C,SW6*%
X85474061Y-58084449D03*
X86328161Y-54896893D03*
%TD*%
D23*
%TO.C,S11*%
X124152445Y-83483912D03*
X111342783Y-77041467D03*
%TD*%
D24*
%TO.C,S28*%
X169032598Y-78742462D03*
X155419306Y-83244760D03*
%TD*%
D33*
%TO.C,SW27*%
X172495079Y-71553537D03*
X171232221Y-68504735D03*
%TD*%
D34*
%TO.C,SW16*%
X244175364Y-103423766D03*
X243602324Y-100173902D03*
%TD*%
D35*
%TO.C,S15*%
X255750791Y-93919311D03*
X241485711Y-95368434D03*
%TD*%
D36*
%TO.C,SW24*%
X188458433Y-55365772D03*
X187329767Y-52264786D03*
%TD*%
D23*
%TO.C,S14*%
X144129820Y-84903661D03*
X131320158Y-78461216D03*
%TD*%
D29*
%TO.C,I1*%
X66213227Y-104273220D03*
X69400783Y-105127320D03*
%TD*%
D23*
%TO.C,S12*%
X131423435Y-65930211D03*
X118613773Y-59487766D03*
%TD*%
D37*
%TO.C,I2*%
X86616366Y-99700088D03*
X89717354Y-100828746D03*
%TD*%
D33*
%TO.C,SW26*%
X179766061Y-89107254D03*
X178503203Y-86058452D03*
%TD*%
D38*
%TO.C,I6*%
X174593796Y-117515721D03*
X177642598Y-116252863D03*
%TD*%
D26*
%TO.C,SW19*%
X222649013Y-94789632D03*
X221794911Y-91602078D03*
%TD*%
D22*
%TO.C,SW5*%
X80556491Y-76437039D03*
X81410591Y-73249483D03*
%TD*%
D31*
%TO.C,D4*%
X228149538Y-102374435D03*
X231337092Y-101520333D03*
%TD*%
D34*
%TO.C,SW17*%
X240876047Y-84712409D03*
X240303007Y-81462545D03*
%TD*%
D26*
%TO.C,SW20*%
X217731456Y-76437038D03*
X216877354Y-73249484D03*
%TD*%
D36*
%TO.C,SW22*%
X201455196Y-91074084D03*
X200326530Y-87973098D03*
%TD*%
D21*
%TO.C,S23*%
X198207568Y-43995669D03*
X184410841Y-47899878D03*
%TD*%
D35*
%TO.C,S16*%
X252451477Y-75207969D03*
X238186397Y-76657092D03*
%TD*%
D17*
%TO.C,S9*%
X115209440Y-49502184D03*
X102130956Y-43624623D03*
%TD*%
D39*
%TO.C,SW7*%
X96832763Y-91074086D03*
X97961421Y-87973098D03*
%TD*%
D22*
%TO.C,SW4*%
X75638933Y-94789631D03*
X76493033Y-91602075D03*
%TD*%
D40*
%TO.C,SW2*%
X57411907Y-84712417D03*
X57984943Y-81462553D03*
%TD*%
D33*
%TO.C,SW25*%
X187037048Y-106660960D03*
X185774190Y-103612158D03*
%TD*%
D27*
%TO.C,S2*%
X61691889Y-78003700D03*
X47791470Y-74486486D03*
%TD*%
D41*
%TO.C,S30*%
X171373387Y-127822786D03*
X160120952Y-136709584D03*
%TD*%
D39*
%TO.C,SW8*%
X103331147Y-73219926D03*
X104459805Y-70118938D03*
%TD*%
D24*
%TO.C,S27*%
X176303570Y-96296176D03*
X162690278Y-100798474D03*
%TD*%
D37*
%TO.C,D2*%
X87591125Y-97021973D03*
X90692113Y-98150631D03*
%TD*%
D32*
%TO.C,SW11*%
X118521890Y-89107247D03*
X119784746Y-86058445D03*
%TD*%
D42*
%TO.C,I3*%
X120645352Y-116252864D03*
X123694154Y-117515720D03*
%TD*%
D19*
%TO.C,S5*%
X85404888Y-70126877D03*
X71863909Y-65411546D03*
%TD*%
D38*
%TO.C,D6*%
X173503148Y-114882664D03*
X176551950Y-113619806D03*
%TD*%
D33*
%TO.C,SW29*%
X159788687Y-90527001D03*
X158525829Y-87478199D03*
%TD*%
D24*
%TO.C,S26*%
X181738982Y-59769006D03*
X168125690Y-64271304D03*
%TD*%
D18*
%TO.C,S19*%
X228434466Y-65959896D03*
X214349964Y-68646789D03*
%TD*%
D30*
%TO.C,I5*%
X208570596Y-100828753D03*
X211671582Y-99700087D03*
%TD*%
D17*
%TO.C,S8*%
X108711050Y-67356339D03*
X95632566Y-61478778D03*
%TD*%
D40*
%TO.C,SW1*%
X54112587Y-103423761D03*
X54685623Y-100173897D03*
%TD*%
D42*
%TO.C,D3*%
X121736003Y-113619808D03*
X124784805Y-114882664D03*
%TD*%
D18*
%TO.C,S18*%
X233352031Y-84312489D03*
X219267529Y-86999382D03*
%TD*%
D26*
%TO.C,SW21*%
X212813899Y-58084446D03*
X211959797Y-54896892D03*
%TD*%
D18*
%TO.C,S17*%
X244925621Y-53778415D03*
X230841119Y-56465308D03*
%TD*%
D39*
%TO.C,SW9*%
X109829524Y-55365771D03*
X110958182Y-52264783D03*
%TD*%
D32*
%TO.C,SW10*%
X111250899Y-106660959D03*
X112513755Y-103612157D03*
%TD*%
D36*
%TO.C,SW23*%
X194956814Y-73219926D03*
X193828148Y-70118940D03*
%TD*%
D32*
%TO.C,SW13*%
X131228280Y-108080703D03*
X132491136Y-105031901D03*
%TD*%
D19*
%TO.C,S3*%
X68913734Y-57945408D03*
X55372755Y-53230077D03*
%TD*%
D32*
%TO.C,SW12*%
X125792876Y-71553540D03*
X127055732Y-68504738D03*
%TD*%
M02*
