M48
; DRILL file {KiCad 8.0.7} date 2025-03-10T17:40:13-0700
; FORMAT={-:-/ absolute / inch / decimal}
; #@! TF.CreationDate,2025-03-10T17:40:13-07:00
; #@! TF.GenerationSoftware,Kicad,Pcbnew,8.0.7
; #@! TF.FileFunction,Plated,1,2,PTH
FMAT,2
INCH
; #@! TA.AperFunction,Plated,PTH,ViaDrill
T1C0.0118
; #@! TA.AperFunction,Plated,PTH,ComponentDrill
T2C0.0118
; #@! TA.AperFunction,Plated,PTH,ComponentDrill
T3C0.0157
; #@! TA.AperFunction,Plated,PTH,ComponentDrill
T4C0.0197
; #@! TA.AperFunction,Plated,PTH,ComponentDrill
T5C0.0295
; #@! TA.AperFunction,Plated,PTH,ComponentDrill
T6C0.0394
; #@! TA.AperFunction,Plated,PTH,ComponentDrill
T7C0.0591
; #@! TA.AperFunction,Plated,PTH,ComponentDrill
T8C0.0630
; #@! TA.AperFunction,Plated,PTH,ComponentDrill
T9C0.0866
%
G90
G05
T1
X1.941Y-3.5278
X2.126Y-2.8144
X2.4498Y-2.0233
X2.9424Y-3.2105
X3.1235Y-2.4887
X3.3257Y-3.3132
X3.3396Y-1.7706
X3.5963Y-3.1124
X3.8197Y-3.0626
X3.846Y-2.4089
X3.99Y-3.7588
X4.004Y-3.8865
X4.0313Y-4.2826
X4.0787Y-2.3591
X4.2402Y-3.2166
X4.3141Y-3.0988
X4.3343Y-1.6558
X4.484Y-2.4119
X4.49Y-3.1742
X4.5502Y-2.5329
X4.6081Y-2.2656
X4.7058Y-4.5616
X4.7561Y-2.3269
X4.7572Y-2.5259
X4.9036Y-4.5789
X4.9185Y-3.586
X5.086Y-3.9183
X5.1988Y-2.8857
X5.235Y-2.394
X5.3079Y-3.8138
X5.3491Y-4.9192
X5.4287Y-2.8616
X5.9474Y-4.1802
X6.1704Y-4.4156
X6.2903Y-4.6073
X6.3685Y-2.8618
X6.482Y-3.8443
X6.5025Y-3.9014
X6.5848Y-3.2565
X6.6705Y-3.985
X6.6804Y-1.8357
X6.7961Y-3.7429
X6.8151Y-2.6778
X6.8583Y-2.4116
X7.2539Y-4.6496
X7.3018Y-2.9927
X7.6773Y-4.19
X7.9215Y-2.3815
X7.9399Y-3.2194
X7.9725Y-3.5737
X8.0639Y-3.3067
X8.1809Y-3.0802
X8.6756Y-2.6149
X8.9027Y-3.4291
X9.3315Y-2.188
X9.6411Y-2.9599
T2
X2.1043Y-4.0901
X2.2322Y-4.1127
X2.2342Y-3.3535
X2.3621Y-3.376
X2.4928Y-2.5416
X2.6183Y-2.5752
X2.6926Y-3.938
X2.7217Y-3.8296
X2.8181Y-3.9716
X2.8471Y-3.8633
X2.9485Y-3.7437
X3.074Y-3.7773
X3.1421Y-3.0211
X3.2676Y-3.0548
X3.3357Y-2.2986
X3.4612Y-2.3322
X3.5083Y-3.7619
X3.5467Y-3.6565
X3.6304Y-3.8063
X3.6688Y-3.7009
X3.7802Y-3.5906
X3.9022Y-3.635
X4.036Y-2.8877
X4.1581Y-2.9321
X4.2918Y-2.1848
X4.3467Y-4.2008
X4.4139Y-2.2292
X4.4667Y-4.2505
X4.6329Y-3.5097
X4.7489Y-5.0661
X4.753Y-3.5594
X4.852Y-5.1452
X4.8541Y-4.4159
X4.8971Y-4.3123
X4.9192Y-2.8186
X4.9742Y-4.4657
X5.0171Y-4.362
X5.0392Y-2.8683
X5.1332Y-4.2567
X5.2532Y-4.3064
X5.3424Y-5.5215
X5.3825Y-1.8373
X5.3825Y-1.9373
X5.3825Y-1.6373
X5.3825Y-1.7373
X5.3825Y-2.0373
X5.3825Y-2.1373
X5.3825Y-2.2373
X5.4194Y-3.5656
X5.4454Y-5.6006
X5.5395Y-3.6153
X5.6187Y-2.4779
X5.9336Y-2.4779
X5.9474Y-3.9797
X6.0773Y-3.9797
X6.1699Y-2.2373
X6.1699Y-1.7373
X6.1699Y-2.0373
X6.1699Y-2.1373
X6.7112Y-1.5616
X6.8293Y-1.5616
X6.849Y-3.4646
X6.8884Y-1.5616
X6.8917Y-5.3609
X6.9691Y-3.4149
X6.9948Y-5.2818
X7.0077Y-4.362
X7.0506Y-4.4657
X7.1277Y-4.3123
X7.1353Y-4.1557
X7.1706Y-4.4159
X7.2553Y-4.106
X7.3493Y-2.7177
X7.4693Y-2.6679
X7.4851Y-4.9056
X7.5882Y-4.8265
X7.6355Y-3.4087
X7.7556Y-3.359
X7.9218Y-4.0998
X7.9808Y-2.0945
X8.0418Y-4.0501
X8.1029Y-2.0501
X8.2366Y-2.7975
X8.356Y-3.7009
X8.3587Y-2.753
X8.3944Y-3.8063
X8.4781Y-3.6565
X8.4925Y-3.5004
X8.5164Y-3.7619
X8.6146Y-3.456
X8.9439Y-2.2303
X9.0694Y-2.1967
X9.1375Y-2.9529
X9.1776Y-3.8633
X9.2067Y-3.9716
X9.263Y-2.9192
X9.3031Y-3.8296
X9.3311Y-3.6754
X9.3322Y-3.938
X9.4566Y-3.6418
X9.7867Y-2.4733
X9.9122Y-2.4397
X10.0504Y-3.3077
X10.1783Y-3.2851
X10.1803Y-4.0443
X10.3082Y-4.0218
T3
X1.9594Y-2.7014
X1.9701Y-2.7499
X1.9861Y-2.6594
X2.0121Y-2.7766
X2.0346Y-2.6487
X2.0606Y-2.7659
X2.0766Y-2.6754
X2.0873Y-2.7239
X2.3324Y-4.2703
X2.3431Y-4.3188
X2.3591Y-4.2284
X2.3851Y-4.3455
X2.4076Y-4.2176
X2.4336Y-4.3348
X2.4496Y-4.2443
X2.4603Y-4.2928
X2.768Y-1.9834
X2.7745Y-2.0327
X2.7983Y-1.944
X2.8139Y-2.063
X2.8475Y-1.9375
X2.8632Y-2.0565
X2.887Y-1.9678
X2.8935Y-2.0171
X4.1608Y-4.7968
X4.1736Y-4.7488
X4.1856Y-4.8399
X4.2167Y-4.7239
X4.2336Y-4.8527
X4.2647Y-4.7368
X4.2767Y-4.8279
X4.2896Y-4.7798
X4.4905Y-1.5239
X4.4927Y-1.5735
X4.5241Y-1.4872
X4.5293Y-1.6071
X4.5738Y-1.485
X4.579Y-1.605
X4.6104Y-1.5186
X4.6126Y-1.5683
X5.9474Y-3.0348
X5.9474Y-5.4659
X5.9665Y-2.9889
X5.9665Y-3.0807
X5.9665Y-5.42
X5.9665Y-5.5118
X6.0124Y-2.9698
X6.0124Y-3.0998
X6.0124Y-5.4009
X6.0124Y-5.5309
X6.0583Y-2.9889
X6.0583Y-3.0807
X6.0583Y-5.42
X6.0583Y-5.5118
X6.0773Y-3.0348
X6.0773Y-5.4659
X7.4122Y-1.5683
X7.4144Y-1.5186
X7.4458Y-1.605
X7.451Y-1.485
X7.4954Y-1.6071
X7.5007Y-1.4872
X7.5321Y-1.5735
X7.5343Y-1.5239
X7.7352Y-4.7798
X7.7481Y-4.8279
X7.7601Y-4.7368
X7.7911Y-4.8527
X7.8081Y-4.7239
X7.8392Y-4.8399
X7.8511Y-4.7488
X7.864Y-4.7968
X9.1313Y-2.0171
X9.1378Y-1.9678
X9.1616Y-2.0565
X9.1772Y-1.9375
X9.2108Y-2.063
X9.2265Y-1.944
X9.2503Y-2.0327
X9.2568Y-1.9834
X9.5644Y-4.2928
X9.5752Y-4.2443
X9.5912Y-4.3348
X9.6171Y-4.2176
X9.6397Y-4.3455
X9.6657Y-4.2284
X9.6816Y-4.3188
X9.6924Y-4.2703
X9.9374Y-2.7239
X9.9482Y-2.6754
X9.9642Y-2.7659
X9.9901Y-2.6487
X10.0127Y-2.7766
X10.0387Y-2.6594
X10.0546Y-2.7499
X10.0654Y-2.7014
T5
X7.125Y-1.7878
X7.1551Y-1.8606
T6
X5.6187Y-2.4779
X5.6187Y-2.4779
X5.9336Y-2.4779
X5.9336Y-2.4779
T8
X1.7727Y-4.0776
X1.9026Y-3.341
X2.1636Y-2.5002
X2.6192Y-3.7023
X2.8128Y-2.9798
X3.0064Y-2.2572
X3.4558Y-3.5207
X3.7116Y-2.8178
X3.9674Y-2.1149
X4.0256Y-4.1168
X4.3119Y-3.4257
X4.4605Y-4.9019
X4.5981Y-2.7346
X4.8121Y-4.1727
X5.054Y-5.3573
X5.0984Y-3.4816
X6.5626Y-3.6323
X6.6584Y-5.597
X6.8489Y-4.3234
X7.0629Y-2.8853
X7.2519Y-5.1416
X7.3491Y-3.5764
X7.6354Y-4.2675
X7.6874Y-2.2495
X7.9432Y-2.9524
X8.199Y-3.6554
X8.6381Y-2.3591
X8.8317Y-3.0817
X9.0253Y-3.8042
X9.4809Y-2.6021
X9.7345Y-3.4093
X9.8644Y-4.146
T9
X2.0234Y-2.7126
X2.3963Y-4.2816
X2.8307Y-2.0003
X4.2252Y-4.7883
X4.5515Y-1.5461
X6.0124Y-3.0348
X6.0124Y-5.4659
X7.4732Y-1.5461
X7.7996Y-4.7883
X9.194Y-2.0003
X9.6284Y-4.2816
X10.0014Y-2.7126
T4
G00X5.9041Y-4.2553
M15
G01X5.9238Y-4.2553
M16
G05
G00X5.9041Y-4.8261
M15
G01X5.9238Y-4.8261
M16
G05
G00X6.0025Y-4.8261
M15
G01X6.0222Y-4.8261
M16
G05
G00X6.101Y-4.2553
M15
G01X6.1207Y-4.2553
M16
G05
G00X6.101Y-4.8261
M15
G01X6.1207Y-4.8261
M16
G05
T7
G00X5.7919Y-4.5151
M15
G01X5.7919Y-4.5466
M16
G05
G00X6.2329Y-4.5151
M15
G01X6.2329Y-4.5466
M16
G05
M30
