%TF.GenerationSoftware,KiCad,Pcbnew,8.0.7*%
%TF.CreationDate,2025-03-10T17:40:08-07:00*%
%TF.ProjectId,chuck,63687563-6b2e-46b6-9963-61645f706362,v1.3*%
%TF.SameCoordinates,Original*%
%TF.FileFunction,Profile,NP*%
%FSLAX46Y46*%
G04 Gerber Fmt 4.6, Leading zero omitted, Abs format (unit mm)*
G04 Created by KiCad (PCBNEW 8.0.7) date 2025-03-10 17:40:08*
%MOMM*%
%LPD*%
G01*
G04 APERTURE LIST*
%TA.AperFunction,Profile*%
%ADD10C,0.150000*%
%TD*%
G04 APERTURE END LIST*
D10*
X205411380Y-36788471D02*
X207983598Y-43855585D01*
X168514568Y-150329371D02*
X168514564Y-150333826D01*
X72970182Y-44883435D02*
G75*
G02*
X70520685Y-46297687I-1931882J517635D01*
G01*
X151464566Y-37438477D02*
X151464571Y-35463480D01*
X264260461Y-88016149D02*
X267559773Y-106727501D01*
X249476561Y-42394133D02*
G75*
G02*
X251926061Y-43808339I517639J-1931867D01*
G01*
X141964572Y-35463474D02*
X141964564Y-37438476D01*
X168514564Y-150333826D02*
X168485023Y-150333826D01*
X39491682Y-109044403D02*
G75*
G02*
X37869393Y-106727504I347318J1969603D01*
G01*
X140714569Y-58438473D02*
X152714568Y-58438470D01*
X210303666Y-118854151D02*
X265937453Y-109044415D01*
X209433445Y-119237060D02*
G75*
G02*
X210303666Y-118854150I1217455J-1586540D01*
G01*
X152714572Y-37438475D02*
X151464566Y-37438477D01*
X229103127Y-40086710D02*
G75*
G02*
X231552549Y-41500946I517673J-1931690D01*
G01*
X203514569Y-35472585D02*
G75*
G02*
X205411380Y-36788471I17431J-1999915D01*
G01*
X251926051Y-43808338D02*
X258207691Y-67251749D01*
X203514569Y-35472585D02*
X203514569Y-35463472D01*
X234908443Y-46297646D02*
X249476561Y-42394133D01*
X140714569Y-58438473D02*
G75*
G02*
X139714527Y-57438477I31J1000073D01*
G01*
X76326016Y-40086717D02*
X95048511Y-45103391D01*
X141964572Y-35463474D02*
X101914564Y-35463477D01*
X73876523Y-41500931D02*
X72970182Y-44883435D01*
X234908443Y-46297646D02*
G75*
G02*
X232458950Y-44883429I-517643J1931846D01*
G01*
X137509647Y-150333823D02*
G75*
G02*
X136944123Y-150333819I-282747J1979923D01*
G01*
X95125469Y-118854143D02*
G75*
G02*
X95995689Y-119237063I-347169J-1969257D01*
G01*
X73876523Y-41500931D02*
G75*
G02*
X76326036Y-40086641I1931877J-517569D01*
G01*
X95995692Y-119237055D02*
X136009365Y-149940620D01*
X44554819Y-68812397D02*
G75*
G02*
X46871717Y-67190122I1969581J-347303D01*
G01*
X41168792Y-88015531D02*
X44554819Y-68812397D01*
X260874321Y-68812396D02*
X264260347Y-88015522D01*
X169419774Y-149940620D02*
G75*
G02*
X168514564Y-150329346I-1217374J1586520D01*
G01*
X258557401Y-67190085D02*
G75*
G02*
X260874314Y-68812397I347299J-1969615D01*
G01*
X169419774Y-149940620D02*
X209433445Y-119237056D01*
X141964564Y-37438476D02*
X140714572Y-37438474D01*
X97445536Y-43855589D02*
X100017752Y-36788471D01*
X136914570Y-150333821D02*
X136914564Y-150329374D01*
X46871725Y-67190078D02*
X47221447Y-67251751D01*
X136914564Y-150329374D02*
G75*
G02*
X136009356Y-149940631I312336J1975574D01*
G01*
X153714572Y-57438473D02*
G75*
G02*
X152714568Y-58438472I-999972J-27D01*
G01*
X37869362Y-106727499D02*
X41168682Y-88016149D01*
X203514569Y-35463472D02*
X151464571Y-35463480D01*
X210380623Y-45103397D02*
X229103127Y-40086710D01*
X139714570Y-38438467D02*
G75*
G02*
X140714572Y-37438470I999930J67D01*
G01*
X137509647Y-150333823D02*
X167919484Y-150333822D01*
X100017752Y-36788471D02*
G75*
G02*
X101914562Y-35472615I1879348J-684029D01*
G01*
X53503082Y-43808344D02*
G75*
G02*
X55952561Y-42394183I1931818J-517656D01*
G01*
X39491682Y-109044403D02*
X95125469Y-118854143D01*
X152714572Y-37438475D02*
G75*
G02*
X153714525Y-38438479I28J-999925D01*
G01*
X47221447Y-67251751D02*
X53503084Y-43808342D01*
X55952573Y-42394138D02*
X70520693Y-46297656D01*
X139714570Y-38438467D02*
X139714568Y-57438477D01*
X267559773Y-106727501D02*
G75*
G02*
X265937461Y-109044462I-1969673J-347299D01*
G01*
X210380623Y-45103397D02*
G75*
G02*
X207983590Y-43855588I-517623J1931897D01*
G01*
X97445536Y-43855589D02*
G75*
G02*
X95048500Y-45103433I-1879336J683889D01*
G01*
X168485023Y-150333826D02*
G75*
G02*
X167919485Y-150333813I-282723J1979626D01*
G01*
X153714572Y-57438473D02*
X153714561Y-38438479D01*
X232458947Y-44883430D02*
X231552614Y-41500928D01*
X101914564Y-35463477D02*
X101914562Y-35472590D01*
X136944123Y-150333821D02*
X136914570Y-150333821D01*
X258207691Y-67251749D02*
X258557401Y-67190085D01*
M02*
