M48
; DRILL file {KiCad 8.0.7} date 2024-12-24T09:40:12-0700
; FORMAT={-:-/ absolute / inch / decimal}
; #@! TF.CreationDate,2024-12-24T09:40:12-07:00
; #@! TF.GenerationSoftware,Kicad,Pcbnew,8.0.7
; #@! TF.FileFunction,Plated,1,2,PTH
FMAT,2
INCH
; #@! TA.AperFunction,Plated,PTH,ViaDrill
T1C0.0118
; #@! TA.AperFunction,Plated,PTH,ComponentDrill
T2C0.0118
; #@! TA.AperFunction,Plated,PTH,ComponentDrill
T3C0.0157
; #@! TA.AperFunction,Plated,PTH,ComponentDrill
T4C0.0197
; #@! TA.AperFunction,Plated,PTH,ComponentDrill
T5C0.0591
; #@! TA.AperFunction,Plated,PTH,ComponentDrill
T6C0.0866
; #@! TA.AperFunction,Plated,PTH,ComponentDrill
T7C0.1181
; #@! TA.AperFunction,Plated,PTH,ComponentDrill
T8C0.2008
%
G90
G05
T1
X3.5547Y-2.7835
X3.977Y-4.0495
X4.2858Y-3.304
X4.3993Y-2.9808
X4.6442Y-4.1834
X4.8285Y-2.1594
X4.8368Y-4.2962
X5.4528Y-2.401
X5.5782Y-4.1024
X5.735Y-2.1842
X6.4984Y-3.9458
X6.7908Y-4.7343
X7.6871Y-2.8635
X7.7184Y-3.5555
T2
X2.4521Y-3.2492
X2.4651Y-3.1755
X2.5361Y-3.226
X2.7127Y-2.4515
X2.7463Y-2.3261
X2.834Y-3.9961
X2.8498Y-4.0819
X2.9063Y-4.0155
X3.364Y-2.9235
X3.3833Y-2.8513
X3.4497Y-2.9078
X3.5555Y-2.2086
X3.5891Y-2.0831
X3.6399Y-3.8194
X3.6481Y-3.9062
X3.7102Y-3.845
X4.0054Y-3.5
X4.031Y-3.4297
X4.0922Y-3.4918
X4.5171Y-2.0942
X4.5427Y-2.0239
X4.6039Y-2.0859
X4.8417Y-1.6929
X4.8417Y-1.4929
X4.8417Y-1.5929
X4.8417Y-1.7929
X4.8417Y-1.9929
X4.9807Y-4.4729
X4.9852Y-4.5599
X5.0499Y-4.5015
X5.1459Y-2.7316
X5.1745Y-2.6625
X5.233Y-2.7272
X5.3703Y-5.5146
X5.4581Y-5.4189
X5.6291Y-1.9929
X5.6291Y-1.4929
X5.6291Y-1.6929
X5.6291Y-1.7929
X5.6291Y-1.8929
X5.6461Y-3.4786
X5.6748Y-3.4095
X5.7332Y-3.4742
X6.3912Y-3.4742
X6.4497Y-3.4095
X6.4783Y-3.4786
X6.6663Y-5.4189
X6.7541Y-5.5146
X6.8915Y-2.7272
X6.9499Y-2.6625
X6.9785Y-2.7316
X7.0746Y-4.5015
X7.076Y-1.3958
X7.1393Y-4.5599
X7.1437Y-4.4729
X7.1941Y-1.3958
X7.2532Y-1.3958
X7.5205Y-2.0859
X7.5817Y-2.0239
X7.6073Y-2.0942
X8.0322Y-3.4918
X8.0934Y-3.4297
X8.119Y-3.5
X8.4143Y-3.845
X8.4764Y-3.9062
X8.4846Y-3.8194
X8.5353Y-2.0831
X8.5689Y-2.2086
X8.6747Y-2.9078
X8.7411Y-2.8513
X8.7605Y-2.9235
X9.2084Y-1.8131
X9.2181Y-4.0155
X9.2258Y-1.8778
X9.2746Y-4.0819
X9.2904Y-3.9961
X9.3781Y-2.3261
X9.4081Y-1.7596
X9.4118Y-2.4515
X9.4254Y-1.8243
X9.5883Y-3.226
X9.6594Y-3.1755
X9.6723Y-3.2492
T3
X2.1027Y-2.6459
X2.1135Y-2.6944
X2.1294Y-2.604
X2.1554Y-2.7211
X2.178Y-2.5932
X2.204Y-2.7104
X2.2199Y-2.6199
X2.2307Y-2.6684
X2.4757Y-4.2148
X2.4865Y-4.2633
X2.5024Y-4.1729
X2.5284Y-4.2901
X2.551Y-4.1621
X2.5769Y-4.2793
X2.5929Y-4.1888
X2.6037Y-4.2374
X3.7692Y-2.1173
X3.7714Y-2.167
X3.8028Y-2.0807
X3.808Y-2.2006
X3.8524Y-2.0785
X3.8577Y-2.1984
X3.8891Y-2.1121
X3.8913Y-2.1617
X4.4858Y-1.4145
X4.488Y-1.4642
X4.5194Y-1.3779
X4.5247Y-1.4978
X4.5691Y-1.3757
X4.5743Y-1.4956
X4.6058Y-1.4093
X4.6079Y-1.459
X4.7241Y-5.1904
X4.7411Y-5.1436
X4.7451Y-5.2354
X4.7862Y-5.1226
X4.7918Y-5.2524
X4.8329Y-5.1396
X4.8369Y-5.2314
X4.8539Y-5.1847
X5.9973Y-5.5291
X5.9973Y-1.385
X6.0163Y-5.4832
X6.0163Y-5.5751
X6.0163Y-1.3391
X6.0163Y-1.4309
X6.0622Y-5.4642
X6.0622Y-5.5941
X6.0622Y-1.32
X6.0622Y-1.45
X6.1081Y-5.4832
X6.1081Y-5.5751
X6.1081Y-1.3391
X6.1081Y-1.4309
X6.1272Y-5.5291
X6.1272Y-1.385
X7.2705Y-5.1847
X7.2875Y-5.2314
X7.2915Y-5.1396
X7.3326Y-5.2524
X7.3383Y-5.1226
X7.3793Y-5.2354
X7.3833Y-5.1436
X7.4003Y-5.1904
X7.5165Y-1.459
X7.5187Y-1.4093
X7.5501Y-1.4956
X7.5553Y-1.3757
X7.5998Y-1.4978
X7.605Y-1.3779
X7.6364Y-1.4642
X7.6386Y-1.4145
X8.2332Y-2.1617
X8.2353Y-2.1121
X8.2667Y-2.1984
X8.272Y-2.0785
X8.3164Y-2.2006
X8.3217Y-2.0807
X8.3531Y-2.167
X8.3552Y-2.1173
X9.5208Y-4.2374
X9.5315Y-4.1888
X9.5475Y-4.2793
X9.5735Y-4.1621
X9.596Y-4.2901
X9.622Y-4.1729
X9.638Y-4.2633
X9.6487Y-4.2148
X9.8938Y-2.6684
X9.9045Y-2.6199
X9.9205Y-2.7104
X9.9465Y-2.5932
X9.969Y-2.7211
X9.995Y-2.604
X10.0109Y-2.6944
X10.0217Y-2.6459
T6
X2.1667Y-2.6572
X2.5397Y-4.2261
X3.8302Y-2.1395
X4.5469Y-1.4367
X4.789Y-5.1875
X6.0622Y-5.5291
X6.0622Y-1.385
X7.3354Y-5.1875
X7.5775Y-1.4367
X8.2942Y-2.1395
X9.5847Y-4.2261
X9.9577Y-2.6572
T7
X2.0836Y-3.616
X2.2135Y-2.8793
X2.3478Y-3.7045
X2.4777Y-2.9679
X2.5092Y-2.0547
X2.7647Y-2.1659
X2.9649Y-3.2568
X3.1585Y-2.5342
X3.2204Y-3.3681
X3.3521Y-1.8117
X3.414Y-2.6455
X3.6076Y-1.923
X3.8347Y-3.0943
X4.0795Y-3.2274
X4.0905Y-2.3914
X4.3353Y-2.5245
X4.3463Y-1.6885
X4.4205Y-3.701
X4.5912Y-1.8216
X4.6593Y-3.8447
X4.7067Y-3.0099
X4.9455Y-3.1536
X4.993Y-2.3188
X5.207Y-3.7569
X5.2318Y-2.4625
X5.3732Y-5.0687
X5.4458Y-3.9006
X5.4933Y-3.0658
X5.5484Y-5.2853
X5.732Y-3.2095
X6.442Y-3.1442
X6.6003Y-5.207
X6.7125Y-3.0769
X6.7283Y-3.8353
X6.8314Y-5.0513
X6.9423Y-2.3972
X6.9987Y-3.768
X7.2127Y-2.3299
X7.2285Y-3.0883
X7.499Y-3.021
X7.5148Y-3.7794
X7.5857Y-1.7585
X7.7852Y-3.7121
X7.8415Y-2.4614
X7.8588Y-1.7031
X8.0974Y-3.1643
X8.1147Y-2.406
X8.3705Y-3.1089
X8.5746Y-1.8647
X8.7682Y-2.5872
X8.8515Y-1.8333
X8.9618Y-3.3098
X9.0451Y-2.5558
X9.2387Y-3.2784
X9.4174Y-2.1077
X9.6943Y-2.0763
X9.7093Y-2.9148
X9.8392Y-3.6515
X9.9879Y-2.9077
X10.1178Y-3.6444
T8
X2.1451Y-3.8567
X2.275Y-3.12
X2.5495Y-2.2998
X3.0052Y-3.502
X3.1988Y-2.7794
X3.3924Y-2.0569
X3.8534Y-3.342
X4.1093Y-2.6391
X4.3651Y-1.9362
X4.4284Y-3.9493
X4.7147Y-3.2582
X5.0009Y-2.5671
X5.2149Y-4.0052
X5.2957Y-5.3047
X5.5012Y-3.3141
X6.6232Y-3.3141
X6.8287Y-5.3047
X6.9095Y-4.0052
X7.1235Y-2.5671
X7.4097Y-3.2582
X7.696Y-3.9493
X7.7593Y-1.9362
X8.0152Y-2.6391
X8.271Y-3.342
X8.732Y-2.0569
X8.9256Y-2.7794
X9.1193Y-3.502
X9.5749Y-2.2998
X9.8495Y-3.12
X9.9793Y-3.8567
T4
G00X5.9539Y-4.852
M15
G01X5.9736Y-4.852
M16
G05
G00X6.0524Y-4.852
M15
G01X6.0721Y-4.852
M16
G05
G00X6.1508Y-4.852
M15
G01X6.1705Y-4.852
M16
G05
T5
G00X5.8417Y-4.541
M15
G01X5.8417Y-4.5724
M16
G05
G00X6.2827Y-4.541
M15
G01X6.2827Y-4.5724
M16
G05
M30
