%TF.GenerationSoftware,KiCad,Pcbnew,8.0.7*%
%TF.CreationDate,2025-03-10T17:40:08-07:00*%
%TF.ProjectId,chuck,63687563-6b2e-46b6-9963-61645f706362,v1.3*%
%TF.SameCoordinates,Original*%
%TF.FileFunction,Soldermask,Bot*%
%TF.FilePolarity,Negative*%
%FSLAX46Y46*%
G04 Gerber Fmt 4.6, Leading zero omitted, Abs format (unit mm)*
G04 Created by KiCad (PCBNEW 8.0.7) date 2025-03-10 17:40:08*
%MOMM*%
%LPD*%
G01*
G04 APERTURE LIST*
G04 Aperture macros list*
%AMRoundRect*
0 Rectangle with rounded corners*
0 $1 Rounding radius*
0 $2 $3 $4 $5 $6 $7 $8 $9 X,Y pos of 4 corners*
0 Add a 4 corners polygon primitive as box body*
4,1,4,$2,$3,$4,$5,$6,$7,$8,$9,$2,$3,0*
0 Add four circle primitives for the rounded corners*
1,1,$1+$1,$2,$3*
1,1,$1+$1,$4,$5*
1,1,$1+$1,$6,$7*
1,1,$1+$1,$8,$9*
0 Add four rect primitives between the rounded corners*
20,1,$1+$1,$2,$3,$4,$5,0*
20,1,$1+$1,$4,$5,$6,$7,0*
20,1,$1+$1,$6,$7,$8,$9,0*
20,1,$1+$1,$8,$9,$2,$3,0*%
%AMHorizOval*
0 Thick line with rounded ends*
0 $1 width*
0 $2 $3 position (X,Y) of the first rounded end (center of the circle)*
0 $4 $5 position (X,Y) of the second rounded end (center of the circle)*
0 Add line between two ends*
20,1,$1,$2,$3,$4,$5,0*
0 Add two circle primitives to create the rounded ends*
1,1,$1,$2,$3*
1,1,$1,$4,$5*%
%AMFreePoly0*
4,1,15,0.975355,0.935355,1.335355,0.575355,1.350000,0.540000,1.350000,-0.900000,1.335355,-0.935355,1.300000,-0.950000,-1.300000,-0.950000,-1.335355,-0.935355,-1.350000,-0.900000,-1.350000,0.540000,-1.335355,0.575355,-0.975355,0.935355,-0.940000,0.950000,0.940000,0.950000,0.975355,0.935355,0.975355,0.935355,$1*%
%AMFreePoly1*
4,1,15,1.335355,0.935355,1.350000,0.900000,1.350000,-0.540000,1.335355,-0.575355,0.975355,-0.935355,0.940000,-0.950000,-0.940000,-0.950000,-0.975355,-0.935355,-1.335355,-0.575355,-1.350000,-0.540000,-1.350000,0.900000,-1.335355,0.935355,-1.300000,0.950000,1.300000,0.950000,1.335355,0.935355,1.335355,0.935355,$1*%
G04 Aperture macros list end*
%ADD10RoundRect,0.050000X-0.450000X-0.450000X0.450000X-0.450000X0.450000X0.450000X-0.450000X0.450000X0*%
%ADD11C,1.100000*%
%ADD12RoundRect,0.050000X-0.450000X-0.625000X0.450000X-0.625000X0.450000X0.625000X-0.450000X0.625000X0*%
%ADD13RoundRect,0.260000X-0.763626X0.105829X-0.465133X-0.614798X0.763626X-0.105829X0.465133X0.614798X0*%
%ADD14HorizOval,1.300000X-0.254067X-0.105238X0.254067X0.105238X0*%
%ADD15C,0.800000*%
%ADD16C,4.500000*%
%ADD17C,0.700000*%
%ADD18C,2.100000*%
%ADD19FreePoly0,270.000000*%
%ADD20FreePoly1,270.000000*%
%ADD21O,2.850000X1.900000*%
%ADD22RoundRect,0.050000X1.375000X0.900000X-1.375000X0.900000X-1.375000X-0.900000X1.375000X-0.900000X0*%
%ADD23C,2.000000*%
%ADD24C,3.100000*%
%ADD25C,5.100000*%
%ADD26RoundRect,0.050000X-1.666227X-0.776974X0.776974X-1.666227X1.666227X0.776974X-0.776974X1.666227X0*%
%ADD27RoundRect,0.050000X-0.424264X-0.734847X0.734847X-0.424264X0.424264X0.734847X-0.734847X0.424264X0*%
%ADD28RoundRect,0.050000X-1.822749X-0.239969X0.239969X-1.822749X1.822749X0.239969X-0.239969X1.822749X0*%
%ADD29RoundRect,0.050000X-0.783938X-0.324718X0.324718X-0.783938X0.783938X0.324718X-0.324718X0.783938X0*%
%ADD30RoundRect,0.050000X-0.486696X-0.695074X0.695074X-0.486696X0.486696X0.695074X-0.695074X0.486696X0*%
%ADD31RoundRect,0.050000X-0.769028X-0.358603X0.358603X-0.769028X0.769028X0.358603X-0.358603X0.769028X0*%
%ADD32RoundRect,0.050000X-0.776974X-1.666227X1.666227X-0.776974X0.776974X1.666227X-1.666227X0.776974X0*%
%ADD33RoundRect,0.050000X-0.703555X-1.698532X1.698532X-0.703555X0.703555X1.698532X-1.698532X0.703555X0*%
%ADD34RoundRect,0.050000X-0.734847X-0.424264X0.424264X-0.734847X0.734847X0.424264X-0.424264X0.734847X0*%
%ADD35RoundRect,0.050000X-0.919239X-1.592168X1.592168X-0.919239X0.919239X1.592168X-1.592168X0.919239X0*%
%ADD36RoundRect,0.050000X-1.698532X-0.703555X0.703555X-1.698532X1.698532X0.703555X-0.703555X1.698532X0*%
%ADD37RoundRect,0.050000X-0.358603X-0.769028X0.769028X-0.358603X0.358603X0.769028X-0.769028X0.358603X0*%
%ADD38RoundRect,0.050000X-0.110755X-0.841269X0.841269X-0.110755X0.110755X0.841269X-0.841269X0.110755X0*%
%ADD39RoundRect,0.050000X-0.324718X-0.783938X0.783938X-0.324718X0.324718X0.783938X-0.783938X0.324718X0*%
%ADD40RoundRect,0.050000X-1.592168X-0.919239X0.919239X-1.592168X1.592168X0.919239X-0.919239X1.592168X0*%
%ADD41RoundRect,0.050000X-1.505993X-1.054507X1.054507X-1.505993X1.505993X1.054507X-1.054507X1.505993X0*%
%ADD42RoundRect,0.050000X-1.054507X-1.505993X1.505993X-1.054507X1.054507X1.505993X-1.505993X1.054507X0*%
%ADD43RoundRect,0.050000X-0.239969X-1.822749X1.822749X-0.239969X0.239969X1.822749X-1.822749X0.239969X0*%
%ADD44RoundRect,0.050000X-0.695074X-0.486696X0.486696X-0.695074X0.695074X0.486696X-0.486696X0.695074X0*%
%ADD45RoundRect,0.050000X-0.841269X-0.110755X0.110755X-0.841269X0.841269X0.110755X-0.110755X0.841269X0*%
%ADD46RoundRect,0.050000X-0.600000X-0.600000X0.600000X-0.600000X0.600000X0.600000X-0.600000X0.600000X0*%
%ADD47RoundRect,0.050000X-1.000000X-0.500000X1.000000X-0.500000X1.000000X0.500000X-1.000000X0.500000X0*%
G04 APERTURE END LIST*
D10*
%TO.C,T1*%
X169014568Y-36488473D03*
X169014568Y-38688478D03*
D11*
X171214572Y-37588477D03*
X174214564Y-37588475D03*
D10*
X176414568Y-36488474D03*
X176414568Y-38688479D03*
D12*
X170464570Y-39663476D03*
X173464566Y-39663475D03*
X174964566Y-39663476D03*
%TD*%
D13*
%TO.C,JST1*%
X180974926Y-45410627D03*
D14*
X181740290Y-47258387D03*
%TD*%
D15*
%TO.C,*%
X252410924Y-69187755D03*
X252684256Y-67954835D03*
X253089456Y-70252837D03*
X254322376Y-70526169D03*
D16*
X254035857Y-68901236D03*
D15*
X253749338Y-67276303D03*
X254982258Y-67549635D03*
X255387458Y-69847637D03*
X255660790Y-68614717D03*
%TD*%
%TO.C,*%
X231934649Y-51233692D03*
X232099485Y-49981642D03*
X232703427Y-52235584D03*
X233955477Y-52400420D03*
D16*
X233528427Y-50806642D03*
D15*
X233101377Y-49212864D03*
X234353427Y-49377700D03*
X234957369Y-51631642D03*
X235122205Y-50379592D03*
%TD*%
%TO.C,*%
X114058555Y-38706376D03*
X114911728Y-37775301D03*
X114113640Y-39968029D03*
X116173381Y-37720216D03*
D16*
X115609048Y-39270709D03*
D15*
X115044715Y-40821202D03*
X117104456Y-38573389D03*
X116306368Y-40766117D03*
X117159541Y-39835042D03*
%TD*%
D17*
%TO.C,PAD2*%
X150714571Y-62938469D03*
D18*
X150714571Y-62938469D03*
%TD*%
D15*
%TO.C,*%
X59242297Y-108465270D03*
X59920829Y-107400188D03*
X59515629Y-109698190D03*
X61153749Y-107126856D03*
D16*
X60867230Y-108751789D03*
D15*
X60580711Y-110376722D03*
X62218831Y-107805388D03*
X61813631Y-110103390D03*
X62492163Y-109038308D03*
%TD*%
%TO.C,*%
X70306930Y-50379582D03*
X71075708Y-49377690D03*
X70471766Y-51631632D03*
X72327758Y-49212854D03*
D16*
X71900708Y-50806632D03*
D15*
X71473658Y-52400410D03*
X73329650Y-49981632D03*
X72725708Y-52235574D03*
X73494486Y-51233682D03*
%TD*%
%TO.C,*%
X49768350Y-68614713D03*
X50446882Y-67549631D03*
X50041682Y-69847633D03*
X51679802Y-67276299D03*
D16*
X51393283Y-68901232D03*
D15*
X51106764Y-70526165D03*
X52744884Y-67954831D03*
X52339684Y-70252833D03*
X53018216Y-69187751D03*
%TD*%
D17*
%TO.C,PAD1*%
X142714576Y-62938481D03*
D18*
X142714576Y-62938481D03*
%TD*%
D15*
%TO.C,*%
X242936972Y-109038308D03*
X243210304Y-107805388D03*
X243615504Y-110103390D03*
X244848424Y-110376722D03*
D16*
X244561905Y-108751789D03*
D15*
X244275386Y-107126856D03*
X245508306Y-107400188D03*
X245913506Y-109698190D03*
X246186838Y-108465270D03*
%TD*%
D19*
%TO.C,ENC1*%
X147114564Y-115083820D03*
D20*
X158314564Y-115083820D03*
%TD*%
D15*
%TO.C,*%
X106010003Y-120618938D03*
X107103668Y-119987510D03*
X105683152Y-121838762D03*
X108323492Y-120314361D03*
D16*
X107319036Y-121623394D03*
D15*
X106314580Y-122932427D03*
X108954920Y-121408026D03*
X107534404Y-123259278D03*
X108628069Y-122627850D03*
%TD*%
%TO.C,*%
X188269592Y-39835040D03*
X188324677Y-38573387D03*
X189122765Y-40766115D03*
X189255752Y-37720214D03*
D16*
X189820085Y-39270707D03*
D15*
X190384418Y-40821200D03*
X190517405Y-37775299D03*
X191315493Y-39968027D03*
X191370578Y-38706374D03*
%TD*%
D21*
%TO.C,MCU1*%
X138594574Y-40318475D03*
X138594574Y-42858475D03*
X138594574Y-45398475D03*
X138594578Y-47938476D03*
X138594574Y-50478475D03*
X138594574Y-53018475D03*
X138594574Y-55558475D03*
X154834574Y-55558475D03*
X154834574Y-53018475D03*
X154834574Y-50478475D03*
X154834570Y-47938474D03*
X154834574Y-45398475D03*
D22*
X154834574Y-42858475D03*
D21*
X154834574Y-40318475D03*
%TD*%
D15*
%TO.C,*%
X151064565Y-77083827D03*
X151547839Y-75917101D03*
X151547839Y-78250553D03*
X152714565Y-75433827D03*
D16*
X152714565Y-77083827D03*
D15*
X152714565Y-78733827D03*
X153881291Y-75917101D03*
X153881291Y-78250553D03*
X154364565Y-77083827D03*
%TD*%
%TO.C,*%
X196801064Y-122627854D03*
X196474213Y-121408030D03*
X197894729Y-123259282D03*
X197105641Y-120314365D03*
D16*
X198110097Y-121623398D03*
D15*
X199114553Y-122932431D03*
X198325465Y-119987514D03*
X199745981Y-121838766D03*
X199419130Y-120618942D03*
%TD*%
%TO.C,*%
X151064574Y-138833820D03*
X151547848Y-137667094D03*
X151547848Y-140000546D03*
X152714574Y-137183820D03*
D16*
X152714574Y-138833820D03*
D15*
X152714574Y-140483820D03*
X153881300Y-137667094D03*
X153881300Y-140000546D03*
X154364574Y-138833820D03*
%TD*%
D23*
%TO.C,S7*%
X89067932Y-84415689D03*
X87776374Y-89426114D03*
D24*
X96271261Y-80705629D03*
D25*
X94236241Y-86296800D03*
D24*
X100217280Y-84483050D03*
D23*
X99404550Y-88177911D03*
D26*
X93193768Y-79585513D03*
X103294773Y-85603169D03*
%TD*%
D27*
%TO.C,I4*%
X233849249Y-100879803D03*
X237036805Y-100025703D03*
%TD*%
D23*
%TO.C,S29*%
X116036098Y-120119167D03*
X113297653Y-124509318D03*
D25*
X120399541Y-123467355D03*
D24*
X124021672Y-118746903D03*
X126649163Y-123536084D03*
D23*
X124762984Y-126815543D03*
D28*
X121423439Y-116753209D03*
X129247394Y-125529784D03*
%TD*%
D29*
%TO.C,SW10*%
X110405470Y-106699771D03*
X113454272Y-107962627D03*
%TD*%
D30*
%TO.C,SW15*%
X258578524Y-102726291D03*
X261828390Y-102153253D03*
%TD*%
D31*
%TO.C,D2*%
X90086393Y-92874121D03*
X93187379Y-94002787D03*
%TD*%
%TO.C,I2*%
X89111644Y-95552247D03*
X92212630Y-96680913D03*
%TD*%
D23*
%TO.C,S23*%
X193027818Y-52469592D03*
X195259068Y-57137999D03*
D24*
X196161107Y-44997310D03*
D25*
X198196127Y-50588481D03*
D24*
X201612015Y-45354533D03*
D23*
X203364436Y-48707370D03*
D32*
X193083614Y-46117426D03*
X204689508Y-44234417D03*
%TD*%
D31*
%TO.C,SW9*%
X109012899Y-55493016D03*
X112113885Y-56621682D03*
%TD*%
D27*
%TO.C,SW17*%
X248583086Y-62821417D03*
X251770642Y-61967317D03*
%TD*%
D23*
%TO.C,S27*%
X171529214Y-105246764D03*
X173961973Y-109813402D03*
D24*
X174333585Y-97644922D03*
D25*
X176610551Y-103142005D03*
D24*
X179794886Y-97764040D03*
D23*
X181691888Y-101037246D03*
D33*
X171307879Y-98898210D03*
X182820591Y-96510751D03*
%TD*%
D34*
%TO.C,SW6*%
X84726466Y-58384395D03*
X87914022Y-59238495D03*
%TD*%
D23*
%TO.C,S17*%
X238999366Y-61248263D03*
X240815249Y-66093371D03*
D24*
X242771985Y-54077499D03*
D25*
X244311958Y-59824758D03*
D24*
X248171016Y-54908439D03*
D23*
X249624550Y-58401253D03*
D35*
X239608578Y-54925132D03*
X251334423Y-54060809D03*
%TD*%
D23*
%TO.C,S13*%
X123737247Y-101037248D03*
X122228367Y-105986567D03*
D24*
X131095550Y-97644924D03*
D25*
X128818584Y-103142007D03*
D24*
X134873045Y-101590873D03*
D23*
X133899921Y-105246766D03*
D36*
X128069845Y-96391636D03*
X137898750Y-102844164D03*
%TD*%
D23*
%TO.C,S14*%
X131008234Y-83483538D03*
X129499354Y-88432857D03*
D24*
X138366537Y-80091214D03*
D25*
X136089571Y-85588297D03*
D24*
X142144032Y-84037163D03*
D23*
X141170908Y-87693056D03*
D36*
X135340832Y-78837926D03*
X145169737Y-85290454D03*
%TD*%
D23*
%TO.C,S20*%
X217590652Y-55077158D03*
X219406535Y-59922266D03*
D24*
X221363271Y-47906394D03*
D25*
X222903244Y-53653653D03*
D24*
X226762302Y-48737334D03*
D23*
X228215836Y-52230148D03*
D35*
X218199864Y-48754027D03*
X229925709Y-47889704D03*
%TD*%
D37*
%TO.C,SW21*%
X215708941Y-88909802D03*
X218809927Y-87781136D03*
%TD*%
D29*
%TO.C,I3*%
X123295141Y-112165124D03*
X126343943Y-113427980D03*
%TD*%
D38*
%TO.C,SW31*%
X190122362Y-124601420D03*
X192740428Y-122592508D03*
%TD*%
D29*
%TO.C,SW11*%
X117676457Y-89146056D03*
X120725259Y-90408912D03*
%TD*%
D39*
%TO.C,I6*%
X179085200Y-113427975D03*
X182134002Y-112165119D03*
%TD*%
D37*
%TO.C,I5*%
X213216514Y-96680916D03*
X216317500Y-95552250D03*
%TD*%
D23*
%TO.C,S25*%
X184235609Y-86273308D03*
X186668368Y-90839946D03*
D24*
X187039980Y-78671466D03*
D25*
X189316946Y-84168549D03*
D24*
X192501281Y-78790584D03*
D23*
X194398283Y-82063790D03*
D33*
X184014274Y-79924754D03*
X195526986Y-77537295D03*
%TD*%
D23*
%TO.C,S3*%
X55804573Y-58401261D03*
X54954618Y-63505189D03*
D24*
X62657138Y-54077507D03*
D25*
X61117165Y-59824766D03*
D24*
X66917366Y-57496636D03*
D23*
X66429757Y-61248271D03*
D40*
X59493731Y-53229875D03*
X70080773Y-58344272D03*
%TD*%
D39*
%TO.C,SW28*%
X173965298Y-88001825D03*
X177014100Y-86738969D03*
%TD*%
D23*
%TO.C,S8*%
X95566314Y-66561526D03*
X94274756Y-71571951D03*
D24*
X102769643Y-62851466D03*
D25*
X100734623Y-68442637D03*
D24*
X106715662Y-66628887D03*
D23*
X105902932Y-70323748D03*
D26*
X99692150Y-61731350D03*
X109793155Y-67749006D03*
%TD*%
D39*
%TO.C,SW27*%
X181236276Y-105555540D03*
X184285078Y-104292684D03*
%TD*%
D23*
%TO.C,S2*%
X48727177Y-79702359D03*
X48325293Y-84860943D03*
D24*
X55176827Y-74797818D03*
D25*
X54143620Y-80657424D03*
D24*
X59718839Y-77832634D03*
D23*
X59560063Y-81612489D03*
D41*
X51951581Y-74229120D03*
X62944085Y-78401334D03*
%TD*%
D23*
%TO.C,S10*%
X103759875Y-99617499D03*
X102250995Y-104566818D03*
D24*
X111118178Y-96225175D03*
D25*
X108841212Y-101722258D03*
D24*
X114895673Y-100171124D03*
D23*
X113922549Y-103827017D03*
D36*
X108092473Y-94971887D03*
X117921378Y-101424415D03*
%TD*%
D23*
%TO.C,S16*%
X245869074Y-81612488D03*
X247255766Y-86597424D03*
D24*
X250252310Y-74797817D03*
D25*
X251285517Y-80657423D03*
D24*
X255558375Y-76096151D03*
D23*
X256701960Y-79702358D03*
D42*
X247027065Y-75366515D03*
X258783620Y-75527455D03*
%TD*%
D34*
%TO.C,SW3*%
X63317755Y-64555510D03*
X66505311Y-65409610D03*
%TD*%
D37*
%TO.C,SW23*%
X202712180Y-53201486D03*
X205813166Y-52072820D03*
%TD*%
%TO.C,SW22*%
X209210563Y-71055645D03*
X212311549Y-69926979D03*
%TD*%
D23*
%TO.C,S32*%
X165592428Y-138382015D03*
X169124226Y-142163404D03*
D24*
X166333740Y-130313375D03*
D25*
X169955871Y-135033827D03*
D24*
X171639780Y-129014944D03*
D23*
X174319314Y-131685639D03*
D43*
X163735508Y-132307068D03*
X174238015Y-127021251D03*
%TD*%
D27*
%TO.C,SW18*%
X237009498Y-93355484D03*
X240197054Y-92501384D03*
%TD*%
D34*
%TO.C,I1*%
X68392329Y-100025702D03*
X71579885Y-100879802D03*
%TD*%
D23*
%TO.C,S9*%
X102064699Y-48707358D03*
X100773141Y-53717783D03*
D24*
X109268028Y-44997298D03*
D25*
X107233008Y-50588469D03*
D24*
X113214047Y-48774719D03*
D23*
X112401317Y-52469580D03*
D26*
X106190535Y-43877182D03*
X116291540Y-49894838D03*
%TD*%
D23*
%TO.C,S22*%
X199526203Y-70323744D03*
X201757453Y-74992151D03*
D24*
X202659492Y-62851462D03*
D25*
X204694512Y-68442633D03*
D24*
X208110400Y-63208685D03*
D23*
X209862821Y-66561522D03*
D32*
X199581999Y-63971578D03*
X211187893Y-62088569D03*
%TD*%
D34*
%TO.C,SW4*%
X74891350Y-95089579D03*
X78078906Y-95943679D03*
%TD*%
D44*
%TO.C,SW2*%
X56748137Y-85178390D03*
X59998003Y-85751428D03*
%TD*%
D39*
%TO.C,SW25*%
X193942669Y-86582071D03*
X196991471Y-85319215D03*
%TD*%
D29*
%TO.C,SW14*%
X137653831Y-90565806D03*
X140702633Y-91828662D03*
%TD*%
D23*
%TO.C,S30*%
X131109821Y-131685635D03*
X128371376Y-136075786D03*
D25*
X135473264Y-135033823D03*
D24*
X139095395Y-130313371D03*
X141722886Y-135102552D03*
D23*
X139836707Y-138382011D03*
D28*
X136497162Y-128319677D03*
X144321117Y-137096252D03*
%TD*%
D23*
%TO.C,S21*%
X206024584Y-88177903D03*
X208255834Y-92846310D03*
D24*
X209157873Y-80705621D03*
D25*
X211192893Y-86296792D03*
D24*
X214608781Y-81062844D03*
D23*
X216361202Y-84415681D03*
D32*
X206080380Y-81825737D03*
X217686274Y-79942728D03*
%TD*%
D39*
%TO.C,D6*%
X177994550Y-110794922D03*
X181043352Y-109532066D03*
%TD*%
D27*
%TO.C,SW19*%
X232091935Y-75002895D03*
X235279491Y-74148795D03*
%TD*%
D34*
%TO.C,SW5*%
X79808900Y-76736985D03*
X82996456Y-77591085D03*
%TD*%
D45*
%TO.C,SW30*%
X135695955Y-140246595D03*
X138314021Y-142255507D03*
%TD*%
D23*
%TO.C,S24*%
X191506578Y-103827017D03*
X193939337Y-108393655D03*
D24*
X194310949Y-96225175D03*
D25*
X196587915Y-101722258D03*
D24*
X199772250Y-96344293D03*
D23*
X201669252Y-99617499D03*
D33*
X191285243Y-97478463D03*
X202797955Y-95091004D03*
%TD*%
D46*
%TO.C,SW33*%
X151064570Y-101083830D03*
X154364570Y-101083830D03*
%TD*%
D30*
%TO.C,SW16*%
X255279210Y-84014942D03*
X258529076Y-83441904D03*
%TD*%
D29*
%TO.C,D3*%
X124385792Y-109532068D03*
X127434594Y-110794924D03*
%TD*%
D39*
%TO.C,SW26*%
X186671689Y-69028368D03*
X189720491Y-67765512D03*
%TD*%
D23*
%TO.C,S19*%
X222508222Y-73429743D03*
X224324105Y-78274851D03*
D24*
X226280841Y-66258979D03*
D25*
X227820814Y-72006238D03*
D24*
X231679872Y-67089919D03*
D23*
X233133406Y-70582733D03*
D35*
X223117434Y-67106612D03*
X234843279Y-66242289D03*
%TD*%
D29*
%TO.C,SW13*%
X130382857Y-108119515D03*
X133431659Y-109382371D03*
%TD*%
D23*
%TO.C,S11*%
X111030857Y-82063782D03*
X109521977Y-87013101D03*
D24*
X118389160Y-78671458D03*
D25*
X116112194Y-84168541D03*
D24*
X122166655Y-82617407D03*
D23*
X121193531Y-86273300D03*
D36*
X115363455Y-77418170D03*
X125192360Y-83870698D03*
%TD*%
D23*
%TO.C,S5*%
X72295734Y-70582730D03*
X71445779Y-75686658D03*
D24*
X79148299Y-66258976D03*
D25*
X77608326Y-72006235D03*
D24*
X83408527Y-69678105D03*
D23*
X82920918Y-73429740D03*
D40*
X75984892Y-65411344D03*
X86571934Y-70525741D03*
%TD*%
D27*
%TO.C,SW20*%
X227174372Y-56650303D03*
X230361928Y-55796203D03*
%TD*%
D23*
%TO.C,S1*%
X45427861Y-98413709D03*
X45025977Y-103572293D03*
D24*
X51877511Y-93509168D03*
D25*
X50844304Y-99368774D03*
D24*
X56419523Y-96543984D03*
D23*
X56260747Y-100323839D03*
D41*
X48652265Y-92940470D03*
X59644769Y-97112684D03*
%TD*%
D47*
%TO.C,SW34*%
X169714564Y-48938485D03*
X175714564Y-48938485D03*
X169714564Y-45238485D03*
X175714564Y-45238485D03*
%TD*%
D29*
%TO.C,SW12*%
X124947451Y-71592343D03*
X127996253Y-72855199D03*
%TD*%
D23*
%TO.C,S18*%
X227425773Y-91782333D03*
X229241656Y-96627441D03*
D24*
X231198392Y-84611569D03*
D25*
X232738365Y-90358828D03*
D24*
X236597423Y-85442509D03*
D23*
X238050957Y-88935323D03*
D35*
X228034985Y-85459202D03*
X239760830Y-84594879D03*
%TD*%
D39*
%TO.C,SW24*%
X201213650Y-104135791D03*
X204262452Y-102872935D03*
%TD*%
D34*
%TO.C,D1*%
X69129965Y-97272816D03*
X72317521Y-98126916D03*
%TD*%
D23*
%TO.C,S12*%
X118301844Y-64510075D03*
X116792964Y-69459394D03*
D24*
X125660147Y-61117751D03*
D25*
X123383181Y-66614834D03*
D24*
X129437642Y-65063700D03*
D23*
X128464518Y-68719593D03*
D36*
X122634442Y-59864463D03*
X132463347Y-66316991D03*
%TD*%
D23*
%TO.C,S6*%
X77213298Y-52230140D03*
X76363343Y-57334068D03*
D24*
X84065863Y-47906386D03*
D25*
X82525890Y-53653645D03*
D24*
X88326091Y-51325515D03*
D23*
X87838482Y-55077150D03*
D40*
X80902456Y-47058754D03*
X91489498Y-52173151D03*
%TD*%
D23*
%TO.C,S26*%
X176964622Y-68719593D03*
X179397381Y-73286231D03*
D24*
X179768993Y-61117751D03*
D25*
X182045959Y-66614834D03*
D24*
X185230294Y-61236869D03*
D23*
X187127296Y-64510075D03*
D33*
X176743287Y-62371039D03*
X188255999Y-59983580D03*
%TD*%
D45*
%TO.C,SW29*%
X120622228Y-128680116D03*
X123240294Y-130689028D03*
%TD*%
D27*
%TO.C,D4*%
X233111615Y-98126906D03*
X236299171Y-97272806D03*
%TD*%
D23*
%TO.C,S28*%
X164258237Y-87693052D03*
X166690996Y-92259690D03*
D24*
X167062608Y-80091210D03*
D25*
X169339574Y-85588293D03*
D24*
X172523909Y-80210328D03*
D23*
X174420911Y-83483534D03*
D33*
X164036902Y-81344498D03*
X175549614Y-78957039D03*
%TD*%
D38*
%TO.C,SW32*%
X175048654Y-136167887D03*
X177666720Y-134158975D03*
%TD*%
D23*
%TO.C,S31*%
X180666148Y-126815550D03*
X184197946Y-130596939D03*
D24*
X181407460Y-118746910D03*
D25*
X185029591Y-123467362D03*
D24*
X186713500Y-117448479D03*
D23*
X189393034Y-120119174D03*
D43*
X178809228Y-120740603D03*
X189311735Y-115454786D03*
%TD*%
D23*
%TO.C,S15*%
X249168389Y-100323843D03*
X250555081Y-105308779D03*
D24*
X253551625Y-93509172D03*
D25*
X254584832Y-99368778D03*
D24*
X258857690Y-94807506D03*
D23*
X260001275Y-98413713D03*
D42*
X250326380Y-94077870D03*
X262082935Y-94238810D03*
%TD*%
D31*
%TO.C,SW7*%
X96016124Y-91201338D03*
X99117110Y-92330004D03*
%TD*%
D23*
%TO.C,S4*%
X67378171Y-88935326D03*
X66528216Y-94039254D03*
D24*
X74230736Y-84611572D03*
D25*
X72690763Y-90358831D03*
D24*
X78490964Y-88030701D03*
D23*
X78003355Y-91782336D03*
D40*
X71067329Y-83763940D03*
X81654371Y-88878337D03*
%TD*%
D44*
%TO.C,SW1*%
X53448821Y-103889732D03*
X56698687Y-104462770D03*
%TD*%
D31*
%TO.C,SW8*%
X102514515Y-73347178D03*
X105615501Y-74475844D03*
%TD*%
D37*
%TO.C,D5*%
X212241749Y-94002789D03*
X215342735Y-92874123D03*
%TD*%
M02*
