%TF.GenerationSoftware,KiCad,Pcbnew,8.0.7*%
%TF.CreationDate,2025-02-03T22:04:45-07:00*%
%TF.ProjectId,chuck,63687563-6b2e-46b6-9963-61645f706362,v1.2*%
%TF.SameCoordinates,Original*%
%TF.FileFunction,Paste,Bot*%
%TF.FilePolarity,Positive*%
%FSLAX46Y46*%
G04 Gerber Fmt 4.6, Leading zero omitted, Abs format (unit mm)*
G04 Created by KiCad (PCBNEW 8.0.7) date 2025-02-03 22:04:45*
%MOMM*%
%LPD*%
G01*
G04 APERTURE LIST*
G04 Aperture macros list*
%AMRoundRect*
0 Rectangle with rounded corners*
0 $1 Rounding radius*
0 $2 $3 $4 $5 $6 $7 $8 $9 X,Y pos of 4 corners*
0 Add a 4 corners polygon primitive as box body*
4,1,4,$2,$3,$4,$5,$6,$7,$8,$9,$2,$3,0*
0 Add four circle primitives for the rounded corners*
1,1,$1+$1,$2,$3*
1,1,$1+$1,$4,$5*
1,1,$1+$1,$6,$7*
1,1,$1+$1,$8,$9*
0 Add four rect primitives between the rounded corners*
20,1,$1+$1,$2,$3,$4,$5,0*
20,1,$1+$1,$4,$5,$6,$7,0*
20,1,$1+$1,$6,$7,$8,$9,0*
20,1,$1+$1,$8,$9,$2,$3,0*%
%AMRotRect*
0 Rectangle, with rotation*
0 The origin of the aperture is its center*
0 $1 length*
0 $2 width*
0 $3 Rotation angle, in degrees counterclockwise*
0 Add horizontal line*
21,1,$1,$2,0,0,$3*%
G04 Aperture macros list end*
%ADD10R,0.900000X0.900000*%
%ADD11R,0.900000X1.250000*%
%ADD12O,2.750000X1.800000*%
%ADD13R,2.750000X1.800000*%
%ADD14R,2.000000X2.000000*%
%ADD15C,2.000000*%
%ADD16RotRect,1.550000X1.000000X15.000000*%
%ADD17RotRect,1.200000X1.200000X345.000000*%
%ADD18RoundRect,0.250000X1.352757X0.522062X-0.587390X1.325697X-1.352757X-0.522062X0.587390X-1.325697X0*%
%ADD19RoundRect,0.250000X0.587390X1.325697X-1.352757X0.522062X-0.587390X-1.325697X1.352757X-0.522062X0*%
%ADD20RotRect,1.200000X1.200000X80.000000*%
%ADD21RotRect,1.200000X1.200000X20.000000*%
%ADD22RotRect,1.200000X1.200000X47.500000*%
%ADD23RoundRect,0.250000X1.207696X0.802477X-0.860400X1.167138X-1.207696X-0.802477X0.860400X-1.167138X0*%
%ADD24RotRect,1.200000X1.200000X70.000000*%
%ADD25RotRect,1.200000X1.200000X337.500000*%
%ADD26RoundRect,0.250000X1.328697X0.580571X-0.644657X1.298814X-1.328697X-0.580571X0.644657X-1.298814X0*%
%ADD27RotRect,1.200000X1.200000X105.000000*%
%ADD28RoundRect,0.250000X0.860400X1.167138X-1.207696X0.802477X-0.860400X-1.167138X1.207696X-0.802477X0*%
%ADD29RotRect,1.200000X1.200000X112.500000*%
%ADD30RoundRect,0.250000X1.273041X0.694166X-0.755403X1.237686X-1.273041X-0.694166X0.755403X-1.237686X0*%
%ADD31RoundRect,0.250000X1.449731X0.027908X-0.098551X1.446647X-1.449731X-0.027908X0.098551X-1.446647X0*%
%ADD32RotRect,1.200000X1.200000X75.000000*%
%ADD33RotRect,1.200000X1.200000X110.000000*%
%ADD34RotRect,1.200000X1.200000X340.000000*%
%ADD35RotRect,1.200000X1.200000X67.500000*%
%ADD36RoundRect,0.250000X0.644657X1.298814X-1.328697X0.580571X-0.644657X-1.298814X1.328697X-0.580571X0*%
%ADD37RotRect,1.200000X1.200000X100.000000*%
%ADD38RotRect,1.200000X1.200000X22.500000*%
%ADD39RotRect,1.200000X1.200000X15.000000*%
%ADD40RoundRect,0.250000X0.755403X1.237686X-1.273041X0.694166X-0.755403X-1.237686X1.273041X-0.694166X0*%
%ADD41RotRect,1.200000X1.200000X132.500000*%
%ADD42RoundRect,0.250000X0.098551X1.446647X-1.449731X0.027908X-0.098551X-1.446647X1.449731X-0.027908X0*%
G04 APERTURE END LIST*
D10*
%TO.C,T1*%
X175738322Y-32531494D03*
X175738322Y-34731500D03*
X183138322Y-32531494D03*
X183138322Y-34731500D03*
D11*
X177188322Y-35706497D03*
X180188319Y-35706498D03*
X181688322Y-35706497D03*
%TD*%
D12*
%TO.C,MCU1*%
X122318319Y-34361508D03*
X122318319Y-36901508D03*
X122318319Y-39441508D03*
X122318321Y-41981509D03*
X122318319Y-44521508D03*
X122318319Y-47061508D03*
X122318319Y-49601508D03*
X138558319Y-49601508D03*
X138558319Y-47061508D03*
X138558319Y-44521508D03*
X138558317Y-41981507D03*
X138558319Y-39441508D03*
D13*
X138558319Y-36901508D03*
D12*
X138558319Y-34361508D03*
%TD*%
D14*
%TO.C,PAD4*%
X171938319Y-46431510D03*
%TD*%
D15*
%TO.C,PAD2*%
X134438312Y-55731509D03*
%TD*%
%TO.C,PAD1*%
X126438321Y-55731505D03*
%TD*%
%TO.C,PAD3*%
X168438313Y-51431510D03*
%TD*%
D16*
%TO.C,B1*%
X231352340Y-46305747D03*
X236423450Y-44946947D03*
X231792332Y-47947821D03*
X236863442Y-46589021D03*
%TD*%
D17*
%TO.C,I1*%
X68507563Y-102539247D03*
X71695119Y-103393347D03*
%TD*%
D18*
%TO.C,S14*%
X146424165Y-83169691D03*
X133614506Y-76727244D03*
%TD*%
D19*
%TO.C,S25*%
X191304311Y-75588742D03*
X177691017Y-80091040D03*
%TD*%
D20*
%TO.C,SW2*%
X59706239Y-82978439D03*
X60279277Y-79728573D03*
%TD*%
D17*
%TO.C,D1*%
X69245199Y-99786365D03*
X72432755Y-100640465D03*
%TD*%
D21*
%TO.C,D5*%
X209890182Y-96416659D03*
X212991168Y-95287993D03*
%TD*%
D22*
%TO.C,SW15*%
X133864794Y-140324246D03*
X136094242Y-137891230D03*
%TD*%
D23*
%TO.C,S1*%
X60686909Y-94981083D03*
X46786489Y-91463866D03*
%TD*%
D24*
%TO.C,SW8*%
X105625484Y-71485948D03*
X106754150Y-68384962D03*
%TD*%
D25*
%TO.C,D3*%
X124030337Y-111885833D03*
X127079139Y-113148689D03*
%TD*%
D26*
%TO.C,S9*%
X117503779Y-47768215D03*
X104425296Y-41890650D03*
%TD*%
D27*
%TO.C,SW21*%
X215108236Y-56350468D03*
X214254136Y-53162912D03*
%TD*%
D28*
%TO.C,S16*%
X254745828Y-73474000D03*
X240480745Y-74923121D03*
%TD*%
D29*
%TO.C,SW26*%
X182060411Y-87373277D03*
X180797555Y-84324475D03*
%TD*%
D27*
%TO.C,SW20*%
X220025803Y-74703059D03*
X219171703Y-71515503D03*
%TD*%
D23*
%TO.C,S2*%
X63986227Y-76269731D03*
X50085807Y-72752514D03*
%TD*%
D24*
%TO.C,SW9*%
X112123869Y-53631787D03*
X113252535Y-50530801D03*
%TD*%
D30*
%TO.C,S6*%
X92616793Y-50040327D03*
X79075814Y-45324992D03*
%TD*%
D31*
%TO.C,S29*%
X141079064Y-136965810D03*
X131245367Y-126530728D03*
%TD*%
D19*
%TO.C,S24*%
X198575292Y-93142455D03*
X184961998Y-97644753D03*
%TD*%
D24*
%TO.C,SW7*%
X99127101Y-89340113D03*
X100255767Y-86239127D03*
%TD*%
D28*
%TO.C,S15*%
X258045132Y-92185349D03*
X243780049Y-93634470D03*
%TD*%
D32*
%TO.C,SW5*%
X82850842Y-74703064D03*
X83704942Y-71515508D03*
%TD*%
D27*
%TO.C,SW18*%
X236516952Y-62521588D03*
X235662852Y-59334032D03*
%TD*%
D18*
%TO.C,S10*%
X119175804Y-99303650D03*
X106366145Y-92861203D03*
%TD*%
D33*
%TO.C,SW22*%
X203749531Y-89340111D03*
X202620865Y-86239125D03*
%TD*%
D19*
%TO.C,S27*%
X178597921Y-94562200D03*
X164984627Y-99064498D03*
%TD*%
D29*
%TO.C,SW28*%
X169354019Y-106346734D03*
X168091163Y-103297932D03*
%TD*%
D34*
%TO.C,I2*%
X88910709Y-97966111D03*
X92011695Y-99094777D03*
%TD*%
D26*
%TO.C,S8*%
X111005401Y-65622373D03*
X97926918Y-59744808D03*
%TD*%
D35*
%TO.C,SW11*%
X120816229Y-87373271D03*
X122079085Y-84324469D03*
%TD*%
D36*
%TO.C,S22*%
X207000295Y-60115854D03*
X193203570Y-64020063D03*
%TD*%
D29*
%TO.C,SW29*%
X162083027Y-88793016D03*
X160820171Y-85744214D03*
%TD*%
D37*
%TO.C,SW17*%
X243170399Y-82978449D03*
X242597361Y-79728583D03*
%TD*%
D38*
%TO.C,I6*%
X176888140Y-115781747D03*
X179936942Y-114518891D03*
%TD*%
D39*
%TO.C,I4*%
X231181512Y-103393349D03*
X234369068Y-102539249D03*
%TD*%
D37*
%TO.C,SW16*%
X246469703Y-101689787D03*
X245896665Y-98439921D03*
%TD*%
D40*
%TO.C,S19*%
X230728815Y-64225919D03*
X216644315Y-66912806D03*
%TD*%
D19*
%TO.C,S26*%
X184033331Y-58035034D03*
X170420037Y-62537332D03*
%TD*%
D29*
%TO.C,SW27*%
X174789420Y-69819556D03*
X173526564Y-66770754D03*
%TD*%
D20*
%TO.C,SW1*%
X56406927Y-101689791D03*
X56979965Y-98439925D03*
%TD*%
D35*
%TO.C,SW10*%
X113545245Y-104926988D03*
X114808101Y-101878186D03*
%TD*%
D18*
%TO.C,S12*%
X133717769Y-64196229D03*
X120908110Y-57753782D03*
%TD*%
D41*
%TO.C,SW30*%
X169011843Y-140324252D03*
X166782395Y-137891236D03*
%TD*%
D32*
%TO.C,SW4*%
X77933273Y-93055658D03*
X78787373Y-89868102D03*
%TD*%
D40*
%TO.C,S17*%
X247219965Y-52044449D03*
X233135465Y-54731336D03*
%TD*%
D27*
%TO.C,SW19*%
X224943363Y-93055652D03*
X224089263Y-89868096D03*
%TD*%
D30*
%TO.C,S5*%
X87699227Y-68392905D03*
X74158248Y-63677570D03*
%TD*%
D18*
%TO.C,S11*%
X126446790Y-81749938D03*
X113637131Y-75307491D03*
%TD*%
D42*
%TO.C,S30*%
X173667732Y-126088808D03*
X162415296Y-134975607D03*
%TD*%
D36*
%TO.C,S23*%
X200501911Y-42261694D03*
X186705186Y-46165903D03*
%TD*%
D19*
%TO.C,S28*%
X171326945Y-77008495D03*
X157713651Y-81510793D03*
%TD*%
D26*
%TO.C,S7*%
X104507006Y-83476533D03*
X91428523Y-77598968D03*
%TD*%
D39*
%TO.C,D4*%
X230443881Y-100640466D03*
X233631437Y-99786366D03*
%TD*%
D33*
%TO.C,SW23*%
X197251149Y-71485957D03*
X196122483Y-68384971D03*
%TD*%
%TO.C,SW24*%
X190752764Y-53631792D03*
X189624098Y-50530806D03*
%TD*%
D40*
%TO.C,S20*%
X225811242Y-45873330D03*
X211726742Y-48560217D03*
%TD*%
D29*
%TO.C,SW25*%
X189331391Y-104926989D03*
X188068535Y-101878187D03*
%TD*%
D34*
%TO.C,D2*%
X89885473Y-95287990D03*
X92986459Y-96416656D03*
%TD*%
D32*
%TO.C,SW6*%
X87768404Y-56350478D03*
X88622504Y-53162922D03*
%TD*%
D30*
%TO.C,S4*%
X82781662Y-86745495D03*
X69240683Y-82030160D03*
%TD*%
%TO.C,S3*%
X71208078Y-56211436D03*
X57667099Y-51496101D03*
%TD*%
D35*
%TO.C,SW12*%
X128087221Y-69819560D03*
X129350077Y-66770758D03*
%TD*%
D38*
%TO.C,D6*%
X175797496Y-113148688D03*
X178846298Y-111885832D03*
%TD*%
D21*
%TO.C,I5*%
X210864947Y-99094779D03*
X213965933Y-97966113D03*
%TD*%
D18*
%TO.C,S13*%
X139153173Y-100723407D03*
X126343514Y-94280960D03*
%TD*%
D35*
%TO.C,SW14*%
X140793609Y-88793020D03*
X142056465Y-85744218D03*
%TD*%
D25*
%TO.C,I3*%
X122939695Y-114518891D03*
X125988497Y-115781747D03*
%TD*%
D36*
%TO.C,S21*%
X213498673Y-77970013D03*
X199701948Y-81874222D03*
%TD*%
D35*
%TO.C,SW13*%
X133522620Y-106346736D03*
X134785476Y-103297934D03*
%TD*%
D40*
%TO.C,S18*%
X235646367Y-82578514D03*
X221561867Y-85265401D03*
%TD*%
D32*
%TO.C,SW3*%
X66359686Y-62521591D03*
X67213786Y-59334035D03*
%TD*%
M02*
