%TF.GenerationSoftware,KiCad,Pcbnew,8.0.7*%
%TF.CreationDate,2025-01-13T21:54:52-07:00*%
%TF.ProjectId,chuck,63687563-6b2e-46b6-9963-61645f706362,v1.1*%
%TF.SameCoordinates,Original*%
%TF.FileFunction,Profile,NP*%
%FSLAX46Y46*%
G04 Gerber Fmt 4.6, Leading zero omitted, Abs format (unit mm)*
G04 Created by KiCad (PCBNEW 8.0.7) date 2025-01-13 21:54:52*
%MOMM*%
%LPD*%
G01*
G04 APERTURE LIST*
%TA.AperFunction,Profile*%
%ADD10C,0.150000*%
%TD*%
G04 APERTURE END LIST*
D10*
X54756985Y-42971134D02*
X69325096Y-46874652D01*
X121277952Y-33215481D02*
X101643975Y-33215478D01*
X258314873Y-88593154D02*
X261614185Y-107304500D01*
X45676138Y-67767082D02*
X46025849Y-67828751D01*
X163643980Y-42665487D02*
G75*
G02*
X164643913Y-43665484I20J-999913D01*
G01*
X94171197Y-119791757D02*
X130936735Y-153481163D01*
X252262107Y-67828745D02*
X252611818Y-67767084D01*
X135143973Y-53715481D02*
X135143969Y-33715486D01*
X252611818Y-67767084D02*
G75*
G02*
X254928714Y-69389406I347282J-1969616D01*
G01*
X223157530Y-40663726D02*
G75*
G02*
X225607003Y-42077938I517670J-1931774D01*
G01*
X121143972Y-33715478D02*
G75*
G02*
X121277965Y-33215488I999928J-22D01*
G01*
X52307490Y-44385348D02*
G75*
G02*
X54757000Y-42971076I1931910J-517652D01*
G01*
X133849926Y-154526488D02*
X164438025Y-154526482D01*
X226513360Y-45460439D02*
X225607024Y-42077932D01*
X204435029Y-45680400D02*
X223157530Y-40663726D01*
X96249936Y-44432592D02*
X99848220Y-34546403D01*
X72680932Y-42077937D02*
G75*
G02*
X75130427Y-40663722I1931868J-517663D01*
G01*
X99848220Y-34546403D02*
G75*
G02*
X101643975Y-33232145I1879480J-684097D01*
G01*
X38296092Y-109621412D02*
G75*
G02*
X36673786Y-107304505I347308J1969612D01*
G01*
X122143977Y-54715481D02*
X134143976Y-54715485D01*
X43359221Y-69389398D02*
G75*
G02*
X45676130Y-67767126I1969579J-347302D01*
G01*
X38296092Y-109621412D02*
X93167312Y-119296688D01*
X243530969Y-42971135D02*
G75*
G02*
X245980459Y-44385348I517631J-1931865D01*
G01*
X167351214Y-153481161D02*
X204116747Y-119791752D01*
X75130428Y-40663719D02*
X93852916Y-45680399D01*
X204116747Y-119791752D02*
G75*
G02*
X205120636Y-119296703I1351153J-1474548D01*
G01*
X196643976Y-33232188D02*
X196643978Y-33215481D01*
X101643975Y-33215478D02*
X101643977Y-33232191D01*
X254928723Y-69389404D02*
X258314755Y-88592525D01*
X93167312Y-119296688D02*
G75*
G02*
X94171195Y-119791759I-347312J-1969612D01*
G01*
X198439734Y-34546399D02*
X202038003Y-44432590D01*
X142643975Y-75665485D02*
G75*
G02*
X141643915Y-74665481I25J1000085D01*
G01*
X96249936Y-44432592D02*
G75*
G02*
X93852906Y-45680436I-1879336J683892D01*
G01*
X196643976Y-33232188D02*
G75*
G02*
X198439731Y-34546400I-83676J-1998312D01*
G01*
X196643978Y-33215481D02*
X135010001Y-33215479D01*
X141643977Y-43665477D02*
X141643977Y-74665481D01*
X39973192Y-88592529D02*
G75*
G02*
X39973089Y-88593153I-25092J3829D01*
G01*
X39973192Y-88592529D02*
X43359221Y-69389398D01*
X121143972Y-33715478D02*
X121143977Y-53715483D01*
X72680932Y-42077937D02*
X71774590Y-45460442D01*
X258314867Y-88593154D02*
X258314755Y-88592525D01*
X122143977Y-54715481D02*
G75*
G02*
X121143919Y-53715483I23J1000081D01*
G01*
X261614185Y-107304500D02*
G75*
G02*
X259991854Y-109621393I-1969585J-347300D01*
G01*
X135010001Y-33215479D02*
G75*
G02*
X135143966Y-33715486I-865801J-499921D01*
G01*
X163643980Y-42665487D02*
X142643974Y-42665483D01*
X133849926Y-154526488D02*
G75*
G02*
X130936714Y-153481186I-210826J3994588D01*
G01*
X245980452Y-44385350D02*
X252262107Y-67828745D01*
X228962849Y-46874652D02*
X243530969Y-42971135D01*
X142643975Y-75665485D02*
X163643974Y-75665479D01*
X204435029Y-45680400D02*
G75*
G02*
X202037988Y-44432596I-517629J1931900D01*
G01*
X164643978Y-74665483D02*
G75*
G02*
X163643974Y-75665478I-999978J-17D01*
G01*
X46025849Y-67828751D02*
X52307495Y-44385348D01*
X164643978Y-74665483D02*
X164643976Y-43665484D01*
X71774590Y-45460442D02*
G75*
G02*
X69325084Y-46874697I-1931890J517642D01*
G01*
X36673763Y-107304501D02*
X39973088Y-88593153D01*
X141643977Y-43665477D02*
G75*
G02*
X142643974Y-42665577I999923J-23D01*
G01*
X167351214Y-153481161D02*
G75*
G02*
X164438027Y-154526450I-2702214J2948861D01*
G01*
X205120634Y-119296693D02*
X259991859Y-109621420D01*
X228962849Y-46874652D02*
G75*
G02*
X226513346Y-45460443I-517649J1931852D01*
G01*
X135143973Y-53715481D02*
G75*
G02*
X134143976Y-54715573I-1000073J-19D01*
G01*
M02*
